#VRML V2.0 utf8
# 3D model generated by easyeda2kicad.py (https://github.com/uPesy/easyeda2kicad.py)

Shape{
    appearance Appearance {
        material  Material 	{
            diffuseColor 0.6666666666666666 0.6666666666666666 0.6666666666666666
            specularColor 0.4666666666666667 0.4666666666666667 0.4666666666666667
            ambientIntensity 0.6667
            transparency 0.0
            shininess 0.5
        }
    }
    geometry IndexedFaceSet {
        ccw TRUE
        solid FALSE
        coord DEF co Coordinate {
            point [
                0.0723 -0.1555 2.9475, 0.0723 -0.1555 2.9003, 0.1869 -0.1555 2.9003, 0.3172 -0.1555 3.243, 0.3172 -0.1555 3.2049, 0.3494 -0.1555 3.2049, 0.4664 -0.1555 3.0022, 0.4664 -0.1555 2.9621, 0.4887 -0.1555 2.9621, 0.4426 -0.1555 3.2542, 0.443 -0.1555 3.254, 0.443 -0.1555 3.2577, -0.2845 -0.1555 3.0472, -0.2697 -0.1555 3.0337, -0.2353 -0.1555 3.0516, -0.0081 -0.1555 3.1444, -0.0025 -0.1555 3.1365, 0.0723 -0.1555 3.1365, 0.2402 -0.1555 2.9495, 0.2345 -0.1555 2.9475, 0.2529 -0.1555 2.9485, 0.3238 -0.1555 2.9479, 0.3202 -0.1555 2.9475, 0.3494 -0.1555 2.9475, 1.2465 -0.1555 0.0039, 1.5665 -0.1555 0.0039, 1.5665 -0.1555 0.7039, 6.3165 -0.1555 3.5039, 2.6675 -0.1555 3.5039, 2.6675 -0.1555 3.2577, 0.435 -0.1555 3.0336, 0.401 -0.1555 2.9475, 0.443 -0.1555 2.9475, 0.2327 -0.1555 3.2567, 0.2414 -0.1555 3.2577, 0.1941 -0.1555 3.2577, 0.638 -0.1555 3.1365, 0.5993 -0.1555 3.1375, 0.5823 -0.1555 3.1375, 0.5701 -0.1555 3.1701, 0.5264 -0.1555 3.1701, 0.5264 -0.1555 3.1365, 0.5539 -0.1555 3.2567, 0.638 -0.1555 3.2577, 0.5264 -0.1555 3.2577, 0.5205 -0.1555 3.1701, 0.509 -0.1555 3.1375, 0.4887 -0.1555 3.1365, 0.492 -0.1555 3.1375, 0.4887 -0.1555 3.2577, 0.5264 -0.1555 3.2277, 0.5374 -0.1555 3.2567, 0.1364 -0.1555 3.0516, 0.1364 -0.1555 3.0158, 0.1869 -0.1555 3.0516, 0.179 -0.1555 3.0158, 0.1364 -0.1555 3.0022, 0.1364 -0.1555 2.9621, 0.179 -0.1555 3.0022, 0.1851 -0.1555 2.9621, 0.1869 -0.1555 2.9475, 0.1851 -0.1555 2.9485, 0.121 -0.1555 2.9485, 0.6867 -0.1555 3.0677, 0.6805 -0.1555 3.0516, 0.638 -0.1555 3.0516, 0.6413 -0.1555 2.9485, 0.638 -0.1555 2.9475, 0.6583 -0.1555 2.9485, 0.7315 -0.1555 2.9485, 0.7193 -0.1555 2.9811, 0.6697 -0.1555 2.9811, 0.7485 -0.1555 2.9485, 2.6675 -0.1555 2.9475, 0.7092 -0.1555 3.0516, 2.6675 -0.1555 3.0516, 0.7031 -0.1555 3.0677, 2.6675 -0.1555 3.1365, 0.283 -0.1555 3.2577, 0.2618 -0.1555 3.2577, 0.2667 -0.1555 3.2572, 0.278 -0.1555 3.2538, 0.278 -0.1555 3.2378, 0.283 -0.1555 3.1365, 0.278 -0.1555 3.1572, 0.278 -0.1555 3.1425, 0.2759 -0.1555 3.1415, 0.2632 -0.1555 3.1373, 0.2555 -0.1555 3.1365, 0.2754 -0.1555 3.2391, 0.2632 -0.1555 3.2434, 0.2538 -0.1555 3.1495, 0.2671 -0.1555 3.1522, 0.2049 -0.1555 3.1947, 0.2049 -0.1555 3.1958, 0.2499 -0.1555 3.2448, 0.2457 -0.1555 3.2447, 0.2353 -0.1555 3.2428, 0.2154 -0.1555 3.2293, 0.21 -0.1555 3.2207, 0.2063 -0.1555 3.2099, 0.2068 -0.1555 3.18, 0.2105 -0.1555 3.1703, 0.2166 -0.1555 3.1618, 0.2269 -0.1555 3.1539, 0.2354 -0.1555 3.1506, 0.2472 -0.1555 3.1492, 0.2259 -0.1555 3.2385, 0.2174 -0.1555 3.2316, 0.2191 -0.1555 3.1594, 0.2497 -0.1555 3.2587, 0.1941 -0.1555 3.5039, 0.283 -0.1555 3.5039, 0.2514 -0.1555 3.2587, 0.2202 -0.1555 3.2519, 0.1981 -0.1555 3.2311, 0.206 -0.1555 3.2412, 0.2087 -0.1555 3.2437, 0.1869 -0.1555 3.2577, 0.1921 -0.1555 3.2181, 0.1941 -0.1555 3.2224, 0.1941 -0.1555 3.1678, 0.191 -0.1555 3.1757, 0.1869 -0.1555 3.1365, 0.1888 -0.1555 3.1949, 0.1891 -0.1555 3.2029, 0.1941 -0.1555 3.0516, 0.2344 -0.1555 3.1365, 0.1941 -0.1555 3.1365, 0.2244 -0.1555 3.1387, 0.2132 -0.1555 3.1441, 0.2041 -0.1555 3.1518, 0.2029 -0.1555 3.153, 0.1959 -0.1555 3.1632, 0.283 -0.1555 3.0516, 0.245 -0.1555 3.1355, 0.2372 -0.1555 3.1359, 0.3922 -0.1555 2.9696, 0.394 -0.1555 2.9626, 0.3944 -0.1555 2.9626, 0.443 -0.1555 3.0516, 0.3772 -0.1555 3.0516, 0.4195 -0.1555 3.0336, 0.3772 -0.1555 3.0129, 0.3963 -0.1555 2.9695, 0.3951 -0.1555 2.9656, 0.3772 -0.1555 2.9728, 0.3533 -0.1555 3.0336, 0.3772 -0.1555 2.9475, 0.3862 -0.1555 2.9475, 0.3867 -0.1555 2.9487, 0.3772 -0.1555 2.9278, 0.3772 -0.1555 2.9279, 0.3801 -0.1555 2.9332, 0.3494 -0.1555 2.9003, 0.3564 -0.1555 2.9096, 0.3564 -0.1555 2.9229, 0.3648 -0.1555 2.9212, 0.3684 -0.1555 2.9216, 0.3772 -0.1555 2.9111, 0.372 -0.1555 2.9091, 0.3772 -0.1555 2.9003, 0.366 -0.1555 2.9084, 0.3627 -0.1555 2.9085, 0.3717 -0.1555 2.9228, 0.3744 -0.1555 2.9247, 0.3963 -0.1555 2.9357, 0.3896 -0.1555 2.9225, 0.443 -0.1555 2.9003, 0.3841 -0.1555 2.9159, 0.3831 -0.1555 2.915, 0.3779 -0.1555 2.9114, -0.8753 -0.1555 0.7707, -1.2335 -0.1555 0.4125, -0.8753 -0.1555 -1.4616, -1.2335 -0.1555 -0.5961, -1.1503 -0.1555 -1.3842, -1.1434 -0.1555 -1.4139, -1.1296 -0.1555 -1.441, -1.1096 -0.1555 -1.464, -1.0846 -0.1555 -1.4814, -1.0562 -0.1555 -1.4923, -1.026 -0.1555 -1.4961, -0.961 -0.1555 -1.4961, -0.9307 -0.1555 -1.4923, -0.9023 -0.1555 -1.4814, -0.8773 -0.1555 -1.464, -0.2981 -0.1555 2.9003, -0.3127 -0.1555 2.8947, 0.0723 -0.1555 0.0039, -0.7548 -0.1555 0.922, -0.7598 -0.1555 0.9002, -0.7695 -0.1555 0.88, -0.7835 -0.1555 0.8625, -0.7535 -0.1555 0.0039, -0.7535 -0.1555 -0.5961, -0.8367 -0.1555 -1.3842, -0.8574 -0.1555 -1.441, -0.8435 -0.1555 -1.4139, -0.8335 -0.1555 1.0539, -0.7835 -0.1555 1.0039, -0.3332 -0.1555 2.8922, -0.7695 -0.1555 0.9864, -0.7598 -0.1555 0.9663, -0.7548 -0.1555 0.9444, -0.3364 -0.1555 2.8922, -0.3564 -0.1555 2.8953, -0.8335 -0.1555 2.9003, -0.3682 -0.1555 2.9003, -0.376 -0.1555 2.9035, -0.4551 -0.1555 2.9679, -0.4815 -0.1555 2.9905, -0.8335 -0.1555 2.9475, -0.4244 -0.1555 2.953, -0.5008 -0.1555 3.018, -0.5129 -0.1555 3.0496, -0.8335 -0.1555 3.0516, -0.3926 -0.1555 2.916, -0.4052 -0.1555 2.9316, -0.4126 -0.1555 2.9475, -0.4137 -0.1555 2.9498, -0.5132 -0.1555 3.0516, -0.5171 -0.1555 3.0828, -0.8335 -0.1555 3.1365, -0.5168 -0.1555 3.0909, -0.4132 -0.1555 3.2159, -0.3798 -0.1555 3.2201, -0.323 -0.1555 3.2556, -0.5111 -0.1555 3.1227, -0.505 -0.1555 3.1365, -0.8335 -0.1555 3.2577, -0.4976 -0.1555 3.1532, -0.4772 -0.1555 3.1794, -0.343 -0.1555 3.2386, -0.3701 -0.1555 3.2195, -0.3603 -0.1555 3.2184, -0.4715 -0.1555 3.1848, -0.4446 -0.1555 3.2037, -0.1865 -0.1555 3.285, -0.144 -0.1555 3.27, 0.0723 -0.1555 3.5039, -0.7835 -0.1555 3.5039, -0.8335 -0.1555 3.4539, -0.3197 -0.1555 3.2577, -0.3023 -0.1555 3.2685, -0.2633 -0.1555 3.2835, -0.2214 -0.1555 3.2887, 3.5965 -0.1555 0.7039, 3.5965 -0.1555 1.0039, 2.6675 -0.1555 2.9003, 4.8459 -0.1555 1.9159, 4.7615 -0.1555 1.9508, 4.689 -0.1555 2.0065, 4.5985 -0.1555 2.3445, 4.6334 -0.1555 2.4289, 6.3665 -0.1555 2.9003, 5.2746 -0.1555 2.3445, 5.2865 -0.1555 2.2539, 4.6334 -0.1555 2.0789, 4.5985 -0.1555 2.1634, 4.5865 -0.1555 2.2539, 4.689 -0.1555 2.5014, 4.7615 -0.1555 2.557, 4.8459 -0.1555 2.592, 6.3665 -0.1555 1.0539, 5.2396 -0.1555 2.0789, 6.3165 -0.1555 1.0039, 5.184 -0.1555 2.0065, 5.2746 -0.1555 2.1634, 5.1115 -0.1555 1.9508, 5.0271 -0.1555 1.9159, 4.9365 -0.1555 1.9039, 5.1115 -0.1555 2.557, 5.0271 -0.1555 2.592, 4.9365 -0.1555 2.6039, 5.184 -0.1555 2.5014, 5.2396 -0.1555 2.4289, 0.638 -0.1555 2.9003, 2.6675 -0.1555 0.7039, 0.7665 -0.1555 0.0039, 1.2465 -0.1555 -0.5961, 0.7665 -0.1555 -0.5961, 1.1633 -0.1555 -1.3842, 0.8497 -0.1555 -1.3842, 0.974 -0.1555 -1.4961, 0.8904 -0.1555 -1.464, 0.8704 -0.1555 -1.441, 0.8566 -0.1555 -1.4139, 0.9154 -0.1555 -1.4814, 0.9438 -0.1555 -1.4923, 1.039 -0.1555 -1.4961, 1.0693 -0.1555 -1.4923, 1.0977 -0.1555 -1.4814, 1.1227 -0.1555 -1.464, 1.1426 -0.1555 -1.441, 1.1565 -0.1555 -1.4139, 0.638 -0.1555 0.0039, 0.5264 -0.1555 2.9003, 0.5264 -0.1555 0.0039, 0.4887 -0.1555 2.9003, 0.4887 -0.1555 0.0039, 0.443 -0.1555 0.0039, 0.3772 -0.1555 0.0039, 0.3494 -0.1555 0.0039, 0.283 -0.1555 2.9003, 0.283 -0.1555 0.0039, 0.1941 -0.1555 2.9003, 0.1941 -0.1555 0.0039, 0.1869 -0.1555 0.0039, 0.6222 -0.1555 3.0463, 0.6292 -0.1555 3.0355, 0.631 -0.1555 2.9869, 0.6249 -0.1555 2.9748, 0.6167 -0.1555 2.9652, 0.6041 -0.1555 2.9562, 0.5904 -0.1555 2.9509, 0.5704 -0.1555 2.9485, 0.5264 -0.1555 2.9475, 0.6332 -0.1555 3.0236, 0.6347 -0.1555 3.0096, 0.6342 -0.1555 3.0007, 0.5376 -0.1555 2.9485, 0.5376 -0.1555 3.0516, 0.5264 -0.1555 3.0516, 0.5376 -0.1555 3.0677, 0.5716 -0.1555 3.0677, 0.5738 -0.1555 3.0676, 0.5918 -0.1555 3.0652, 0.6059 -0.1555 3.0595, 0.6167 -0.1555 3.0519, 0.617 -0.1555 3.0516, 0.2985 -0.1555 2.9478, 0.288 -0.1555 2.9515, 0.283 -0.1555 2.9475, 0.288 -0.1555 2.9669, 0.3303 -0.1555 3.0349, 0.3414 -0.1555 3.0318, 0.3494 -0.1555 3.0516, 0.3414 -0.1555 3.0173, 0.3405 -0.1555 2.9857, 0.3433 -0.1555 2.9816, 0.2881 -0.1555 3.0106, 0.2887 -0.1555 3.016, 0.2904 -0.1555 3.0003, 0.2888 -0.1555 3.0049, 0.3449 -0.1555 2.9772, 0.3455 -0.1555 2.9717, 0.3448 -0.1555 2.9657, 0.343 -0.1555 2.9609, 0.3402 -0.1555 2.957, 0.37 -0.1555 3.0336, 0.2924 -0.1555 2.9972, 0.2905 -0.1555 3.0208, 0.2933 -0.1555 3.0248, 0.2977 -0.1555 3.0288, 0.3014 -0.1555 3.0311, 0.3094 -0.1555 3.0342, 0.3213 -0.1555 3.0356, 0.3359 -0.1555 2.9533, 0.3319 -0.1555 2.9508, 0.3032 -0.1555 2.9598, 0.3107 -0.1555 2.9859, 0.2939 -0.1555 2.9633, 0.3018 -0.1555 2.99, 0.2948 -0.1555 2.9946, 0.3198 -0.1555 3.0234, 0.3154 -0.1555 3.0231, 0.3035 -0.1555 3.012, 0.3114 -0.1555 3.0221, 0.308 -0.1555 3.0203, 0.3036 -0.1555 3.01, 0.3042 -0.1555 3.0077, 0.3053 -0.1555 3.0057, 0.3126 -0.1555 2.9587, 0.3132 -0.1555 2.9587, 0.3205 -0.1555 2.9818, 0.3209 -0.1555 2.9595, 0.3302 -0.1555 2.9702, 0.33 -0.1555 2.9721, 0.3068 -0.1555 3.0041, 0.312 -0.1555 3.0008, 0.3306 -0.1555 3.0221, 0.3213 -0.1555 2.9968, 0.339 -0.1555 3.0187, 0.327 -0.1555 2.9944, 0.337 -0.1555 2.9889, 0.3247 -0.1555 2.961, 0.3261 -0.1555 2.9618, 0.3278 -0.1555 2.9633, 0.3058 -0.1555 3.0183, 0.3045 -0.1555 3.0164, 0.3038 -0.1555 3.0144, 0.3291 -0.1555 2.9652, 0.3299 -0.1555 2.9674, 0.3294 -0.1555 2.9744, 0.3282 -0.1555 2.9764, 0.3263 -0.1555 2.9783, 0.3015 -0.1555 2.9475, 0.3111 -0.1555 2.9465, 0.3594 -0.1555 2.9219, 0.2454 -0.1555 2.9531, 0.2407 -0.1555 3.0229, 0.2356 -0.1555 3.0234, 0.2277 -0.1555 2.9991, 0.2664 -0.1555 3.0156, 0.2678 -0.1555 3.0033, 0.2051 -0.1555 2.9886, 0.2095 -0.1555 2.9927, 0.2077 -0.1555 3.0131, 0.2155 -0.1555 2.996, 0.2178 -0.1555 3.0195, 0.2272 -0.1555 3.0226, 0.2178 -0.1555 2.9475, 0.1941 -0.1555 2.9475, 0.2175 -0.1555 2.9475, 0.2118 -0.1555 2.9497, 0.2678 -0.1555 2.9485, 0.2067 -0.1555 2.9532, 0.2051 -0.1555 2.9549, 0.202 -0.1555 2.9595, 0.2077 -0.1555 3.0276, 0.2123 -0.1555 3.0302, 0.2529 -0.1555 2.9617, 0.2525 -0.1555 2.9617, 0.2502 -0.1555 2.9581, 0.2002 -0.1555 2.9645, 0.1994 -0.1555 2.9713, 0.2001 -0.1555 2.9783, 0.202 -0.1555 2.9838, 0.253 -0.1555 3.0326, 0.2578 -0.1555 3.0296, 0.2529 -0.1555 3.0026, 0.2524 -0.1555 3.0092, 0.2508 -0.1555 3.0145, 0.2491 -0.1555 3.0176, 0.2608 -0.1555 3.0267, 0.264 -0.1555 3.0221, 0.2236 -0.1555 3.0341, 0.237 -0.1555 3.0356, 0.2469 -0.1555 3.0346, 0.2468 -0.1555 3.02, 0.2442 -0.1555 3.0217, 0.2341 -0.1555 2.9474, 0.2264 -0.1555 2.9465, -0.1256 -0.1555 3.2577, -0.1062 -0.1555 3.2446, 0.0723 -0.1555 3.2577, -0.0781 -0.1555 3.2121, -0.0604 -0.1555 3.1777, -0.0563 -0.1555 3.1763, -0.0311 -0.1555 3.1638, -0.2538 -0.1555 2.9475, -0.254 -0.1555 2.947, -0.264 -0.1555 2.9282, -0.2769 -0.1555 2.9137, -0.2938 -0.1555 2.902, 0.0723 -0.1555 3.0516, 0.0215 -0.1555 3.0516, 0.0196 -0.1555 3.0365, -0.1457 -0.1555 2.9975, -0.1398 -0.1555 2.9998, -0.1299 -0.1555 3.0481, -0.0079 -0.1555 2.9862, -0.0309 -0.1555 2.9667, -0.1509 -0.1555 2.9938, -0.1333 -0.1555 3.0006, -0.1324 -0.1555 3.0006, -0.1299 -0.1555 3.0, 0.0089 -0.1555 3.0097, -0.1595 -0.1555 2.9744, -0.1593 -0.1555 2.9777, -0.2485 -0.1555 2.9854, -0.1576 -0.1555 2.9842, -0.1544 -0.1555 2.9899, -0.0463 -0.1555 3.021, -0.037 -0.1555 3.0342, -0.1397 -0.1555 2.9489, -0.1453 -0.1555 2.9511, -0.1508 -0.1555 2.955, -0.1528 -0.1555 2.957, -0.1565 -0.1555 2.9623, -0.1587 -0.1555 2.9681, -0.249 -0.1555 2.9679, -0.2485 -0.1555 2.9769, -0.0568 -0.1555 2.9541, -0.085 -0.1555 2.9481, -0.135 -0.1555 2.9481, -0.1282 -0.1555 2.9998, -0.0901 -0.1555 2.9998, -0.0748 -0.1555 3.0027, -0.0598 -0.1555 3.0097, -0.0473 -0.1555 3.0199, -0.323 -0.1555 3.0619, -0.3025 -0.1555 3.0568, -0.1029 -0.1555 3.1365, -0.3332 -0.1555 3.0625, -0.0311 -0.1555 3.0493, -0.0308 -0.1555 3.0516, -0.132 -0.1555 3.0516, -0.0291 -0.1555 3.0659, -0.0295 -0.1555 3.0734, -0.3535 -0.1555 3.06, -0.4451 -0.1555 3.1365, -0.3722 -0.1555 3.0528, -0.4539 -0.1555 3.1239, -0.4611 -0.1555 3.105, -0.4568 -0.1555 3.0516, -0.3739 -0.1555 3.0516, -0.4626 -0.1555 3.0713, -0.4637 -0.1555 3.0845, -0.0511 -0.1555 3.1151, -0.0642 -0.1555 3.1242, -0.0335 -0.1555 3.0897, -0.0414 -0.1555 3.1043, -0.1019 -0.1555 3.1319, -0.1561 -0.1555 3.093, -0.0951 -0.1555 3.1319, -0.079 -0.1555 3.1299, -0.2928 -0.1555 3.0516, -0.4565 -0.1555 3.0506, -0.4035 -0.1555 3.0247, -0.3895 -0.1555 3.0407, -0.4465 -0.1555 3.0336, -0.4313 -0.1555 3.018, -0.4129 -0.1555 3.0066, -0.1203 -0.1555 3.183, -0.1394 -0.1555 3.2058, -0.3341 -0.1555 3.1565, -0.1414 -0.1555 3.2076, -0.1652 -0.1555 3.2241, -0.3211 -0.1555 3.1833, -0.3399 -0.1555 3.1597, -0.1072 -0.1555 3.1557, -0.3589 -0.1555 3.1667, -0.379 -0.1555 3.1692, -0.3879 -0.1555 3.1687, -0.3021 -0.1555 3.206, -0.1918 -0.1555 3.2343, -0.2794 -0.1555 3.2226, -0.2205 -0.1555 3.2378, -0.2518 -0.1555 3.2338, -0.4088 -0.1555 3.1638, -0.4277 -0.1555 3.1537, -0.4421 -0.1555 3.1408, 0.0092 -0.1555 3.1203, 0.0196 -0.1555 3.0944, 0.0235 -0.1555 3.0667, 0.473 -0.1555 3.2353, 0.48 -0.1555 3.2245, 0.4818 -0.1555 3.176, 0.4757 -0.1555 3.1638, 0.4675 -0.1555 3.2409, 0.443 -0.1555 3.1406, 0.443 -0.1555 3.1365, 0.4548 -0.1555 3.1452, 0.4675 -0.1555 3.1542, 0.4567 -0.1555 3.2485, 0.484 -0.1555 3.2127, 0.4854 -0.1555 3.1986, 0.4849 -0.1555 3.1897, 0.3772 -0.1555 3.2577, 0.4224 -0.1555 3.2567, 0.4246 -0.1555 3.2567, 0.4412 -0.1555 3.1399, 0.4212 -0.1555 3.1375, 0.3772 -0.1555 3.1365, 0.3884 -0.1555 3.1375, 0.3884 -0.1555 3.2567, 0.5151 -0.1555 2.9621, 0.5151 -0.1555 2.9485, 0.4887 -0.1555 2.9475, 0.4887 -0.1555 3.0516, 0.4887 -0.1555 3.0158, 0.509 -0.1555 3.0158, 0.509 -0.1555 3.0022, 0.4887 -0.1555 3.0022, 0.4664 -0.1555 3.0158, 0.4664 -0.1555 3.0516, 0.4664 -0.1555 3.054, 0.4887 -0.1555 3.054, 0.451 -0.1555 2.9485, 0.451 -0.1555 3.0516, 0.451 -0.1555 3.0677, 0.4887 -0.1555 2.9485, 0.3172 -0.1555 3.1511, 0.3494 -0.1555 3.1511, 0.3172 -0.1555 3.1912, 0.3494 -0.1555 3.1912, 0.3494 -0.1555 3.2577, 0.3632 -0.1555 3.2567, 0.3494 -0.1555 3.2567, 0.3598 -0.1555 3.1912, 0.3659 -0.1555 3.1511, 0.3598 -0.1555 3.2049, 0.3632 -0.1555 3.243, 0.3494 -0.1555 3.243, 0.3659 -0.1555 3.1375, 0.3494 -0.1555 3.1365, 0.3494 -0.1555 3.1375, 0.3018 -0.1555 3.1375, 0.3018 -0.1555 3.2567, 0.1364 -0.1555 3.2567, 0.1364 -0.1555 3.1511, 0.1839 -0.1555 3.1511, 0.121 -0.1555 3.1375, 0.121 -0.1555 3.2567, 0.1839 -0.1555 3.1375, 0.1364 -0.1555 3.054, 0.1824 -0.1555 3.054, 0.1824 -0.1555 3.0677, 0.121 -0.1555 3.0677, 0.121 -0.1555 3.0516, 0.1869 -0.1555 3.5039, 0.5124 -0.1555 3.054, 0.5124 -0.1555 3.0677, 0.4887 -0.1555 3.0677, 0.3494 -0.1555 3.5039, 0.3772 -0.1555 3.5039, 0.443 -0.1555 3.5039, 0.4887 -0.1555 3.5039, 0.5264 -0.1555 3.5039, 0.638 -0.1555 3.5039, 6.3665 -0.1555 2.9475, 6.3665 -0.1555 3.0516, 6.3665 -0.1555 3.1365, 6.3665 -0.1555 3.2577, 6.3665 -0.1555 3.4539, -1.2335 0.1595 -0.5961, -1.1503 0.1595 -1.3842, -1.2335 0.1595 0.4125, -0.7835 0.1595 0.8625, -0.7835 0.1595 1.0039, -0.7695 0.1595 0.9864, -0.7598 0.1595 0.9663, -0.7548 0.1595 0.9444, -0.7548 0.1595 0.922, -0.7598 0.1595 0.9002, -0.7695 0.1595 0.88, -1.1835 -0.1187 1.4039, -1.1835 0.1227 1.4039, -0.8335 0.1595 1.0539, -1.1835 -0.1187 3.1039, -1.2835 -0.1187 3.1039, -1.2835 -0.1187 1.4039, -1.1835 0.1227 3.1039, -1.2835 0.1227 3.1039, -1.2835 0.1227 1.4039, -0.8335 0.1595 3.4539, -0.7835 0.1595 3.5039, 6.3165 0.1595 3.5039, 6.3665 0.1595 3.4539, 6.7165 0.1227 3.1039, 6.7165 -0.1187 3.1039, 6.7165 -0.1187 1.4039, 6.7165 0.1227 1.4039, 6.3665 0.1595 1.0539, 6.3165 0.1595 1.0039, 3.5965 0.1595 1.0039, 3.5965 0.1595 0.7039, 1.5665 0.1595 0.7039, 1.5665 0.1595 0.0039, 1.2465 0.1595 -0.5961, 1.2465 0.1595 0.0039, 1.1633 0.1595 -1.3842, 1.1565 0.1595 -1.4139, 1.1426 0.1595 -1.441, 1.1227 0.1595 -1.464, 1.0977 0.1595 -1.4814, 1.0693 0.1595 -1.4923, 1.039 0.1595 -1.4961, 0.974 0.1595 -1.4961, 0.9438 0.1595 -1.4923, 0.9154 0.1595 -1.4814, 0.8904 0.1595 -1.464, 0.8704 0.1595 -1.441, 0.8566 0.1595 -1.4139, 0.8497 0.1595 -1.3842, 0.7665 0.1595 -0.5961, 0.7665 0.1595 0.0039, -0.7535 0.1595 0.0039, -0.7535 0.1595 -0.5961, -0.8367 0.1595 -1.3842, -0.8435 0.1595 -1.4139, -0.8574 0.1595 -1.441, -0.8773 0.1595 -1.464, -0.9023 0.1595 -1.4814, -0.9307 0.1595 -1.4923, -0.961 0.1595 -1.4961, -1.026 0.1595 -1.4961, -1.0562 0.1595 -1.4923, -1.0846 0.1595 -1.4814, -1.1096 0.1595 -1.464, -1.1296 0.1595 -1.441, -1.1434 0.1595 -1.4139, 4.7615 0.1595 2.557, 4.8459 0.1595 2.592, 4.689 0.1595 2.5014, 4.6334 0.1595 2.4289, 4.5985 0.1595 2.3445, 5.2396 0.1595 2.0789, 5.2746 0.1595 2.1634, 5.2865 0.1595 2.2539, 5.1115 0.1595 2.557, 5.0271 0.1595 2.592, 4.9365 0.1595 2.6039, 4.689 0.1595 2.0065, 4.7615 0.1595 1.9508, 5.184 0.1595 2.0065, 5.1115 0.1595 1.9508, 5.2746 0.1595 2.3445, 5.2396 0.1595 2.4289, 5.184 0.1595 2.5014, 4.5865 0.1595 2.2539, 4.5985 0.1595 2.1634, 4.6334 0.1595 2.0789, 4.8459 0.1595 1.9159, 4.9365 0.1595 1.9039, 5.0271 0.1595 1.9159
            ]
        }
        coordIndex [
            0,1,2,-1,3,4,5,-1,6,7,8,-1,9,10,11,-1,12,13,14,-1,15,16,17,-1,18,19,20,-1,21,22,23,-1,24,25,26,-1,27,28,29,-1,30,31,32,-1,33,34,35,-1,36,37,38,-1,39,40,38,-1,38,40,41,-1,38,41,36,-1,37,36,42,-1,42,36,43,-1,42,43,44,-1,40,45,41,-1,41,45,46,-1,41,46,47,-1,47,46,48,-1,47,48,49,-1,49,48,50,-1,49,50,44,-1,44,50,51,-1,44,51,42,-1,52,53,54,-1,54,53,55,-1,56,57,58,-1,58,57,59,-1,55,58,54,-1,54,58,59,-1,54,59,60,-1,60,59,61,-1,60,61,62,-1,63,36,64,-1,64,36,65,-1,64,65,66,-1,66,65,67,-1,66,67,68,-1,69,70,71,-1,71,68,69,-1,69,68,67,-1,69,67,72,-1,72,67,73,-1,72,73,74,-1,74,73,75,-1,74,75,76,-1,76,75,77,-1,78,79,80,-1,80,81,78,-1,78,81,82,-1,78,82,83,-1,84,85,83,-1,85,86,83,-1,83,86,87,-1,83,87,88,-1,83,82,84,-1,84,82,89,-1,84,89,90,-1,91,92,93,-1,93,92,84,-1,93,84,94,-1,90,95,84,-1,84,95,96,-1,84,96,97,-1,98,99,84,-1,84,99,100,-1,84,100,94,-1,101,102,103,-1,104,105,93,-1,93,105,106,-1,93,106,91,-1,97,107,84,-1,84,107,108,-1,84,108,98,-1,101,103,93,-1,93,103,109,-1,93,109,104,-1,34,110,111,-1,111,110,112,-1,112,110,113,-1,112,113,79,-1,33,35,114,-1,115,116,35,-1,35,116,117,-1,35,117,114,-1,118,119,35,-1,35,119,120,-1,35,120,115,-1,121,122,123,-1,123,122,124,-1,123,124,118,-1,118,124,125,-1,118,125,119,-1,126,127,128,-1,128,127,129,-1,128,129,130,-1,130,131,128,-1,128,131,132,-1,128,132,133,-1,134,135,126,-1,126,135,136,-1,126,136,127,-1,137,138,139,-1,140,141,142,-1,142,141,143,-1,142,143,144,-1,144,143,137,-1,144,137,145,-1,145,137,139,-1,146,147,23,-1,23,148,146,-1,146,148,149,-1,146,149,150,-1,151,152,148,-1,148,152,153,-1,148,153,149,-1,154,155,156,-1,148,157,158,-1,159,160,161,-1,161,160,162,-1,161,162,154,-1,154,162,163,-1,154,163,155,-1,158,164,148,-1,148,164,165,-1,148,165,151,-1,166,167,168,-1,166,168,31,-1,167,169,168,-1,168,169,170,-1,168,170,161,-1,161,170,171,-1,161,171,159,-1,172,173,174,-1,174,173,175,-1,174,175,176,-1,176,177,178,-1,178,179,176,-1,176,179,180,-1,176,180,181,-1,181,182,176,-1,176,182,183,-1,176,183,184,-1,184,185,176,-1,176,185,186,-1,176,186,174,-1,187,188,189,-1,190,191,189,-1,191,192,189,-1,189,192,193,-1,189,193,194,-1,194,193,172,-1,194,172,195,-1,195,172,174,-1,195,174,196,-1,196,174,197,-1,196,197,198,-1,199,200,201,-1,201,200,202,-1,201,202,188,-1,188,202,203,-1,188,203,189,-1,189,203,204,-1,189,204,190,-1,201,205,199,-1,199,205,206,-1,199,206,207,-1,207,206,208,-1,207,208,209,-1,210,211,212,-1,210,212,213,-1,211,214,212,-1,212,214,215,-1,212,215,216,-1,209,217,207,-1,207,217,218,-1,207,218,212,-1,212,218,219,-1,212,219,213,-1,213,219,220,-1,215,221,216,-1,216,221,222,-1,216,222,223,-1,223,222,224,-1,225,226,227,-1,224,228,223,-1,223,228,229,-1,223,229,230,-1,230,229,231,-1,230,231,232,-1,227,226,233,-1,233,226,234,-1,233,234,235,-1,232,236,230,-1,230,236,237,-1,230,237,225,-1,238,239,240,-1,241,242,230,-1,225,227,230,-1,230,227,243,-1,230,243,241,-1,243,244,241,-1,241,244,245,-1,241,245,240,-1,240,245,246,-1,240,246,238,-1,247,248,249,-1,250,251,248,-1,248,251,252,-1,249,253,254,-1,255,256,257,-1,252,258,248,-1,248,258,259,-1,248,259,249,-1,249,259,260,-1,249,260,253,-1,254,261,249,-1,249,261,262,-1,249,262,263,-1,264,265,266,-1,266,265,267,-1,255,257,264,-1,264,257,268,-1,264,268,265,-1,267,269,266,-1,266,269,270,-1,266,270,248,-1,248,270,271,-1,248,271,250,-1,272,255,273,-1,273,255,274,-1,272,275,255,-1,255,275,276,-1,255,276,256,-1,277,26,249,-1,249,26,278,-1,249,278,247,-1,24,279,280,-1,280,279,281,-1,280,281,282,-1,282,281,283,-1,282,283,284,-1,285,283,286,-1,286,283,287,-1,285,288,283,-1,283,288,289,-1,283,289,284,-1,284,290,282,-1,282,290,291,-1,282,291,292,-1,292,293,282,-1,282,293,294,-1,282,294,295,-1,24,26,279,-1,279,26,277,-1,279,277,296,-1,296,277,297,-1,296,297,298,-1,298,297,299,-1,298,299,300,-1,300,299,168,-1,300,168,301,-1,301,168,161,-1,301,161,302,-1,302,161,154,-1,302,154,303,-1,303,154,304,-1,303,304,305,-1,305,304,306,-1,305,306,307,-1,187,189,1,-1,1,189,308,-1,1,308,2,-1,309,310,65,-1,311,312,67,-1,67,312,313,-1,67,313,314,-1,314,315,67,-1,67,315,316,-1,67,316,317,-1,310,318,65,-1,65,318,319,-1,65,319,67,-1,67,319,320,-1,67,320,311,-1,321,322,323,-1,323,322,324,-1,323,324,41,-1,41,324,325,-1,41,325,36,-1,36,325,326,-1,36,326,327,-1,327,328,36,-1,36,328,329,-1,36,329,65,-1,65,329,330,-1,65,330,309,-1,331,332,333,-1,333,332,334,-1,335,336,337,-1,337,336,338,-1,339,340,338,-1,341,342,134,-1,343,344,334,-1,345,346,23,-1,346,347,23,-1,23,347,348,-1,23,348,349,-1,340,345,338,-1,338,345,23,-1,338,23,337,-1,337,23,147,-1,337,147,141,-1,141,147,350,-1,141,350,143,-1,343,334,351,-1,342,352,134,-1,134,352,353,-1,134,353,354,-1,354,355,134,-1,134,355,356,-1,134,356,337,-1,337,356,357,-1,337,357,335,-1,349,358,23,-1,23,358,359,-1,23,359,21,-1,360,361,362,-1,362,361,363,-1,362,363,334,-1,334,363,364,-1,334,364,351,-1,365,366,367,-1,367,366,368,-1,367,368,369,-1,367,370,365,-1,365,370,371,-1,365,371,372,-1,360,373,361,-1,361,373,374,-1,361,374,375,-1,375,374,376,-1,375,377,378,-1,372,379,365,-1,365,379,380,-1,365,380,381,-1,381,380,382,-1,381,382,383,-1,383,382,384,-1,383,384,338,-1,338,384,385,-1,338,385,339,-1,376,386,375,-1,375,386,387,-1,375,387,388,-1,389,390,369,-1,369,390,391,-1,369,391,367,-1,388,392,375,-1,375,392,393,-1,375,393,377,-1,378,394,375,-1,375,394,395,-1,375,395,396,-1,331,333,397,-1,397,333,304,-1,397,304,398,-1,398,304,22,-1,22,304,154,-1,22,154,23,-1,23,154,156,-1,23,156,148,-1,148,156,399,-1,148,399,157,-1,18,20,400,-1,401,402,403,-1,134,404,405,-1,406,407,408,-1,408,407,409,-1,408,409,410,-1,410,409,403,-1,410,403,411,-1,411,403,402,-1,306,412,413,-1,413,412,414,-1,413,414,415,-1,344,341,334,-1,334,341,134,-1,334,134,333,-1,333,134,405,-1,333,405,416,-1,415,417,413,-1,413,417,418,-1,413,418,419,-1,408,420,126,-1,126,420,421,-1,422,423,20,-1,20,423,424,-1,20,424,400,-1,419,425,413,-1,413,425,426,-1,413,426,126,-1,126,426,427,-1,126,427,408,-1,408,427,428,-1,408,428,406,-1,134,429,430,-1,431,432,403,-1,403,432,433,-1,403,433,434,-1,430,435,134,-1,134,435,436,-1,134,436,404,-1,421,437,126,-1,126,437,438,-1,126,438,134,-1,134,438,439,-1,134,439,429,-1,434,440,403,-1,403,440,441,-1,403,441,401,-1,416,20,333,-1,333,20,19,-1,333,19,304,-1,304,19,442,-1,304,442,306,-1,306,442,443,-1,306,443,412,-1,444,445,446,-1,446,445,447,-1,447,448,446,-1,446,448,449,-1,446,449,450,-1,0,451,1,-1,1,451,452,-1,1,452,453,-1,453,454,1,-1,1,454,455,-1,1,455,187,-1,456,457,458,-1,459,460,461,-1,462,463,0,-1,459,461,464,-1,460,465,461,-1,461,465,466,-1,461,466,467,-1,456,458,0,-1,0,458,468,-1,0,468,462,-1,469,470,471,-1,471,470,472,-1,471,472,461,-1,461,472,473,-1,461,473,464,-1,461,474,475,-1,476,477,451,-1,451,477,478,-1,451,478,479,-1,479,480,451,-1,451,480,481,-1,451,481,482,-1,482,481,469,-1,482,469,483,-1,483,469,471,-1,463,484,0,-1,0,484,485,-1,0,485,451,-1,451,485,486,-1,451,486,476,-1,467,487,461,-1,461,487,488,-1,461,488,489,-1,489,490,461,-1,461,490,491,-1,461,491,474,-1,492,493,494,-1,492,494,495,-1,475,496,461,-1,461,496,497,-1,461,497,498,-1,498,497,499,-1,498,499,500,-1,501,502,503,-1,503,502,504,-1,503,504,505,-1,506,507,508,-1,508,507,503,-1,508,503,509,-1,509,503,505,-1,498,510,511,-1,500,512,498,-1,498,512,513,-1,498,513,510,-1,514,515,516,-1,516,515,498,-1,516,498,517,-1,517,498,511,-1,514,494,515,-1,515,494,493,-1,515,493,14,-1,14,493,518,-1,14,518,12,-1,519,520,506,-1,506,520,521,-1,506,521,507,-1,519,522,520,-1,520,522,523,-1,520,523,524,-1,525,526,527,-1,526,528,527,-1,527,528,529,-1,527,529,530,-1,502,527,531,-1,501,495,502,-1,502,495,494,-1,502,494,527,-1,527,494,532,-1,527,532,525,-1,531,533,502,-1,502,533,534,-1,502,534,535,-1,530,529,536,-1,536,529,537,-1,536,537,538,-1,538,537,539,-1,538,539,540,-1,541,542,535,-1,535,542,543,-1,535,543,502,-1,16,544,17,-1,17,544,545,-1,17,545,456,-1,456,545,546,-1,456,546,457,-1,547,548,49,-1,549,550,47,-1,547,49,551,-1,552,553,554,-1,554,553,47,-1,554,47,555,-1,555,47,550,-1,11,10,49,-1,49,10,556,-1,49,556,551,-1,548,557,49,-1,49,557,558,-1,49,558,47,-1,47,558,559,-1,47,559,549,-1,560,561,11,-1,11,561,562,-1,11,562,9,-1,552,563,553,-1,553,563,564,-1,553,564,565,-1,565,564,566,-1,565,566,560,-1,560,566,567,-1,560,567,561,-1,568,569,317,-1,317,569,570,-1,571,572,323,-1,323,572,573,-1,323,573,574,-1,316,321,317,-1,317,321,323,-1,317,323,568,-1,568,323,574,-1,568,574,8,-1,8,574,575,-1,8,575,6,-1,576,572,577,-1,577,572,571,-1,577,571,578,-1,578,571,579,-1,580,581,140,-1,140,581,582,-1,569,583,570,-1,570,583,580,-1,570,580,32,-1,32,580,140,-1,32,140,30,-1,30,140,142,-1,584,585,586,-1,586,585,587,-1,560,588,589,-1,589,588,590,-1,587,585,591,-1,591,585,592,-1,591,592,593,-1,593,592,594,-1,593,594,5,-1,5,594,595,-1,5,595,3,-1,589,594,560,-1,560,594,592,-1,560,592,565,-1,565,592,596,-1,565,596,597,-1,597,596,598,-1,597,598,599,-1,590,588,600,-1,600,588,78,-1,600,78,599,-1,599,78,83,-1,599,83,597,-1,601,602,603,-1,123,604,17,-1,17,604,446,-1,17,446,15,-1,15,446,450,-1,604,605,446,-1,446,605,601,-1,446,601,118,-1,118,601,603,-1,118,603,123,-1,123,603,606,-1,123,606,604,-1,607,52,608,-1,608,52,54,-1,608,54,609,-1,609,54,123,-1,609,123,610,-1,610,123,17,-1,610,17,611,-1,611,17,456,-1,611,456,62,-1,62,456,0,-1,62,0,60,-1,60,0,2,-1,34,111,35,-1,35,111,612,-1,35,612,118,-1,118,612,240,-1,118,240,446,-1,446,240,239,-1,446,239,444,-1,308,307,2,-1,2,307,306,-1,2,306,60,-1,60,306,413,-1,60,413,54,-1,54,413,126,-1,54,126,123,-1,123,126,128,-1,123,128,121,-1,121,128,133,-1,579,571,613,-1,613,571,323,-1,613,323,614,-1,614,323,41,-1,614,41,615,-1,615,41,47,-1,615,47,582,-1,582,47,553,-1,582,553,140,-1,140,553,565,-1,140,565,141,-1,141,565,597,-1,141,597,337,-1,337,597,83,-1,337,83,134,-1,134,83,88,-1,134,88,135,-1,79,78,112,-1,112,78,588,-1,112,588,616,-1,616,588,560,-1,616,560,617,-1,617,560,11,-1,617,11,618,-1,618,11,49,-1,618,49,619,-1,619,49,44,-1,619,44,620,-1,620,44,43,-1,620,43,621,-1,63,76,36,-1,36,76,77,-1,36,77,43,-1,43,77,29,-1,43,29,621,-1,621,29,28,-1,31,168,32,-1,32,168,299,-1,32,299,570,-1,570,299,297,-1,570,297,317,-1,317,297,277,-1,317,277,67,-1,67,277,249,-1,67,249,73,-1,263,274,249,-1,249,274,255,-1,249,255,73,-1,73,255,622,-1,73,622,75,-1,75,622,623,-1,75,623,77,-1,77,623,624,-1,77,624,29,-1,29,624,625,-1,29,625,27,-1,27,625,626,-1,627,628,175,-1,175,628,176,-1,627,175,629,-1,629,175,173,-1,629,173,630,-1,630,173,193,-1,200,631,202,-1,202,631,632,-1,202,632,203,-1,203,632,633,-1,203,633,204,-1,204,633,634,-1,204,634,190,-1,190,634,635,-1,190,635,191,-1,191,635,636,-1,191,636,192,-1,192,636,637,-1,192,637,193,-1,193,637,630,-1,638,639,199,-1,199,639,640,-1,199,640,200,-1,200,640,631,-1,638,199,641,-1,641,199,242,-1,642,643,641,-1,641,643,638,-1,641,644,642,-1,642,644,645,-1,642,645,643,-1,643,645,646,-1,643,646,638,-1,638,646,639,-1,644,639,645,-1,645,639,646,-1,644,647,639,-1,639,647,640,-1,241,648,242,-1,242,648,647,-1,242,647,641,-1,641,647,644,-1,648,241,649,-1,649,241,27,-1,649,27,650,-1,650,27,626,-1,650,626,651,-1,651,626,652,-1,653,652,264,-1,264,652,626,-1,653,654,652,-1,652,654,651,-1,651,654,650,-1,650,654,655,-1,266,656,264,-1,264,656,655,-1,264,655,653,-1,653,655,654,-1,656,266,657,-1,657,266,248,-1,657,248,658,-1,658,248,247,-1,658,247,659,-1,659,247,26,-1,659,26,660,-1,660,26,25,-1,661,662,280,-1,280,662,24,-1,280,282,661,-1,661,282,663,-1,663,282,295,-1,663,295,664,-1,664,295,294,-1,664,294,665,-1,665,294,293,-1,665,293,666,-1,666,293,292,-1,666,292,667,-1,667,292,291,-1,667,291,668,-1,668,291,290,-1,668,290,669,-1,290,284,669,-1,669,284,670,-1,670,284,289,-1,670,289,671,-1,671,289,288,-1,671,288,672,-1,672,288,285,-1,672,285,673,-1,673,285,286,-1,673,286,674,-1,674,286,287,-1,674,287,675,-1,675,287,283,-1,675,283,676,-1,677,676,281,-1,281,676,283,-1,281,279,677,-1,677,279,678,-1,25,24,660,-1,660,24,662,-1,279,194,678,-1,678,194,679,-1,680,679,195,-1,195,679,194,-1,195,196,680,-1,680,196,681,-1,681,196,198,-1,681,198,682,-1,682,198,197,-1,682,197,683,-1,683,197,186,-1,683,186,684,-1,684,186,185,-1,684,185,685,-1,685,185,184,-1,685,184,686,-1,686,184,183,-1,686,183,687,-1,183,182,687,-1,687,182,688,-1,688,182,181,-1,688,181,689,-1,689,181,180,-1,689,180,690,-1,690,180,179,-1,690,179,691,-1,691,179,178,-1,691,178,692,-1,692,178,177,-1,692,177,693,-1,693,177,176,-1,693,176,628,-1,657,658,659,-1,694,648,695,-1,695,648,649,-1,657,659,648,-1,648,659,647,-1,647,659,660,-1,647,660,662,-1,694,696,648,-1,648,696,697,-1,648,697,698,-1,699,700,655,-1,655,700,701,-1,655,701,650,-1,702,703,649,-1,649,703,704,-1,649,704,695,-1,705,706,657,-1,699,655,707,-1,707,655,656,-1,707,656,708,-1,701,709,650,-1,650,709,710,-1,650,710,649,-1,649,710,711,-1,649,711,702,-1,637,636,662,-1,662,636,635,-1,662,632,647,-1,647,632,631,-1,647,631,640,-1,627,687,688,-1,698,712,648,-1,648,712,713,-1,648,713,657,-1,657,713,714,-1,657,714,705,-1,706,715,657,-1,657,715,716,-1,657,716,656,-1,656,716,717,-1,656,717,708,-1,663,676,661,-1,661,676,677,-1,661,677,662,-1,662,677,678,-1,662,678,637,-1,687,681,682,-1,664,668,663,-1,663,668,669,-1,663,669,676,-1,664,665,668,-1,668,665,666,-1,668,666,667,-1,681,687,680,-1,680,687,627,-1,680,627,679,-1,679,627,629,-1,679,629,678,-1,678,629,630,-1,678,630,637,-1,635,634,662,-1,662,634,633,-1,662,633,632,-1,669,670,676,-1,676,670,671,-1,676,671,672,-1,672,673,676,-1,676,673,674,-1,676,674,675,-1,682,683,684,-1,689,693,688,-1,688,693,628,-1,688,628,627,-1,684,685,682,-1,682,685,686,-1,682,686,687,-1,689,690,693,-1,693,690,691,-1,693,691,692,-1,260,712,253,-1,253,712,698,-1,253,698,254,-1,254,698,697,-1,254,697,261,-1,261,697,696,-1,261,696,262,-1,262,696,694,-1,262,694,263,-1,263,694,695,-1,263,695,274,-1,274,695,704,-1,274,704,273,-1,273,704,703,-1,273,703,272,-1,272,703,702,-1,272,702,275,-1,275,702,711,-1,275,711,276,-1,276,711,710,-1,276,710,256,-1,256,710,709,-1,256,709,257,-1,257,709,701,-1,257,701,268,-1,268,701,700,-1,268,700,265,-1,265,700,699,-1,265,699,267,-1,267,699,707,-1,267,707,269,-1,269,707,708,-1,269,708,270,-1,270,708,717,-1,270,717,271,-1,271,717,716,-1,271,716,250,-1,250,716,715,-1,250,715,251,-1,251,715,706,-1,251,706,252,-1,252,706,705,-1,252,705,258,-1,258,705,714,-1,258,714,259,-1,259,714,713,-1,259,713,260,-1,260,713,712,-1,
        ]
    }
}
Shape{
    appearance Appearance {
        material  Material 	{
            diffuseColor 0.0 0.0 0.0
            specularColor 0.0 0.0 0.0
            ambientIntensity 0.0
            transparency 0.0
            shininess 0.5
        }
    }
    geometry IndexedFaceSet {
        ccw TRUE
        solid FALSE
        coord DEF co Coordinate {
            point [
                0.586 -0.1595 3.0523, 0.5738 -0.1595 3.0676, 0.571 -0.1595 3.054, 0.5716 -0.1595 3.0677, 0.553 -0.1595 3.054, 0.5376 -0.1595 3.0677, 0.553 -0.1595 2.9621, 0.5376 -0.1595 2.9485, 0.5703 -0.1595 2.9621, 0.5704 -0.1595 2.9485, 0.5846 -0.1595 2.9635, 0.5904 -0.1595 2.9509, 0.595 -0.1595 2.967, 0.6041 -0.1595 2.9562, 0.603 -0.1595 2.9721, 0.6167 -0.1595 2.9652, 0.6058 -0.1595 2.9745, 0.612 -0.1595 2.9824, 0.6249 -0.1595 2.9748, 0.616 -0.1595 2.9913, 0.631 -0.1595 2.9869, 0.6182 -0.1595 3.0024, 0.6342 -0.1595 3.0007, 0.6185 -0.1595 3.0092, 0.6347 -0.1595 3.0096, 0.6171 -0.1595 3.0227, 0.6332 -0.1595 3.0236, 0.6139 -0.1595 3.0318, 0.6292 -0.1595 3.0355, 0.6094 -0.1595 3.0387, 0.6222 -0.1595 3.0463, 0.6054 -0.1595 3.0428, 0.6167 -0.1595 3.0519, 0.5964 -0.1595 3.0487, 0.6059 -0.1595 3.0595, 0.5918 -0.1595 3.0652, 0.6167 -0.1555 2.9652, 0.6249 -0.1555 2.9748, 0.631 -0.1555 2.9869, 0.6342 -0.1555 3.0007, 0.6347 -0.1555 3.0096, 0.6167 -0.1555 3.0519, 0.617 -0.1555 3.0516, 0.6222 -0.1555 3.0463, 0.6292 -0.1555 3.0355, 0.6332 -0.1555 3.0236, 0.6059 -0.1555 3.0595, 0.5918 -0.1555 3.0652, 0.5738 -0.1555 3.0676, 0.5716 -0.1555 3.0677, 0.5376 -0.1555 3.0677, 0.5376 -0.1555 2.9485, 0.5376 -0.1555 3.0516, 0.5704 -0.1555 2.9485, 0.5904 -0.1555 2.9509, 0.6041 -0.1555 2.9562, 0.6054 -0.1555 3.0428, 0.6094 -0.1555 3.0387, 0.6139 -0.1555 3.0318, 0.6171 -0.1555 3.0227, 0.6185 -0.1555 3.0092, 0.571 -0.1555 3.054, 0.586 -0.1555 3.0523, 0.5964 -0.1555 3.0487, 0.553 -0.1555 3.054, 0.553 -0.1555 2.9621, 0.5703 -0.1555 2.9621, 0.6058 -0.1555 2.9745, 0.603 -0.1555 2.9721, 0.595 -0.1555 2.967, 0.5846 -0.1555 2.9635, 0.6182 -0.1555 3.0024, 0.616 -0.1555 2.9913, 0.612 -0.1555 2.9824
            ]
        }
        coordIndex [
            0,1,2,-1,2,1,3,-1,2,3,4,-1,4,3,5,-1,4,5,6,-1,6,5,7,-1,6,7,8,-1,8,7,9,-1,8,9,10,-1,10,9,11,-1,10,11,12,-1,12,11,13,-1,12,13,14,-1,14,13,15,-1,14,15,16,-1,16,15,17,-1,17,15,18,-1,17,18,19,-1,19,18,20,-1,19,20,21,-1,21,20,22,-1,21,22,23,-1,23,22,24,-1,23,24,25,-1,25,24,26,-1,25,26,27,-1,27,26,28,-1,27,28,29,-1,29,28,30,-1,29,30,31,-1,31,30,32,-1,31,32,33,-1,33,32,34,-1,33,34,0,-1,0,34,35,-1,0,35,1,-1,15,36,37,-1,15,37,18,-1,18,37,38,-1,18,38,20,-1,20,38,39,-1,20,39,22,-1,22,39,40,-1,22,40,24,-1,41,32,42,-1,42,32,30,-1,42,30,43,-1,43,30,28,-1,43,28,44,-1,44,28,26,-1,44,26,45,-1,45,26,24,-1,45,24,40,-1,32,41,46,-1,32,46,34,-1,34,46,47,-1,34,47,35,-1,35,47,48,-1,35,48,1,-1,1,48,49,-1,1,49,3,-1,5,3,50,-1,50,3,49,-1,51,7,52,-1,52,7,5,-1,52,5,50,-1,9,7,53,-1,53,7,51,-1,9,53,54,-1,9,54,11,-1,11,54,55,-1,11,55,13,-1,13,55,36,-1,13,36,15,-1,31,56,57,-1,31,57,29,-1,29,57,58,-1,29,58,27,-1,27,58,59,-1,27,59,25,-1,25,59,60,-1,25,60,23,-1,2,61,62,-1,2,62,0,-1,0,62,63,-1,0,63,33,-1,33,63,56,-1,33,56,31,-1,2,4,61,-1,61,4,64,-1,4,6,64,-1,64,6,65,-1,6,8,65,-1,65,8,66,-1,16,67,68,-1,16,68,14,-1,14,68,69,-1,14,69,12,-1,12,69,70,-1,12,70,10,-1,10,70,66,-1,10,66,8,-1,23,60,71,-1,23,71,21,-1,21,71,72,-1,21,72,19,-1,19,72,73,-1,19,73,17,-1,17,73,67,-1,17,67,16,-1,
        ]
    }
}
Shape{
    appearance Appearance {
        material  Material 	{
            diffuseColor 0.6666666666666666 0.6666666666666666 0.6666666666666666
            specularColor 0.4666666666666667 0.4666666666666667 0.4666666666666667
            ambientIntensity 0.6667
            transparency 0.0
            shininess 0.5
        }
    }
    geometry IndexedFaceSet {
        ccw TRUE
        solid FALSE
        coord DEF co Coordinate {
            point [
                0.553 -0.1555 3.054, 0.553 -0.1555 2.9621, 0.571 -0.1555 3.054, 0.5703 -0.1555 2.9621, 0.5846 -0.1555 2.9635, 0.595 -0.1555 2.967, 0.603 -0.1555 2.9721, 0.6058 -0.1555 2.9745, 0.612 -0.1555 2.9824, 0.616 -0.1555 2.9913, 0.6182 -0.1555 3.0024, 0.6185 -0.1555 3.0092, 0.6171 -0.1555 3.0227, 0.6139 -0.1555 3.0318, 0.6094 -0.1555 3.0387, 0.6054 -0.1555 3.0428, 0.586 -0.1555 3.0523, 0.5964 -0.1555 3.0487
            ]
        }
        coordIndex [
            0,1,2,-1,2,1,3,-1,2,3,4,-1,4,5,2,-1,2,5,6,-1,2,6,7,-1,7,8,2,-1,2,8,9,-1,2,9,10,-1,10,11,2,-1,2,11,12,-1,2,12,13,-1,13,14,2,-1,2,14,15,-1,2,15,16,-1,16,15,17,-1,
        ]
    }
}
Shape{
    appearance Appearance {
        material  Material 	{
            diffuseColor 0.0 0.0 0.0
            specularColor 0.0 0.0 0.0
            ambientIntensity 0.0
            transparency 0.0
            shininess 0.5
        }
    }
    geometry IndexedFaceSet {
        ccw TRUE
        solid FALSE
        coord DEF co Coordinate {
            point [
                0.3963 -0.1595 2.9695, 0.3963 -0.1555 2.9695, 0.3951 -0.1555 2.9656, 0.3951 -0.1595 2.9656, 0.3944 -0.1555 2.9626, 0.3944 -0.1595 2.9626, 0.394 -0.1595 2.9626, 0.394 -0.1555 2.9626, 0.3922 -0.1595 2.9696, 0.3922 -0.1555 2.9696, 0.37 -0.1555 3.0336, 0.37 -0.1595 3.0336, 0.3772 -0.1555 3.0129, 0.3533 -0.1595 3.0336, 0.3533 -0.1555 3.0336, 0.3867 -0.1555 2.9487, 0.3867 -0.1595 2.9487, 0.3772 -0.1555 2.9728, 0.3801 -0.1555 2.9332, 0.3801 -0.1595 2.9332, 0.3862 -0.1555 2.9475, 0.3772 -0.1555 2.9279, 0.3772 -0.1595 2.9279, 0.3772 -0.1555 2.9278, 0.3744 -0.1595 2.9247, 0.3744 -0.1555 2.9247, 0.3717 -0.1555 2.9228, 0.3717 -0.1595 2.9228, 0.3684 -0.1555 2.9216, 0.3684 -0.1595 2.9216, 0.3648 -0.1555 2.9212, 0.3648 -0.1595 2.9212, 0.3594 -0.1555 2.9219, 0.3594 -0.1595 2.9219, 0.3564 -0.1555 2.9229, 0.3564 -0.1595 2.9229, 0.3564 -0.1595 2.9096, 0.3564 -0.1555 2.9096, 0.3627 -0.1555 2.9085, 0.3627 -0.1595 2.9085, 0.366 -0.1555 2.9084, 0.366 -0.1595 2.9084, 0.372 -0.1555 2.9091, 0.372 -0.1595 2.9091, 0.3772 -0.1555 2.9111, 0.3779 -0.1595 2.9114, 0.3779 -0.1555 2.9114, 0.3831 -0.1555 2.915, 0.3831 -0.1595 2.915, 0.3841 -0.1555 2.9159, 0.3841 -0.1595 2.9159, 0.3896 -0.1555 2.9225, 0.3896 -0.1595 2.9225, 0.3963 -0.1555 2.9357, 0.3963 -0.1595 2.9357, 0.435 -0.1555 3.0336, 0.435 -0.1595 3.0336, 0.401 -0.1555 2.9475, 0.4195 -0.1595 3.0336, 0.4195 -0.1555 3.0336, 0.3111 -0.1595 2.9465, 0.3111 -0.1555 2.9465, 0.3238 -0.1595 2.9479, 0.3202 -0.1555 2.9475, 0.3238 -0.1555 2.9479, 0.3319 -0.1555 2.9508, 0.3319 -0.1595 2.9508, 0.3359 -0.1555 2.9533, 0.3359 -0.1595 2.9533, 0.3402 -0.1555 2.957, 0.3402 -0.1595 2.957, 0.343 -0.1555 2.9609, 0.343 -0.1595 2.9609, 0.3448 -0.1555 2.9657, 0.3448 -0.1595 2.9657, 0.3455 -0.1555 2.9717, 0.3455 -0.1595 2.9717, 0.3449 -0.1555 2.9772, 0.3449 -0.1595 2.9772, 0.3433 -0.1555 2.9816, 0.3433 -0.1595 2.9816, 0.3405 -0.1555 2.9857, 0.3405 -0.1595 2.9857, 0.337 -0.1555 2.9889, 0.337 -0.1595 2.9889, 0.327 -0.1555 2.9944, 0.327 -0.1595 2.9944, 0.3213 -0.1555 2.9968, 0.3213 -0.1595 2.9968, 0.312 -0.1555 3.0008, 0.312 -0.1595 3.0008, 0.3068 -0.1555 3.0041, 0.3068 -0.1595 3.0041, 0.3053 -0.1555 3.0057, 0.3053 -0.1595 3.0057, 0.3042 -0.1555 3.0077, 0.3042 -0.1595 3.0077, 0.3036 -0.1555 3.01, 0.3036 -0.1595 3.01, 0.3035 -0.1555 3.012, 0.3035 -0.1595 3.012, 0.3038 -0.1555 3.0144, 0.3038 -0.1595 3.0144, 0.3045 -0.1555 3.0164, 0.3045 -0.1595 3.0164, 0.3058 -0.1555 3.0183, 0.3058 -0.1595 3.0183, 0.308 -0.1555 3.0203, 0.308 -0.1595 3.0203, 0.3114 -0.1555 3.0221, 0.3114 -0.1595 3.0221, 0.3154 -0.1555 3.0231, 0.3154 -0.1595 3.0231, 0.3198 -0.1555 3.0234, 0.3198 -0.1595 3.0234, 0.3306 -0.1555 3.0221, 0.3306 -0.1595 3.0221, 0.339 -0.1555 3.0187, 0.339 -0.1595 3.0187, 0.3414 -0.1555 3.0173, 0.3414 -0.1595 3.0173, 0.3414 -0.1595 3.0318, 0.3414 -0.1555 3.0318, 0.3303 -0.1555 3.0349, 0.3303 -0.1595 3.0349, 0.3213 -0.1555 3.0356, 0.3213 -0.1595 3.0356, 0.3094 -0.1555 3.0342, 0.3094 -0.1595 3.0342, 0.3014 -0.1555 3.0311, 0.3014 -0.1595 3.0311, 0.2977 -0.1555 3.0288, 0.2977 -0.1595 3.0288, 0.2933 -0.1555 3.0248, 0.2933 -0.1595 3.0248, 0.2905 -0.1555 3.0208, 0.2905 -0.1595 3.0208, 0.2887 -0.1555 3.016, 0.2887 -0.1595 3.016, 0.2881 -0.1555 3.0106, 0.2881 -0.1595 3.0106, 0.2888 -0.1555 3.0049, 0.2888 -0.1595 3.0049, 0.2904 -0.1555 3.0003, 0.2904 -0.1595 3.0003, 0.2924 -0.1555 2.9972, 0.2924 -0.1595 2.9972, 0.2948 -0.1555 2.9946, 0.2948 -0.1595 2.9946, 0.3018 -0.1555 2.99, 0.3018 -0.1595 2.99, 0.3107 -0.1555 2.9859, 0.3107 -0.1595 2.9859, 0.3205 -0.1555 2.9818, 0.3205 -0.1595 2.9818, 0.3263 -0.1555 2.9783, 0.3263 -0.1595 2.9783, 0.3282 -0.1555 2.9764, 0.3282 -0.1595 2.9764, 0.3294 -0.1555 2.9744, 0.3294 -0.1595 2.9744, 0.33 -0.1555 2.9721, 0.33 -0.1595 2.9721, 0.3302 -0.1555 2.9702, 0.3302 -0.1595 2.9702, 0.3299 -0.1555 2.9674, 0.3299 -0.1595 2.9674, 0.3291 -0.1555 2.9652, 0.3291 -0.1595 2.9652, 0.3278 -0.1555 2.9633, 0.3278 -0.1595 2.9633, 0.3261 -0.1555 2.9618, 0.3261 -0.1595 2.9618, 0.3247 -0.1555 2.961, 0.3247 -0.1595 2.961, 0.3209 -0.1555 2.9595, 0.3209 -0.1595 2.9595, 0.3132 -0.1555 2.9587, 0.3132 -0.1595 2.9587, 0.3126 -0.1555 2.9587, 0.3126 -0.1595 2.9587, 0.3032 -0.1555 2.9598, 0.3032 -0.1595 2.9598, 0.2939 -0.1555 2.9633, 0.2939 -0.1595 2.9633, 0.288 -0.1555 2.9669, 0.288 -0.1595 2.9669, 0.288 -0.1595 2.9515, 0.288 -0.1555 2.9515, 0.3015 -0.1555 2.9475, 0.2985 -0.1595 2.9478, 0.2985 -0.1555 2.9478, 0.2529 -0.1595 2.9485, 0.2678 -0.1595 2.9485, 0.2529 -0.1595 2.9617, 0.2678 -0.1595 3.0033, 0.2529 -0.1595 3.0026, 0.2206 -0.1595 2.9849, 0.2242 -0.1595 2.9865, 0.233 -0.1595 2.9885, 0.2529 -0.1595 2.9912, 0.2529 -0.1595 2.9831, 0.2524 -0.1595 3.0092, 0.2664 -0.1595 3.0156, 0.2508 -0.1595 3.0145, 0.264 -0.1595 3.0221, 0.2491 -0.1595 3.0176, 0.2608 -0.1595 3.0267, 0.2468 -0.1595 3.02, 0.2578 -0.1595 3.0296, 0.2442 -0.1595 3.0217, 0.253 -0.1595 3.0326, 0.2407 -0.1595 3.0229, 0.2469 -0.1595 3.0346, 0.2356 -0.1595 3.0234, 0.237 -0.1595 3.0356, 0.2272 -0.1595 3.0226, 0.2236 -0.1595 3.0341, 0.2178 -0.1595 3.0195, 0.2123 -0.1595 3.0302, 0.2077 -0.1595 3.0131, 0.2077 -0.1595 3.0276, 0.2529 -0.1595 2.9821, 0.2519 -0.1595 2.9754, 0.2497 -0.1595 2.9701, 0.2525 -0.1595 2.9617, 0.2465 -0.1595 2.9657, 0.2502 -0.1595 2.9581, 0.2446 -0.1595 2.9639, 0.2454 -0.1595 2.9531, 0.2404 -0.1595 2.961, 0.2402 -0.1595 2.9495, 0.2359 -0.1595 2.9594, 0.2341 -0.1595 2.9474, 0.2303 -0.1595 2.9587, 0.2264 -0.1595 2.9465, 0.2252 -0.1595 2.9593, 0.2175 -0.1595 2.9475, 0.2219 -0.1595 2.9606, 0.2118 -0.1595 2.9497, 0.2189 -0.1595 2.9626, 0.2067 -0.1595 2.9532, 0.2176 -0.1595 2.9639, 0.2277 -0.1595 2.9991, 0.2155 -0.1595 2.996, 0.2185 -0.1595 2.9833, 0.2095 -0.1595 2.9927, 0.2167 -0.1595 2.9811, 0.2051 -0.1595 2.9886, 0.2154 -0.1595 2.9783, 0.202 -0.1595 2.9838, 0.2147 -0.1595 2.9749, 0.2001 -0.1595 2.9783, 0.2146 -0.1595 2.9725, 0.1994 -0.1595 2.9713, 0.2149 -0.1595 2.9691, 0.2002 -0.1595 2.9645, 0.2159 -0.1595 2.9664, 0.202 -0.1595 2.9595, 0.2051 -0.1595 2.9549, 0.2356 -0.1555 3.0234, 0.2407 -0.1555 3.0229, 0.2442 -0.1555 3.0217, 0.2468 -0.1555 3.02, 0.2491 -0.1555 3.0176, 0.2508 -0.1555 3.0145, 0.2524 -0.1555 3.0092, 0.2529 -0.1555 3.0026, 0.2277 -0.1555 2.9991, 0.2155 -0.1555 2.996, 0.2095 -0.1555 2.9927, 0.2051 -0.1555 2.9886, 0.202 -0.1555 2.9838, 0.2001 -0.1555 2.9783, 0.1994 -0.1555 2.9713, 0.2002 -0.1555 2.9645, 0.202 -0.1555 2.9595, 0.2051 -0.1555 2.9549, 0.2067 -0.1555 2.9532, 0.2264 -0.1555 2.9465, 0.2178 -0.1555 2.9475, 0.2175 -0.1555 2.9475, 0.2118 -0.1555 2.9497, 0.2341 -0.1555 2.9474, 0.2345 -0.1555 2.9475, 0.2402 -0.1555 2.9495, 0.2454 -0.1555 2.9531, 0.2502 -0.1555 2.9581, 0.2525 -0.1555 2.9617, 0.2529 -0.1555 2.9617, 0.2529 -0.1555 2.9485, 0.2678 -0.1555 2.9485, 0.2678 -0.1555 3.0033, 0.2664 -0.1555 3.0156, 0.264 -0.1555 3.0221, 0.2608 -0.1555 3.0267, 0.2578 -0.1555 3.0296, 0.253 -0.1555 3.0326, 0.2469 -0.1555 3.0346, 0.237 -0.1555 3.0356, 0.2236 -0.1555 3.0341, 0.2123 -0.1555 3.0302, 0.2077 -0.1555 3.0276, 0.2077 -0.1555 3.0131, 0.2178 -0.1555 3.0195, 0.2272 -0.1555 3.0226, 0.2465 -0.1555 2.9657, 0.2446 -0.1555 2.9639, 0.2404 -0.1555 2.961, 0.2359 -0.1555 2.9594, 0.2303 -0.1555 2.9587, 0.2529 -0.1555 2.9831, 0.2529 -0.1555 2.9821, 0.2519 -0.1555 2.9754, 0.2497 -0.1555 2.9701, 0.2529 -0.1555 2.9912, 0.233 -0.1555 2.9885, 0.2185 -0.1555 2.9833, 0.2206 -0.1555 2.9849, 0.2242 -0.1555 2.9865, 0.2146 -0.1555 2.9725, 0.2147 -0.1555 2.9749, 0.2154 -0.1555 2.9783, 0.2167 -0.1555 2.9811, 0.2189 -0.1555 2.9626, 0.2176 -0.1555 2.9639, 0.2159 -0.1555 2.9664, 0.2149 -0.1555 2.9691, 0.2252 -0.1555 2.9593, 0.2219 -0.1555 2.9606
            ]
        }
        coordIndex [
            0,1,2,-1,0,2,3,-1,3,2,4,-1,3,4,5,-1,6,5,7,-1,7,5,4,-1,8,6,9,-1,9,6,7,-1,10,11,12,-1,12,11,8,-1,12,8,9,-1,13,11,14,-1,14,11,10,-1,15,16,17,-1,17,16,13,-1,17,13,14,-1,18,19,20,-1,20,19,16,-1,20,16,15,-1,19,18,21,-1,19,21,22,-1,22,21,23,-1,22,23,24,-1,23,25,24,-1,24,25,26,-1,24,26,27,-1,27,26,28,-1,27,28,29,-1,29,28,30,-1,29,30,31,-1,31,30,32,-1,31,32,33,-1,33,32,34,-1,33,34,35,-1,36,35,37,-1,37,35,34,-1,36,37,38,-1,36,38,39,-1,39,38,40,-1,39,40,41,-1,41,40,42,-1,41,42,43,-1,43,42,44,-1,43,44,45,-1,44,46,45,-1,45,46,47,-1,45,47,48,-1,48,47,49,-1,48,49,50,-1,50,49,51,-1,50,51,52,-1,52,51,53,-1,52,53,54,-1,55,56,57,-1,57,56,54,-1,57,54,53,-1,58,56,59,-1,59,56,55,-1,0,58,1,-1,1,58,59,-1,3,5,54,-1,56,58,54,-1,54,58,0,-1,54,0,3,-1,11,13,8,-1,8,13,16,-1,8,16,6,-1,52,22,50,-1,50,22,24,-1,35,36,33,-1,33,36,39,-1,33,39,31,-1,31,39,41,-1,31,41,29,-1,29,41,43,-1,29,43,27,-1,27,43,45,-1,27,45,24,-1,24,45,48,-1,24,48,50,-1,5,6,54,-1,54,6,16,-1,54,16,52,-1,52,16,19,-1,52,19,22,-1,60,61,62,-1,62,61,63,-1,63,64,62,-1,62,64,65,-1,62,65,66,-1,66,65,67,-1,66,67,68,-1,68,67,69,-1,68,69,70,-1,70,69,71,-1,70,71,72,-1,72,71,73,-1,72,73,74,-1,74,73,75,-1,74,75,76,-1,76,75,77,-1,76,77,78,-1,78,77,79,-1,78,79,80,-1,80,79,81,-1,80,81,82,-1,82,81,83,-1,82,83,84,-1,84,83,85,-1,84,85,86,-1,86,85,87,-1,86,87,88,-1,88,87,89,-1,88,89,90,-1,90,89,91,-1,90,91,92,-1,92,91,93,-1,92,93,94,-1,94,93,95,-1,94,95,96,-1,96,95,97,-1,96,97,98,-1,98,97,99,-1,98,99,100,-1,100,99,101,-1,100,101,102,-1,102,101,103,-1,102,103,104,-1,104,103,105,-1,104,105,106,-1,106,105,107,-1,106,107,108,-1,108,107,109,-1,108,109,110,-1,110,109,111,-1,110,111,112,-1,112,111,113,-1,112,113,114,-1,114,113,115,-1,114,115,116,-1,116,115,117,-1,116,117,118,-1,118,117,119,-1,118,119,120,-1,121,120,122,-1,122,120,119,-1,121,122,123,-1,121,123,124,-1,124,123,125,-1,124,125,126,-1,126,125,127,-1,126,127,128,-1,128,127,129,-1,128,129,130,-1,130,129,131,-1,130,131,132,-1,132,131,133,-1,132,133,134,-1,134,133,135,-1,134,135,136,-1,136,135,137,-1,136,137,138,-1,138,137,139,-1,138,139,140,-1,140,139,141,-1,140,141,142,-1,142,141,143,-1,142,143,144,-1,144,143,145,-1,144,145,146,-1,146,145,147,-1,146,147,148,-1,148,147,149,-1,148,149,150,-1,150,149,151,-1,150,151,152,-1,152,151,153,-1,152,153,154,-1,154,153,155,-1,154,155,156,-1,156,155,157,-1,156,157,158,-1,158,157,159,-1,158,159,160,-1,160,159,161,-1,160,161,162,-1,162,161,163,-1,162,163,164,-1,164,163,165,-1,164,165,166,-1,166,165,167,-1,166,167,168,-1,168,167,169,-1,168,169,170,-1,170,169,171,-1,170,171,172,-1,172,171,173,-1,172,173,174,-1,174,173,175,-1,174,175,176,-1,176,175,177,-1,176,177,178,-1,178,177,179,-1,178,179,180,-1,180,179,181,-1,180,181,182,-1,182,181,183,-1,182,183,184,-1,184,183,185,-1,184,185,186,-1,187,186,188,-1,188,186,185,-1,61,60,189,-1,189,60,190,-1,189,190,191,-1,191,190,187,-1,191,187,188,-1,106,108,130,-1,130,108,128,-1,154,88,152,-1,152,88,90,-1,66,68,170,-1,170,68,70,-1,170,70,168,-1,168,70,72,-1,168,72,166,-1,166,72,74,-1,166,74,164,-1,164,74,76,-1,164,76,162,-1,162,76,78,-1,162,78,160,-1,160,78,80,-1,160,80,158,-1,158,80,82,-1,158,82,156,-1,156,82,84,-1,156,84,154,-1,154,84,86,-1,154,86,88,-1,60,180,190,-1,190,180,182,-1,190,182,187,-1,187,182,184,-1,187,184,186,-1,108,110,128,-1,128,110,112,-1,128,112,126,-1,126,112,114,-1,126,114,124,-1,124,114,116,-1,124,116,121,-1,121,116,118,-1,121,118,120,-1,170,172,66,-1,66,172,174,-1,66,174,62,-1,62,174,176,-1,62,176,60,-1,60,176,178,-1,60,178,180,-1,130,132,106,-1,106,132,134,-1,106,134,104,-1,104,134,136,-1,104,136,102,-1,102,136,138,-1,102,138,100,-1,100,138,140,-1,100,140,98,-1,98,140,142,-1,98,142,96,-1,96,142,144,-1,96,144,94,-1,94,144,146,-1,94,146,92,-1,92,146,148,-1,92,148,90,-1,90,148,150,-1,90,150,152,-1,192,193,194,-1,194,193,195,-1,196,197,198,-1,199,200,195,-1,195,200,201,-1,198,199,196,-1,196,199,195,-1,196,195,202,-1,202,195,203,-1,202,203,204,-1,204,203,205,-1,204,205,206,-1,206,205,207,-1,206,207,208,-1,208,207,209,-1,208,209,210,-1,210,209,211,-1,210,211,212,-1,212,211,213,-1,212,213,214,-1,214,213,215,-1,214,215,216,-1,216,215,217,-1,216,217,218,-1,218,217,219,-1,218,219,220,-1,220,219,221,-1,201,222,195,-1,195,222,223,-1,195,223,194,-1,194,223,224,-1,194,224,225,-1,225,224,226,-1,225,226,227,-1,227,226,228,-1,227,228,229,-1,229,228,230,-1,229,230,231,-1,231,230,232,-1,231,232,233,-1,233,232,234,-1,233,234,235,-1,235,234,236,-1,235,236,237,-1,237,236,238,-1,237,238,239,-1,239,238,240,-1,239,240,241,-1,241,240,242,-1,196,243,197,-1,197,243,244,-1,197,244,245,-1,245,244,246,-1,245,246,247,-1,247,246,248,-1,247,248,249,-1,249,248,250,-1,249,250,251,-1,251,250,252,-1,251,252,253,-1,253,252,254,-1,253,254,255,-1,255,254,256,-1,255,256,257,-1,257,256,258,-1,257,258,242,-1,242,258,259,-1,242,259,241,-1,214,260,261,-1,214,261,212,-1,212,261,262,-1,212,262,210,-1,210,262,263,-1,210,263,208,-1,208,263,264,-1,208,264,206,-1,206,264,265,-1,206,265,204,-1,204,265,266,-1,204,266,202,-1,202,266,267,-1,202,267,196,-1,243,196,268,-1,268,196,267,-1,243,268,269,-1,243,269,244,-1,244,269,270,-1,244,270,246,-1,246,270,271,-1,246,271,248,-1,248,271,272,-1,248,272,250,-1,250,272,273,-1,250,273,252,-1,252,273,274,-1,252,274,254,-1,254,274,275,-1,254,275,256,-1,256,275,276,-1,256,276,258,-1,258,276,277,-1,258,277,259,-1,259,277,278,-1,259,278,241,-1,279,235,280,-1,280,235,237,-1,280,237,281,-1,281,237,239,-1,281,239,282,-1,282,239,241,-1,282,241,278,-1,235,279,283,-1,235,283,233,-1,233,283,284,-1,233,284,231,-1,284,285,231,-1,231,285,286,-1,231,286,229,-1,229,286,287,-1,229,287,227,-1,227,287,288,-1,227,288,225,-1,194,225,289,-1,289,225,288,-1,192,194,290,-1,290,194,289,-1,193,192,291,-1,291,192,290,-1,195,193,292,-1,292,193,291,-1,195,292,293,-1,195,293,203,-1,203,293,294,-1,203,294,205,-1,205,294,295,-1,205,295,207,-1,207,295,296,-1,207,296,209,-1,209,296,297,-1,209,297,211,-1,211,297,298,-1,211,298,213,-1,213,298,299,-1,213,299,215,-1,215,299,300,-1,215,300,217,-1,217,300,301,-1,217,301,219,-1,219,301,302,-1,219,302,221,-1,220,221,303,-1,303,221,302,-1,220,303,304,-1,220,304,218,-1,218,304,305,-1,218,305,216,-1,216,305,260,-1,216,260,214,-1,226,306,307,-1,226,307,228,-1,228,307,308,-1,228,308,230,-1,230,308,309,-1,230,309,232,-1,232,309,310,-1,232,310,234,-1,201,311,312,-1,201,312,222,-1,222,312,313,-1,222,313,223,-1,223,313,314,-1,223,314,224,-1,224,314,306,-1,224,306,226,-1,201,200,311,-1,311,200,315,-1,200,199,315,-1,315,199,316,-1,245,317,318,-1,245,318,197,-1,197,318,319,-1,197,319,198,-1,198,319,316,-1,198,316,199,-1,253,320,321,-1,253,321,251,-1,251,321,322,-1,251,322,249,-1,249,322,323,-1,249,323,247,-1,247,323,317,-1,247,317,245,-1,240,324,325,-1,240,325,242,-1,242,325,326,-1,242,326,257,-1,257,326,327,-1,257,327,255,-1,255,327,320,-1,255,320,253,-1,234,310,328,-1,234,328,236,-1,236,328,329,-1,236,329,238,-1,238,329,324,-1,238,324,240,-1,
        ]
    }
}
Shape{
    appearance Appearance {
        material  Material 	{
            diffuseColor 0.6666666666666666 0.6666666666666666 0.6666666666666666
            specularColor 0.4666666666666667 0.4666666666666667 0.4666666666666667
            ambientIntensity 0.6667
            transparency 0.0
            shininess 0.5
        }
    }
    geometry IndexedFaceSet {
        ccw TRUE
        solid FALSE
        coord DEF co Coordinate {
            point [
                0.2529 -0.1555 2.9912, 0.233 -0.1555 2.9885, 0.2529 -0.1555 2.9831, 0.2242 -0.1555 2.9865, 0.2206 -0.1555 2.9849, 0.2185 -0.1555 2.9833, 0.2529 -0.1555 2.9821, 0.2519 -0.1555 2.9754, 0.2167 -0.1555 2.9811, 0.2497 -0.1555 2.9701, 0.2176 -0.1555 2.9639, 0.2189 -0.1555 2.9626, 0.2446 -0.1555 2.9639, 0.2159 -0.1555 2.9664, 0.2404 -0.1555 2.961, 0.2359 -0.1555 2.9594, 0.2303 -0.1555 2.9587, 0.2154 -0.1555 2.9783, 0.2147 -0.1555 2.9749, 0.2465 -0.1555 2.9657, 0.2146 -0.1555 2.9725, 0.2149 -0.1555 2.9691, 0.2219 -0.1555 2.9606, 0.2252 -0.1555 2.9593
            ]
        }
        coordIndex [
            0,1,2,-1,2,1,3,-1,3,4,2,-1,2,4,5,-1,2,5,6,-1,6,5,7,-1,7,5,8,-1,7,8,9,-1,10,11,12,-1,10,12,13,-1,14,12,15,-1,15,12,16,-1,8,17,9,-1,9,17,18,-1,9,18,19,-1,19,18,20,-1,19,20,12,-1,12,20,21,-1,12,21,13,-1,11,22,12,-1,12,22,23,-1,12,23,16,-1,
        ]
    }
}
Shape{
    appearance Appearance {
        material  Material 	{
            diffuseColor 0.0 0.0 0.0
            specularColor 0.0 0.0 0.0
            ambientIntensity 0.0
            transparency 0.0
            shininess 0.5
        }
    }
    geometry IndexedFaceSet {
        ccw TRUE
        solid FALSE
        coord DEF co Coordinate {
            point [
                -0.4052 -0.1595 2.9316, -0.3926 -0.1595 2.916, -0.4129 -0.1595 3.0066, -0.4277 -0.1595 3.1537, -0.4088 -0.1595 3.1638, -0.4132 -0.1595 3.2159, -0.3603 -0.1595 3.2184, -0.3341 -0.1595 3.1565, -0.3211 -0.1595 3.1833, -0.4313 -0.1595 3.018, -0.4244 -0.1595 2.953, -0.4137 -0.1595 2.9498, -0.3798 -0.1595 3.2201, -0.327 -0.1595 3.0083, -0.3191 -0.1595 3.0055, -0.2485 -0.1595 2.9854, -0.3123 -0.1595 3.0009, -0.3069 -0.1595 2.9948, -0.1299 -0.1595 3.0481, -0.1561 -0.1595 3.093, -0.2697 -0.1595 3.0337, -0.3341 -0.1595 3.0091, -0.3423 -0.1595 3.008, -0.3535 -0.1595 3.06, -0.3497 -0.1595 3.0051, -0.3722 -0.1595 3.0528, -0.3564 -0.1595 3.0004, -0.3895 -0.1595 3.0407, -0.3597 -0.1595 2.9969, -0.4035 -0.1595 3.0247, -0.3641 -0.1595 2.9899, -0.3666 -0.1595 2.9819, -0.367 -0.1595 2.9736, -0.3025 -0.1595 3.0568, -0.323 -0.1595 3.0619, -0.3332 -0.1595 3.0625, -0.3032 -0.1595 2.9879, -0.3013 -0.1595 2.98, -0.2485 -0.1595 2.9769, -0.3012 -0.1595 2.9723, -0.249 -0.1595 2.9679, -0.1019 -0.1595 3.1319, -0.0951 -0.1595 3.1319, -0.0604 -0.1595 3.1777, -0.079 -0.1595 3.1299, -0.0563 -0.1595 3.1763, -0.0642 -0.1595 3.1242, -0.0311 -0.1595 3.1638, -0.0081 -0.1595 3.1444, -0.343 -0.1595 3.2386, -0.3021 -0.1595 3.206, -0.323 -0.1595 3.2556, -0.2794 -0.1595 3.2226, -0.3023 -0.1595 3.2685, -0.3879 -0.1595 3.1687, -0.379 -0.1595 3.1692, -0.3701 -0.1595 3.2195, -0.3589 -0.1595 3.1667, -0.3399 -0.1595 3.1597, -0.2845 -0.1595 3.0472, -0.0079 -0.1595 2.9862, -0.0473 -0.1595 3.0199, -0.0309 -0.1595 2.9667, -0.0598 -0.1595 3.0097, -0.0568 -0.1595 2.9541, -0.0748 -0.1595 3.0027, -0.085 -0.1595 2.9481, -0.0901 -0.1595 2.9998, -0.135 -0.1595 2.9481, -0.1282 -0.1595 2.9998, -0.1397 -0.1595 2.9489, -0.3654 -0.1595 2.9657, -0.3621 -0.1595 2.9586, -0.0511 -0.1595 3.1151, -0.0414 -0.1595 3.1043, 0.0092 -0.1595 3.1203, -0.0335 -0.1595 3.0897, 0.0196 -0.1595 3.0944, -0.0295 -0.1595 3.0734, 0.0235 -0.1595 3.0667, -0.0291 -0.1595 3.0659, 0.0196 -0.1595 3.0365, -0.0311 -0.1595 3.0493, 0.0089 -0.1595 3.0097, -0.037 -0.1595 3.0342, -0.0463 -0.1595 3.021, -0.1062 -0.1595 3.2446, -0.1394 -0.1595 3.2058, -0.0781 -0.1595 3.2121, -0.1203 -0.1595 3.183, -0.1072 -0.1595 3.1557, -0.4611 -0.1595 3.105, -0.5168 -0.1595 3.0909, -0.4637 -0.1595 3.0845, -0.5171 -0.1595 3.0828, -0.4626 -0.1595 3.0713, -0.5129 -0.1595 3.0496, -0.4565 -0.1595 3.0506, -0.5008 -0.1595 3.018, -0.4465 -0.1595 3.0336, -0.4815 -0.1595 2.9905, -0.4551 -0.1595 2.9679, -0.254 -0.1595 2.947, -0.3033 -0.1595 2.9641, -0.264 -0.1595 2.9282, -0.3072 -0.1595 2.9568, -0.2769 -0.1595 2.9137, -0.3118 -0.1595 2.9517, -0.2938 -0.1595 2.902, -0.3182 -0.1595 2.947, -0.3127 -0.1595 2.8947, -0.3256 -0.1595 2.9441, -0.3332 -0.1595 2.8922, -0.3341 -0.1595 2.943, -0.3364 -0.1595 2.8922, -0.3355 -0.1595 2.943, -0.3564 -0.1595 2.8953, -0.3431 -0.1595 2.9443, -0.376 -0.1595 2.9035, -0.3508 -0.1595 2.9476, -0.3573 -0.1595 2.9525, -0.2633 -0.1595 3.2835, -0.2518 -0.1595 3.2338, -0.2214 -0.1595 3.2887, -0.2205 -0.1595 3.2378, -0.1865 -0.1595 3.285, -0.1918 -0.1595 3.2343, -0.144 -0.1595 3.27, -0.1652 -0.1595 3.2241, -0.1414 -0.1595 3.2076, -0.4446 -0.1595 3.2037, -0.4715 -0.1595 3.1848, -0.4421 -0.1595 3.1408, -0.4772 -0.1595 3.1794, -0.4539 -0.1595 3.1239, -0.4976 -0.1595 3.1532, -0.5111 -0.1595 3.1227, -0.1324 -0.1595 3.0006, -0.1528 -0.1595 2.957, -0.1508 -0.1595 2.955, -0.1299 -0.1595 3.0, -0.1453 -0.1595 2.9511, -0.1595 -0.1595 2.9744, -0.1587 -0.1595 2.9681, -0.1565 -0.1595 2.9623, -0.1398 -0.1595 2.9998, -0.1457 -0.1595 2.9975, -0.1593 -0.1595 2.9777, -0.1509 -0.1595 2.9938, -0.1544 -0.1595 2.9899, -0.1576 -0.1595 2.9842, -0.1333 -0.1595 3.0006, 0.0092 -0.1555 3.1203, 0.0196 -0.1555 3.0944, 0.0235 -0.1555 3.0667, -0.0025 -0.1555 3.1365, -0.0081 -0.1555 3.1444, -0.0311 -0.1555 3.1638, -0.0563 -0.1555 3.1763, -0.0604 -0.1555 3.1777, -0.0781 -0.1555 3.2121, -0.1062 -0.1555 3.2446, -0.1256 -0.1555 3.2577, -0.144 -0.1555 3.27, -0.1865 -0.1555 3.285, -0.2214 -0.1555 3.2887, -0.2633 -0.1555 3.2835, -0.3023 -0.1555 3.2685, -0.3197 -0.1555 3.2577, -0.323 -0.1555 3.2556, -0.343 -0.1555 3.2386, -0.3603 -0.1555 3.2184, -0.3701 -0.1555 3.2195, -0.3798 -0.1555 3.2201, -0.4132 -0.1555 3.2159, -0.4446 -0.1555 3.2037, -0.4715 -0.1555 3.1848, -0.4772 -0.1555 3.1794, -0.4976 -0.1555 3.1532, -0.505 -0.1555 3.1365, -0.5111 -0.1555 3.1227, -0.5168 -0.1555 3.0909, -0.5171 -0.1555 3.0828, -0.5132 -0.1555 3.0516, -0.5129 -0.1555 3.0496, -0.5008 -0.1555 3.018, -0.4815 -0.1555 2.9905, -0.4551 -0.1555 2.9679, -0.4244 -0.1555 2.953, -0.4137 -0.1555 2.9498, -0.4126 -0.1555 2.9475, -0.4052 -0.1555 2.9316, -0.3926 -0.1555 2.916, -0.376 -0.1555 2.9035, -0.3682 -0.1555 2.9003, -0.3564 -0.1555 2.8953, -0.3364 -0.1555 2.8922, -0.3332 -0.1555 2.8922, -0.2485 -0.1555 2.9769, -0.3127 -0.1555 2.8947, -0.2981 -0.1555 2.9003, -0.2938 -0.1555 2.902, -0.2769 -0.1555 2.9137, -0.264 -0.1555 2.9282, -0.254 -0.1555 2.947, -0.2538 -0.1555 2.9475, -0.249 -0.1555 2.9679, -0.2485 -0.1555 2.9854, -0.1299 -0.1555 3.0481, -0.1561 -0.1555 3.093, -0.132 -0.1555 3.0516, -0.2697 -0.1555 3.0337, -0.2353 -0.1555 3.0516, -0.2845 -0.1555 3.0472, -0.2928 -0.1555 3.0516, -0.3025 -0.1555 3.0568, -0.323 -0.1555 3.0619, -0.3332 -0.1555 3.0625, -0.3535 -0.1555 3.06, -0.3722 -0.1555 3.0528, -0.3739 -0.1555 3.0516, -0.3895 -0.1555 3.0407, -0.4035 -0.1555 3.0247, -0.4129 -0.1555 3.0066, -0.4637 -0.1555 3.0845, -0.4313 -0.1555 3.018, -0.4465 -0.1555 3.0336, -0.4565 -0.1555 3.0506, -0.4568 -0.1555 3.0516, -0.4626 -0.1555 3.0713, -0.4539 -0.1555 3.1239, -0.4611 -0.1555 3.105, -0.4451 -0.1555 3.1365, -0.4421 -0.1555 3.1408, -0.4277 -0.1555 3.1537, -0.4088 -0.1555 3.1638, -0.3879 -0.1555 3.1687, -0.379 -0.1555 3.1692, -0.3589 -0.1555 3.1667, -0.3399 -0.1555 3.1597, -0.3341 -0.1555 3.1565, -0.3211 -0.1555 3.1833, -0.3021 -0.1555 3.206, -0.2794 -0.1555 3.2226, -0.2518 -0.1555 3.2338, -0.2205 -0.1555 3.2378, -0.1918 -0.1555 3.2343, -0.1652 -0.1555 3.2241, -0.1414 -0.1555 3.2076, -0.1394 -0.1555 3.2058, -0.1203 -0.1555 3.183, -0.1072 -0.1555 3.1557, -0.1029 -0.1555 3.1365, -0.1019 -0.1555 3.1319, -0.0951 -0.1555 3.1319, -0.079 -0.1555 3.1299, -0.0642 -0.1555 3.1242, -0.0511 -0.1555 3.1151, -0.0414 -0.1555 3.1043, -0.0335 -0.1555 3.0897, -0.0295 -0.1555 3.0734, -0.0291 -0.1555 3.0659, -0.0308 -0.1555 3.0516, -0.0311 -0.1555 3.0493, -0.037 -0.1555 3.0342, -0.0463 -0.1555 3.021, -0.0473 -0.1555 3.0199, -0.0598 -0.1555 3.0097, -0.0748 -0.1555 3.0027, -0.0901 -0.1555 2.9998, -0.1282 -0.1555 2.9998, -0.1299 -0.1555 3.0, -0.1324 -0.1555 3.0006, -0.1333 -0.1555 3.0006, -0.1398 -0.1555 2.9998, -0.1457 -0.1555 2.9975, -0.1509 -0.1555 2.9938, -0.1544 -0.1555 2.9899, -0.1576 -0.1555 2.9842, -0.1593 -0.1555 2.9777, -0.1595 -0.1555 2.9744, -0.1587 -0.1555 2.9681, -0.1565 -0.1555 2.9623, -0.1528 -0.1555 2.957, -0.1508 -0.1555 2.955, -0.1453 -0.1555 2.9511, -0.1397 -0.1555 2.9489, -0.135 -0.1555 2.9481, -0.085 -0.1555 2.9481, -0.0568 -0.1555 2.9541, -0.0309 -0.1555 2.9667, -0.0079 -0.1555 2.9862, 0.0215 -0.1555 3.0516, 0.0196 -0.1555 3.0365, 0.0089 -0.1555 3.0097, -0.3341 -0.1555 3.0091, -0.327 -0.1555 3.0083, -0.3191 -0.1555 3.0055, -0.3123 -0.1555 3.0009, -0.3069 -0.1555 2.9948, -0.3032 -0.1555 2.9879, -0.3013 -0.1555 2.98, -0.3012 -0.1555 2.9723, -0.3033 -0.1555 2.9641, -0.3072 -0.1555 2.9568, -0.3118 -0.1555 2.9517, -0.3182 -0.1555 2.947, -0.3256 -0.1555 2.9441, -0.3341 -0.1555 2.943, -0.3355 -0.1555 2.943, -0.3431 -0.1555 2.9443, -0.3508 -0.1555 2.9476, -0.3573 -0.1555 2.9525, -0.3621 -0.1555 2.9586, -0.3654 -0.1555 2.9657, -0.367 -0.1555 2.9736, -0.3666 -0.1555 2.9819, -0.3641 -0.1555 2.9899, -0.3597 -0.1555 2.9969, -0.3564 -0.1555 3.0004, -0.3497 -0.1555 3.0051, -0.3423 -0.1555 3.008
            ]
        }
        coordIndex [
            0,1,2,-1,3,4,5,-1,6,7,8,-1,9,10,2,-1,2,10,11,-1,2,11,0,-1,5,4,12,-1,13,14,15,-1,15,14,16,-1,15,16,17,-1,18,19,15,-1,15,19,20,-1,15,20,13,-1,13,20,21,-1,22,23,24,-1,24,23,25,-1,24,25,26,-1,26,25,27,-1,26,27,28,-1,28,27,29,-1,28,29,30,-1,30,29,2,-1,30,2,31,-1,31,2,32,-1,33,34,22,-1,22,34,35,-1,22,35,23,-1,17,36,15,-1,15,36,37,-1,15,37,38,-1,38,37,39,-1,38,39,40,-1,41,42,43,-1,43,42,44,-1,43,44,45,-1,45,44,46,-1,45,46,47,-1,47,46,48,-1,6,8,49,-1,49,8,50,-1,49,50,51,-1,51,50,52,-1,51,52,53,-1,4,54,12,-1,12,54,55,-1,12,55,56,-1,56,55,57,-1,56,57,6,-1,6,57,58,-1,6,58,7,-1,21,20,22,-1,22,20,59,-1,22,59,33,-1,60,61,62,-1,62,61,63,-1,62,63,64,-1,64,63,65,-1,64,65,66,-1,66,65,67,-1,66,67,68,-1,68,67,69,-1,68,69,70,-1,32,2,71,-1,71,2,1,-1,71,1,72,-1,46,73,48,-1,48,73,74,-1,48,74,75,-1,75,74,76,-1,75,76,77,-1,77,76,78,-1,77,78,79,-1,79,78,80,-1,79,80,81,-1,81,80,82,-1,81,82,83,-1,83,82,84,-1,83,84,60,-1,60,84,85,-1,60,85,61,-1,86,87,88,-1,88,87,89,-1,88,89,43,-1,43,89,90,-1,43,90,41,-1,91,92,93,-1,93,92,94,-1,93,94,95,-1,95,94,96,-1,95,96,97,-1,97,96,98,-1,97,98,99,-1,99,98,100,-1,99,100,9,-1,9,100,101,-1,9,101,10,-1,40,39,102,-1,102,39,103,-1,102,103,104,-1,104,103,105,-1,104,105,106,-1,106,105,107,-1,106,107,108,-1,108,107,109,-1,108,109,110,-1,110,109,111,-1,110,111,112,-1,112,111,113,-1,112,113,114,-1,114,113,115,-1,114,115,116,-1,116,115,117,-1,116,117,118,-1,118,117,119,-1,118,119,1,-1,1,119,120,-1,1,120,72,-1,53,52,121,-1,121,52,122,-1,121,122,123,-1,123,122,124,-1,123,124,125,-1,125,124,126,-1,125,126,127,-1,127,126,128,-1,127,128,86,-1,86,128,129,-1,86,129,87,-1,5,130,3,-1,3,130,131,-1,3,131,132,-1,132,131,133,-1,132,133,134,-1,134,133,135,-1,134,135,91,-1,91,135,136,-1,91,136,92,-1,137,138,139,-1,69,140,70,-1,70,140,137,-1,70,137,141,-1,141,137,139,-1,142,143,137,-1,137,143,144,-1,137,144,138,-1,145,146,147,-1,146,148,147,-1,147,148,149,-1,147,149,150,-1,142,137,147,-1,147,137,151,-1,147,151,145,-1,152,77,153,-1,153,77,79,-1,153,79,154,-1,155,48,152,-1,152,48,75,-1,152,75,77,-1,155,156,48,-1,48,156,157,-1,48,157,47,-1,47,157,158,-1,47,158,45,-1,45,158,159,-1,45,159,43,-1,43,159,160,-1,43,160,88,-1,88,160,161,-1,88,161,86,-1,127,86,162,-1,162,86,161,-1,162,163,127,-1,127,163,164,-1,127,164,125,-1,125,164,165,-1,125,165,123,-1,123,165,166,-1,123,166,121,-1,121,166,167,-1,121,167,53,-1,53,167,51,-1,51,167,168,-1,51,168,169,-1,51,169,170,-1,51,170,49,-1,49,170,171,-1,49,171,6,-1,6,171,172,-1,6,172,56,-1,56,172,173,-1,56,173,12,-1,12,173,174,-1,12,174,5,-1,5,174,175,-1,5,175,130,-1,130,175,176,-1,130,176,131,-1,131,176,177,-1,131,177,133,-1,133,177,178,-1,133,178,135,-1,135,178,179,-1,135,179,136,-1,179,180,136,-1,136,180,181,-1,136,181,92,-1,92,181,182,-1,92,182,94,-1,182,183,94,-1,94,183,96,-1,183,184,96,-1,96,184,185,-1,96,185,98,-1,98,185,186,-1,98,186,100,-1,100,186,187,-1,100,187,101,-1,101,187,188,-1,101,188,10,-1,10,188,189,-1,10,189,11,-1,11,189,190,-1,11,190,0,-1,190,191,0,-1,0,191,192,-1,0,192,1,-1,1,192,193,-1,1,193,118,-1,118,193,194,-1,118,194,116,-1,194,195,116,-1,116,195,196,-1,116,196,114,-1,114,196,197,-1,114,197,112,-1,198,38,40,-1,112,197,199,-1,200,108,199,-1,199,108,110,-1,199,110,112,-1,200,201,108,-1,108,201,202,-1,108,202,106,-1,106,202,203,-1,106,203,104,-1,104,203,204,-1,104,204,102,-1,102,204,205,-1,102,205,40,-1,40,205,206,-1,40,206,198,-1,15,38,207,-1,207,38,198,-1,18,15,208,-1,208,15,207,-1,209,19,210,-1,210,19,18,-1,210,18,208,-1,211,20,212,-1,212,20,19,-1,212,19,209,-1,20,211,213,-1,20,213,59,-1,59,213,214,-1,59,214,33,-1,214,215,33,-1,33,215,216,-1,33,216,34,-1,34,216,217,-1,34,217,35,-1,35,217,218,-1,35,218,23,-1,23,218,219,-1,23,219,25,-1,25,219,220,-1,25,220,27,-1,220,221,27,-1,27,221,222,-1,27,222,29,-1,29,222,223,-1,29,223,2,-1,224,93,95,-1,2,223,225,-1,2,225,9,-1,9,225,226,-1,9,226,99,-1,99,226,227,-1,99,227,97,-1,97,227,228,-1,97,228,95,-1,95,228,229,-1,95,229,224,-1,230,91,231,-1,231,91,93,-1,231,93,224,-1,232,132,230,-1,230,132,134,-1,230,134,91,-1,232,233,132,-1,132,233,234,-1,132,234,3,-1,3,234,235,-1,3,235,4,-1,4,235,236,-1,4,236,54,-1,54,236,237,-1,54,237,55,-1,55,237,238,-1,55,238,57,-1,57,238,239,-1,57,239,58,-1,58,239,240,-1,58,240,7,-1,7,240,241,-1,7,241,8,-1,8,241,242,-1,8,242,50,-1,50,242,243,-1,50,243,52,-1,52,243,244,-1,52,244,122,-1,122,244,245,-1,122,245,124,-1,124,245,246,-1,124,246,126,-1,126,246,247,-1,126,247,128,-1,128,247,248,-1,128,248,129,-1,129,248,249,-1,129,249,87,-1,87,249,250,-1,87,250,89,-1,89,250,251,-1,89,251,90,-1,90,251,41,-1,41,251,252,-1,41,252,253,-1,42,41,254,-1,254,41,253,-1,42,254,255,-1,42,255,44,-1,44,255,256,-1,44,256,46,-1,46,256,257,-1,46,257,73,-1,73,257,258,-1,73,258,74,-1,74,258,259,-1,74,259,76,-1,76,259,260,-1,76,260,78,-1,78,260,261,-1,78,261,80,-1,80,261,82,-1,82,261,262,-1,262,263,82,-1,82,263,264,-1,82,264,84,-1,84,264,265,-1,84,265,85,-1,85,265,266,-1,85,266,61,-1,61,266,267,-1,61,267,63,-1,63,267,268,-1,63,268,65,-1,65,268,269,-1,65,269,67,-1,69,67,270,-1,270,67,269,-1,69,270,271,-1,69,271,140,-1,140,271,272,-1,140,272,137,-1,137,272,273,-1,137,273,151,-1,151,273,274,-1,151,274,145,-1,145,274,275,-1,145,275,146,-1,146,275,276,-1,146,276,148,-1,148,276,277,-1,148,277,149,-1,149,277,278,-1,149,278,150,-1,150,278,279,-1,150,279,147,-1,147,279,280,-1,147,280,142,-1,142,280,281,-1,142,281,143,-1,143,281,282,-1,143,282,144,-1,144,282,283,-1,144,283,138,-1,138,283,284,-1,138,284,139,-1,139,284,285,-1,139,285,141,-1,141,285,286,-1,141,286,70,-1,70,286,287,-1,70,287,68,-1,66,68,288,-1,288,68,287,-1,66,288,289,-1,66,289,64,-1,64,289,290,-1,64,290,62,-1,62,290,291,-1,62,291,60,-1,154,79,292,-1,292,79,81,-1,292,81,293,-1,293,81,83,-1,293,83,294,-1,294,83,60,-1,294,60,291,-1,21,295,296,-1,21,296,13,-1,13,296,297,-1,13,297,14,-1,14,297,298,-1,14,298,16,-1,16,298,299,-1,16,299,17,-1,17,299,300,-1,17,300,36,-1,36,300,301,-1,36,301,37,-1,37,301,302,-1,37,302,39,-1,39,302,303,-1,39,303,103,-1,103,303,304,-1,103,304,105,-1,105,304,305,-1,105,305,107,-1,107,305,306,-1,107,306,109,-1,109,306,307,-1,109,307,111,-1,111,307,308,-1,111,308,113,-1,113,308,309,-1,113,309,115,-1,115,309,310,-1,115,310,117,-1,117,310,311,-1,117,311,119,-1,119,311,312,-1,119,312,120,-1,120,312,313,-1,120,313,72,-1,72,313,314,-1,72,314,71,-1,71,314,315,-1,71,315,32,-1,32,315,316,-1,32,316,31,-1,31,316,317,-1,31,317,30,-1,30,317,318,-1,30,318,28,-1,28,318,319,-1,28,319,26,-1,26,319,320,-1,26,320,24,-1,24,320,321,-1,24,321,22,-1,22,321,295,-1,22,295,21,-1,
        ]
    }
}
Shape{
    appearance Appearance {
        material  Material 	{
            diffuseColor 0.6666666666666666 0.6666666666666666 0.6666666666666666
            specularColor 0.4666666666666667 0.4666666666666667 0.4666666666666667
            ambientIntensity 0.6667
            transparency 0.0
            shininess 0.5
        }
    }
    geometry IndexedFaceSet {
        ccw TRUE
        solid FALSE
        coord DEF co Coordinate {
            point [
                -0.3355 -0.1555 2.943, -0.3564 -0.1555 3.0004, -0.3597 -0.1555 2.9969, -0.3256 -0.1555 2.9441, -0.3182 -0.1555 2.947, -0.327 -0.1555 3.0083, -0.3341 -0.1555 3.0091, -0.3423 -0.1555 3.008, -0.3497 -0.1555 3.0051, -0.3654 -0.1555 2.9657, -0.3621 -0.1555 2.9586, -0.3573 -0.1555 2.9525, -0.3341 -0.1555 2.943, -0.3641 -0.1555 2.9899, -0.3666 -0.1555 2.9819, -0.367 -0.1555 2.9736, -0.3508 -0.1555 2.9476, -0.3431 -0.1555 2.9443, -0.3118 -0.1555 2.9517, -0.3072 -0.1555 2.9568, -0.3033 -0.1555 2.9641, -0.3012 -0.1555 2.9723, -0.3013 -0.1555 2.98, -0.3032 -0.1555 2.9879, -0.3069 -0.1555 2.9948, -0.3123 -0.1555 3.0009, -0.3191 -0.1555 3.0055
            ]
        }
        coordIndex [
            0,1,2,-1,3,4,5,-1,6,7,0,-1,0,7,8,-1,0,8,1,-1,9,10,2,-1,2,10,11,-1,6,0,5,-1,5,0,12,-1,5,12,3,-1,13,14,2,-1,2,14,15,-1,2,15,9,-1,11,16,2,-1,2,16,17,-1,2,17,0,-1,4,18,5,-1,5,18,19,-1,5,19,20,-1,20,21,5,-1,5,21,22,-1,5,22,23,-1,23,24,5,-1,5,24,25,-1,5,25,26,-1,
        ]
    }
}
Shape{
    appearance Appearance {
        material  Material 	{
            diffuseColor 0.0 0.0 0.0
            specularColor 0.0 0.0 0.0
            ambientIntensity 0.0
            transparency 0.0
            shininess 0.5
        }
    }
    geometry IndexedFaceSet {
        ccw TRUE
        solid FALSE
        coord DEF co Coordinate {
            point [
                0.4368 -0.1595 3.2414, 0.4246 -0.1595 3.2567, 0.4218 -0.1595 3.243, 0.4224 -0.1595 3.2567, 0.4038 -0.1595 3.243, 0.3884 -0.1595 3.2567, 0.4038 -0.1595 3.1511, 0.3884 -0.1595 3.1375, 0.4211 -0.1595 3.1511, 0.4212 -0.1595 3.1375, 0.4353 -0.1595 3.1526, 0.4412 -0.1595 3.1399, 0.4458 -0.1595 3.1561, 0.4548 -0.1595 3.1452, 0.4538 -0.1595 3.1611, 0.4675 -0.1595 3.1542, 0.4565 -0.1595 3.1636, 0.4628 -0.1595 3.1714, 0.4757 -0.1595 3.1638, 0.4668 -0.1595 3.1804, 0.4818 -0.1595 3.176, 0.4689 -0.1595 3.1914, 0.4849 -0.1595 3.1897, 0.4693 -0.1595 3.1982, 0.4854 -0.1595 3.1986, 0.4678 -0.1595 3.2117, 0.484 -0.1595 3.2127, 0.4647 -0.1595 3.2208, 0.48 -0.1595 3.2245, 0.4602 -0.1595 3.2277, 0.473 -0.1595 3.2353, 0.4562 -0.1595 3.2318, 0.4675 -0.1595 3.2409, 0.4472 -0.1595 3.2377, 0.4567 -0.1595 3.2485, 0.4426 -0.1595 3.2542, 0.4675 -0.1555 3.1542, 0.4757 -0.1555 3.1638, 0.4818 -0.1555 3.176, 0.4849 -0.1555 3.1897, 0.4854 -0.1555 3.1986, 0.484 -0.1555 3.2127, 0.48 -0.1555 3.2245, 0.473 -0.1555 3.2353, 0.4675 -0.1555 3.2409, 0.4567 -0.1555 3.2485, 0.443 -0.1555 3.254, 0.4426 -0.1555 3.2542, 0.4246 -0.1555 3.2567, 0.4224 -0.1555 3.2567, 0.3884 -0.1555 3.2567, 0.3884 -0.1555 3.1375, 0.4212 -0.1555 3.1375, 0.4412 -0.1555 3.1399, 0.443 -0.1555 3.1406, 0.4548 -0.1555 3.1452, 0.4562 -0.1555 3.2318, 0.4602 -0.1555 3.2277, 0.4647 -0.1555 3.2208, 0.4678 -0.1555 3.2117, 0.4693 -0.1555 3.1982, 0.4218 -0.1555 3.243, 0.4368 -0.1555 3.2414, 0.4472 -0.1555 3.2377, 0.4038 -0.1555 3.243, 0.4038 -0.1555 3.1511, 0.4211 -0.1555 3.1511, 0.4565 -0.1555 3.1636, 0.4538 -0.1555 3.1611, 0.4458 -0.1555 3.1561, 0.4353 -0.1555 3.1526, 0.4689 -0.1555 3.1914, 0.4668 -0.1555 3.1804, 0.4628 -0.1555 3.1714
            ]
        }
        coordIndex [
            0,1,2,-1,2,1,3,-1,2,3,4,-1,4,3,5,-1,4,5,6,-1,6,5,7,-1,6,7,8,-1,8,7,9,-1,8,9,10,-1,10,9,11,-1,10,11,12,-1,12,11,13,-1,12,13,14,-1,14,13,15,-1,14,15,16,-1,16,15,17,-1,17,15,18,-1,17,18,19,-1,19,18,20,-1,19,20,21,-1,21,20,22,-1,21,22,23,-1,23,22,24,-1,23,24,25,-1,25,24,26,-1,25,26,27,-1,27,26,28,-1,27,28,29,-1,29,28,30,-1,29,30,31,-1,31,30,32,-1,31,32,33,-1,33,32,34,-1,33,34,0,-1,0,34,35,-1,0,35,1,-1,15,36,37,-1,15,37,18,-1,18,37,38,-1,18,38,20,-1,20,38,39,-1,20,39,22,-1,22,39,40,-1,22,40,24,-1,24,40,41,-1,24,41,26,-1,26,41,42,-1,26,42,28,-1,28,42,43,-1,28,43,30,-1,30,43,44,-1,30,44,32,-1,32,44,45,-1,32,45,34,-1,34,45,46,-1,34,46,35,-1,46,47,35,-1,35,47,48,-1,35,48,1,-1,1,48,49,-1,1,49,3,-1,5,3,50,-1,50,3,49,-1,7,5,51,-1,51,5,50,-1,9,7,52,-1,52,7,51,-1,36,15,13,-1,9,52,53,-1,9,53,11,-1,11,53,54,-1,11,54,13,-1,13,54,55,-1,13,55,36,-1,31,56,57,-1,31,57,29,-1,29,57,58,-1,29,58,27,-1,27,58,59,-1,27,59,25,-1,25,59,60,-1,25,60,23,-1,2,61,62,-1,2,62,0,-1,0,62,63,-1,0,63,33,-1,33,63,56,-1,33,56,31,-1,2,4,61,-1,61,4,64,-1,4,6,64,-1,64,6,65,-1,6,8,65,-1,65,8,66,-1,16,67,68,-1,16,68,14,-1,14,68,69,-1,14,69,12,-1,12,69,70,-1,12,70,10,-1,10,70,66,-1,10,66,8,-1,23,60,71,-1,23,71,21,-1,21,71,72,-1,21,72,19,-1,19,72,73,-1,19,73,17,-1,17,73,67,-1,17,67,16,-1,
        ]
    }
}
Shape{
    appearance Appearance {
        material  Material 	{
            diffuseColor 0.6666666666666666 0.6666666666666666 0.6666666666666666
            specularColor 0.4666666666666667 0.4666666666666667 0.4666666666666667
            ambientIntensity 0.6667
            transparency 0.0
            shininess 0.5
        }
    }
    geometry IndexedFaceSet {
        ccw TRUE
        solid FALSE
        coord DEF co Coordinate {
            point [
                0.4038 -0.1555 3.243, 0.4038 -0.1555 3.1511, 0.4218 -0.1555 3.243, 0.4211 -0.1555 3.1511, 0.4353 -0.1555 3.1526, 0.4458 -0.1555 3.1561, 0.4538 -0.1555 3.1611, 0.4565 -0.1555 3.1636, 0.4628 -0.1555 3.1714, 0.4668 -0.1555 3.1804, 0.4689 -0.1555 3.1914, 0.4693 -0.1555 3.1982, 0.4678 -0.1555 3.2117, 0.4647 -0.1555 3.2208, 0.4602 -0.1555 3.2277, 0.4562 -0.1555 3.2318, 0.4368 -0.1555 3.2414, 0.4472 -0.1555 3.2377
            ]
        }
        coordIndex [
            0,1,2,-1,2,1,3,-1,2,3,4,-1,4,5,2,-1,2,5,6,-1,2,6,7,-1,7,8,2,-1,2,8,9,-1,2,9,10,-1,10,11,2,-1,2,11,12,-1,2,12,13,-1,13,14,2,-1,2,14,15,-1,2,15,16,-1,16,15,17,-1,
        ]
    }
}
Shape{
    appearance Appearance {
        material  Material 	{
            diffuseColor 0.0 0.0 0.0
            specularColor 0.0 0.0 0.0
            ambientIntensity 0.0
            transparency 0.0
            shininess 0.5
        }
    }
    geometry IndexedFaceSet {
        ccw TRUE
        solid FALSE
        coord DEF co Coordinate {
            point [
                0.2472 -0.1595 3.1492, 0.2472 -0.1555 3.1492, 0.2354 -0.1555 3.1506, 0.2354 -0.1595 3.1506, 0.2269 -0.1555 3.1539, 0.2269 -0.1595 3.1539, 0.2191 -0.1555 3.1594, 0.2191 -0.1595 3.1594, 0.2166 -0.1555 3.1618, 0.2166 -0.1595 3.1618, 0.2105 -0.1555 3.1703, 0.2105 -0.1595 3.1703, 0.2068 -0.1555 3.18, 0.2068 -0.1595 3.18, 0.2049 -0.1555 3.1947, 0.2049 -0.1595 3.1947, 0.2049 -0.1555 3.1958, 0.2049 -0.1595 3.1958, 0.2063 -0.1555 3.2099, 0.2063 -0.1595 3.2099, 0.21 -0.1555 3.2207, 0.21 -0.1595 3.2207, 0.2154 -0.1555 3.2293, 0.2154 -0.1595 3.2293, 0.2174 -0.1555 3.2316, 0.2174 -0.1595 3.2316, 0.2259 -0.1555 3.2385, 0.2259 -0.1595 3.2385, 0.2353 -0.1555 3.2428, 0.2353 -0.1595 3.2428, 0.2457 -0.1555 3.2447, 0.2457 -0.1595 3.2447, 0.2499 -0.1555 3.2448, 0.2499 -0.1595 3.2448, 0.2632 -0.1555 3.2434, 0.2632 -0.1595 3.2434, 0.2754 -0.1555 3.2391, 0.2754 -0.1595 3.2391, 0.278 -0.1555 3.2378, 0.278 -0.1595 3.2378, 0.278 -0.1595 3.2538, 0.278 -0.1555 3.2538, 0.2497 -0.1555 3.2587, 0.2497 -0.1595 3.2587, 0.2514 -0.1595 3.2587, 0.2667 -0.1555 3.2572, 0.2667 -0.1595 3.2572, 0.2618 -0.1555 3.2577, 0.2514 -0.1555 3.2587, 0.2414 -0.1555 3.2577, 0.2327 -0.1595 3.2567, 0.2327 -0.1555 3.2567, 0.2202 -0.1555 3.2519, 0.2202 -0.1595 3.2519, 0.2087 -0.1555 3.2437, 0.2087 -0.1595 3.2437, 0.206 -0.1555 3.2412, 0.206 -0.1595 3.2412, 0.1981 -0.1555 3.2311, 0.1941 -0.1555 3.2224, 0.1921 -0.1595 3.2181, 0.1981 -0.1595 3.2311, 0.1921 -0.1555 3.2181, 0.1891 -0.1555 3.2029, 0.1891 -0.1595 3.2029, 0.1888 -0.1555 3.1949, 0.1888 -0.1595 3.1949, 0.191 -0.1555 3.1757, 0.1941 -0.1555 3.1678, 0.1959 -0.1595 3.1632, 0.191 -0.1595 3.1757, 0.1959 -0.1555 3.1632, 0.2029 -0.1555 3.153, 0.2029 -0.1595 3.153, 0.2041 -0.1555 3.1518, 0.2041 -0.1595 3.1518, 0.2244 -0.1555 3.1387, 0.2132 -0.1595 3.1441, 0.2132 -0.1555 3.1441, 0.2344 -0.1555 3.1365, 0.2372 -0.1595 3.1359, 0.2244 -0.1595 3.1387, 0.2372 -0.1555 3.1359, 0.245 -0.1555 3.1355, 0.245 -0.1595 3.1355, 0.2632 -0.1595 3.1373, 0.2555 -0.1555 3.1365, 0.2632 -0.1555 3.1373, 0.2759 -0.1555 3.1415, 0.2759 -0.1595 3.1415, 0.278 -0.1555 3.1425, 0.278 -0.1595 3.1425, 0.278 -0.1595 3.1572, 0.278 -0.1555 3.1572, 0.2671 -0.1555 3.1522, 0.2671 -0.1595 3.1522, 0.2538 -0.1555 3.1495, 0.2538 -0.1595 3.1495, 0.6746 -0.1595 2.9946, 0.6697 -0.1595 2.9811, 0.7146 -0.1595 2.9946, 0.7193 -0.1595 2.9811, 0.6924 -0.1595 3.0441, 0.6867 -0.1595 3.0677, 0.6413 -0.1595 2.9485, 0.6583 -0.1595 2.9485, 0.6934 -0.1595 3.0476, 0.6944 -0.1595 3.0524, 0.7031 -0.1595 3.0677, 0.6947 -0.1595 3.0524, 0.6957 -0.1595 3.0474, 0.6966 -0.1595 3.0441, 0.7485 -0.1595 2.9485, 0.7315 -0.1595 2.9485, 0.6867 -0.1555 3.0677, 0.7031 -0.1555 3.0677, 0.6413 -0.1555 2.9485, 0.6805 -0.1555 3.0516, 0.6583 -0.1555 2.9485, 0.6697 -0.1555 2.9811, 0.7193 -0.1555 2.9811, 0.7315 -0.1555 2.9485, 0.7485 -0.1555 2.9485, 0.7092 -0.1555 3.0516, 0.6924 -0.1555 3.0441, 0.6934 -0.1555 3.0476, 0.6944 -0.1555 3.0524, 0.6746 -0.1555 2.9946, 0.7146 -0.1555 2.9946, 0.6966 -0.1555 3.0441, 0.6947 -0.1555 3.0524, 0.6957 -0.1555 3.0474
            ]
        }
        coordIndex [
            0,1,2,-1,0,2,3,-1,3,2,4,-1,3,4,5,-1,5,4,6,-1,5,6,7,-1,7,6,8,-1,7,8,9,-1,9,8,10,-1,9,10,11,-1,11,10,12,-1,11,12,13,-1,13,12,14,-1,13,14,15,-1,15,14,16,-1,15,16,17,-1,17,16,18,-1,17,18,19,-1,19,18,20,-1,19,20,21,-1,21,20,22,-1,21,22,23,-1,23,22,24,-1,23,24,25,-1,25,24,26,-1,25,26,27,-1,27,26,28,-1,27,28,29,-1,29,28,30,-1,29,30,31,-1,31,30,32,-1,31,32,33,-1,33,32,34,-1,33,34,35,-1,35,34,36,-1,35,36,37,-1,37,36,38,-1,37,38,39,-1,40,39,41,-1,41,39,38,-1,42,43,44,-1,40,41,45,-1,40,45,46,-1,46,45,47,-1,46,47,44,-1,44,47,48,-1,44,48,42,-1,43,42,49,-1,43,49,50,-1,49,51,50,-1,50,51,52,-1,50,52,53,-1,53,52,54,-1,53,54,55,-1,55,54,56,-1,55,56,57,-1,57,56,58,-1,59,60,58,-1,58,60,61,-1,58,61,57,-1,59,62,60,-1,60,62,63,-1,60,63,64,-1,64,63,65,-1,64,65,66,-1,66,65,67,-1,68,69,67,-1,67,69,70,-1,67,70,66,-1,68,71,69,-1,69,71,72,-1,69,72,73,-1,73,72,74,-1,73,74,75,-1,76,77,78,-1,78,77,75,-1,78,75,74,-1,79,80,76,-1,76,80,81,-1,76,81,77,-1,79,82,80,-1,80,82,83,-1,80,83,84,-1,84,83,85,-1,85,83,86,-1,86,87,85,-1,85,87,88,-1,85,88,89,-1,89,88,90,-1,89,90,91,-1,92,91,93,-1,93,91,90,-1,92,93,94,-1,92,94,95,-1,95,94,96,-1,95,96,97,-1,97,96,1,-1,97,1,0,-1,37,39,40,-1,27,29,50,-1,11,13,70,-1,19,21,61,-1,50,29,43,-1,37,40,35,-1,70,13,66,-1,61,21,57,-1,29,31,43,-1,43,31,33,-1,43,33,44,-1,44,33,35,-1,44,35,46,-1,46,35,40,-1,50,53,27,-1,27,53,55,-1,27,55,25,-1,25,55,57,-1,25,57,23,-1,23,57,21,-1,70,69,11,-1,11,69,73,-1,11,73,9,-1,9,73,75,-1,9,75,7,-1,7,75,77,-1,7,77,5,-1,5,77,81,-1,5,81,3,-1,3,81,80,-1,3,80,0,-1,0,80,84,-1,0,84,97,-1,97,84,85,-1,97,85,95,-1,95,85,89,-1,95,89,92,-1,92,89,91,-1,13,15,66,-1,66,15,17,-1,66,17,64,-1,64,17,19,-1,64,19,60,-1,60,19,61,-1,98,99,100,-1,100,99,101,-1,102,103,98,-1,98,103,104,-1,98,104,99,-1,99,104,105,-1,102,106,103,-1,103,106,107,-1,103,107,108,-1,108,107,109,-1,108,109,110,-1,110,111,108,-1,108,111,100,-1,108,100,112,-1,112,100,101,-1,112,101,113,-1,103,108,114,-1,114,108,115,-1,116,104,117,-1,117,104,103,-1,117,103,114,-1,105,104,118,-1,118,104,116,-1,99,105,119,-1,119,105,118,-1,101,99,120,-1,120,99,119,-1,113,101,121,-1,121,101,120,-1,112,113,122,-1,122,113,121,-1,115,108,123,-1,123,108,112,-1,123,112,122,-1,102,124,125,-1,102,125,106,-1,106,125,126,-1,106,126,107,-1,102,98,124,-1,124,98,127,-1,98,100,127,-1,127,100,128,-1,100,111,128,-1,128,111,129,-1,109,130,131,-1,109,131,110,-1,110,131,129,-1,110,129,111,-1,109,107,130,-1,130,107,126,-1,
        ]
    }
}
Shape{
    appearance Appearance {
        material  Material 	{
            diffuseColor 0.6666666666666666 0.6666666666666666 0.6666666666666666
            specularColor 0.4666666666666667 0.4666666666666667 0.4666666666666667
            ambientIntensity 0.6667
            transparency 0.0
            shininess 0.5
        }
    }
    geometry IndexedFaceSet {
        ccw TRUE
        solid FALSE
        coord DEF co Coordinate {
            point [
                0.6947 -0.1555 3.0524, 0.6944 -0.1555 3.0524, 0.6957 -0.1555 3.0474, 0.6934 -0.1555 3.0476, 0.6966 -0.1555 3.0441, 0.6924 -0.1555 3.0441, 0.7146 -0.1555 2.9946, 0.6746 -0.1555 2.9946
            ]
        }
        coordIndex [
            0,1,2,-1,2,1,3,-1,2,3,4,-1,4,3,5,-1,4,5,6,-1,6,5,7,-1,
        ]
    }
}
Shape{
    appearance Appearance {
        material  Material 	{
            diffuseColor 0.0 0.0 0.0
            specularColor 0.0 0.0 0.0
            ambientIntensity 0.0
            transparency 0.0
            shininess 0.5
        }
    }
    geometry IndexedFaceSet {
        ccw TRUE
        solid FALSE
        coord DEF co Coordinate {
            point [
                0.4664 -0.1555 2.9621, 0.4664 -0.1595 2.9621, 0.4887 -0.1555 2.9621, 0.5151 -0.1595 2.9621, 0.5151 -0.1555 2.9621, 0.4664 -0.1595 3.0022, 0.4664 -0.1555 3.0022, 0.509 -0.1555 3.0022, 0.509 -0.1595 3.0022, 0.4887 -0.1555 3.0022, 0.509 -0.1595 3.0158, 0.509 -0.1555 3.0158, 0.4664 -0.1555 3.0158, 0.4664 -0.1595 3.0158, 0.4887 -0.1555 3.0158, 0.4664 -0.1595 3.054, 0.4664 -0.1555 3.0516, 0.4664 -0.1555 3.054, 0.5124 -0.1555 3.054, 0.5124 -0.1595 3.054, 0.4887 -0.1555 3.054, 0.5124 -0.1595 3.0677, 0.5124 -0.1555 3.0677, 0.451 -0.1555 3.0677, 0.451 -0.1595 3.0677, 0.4887 -0.1555 3.0677, 0.451 -0.1555 2.9485, 0.451 -0.1595 2.9485, 0.451 -0.1555 3.0516, 0.5151 -0.1555 2.9485, 0.5151 -0.1595 2.9485, 0.4887 -0.1555 2.9485, 0.1364 -0.1595 2.9621, 0.1851 -0.1595 2.9621, 0.1364 -0.1555 2.9621, 0.1851 -0.1555 2.9621, 0.1364 -0.1595 3.0022, 0.1364 -0.1555 3.0022, 0.179 -0.1595 3.0022, 0.179 -0.1555 3.0022, 0.179 -0.1595 3.0158, 0.179 -0.1555 3.0158, 0.1364 -0.1595 3.0158, 0.1364 -0.1555 3.0158, 0.1364 -0.1595 3.054, 0.1364 -0.1555 3.0516, 0.1364 -0.1555 3.054, 0.1824 -0.1595 3.054, 0.1824 -0.1555 3.054, 0.1824 -0.1595 3.0677, 0.1824 -0.1555 3.0677, 0.121 -0.1595 3.0677, 0.121 -0.1555 3.0677, 0.121 -0.1555 2.9485, 0.121 -0.1595 2.9485, 0.121 -0.1555 3.0516, 0.1851 -0.1595 2.9485, 0.1851 -0.1555 2.9485, 0.5254 -0.1595 3.1836, 0.5205 -0.1595 3.1701, 0.5654 -0.1595 3.1836, 0.5701 -0.1595 3.1701, 0.5432 -0.1595 3.2331, 0.5374 -0.1595 3.2567, 0.492 -0.1595 3.1375, 0.509 -0.1595 3.1375, 0.5442 -0.1595 3.2367, 0.5451 -0.1595 3.2415, 0.5539 -0.1595 3.2567, 0.5455 -0.1595 3.2415, 0.5465 -0.1595 3.2364, 0.5474 -0.1595 3.2331, 0.5993 -0.1595 3.1375, 0.5823 -0.1595 3.1375, 0.5374 -0.1555 3.2567, 0.5539 -0.1555 3.2567, 0.492 -0.1555 3.1375, 0.5264 -0.1555 3.2277, 0.509 -0.1555 3.1375, 0.5205 -0.1555 3.1701, 0.5701 -0.1555 3.1701, 0.5264 -0.1555 3.1701, 0.5823 -0.1555 3.1375, 0.5993 -0.1555 3.1375, 0.5432 -0.1555 3.2331, 0.5442 -0.1555 3.2367, 0.5451 -0.1555 3.2415, 0.5254 -0.1555 3.1836, 0.5654 -0.1555 3.1836, 0.5474 -0.1555 3.2331, 0.5455 -0.1555 3.2415, 0.5465 -0.1555 3.2364
            ]
        }
        coordIndex [
            0,1,2,-1,2,1,3,-1,2,3,4,-1,5,1,6,-1,6,1,0,-1,7,8,9,-1,9,8,5,-1,9,5,6,-1,10,8,11,-1,11,8,7,-1,12,13,14,-1,14,13,10,-1,14,10,11,-1,13,12,15,-1,15,12,16,-1,15,16,17,-1,18,19,20,-1,20,19,15,-1,20,15,17,-1,21,19,22,-1,22,19,18,-1,23,24,25,-1,25,24,21,-1,25,21,22,-1,26,27,28,-1,28,27,24,-1,28,24,23,-1,29,30,31,-1,31,30,27,-1,31,27,26,-1,3,30,4,-1,4,30,29,-1,27,30,3,-1,3,1,27,-1,27,1,5,-1,27,5,24,-1,19,21,15,-1,15,21,24,-1,15,24,13,-1,13,24,5,-1,13,5,10,-1,10,5,8,-1,32,33,34,-1,34,33,35,-1,36,32,37,-1,37,32,34,-1,38,36,39,-1,39,36,37,-1,40,38,41,-1,41,38,39,-1,42,40,43,-1,43,40,41,-1,42,43,44,-1,44,43,45,-1,44,45,46,-1,47,44,48,-1,48,44,46,-1,49,47,50,-1,50,47,48,-1,51,49,52,-1,52,49,50,-1,53,54,55,-1,55,54,51,-1,55,51,52,-1,56,54,57,-1,57,54,53,-1,33,56,35,-1,35,56,57,-1,54,56,33,-1,33,32,54,-1,54,32,36,-1,54,36,51,-1,47,49,44,-1,44,49,51,-1,44,51,42,-1,42,51,36,-1,42,36,40,-1,40,36,38,-1,58,59,60,-1,60,59,61,-1,62,63,58,-1,58,63,64,-1,58,64,59,-1,59,64,65,-1,62,66,63,-1,63,66,67,-1,63,67,68,-1,68,67,69,-1,68,69,70,-1,70,71,68,-1,68,71,60,-1,68,60,72,-1,72,60,61,-1,72,61,73,-1,63,68,74,-1,74,68,75,-1,76,64,77,-1,77,64,63,-1,77,63,74,-1,65,64,78,-1,78,64,76,-1,59,65,79,-1,79,65,78,-1,80,61,81,-1,81,61,59,-1,81,59,79,-1,73,61,82,-1,82,61,80,-1,72,73,83,-1,83,73,82,-1,68,72,75,-1,75,72,83,-1,62,84,85,-1,62,85,66,-1,66,85,86,-1,66,86,67,-1,62,58,84,-1,84,58,87,-1,58,60,87,-1,87,60,88,-1,60,71,88,-1,88,71,89,-1,69,90,91,-1,69,91,70,-1,70,91,89,-1,70,89,71,-1,69,67,90,-1,90,67,86,-1,
        ]
    }
}
Shape{
    appearance Appearance {
        material  Material 	{
            diffuseColor 0.6666666666666666 0.6666666666666666 0.6666666666666666
            specularColor 0.4666666666666667 0.4666666666666667 0.4666666666666667
            ambientIntensity 0.6667
            transparency 0.0
            shininess 0.5
        }
    }
    geometry IndexedFaceSet {
        ccw TRUE
        solid FALSE
        coord DEF co Coordinate {
            point [
                0.5455 -0.1555 3.2415, 0.5451 -0.1555 3.2415, 0.5465 -0.1555 3.2364, 0.5442 -0.1555 3.2367, 0.5474 -0.1555 3.2331, 0.5432 -0.1555 3.2331, 0.5654 -0.1555 3.1836, 0.5254 -0.1555 3.1836
            ]
        }
        coordIndex [
            0,1,2,-1,2,1,3,-1,2,3,4,-1,4,3,5,-1,4,5,6,-1,6,5,7,-1,
        ]
    }
}
Shape{
    appearance Appearance {
        material  Material 	{
            diffuseColor 0.0 0.0 0.0
            specularColor 0.0 0.0 0.0
            ambientIntensity 0.0
            transparency 0.0
            shininess 0.5
        }
    }
    geometry IndexedFaceSet {
        ccw TRUE
        solid FALSE
        coord DEF co Coordinate {
            point [
                0.3172 -0.1555 3.1511, 0.3172 -0.1595 3.1511, 0.3494 -0.1555 3.1511, 0.3659 -0.1595 3.1511, 0.3659 -0.1555 3.1511, 0.3172 -0.1595 3.1912, 0.3172 -0.1555 3.1912, 0.3598 -0.1595 3.1912, 0.3494 -0.1555 3.1912, 0.3598 -0.1555 3.1912, 0.3598 -0.1595 3.2049, 0.3598 -0.1555 3.2049, 0.3172 -0.1555 3.2049, 0.3172 -0.1595 3.2049, 0.3494 -0.1555 3.2049, 0.3172 -0.1595 3.243, 0.3172 -0.1555 3.243, 0.3632 -0.1555 3.243, 0.3632 -0.1595 3.243, 0.3494 -0.1555 3.243, 0.3632 -0.1595 3.2567, 0.3632 -0.1555 3.2567, 0.3018 -0.1555 3.2567, 0.3018 -0.1595 3.2567, 0.3494 -0.1555 3.2567, 0.3018 -0.1595 3.1375, 0.3018 -0.1555 3.1375, 0.3659 -0.1555 3.1375, 0.3659 -0.1595 3.1375, 0.3494 -0.1555 3.1375, 0.1364 -0.1595 3.1511, 0.1839 -0.1595 3.1511, 0.1364 -0.1555 3.1511, 0.1839 -0.1555 3.1511, 0.1364 -0.1595 3.2567, 0.1364 -0.1555 3.2567, 0.121 -0.1595 3.2567, 0.121 -0.1555 3.2567, 0.121 -0.1595 3.1375, 0.121 -0.1555 3.1375, 0.1839 -0.1595 3.1375, 0.1839 -0.1555 3.1375
            ]
        }
        coordIndex [
            0,1,2,-1,2,1,3,-1,2,3,4,-1,5,1,6,-1,6,1,0,-1,5,6,7,-1,7,6,8,-1,7,8,9,-1,10,7,11,-1,11,7,9,-1,12,13,14,-1,14,13,10,-1,14,10,11,-1,15,13,16,-1,16,13,12,-1,17,18,19,-1,19,18,15,-1,19,15,16,-1,20,18,21,-1,21,18,17,-1,22,23,24,-1,24,23,20,-1,24,20,21,-1,25,23,26,-1,26,23,22,-1,27,28,29,-1,29,28,25,-1,29,25,26,-1,3,28,4,-1,4,28,27,-1,25,28,3,-1,3,1,25,-1,25,1,5,-1,25,5,23,-1,18,20,15,-1,15,20,23,-1,15,23,13,-1,13,23,5,-1,13,5,10,-1,10,5,7,-1,30,31,32,-1,32,31,33,-1,34,30,35,-1,35,30,32,-1,36,34,37,-1,37,34,35,-1,38,36,39,-1,39,36,37,-1,40,38,41,-1,41,38,39,-1,31,40,33,-1,33,40,41,-1,34,36,30,-1,30,36,38,-1,30,38,31,-1,31,38,40,-1,
        ]
    }
}