<?xml version='1.0' encoding='utf-8'?>
<svg xmlns="http://www.w3.org/2000/svg" version="1.1" width="5.0546mm" height="9.6774mm" viewBox="0.0000 0.0000 5.0546 9.6774">
<title>SVG Image created as C0805.svg date 2026/01/09 08:17:46 </title>
  <desc>Image generated by PCBNEW </desc>
<g style="fill:#000000; fill-opacity:1.0000;stroke:#000000; stroke-opacity:1.0000; stroke-linecap:round; stroke-linejoin:round;" transform="translate(0 0) scale(1 1)">
<path style="fill:#000000; fill-opacity:1.0000; stroke:none;fill-rule:evenodd;" d="M 2.8248,5.5232 2.8248,4.1732 4.2348,4.1732 4.2348,5.5232 Z" /> 
<path style="fill:#000000; fill-opacity:1.0000; stroke:none;fill-rule:evenodd;" d="M 0.8248,5.5232 0.8248,4.1732 2.2348,4.1732 2.2348,5.5232 Z" /> 
<path style="fill:#000000; fill-opacity:1.0000; stroke:none;fill-rule:evenodd;" d="M 2.8248,5.5232 2.8248,4.1732 4.2348,4.1732 4.2348,5.5232 Z" /> 
<path style="fill:#000000; fill-opacity:1.0000; stroke:none;fill-rule:evenodd;" d="M 0.8248,5.5232 0.8248,4.1732 2.2348,4.1732 2.2348,5.5232 Z" /> 
<path style="fill:#000000; fill-opacity:1.0000; stroke:none;fill-rule:evenodd;" d="M 2.8248,5.5232 2.8248,4.1732 4.2348,4.1732 4.2348,5.5232 Z" /> 
<path style="fill:#000000; fill-opacity:1.0000; stroke:none;fill-rule:evenodd;" d="M 0.8248,5.5232 0.8248,4.1732 2.2348,4.1732 2.2348,5.5232 Z" /> 
</g>
<g style="fill:none;  stroke:#000000; stroke-width:0.1500; stroke-opacity:1;  stroke-linecap:round; stroke-linejoin:round;">
<path d="M4.3398 3.9482 L2.9298 3.9482 " />
<path d="M2.9298 5.7482 L4.3398 5.7482 " />
<path d="M4.4898 5.5983 L4.4898 4.0983 " />
<path d="M0.7198 3.9482 L2.1298 3.9482 " />
<path d="M2.1298 5.7482 L0.7198 5.7482 " />
<path d="M0.5698 5.5983 L0.5698 4.0983 " />
<path d="M4.3398 5.7483 A0.1500 0.1500 0.0 0 0 4.4898 5.5983" />
<path d="M4.4898 4.0983 A0.1500 0.1500 0.0 0 0 4.3398 3.9483" />
<path d="M0.5698 5.5983 A0.1500 0.1500 0.0 0 0 0.7198 5.7483" />
<path d="M0.7198 3.9483 A0.1500 0.1500 0.0 0 0 0.5698 4.0983" />
<text x="2.5298" y="9.3483" textLength="5.0595" font-size="1.3333" lengthAdjust="spacingAndGlyphs" text-anchor="middle" opacity="0" stroke-opacity="0">C0805</text>
<g class="stroked-text"><desc>C0805</desc>
<path d="M0.9345 9.2078 L0.8869 9.2554 " />
<path d="M0.8869 9.2554 L0.7440 9.3031 " />
<path d="M0.7440 9.3031 L0.6488 9.3031 " />
<path d="M0.6488 9.3031 L0.5060 9.2554 " />
<path d="M0.5060 9.2554 L0.4107 9.1602 " />
<path d="M0.4107 9.1602 L0.3631 9.0650 " />
<path d="M0.3631 9.0650 L0.3155 8.8745 " />
<path d="M0.3155 8.8745 L0.3155 8.7316 " />
<path d="M0.3155 8.7316 L0.3631 8.5412 " />
<path d="M0.3631 8.5412 L0.4107 8.4459 " />
<path d="M0.4107 8.4459 L0.5060 8.3507 " />
<path d="M0.5060 8.3507 L0.6488 8.3031 " />
<path d="M0.6488 8.3031 L0.7440 8.3031 " />
<path d="M0.7440 8.3031 L0.8869 8.3507 " />
<path d="M0.8869 8.3507 L0.9345 8.3983 " />
<path d="M1.5536 8.3031 L1.6488 8.3031 " />
<path d="M1.6488 8.3031 L1.7440 8.3507 " />
<path d="M1.7440 8.3507 L1.7917 8.3983 " />
<path d="M1.7917 8.3983 L1.8393 8.4935 " />
<path d="M1.8393 8.4935 L1.8869 8.6840 " />
<path d="M1.8869 8.6840 L1.8869 8.9221 " />
<path d="M1.8869 8.9221 L1.8393 9.1126 " />
<path d="M1.8393 9.1126 L1.7917 9.2078 " />
<path d="M1.7917 9.2078 L1.7440 9.2554 " />
<path d="M1.7440 9.2554 L1.6488 9.3031 " />
<path d="M1.6488 9.3031 L1.5536 9.3031 " />
<path d="M1.5536 9.3031 L1.4583 9.2554 " />
<path d="M1.4583 9.2554 L1.4107 9.2078 " />
<path d="M1.4107 9.2078 L1.3631 9.1126 " />
<path d="M1.3631 9.1126 L1.3155 8.9221 " />
<path d="M1.3155 8.9221 L1.3155 8.6840 " />
<path d="M1.3155 8.6840 L1.3631 8.4935 " />
<path d="M1.3631 8.4935 L1.4107 8.3983 " />
<path d="M1.4107 8.3983 L1.4583 8.3507 " />
<path d="M1.4583 8.3507 L1.5536 8.3031 " />
<path d="M2.4583 8.7316 L2.3631 8.6840 " />
<path d="M2.3631 8.6840 L2.3155 8.6364 " />
<path d="M2.3155 8.6364 L2.2679 8.5412 " />
<path d="M2.2679 8.5412 L2.2679 8.4935 " />
<path d="M2.2679 8.4935 L2.3155 8.3983 " />
<path d="M2.3155 8.3983 L2.3631 8.3507 " />
<path d="M2.3631 8.3507 L2.4583 8.3031 " />
<path d="M2.4583 8.3031 L2.6488 8.3031 " />
<path d="M2.6488 8.3031 L2.7440 8.3507 " />
<path d="M2.7440 8.3507 L2.7917 8.3983 " />
<path d="M2.7917 8.3983 L2.8393 8.4935 " />
<path d="M2.8393 8.4935 L2.8393 8.5412 " />
<path d="M2.8393 8.5412 L2.7917 8.6364 " />
<path d="M2.7917 8.6364 L2.7440 8.6840 " />
<path d="M2.7440 8.6840 L2.6488 8.7316 " />
<path d="M2.6488 8.7316 L2.4583 8.7316 " />
<path d="M2.4583 8.7316 L2.3631 8.7793 " />
<path d="M2.3631 8.7793 L2.3155 8.8269 " />
<path d="M2.3155 8.8269 L2.2679 8.9221 " />
<path d="M2.2679 8.9221 L2.2679 9.1126 " />
<path d="M2.2679 9.1126 L2.3155 9.2078 " />
<path d="M2.3155 9.2078 L2.3631 9.2554 " />
<path d="M2.3631 9.2554 L2.4583 9.3031 " />
<path d="M2.4583 9.3031 L2.6488 9.3031 " />
<path d="M2.6488 9.3031 L2.7440 9.2554 " />
<path d="M2.7440 9.2554 L2.7917 9.2078 " />
<path d="M2.7917 9.2078 L2.8393 9.1126 " />
<path d="M2.8393 9.1126 L2.8393 8.9221 " />
<path d="M2.8393 8.9221 L2.7917 8.8269 " />
<path d="M2.7917 8.8269 L2.7440 8.7793 " />
<path d="M2.7440 8.7793 L2.6488 8.7316 " />
<path d="M3.4583 8.3031 L3.5536 8.3031 " />
<path d="M3.5536 8.3031 L3.6488 8.3507 " />
<path d="M3.6488 8.3507 L3.6964 8.3983 " />
<path d="M3.6964 8.3983 L3.7440 8.4935 " />
<path d="M3.7440 8.4935 L3.7917 8.6840 " />
<path d="M3.7917 8.6840 L3.7917 8.9221 " />
<path d="M3.7917 8.9221 L3.7440 9.1126 " />
<path d="M3.7440 9.1126 L3.6964 9.2078 " />
<path d="M3.6964 9.2078 L3.6488 9.2554 " />
<path d="M3.6488 9.2554 L3.5536 9.3031 " />
<path d="M3.5536 9.3031 L3.4583 9.3031 " />
<path d="M3.4583 9.3031 L3.3631 9.2554 " />
<path d="M3.3631 9.2554 L3.3155 9.2078 " />
<path d="M3.3155 9.2078 L3.2679 9.1126 " />
<path d="M3.2679 9.1126 L3.2202 8.9221 " />
<path d="M3.2202 8.9221 L3.2202 8.6840 " />
<path d="M3.2202 8.6840 L3.2679 8.4935 " />
<path d="M3.2679 8.4935 L3.3155 8.3983 " />
<path d="M3.3155 8.3983 L3.3631 8.3507 " />
<path d="M3.3631 8.3507 L3.4583 8.3031 " />
<path d="M4.6964 8.3031 L4.2202 8.3031 " />
<path d="M4.2202 8.3031 L4.1726 8.7793 " />
<path d="M4.1726 8.7793 L4.2202 8.7316 " />
<path d="M4.2202 8.7316 L4.3155 8.6840 " />
<path d="M4.3155 8.6840 L4.5536 8.6840 " />
<path d="M4.5536 8.6840 L4.6488 8.7316 " />
<path d="M4.6488 8.7316 L4.6964 8.7793 " />
<path d="M4.6964 8.7793 L4.7440 8.8745 " />
<path d="M4.7440 8.8745 L4.7440 9.1126 " />
<path d="M4.7440 9.1126 L4.6964 9.2078 " />
<path d="M4.6964 9.2078 L4.6488 9.2554 " />
<path d="M4.6488 9.2554 L4.5536 9.3031 " />
<path d="M4.5536 9.3031 L4.3155 9.3031 " />
<path d="M4.3155 9.3031 L4.2202 9.2554 " />
<path d="M4.2202 9.2554 L4.1726 9.2078 " />
</g></g>
<g style="fill:none;  stroke:#000000; stroke-width:0.0600; stroke-opacity:1;  stroke-linecap:round; stroke-linejoin:round;">
<circle cx="1.5298" cy="5.4783" r="0.0300" /> 
</g> 
</svg>