<?xml version='1.0' encoding='utf-8'?>
<svg xmlns="http://www.w3.org/2000/svg" version="1.1" width="22.8600mm" height="9.6774mm" viewBox="0.0000 0.0000 22.8600 9.6774">
<title>SVG Image created as CONN-TH_L6.3-W0.8-EST026.svg date 2026/01/09 08:17:46 </title>
  <desc>Image generated by PCBNEW </desc>
<g style="fill:#000000; fill-opacity:1.0000;stroke:#000000; stroke-opacity:1.0000; stroke-linecap:round; stroke-linejoin:round;" transform="translate(0 0) scale(1 1)">
</g>
<g style="fill:none;  stroke:#000000; stroke-width:2.0000; stroke-opacity:1;  stroke-linecap:round; stroke-linejoin:round;">
<path d="M13.4745 4.8483 L14.4745 4.8483 " />
<path d="M8.3945 4.8483 L9.3945 4.8483 " />
<path d="M13.4745 4.8483 L14.4745 4.8483 " />
<path d="M8.3945 4.8483 L9.3945 4.8483 " />
<path d="M13.4745 4.8483 L14.4745 4.8483 " />
<path d="M8.3945 4.8483 L9.3945 4.8483 " />
<path d="M13.4745 4.8483 L14.4745 4.8483 " />
<path d="M8.3945 4.8483 L9.3945 4.8483 " />
<path d="M13.4745 4.8483 L14.4745 4.8483 " />
<path d="M8.3945 4.8483 L9.3945 4.8483 " />
<path d="M13.4745 4.8483 L14.4745 4.8483 " />
<path d="M8.3945 4.8483 L9.3945 4.8483 " />
<path d="M13.4745 4.8483 L14.4745 4.8483 " />
<path d="M8.3945 4.8483 L9.3945 4.8483 " />
<path d="M13.4745 4.8483 L14.4745 4.8483 " />
<path d="M8.3945 4.8483 L9.3945 4.8483 " />
<path d="M13.4745 4.8483 L14.4745 4.8483 " />
<path d="M8.3945 4.8483 L9.3945 4.8483 " />
<path d="M13.4745 4.8483 L14.4745 4.8483 " />
<path d="M8.3945 4.8483 L9.3945 4.8483 " />
<path d="M13.4745 4.8483 L14.4745 4.8483 " />
<path d="M8.3945 4.8483 L9.3945 4.8483 " />
<path d="M13.4745 4.8483 L14.4745 4.8483 " />
<path d="M8.3945 4.8483 L9.3945 4.8483 " />
<path d="M13.4745 4.8483 L14.4745 4.8483 " />
<path d="M8.3945 4.8483 L9.3945 4.8483 " />
<path d="M13.4745 4.8483 L14.4745 4.8483 " />
<path d="M8.3945 4.8483 L9.3945 4.8483 " />
<path d="M13.4745 4.8483 L14.4745 4.8483 " />
<path d="M8.3945 4.8483 L9.3945 4.8483 " />
<path d="M13.4745 4.8483 L14.4745 4.8483 " />
<path d="M8.3945 4.8483 L9.3945 4.8483 " />
<path d="M13.4745 4.8483 L14.4745 4.8483 " />
<path d="M8.3945 4.8483 L9.3945 4.8483 " />
<path d="M13.4745 4.8483 L14.4745 4.8483 " />
<path d="M8.3945 4.8483 L9.3945 4.8483 " />
<path d="M13.4745 4.8483 L14.4745 4.8483 " />
<path d="M8.3945 4.8483 L9.3945 4.8483 " />
<path d="M13.4745 4.8483 L14.4745 4.8483 " />
<path d="M8.3945 4.8483 L9.3945 4.8483 " />
<path d="M13.4745 4.8483 L14.4745 4.8483 " />
<path d="M8.3945 4.8483 L9.3945 4.8483 " />
<path d="M13.4745 4.8483 L14.4745 4.8483 " />
<path d="M8.3945 4.8483 L9.3945 4.8483 " />
<path d="M13.4745 4.8483 L14.4745 4.8483 " />
<path d="M8.3945 4.8483 L9.3945 4.8483 " />
<path d="M13.4745 4.8483 L14.4745 4.8483 " />
<path d="M8.3945 4.8483 L9.3945 4.8483 " />
<path d="M13.4745 4.8483 L14.4745 4.8483 " />
<path d="M8.3945 4.8483 L9.3945 4.8483 " />
<path d="M13.4745 4.8483 L14.4745 4.8483 " />
<path d="M8.3945 4.8483 L9.3945 4.8483 " />
<path d="M13.4745 4.8483 L14.4745 4.8483 " />
<path d="M8.3945 4.8483 L9.3945 4.8483 " />
<path d="M13.4745 4.8483 L14.4745 4.8483 " />
<path d="M8.3945 4.8483 L9.3945 4.8483 " />
<path d="M13.4745 4.8483 L14.4745 4.8483 " />
<path d="M8.3945 4.8483 L9.3945 4.8483 " />
<path d="M13.4745 4.8483 L14.4745 4.8483 " />
<path d="M8.3945 4.8483 L9.3945 4.8483 " />
<path d="M13.4745 4.8483 L14.4745 4.8483 " />
<path d="M8.3945 4.8483 L9.3945 4.8483 " />
<path d="M13.4745 4.8483 L14.4745 4.8483 " />
<path d="M8.3945 4.8483 L9.3945 4.8483 " />
<path d="M13.4745 4.8483 L14.4745 4.8483 " />
<path d="M8.3945 4.8483 L9.3945 4.8483 " />
<path d="M13.4745 4.8483 L14.4745 4.8483 " />
<path d="M8.3945 4.8483 L9.3945 4.8483 " />
</g>
<g style="fill:none;  stroke:#000000; stroke-width:0.1500; stroke-opacity:1;  stroke-linecap:round; stroke-linejoin:round;">
</g>
<g style="fill:none;  stroke:#000000; stroke-width:0.2500; stroke-opacity:1;  stroke-linecap:round; stroke-linejoin:round;">
<path d="M15.6345 3.5982 L15.6345 6.0982 " />
<path d="M7.2345 6.0982 L7.2345 3.5982 " />
<path d="M15.6345 6.0982 L7.2345 6.0982 " />
<path d="M7.2345 3.5982 L15.6345 3.5982 " />
</g>
<g style="fill:none;  stroke:#000000; stroke-width:0.1500; stroke-opacity:1;  stroke-linecap:round; stroke-linejoin:round;">
<text x="11.4345" y="9.3483" textLength="22.8690" font-size="1.3333" lengthAdjust="spacingAndGlyphs" text-anchor="middle" opacity="0" stroke-opacity="0">CONN-TH_L6.3-W0.8-EST026</text>
<g class="stroked-text"><desc>CONN-TH_L6.3-W0.8-EST026</desc>
<path d="M0.9345 9.2078 L0.8869 9.2554 " />
<path d="M0.8869 9.2554 L0.7440 9.3031 " />
<path d="M0.7440 9.3031 L0.6488 9.3031 " />
<path d="M0.6488 9.3031 L0.5060 9.2554 " />
<path d="M0.5060 9.2554 L0.4107 9.1602 " />
<path d="M0.4107 9.1602 L0.3631 9.0650 " />
<path d="M0.3631 9.0650 L0.3155 8.8745 " />
<path d="M0.3155 8.8745 L0.3155 8.7316 " />
<path d="M0.3155 8.7316 L0.3631 8.5412 " />
<path d="M0.3631 8.5412 L0.4107 8.4459 " />
<path d="M0.4107 8.4459 L0.5060 8.3507 " />
<path d="M0.5060 8.3507 L0.6488 8.3031 " />
<path d="M0.6488 8.3031 L0.7440 8.3031 " />
<path d="M0.7440 8.3031 L0.8869 8.3507 " />
<path d="M0.8869 8.3507 L0.9345 8.3983 " />
<path d="M1.5536 8.3031 L1.7440 8.3031 " />
<path d="M1.7440 8.3031 L1.8393 8.3507 " />
<path d="M1.8393 8.3507 L1.9345 8.4459 " />
<path d="M1.9345 8.4459 L1.9821 8.6364 " />
<path d="M1.9821 8.6364 L1.9821 8.9697 " />
<path d="M1.9821 8.9697 L1.9345 9.1602 " />
<path d="M1.9345 9.1602 L1.8393 9.2554 " />
<path d="M1.8393 9.2554 L1.7440 9.3031 " />
<path d="M1.7440 9.3031 L1.5536 9.3031 " />
<path d="M1.5536 9.3031 L1.4583 9.2554 " />
<path d="M1.4583 9.2554 L1.3631 9.1602 " />
<path d="M1.3631 9.1602 L1.3155 8.9697 " />
<path d="M1.3155 8.9697 L1.3155 8.6364 " />
<path d="M1.3155 8.6364 L1.3631 8.4459 " />
<path d="M1.3631 8.4459 L1.4583 8.3507 " />
<path d="M1.4583 8.3507 L1.5536 8.3031 " />
<path d="M2.4107 9.3031 L2.4107 8.3031 " />
<path d="M2.4107 8.3031 L2.9821 9.3031 " />
<path d="M2.9821 9.3031 L2.9821 8.3031 " />
<path d="M3.4583 9.3031 L3.4583 8.3031 " />
<path d="M3.4583 8.3031 L4.0298 9.3031 " />
<path d="M4.0298 9.3031 L4.0298 8.3031 " />
<path d="M4.5060 8.9221 L5.2679 8.9221 " />
<path d="M5.6012 8.3031 L6.1726 8.3031 " />
<path d="M5.8869 9.3031 L5.8869 8.3031 " />
<path d="M6.5060 9.3031 L6.5060 8.3031 " />
<path d="M6.5060 8.7793 L7.0774 8.7793 " />
<path d="M7.0774 9.3031 L7.0774 8.3031 " />
<path d="M7.3155 9.3983 L8.0774 9.3983 " />
<path d="M8.7917 9.3031 L8.3155 9.3031 " />
<path d="M8.3155 9.3031 L8.3155 8.3031 " />
<path d="M9.5536 8.3031 L9.3631 8.3031 " />
<path d="M9.3631 8.3031 L9.2679 8.3507 " />
<path d="M9.2679 8.3507 L9.2202 8.3983 " />
<path d="M9.2202 8.3983 L9.1250 8.5412 " />
<path d="M9.1250 8.5412 L9.0774 8.7316 " />
<path d="M9.0774 8.7316 L9.0774 9.1126 " />
<path d="M9.0774 9.1126 L9.1250 9.2078 " />
<path d="M9.1250 9.2078 L9.1726 9.2554 " />
<path d="M9.1726 9.2554 L9.2679 9.3031 " />
<path d="M9.2679 9.3031 L9.4583 9.3031 " />
<path d="M9.4583 9.3031 L9.5536 9.2554 " />
<path d="M9.5536 9.2554 L9.6012 9.2078 " />
<path d="M9.6012 9.2078 L9.6488 9.1126 " />
<path d="M9.6488 9.1126 L9.6488 8.8745 " />
<path d="M9.6488 8.8745 L9.6012 8.7793 " />
<path d="M9.6012 8.7793 L9.5536 8.7316 " />
<path d="M9.5536 8.7316 L9.4583 8.6840 " />
<path d="M9.4583 8.6840 L9.2679 8.6840 " />
<path d="M9.2679 8.6840 L9.1726 8.7316 " />
<path d="M9.1726 8.7316 L9.1250 8.7793 " />
<path d="M9.1250 8.7793 L9.0774 8.8745 " />
<path d="M10.0774 9.2078 L10.1250 9.2554 " />
<path d="M10.1250 9.2554 L10.0774 9.3031 " />
<path d="M10.0774 9.3031 L10.0298 9.2554 " />
<path d="M10.0298 9.2554 L10.0774 9.2078 " />
<path d="M10.0774 9.2078 L10.0774 9.3031 " />
<path d="M10.4583 8.3031 L11.0774 8.3031 " />
<path d="M11.0774 8.3031 L10.7440 8.6840 " />
<path d="M10.7440 8.6840 L10.8869 8.6840 " />
<path d="M10.8869 8.6840 L10.9821 8.7316 " />
<path d="M10.9821 8.7316 L11.0298 8.7793 " />
<path d="M11.0298 8.7793 L11.0774 8.8745 " />
<path d="M11.0774 8.8745 L11.0774 9.1126 " />
<path d="M11.0774 9.1126 L11.0298 9.2078 " />
<path d="M11.0298 9.2078 L10.9821 9.2554 " />
<path d="M10.9821 9.2554 L10.8869 9.3031 " />
<path d="M10.8869 9.3031 L10.6012 9.3031 " />
<path d="M10.6012 9.3031 L10.5060 9.2554 " />
<path d="M10.5060 9.2554 L10.4583 9.2078 " />
<path d="M11.5060 8.9221 L12.2679 8.9221 " />
<path d="M12.6488 8.3031 L12.8869 9.3031 " />
<path d="M12.8869 9.3031 L13.0774 8.5888 " />
<path d="M13.0774 8.5888 L13.2679 9.3031 " />
<path d="M13.2679 9.3031 L13.5060 8.3031 " />
<path d="M14.0774 8.3031 L14.1726 8.3031 " />
<path d="M14.1726 8.3031 L14.2679 8.3507 " />
<path d="M14.2679 8.3507 L14.3155 8.3983 " />
<path d="M14.3155 8.3983 L14.3631 8.4935 " />
<path d="M14.3631 8.4935 L14.4107 8.6840 " />
<path d="M14.4107 8.6840 L14.4107 8.9221 " />
<path d="M14.4107 8.9221 L14.3631 9.1126 " />
<path d="M14.3631 9.1126 L14.3155 9.2078 " />
<path d="M14.3155 9.2078 L14.2679 9.2554 " />
<path d="M14.2679 9.2554 L14.1726 9.3031 " />
<path d="M14.1726 9.3031 L14.0774 9.3031 " />
<path d="M14.0774 9.3031 L13.9821 9.2554 " />
<path d="M13.9821 9.2554 L13.9345 9.2078 " />
<path d="M13.9345 9.2078 L13.8869 9.1126 " />
<path d="M13.8869 9.1126 L13.8393 8.9221 " />
<path d="M13.8393 8.9221 L13.8393 8.6840 " />
<path d="M13.8393 8.6840 L13.8869 8.4935 " />
<path d="M13.8869 8.4935 L13.9345 8.3983 " />
<path d="M13.9345 8.3983 L13.9821 8.3507 " />
<path d="M13.9821 8.3507 L14.0774 8.3031 " />
<path d="M14.8393 9.2078 L14.8869 9.2554 " />
<path d="M14.8869 9.2554 L14.8393 9.3031 " />
<path d="M14.8393 9.3031 L14.7917 9.2554 " />
<path d="M14.7917 9.2554 L14.8393 9.2078 " />
<path d="M14.8393 9.2078 L14.8393 9.3031 " />
<path d="M15.4583 8.7316 L15.3631 8.6840 " />
<path d="M15.3631 8.6840 L15.3155 8.6364 " />
<path d="M15.3155 8.6364 L15.2679 8.5412 " />
<path d="M15.2679 8.5412 L15.2679 8.4935 " />
<path d="M15.2679 8.4935 L15.3155 8.3983 " />
<path d="M15.3155 8.3983 L15.3631 8.3507 " />
<path d="M15.3631 8.3507 L15.4583 8.3031 " />
<path d="M15.4583 8.3031 L15.6488 8.3031 " />
<path d="M15.6488 8.3031 L15.7440 8.3507 " />
<path d="M15.7440 8.3507 L15.7917 8.3983 " />
<path d="M15.7917 8.3983 L15.8393 8.4935 " />
<path d="M15.8393 8.4935 L15.8393 8.5412 " />
<path d="M15.8393 8.5412 L15.7917 8.6364 " />
<path d="M15.7917 8.6364 L15.7440 8.6840 " />
<path d="M15.7440 8.6840 L15.6488 8.7316 " />
<path d="M15.6488 8.7316 L15.4583 8.7316 " />
<path d="M15.4583 8.7316 L15.3631 8.7793 " />
<path d="M15.3631 8.7793 L15.3155 8.8269 " />
<path d="M15.3155 8.8269 L15.2679 8.9221 " />
<path d="M15.2679 8.9221 L15.2679 9.1126 " />
<path d="M15.2679 9.1126 L15.3155 9.2078 " />
<path d="M15.3155 9.2078 L15.3631 9.2554 " />
<path d="M15.3631 9.2554 L15.4583 9.3031 " />
<path d="M15.4583 9.3031 L15.6488 9.3031 " />
<path d="M15.6488 9.3031 L15.7440 9.2554 " />
<path d="M15.7440 9.2554 L15.7917 9.2078 " />
<path d="M15.7917 9.2078 L15.8393 9.1126 " />
<path d="M15.8393 9.1126 L15.8393 8.9221 " />
<path d="M15.8393 8.9221 L15.7917 8.8269 " />
<path d="M15.7917 8.8269 L15.7440 8.7793 " />
<path d="M15.7440 8.7793 L15.6488 8.7316 " />
<path d="M16.2679 8.9221 L17.0298 8.9221 " />
<path d="M17.5060 8.7793 L17.8393 8.7793 " />
<path d="M17.9821 9.3031 L17.5060 9.3031 " />
<path d="M17.5060 9.3031 L17.5060 8.3031 " />
<path d="M17.5060 8.3031 L17.9821 8.3031 " />
<path d="M18.3631 9.2554 L18.5060 9.3031 " />
<path d="M18.5060 9.3031 L18.7440 9.3031 " />
<path d="M18.7440 9.3031 L18.8393 9.2554 " />
<path d="M18.8393 9.2554 L18.8869 9.2078 " />
<path d="M18.8869 9.2078 L18.9345 9.1126 " />
<path d="M18.9345 9.1126 L18.9345 9.0174 " />
<path d="M18.9345 9.0174 L18.8869 8.9221 " />
<path d="M18.8869 8.9221 L18.8393 8.8745 " />
<path d="M18.8393 8.8745 L18.7440 8.8269 " />
<path d="M18.7440 8.8269 L18.5536 8.7793 " />
<path d="M18.5536 8.7793 L18.4583 8.7316 " />
<path d="M18.4583 8.7316 L18.4107 8.6840 " />
<path d="M18.4107 8.6840 L18.3631 8.5888 " />
<path d="M18.3631 8.5888 L18.3631 8.4935 " />
<path d="M18.3631 8.4935 L18.4107 8.3983 " />
<path d="M18.4107 8.3983 L18.4583 8.3507 " />
<path d="M18.4583 8.3507 L18.5536 8.3031 " />
<path d="M18.5536 8.3031 L18.7917 8.3031 " />
<path d="M18.7917 8.3031 L18.9345 8.3507 " />
<path d="M19.2202 8.3031 L19.7917 8.3031 " />
<path d="M19.5060 9.3031 L19.5060 8.3031 " />
<path d="M20.3155 8.3031 L20.4107 8.3031 " />
<path d="M20.4107 8.3031 L20.5060 8.3507 " />
<path d="M20.5060 8.3507 L20.5536 8.3983 " />
<path d="M20.5536 8.3983 L20.6012 8.4935 " />
<path d="M20.6012 8.4935 L20.6488 8.6840 " />
<path d="M20.6488 8.6840 L20.6488 8.9221 " />
<path d="M20.6488 8.9221 L20.6012 9.1126 " />
<path d="M20.6012 9.1126 L20.5536 9.2078 " />
<path d="M20.5536 9.2078 L20.5060 9.2554 " />
<path d="M20.5060 9.2554 L20.4107 9.3031 " />
<path d="M20.4107 9.3031 L20.3155 9.3031 " />
<path d="M20.3155 9.3031 L20.2202 9.2554 " />
<path d="M20.2202 9.2554 L20.1726 9.2078 " />
<path d="M20.1726 9.2078 L20.1250 9.1126 " />
<path d="M20.1250 9.1126 L20.0774 8.9221 " />
<path d="M20.0774 8.9221 L20.0774 8.6840 " />
<path d="M20.0774 8.6840 L20.1250 8.4935 " />
<path d="M20.1250 8.4935 L20.1726 8.3983 " />
<path d="M20.1726 8.3983 L20.2202 8.3507 " />
<path d="M20.2202 8.3507 L20.3155 8.3031 " />
<path d="M21.0298 8.3983 L21.0774 8.3507 " />
<path d="M21.0774 8.3507 L21.1726 8.3031 " />
<path d="M21.1726 8.3031 L21.4107 8.3031 " />
<path d="M21.4107 8.3031 L21.5060 8.3507 " />
<path d="M21.5060 8.3507 L21.5536 8.3983 " />
<path d="M21.5536 8.3983 L21.6012 8.4935 " />
<path d="M21.6012 8.4935 L21.6012 8.5888 " />
<path d="M21.6012 8.5888 L21.5536 8.7316 " />
<path d="M21.5536 8.7316 L20.9821 9.3031 " />
<path d="M20.9821 9.3031 L21.6012 9.3031 " />
<path d="M22.4583 8.3031 L22.2679 8.3031 " />
<path d="M22.2679 8.3031 L22.1726 8.3507 " />
<path d="M22.1726 8.3507 L22.1250 8.3983 " />
<path d="M22.1250 8.3983 L22.0298 8.5412 " />
<path d="M22.0298 8.5412 L21.9821 8.7316 " />
<path d="M21.9821 8.7316 L21.9821 9.1126 " />
<path d="M21.9821 9.1126 L22.0298 9.2078 " />
<path d="M22.0298 9.2078 L22.0774 9.2554 " />
<path d="M22.0774 9.2554 L22.1726 9.3031 " />
<path d="M22.1726 9.3031 L22.3631 9.3031 " />
<path d="M22.3631 9.3031 L22.4583 9.2554 " />
<path d="M22.4583 9.2554 L22.5060 9.2078 " />
<path d="M22.5060 9.2078 L22.5536 9.1126 " />
<path d="M22.5536 9.1126 L22.5536 8.8745 " />
<path d="M22.5536 8.8745 L22.5060 8.7793 " />
<path d="M22.5060 8.7793 L22.4583 8.7316 " />
<path d="M22.4583 8.7316 L22.3631 8.6840 " />
<path d="M22.3631 8.6840 L22.1726 8.6840 " />
<path d="M22.1726 8.6840 L22.0774 8.7316 " />
<path d="M22.0774 8.7316 L22.0298 8.7793 " />
<path d="M22.0298 8.7793 L21.9821 8.8745 " />
</g></g>
<g style="fill:none;  stroke:#000000; stroke-width:0.0600; stroke-opacity:1;  stroke-linecap:round; stroke-linejoin:round;">
<circle cx="7.2645" cy="5.8483" r="0.0300" /> 
</g> 
</svg>