<?xml version='1.0' encoding='utf-8'?>
<svg xmlns="http://www.w3.org/2000/svg" version="1.1" width="23.0886mm" height="9.6774mm" viewBox="0.0000 0.0000 23.0886 9.6774">
<title>SVG Image created as D-FLAT_L4.3-W2.6-LS5.3-RD.svg date 2026/01/09 08:17:46 </title>
  <desc>Image generated by PCBNEW </desc>
<g style="fill:#000000; fill-opacity:1.0000;stroke:#000000; stroke-opacity:1.0000; stroke-linecap:round; stroke-linejoin:round;" transform="translate(0 0) scale(1 1)">
<path style="fill:#000000; fill-opacity:1.0000; stroke:none;fill-rule:evenodd;" d="M 12.9336,3.8982 14.8336,3.8982 14.8336,5.7982 12.9336,5.7982 Z" /> 
<path style="fill:#000000; fill-opacity:1.0000; stroke:none;fill-rule:evenodd;" d="M 8.2736,3.8982 10.1736,3.8982 10.1736,5.7982 8.2736,5.7982 Z" /> 
<path style="fill:#000000; fill-opacity:1.0000; stroke:none;fill-rule:evenodd;" d="M 12.9336,3.8982 14.8336,3.8982 14.8336,5.7982 12.9336,5.7982 Z" /> 
<path style="fill:#000000; fill-opacity:1.0000; stroke:none;fill-rule:evenodd;" d="M 8.2736,3.8982 10.1736,3.8982 10.1736,5.7982 8.2736,5.7982 Z" /> 
<path style="fill:#000000; fill-opacity:1.0000; stroke:none;fill-rule:evenodd;" d="M 12.9336,3.8982 14.8336,3.8982 14.8336,5.7982 12.9336,5.7982 Z" /> 
<path style="fill:#000000; fill-opacity:1.0000; stroke:none;fill-rule:evenodd;" d="M 8.2736,3.8982 10.1736,3.8982 10.1736,5.7982 8.2736,5.7982 Z" /> 
</g>
<g style="fill:none;  stroke:#000000; stroke-width:0.1500; stroke-opacity:1;  stroke-linecap:round; stroke-linejoin:round;">
</g>
<g style="fill:none;  stroke:#000000; stroke-width:0.2500; stroke-opacity:1;  stroke-linecap:round; stroke-linejoin:round;">
<path d="M9.2536 3.3482 L13.8536 3.3482 " />
<path d="M11.3036 4.8483 L12.0636 5.6082 " />
<path d="M12.0636 5.6082 L12.0636 4.0882 " />
<path d="M12.0636 4.0882 L11.3036 4.8483 " />
<path d="M11.3036 5.6082 L11.3036 4.0882 " />
<path d="M12.8236 4.8483 L10.5336 4.8483 " />
<path d="M13.8536 6.3482 L9.2536 6.3482 " />
<path d="M9.2536 3.3482 L9.2536 3.6683 " />
<path d="M9.2536 6.0282 L9.2536 6.3482 " />
<path d="M13.8536 3.3482 L13.8536 3.6683 " />
<path d="M13.8536 6.0282 L13.8536 6.3482 " />
</g>
<g style="fill:none;  stroke:#000000; stroke-width:0.1500; stroke-opacity:1;  stroke-linecap:round; stroke-linejoin:round;">
<text x="11.5536" y="9.3483" textLength="23.1071" font-size="1.3333" lengthAdjust="spacingAndGlyphs" text-anchor="middle" opacity="0" stroke-opacity="0">D-FLAT_L4.3-W2.6-LS5.3-RD</text>
<g class="stroked-text"><desc>D-FLAT_L4.3-W2.6-LS5.3-RD</desc>
<path d="M0.3631 9.3031 L0.3631 8.3031 " />
<path d="M0.3631 8.3031 L0.6012 8.3031 " />
<path d="M0.6012 8.3031 L0.7440 8.3507 " />
<path d="M0.7440 8.3507 L0.8393 8.4459 " />
<path d="M0.8393 8.4459 L0.8869 8.5412 " />
<path d="M0.8869 8.5412 L0.9345 8.7316 " />
<path d="M0.9345 8.7316 L0.9345 8.8745 " />
<path d="M0.9345 8.8745 L0.8869 9.0650 " />
<path d="M0.8869 9.0650 L0.8393 9.1602 " />
<path d="M0.8393 9.1602 L0.7440 9.2554 " />
<path d="M0.7440 9.2554 L0.6012 9.3031 " />
<path d="M0.6012 9.3031 L0.3631 9.3031 " />
<path d="M1.3631 8.9221 L2.1250 8.9221 " />
<path d="M2.9345 8.7793 L2.6012 8.7793 " />
<path d="M2.6012 9.3031 L2.6012 8.3031 " />
<path d="M2.6012 8.3031 L3.0774 8.3031 " />
<path d="M3.9345 9.3031 L3.4583 9.3031 " />
<path d="M3.4583 9.3031 L3.4583 8.3031 " />
<path d="M4.2202 9.0174 L4.6964 9.0174 " />
<path d="M4.1250 9.3031 L4.4583 8.3031 " />
<path d="M4.4583 8.3031 L4.7917 9.3031 " />
<path d="M4.9821 8.3031 L5.5536 8.3031 " />
<path d="M5.2679 9.3031 L5.2679 8.3031 " />
<path d="M5.6488 9.3983 L6.4107 9.3983 " />
<path d="M7.1250 9.3031 L6.6488 9.3031 " />
<path d="M6.6488 9.3031 L6.6488 8.3031 " />
<path d="M7.8869 8.6364 L7.8869 9.3031 " />
<path d="M7.6488 8.2554 L7.4107 8.9697 " />
<path d="M7.4107 8.9697 L8.0298 8.9697 " />
<path d="M8.4107 9.2078 L8.4583 9.2554 " />
<path d="M8.4583 9.2554 L8.4107 9.3031 " />
<path d="M8.4107 9.3031 L8.3631 9.2554 " />
<path d="M8.3631 9.2554 L8.4107 9.2078 " />
<path d="M8.4107 9.2078 L8.4107 9.3031 " />
<path d="M8.7917 8.3031 L9.4107 8.3031 " />
<path d="M9.4107 8.3031 L9.0774 8.6840 " />
<path d="M9.0774 8.6840 L9.2202 8.6840 " />
<path d="M9.2202 8.6840 L9.3155 8.7316 " />
<path d="M9.3155 8.7316 L9.3631 8.7793 " />
<path d="M9.3631 8.7793 L9.4107 8.8745 " />
<path d="M9.4107 8.8745 L9.4107 9.1126 " />
<path d="M9.4107 9.1126 L9.3631 9.2078 " />
<path d="M9.3631 9.2078 L9.3155 9.2554 " />
<path d="M9.3155 9.2554 L9.2202 9.3031 " />
<path d="M9.2202 9.3031 L8.9345 9.3031 " />
<path d="M8.9345 9.3031 L8.8393 9.2554 " />
<path d="M8.8393 9.2554 L8.7917 9.2078 " />
<path d="M9.8393 8.9221 L10.6012 8.9221 " />
<path d="M10.9821 8.3031 L11.2202 9.3031 " />
<path d="M11.2202 9.3031 L11.4107 8.5888 " />
<path d="M11.4107 8.5888 L11.6012 9.3031 " />
<path d="M11.6012 9.3031 L11.8393 8.3031 " />
<path d="M12.1726 8.3983 L12.2202 8.3507 " />
<path d="M12.2202 8.3507 L12.3155 8.3031 " />
<path d="M12.3155 8.3031 L12.5536 8.3031 " />
<path d="M12.5536 8.3031 L12.6488 8.3507 " />
<path d="M12.6488 8.3507 L12.6964 8.3983 " />
<path d="M12.6964 8.3983 L12.7440 8.4935 " />
<path d="M12.7440 8.4935 L12.7440 8.5888 " />
<path d="M12.7440 8.5888 L12.6964 8.7316 " />
<path d="M12.6964 8.7316 L12.1250 9.3031 " />
<path d="M12.1250 9.3031 L12.7440 9.3031 " />
<path d="M13.1726 9.2078 L13.2202 9.2554 " />
<path d="M13.2202 9.2554 L13.1726 9.3031 " />
<path d="M13.1726 9.3031 L13.1250 9.2554 " />
<path d="M13.1250 9.2554 L13.1726 9.2078 " />
<path d="M13.1726 9.2078 L13.1726 9.3031 " />
<path d="M14.0774 8.3031 L13.8869 8.3031 " />
<path d="M13.8869 8.3031 L13.7917 8.3507 " />
<path d="M13.7917 8.3507 L13.7440 8.3983 " />
<path d="M13.7440 8.3983 L13.6488 8.5412 " />
<path d="M13.6488 8.5412 L13.6012 8.7316 " />
<path d="M13.6012 8.7316 L13.6012 9.1126 " />
<path d="M13.6012 9.1126 L13.6488 9.2078 " />
<path d="M13.6488 9.2078 L13.6964 9.2554 " />
<path d="M13.6964 9.2554 L13.7917 9.3031 " />
<path d="M13.7917 9.3031 L13.9821 9.3031 " />
<path d="M13.9821 9.3031 L14.0774 9.2554 " />
<path d="M14.0774 9.2554 L14.1250 9.2078 " />
<path d="M14.1250 9.2078 L14.1726 9.1126 " />
<path d="M14.1726 9.1126 L14.1726 8.8745 " />
<path d="M14.1726 8.8745 L14.1250 8.7793 " />
<path d="M14.1250 8.7793 L14.0774 8.7316 " />
<path d="M14.0774 8.7316 L13.9821 8.6840 " />
<path d="M13.9821 8.6840 L13.7917 8.6840 " />
<path d="M13.7917 8.6840 L13.6964 8.7316 " />
<path d="M13.6964 8.7316 L13.6488 8.7793 " />
<path d="M13.6488 8.7793 L13.6012 8.8745 " />
<path d="M14.6012 8.9221 L15.3631 8.9221 " />
<path d="M16.3155 9.3031 L15.8393 9.3031 " />
<path d="M15.8393 9.3031 L15.8393 8.3031 " />
<path d="M16.6012 9.2554 L16.7440 9.3031 " />
<path d="M16.7440 9.3031 L16.9821 9.3031 " />
<path d="M16.9821 9.3031 L17.0774 9.2554 " />
<path d="M17.0774 9.2554 L17.1250 9.2078 " />
<path d="M17.1250 9.2078 L17.1726 9.1126 " />
<path d="M17.1726 9.1126 L17.1726 9.0174 " />
<path d="M17.1726 9.0174 L17.1250 8.9221 " />
<path d="M17.1250 8.9221 L17.0774 8.8745 " />
<path d="M17.0774 8.8745 L16.9821 8.8269 " />
<path d="M16.9821 8.8269 L16.7917 8.7793 " />
<path d="M16.7917 8.7793 L16.6964 8.7316 " />
<path d="M16.6964 8.7316 L16.6488 8.6840 " />
<path d="M16.6488 8.6840 L16.6012 8.5888 " />
<path d="M16.6012 8.5888 L16.6012 8.4935 " />
<path d="M16.6012 8.4935 L16.6488 8.3983 " />
<path d="M16.6488 8.3983 L16.6964 8.3507 " />
<path d="M16.6964 8.3507 L16.7917 8.3031 " />
<path d="M16.7917 8.3031 L17.0298 8.3031 " />
<path d="M17.0298 8.3031 L17.1726 8.3507 " />
<path d="M18.0774 8.3031 L17.6012 8.3031 " />
<path d="M17.6012 8.3031 L17.5536 8.7793 " />
<path d="M17.5536 8.7793 L17.6012 8.7316 " />
<path d="M17.6012 8.7316 L17.6964 8.6840 " />
<path d="M17.6964 8.6840 L17.9345 8.6840 " />
<path d="M17.9345 8.6840 L18.0298 8.7316 " />
<path d="M18.0298 8.7316 L18.0774 8.7793 " />
<path d="M18.0774 8.7793 L18.1250 8.8745 " />
<path d="M18.1250 8.8745 L18.1250 9.1126 " />
<path d="M18.1250 9.1126 L18.0774 9.2078 " />
<path d="M18.0774 9.2078 L18.0298 9.2554 " />
<path d="M18.0298 9.2554 L17.9345 9.3031 " />
<path d="M17.9345 9.3031 L17.6964 9.3031 " />
<path d="M17.6964 9.3031 L17.6012 9.2554 " />
<path d="M17.6012 9.2554 L17.5536 9.2078 " />
<path d="M18.5536 9.2078 L18.6012 9.2554 " />
<path d="M18.6012 9.2554 L18.5536 9.3031 " />
<path d="M18.5536 9.3031 L18.5060 9.2554 " />
<path d="M18.5060 9.2554 L18.5536 9.2078 " />
<path d="M18.5536 9.2078 L18.5536 9.3031 " />
<path d="M18.9345 8.3031 L19.5536 8.3031 " />
<path d="M19.5536 8.3031 L19.2202 8.6840 " />
<path d="M19.2202 8.6840 L19.3631 8.6840 " />
<path d="M19.3631 8.6840 L19.4583 8.7316 " />
<path d="M19.4583 8.7316 L19.5060 8.7793 " />
<path d="M19.5060 8.7793 L19.5536 8.8745 " />
<path d="M19.5536 8.8745 L19.5536 9.1126 " />
<path d="M19.5536 9.1126 L19.5060 9.2078 " />
<path d="M19.5060 9.2078 L19.4583 9.2554 " />
<path d="M19.4583 9.2554 L19.3631 9.3031 " />
<path d="M19.3631 9.3031 L19.0774 9.3031 " />
<path d="M19.0774 9.3031 L18.9821 9.2554 " />
<path d="M18.9821 9.2554 L18.9345 9.2078 " />
<path d="M19.9821 8.9221 L20.7440 8.9221 " />
<path d="M21.7917 9.3031 L21.4583 8.8269 " />
<path d="M21.2202 9.3031 L21.2202 8.3031 " />
<path d="M21.2202 8.3031 L21.6012 8.3031 " />
<path d="M21.6012 8.3031 L21.6964 8.3507 " />
<path d="M21.6964 8.3507 L21.7440 8.3983 " />
<path d="M21.7440 8.3983 L21.7917 8.4935 " />
<path d="M21.7917 8.4935 L21.7917 8.6364 " />
<path d="M21.7917 8.6364 L21.7440 8.7316 " />
<path d="M21.7440 8.7316 L21.6964 8.7793 " />
<path d="M21.6964 8.7793 L21.6012 8.8269 " />
<path d="M21.6012 8.8269 L21.2202 8.8269 " />
<path d="M22.2202 9.3031 L22.2202 8.3031 " />
<path d="M22.2202 8.3031 L22.4583 8.3031 " />
<path d="M22.4583 8.3031 L22.6012 8.3507 " />
<path d="M22.6012 8.3507 L22.6964 8.4459 " />
<path d="M22.6964 8.4459 L22.7440 8.5412 " />
<path d="M22.7440 8.5412 L22.7917 8.7316 " />
<path d="M22.7917 8.7316 L22.7917 8.8745 " />
<path d="M22.7917 8.8745 L22.7440 9.0650 " />
<path d="M22.7440 9.0650 L22.6964 9.1602 " />
<path d="M22.6964 9.1602 L22.6012 9.2554 " />
<path d="M22.6012 9.2554 L22.4583 9.3031 " />
<path d="M22.4583 9.3031 L22.2202 9.3031 " />
</g></g>
<g style="fill:none;  stroke:#000000; stroke-width:0.0600; stroke-opacity:1;  stroke-linecap:round; stroke-linejoin:round;">
<circle cx="8.9336" cy="6.1482" r="0.0300" /> 
</g> 
</svg>