<?xml version='1.0' encoding='utf-8'?>
<svg xmlns="http://www.w3.org/2000/svg" version="1.1" width="25.5778mm" height="9.6774mm" viewBox="0.0000 0.0000 25.5778 9.6774">
<title>SVG Image created as DO-214AC_L4.3-W2.7-LS5.0-RD.svg date 2026/01/09 08:17:46 </title>
  <desc>Image generated by PCBNEW </desc>
<g style="fill:#000000; fill-opacity:1.0000;stroke:#000000; stroke-opacity:1.0000; stroke-linecap:round; stroke-linejoin:round;" transform="translate(0 0) scale(1 1)">
<path style="fill:#000000; fill-opacity:1.0000; stroke:none;fill-rule:evenodd;" d="M 11.8967,3.8182 11.8967,5.8782 9.8267,5.8782 9.8267,3.8182 Z" /> 
<path style="fill:#000000; fill-opacity:1.0000; stroke:none;fill-rule:evenodd;" d="M 15.7567,3.8182 15.7567,5.8782 13.6867,5.8782 13.6867,3.8182 Z" /> 
<path style="fill:#000000; fill-opacity:1.0000; stroke:none;fill-rule:evenodd;" d="M 11.8967,3.8182 11.8967,5.8782 9.8267,5.8782 9.8267,3.8182 Z" /> 
<path style="fill:#000000; fill-opacity:1.0000; stroke:none;fill-rule:evenodd;" d="M 15.7567,3.8182 15.7567,5.8782 13.6867,5.8782 13.6867,3.8182 Z" /> 
<path style="fill:#000000; fill-opacity:1.0000; stroke:none;fill-rule:evenodd;" d="M 11.8967,3.8182 11.8967,5.8782 9.8267,5.8782 9.8267,3.8182 Z" /> 
<path style="fill:#000000; fill-opacity:1.0000; stroke:none;fill-rule:evenodd;" d="M 15.7567,3.8182 15.7567,5.8782 13.6867,5.8782 13.6867,3.8182 Z" /> 
</g>
<g style="fill:none;  stroke:#000000; stroke-width:0.1500; stroke-opacity:1;  stroke-linecap:round; stroke-linejoin:round;">
<path d="M14.9317 3.5382 L14.9317 3.5882 " />
<path d="M14.9317 3.5882 L14.9317 3.6782 " />
<path d="M10.6617 3.4982 L14.9117 3.4882 " />
<path d="M14.9117 6.0282 L14.9117 6.0782 " />
<path d="M14.9217 6.0982 L14.9217 6.1883 " />
<path d="M10.6617 6.1982 L14.9017 6.1883 " />
</g>
<g style="fill:none;  stroke:#000000; stroke-width:0.1300; stroke-opacity:1;  stroke-linecap:round; stroke-linejoin:round;">
<path d="M13.5317 4.8582 L12.2617 4.8582 " />
<path d="M13.2817 4.4682 L12.5217 4.8582 " />
<path d="M12.5217 4.8582 L12.5217 5.2382 " />
<path d="M13.2817 5.2382 L12.5217 4.8582 " />
<path d="M13.2817 4.8582 L13.2817 5.2382 " />
<path d="M12.5217 4.8582 L12.5217 4.4682 " />
<path d="M13.2817 4.8582 L13.2817 4.4682 " />
</g>
<g style="fill:none;  stroke:#000000; stroke-width:0.1500; stroke-opacity:1;  stroke-linecap:round; stroke-linejoin:round;">
<path d="M12.1017 3.4982 L12.1017 6.1982 " />
<text x="12.7917" y="9.3483" textLength="25.5833" font-size="1.3333" lengthAdjust="spacingAndGlyphs" text-anchor="middle" opacity="0" stroke-opacity="0">DO-214AC_L4.3-W2.7-LS5.0-RD</text>
<g class="stroked-text"><desc>DO-214AC_L4.3-W2.7-LS5.0-RD</desc>
<path d="M0.3631 9.3031 L0.3631 8.3031 " />
<path d="M0.3631 8.3031 L0.6012 8.3031 " />
<path d="M0.6012 8.3031 L0.7440 8.3507 " />
<path d="M0.7440 8.3507 L0.8393 8.4459 " />
<path d="M0.8393 8.4459 L0.8869 8.5412 " />
<path d="M0.8869 8.5412 L0.9345 8.7316 " />
<path d="M0.9345 8.7316 L0.9345 8.8745 " />
<path d="M0.9345 8.8745 L0.8869 9.0650 " />
<path d="M0.8869 9.0650 L0.8393 9.1602 " />
<path d="M0.8393 9.1602 L0.7440 9.2554 " />
<path d="M0.7440 9.2554 L0.6012 9.3031 " />
<path d="M0.6012 9.3031 L0.3631 9.3031 " />
<path d="M1.5536 8.3031 L1.7440 8.3031 " />
<path d="M1.7440 8.3031 L1.8393 8.3507 " />
<path d="M1.8393 8.3507 L1.9345 8.4459 " />
<path d="M1.9345 8.4459 L1.9821 8.6364 " />
<path d="M1.9821 8.6364 L1.9821 8.9697 " />
<path d="M1.9821 8.9697 L1.9345 9.1602 " />
<path d="M1.9345 9.1602 L1.8393 9.2554 " />
<path d="M1.8393 9.2554 L1.7440 9.3031 " />
<path d="M1.7440 9.3031 L1.5536 9.3031 " />
<path d="M1.5536 9.3031 L1.4583 9.2554 " />
<path d="M1.4583 9.2554 L1.3631 9.1602 " />
<path d="M1.3631 9.1602 L1.3155 8.9697 " />
<path d="M1.3155 8.9697 L1.3155 8.6364 " />
<path d="M1.3155 8.6364 L1.3631 8.4459 " />
<path d="M1.3631 8.4459 L1.4583 8.3507 " />
<path d="M1.4583 8.3507 L1.5536 8.3031 " />
<path d="M2.4107 8.9221 L3.1726 8.9221 " />
<path d="M3.6012 8.3983 L3.6488 8.3507 " />
<path d="M3.6488 8.3507 L3.7440 8.3031 " />
<path d="M3.7440 8.3031 L3.9821 8.3031 " />
<path d="M3.9821 8.3031 L4.0774 8.3507 " />
<path d="M4.0774 8.3507 L4.1250 8.3983 " />
<path d="M4.1250 8.3983 L4.1726 8.4935 " />
<path d="M4.1726 8.4935 L4.1726 8.5888 " />
<path d="M4.1726 8.5888 L4.1250 8.7316 " />
<path d="M4.1250 8.7316 L3.5536 9.3031 " />
<path d="M3.5536 9.3031 L4.1726 9.3031 " />
<path d="M5.1250 9.3031 L4.5536 9.3031 " />
<path d="M4.8393 9.3031 L4.8393 8.3031 " />
<path d="M4.8393 8.3031 L4.7440 8.4459 " />
<path d="M4.7440 8.4459 L4.6488 8.5412 " />
<path d="M4.6488 8.5412 L4.5536 8.5888 " />
<path d="M5.9821 8.6364 L5.9821 9.3031 " />
<path d="M5.7440 8.2554 L5.5060 8.9697 " />
<path d="M5.5060 8.9697 L6.1250 8.9697 " />
<path d="M6.4583 9.0174 L6.9345 9.0174 " />
<path d="M6.3631 9.3031 L6.6964 8.3031 " />
<path d="M6.6964 8.3031 L7.0298 9.3031 " />
<path d="M7.9345 9.2078 L7.8869 9.2554 " />
<path d="M7.8869 9.2554 L7.7440 9.3031 " />
<path d="M7.7440 9.3031 L7.6488 9.3031 " />
<path d="M7.6488 9.3031 L7.5060 9.2554 " />
<path d="M7.5060 9.2554 L7.4107 9.1602 " />
<path d="M7.4107 9.1602 L7.3631 9.0650 " />
<path d="M7.3631 9.0650 L7.3155 8.8745 " />
<path d="M7.3155 8.8745 L7.3155 8.7316 " />
<path d="M7.3155 8.7316 L7.3631 8.5412 " />
<path d="M7.3631 8.5412 L7.4107 8.4459 " />
<path d="M7.4107 8.4459 L7.5060 8.3507 " />
<path d="M7.5060 8.3507 L7.6488 8.3031 " />
<path d="M7.6488 8.3031 L7.7440 8.3031 " />
<path d="M7.7440 8.3031 L7.8869 8.3507 " />
<path d="M7.8869 8.3507 L7.9345 8.3983 " />
<path d="M8.1250 9.3983 L8.8869 9.3983 " />
<path d="M9.6012 9.3031 L9.1250 9.3031 " />
<path d="M9.1250 9.3031 L9.1250 8.3031 " />
<path d="M10.3631 8.6364 L10.3631 9.3031 " />
<path d="M10.1250 8.2554 L9.8869 8.9697 " />
<path d="M9.8869 8.9697 L10.5060 8.9697 " />
<path d="M10.8869 9.2078 L10.9345 9.2554 " />
<path d="M10.9345 9.2554 L10.8869 9.3031 " />
<path d="M10.8869 9.3031 L10.8393 9.2554 " />
<path d="M10.8393 9.2554 L10.8869 9.2078 " />
<path d="M10.8869 9.2078 L10.8869 9.3031 " />
<path d="M11.2679 8.3031 L11.8869 8.3031 " />
<path d="M11.8869 8.3031 L11.5536 8.6840 " />
<path d="M11.5536 8.6840 L11.6964 8.6840 " />
<path d="M11.6964 8.6840 L11.7917 8.7316 " />
<path d="M11.7917 8.7316 L11.8393 8.7793 " />
<path d="M11.8393 8.7793 L11.8869 8.8745 " />
<path d="M11.8869 8.8745 L11.8869 9.1126 " />
<path d="M11.8869 9.1126 L11.8393 9.2078 " />
<path d="M11.8393 9.2078 L11.7917 9.2554 " />
<path d="M11.7917 9.2554 L11.6964 9.3031 " />
<path d="M11.6964 9.3031 L11.4107 9.3031 " />
<path d="M11.4107 9.3031 L11.3155 9.2554 " />
<path d="M11.3155 9.2554 L11.2679 9.2078 " />
<path d="M12.3155 8.9221 L13.0774 8.9221 " />
<path d="M13.4583 8.3031 L13.6964 9.3031 " />
<path d="M13.6964 9.3031 L13.8869 8.5888 " />
<path d="M13.8869 8.5888 L14.0774 9.3031 " />
<path d="M14.0774 9.3031 L14.3155 8.3031 " />
<path d="M14.6488 8.3983 L14.6964 8.3507 " />
<path d="M14.6964 8.3507 L14.7917 8.3031 " />
<path d="M14.7917 8.3031 L15.0298 8.3031 " />
<path d="M15.0298 8.3031 L15.1250 8.3507 " />
<path d="M15.1250 8.3507 L15.1726 8.3983 " />
<path d="M15.1726 8.3983 L15.2202 8.4935 " />
<path d="M15.2202 8.4935 L15.2202 8.5888 " />
<path d="M15.2202 8.5888 L15.1726 8.7316 " />
<path d="M15.1726 8.7316 L14.6012 9.3031 " />
<path d="M14.6012 9.3031 L15.2202 9.3031 " />
<path d="M15.6488 9.2078 L15.6964 9.2554 " />
<path d="M15.6964 9.2554 L15.6488 9.3031 " />
<path d="M15.6488 9.3031 L15.6012 9.2554 " />
<path d="M15.6012 9.2554 L15.6488 9.2078 " />
<path d="M15.6488 9.2078 L15.6488 9.3031 " />
<path d="M16.0298 8.3031 L16.6964 8.3031 " />
<path d="M16.6964 8.3031 L16.2679 9.3031 " />
<path d="M17.0774 8.9221 L17.8393 8.9221 " />
<path d="M18.7917 9.3031 L18.3155 9.3031 " />
<path d="M18.3155 9.3031 L18.3155 8.3031 " />
<path d="M19.0774 9.2554 L19.2202 9.3031 " />
<path d="M19.2202 9.3031 L19.4583 9.3031 " />
<path d="M19.4583 9.3031 L19.5536 9.2554 " />
<path d="M19.5536 9.2554 L19.6012 9.2078 " />
<path d="M19.6012 9.2078 L19.6488 9.1126 " />
<path d="M19.6488 9.1126 L19.6488 9.0174 " />
<path d="M19.6488 9.0174 L19.6012 8.9221 " />
<path d="M19.6012 8.9221 L19.5536 8.8745 " />
<path d="M19.5536 8.8745 L19.4583 8.8269 " />
<path d="M19.4583 8.8269 L19.2679 8.7793 " />
<path d="M19.2679 8.7793 L19.1726 8.7316 " />
<path d="M19.1726 8.7316 L19.1250 8.6840 " />
<path d="M19.1250 8.6840 L19.0774 8.5888 " />
<path d="M19.0774 8.5888 L19.0774 8.4935 " />
<path d="M19.0774 8.4935 L19.1250 8.3983 " />
<path d="M19.1250 8.3983 L19.1726 8.3507 " />
<path d="M19.1726 8.3507 L19.2679 8.3031 " />
<path d="M19.2679 8.3031 L19.5060 8.3031 " />
<path d="M19.5060 8.3031 L19.6488 8.3507 " />
<path d="M20.5536 8.3031 L20.0774 8.3031 " />
<path d="M20.0774 8.3031 L20.0298 8.7793 " />
<path d="M20.0298 8.7793 L20.0774 8.7316 " />
<path d="M20.0774 8.7316 L20.1726 8.6840 " />
<path d="M20.1726 8.6840 L20.4107 8.6840 " />
<path d="M20.4107 8.6840 L20.5060 8.7316 " />
<path d="M20.5060 8.7316 L20.5536 8.7793 " />
<path d="M20.5536 8.7793 L20.6012 8.8745 " />
<path d="M20.6012 8.8745 L20.6012 9.1126 " />
<path d="M20.6012 9.1126 L20.5536 9.2078 " />
<path d="M20.5536 9.2078 L20.5060 9.2554 " />
<path d="M20.5060 9.2554 L20.4107 9.3031 " />
<path d="M20.4107 9.3031 L20.1726 9.3031 " />
<path d="M20.1726 9.3031 L20.0774 9.2554 " />
<path d="M20.0774 9.2554 L20.0298 9.2078 " />
<path d="M21.0298 9.2078 L21.0774 9.2554 " />
<path d="M21.0774 9.2554 L21.0298 9.3031 " />
<path d="M21.0298 9.3031 L20.9821 9.2554 " />
<path d="M20.9821 9.2554 L21.0298 9.2078 " />
<path d="M21.0298 9.2078 L21.0298 9.3031 " />
<path d="M21.6964 8.3031 L21.7917 8.3031 " />
<path d="M21.7917 8.3031 L21.8869 8.3507 " />
<path d="M21.8869 8.3507 L21.9345 8.3983 " />
<path d="M21.9345 8.3983 L21.9821 8.4935 " />
<path d="M21.9821 8.4935 L22.0298 8.6840 " />
<path d="M22.0298 8.6840 L22.0298 8.9221 " />
<path d="M22.0298 8.9221 L21.9821 9.1126 " />
<path d="M21.9821 9.1126 L21.9345 9.2078 " />
<path d="M21.9345 9.2078 L21.8869 9.2554 " />
<path d="M21.8869 9.2554 L21.7917 9.3031 " />
<path d="M21.7917 9.3031 L21.6964 9.3031 " />
<path d="M21.6964 9.3031 L21.6012 9.2554 " />
<path d="M21.6012 9.2554 L21.5536 9.2078 " />
<path d="M21.5536 9.2078 L21.5060 9.1126 " />
<path d="M21.5060 9.1126 L21.4583 8.9221 " />
<path d="M21.4583 8.9221 L21.4583 8.6840 " />
<path d="M21.4583 8.6840 L21.5060 8.4935 " />
<path d="M21.5060 8.4935 L21.5536 8.3983 " />
<path d="M21.5536 8.3983 L21.6012 8.3507 " />
<path d="M21.6012 8.3507 L21.6964 8.3031 " />
<path d="M22.4583 8.9221 L23.2202 8.9221 " />
<path d="M24.2679 9.3031 L23.9345 8.8269 " />
<path d="M23.6964 9.3031 L23.6964 8.3031 " />
<path d="M23.6964 8.3031 L24.0774 8.3031 " />
<path d="M24.0774 8.3031 L24.1726 8.3507 " />
<path d="M24.1726 8.3507 L24.2202 8.3983 " />
<path d="M24.2202 8.3983 L24.2679 8.4935 " />
<path d="M24.2679 8.4935 L24.2679 8.6364 " />
<path d="M24.2679 8.6364 L24.2202 8.7316 " />
<path d="M24.2202 8.7316 L24.1726 8.7793 " />
<path d="M24.1726 8.7793 L24.0774 8.8269 " />
<path d="M24.0774 8.8269 L23.6964 8.8269 " />
<path d="M24.6964 9.3031 L24.6964 8.3031 " />
<path d="M24.6964 8.3031 L24.9345 8.3031 " />
<path d="M24.9345 8.3031 L25.0774 8.3507 " />
<path d="M25.0774 8.3507 L25.1726 8.4459 " />
<path d="M25.1726 8.4459 L25.2202 8.5412 " />
<path d="M25.2202 8.5412 L25.2679 8.7316 " />
<path d="M25.2679 8.7316 L25.2679 8.8745 " />
<path d="M25.2679 8.8745 L25.2202 9.0650 " />
<path d="M25.2202 9.0650 L25.1726 9.1602 " />
<path d="M25.1726 9.1602 L25.0774 9.2554 " />
<path d="M25.0774 9.2554 L24.9345 9.3031 " />
<path d="M24.9345 9.3031 L24.6964 9.3031 " />
</g></g>
<g style="fill:none;  stroke:#000000; stroke-width:0.0600; stroke-opacity:1;  stroke-linecap:round; stroke-linejoin:round;">
<circle cx="10.2917" cy="6.1982" r="0.0300" /> 
</g> 
</svg>