<?xml version='1.0' encoding='utf-8'?>
<svg xmlns="http://www.w3.org/2000/svg" version="1.1" width="18.0086mm" height="9.6774mm" viewBox="0.0000 0.0000 18.0086 9.6774">
<title>SVG Image created as FUSE-SMD_L10.1-W3.1.svg date 2026/01/09 08:17:46 </title>
  <desc>Image generated by PCBNEW </desc>
<g style="fill:#000000; fill-opacity:1.0000;stroke:#000000; stroke-opacity:1.0000; stroke-linecap:round; stroke-linejoin:round;" transform="translate(0 0) scale(1 1)">
<path style="fill:#000000; fill-opacity:1.0000; stroke:none;fill-rule:evenodd;" d="M 2.6810,6.5633 2.6810,3.1332 5.9310,3.1332 5.9310,6.5633 Z" /> 
<path style="fill:#000000; fill-opacity:1.0000; stroke:none;fill-rule:evenodd;" d="M 12.0810,6.5633 12.0810,3.1332 15.3310,3.1332 15.3310,6.5633 Z" /> 
<path style="fill:#000000; fill-opacity:1.0000; stroke:none;fill-rule:evenodd;" d="M 2.6810,6.5633 2.6810,3.1332 5.9310,3.1332 5.9310,6.5633 Z" /> 
<path style="fill:#000000; fill-opacity:1.0000; stroke:none;fill-rule:evenodd;" d="M 12.0810,6.5633 12.0810,3.1332 15.3310,3.1332 15.3310,6.5633 Z" /> 
<path style="fill:#000000; fill-opacity:1.0000; stroke:none;fill-rule:evenodd;" d="M 2.6810,6.5633 2.6810,3.1332 5.9310,3.1332 5.9310,6.5633 Z" /> 
<path style="fill:#000000; fill-opacity:1.0000; stroke:none;fill-rule:evenodd;" d="M 12.0810,6.5633 12.0810,3.1332 15.3310,3.1332 15.3310,6.5633 Z" /> 
</g>
<g style="fill:none;  stroke:#000000; stroke-width:0.1500; stroke-opacity:1;  stroke-linecap:round; stroke-linejoin:round;">
</g>
<g style="fill:none;  stroke:#000000; stroke-width:0.2500; stroke-opacity:1;  stroke-linecap:round; stroke-linejoin:round;">
<path d="M6.2060 6.3982 L11.8060 6.3982 " />
<path d="M6.2060 3.2982 L11.8060 3.2982 " />
</g>
<g style="fill:none;  stroke:#000000; stroke-width:0.1500; stroke-opacity:1;  stroke-linecap:round; stroke-linejoin:round;">
<path d="M8.9760 4.4982 A0.1900 0.1900 0.0 0 0 8.9760 4.8783" />
<path d="M8.9760 5.2583 A0.1900 0.1900 0.0 0 0 8.9760 4.8782" />
<text x="9.0060" y="9.3483" textLength="18.0119" font-size="1.3333" lengthAdjust="spacingAndGlyphs" text-anchor="middle" opacity="0" stroke-opacity="0">FUSE-SMD_L10.1-W3.1</text>
<g class="stroked-text"><desc>FUSE-SMD_L10.1-W3.1</desc>
<path d="M0.6964 8.7793 L0.3631 8.7793 " />
<path d="M0.3631 9.3031 L0.3631 8.3031 " />
<path d="M0.3631 8.3031 L0.8393 8.3031 " />
<path d="M1.2202 8.3031 L1.2202 9.1126 " />
<path d="M1.2202 9.1126 L1.2679 9.2078 " />
<path d="M1.2679 9.2078 L1.3155 9.2554 " />
<path d="M1.3155 9.2554 L1.4107 9.3031 " />
<path d="M1.4107 9.3031 L1.6012 9.3031 " />
<path d="M1.6012 9.3031 L1.6964 9.2554 " />
<path d="M1.6964 9.2554 L1.7440 9.2078 " />
<path d="M1.7440 9.2078 L1.7917 9.1126 " />
<path d="M1.7917 9.1126 L1.7917 8.3031 " />
<path d="M2.2202 9.2554 L2.3631 9.3031 " />
<path d="M2.3631 9.3031 L2.6012 9.3031 " />
<path d="M2.6012 9.3031 L2.6964 9.2554 " />
<path d="M2.6964 9.2554 L2.7440 9.2078 " />
<path d="M2.7440 9.2078 L2.7917 9.1126 " />
<path d="M2.7917 9.1126 L2.7917 9.0174 " />
<path d="M2.7917 9.0174 L2.7440 8.9221 " />
<path d="M2.7440 8.9221 L2.6964 8.8745 " />
<path d="M2.6964 8.8745 L2.6012 8.8269 " />
<path d="M2.6012 8.8269 L2.4107 8.7793 " />
<path d="M2.4107 8.7793 L2.3155 8.7316 " />
<path d="M2.3155 8.7316 L2.2679 8.6840 " />
<path d="M2.2679 8.6840 L2.2202 8.5888 " />
<path d="M2.2202 8.5888 L2.2202 8.4935 " />
<path d="M2.2202 8.4935 L2.2679 8.3983 " />
<path d="M2.2679 8.3983 L2.3155 8.3507 " />
<path d="M2.3155 8.3507 L2.4107 8.3031 " />
<path d="M2.4107 8.3031 L2.6488 8.3031 " />
<path d="M2.6488 8.3031 L2.7917 8.3507 " />
<path d="M3.2202 8.7793 L3.5536 8.7793 " />
<path d="M3.6964 9.3031 L3.2202 9.3031 " />
<path d="M3.2202 9.3031 L3.2202 8.3031 " />
<path d="M3.2202 8.3031 L3.6964 8.3031 " />
<path d="M4.1250 8.9221 L4.8869 8.9221 " />
<path d="M5.3155 9.2554 L5.4583 9.3031 " />
<path d="M5.4583 9.3031 L5.6964 9.3031 " />
<path d="M5.6964 9.3031 L5.7917 9.2554 " />
<path d="M5.7917 9.2554 L5.8393 9.2078 " />
<path d="M5.8393 9.2078 L5.8869 9.1126 " />
<path d="M5.8869 9.1126 L5.8869 9.0174 " />
<path d="M5.8869 9.0174 L5.8393 8.9221 " />
<path d="M5.8393 8.9221 L5.7917 8.8745 " />
<path d="M5.7917 8.8745 L5.6964 8.8269 " />
<path d="M5.6964 8.8269 L5.5060 8.7793 " />
<path d="M5.5060 8.7793 L5.4107 8.7316 " />
<path d="M5.4107 8.7316 L5.3631 8.6840 " />
<path d="M5.3631 8.6840 L5.3155 8.5888 " />
<path d="M5.3155 8.5888 L5.3155 8.4935 " />
<path d="M5.3155 8.4935 L5.3631 8.3983 " />
<path d="M5.3631 8.3983 L5.4107 8.3507 " />
<path d="M5.4107 8.3507 L5.5060 8.3031 " />
<path d="M5.5060 8.3031 L5.7440 8.3031 " />
<path d="M5.7440 8.3031 L5.8869 8.3507 " />
<path d="M6.3155 9.3031 L6.3155 8.3031 " />
<path d="M6.3155 8.3031 L6.6488 9.0174 " />
<path d="M6.6488 9.0174 L6.9821 8.3031 " />
<path d="M6.9821 8.3031 L6.9821 9.3031 " />
<path d="M7.4583 9.3031 L7.4583 8.3031 " />
<path d="M7.4583 8.3031 L7.6964 8.3031 " />
<path d="M7.6964 8.3031 L7.8393 8.3507 " />
<path d="M7.8393 8.3507 L7.9345 8.4459 " />
<path d="M7.9345 8.4459 L7.9821 8.5412 " />
<path d="M7.9821 8.5412 L8.0298 8.7316 " />
<path d="M8.0298 8.7316 L8.0298 8.8745 " />
<path d="M8.0298 8.8745 L7.9821 9.0650 " />
<path d="M7.9821 9.0650 L7.9345 9.1602 " />
<path d="M7.9345 9.1602 L7.8393 9.2554 " />
<path d="M7.8393 9.2554 L7.6964 9.3031 " />
<path d="M7.6964 9.3031 L7.4583 9.3031 " />
<path d="M8.2202 9.3983 L8.9821 9.3983 " />
<path d="M9.6964 9.3031 L9.2202 9.3031 " />
<path d="M9.2202 9.3031 L9.2202 8.3031 " />
<path d="M10.5536 9.3031 L9.9821 9.3031 " />
<path d="M10.2679 9.3031 L10.2679 8.3031 " />
<path d="M10.2679 8.3031 L10.1726 8.4459 " />
<path d="M10.1726 8.4459 L10.0774 8.5412 " />
<path d="M10.0774 8.5412 L9.9821 8.5888 " />
<path d="M11.1726 8.3031 L11.2679 8.3031 " />
<path d="M11.2679 8.3031 L11.3631 8.3507 " />
<path d="M11.3631 8.3507 L11.4107 8.3983 " />
<path d="M11.4107 8.3983 L11.4583 8.4935 " />
<path d="M11.4583 8.4935 L11.5060 8.6840 " />
<path d="M11.5060 8.6840 L11.5060 8.9221 " />
<path d="M11.5060 8.9221 L11.4583 9.1126 " />
<path d="M11.4583 9.1126 L11.4107 9.2078 " />
<path d="M11.4107 9.2078 L11.3631 9.2554 " />
<path d="M11.3631 9.2554 L11.2679 9.3031 " />
<path d="M11.2679 9.3031 L11.1726 9.3031 " />
<path d="M11.1726 9.3031 L11.0774 9.2554 " />
<path d="M11.0774 9.2554 L11.0298 9.2078 " />
<path d="M11.0298 9.2078 L10.9821 9.1126 " />
<path d="M10.9821 9.1126 L10.9345 8.9221 " />
<path d="M10.9345 8.9221 L10.9345 8.6840 " />
<path d="M10.9345 8.6840 L10.9821 8.4935 " />
<path d="M10.9821 8.4935 L11.0298 8.3983 " />
<path d="M11.0298 8.3983 L11.0774 8.3507 " />
<path d="M11.0774 8.3507 L11.1726 8.3031 " />
<path d="M11.9345 9.2078 L11.9821 9.2554 " />
<path d="M11.9821 9.2554 L11.9345 9.3031 " />
<path d="M11.9345 9.3031 L11.8869 9.2554 " />
<path d="M11.8869 9.2554 L11.9345 9.2078 " />
<path d="M11.9345 9.2078 L11.9345 9.3031 " />
<path d="M12.9345 9.3031 L12.3631 9.3031 " />
<path d="M12.6488 9.3031 L12.6488 8.3031 " />
<path d="M12.6488 8.3031 L12.5536 8.4459 " />
<path d="M12.5536 8.4459 L12.4583 8.5412 " />
<path d="M12.4583 8.5412 L12.3631 8.5888 " />
<path d="M13.3631 8.9221 L14.1250 8.9221 " />
<path d="M14.5060 8.3031 L14.7440 9.3031 " />
<path d="M14.7440 9.3031 L14.9345 8.5888 " />
<path d="M14.9345 8.5888 L15.1250 9.3031 " />
<path d="M15.1250 9.3031 L15.3631 8.3031 " />
<path d="M15.6488 8.3031 L16.2679 8.3031 " />
<path d="M16.2679 8.3031 L15.9345 8.6840 " />
<path d="M15.9345 8.6840 L16.0774 8.6840 " />
<path d="M16.0774 8.6840 L16.1726 8.7316 " />
<path d="M16.1726 8.7316 L16.2202 8.7793 " />
<path d="M16.2202 8.7793 L16.2679 8.8745 " />
<path d="M16.2679 8.8745 L16.2679 9.1126 " />
<path d="M16.2679 9.1126 L16.2202 9.2078 " />
<path d="M16.2202 9.2078 L16.1726 9.2554 " />
<path d="M16.1726 9.2554 L16.0774 9.3031 " />
<path d="M16.0774 9.3031 L15.7917 9.3031 " />
<path d="M15.7917 9.3031 L15.6964 9.2554 " />
<path d="M15.6964 9.2554 L15.6488 9.2078 " />
<path d="M16.6964 9.2078 L16.7440 9.2554 " />
<path d="M16.7440 9.2554 L16.6964 9.3031 " />
<path d="M16.6964 9.3031 L16.6488 9.2554 " />
<path d="M16.6488 9.2554 L16.6964 9.2078 " />
<path d="M16.6964 9.2078 L16.6964 9.3031 " />
<path d="M17.6964 9.3031 L17.1250 9.3031 " />
<path d="M17.4107 9.3031 L17.4107 8.3031 " />
<path d="M17.4107 8.3031 L17.3155 8.4459 " />
<path d="M17.3155 8.4459 L17.2202 8.5412 " />
<path d="M17.2202 8.5412 L17.1250 8.5888 " />
</g></g>
<g style="fill:none;  stroke:#000000; stroke-width:0.0600; stroke-opacity:1;  stroke-linecap:round; stroke-linejoin:round;">
<circle cx="3.9660" cy="6.3682" r="0.0300" /> 
</g> 
</svg>