<?xml version='1.0' encoding='utf-8'?>
<svg xmlns="http://www.w3.org/2000/svg" version="1.1" width="28.4734mm" height="13.2842mm" viewBox="0.0000 0.0000 28.4734 13.2842">
<title>SVG Image created as HDR-SMD_8P-P2.54-V-M-LS4.8_R2.svg date 2026/01/09 08:17:46 </title>
  <desc>Image generated by PCBNEW </desc>
<g style="fill:#000000; fill-opacity:1.0000;stroke:#000000; stroke-opacity:1.0000; stroke-linecap:round; stroke-linejoin:round;" transform="translate(0 0) scale(1 1)">
<path style="fill:#000000; fill-opacity:1.0000; stroke:none;fill-rule:evenodd;" d="M 4.7190,9.5482 4.7190,7.3482 5.9890,7.3482 5.9890,9.5482 Z" /> 
<path style="fill:#000000; fill-opacity:1.0000; stroke:none;fill-rule:evenodd;" d="M 9.7990,9.5482 9.7990,7.3482 11.0690,7.3482 11.0690,9.5482 Z" /> 
<path style="fill:#000000; fill-opacity:1.0000; stroke:none;fill-rule:evenodd;" d="M 7.2590,5.9482 7.2590,3.7482 8.5290,3.7482 8.5290,5.9482 Z" /> 
<path style="fill:#000000; fill-opacity:1.0000; stroke:none;fill-rule:evenodd;" d="M 12.3390,5.9482 12.3390,3.7482 13.6090,3.7482 13.6090,5.9482 Z" /> 
<path style="fill:#000000; fill-opacity:1.0000; stroke:none;fill-rule:evenodd;" d="M 14.8790,9.5482 14.8790,7.3482 16.1490,7.3482 16.1490,9.5482 Z" /> 
<path style="fill:#000000; fill-opacity:1.0000; stroke:none;fill-rule:evenodd;" d="M 17.4190,5.9482 17.4190,3.7482 18.6890,3.7482 18.6890,5.9482 Z" /> 
<path style="fill:#000000; fill-opacity:1.0000; stroke:none;fill-rule:evenodd;" d="M 19.9590,9.5482 19.9590,7.3482 21.2290,7.3482 21.2290,9.5482 Z" /> 
<path style="fill:#000000; fill-opacity:1.0000; stroke:none;fill-rule:evenodd;" d="M 22.4990,5.9482 22.4990,3.7482 23.7690,3.7482 23.7690,5.9482 Z" /> 
<path style="fill:#000000; fill-opacity:1.0000; stroke:none;fill-rule:evenodd;" d="M 4.7190,9.5482 4.7190,7.3482 5.9890,7.3482 5.9890,9.5482 Z" /> 
<path style="fill:#000000; fill-opacity:1.0000; stroke:none;fill-rule:evenodd;" d="M 9.7990,9.5482 9.7990,7.3482 11.0690,7.3482 11.0690,9.5482 Z" /> 
<path style="fill:#000000; fill-opacity:1.0000; stroke:none;fill-rule:evenodd;" d="M 7.2590,5.9482 7.2590,3.7482 8.5290,3.7482 8.5290,5.9482 Z" /> 
<path style="fill:#000000; fill-opacity:1.0000; stroke:none;fill-rule:evenodd;" d="M 12.3390,5.9482 12.3390,3.7482 13.6090,3.7482 13.6090,5.9482 Z" /> 
<path style="fill:#000000; fill-opacity:1.0000; stroke:none;fill-rule:evenodd;" d="M 14.8790,9.5482 14.8790,7.3482 16.1490,7.3482 16.1490,9.5482 Z" /> 
<path style="fill:#000000; fill-opacity:1.0000; stroke:none;fill-rule:evenodd;" d="M 17.4190,5.9482 17.4190,3.7482 18.6890,3.7482 18.6890,5.9482 Z" /> 
<path style="fill:#000000; fill-opacity:1.0000; stroke:none;fill-rule:evenodd;" d="M 19.9590,9.5482 19.9590,7.3482 21.2290,7.3482 21.2290,9.5482 Z" /> 
<path style="fill:#000000; fill-opacity:1.0000; stroke:none;fill-rule:evenodd;" d="M 22.4990,5.9482 22.4990,3.7482 23.7690,3.7482 23.7690,5.9482 Z" /> 
<path style="fill:#000000; fill-opacity:1.0000; stroke:none;fill-rule:evenodd;" d="M 4.7190,9.5482 4.7190,7.3482 5.9890,7.3482 5.9890,9.5482 Z" /> 
<path style="fill:#000000; fill-opacity:1.0000; stroke:none;fill-rule:evenodd;" d="M 9.7990,9.5482 9.7990,7.3482 11.0690,7.3482 11.0690,9.5482 Z" /> 
<path style="fill:#000000; fill-opacity:1.0000; stroke:none;fill-rule:evenodd;" d="M 7.2590,5.9482 7.2590,3.7482 8.5290,3.7482 8.5290,5.9482 Z" /> 
<path style="fill:#000000; fill-opacity:1.0000; stroke:none;fill-rule:evenodd;" d="M 12.3390,5.9482 12.3390,3.7482 13.6090,3.7482 13.6090,5.9482 Z" /> 
<path style="fill:#000000; fill-opacity:1.0000; stroke:none;fill-rule:evenodd;" d="M 14.8790,9.5482 14.8790,7.3482 16.1490,7.3482 16.1490,9.5482 Z" /> 
<path style="fill:#000000; fill-opacity:1.0000; stroke:none;fill-rule:evenodd;" d="M 17.4190,5.9482 17.4190,3.7482 18.6890,3.7482 18.6890,5.9482 Z" /> 
<path style="fill:#000000; fill-opacity:1.0000; stroke:none;fill-rule:evenodd;" d="M 19.9590,9.5482 19.9590,7.3482 21.2290,7.3482 21.2290,9.5482 Z" /> 
<path style="fill:#000000; fill-opacity:1.0000; stroke:none;fill-rule:evenodd;" d="M 22.4990,5.9482 22.4990,3.7482 23.7690,3.7482 23.7690,5.9482 Z" /> 
</g>
<g style="fill:none;  stroke:#000000; stroke-width:0.1500; stroke-opacity:1;  stroke-linecap:round; stroke-linejoin:round;">
</g>
<g style="fill:none;  stroke:#000000; stroke-width:0.2500; stroke-opacity:1;  stroke-linecap:round; stroke-linejoin:round;">
<path d="M24.4040 5.3782 L24.0040 5.3782 " />
<path d="M21.4640 7.9182 L24.4040 7.9182 " />
<path d="M4.0840 7.9182 L4.0840 5.3782 " />
<path d="M4.4840 7.9182 L4.0840 7.9182 " />
<path d="M9.5640 7.9182 L6.2240 7.9182 " />
<path d="M14.6440 7.9182 L11.3040 7.9182 " />
<path d="M19.7240 7.9182 L16.3840 7.9182 " />
<path d="M18.9240 5.3782 L22.2640 5.3782 " />
<path d="M13.8440 5.3782 L17.1840 5.3782 " />
<path d="M8.7640 5.3782 L12.1040 5.3782 " />
<path d="M4.0840 5.3782 L7.0240 5.3782 " />
<path d="M24.4040 5.3782 L24.4040 6.1382 " />
<path d="M24.4040 6.1382 L24.4040 7.9182 " />
</g>
<g style="fill:none;  stroke:#000000; stroke-width:0.3000; stroke-opacity:1;  stroke-linecap:round; stroke-linejoin:round;">
<circle cx="4.0840" cy="9.1883" r="0.1500" /> 
</g>
<g style="fill:none;  stroke:#000000; stroke-width:0.1500; stroke-opacity:1;  stroke-linecap:round; stroke-linejoin:round;">
<text x="14.2440" y="12.9482" textLength="28.4881" font-size="1.3333" lengthAdjust="spacingAndGlyphs" text-anchor="middle" opacity="0" stroke-opacity="0">HDR-SMD_8P-P2.54-V-M-LS4.8_R2</text>
<g class="stroked-text"><desc>HDR-SMD_8P-P2.54-V-M-LS4.8_R2</desc>
<path d="M0.3631 12.9031 L0.3631 11.9031 " />
<path d="M0.3631 12.3793 L0.9345 12.3793 " />
<path d="M0.9345 12.9031 L0.9345 11.9031 " />
<path d="M1.4107 12.9031 L1.4107 11.9031 " />
<path d="M1.4107 11.9031 L1.6488 11.9031 " />
<path d="M1.6488 11.9031 L1.7917 11.9507 " />
<path d="M1.7917 11.9507 L1.8869 12.0459 " />
<path d="M1.8869 12.0459 L1.9345 12.1412 " />
<path d="M1.9345 12.1412 L1.9821 12.3316 " />
<path d="M1.9821 12.3316 L1.9821 12.4745 " />
<path d="M1.9821 12.4745 L1.9345 12.6650 " />
<path d="M1.9345 12.6650 L1.8869 12.7602 " />
<path d="M1.8869 12.7602 L1.7917 12.8554 " />
<path d="M1.7917 12.8554 L1.6488 12.9031 " />
<path d="M1.6488 12.9031 L1.4107 12.9031 " />
<path d="M2.9821 12.9031 L2.6488 12.4269 " />
<path d="M2.4107 12.9031 L2.4107 11.9031 " />
<path d="M2.4107 11.9031 L2.7917 11.9031 " />
<path d="M2.7917 11.9031 L2.8869 11.9507 " />
<path d="M2.8869 11.9507 L2.9345 11.9983 " />
<path d="M2.9345 11.9983 L2.9821 12.0935 " />
<path d="M2.9821 12.0935 L2.9821 12.2364 " />
<path d="M2.9821 12.2364 L2.9345 12.3316 " />
<path d="M2.9345 12.3316 L2.8869 12.3793 " />
<path d="M2.8869 12.3793 L2.7917 12.4269 " />
<path d="M2.7917 12.4269 L2.4107 12.4269 " />
<path d="M3.4107 12.5221 L4.1726 12.5221 " />
<path d="M4.6012 12.8554 L4.7440 12.9031 " />
<path d="M4.7440 12.9031 L4.9821 12.9031 " />
<path d="M4.9821 12.9031 L5.0774 12.8554 " />
<path d="M5.0774 12.8554 L5.1250 12.8078 " />
<path d="M5.1250 12.8078 L5.1726 12.7126 " />
<path d="M5.1726 12.7126 L5.1726 12.6174 " />
<path d="M5.1726 12.6174 L5.1250 12.5221 " />
<path d="M5.1250 12.5221 L5.0774 12.4745 " />
<path d="M5.0774 12.4745 L4.9821 12.4269 " />
<path d="M4.9821 12.4269 L4.7917 12.3793 " />
<path d="M4.7917 12.3793 L4.6964 12.3316 " />
<path d="M4.6964 12.3316 L4.6488 12.2840 " />
<path d="M4.6488 12.2840 L4.6012 12.1888 " />
<path d="M4.6012 12.1888 L4.6012 12.0935 " />
<path d="M4.6012 12.0935 L4.6488 11.9983 " />
<path d="M4.6488 11.9983 L4.6964 11.9507 " />
<path d="M4.6964 11.9507 L4.7917 11.9031 " />
<path d="M4.7917 11.9031 L5.0298 11.9031 " />
<path d="M5.0298 11.9031 L5.1726 11.9507 " />
<path d="M5.6012 12.9031 L5.6012 11.9031 " />
<path d="M5.6012 11.9031 L5.9345 12.6174 " />
<path d="M5.9345 12.6174 L6.2679 11.9031 " />
<path d="M6.2679 11.9031 L6.2679 12.9031 " />
<path d="M6.7440 12.9031 L6.7440 11.9031 " />
<path d="M6.7440 11.9031 L6.9821 11.9031 " />
<path d="M6.9821 11.9031 L7.1250 11.9507 " />
<path d="M7.1250 11.9507 L7.2202 12.0459 " />
<path d="M7.2202 12.0459 L7.2679 12.1412 " />
<path d="M7.2679 12.1412 L7.3155 12.3316 " />
<path d="M7.3155 12.3316 L7.3155 12.4745 " />
<path d="M7.3155 12.4745 L7.2679 12.6650 " />
<path d="M7.2679 12.6650 L7.2202 12.7602 " />
<path d="M7.2202 12.7602 L7.1250 12.8554 " />
<path d="M7.1250 12.8554 L6.9821 12.9031 " />
<path d="M6.9821 12.9031 L6.7440 12.9031 " />
<path d="M7.5060 12.9983 L8.2679 12.9983 " />
<path d="M8.6488 12.3316 L8.5536 12.2840 " />
<path d="M8.5536 12.2840 L8.5060 12.2364 " />
<path d="M8.5060 12.2364 L8.4583 12.1412 " />
<path d="M8.4583 12.1412 L8.4583 12.0935 " />
<path d="M8.4583 12.0935 L8.5060 11.9983 " />
<path d="M8.5060 11.9983 L8.5536 11.9507 " />
<path d="M8.5536 11.9507 L8.6488 11.9031 " />
<path d="M8.6488 11.9031 L8.8393 11.9031 " />
<path d="M8.8393 11.9031 L8.9345 11.9507 " />
<path d="M8.9345 11.9507 L8.9821 11.9983 " />
<path d="M8.9821 11.9983 L9.0298 12.0935 " />
<path d="M9.0298 12.0935 L9.0298 12.1412 " />
<path d="M9.0298 12.1412 L8.9821 12.2364 " />
<path d="M8.9821 12.2364 L8.9345 12.2840 " />
<path d="M8.9345 12.2840 L8.8393 12.3316 " />
<path d="M8.8393 12.3316 L8.6488 12.3316 " />
<path d="M8.6488 12.3316 L8.5536 12.3793 " />
<path d="M8.5536 12.3793 L8.5060 12.4269 " />
<path d="M8.5060 12.4269 L8.4583 12.5221 " />
<path d="M8.4583 12.5221 L8.4583 12.7126 " />
<path d="M8.4583 12.7126 L8.5060 12.8078 " />
<path d="M8.5060 12.8078 L8.5536 12.8554 " />
<path d="M8.5536 12.8554 L8.6488 12.9031 " />
<path d="M8.6488 12.9031 L8.8393 12.9031 " />
<path d="M8.8393 12.9031 L8.9345 12.8554 " />
<path d="M8.9345 12.8554 L8.9821 12.8078 " />
<path d="M8.9821 12.8078 L9.0298 12.7126 " />
<path d="M9.0298 12.7126 L9.0298 12.5221 " />
<path d="M9.0298 12.5221 L8.9821 12.4269 " />
<path d="M8.9821 12.4269 L8.9345 12.3793 " />
<path d="M8.9345 12.3793 L8.8393 12.3316 " />
<path d="M9.4583 12.9031 L9.4583 11.9031 " />
<path d="M9.4583 11.9031 L9.8393 11.9031 " />
<path d="M9.8393 11.9031 L9.9345 11.9507 " />
<path d="M9.9345 11.9507 L9.9821 11.9983 " />
<path d="M9.9821 11.9983 L10.0298 12.0935 " />
<path d="M10.0298 12.0935 L10.0298 12.2364 " />
<path d="M10.0298 12.2364 L9.9821 12.3316 " />
<path d="M9.9821 12.3316 L9.9345 12.3793 " />
<path d="M9.9345 12.3793 L9.8393 12.4269 " />
<path d="M9.8393 12.4269 L9.4583 12.4269 " />
<path d="M10.4583 12.5221 L11.2202 12.5221 " />
<path d="M11.6964 12.9031 L11.6964 11.9031 " />
<path d="M11.6964 11.9031 L12.0774 11.9031 " />
<path d="M12.0774 11.9031 L12.1726 11.9507 " />
<path d="M12.1726 11.9507 L12.2202 11.9983 " />
<path d="M12.2202 11.9983 L12.2679 12.0935 " />
<path d="M12.2679 12.0935 L12.2679 12.2364 " />
<path d="M12.2679 12.2364 L12.2202 12.3316 " />
<path d="M12.2202 12.3316 L12.1726 12.3793 " />
<path d="M12.1726 12.3793 L12.0774 12.4269 " />
<path d="M12.0774 12.4269 L11.6964 12.4269 " />
<path d="M12.6488 11.9983 L12.6964 11.9507 " />
<path d="M12.6964 11.9507 L12.7917 11.9031 " />
<path d="M12.7917 11.9031 L13.0298 11.9031 " />
<path d="M13.0298 11.9031 L13.1250 11.9507 " />
<path d="M13.1250 11.9507 L13.1726 11.9983 " />
<path d="M13.1726 11.9983 L13.2202 12.0935 " />
<path d="M13.2202 12.0935 L13.2202 12.1888 " />
<path d="M13.2202 12.1888 L13.1726 12.3316 " />
<path d="M13.1726 12.3316 L12.6012 12.9031 " />
<path d="M12.6012 12.9031 L13.2202 12.9031 " />
<path d="M13.6488 12.8078 L13.6964 12.8554 " />
<path d="M13.6964 12.8554 L13.6488 12.9031 " />
<path d="M13.6488 12.9031 L13.6012 12.8554 " />
<path d="M13.6012 12.8554 L13.6488 12.8078 " />
<path d="M13.6488 12.8078 L13.6488 12.9031 " />
<path d="M14.6012 11.9031 L14.1250 11.9031 " />
<path d="M14.1250 11.9031 L14.0774 12.3793 " />
<path d="M14.0774 12.3793 L14.1250 12.3316 " />
<path d="M14.1250 12.3316 L14.2202 12.2840 " />
<path d="M14.2202 12.2840 L14.4583 12.2840 " />
<path d="M14.4583 12.2840 L14.5536 12.3316 " />
<path d="M14.5536 12.3316 L14.6012 12.3793 " />
<path d="M14.6012 12.3793 L14.6488 12.4745 " />
<path d="M14.6488 12.4745 L14.6488 12.7126 " />
<path d="M14.6488 12.7126 L14.6012 12.8078 " />
<path d="M14.6012 12.8078 L14.5536 12.8554 " />
<path d="M14.5536 12.8554 L14.4583 12.9031 " />
<path d="M14.4583 12.9031 L14.2202 12.9031 " />
<path d="M14.2202 12.9031 L14.1250 12.8554 " />
<path d="M14.1250 12.8554 L14.0774 12.8078 " />
<path d="M15.5060 12.2364 L15.5060 12.9031 " />
<path d="M15.2679 11.8554 L15.0298 12.5697 " />
<path d="M15.0298 12.5697 L15.6488 12.5697 " />
<path d="M16.0298 12.5221 L16.7917 12.5221 " />
<path d="M17.1250 11.9031 L17.4583 12.9031 " />
<path d="M17.4583 12.9031 L17.7917 11.9031 " />
<path d="M18.1250 12.5221 L18.8869 12.5221 " />
<path d="M19.3631 12.9031 L19.3631 11.9031 " />
<path d="M19.3631 11.9031 L19.6964 12.6174 " />
<path d="M19.6964 12.6174 L20.0298 11.9031 " />
<path d="M20.0298 11.9031 L20.0298 12.9031 " />
<path d="M20.5060 12.5221 L21.2679 12.5221 " />
<path d="M22.2202 12.9031 L21.7440 12.9031 " />
<path d="M21.7440 12.9031 L21.7440 11.9031 " />
<path d="M22.5060 12.8554 L22.6488 12.9031 " />
<path d="M22.6488 12.9031 L22.8869 12.9031 " />
<path d="M22.8869 12.9031 L22.9821 12.8554 " />
<path d="M22.9821 12.8554 L23.0298 12.8078 " />
<path d="M23.0298 12.8078 L23.0774 12.7126 " />
<path d="M23.0774 12.7126 L23.0774 12.6174 " />
<path d="M23.0774 12.6174 L23.0298 12.5221 " />
<path d="M23.0298 12.5221 L22.9821 12.4745 " />
<path d="M22.9821 12.4745 L22.8869 12.4269 " />
<path d="M22.8869 12.4269 L22.6964 12.3793 " />
<path d="M22.6964 12.3793 L22.6012 12.3316 " />
<path d="M22.6012 12.3316 L22.5536 12.2840 " />
<path d="M22.5536 12.2840 L22.5060 12.1888 " />
<path d="M22.5060 12.1888 L22.5060 12.0935 " />
<path d="M22.5060 12.0935 L22.5536 11.9983 " />
<path d="M22.5536 11.9983 L22.6012 11.9507 " />
<path d="M22.6012 11.9507 L22.6964 11.9031 " />
<path d="M22.6964 11.9031 L22.9345 11.9031 " />
<path d="M22.9345 11.9031 L23.0774 11.9507 " />
<path d="M23.9345 12.2364 L23.9345 12.9031 " />
<path d="M23.6964 11.8554 L23.4583 12.5697 " />
<path d="M23.4583 12.5697 L24.0774 12.5697 " />
<path d="M24.4583 12.8078 L24.5060 12.8554 " />
<path d="M24.5060 12.8554 L24.4583 12.9031 " />
<path d="M24.4583 12.9031 L24.4107 12.8554 " />
<path d="M24.4107 12.8554 L24.4583 12.8078 " />
<path d="M24.4583 12.8078 L24.4583 12.9031 " />
<path d="M25.0774 12.3316 L24.9821 12.2840 " />
<path d="M24.9821 12.2840 L24.9345 12.2364 " />
<path d="M24.9345 12.2364 L24.8869 12.1412 " />
<path d="M24.8869 12.1412 L24.8869 12.0935 " />
<path d="M24.8869 12.0935 L24.9345 11.9983 " />
<path d="M24.9345 11.9983 L24.9821 11.9507 " />
<path d="M24.9821 11.9507 L25.0774 11.9031 " />
<path d="M25.0774 11.9031 L25.2679 11.9031 " />
<path d="M25.2679 11.9031 L25.3631 11.9507 " />
<path d="M25.3631 11.9507 L25.4107 11.9983 " />
<path d="M25.4107 11.9983 L25.4583 12.0935 " />
<path d="M25.4583 12.0935 L25.4583 12.1412 " />
<path d="M25.4583 12.1412 L25.4107 12.2364 " />
<path d="M25.4107 12.2364 L25.3631 12.2840 " />
<path d="M25.3631 12.2840 L25.2679 12.3316 " />
<path d="M25.2679 12.3316 L25.0774 12.3316 " />
<path d="M25.0774 12.3316 L24.9821 12.3793 " />
<path d="M24.9821 12.3793 L24.9345 12.4269 " />
<path d="M24.9345 12.4269 L24.8869 12.5221 " />
<path d="M24.8869 12.5221 L24.8869 12.7126 " />
<path d="M24.8869 12.7126 L24.9345 12.8078 " />
<path d="M24.9345 12.8078 L24.9821 12.8554 " />
<path d="M24.9821 12.8554 L25.0774 12.9031 " />
<path d="M25.0774 12.9031 L25.2679 12.9031 " />
<path d="M25.2679 12.9031 L25.3631 12.8554 " />
<path d="M25.3631 12.8554 L25.4107 12.8078 " />
<path d="M25.4107 12.8078 L25.4583 12.7126 " />
<path d="M25.4583 12.7126 L25.4583 12.5221 " />
<path d="M25.4583 12.5221 L25.4107 12.4269 " />
<path d="M25.4107 12.4269 L25.3631 12.3793 " />
<path d="M25.3631 12.3793 L25.2679 12.3316 " />
<path d="M25.6488 12.9983 L26.4107 12.9983 " />
<path d="M27.2202 12.9031 L26.8869 12.4269 " />
<path d="M26.6488 12.9031 L26.6488 11.9031 " />
<path d="M26.6488 11.9031 L27.0298 11.9031 " />
<path d="M27.0298 11.9031 L27.1250 11.9507 " />
<path d="M27.1250 11.9507 L27.1726 11.9983 " />
<path d="M27.1726 11.9983 L27.2202 12.0935 " />
<path d="M27.2202 12.0935 L27.2202 12.2364 " />
<path d="M27.2202 12.2364 L27.1726 12.3316 " />
<path d="M27.1726 12.3316 L27.1250 12.3793 " />
<path d="M27.1250 12.3793 L27.0298 12.4269 " />
<path d="M27.0298 12.4269 L26.6488 12.4269 " />
<path d="M27.6012 11.9983 L27.6488 11.9507 " />
<path d="M27.6488 11.9507 L27.7440 11.9031 " />
<path d="M27.7440 11.9031 L27.9821 11.9031 " />
<path d="M27.9821 11.9031 L28.0774 11.9507 " />
<path d="M28.0774 11.9507 L28.1250 11.9983 " />
<path d="M28.1250 11.9983 L28.1726 12.0935 " />
<path d="M28.1726 12.0935 L28.1726 12.1888 " />
<path d="M28.1726 12.1888 L28.1250 12.3316 " />
<path d="M28.1250 12.3316 L27.5536 12.9031 " />
<path d="M27.5536 12.9031 L28.1726 12.9031 " />
</g></g>
<g style="fill:none;  stroke:#000000; stroke-width:0.0600; stroke-opacity:1;  stroke-linecap:round; stroke-linejoin:round;">
<circle cx="4.0840" cy="9.0482" r="0.0300" /> 
</g> 
</svg>