<?xml version='1.0' encoding='utf-8'?>
<svg xmlns="http://www.w3.org/2000/svg" version="1.1" width="10.0076mm" height="9.6774mm" viewBox="0.0000 0.0000 10.0076 9.6774">
<title>SVG Image created as LED0603-RD.svg date 2026/01/09 08:17:46 </title>
  <desc>Image generated by PCBNEW </desc>
<g style="fill:#000000; fill-opacity:1.0000;stroke:#000000; stroke-opacity:1.0000; stroke-linecap:round; stroke-linejoin:round;" transform="translate(0 0) scale(1 1)">
<path style="fill:#000000; fill-opacity:1.0000; stroke:none;fill-rule:evenodd;" d="M 6.1560,5.2482 5.3560,5.2482 5.3560,4.4482 6.1560,4.4482 Z" /> 
<path style="fill:#000000; fill-opacity:1.0000; stroke:none;fill-rule:evenodd;" d="M 4.6560,5.2482 3.8560,5.2482 3.8560,4.4482 4.6560,4.4482 Z" /> 
<path style="fill:#000000; fill-opacity:1.0000; stroke:none;fill-rule:evenodd;" d="M 6.1560,5.2482 5.3560,5.2482 5.3560,4.4482 6.1560,4.4482 Z" /> 
<path style="fill:#000000; fill-opacity:1.0000; stroke:none;fill-rule:evenodd;" d="M 4.6560,5.2482 3.8560,5.2482 3.8560,4.4482 4.6560,4.4482 Z" /> 
<path style="fill:#000000; fill-opacity:1.0000; stroke:none;fill-rule:evenodd;" d="M 6.1560,5.2482 5.3560,5.2482 5.3560,4.4482 6.1560,4.4482 Z" /> 
<path style="fill:#000000; fill-opacity:1.0000; stroke:none;fill-rule:evenodd;" d="M 4.6560,5.2482 3.8560,5.2482 3.8560,4.4482 4.6560,4.4482 Z" /> 
</g>
<g style="fill:none;  stroke:#000000; stroke-width:0.1500; stroke-opacity:1;  stroke-linecap:round; stroke-linejoin:round;">
<path d="M5.2260 5.1782 L5.2160 5.1782 " />
<path d="M5.2160 5.1782 L4.8860 4.8483 " />
<path d="M5.2260 4.4982 L5.2260 4.5082 " />
<path d="M5.2260 4.5082 L4.8860 4.8483 " />
<path d="M5.2260 4.4982 L5.2260 5.1782 " />
<path d="M5.2460 4.0983 L6.3960 4.0983 " />
<path d="M5.2460 5.5983 L6.3960 5.5983 " />
<path d="M6.3960 4.0983 L6.3960 5.5782 " />
<path d="M4.8660 5.5983 L3.8160 5.5983 " />
<path d="M3.5160 5.1982 L3.5160 5.2982 " />
<path d="M3.5160 5.2982 L3.8160 5.5983 " />
<path d="M3.5160 4.4982 L3.5160 5.1982 " />
<path d="M3.5160 4.4982 L3.5160 4.3982 " />
<path d="M3.5160 4.3982 L3.8160 4.0983 " />
<path d="M4.8660 4.0983 L3.8160 4.0983 " />
<path d="M5.2260 4.8483 L4.8860 4.8483 " />
<text x="5.0060" y="9.3483" textLength="10.0119" font-size="1.3333" lengthAdjust="spacingAndGlyphs" text-anchor="middle" opacity="0" stroke-opacity="0">LED0603-RD</text>
<g class="stroked-text"><desc>LED0603-RD</desc>
<path d="M0.8393 9.3031 L0.3631 9.3031 " />
<path d="M0.3631 9.3031 L0.3631 8.3031 " />
<path d="M1.1726 8.7793 L1.5060 8.7793 " />
<path d="M1.6488 9.3031 L1.1726 9.3031 " />
<path d="M1.1726 9.3031 L1.1726 8.3031 " />
<path d="M1.1726 8.3031 L1.6488 8.3031 " />
<path d="M2.0774 9.3031 L2.0774 8.3031 " />
<path d="M2.0774 8.3031 L2.3155 8.3031 " />
<path d="M2.3155 8.3031 L2.4583 8.3507 " />
<path d="M2.4583 8.3507 L2.5536 8.4459 " />
<path d="M2.5536 8.4459 L2.6012 8.5412 " />
<path d="M2.6012 8.5412 L2.6488 8.7316 " />
<path d="M2.6488 8.7316 L2.6488 8.8745 " />
<path d="M2.6488 8.8745 L2.6012 9.0650 " />
<path d="M2.6012 9.0650 L2.5536 9.1602 " />
<path d="M2.5536 9.1602 L2.4583 9.2554 " />
<path d="M2.4583 9.2554 L2.3155 9.3031 " />
<path d="M2.3155 9.3031 L2.0774 9.3031 " />
<path d="M3.2679 8.3031 L3.3631 8.3031 " />
<path d="M3.3631 8.3031 L3.4583 8.3507 " />
<path d="M3.4583 8.3507 L3.5060 8.3983 " />
<path d="M3.5060 8.3983 L3.5536 8.4935 " />
<path d="M3.5536 8.4935 L3.6012 8.6840 " />
<path d="M3.6012 8.6840 L3.6012 8.9221 " />
<path d="M3.6012 8.9221 L3.5536 9.1126 " />
<path d="M3.5536 9.1126 L3.5060 9.2078 " />
<path d="M3.5060 9.2078 L3.4583 9.2554 " />
<path d="M3.4583 9.2554 L3.3631 9.3031 " />
<path d="M3.3631 9.3031 L3.2679 9.3031 " />
<path d="M3.2679 9.3031 L3.1726 9.2554 " />
<path d="M3.1726 9.2554 L3.1250 9.2078 " />
<path d="M3.1250 9.2078 L3.0774 9.1126 " />
<path d="M3.0774 9.1126 L3.0298 8.9221 " />
<path d="M3.0298 8.9221 L3.0298 8.6840 " />
<path d="M3.0298 8.6840 L3.0774 8.4935 " />
<path d="M3.0774 8.4935 L3.1250 8.3983 " />
<path d="M3.1250 8.3983 L3.1726 8.3507 " />
<path d="M3.1726 8.3507 L3.2679 8.3031 " />
<path d="M4.4583 8.3031 L4.2679 8.3031 " />
<path d="M4.2679 8.3031 L4.1726 8.3507 " />
<path d="M4.1726 8.3507 L4.1250 8.3983 " />
<path d="M4.1250 8.3983 L4.0298 8.5412 " />
<path d="M4.0298 8.5412 L3.9821 8.7316 " />
<path d="M3.9821 8.7316 L3.9821 9.1126 " />
<path d="M3.9821 9.1126 L4.0298 9.2078 " />
<path d="M4.0298 9.2078 L4.0774 9.2554 " />
<path d="M4.0774 9.2554 L4.1726 9.3031 " />
<path d="M4.1726 9.3031 L4.3631 9.3031 " />
<path d="M4.3631 9.3031 L4.4583 9.2554 " />
<path d="M4.4583 9.2554 L4.5060 9.2078 " />
<path d="M4.5060 9.2078 L4.5536 9.1126 " />
<path d="M4.5536 9.1126 L4.5536 8.8745 " />
<path d="M4.5536 8.8745 L4.5060 8.7793 " />
<path d="M4.5060 8.7793 L4.4583 8.7316 " />
<path d="M4.4583 8.7316 L4.3631 8.6840 " />
<path d="M4.3631 8.6840 L4.1726 8.6840 " />
<path d="M4.1726 8.6840 L4.0774 8.7316 " />
<path d="M4.0774 8.7316 L4.0298 8.7793 " />
<path d="M4.0298 8.7793 L3.9821 8.8745 " />
<path d="M5.1726 8.3031 L5.2679 8.3031 " />
<path d="M5.2679 8.3031 L5.3631 8.3507 " />
<path d="M5.3631 8.3507 L5.4107 8.3983 " />
<path d="M5.4107 8.3983 L5.4583 8.4935 " />
<path d="M5.4583 8.4935 L5.5060 8.6840 " />
<path d="M5.5060 8.6840 L5.5060 8.9221 " />
<path d="M5.5060 8.9221 L5.4583 9.1126 " />
<path d="M5.4583 9.1126 L5.4107 9.2078 " />
<path d="M5.4107 9.2078 L5.3631 9.2554 " />
<path d="M5.3631 9.2554 L5.2679 9.3031 " />
<path d="M5.2679 9.3031 L5.1726 9.3031 " />
<path d="M5.1726 9.3031 L5.0774 9.2554 " />
<path d="M5.0774 9.2554 L5.0298 9.2078 " />
<path d="M5.0298 9.2078 L4.9821 9.1126 " />
<path d="M4.9821 9.1126 L4.9345 8.9221 " />
<path d="M4.9345 8.9221 L4.9345 8.6840 " />
<path d="M4.9345 8.6840 L4.9821 8.4935 " />
<path d="M4.9821 8.4935 L5.0298 8.3983 " />
<path d="M5.0298 8.3983 L5.0774 8.3507 " />
<path d="M5.0774 8.3507 L5.1726 8.3031 " />
<path d="M5.8393 8.3031 L6.4583 8.3031 " />
<path d="M6.4583 8.3031 L6.1250 8.6840 " />
<path d="M6.1250 8.6840 L6.2679 8.6840 " />
<path d="M6.2679 8.6840 L6.3631 8.7316 " />
<path d="M6.3631 8.7316 L6.4107 8.7793 " />
<path d="M6.4107 8.7793 L6.4583 8.8745 " />
<path d="M6.4583 8.8745 L6.4583 9.1126 " />
<path d="M6.4583 9.1126 L6.4107 9.2078 " />
<path d="M6.4107 9.2078 L6.3631 9.2554 " />
<path d="M6.3631 9.2554 L6.2679 9.3031 " />
<path d="M6.2679 9.3031 L5.9821 9.3031 " />
<path d="M5.9821 9.3031 L5.8869 9.2554 " />
<path d="M5.8869 9.2554 L5.8393 9.2078 " />
<path d="M6.8869 8.9221 L7.6488 8.9221 " />
<path d="M8.6964 9.3031 L8.3631 8.8269 " />
<path d="M8.1250 9.3031 L8.1250 8.3031 " />
<path d="M8.1250 8.3031 L8.5060 8.3031 " />
<path d="M8.5060 8.3031 L8.6012 8.3507 " />
<path d="M8.6012 8.3507 L8.6488 8.3983 " />
<path d="M8.6488 8.3983 L8.6964 8.4935 " />
<path d="M8.6964 8.4935 L8.6964 8.6364 " />
<path d="M8.6964 8.6364 L8.6488 8.7316 " />
<path d="M8.6488 8.7316 L8.6012 8.7793 " />
<path d="M8.6012 8.7793 L8.5060 8.8269 " />
<path d="M8.5060 8.8269 L8.1250 8.8269 " />
<path d="M9.1250 9.3031 L9.1250 8.3031 " />
<path d="M9.1250 8.3031 L9.3631 8.3031 " />
<path d="M9.3631 8.3031 L9.5060 8.3507 " />
<path d="M9.5060 8.3507 L9.6012 8.4459 " />
<path d="M9.6012 8.4459 L9.6488 8.5412 " />
<path d="M9.6488 8.5412 L9.6964 8.7316 " />
<path d="M9.6964 8.7316 L9.6964 8.8745 " />
<path d="M9.6964 8.8745 L9.6488 9.0650 " />
<path d="M9.6488 9.0650 L9.6012 9.1602 " />
<path d="M9.6012 9.1602 L9.5060 9.2554 " />
<path d="M9.5060 9.2554 L9.3631 9.3031 " />
<path d="M9.3631 9.3031 L9.1250 9.3031 " />
</g></g>
<g style="fill:none;  stroke:#000000; stroke-width:0.0600; stroke-opacity:1;  stroke-linecap:round; stroke-linejoin:round;">
<circle cx="4.2060" cy="5.2482" r="0.0300" /> 
</g> 
</svg>