<?xml version='1.0' encoding='utf-8'?>
<svg xmlns="http://www.w3.org/2000/svg" version="1.1" width="16.5354mm" height="14.7574mm" viewBox="0.0000 0.0000 16.5354 14.7574">
<title>SVG Image created as LM7812_SMD.svg date 2026/01/09 08:17:46 </title>
  <desc>Image generated by PCBNEW </desc>
<g style="fill:#000000; fill-opacity:1.0000;stroke:#000000; stroke-opacity:1.0000; stroke-linecap:round; stroke-linejoin:round;" transform="translate(0 0) scale(1 1)">
<path style="fill:#000000; fill-opacity:1.0000; stroke:none;fill-rule:evenodd;" d="M 13.2600,10.6832 13.2600,9.1732 16.5600,9.1732 16.5600,10.6832 Z" /> 
<path style="fill:#000000; fill-opacity:1.0000; stroke:none;fill-rule:evenodd;" d="M 13.2600,8.1433 13.2600,6.6332 16.5600,6.6332 16.5600,8.1433 Z" /> 
<path style="fill:#000000; fill-opacity:1.0000; stroke:none;fill-rule:evenodd;" d="M 13.2600,5.6033 13.2600,4.0932 16.5600,4.0932 16.5600,5.6033 Z" /> 
<path style="fill:#000000; fill-opacity:1.0000; stroke:none;fill-rule:evenodd;" d="M 0.0000,12.4482 0.0000,2.3282 10.0200,2.3282 10.0200,12.4482 Z" /> 
<path style="fill:#000000; fill-opacity:1.0000; stroke:none;fill-rule:evenodd;" d="M 13.2600,10.6832 13.2600,9.1732 16.5600,9.1732 16.5600,10.6832 Z" /> 
<path style="fill:#000000; fill-opacity:1.0000; stroke:none;fill-rule:evenodd;" d="M 13.2600,8.1433 13.2600,6.6332 16.5600,6.6332 16.5600,8.1433 Z" /> 
<path style="fill:#000000; fill-opacity:1.0000; stroke:none;fill-rule:evenodd;" d="M 13.2600,5.6033 13.2600,4.0932 16.5600,4.0932 16.5600,5.6033 Z" /> 
<path style="fill:#000000; fill-opacity:1.0000; stroke:none;fill-rule:evenodd;" d="M 0.0000,12.4482 0.0000,2.3282 10.0200,2.3282 10.0200,12.4482 Z" /> 
<path style="fill:#000000; fill-opacity:1.0000; stroke:none;fill-rule:evenodd;" d="M 13.2600,10.6832 13.2600,9.1732 16.5600,9.1732 16.5600,10.6832 Z" /> 
<path style="fill:#000000; fill-opacity:1.0000; stroke:none;fill-rule:evenodd;" d="M 13.2600,8.1433 13.2600,6.6332 16.5600,6.6332 16.5600,8.1433 Z" /> 
<path style="fill:#000000; fill-opacity:1.0000; stroke:none;fill-rule:evenodd;" d="M 13.2600,5.6033 13.2600,4.0932 16.5600,4.0932 16.5600,5.6033 Z" /> 
<path style="fill:#000000; fill-opacity:1.0000; stroke:none;fill-rule:evenodd;" d="M 0.0000,12.4482 0.0000,2.3282 10.0200,2.3282 10.0200,12.4482 Z" /> 
</g>
<g style="fill:none;  stroke:#000000; stroke-width:0.1500; stroke-opacity:1;  stroke-linecap:round; stroke-linejoin:round;">
</g>
<g style="fill:none;  stroke:#000000; stroke-width:0.2500; stroke-opacity:1;  stroke-linecap:round; stroke-linejoin:round;">
<path d="M10.4100 2.3782 L11.1100 2.3782 " />
<path d="M11.1100 2.3782 L11.1100 12.3882 " />
<path d="M11.1100 4.4082 L13.0100 4.4082 " />
<path d="M11.1100 6.9482 L12.6100 6.9482 " />
<path d="M11.1100 9.4882 L13.0100 9.4882 " />
<path d="M11.1100 10.3782 L13.0100 10.3782 " />
<path d="M11.1100 12.3882 L10.4100 12.3882 " />
<path d="M12.6100 6.9482 L12.6100 7.8382 " />
<path d="M12.6100 7.8382 L11.1100 7.8382 " />
<path d="M13.0100 4.4082 L13.0100 5.2982 " />
<path d="M13.0100 5.2982 L11.1100 5.2982 " />
<path d="M13.0100 9.4882 L13.0100 10.3782 " />
</g>
<g style="fill:none;  stroke:#000000; stroke-width:0.4000; stroke-opacity:1;  stroke-linecap:round; stroke-linejoin:round;">
<circle cx="12.0100" cy="11.5882" r="0.2000" /> 
</g>
<g style="fill:none;  stroke:#000000; stroke-width:0.1500; stroke-opacity:1;  stroke-linecap:round; stroke-linejoin:round;">
<text x="9.9600" y="14.4282" textLength="9.8690" font-size="1.3333" lengthAdjust="spacingAndGlyphs" text-anchor="middle" opacity="0" stroke-opacity="0">LM7812_SMD</text>
<g class="stroked-text"><desc>LM7812_SMD</desc>
<path d="M5.8648 14.3831 L5.3886 14.3831 " />
<path d="M5.3886 14.3831 L5.3886 13.3831 " />
<path d="M6.1981 14.3831 L6.1981 13.3831 " />
<path d="M6.1981 13.3831 L6.5314 14.0974 " />
<path d="M6.5314 14.0974 L6.8648 13.3831 " />
<path d="M6.8648 13.3831 L6.8648 14.3831 " />
<path d="M7.2457 13.3831 L7.9124 13.3831 " />
<path d="M7.9124 13.3831 L7.4838 14.3831 " />
<path d="M8.4362 13.8116 L8.3410 13.7640 " />
<path d="M8.3410 13.7640 L8.2933 13.7164 " />
<path d="M8.2933 13.7164 L8.2457 13.6212 " />
<path d="M8.2457 13.6212 L8.2457 13.5735 " />
<path d="M8.2457 13.5735 L8.2933 13.4783 " />
<path d="M8.2933 13.4783 L8.3410 13.4307 " />
<path d="M8.3410 13.4307 L8.4362 13.3831 " />
<path d="M8.4362 13.3831 L8.6267 13.3831 " />
<path d="M8.6267 13.3831 L8.7219 13.4307 " />
<path d="M8.7219 13.4307 L8.7695 13.4783 " />
<path d="M8.7695 13.4783 L8.8171 13.5735 " />
<path d="M8.8171 13.5735 L8.8171 13.6212 " />
<path d="M8.8171 13.6212 L8.7695 13.7164 " />
<path d="M8.7695 13.7164 L8.7219 13.7640 " />
<path d="M8.7219 13.7640 L8.6267 13.8116 " />
<path d="M8.6267 13.8116 L8.4362 13.8116 " />
<path d="M8.4362 13.8116 L8.3410 13.8593 " />
<path d="M8.3410 13.8593 L8.2933 13.9069 " />
<path d="M8.2933 13.9069 L8.2457 14.0021 " />
<path d="M8.2457 14.0021 L8.2457 14.1926 " />
<path d="M8.2457 14.1926 L8.2933 14.2878 " />
<path d="M8.2933 14.2878 L8.3410 14.3354 " />
<path d="M8.3410 14.3354 L8.4362 14.3831 " />
<path d="M8.4362 14.3831 L8.6267 14.3831 " />
<path d="M8.6267 14.3831 L8.7219 14.3354 " />
<path d="M8.7219 14.3354 L8.7695 14.2878 " />
<path d="M8.7695 14.2878 L8.8171 14.1926 " />
<path d="M8.8171 14.1926 L8.8171 14.0021 " />
<path d="M8.8171 14.0021 L8.7695 13.9069 " />
<path d="M8.7695 13.9069 L8.7219 13.8593 " />
<path d="M8.7219 13.8593 L8.6267 13.8116 " />
<path d="M9.7695 14.3831 L9.1981 14.3831 " />
<path d="M9.4838 14.3831 L9.4838 13.3831 " />
<path d="M9.4838 13.3831 L9.3886 13.5259 " />
<path d="M9.3886 13.5259 L9.2933 13.6212 " />
<path d="M9.2933 13.6212 L9.1981 13.6688 " />
<path d="M10.1505 13.4783 L10.1981 13.4307 " />
<path d="M10.1981 13.4307 L10.2933 13.3831 " />
<path d="M10.2933 13.3831 L10.5314 13.3831 " />
<path d="M10.5314 13.3831 L10.6267 13.4307 " />
<path d="M10.6267 13.4307 L10.6743 13.4783 " />
<path d="M10.6743 13.4783 L10.7219 13.5735 " />
<path d="M10.7219 13.5735 L10.7219 13.6688 " />
<path d="M10.7219 13.6688 L10.6743 13.8116 " />
<path d="M10.6743 13.8116 L10.1029 14.3831 " />
<path d="M10.1029 14.3831 L10.7219 14.3831 " />
<path d="M10.9124 14.4783 L11.6743 14.4783 " />
<path d="M11.8648 14.3354 L12.0076 14.3831 " />
<path d="M12.0076 14.3831 L12.2457 14.3831 " />
<path d="M12.2457 14.3831 L12.3410 14.3354 " />
<path d="M12.3410 14.3354 L12.3886 14.2878 " />
<path d="M12.3886 14.2878 L12.4362 14.1926 " />
<path d="M12.4362 14.1926 L12.4362 14.0974 " />
<path d="M12.4362 14.0974 L12.3886 14.0021 " />
<path d="M12.3886 14.0021 L12.3410 13.9545 " />
<path d="M12.3410 13.9545 L12.2457 13.9069 " />
<path d="M12.2457 13.9069 L12.0552 13.8593 " />
<path d="M12.0552 13.8593 L11.9600 13.8116 " />
<path d="M11.9600 13.8116 L11.9124 13.7640 " />
<path d="M11.9124 13.7640 L11.8648 13.6688 " />
<path d="M11.8648 13.6688 L11.8648 13.5735 " />
<path d="M11.8648 13.5735 L11.9124 13.4783 " />
<path d="M11.9124 13.4783 L11.9600 13.4307 " />
<path d="M11.9600 13.4307 L12.0552 13.3831 " />
<path d="M12.0552 13.3831 L12.2933 13.3831 " />
<path d="M12.2933 13.3831 L12.4362 13.4307 " />
<path d="M12.8648 14.3831 L12.8648 13.3831 " />
<path d="M12.8648 13.3831 L13.1981 14.0974 " />
<path d="M13.1981 14.0974 L13.5314 13.3831 " />
<path d="M13.5314 13.3831 L13.5314 14.3831 " />
<path d="M14.0076 14.3831 L14.0076 13.3831 " />
<path d="M14.0076 13.3831 L14.2457 13.3831 " />
<path d="M14.2457 13.3831 L14.3886 13.4307 " />
<path d="M14.3886 13.4307 L14.4838 13.5259 " />
<path d="M14.4838 13.5259 L14.5314 13.6212 " />
<path d="M14.5314 13.6212 L14.5790 13.8116 " />
<path d="M14.5790 13.8116 L14.5790 13.9545 " />
<path d="M14.5790 13.9545 L14.5314 14.1450 " />
<path d="M14.5314 14.1450 L14.4838 14.2402 " />
<path d="M14.4838 14.2402 L14.3886 14.3354 " />
<path d="M14.3886 14.3354 L14.2457 14.3831 " />
<path d="M14.2457 14.3831 L14.0076 14.3831 " />
</g></g>
<g style="fill:none;  stroke:#000000; stroke-width:0.0600; stroke-opacity:1;  stroke-linecap:round; stroke-linejoin:round;">
<circle cx="15.4800" cy="12.4383" r="0.0300" /> 
</g>
<g style="fill:none;  stroke:#000000; stroke-width:0.6000; stroke-opacity:1;  stroke-linecap:round; stroke-linejoin:round;">
<circle cx="15.6800" cy="9.8982" r="0.3000" /> 
</g> 
</svg>