<?xml version='1.0' encoding='utf-8'?>
<svg xmlns="http://www.w3.org/2000/svg" version="1.1" width="24.5110mm" height="9.6774mm" viewBox="0.0000 0.0000 24.5110 9.6774">
<title>SVG Image created as SOD-323_L1.8-W1.3-LS2.5-FD.svg date 2026/01/08 03:28:23 </title>
  <desc>Image generated by PCBNEW </desc>
<g style="fill:#000000; fill-opacity:1.0000;stroke:#000000; stroke-opacity:1.0000; stroke-linecap:round; stroke-linejoin:round;" transform="translate(0 0) scale(1 1)">
<path style="fill:#000000; fill-opacity:1.0000; stroke:none;fill-rule:evenodd;" d="M 13.9679,4.4482 13.9679,5.2482 12.9679,5.2482 12.9679,4.4482 Z" /> 
<path style="fill:#000000; fill-opacity:1.0000; stroke:none;fill-rule:evenodd;" d="M 11.5679,4.4482 11.5679,5.2482 10.5679,5.2482 10.5679,4.4482 Z" /> 
<path style="fill:#000000; fill-opacity:1.0000; stroke:none;fill-rule:evenodd;" d="M 13.9679,4.4482 13.9679,5.2482 12.9679,5.2482 12.9679,4.4482 Z" /> 
<path style="fill:#000000; fill-opacity:1.0000; stroke:none;fill-rule:evenodd;" d="M 11.5679,4.4482 11.5679,5.2482 10.5679,5.2482 10.5679,4.4482 Z" /> 
<path style="fill:#000000; fill-opacity:1.0000; stroke:none;fill-rule:evenodd;" d="M 13.9679,4.4482 13.9679,5.2482 12.9679,5.2482 12.9679,4.4482 Z" /> 
<path style="fill:#000000; fill-opacity:1.0000; stroke:none;fill-rule:evenodd;" d="M 11.5679,4.4482 11.5679,5.2482 10.5679,5.2482 10.5679,4.4482 Z" /> 
</g>
<g style="fill:none;  stroke:#000000; stroke-width:0.1500; stroke-opacity:1;  stroke-linecap:round; stroke-linejoin:round;">
<path d="M11.0679 5.5282 L11.0679 5.6482 " />
<path d="M11.0679 5.6482 L11.2679 5.6482 " />
<path d="M11.2679 4.0482 L11.0679 4.0482 " />
<path d="M11.0679 4.0482 L11.0679 4.1682 " />
<path d="M13.4679 4.1682 L13.2679 4.1682 " />
<path d="M13.2679 5.5282 L13.4679 5.5282 " />
<path d="M13.4679 5.5282 L13.4679 5.6482 " />
<path d="M13.4679 5.6482 L13.2679 5.6482 " />
<path d="M13.2679 4.0482 L13.4679 4.0482 " />
<path d="M13.4679 4.0482 L13.4679 4.1682 " />
<path d="M13.2679 5.5282 L13.2679 5.6482 " />
<path d="M13.2679 4.0482 L13.2679 4.1682 " />
<path d="M11.2679 4.0482 L13.2679 4.0482 " />
<path d="M11.2679 5.6482 L13.2679 5.6482 " />
<path d="M12.6679 4.0482 L12.6679 5.6482 " />
<text x="12.2679" y="9.3483" textLength="24.5357" font-size="1.3333" lengthAdjust="spacingAndGlyphs" text-anchor="middle" opacity="0" stroke-opacity="0">SOD-323_L1.8-W1.3-LS2.5-FD</text>
<g class="stroked-text"><desc>SOD-323_L1.8-W1.3-LS2.5-FD</desc>
<path d="M0.3155 9.2554 L0.4583 9.3031 " />
<path d="M0.4583 9.3031 L0.6964 9.3031 " />
<path d="M0.6964 9.3031 L0.7917 9.2554 " />
<path d="M0.7917 9.2554 L0.8393 9.2078 " />
<path d="M0.8393 9.2078 L0.8869 9.1126 " />
<path d="M0.8869 9.1126 L0.8869 9.0174 " />
<path d="M0.8869 9.0174 L0.8393 8.9221 " />
<path d="M0.8393 8.9221 L0.7917 8.8745 " />
<path d="M0.7917 8.8745 L0.6964 8.8269 " />
<path d="M0.6964 8.8269 L0.5060 8.7793 " />
<path d="M0.5060 8.7793 L0.4107 8.7316 " />
<path d="M0.4107 8.7316 L0.3631 8.6840 " />
<path d="M0.3631 8.6840 L0.3155 8.5888 " />
<path d="M0.3155 8.5888 L0.3155 8.4935 " />
<path d="M0.3155 8.4935 L0.3631 8.3983 " />
<path d="M0.3631 8.3983 L0.4107 8.3507 " />
<path d="M0.4107 8.3507 L0.5060 8.3031 " />
<path d="M0.5060 8.3031 L0.7440 8.3031 " />
<path d="M0.7440 8.3031 L0.8869 8.3507 " />
<path d="M1.5060 8.3031 L1.6964 8.3031 " />
<path d="M1.6964 8.3031 L1.7917 8.3507 " />
<path d="M1.7917 8.3507 L1.8869 8.4459 " />
<path d="M1.8869 8.4459 L1.9345 8.6364 " />
<path d="M1.9345 8.6364 L1.9345 8.9697 " />
<path d="M1.9345 8.9697 L1.8869 9.1602 " />
<path d="M1.8869 9.1602 L1.7917 9.2554 " />
<path d="M1.7917 9.2554 L1.6964 9.3031 " />
<path d="M1.6964 9.3031 L1.5060 9.3031 " />
<path d="M1.5060 9.3031 L1.4107 9.2554 " />
<path d="M1.4107 9.2554 L1.3155 9.1602 " />
<path d="M1.3155 9.1602 L1.2679 8.9697 " />
<path d="M1.2679 8.9697 L1.2679 8.6364 " />
<path d="M1.2679 8.6364 L1.3155 8.4459 " />
<path d="M1.3155 8.4459 L1.4107 8.3507 " />
<path d="M1.4107 8.3507 L1.5060 8.3031 " />
<path d="M2.3631 9.3031 L2.3631 8.3031 " />
<path d="M2.3631 8.3031 L2.6012 8.3031 " />
<path d="M2.6012 8.3031 L2.7440 8.3507 " />
<path d="M2.7440 8.3507 L2.8393 8.4459 " />
<path d="M2.8393 8.4459 L2.8869 8.5412 " />
<path d="M2.8869 8.5412 L2.9345 8.7316 " />
<path d="M2.9345 8.7316 L2.9345 8.8745 " />
<path d="M2.9345 8.8745 L2.8869 9.0650 " />
<path d="M2.8869 9.0650 L2.8393 9.1602 " />
<path d="M2.8393 9.1602 L2.7440 9.2554 " />
<path d="M2.7440 9.2554 L2.6012 9.3031 " />
<path d="M2.6012 9.3031 L2.3631 9.3031 " />
<path d="M3.3631 8.9221 L4.1250 8.9221 " />
<path d="M4.5060 8.3031 L5.1250 8.3031 " />
<path d="M5.1250 8.3031 L4.7917 8.6840 " />
<path d="M4.7917 8.6840 L4.9345 8.6840 " />
<path d="M4.9345 8.6840 L5.0298 8.7316 " />
<path d="M5.0298 8.7316 L5.0774 8.7793 " />
<path d="M5.0774 8.7793 L5.1250 8.8745 " />
<path d="M5.1250 8.8745 L5.1250 9.1126 " />
<path d="M5.1250 9.1126 L5.0774 9.2078 " />
<path d="M5.0774 9.2078 L5.0298 9.2554 " />
<path d="M5.0298 9.2554 L4.9345 9.3031 " />
<path d="M4.9345 9.3031 L4.6488 9.3031 " />
<path d="M4.6488 9.3031 L4.5536 9.2554 " />
<path d="M4.5536 9.2554 L4.5060 9.2078 " />
<path d="M5.5060 8.3983 L5.5536 8.3507 " />
<path d="M5.5536 8.3507 L5.6488 8.3031 " />
<path d="M5.6488 8.3031 L5.8869 8.3031 " />
<path d="M5.8869 8.3031 L5.9821 8.3507 " />
<path d="M5.9821 8.3507 L6.0298 8.3983 " />
<path d="M6.0298 8.3983 L6.0774 8.4935 " />
<path d="M6.0774 8.4935 L6.0774 8.5888 " />
<path d="M6.0774 8.5888 L6.0298 8.7316 " />
<path d="M6.0298 8.7316 L5.4583 9.3031 " />
<path d="M5.4583 9.3031 L6.0774 9.3031 " />
<path d="M6.4107 8.3031 L7.0298 8.3031 " />
<path d="M7.0298 8.3031 L6.6964 8.6840 " />
<path d="M6.6964 8.6840 L6.8393 8.6840 " />
<path d="M6.8393 8.6840 L6.9345 8.7316 " />
<path d="M6.9345 8.7316 L6.9821 8.7793 " />
<path d="M6.9821 8.7793 L7.0298 8.8745 " />
<path d="M7.0298 8.8745 L7.0298 9.1126 " />
<path d="M7.0298 9.1126 L6.9821 9.2078 " />
<path d="M6.9821 9.2078 L6.9345 9.2554 " />
<path d="M6.9345 9.2554 L6.8393 9.3031 " />
<path d="M6.8393 9.3031 L6.5536 9.3031 " />
<path d="M6.5536 9.3031 L6.4583 9.2554 " />
<path d="M6.4583 9.2554 L6.4107 9.2078 " />
<path d="M7.2202 9.3983 L7.9821 9.3983 " />
<path d="M8.6964 9.3031 L8.2202 9.3031 " />
<path d="M8.2202 9.3031 L8.2202 8.3031 " />
<path d="M9.5536 9.3031 L8.9821 9.3031 " />
<path d="M9.2679 9.3031 L9.2679 8.3031 " />
<path d="M9.2679 8.3031 L9.1726 8.4459 " />
<path d="M9.1726 8.4459 L9.0774 8.5412 " />
<path d="M9.0774 8.5412 L8.9821 8.5888 " />
<path d="M9.9821 9.2078 L10.0298 9.2554 " />
<path d="M10.0298 9.2554 L9.9821 9.3031 " />
<path d="M9.9821 9.3031 L9.9345 9.2554 " />
<path d="M9.9345 9.2554 L9.9821 9.2078 " />
<path d="M9.9821 9.2078 L9.9821 9.3031 " />
<path d="M10.6012 8.7316 L10.5060 8.6840 " />
<path d="M10.5060 8.6840 L10.4583 8.6364 " />
<path d="M10.4583 8.6364 L10.4107 8.5412 " />
<path d="M10.4107 8.5412 L10.4107 8.4935 " />
<path d="M10.4107 8.4935 L10.4583 8.3983 " />
<path d="M10.4583 8.3983 L10.5060 8.3507 " />
<path d="M10.5060 8.3507 L10.6012 8.3031 " />
<path d="M10.6012 8.3031 L10.7917 8.3031 " />
<path d="M10.7917 8.3031 L10.8869 8.3507 " />
<path d="M10.8869 8.3507 L10.9345 8.3983 " />
<path d="M10.9345 8.3983 L10.9821 8.4935 " />
<path d="M10.9821 8.4935 L10.9821 8.5412 " />
<path d="M10.9821 8.5412 L10.9345 8.6364 " />
<path d="M10.9345 8.6364 L10.8869 8.6840 " />
<path d="M10.8869 8.6840 L10.7917 8.7316 " />
<path d="M10.7917 8.7316 L10.6012 8.7316 " />
<path d="M10.6012 8.7316 L10.5060 8.7793 " />
<path d="M10.5060 8.7793 L10.4583 8.8269 " />
<path d="M10.4583 8.8269 L10.4107 8.9221 " />
<path d="M10.4107 8.9221 L10.4107 9.1126 " />
<path d="M10.4107 9.1126 L10.4583 9.2078 " />
<path d="M10.4583 9.2078 L10.5060 9.2554 " />
<path d="M10.5060 9.2554 L10.6012 9.3031 " />
<path d="M10.6012 9.3031 L10.7917 9.3031 " />
<path d="M10.7917 9.3031 L10.8869 9.2554 " />
<path d="M10.8869 9.2554 L10.9345 9.2078 " />
<path d="M10.9345 9.2078 L10.9821 9.1126 " />
<path d="M10.9821 9.1126 L10.9821 8.9221 " />
<path d="M10.9821 8.9221 L10.9345 8.8269 " />
<path d="M10.9345 8.8269 L10.8869 8.7793 " />
<path d="M10.8869 8.7793 L10.7917 8.7316 " />
<path d="M11.4107 8.9221 L12.1726 8.9221 " />
<path d="M12.5536 8.3031 L12.7917 9.3031 " />
<path d="M12.7917 9.3031 L12.9821 8.5888 " />
<path d="M12.9821 8.5888 L13.1726 9.3031 " />
<path d="M13.1726 9.3031 L13.4107 8.3031 " />
<path d="M14.3155 9.3031 L13.7440 9.3031 " />
<path d="M14.0298 9.3031 L14.0298 8.3031 " />
<path d="M14.0298 8.3031 L13.9345 8.4459 " />
<path d="M13.9345 8.4459 L13.8393 8.5412 " />
<path d="M13.8393 8.5412 L13.7440 8.5888 " />
<path d="M14.7440 9.2078 L14.7917 9.2554 " />
<path d="M14.7917 9.2554 L14.7440 9.3031 " />
<path d="M14.7440 9.3031 L14.6964 9.2554 " />
<path d="M14.6964 9.2554 L14.7440 9.2078 " />
<path d="M14.7440 9.2078 L14.7440 9.3031 " />
<path d="M15.1250 8.3031 L15.7440 8.3031 " />
<path d="M15.7440 8.3031 L15.4107 8.6840 " />
<path d="M15.4107 8.6840 L15.5536 8.6840 " />
<path d="M15.5536 8.6840 L15.6488 8.7316 " />
<path d="M15.6488 8.7316 L15.6964 8.7793 " />
<path d="M15.6964 8.7793 L15.7440 8.8745 " />
<path d="M15.7440 8.8745 L15.7440 9.1126 " />
<path d="M15.7440 9.1126 L15.6964 9.2078 " />
<path d="M15.6964 9.2078 L15.6488 9.2554 " />
<path d="M15.6488 9.2554 L15.5536 9.3031 " />
<path d="M15.5536 9.3031 L15.2679 9.3031 " />
<path d="M15.2679 9.3031 L15.1726 9.2554 " />
<path d="M15.1726 9.2554 L15.1250 9.2078 " />
<path d="M16.1726 8.9221 L16.9345 8.9221 " />
<path d="M17.8869 9.3031 L17.4107 9.3031 " />
<path d="M17.4107 9.3031 L17.4107 8.3031 " />
<path d="M18.1726 9.2554 L18.3155 9.3031 " />
<path d="M18.3155 9.3031 L18.5536 9.3031 " />
<path d="M18.5536 9.3031 L18.6488 9.2554 " />
<path d="M18.6488 9.2554 L18.6964 9.2078 " />
<path d="M18.6964 9.2078 L18.7440 9.1126 " />
<path d="M18.7440 9.1126 L18.7440 9.0174 " />
<path d="M18.7440 9.0174 L18.6964 8.9221 " />
<path d="M18.6964 8.9221 L18.6488 8.8745 " />
<path d="M18.6488 8.8745 L18.5536 8.8269 " />
<path d="M18.5536 8.8269 L18.3631 8.7793 " />
<path d="M18.3631 8.7793 L18.2679 8.7316 " />
<path d="M18.2679 8.7316 L18.2202 8.6840 " />
<path d="M18.2202 8.6840 L18.1726 8.5888 " />
<path d="M18.1726 8.5888 L18.1726 8.4935 " />
<path d="M18.1726 8.4935 L18.2202 8.3983 " />
<path d="M18.2202 8.3983 L18.2679 8.3507 " />
<path d="M18.2679 8.3507 L18.3631 8.3031 " />
<path d="M18.3631 8.3031 L18.6012 8.3031 " />
<path d="M18.6012 8.3031 L18.7440 8.3507 " />
<path d="M19.1250 8.3983 L19.1726 8.3507 " />
<path d="M19.1726 8.3507 L19.2679 8.3031 " />
<path d="M19.2679 8.3031 L19.5060 8.3031 " />
<path d="M19.5060 8.3031 L19.6012 8.3507 " />
<path d="M19.6012 8.3507 L19.6488 8.3983 " />
<path d="M19.6488 8.3983 L19.6964 8.4935 " />
<path d="M19.6964 8.4935 L19.6964 8.5888 " />
<path d="M19.6964 8.5888 L19.6488 8.7316 " />
<path d="M19.6488 8.7316 L19.0774 9.3031 " />
<path d="M19.0774 9.3031 L19.6964 9.3031 " />
<path d="M20.1250 9.2078 L20.1726 9.2554 " />
<path d="M20.1726 9.2554 L20.1250 9.3031 " />
<path d="M20.1250 9.3031 L20.0774 9.2554 " />
<path d="M20.0774 9.2554 L20.1250 9.2078 " />
<path d="M20.1250 9.2078 L20.1250 9.3031 " />
<path d="M21.0774 8.3031 L20.6012 8.3031 " />
<path d="M20.6012 8.3031 L20.5536 8.7793 " />
<path d="M20.5536 8.7793 L20.6012 8.7316 " />
<path d="M20.6012 8.7316 L20.6964 8.6840 " />
<path d="M20.6964 8.6840 L20.9345 8.6840 " />
<path d="M20.9345 8.6840 L21.0298 8.7316 " />
<path d="M21.0298 8.7316 L21.0774 8.7793 " />
<path d="M21.0774 8.7793 L21.1250 8.8745 " />
<path d="M21.1250 8.8745 L21.1250 9.1126 " />
<path d="M21.1250 9.1126 L21.0774 9.2078 " />
<path d="M21.0774 9.2078 L21.0298 9.2554 " />
<path d="M21.0298 9.2554 L20.9345 9.3031 " />
<path d="M20.9345 9.3031 L20.6964 9.3031 " />
<path d="M20.6964 9.3031 L20.6012 9.2554 " />
<path d="M20.6012 9.2554 L20.5536 9.2078 " />
<path d="M21.5536 8.9221 L22.3155 8.9221 " />
<path d="M23.1250 8.7793 L22.7917 8.7793 " />
<path d="M22.7917 9.3031 L22.7917 8.3031 " />
<path d="M22.7917 8.3031 L23.2679 8.3031 " />
<path d="M23.6488 9.3031 L23.6488 8.3031 " />
<path d="M23.6488 8.3031 L23.8869 8.3031 " />
<path d="M23.8869 8.3031 L24.0298 8.3507 " />
<path d="M24.0298 8.3507 L24.1250 8.4459 " />
<path d="M24.1250 8.4459 L24.1726 8.5412 " />
<path d="M24.1726 8.5412 L24.2202 8.7316 " />
<path d="M24.2202 8.7316 L24.2202 8.8745 " />
<path d="M24.2202 8.8745 L24.1726 9.0650 " />
<path d="M24.1726 9.0650 L24.1250 9.1602 " />
<path d="M24.1250 9.1602 L24.0298 9.2554 " />
<path d="M24.0298 9.2554 L23.8869 9.3031 " />
<path d="M23.8869 9.3031 L23.6488 9.3031 " />
</g></g>
<g style="fill:none;  stroke:#000000; stroke-width:0.0600; stroke-opacity:1;  stroke-linecap:round; stroke-linejoin:round;">
<circle cx="10.9479" cy="5.4982" r="0.0300" /> 
</g> 
</svg>