<?xml version='1.0' encoding='utf-8'?>
<svg xmlns="http://www.w3.org/2000/svg" version="1.1" width="26.3398mm" height="9.6774mm" viewBox="0.0000 0.0000 26.3398 9.6774">
<title>SVG Image created as SOD-123FL_L2.8-W1.8-LS3.7-RD.svg date 2026/01/09 08:17:46 </title>
  <desc>Image generated by PCBNEW </desc>
<g style="fill:#000000; fill-opacity:1.0000;stroke:#000000; stroke-opacity:1.0000; stroke-linecap:round; stroke-linejoin:round;" transform="translate(0 0) scale(1 1)">
<path style="fill:#000000; fill-opacity:1.0000; stroke:none;fill-rule:evenodd;" d="M 14.1726,5.4482 14.1726,4.2482 15.3726,4.2482 15.3726,5.4482 Z" /> 
<path style="fill:#000000; fill-opacity:1.0000; stroke:none;fill-rule:evenodd;" d="M 10.9726,5.4482 10.9726,4.2482 12.1726,4.2482 12.1726,5.4482 Z" /> 
<path style="fill:#000000; fill-opacity:1.0000; stroke:none;fill-rule:evenodd;" d="M 14.1726,5.4482 14.1726,4.2482 15.3726,4.2482 15.3726,5.4482 Z" /> 
<path style="fill:#000000; fill-opacity:1.0000; stroke:none;fill-rule:evenodd;" d="M 10.9726,5.4482 10.9726,4.2482 12.1726,4.2482 12.1726,5.4482 Z" /> 
<path style="fill:#000000; fill-opacity:1.0000; stroke:none;fill-rule:evenodd;" d="M 14.1726,5.4482 14.1726,4.2482 15.3726,4.2482 15.3726,5.4482 Z" /> 
<path style="fill:#000000; fill-opacity:1.0000; stroke:none;fill-rule:evenodd;" d="M 10.9726,5.4482 10.9726,4.2482 12.1726,4.2482 12.1726,5.4482 Z" /> 
</g>
<g style="fill:none;  stroke:#000000; stroke-width:0.1500; stroke-opacity:1;  stroke-linecap:round; stroke-linejoin:round;">
<path d="M11.5826 4.0682 L11.2726 4.0682 " />
<path d="M11.5826 5.6282 L11.2726 5.6282 " />
<path d="M11.4826 5.6282 L11.4826 5.8483 " />
<path d="M11.4826 3.8482 L11.4826 4.0682 " />
<path d="M11.3826 4.0682 L11.3826 3.8482 " />
<path d="M11.3826 5.8483 L11.3826 5.6282 " />
<path d="M11.5826 5.6282 L11.5826 5.8483 " />
<path d="M11.5826 3.8482 L11.5826 4.0682 " />
<path d="M14.9726 4.0682 L14.9726 3.8482 " />
<path d="M14.9726 3.8482 L14.3726 3.8482 " />
<path d="M11.2726 5.6282 L11.2726 5.8483 " />
<path d="M11.2726 5.8483 L14.7726 5.8483 " />
<path d="M14.7726 5.8483 L14.9726 5.8483 " />
<path d="M14.9726 5.8483 L14.9726 5.6282 " />
<path d="M14.5726 3.8482 L11.2726 3.8482 " />
<path d="M11.2726 3.8482 L11.2726 4.0682 " />
</g>
<g style="fill:none;  stroke:#000000; stroke-width:0.2500; stroke-opacity:1;  stroke-linecap:round; stroke-linejoin:round;">
<path d="M12.6626 4.8483 L13.6826 4.4383 " />
<path d="M13.6826 4.4383 L13.6826 5.2482 " />
<path d="M13.6826 5.2482 L12.6626 4.8483 " />
</g>
<g style="fill:none;  stroke:#000000; stroke-width:0.1500; stroke-opacity:1;  stroke-linecap:round; stroke-linejoin:round;">
<text x="13.1726" y="9.3483" textLength="26.3452" font-size="1.3333" lengthAdjust="spacingAndGlyphs" text-anchor="middle" opacity="0" stroke-opacity="0">SOD-123FL_L2.8-W1.8-LS3.7-RD</text>
<g class="stroked-text"><desc>SOD-123FL_L2.8-W1.8-LS3.7-RD</desc>
<path d="M0.3155 9.2554 L0.4583 9.3031 " />
<path d="M0.4583 9.3031 L0.6964 9.3031 " />
<path d="M0.6964 9.3031 L0.7917 9.2554 " />
<path d="M0.7917 9.2554 L0.8393 9.2078 " />
<path d="M0.8393 9.2078 L0.8869 9.1126 " />
<path d="M0.8869 9.1126 L0.8869 9.0174 " />
<path d="M0.8869 9.0174 L0.8393 8.9221 " />
<path d="M0.8393 8.9221 L0.7917 8.8745 " />
<path d="M0.7917 8.8745 L0.6964 8.8269 " />
<path d="M0.6964 8.8269 L0.5060 8.7793 " />
<path d="M0.5060 8.7793 L0.4107 8.7316 " />
<path d="M0.4107 8.7316 L0.3631 8.6840 " />
<path d="M0.3631 8.6840 L0.3155 8.5888 " />
<path d="M0.3155 8.5888 L0.3155 8.4935 " />
<path d="M0.3155 8.4935 L0.3631 8.3983 " />
<path d="M0.3631 8.3983 L0.4107 8.3507 " />
<path d="M0.4107 8.3507 L0.5060 8.3031 " />
<path d="M0.5060 8.3031 L0.7440 8.3031 " />
<path d="M0.7440 8.3031 L0.8869 8.3507 " />
<path d="M1.5060 8.3031 L1.6964 8.3031 " />
<path d="M1.6964 8.3031 L1.7917 8.3507 " />
<path d="M1.7917 8.3507 L1.8869 8.4459 " />
<path d="M1.8869 8.4459 L1.9345 8.6364 " />
<path d="M1.9345 8.6364 L1.9345 8.9697 " />
<path d="M1.9345 8.9697 L1.8869 9.1602 " />
<path d="M1.8869 9.1602 L1.7917 9.2554 " />
<path d="M1.7917 9.2554 L1.6964 9.3031 " />
<path d="M1.6964 9.3031 L1.5060 9.3031 " />
<path d="M1.5060 9.3031 L1.4107 9.2554 " />
<path d="M1.4107 9.2554 L1.3155 9.1602 " />
<path d="M1.3155 9.1602 L1.2679 8.9697 " />
<path d="M1.2679 8.9697 L1.2679 8.6364 " />
<path d="M1.2679 8.6364 L1.3155 8.4459 " />
<path d="M1.3155 8.4459 L1.4107 8.3507 " />
<path d="M1.4107 8.3507 L1.5060 8.3031 " />
<path d="M2.3631 9.3031 L2.3631 8.3031 " />
<path d="M2.3631 8.3031 L2.6012 8.3031 " />
<path d="M2.6012 8.3031 L2.7440 8.3507 " />
<path d="M2.7440 8.3507 L2.8393 8.4459 " />
<path d="M2.8393 8.4459 L2.8869 8.5412 " />
<path d="M2.8869 8.5412 L2.9345 8.7316 " />
<path d="M2.9345 8.7316 L2.9345 8.8745 " />
<path d="M2.9345 8.8745 L2.8869 9.0650 " />
<path d="M2.8869 9.0650 L2.8393 9.1602 " />
<path d="M2.8393 9.1602 L2.7440 9.2554 " />
<path d="M2.7440 9.2554 L2.6012 9.3031 " />
<path d="M2.6012 9.3031 L2.3631 9.3031 " />
<path d="M3.3631 8.9221 L4.1250 8.9221 " />
<path d="M5.1250 9.3031 L4.5536 9.3031 " />
<path d="M4.8393 9.3031 L4.8393 8.3031 " />
<path d="M4.8393 8.3031 L4.7440 8.4459 " />
<path d="M4.7440 8.4459 L4.6488 8.5412 " />
<path d="M4.6488 8.5412 L4.5536 8.5888 " />
<path d="M5.5060 8.3983 L5.5536 8.3507 " />
<path d="M5.5536 8.3507 L5.6488 8.3031 " />
<path d="M5.6488 8.3031 L5.8869 8.3031 " />
<path d="M5.8869 8.3031 L5.9821 8.3507 " />
<path d="M5.9821 8.3507 L6.0298 8.3983 " />
<path d="M6.0298 8.3983 L6.0774 8.4935 " />
<path d="M6.0774 8.4935 L6.0774 8.5888 " />
<path d="M6.0774 8.5888 L6.0298 8.7316 " />
<path d="M6.0298 8.7316 L5.4583 9.3031 " />
<path d="M5.4583 9.3031 L6.0774 9.3031 " />
<path d="M6.4107 8.3031 L7.0298 8.3031 " />
<path d="M7.0298 8.3031 L6.6964 8.6840 " />
<path d="M6.6964 8.6840 L6.8393 8.6840 " />
<path d="M6.8393 8.6840 L6.9345 8.7316 " />
<path d="M6.9345 8.7316 L6.9821 8.7793 " />
<path d="M6.9821 8.7793 L7.0298 8.8745 " />
<path d="M7.0298 8.8745 L7.0298 9.1126 " />
<path d="M7.0298 9.1126 L6.9821 9.2078 " />
<path d="M6.9821 9.2078 L6.9345 9.2554 " />
<path d="M6.9345 9.2554 L6.8393 9.3031 " />
<path d="M6.8393 9.3031 L6.5536 9.3031 " />
<path d="M6.5536 9.3031 L6.4583 9.2554 " />
<path d="M6.4583 9.2554 L6.4107 9.2078 " />
<path d="M7.7917 8.7793 L7.4583 8.7793 " />
<path d="M7.4583 9.3031 L7.4583 8.3031 " />
<path d="M7.4583 8.3031 L7.9345 8.3031 " />
<path d="M8.7917 9.3031 L8.3155 9.3031 " />
<path d="M8.3155 9.3031 L8.3155 8.3031 " />
<path d="M8.8869 9.3983 L9.6488 9.3983 " />
<path d="M10.3631 9.3031 L9.8869 9.3031 " />
<path d="M9.8869 9.3031 L9.8869 8.3031 " />
<path d="M10.6488 8.3983 L10.6964 8.3507 " />
<path d="M10.6964 8.3507 L10.7917 8.3031 " />
<path d="M10.7917 8.3031 L11.0298 8.3031 " />
<path d="M11.0298 8.3031 L11.1250 8.3507 " />
<path d="M11.1250 8.3507 L11.1726 8.3983 " />
<path d="M11.1726 8.3983 L11.2202 8.4935 " />
<path d="M11.2202 8.4935 L11.2202 8.5888 " />
<path d="M11.2202 8.5888 L11.1726 8.7316 " />
<path d="M11.1726 8.7316 L10.6012 9.3031 " />
<path d="M10.6012 9.3031 L11.2202 9.3031 " />
<path d="M11.6488 9.2078 L11.6964 9.2554 " />
<path d="M11.6964 9.2554 L11.6488 9.3031 " />
<path d="M11.6488 9.3031 L11.6012 9.2554 " />
<path d="M11.6012 9.2554 L11.6488 9.2078 " />
<path d="M11.6488 9.2078 L11.6488 9.3031 " />
<path d="M12.2679 8.7316 L12.1726 8.6840 " />
<path d="M12.1726 8.6840 L12.1250 8.6364 " />
<path d="M12.1250 8.6364 L12.0774 8.5412 " />
<path d="M12.0774 8.5412 L12.0774 8.4935 " />
<path d="M12.0774 8.4935 L12.1250 8.3983 " />
<path d="M12.1250 8.3983 L12.1726 8.3507 " />
<path d="M12.1726 8.3507 L12.2679 8.3031 " />
<path d="M12.2679 8.3031 L12.4583 8.3031 " />
<path d="M12.4583 8.3031 L12.5536 8.3507 " />
<path d="M12.5536 8.3507 L12.6012 8.3983 " />
<path d="M12.6012 8.3983 L12.6488 8.4935 " />
<path d="M12.6488 8.4935 L12.6488 8.5412 " />
<path d="M12.6488 8.5412 L12.6012 8.6364 " />
<path d="M12.6012 8.6364 L12.5536 8.6840 " />
<path d="M12.5536 8.6840 L12.4583 8.7316 " />
<path d="M12.4583 8.7316 L12.2679 8.7316 " />
<path d="M12.2679 8.7316 L12.1726 8.7793 " />
<path d="M12.1726 8.7793 L12.1250 8.8269 " />
<path d="M12.1250 8.8269 L12.0774 8.9221 " />
<path d="M12.0774 8.9221 L12.0774 9.1126 " />
<path d="M12.0774 9.1126 L12.1250 9.2078 " />
<path d="M12.1250 9.2078 L12.1726 9.2554 " />
<path d="M12.1726 9.2554 L12.2679 9.3031 " />
<path d="M12.2679 9.3031 L12.4583 9.3031 " />
<path d="M12.4583 9.3031 L12.5536 9.2554 " />
<path d="M12.5536 9.2554 L12.6012 9.2078 " />
<path d="M12.6012 9.2078 L12.6488 9.1126 " />
<path d="M12.6488 9.1126 L12.6488 8.9221 " />
<path d="M12.6488 8.9221 L12.6012 8.8269 " />
<path d="M12.6012 8.8269 L12.5536 8.7793 " />
<path d="M12.5536 8.7793 L12.4583 8.7316 " />
<path d="M13.0774 8.9221 L13.8393 8.9221 " />
<path d="M14.2202 8.3031 L14.4583 9.3031 " />
<path d="M14.4583 9.3031 L14.6488 8.5888 " />
<path d="M14.6488 8.5888 L14.8393 9.3031 " />
<path d="M14.8393 9.3031 L15.0774 8.3031 " />
<path d="M15.9821 9.3031 L15.4107 9.3031 " />
<path d="M15.6964 9.3031 L15.6964 8.3031 " />
<path d="M15.6964 8.3031 L15.6012 8.4459 " />
<path d="M15.6012 8.4459 L15.5060 8.5412 " />
<path d="M15.5060 8.5412 L15.4107 8.5888 " />
<path d="M16.4107 9.2078 L16.4583 9.2554 " />
<path d="M16.4583 9.2554 L16.4107 9.3031 " />
<path d="M16.4107 9.3031 L16.3631 9.2554 " />
<path d="M16.3631 9.2554 L16.4107 9.2078 " />
<path d="M16.4107 9.2078 L16.4107 9.3031 " />
<path d="M17.0298 8.7316 L16.9345 8.6840 " />
<path d="M16.9345 8.6840 L16.8869 8.6364 " />
<path d="M16.8869 8.6364 L16.8393 8.5412 " />
<path d="M16.8393 8.5412 L16.8393 8.4935 " />
<path d="M16.8393 8.4935 L16.8869 8.3983 " />
<path d="M16.8869 8.3983 L16.9345 8.3507 " />
<path d="M16.9345 8.3507 L17.0298 8.3031 " />
<path d="M17.0298 8.3031 L17.2202 8.3031 " />
<path d="M17.2202 8.3031 L17.3155 8.3507 " />
<path d="M17.3155 8.3507 L17.3631 8.3983 " />
<path d="M17.3631 8.3983 L17.4107 8.4935 " />
<path d="M17.4107 8.4935 L17.4107 8.5412 " />
<path d="M17.4107 8.5412 L17.3631 8.6364 " />
<path d="M17.3631 8.6364 L17.3155 8.6840 " />
<path d="M17.3155 8.6840 L17.2202 8.7316 " />
<path d="M17.2202 8.7316 L17.0298 8.7316 " />
<path d="M17.0298 8.7316 L16.9345 8.7793 " />
<path d="M16.9345 8.7793 L16.8869 8.8269 " />
<path d="M16.8869 8.8269 L16.8393 8.9221 " />
<path d="M16.8393 8.9221 L16.8393 9.1126 " />
<path d="M16.8393 9.1126 L16.8869 9.2078 " />
<path d="M16.8869 9.2078 L16.9345 9.2554 " />
<path d="M16.9345 9.2554 L17.0298 9.3031 " />
<path d="M17.0298 9.3031 L17.2202 9.3031 " />
<path d="M17.2202 9.3031 L17.3155 9.2554 " />
<path d="M17.3155 9.2554 L17.3631 9.2078 " />
<path d="M17.3631 9.2078 L17.4107 9.1126 " />
<path d="M17.4107 9.1126 L17.4107 8.9221 " />
<path d="M17.4107 8.9221 L17.3631 8.8269 " />
<path d="M17.3631 8.8269 L17.3155 8.7793 " />
<path d="M17.3155 8.7793 L17.2202 8.7316 " />
<path d="M17.8393 8.9221 L18.6012 8.9221 " />
<path d="M19.5536 9.3031 L19.0774 9.3031 " />
<path d="M19.0774 9.3031 L19.0774 8.3031 " />
<path d="M19.8393 9.2554 L19.9821 9.3031 " />
<path d="M19.9821 9.3031 L20.2202 9.3031 " />
<path d="M20.2202 9.3031 L20.3155 9.2554 " />
<path d="M20.3155 9.2554 L20.3631 9.2078 " />
<path d="M20.3631 9.2078 L20.4107 9.1126 " />
<path d="M20.4107 9.1126 L20.4107 9.0174 " />
<path d="M20.4107 9.0174 L20.3631 8.9221 " />
<path d="M20.3631 8.9221 L20.3155 8.8745 " />
<path d="M20.3155 8.8745 L20.2202 8.8269 " />
<path d="M20.2202 8.8269 L20.0298 8.7793 " />
<path d="M20.0298 8.7793 L19.9345 8.7316 " />
<path d="M19.9345 8.7316 L19.8869 8.6840 " />
<path d="M19.8869 8.6840 L19.8393 8.5888 " />
<path d="M19.8393 8.5888 L19.8393 8.4935 " />
<path d="M19.8393 8.4935 L19.8869 8.3983 " />
<path d="M19.8869 8.3983 L19.9345 8.3507 " />
<path d="M19.9345 8.3507 L20.0298 8.3031 " />
<path d="M20.0298 8.3031 L20.2679 8.3031 " />
<path d="M20.2679 8.3031 L20.4107 8.3507 " />
<path d="M20.7440 8.3031 L21.3631 8.3031 " />
<path d="M21.3631 8.3031 L21.0298 8.6840 " />
<path d="M21.0298 8.6840 L21.1726 8.6840 " />
<path d="M21.1726 8.6840 L21.2679 8.7316 " />
<path d="M21.2679 8.7316 L21.3155 8.7793 " />
<path d="M21.3155 8.7793 L21.3631 8.8745 " />
<path d="M21.3631 8.8745 L21.3631 9.1126 " />
<path d="M21.3631 9.1126 L21.3155 9.2078 " />
<path d="M21.3155 9.2078 L21.2679 9.2554 " />
<path d="M21.2679 9.2554 L21.1726 9.3031 " />
<path d="M21.1726 9.3031 L20.8869 9.3031 " />
<path d="M20.8869 9.3031 L20.7917 9.2554 " />
<path d="M20.7917 9.2554 L20.7440 9.2078 " />
<path d="M21.7917 9.2078 L21.8393 9.2554 " />
<path d="M21.8393 9.2554 L21.7917 9.3031 " />
<path d="M21.7917 9.3031 L21.7440 9.2554 " />
<path d="M21.7440 9.2554 L21.7917 9.2078 " />
<path d="M21.7917 9.2078 L21.7917 9.3031 " />
<path d="M22.1726 8.3031 L22.8393 8.3031 " />
<path d="M22.8393 8.3031 L22.4107 9.3031 " />
<path d="M23.2202 8.9221 L23.9821 8.9221 " />
<path d="M25.0298 9.3031 L24.6964 8.8269 " />
<path d="M24.4583 9.3031 L24.4583 8.3031 " />
<path d="M24.4583 8.3031 L24.8393 8.3031 " />
<path d="M24.8393 8.3031 L24.9345 8.3507 " />
<path d="M24.9345 8.3507 L24.9821 8.3983 " />
<path d="M24.9821 8.3983 L25.0298 8.4935 " />
<path d="M25.0298 8.4935 L25.0298 8.6364 " />
<path d="M25.0298 8.6364 L24.9821 8.7316 " />
<path d="M24.9821 8.7316 L24.9345 8.7793 " />
<path d="M24.9345 8.7793 L24.8393 8.8269 " />
<path d="M24.8393 8.8269 L24.4583 8.8269 " />
<path d="M25.4583 9.3031 L25.4583 8.3031 " />
<path d="M25.4583 8.3031 L25.6964 8.3031 " />
<path d="M25.6964 8.3031 L25.8393 8.3507 " />
<path d="M25.8393 8.3507 L25.9345 8.4459 " />
<path d="M25.9345 8.4459 L25.9821 8.5412 " />
<path d="M25.9821 8.5412 L26.0298 8.7316 " />
<path d="M26.0298 8.7316 L26.0298 8.8745 " />
<path d="M26.0298 8.8745 L25.9821 9.0650 " />
<path d="M25.9821 9.0650 L25.9345 9.1602 " />
<path d="M25.9345 9.1602 L25.8393 9.2554 " />
<path d="M25.8393 9.2554 L25.6964 9.3031 " />
<path d="M25.6964 9.3031 L25.4583 9.3031 " />
</g></g>
<g style="fill:none;  stroke:#000000; stroke-width:0.0600; stroke-opacity:1;  stroke-linecap:round; stroke-linejoin:round;">
<circle cx="11.3226" cy="5.7482" r="0.0300" /> 
</g> 
</svg>