<?xml version='1.0' encoding='utf-8'?>
<svg xmlns="http://www.w3.org/2000/svg" version="1.1" width="28.1432mm" height="15.0368mm" viewBox="0.0000 0.0000 28.1432 15.0368">
<title>SVG Image created as SOP-8_L4.9-W3.9-P1.27-LS6.0-BL.svg date 2026/01/09 08:17:46 </title>
  <desc>Image generated by PCBNEW </desc>
<g style="fill:#000000; fill-opacity:1.0000;stroke:#000000; stroke-opacity:1.0000; stroke-linecap:round; stroke-linejoin:round;" transform="translate(0 0) scale(1 1)">
</g>
<g style="fill:none;  stroke:#000000; stroke-width:0.6300; stroke-opacity:1;  stroke-linecap:round; stroke-linejoin:round;">
<path d="M12.1674 9.5932 L12.1674 10.8232 " />
<path d="M13.4474 9.5932 L13.4474 10.8232 " />
<path d="M14.7074 9.5932 L14.7074 10.8232 " />
<path d="M15.9774 9.5932 L15.9774 10.8232 " />
<path d="M12.1674 4.2332 L12.1674 5.4632 " />
<path d="M13.4474 4.2332 L13.4474 5.4632 " />
<path d="M14.7074 4.2332 L14.7074 5.4632 " />
<path d="M15.9774 4.2332 L15.9774 5.4632 " />
<path d="M12.1674 9.5932 L12.1674 10.8232 " />
<path d="M13.4474 9.5932 L13.4474 10.8232 " />
<path d="M14.7074 9.5932 L14.7074 10.8232 " />
<path d="M15.9774 9.5932 L15.9774 10.8232 " />
<path d="M12.1674 4.2332 L12.1674 5.4632 " />
<path d="M13.4474 4.2332 L13.4474 5.4632 " />
<path d="M14.7074 4.2332 L14.7074 5.4632 " />
<path d="M15.9774 4.2332 L15.9774 5.4632 " />
<path d="M12.1674 9.5932 L12.1674 10.8232 " />
<path d="M13.4474 9.5932 L13.4474 10.8232 " />
<path d="M14.7074 9.5932 L14.7074 10.8232 " />
<path d="M15.9774 9.5932 L15.9774 10.8232 " />
<path d="M12.1674 4.2332 L12.1674 5.4632 " />
<path d="M13.4474 4.2332 L13.4474 5.4632 " />
<path d="M14.7074 4.2332 L14.7074 5.4632 " />
<path d="M15.9774 4.2332 L15.9774 5.4632 " />
</g>
<g style="fill:none;  stroke:#000000; stroke-width:0.1500; stroke-opacity:1;  stroke-linecap:round; stroke-linejoin:round;">
</g>
<g style="fill:none;  stroke:#000000; stroke-width:0.2500; stroke-opacity:1;  stroke-linecap:round; stroke-linejoin:round;">
<path d="M16.5774 9.0282 L16.5774 6.0482 " />
<path d="M11.5774 8.1582 L11.5774 9.0282 " />
<path d="M11.5774 6.8982 L11.5774 6.0482 " />
<path d="M11.5774 9.0282 L16.5774 9.0282 " />
<path d="M11.5774 6.0482 L16.5774 6.0482 " />
</g>
<g style="fill:none;  stroke:#000000; stroke-width:0.3000; stroke-opacity:1;  stroke-linecap:round; stroke-linejoin:round;">
<circle cx="12.1674" cy="8.5482" r="0.1500" /> 
</g>
<g style="fill:none;  stroke:#000000; stroke-width:0.2500; stroke-opacity:1;  stroke-linecap:round; stroke-linejoin:round;">
<path d="M11.5826 8.1573 A0.6395 0.6395 0.0 0 0 11.5774 6.8982" />
</g>
<g style="fill:none;  stroke:#000000; stroke-width:0.1500; stroke-opacity:1;  stroke-linecap:round; stroke-linejoin:round;">
<text x="14.0774" y="14.7082" textLength="28.1548" font-size="1.3333" lengthAdjust="spacingAndGlyphs" text-anchor="middle" opacity="0" stroke-opacity="0">SOP-8_L4.9-W3.9-P1.27-LS6.0-BL</text>
<g class="stroked-text"><desc>SOP-8_L4.9-W3.9-P1.27-LS6.0-BL</desc>
<path d="M0.3155 14.6154 L0.4583 14.6631 " />
<path d="M0.4583 14.6631 L0.6964 14.6631 " />
<path d="M0.6964 14.6631 L0.7917 14.6154 " />
<path d="M0.7917 14.6154 L0.8393 14.5678 " />
<path d="M0.8393 14.5678 L0.8869 14.4726 " />
<path d="M0.8869 14.4726 L0.8869 14.3774 " />
<path d="M0.8869 14.3774 L0.8393 14.2821 " />
<path d="M0.8393 14.2821 L0.7917 14.2345 " />
<path d="M0.7917 14.2345 L0.6964 14.1869 " />
<path d="M0.6964 14.1869 L0.5060 14.1393 " />
<path d="M0.5060 14.1393 L0.4107 14.0916 " />
<path d="M0.4107 14.0916 L0.3631 14.0440 " />
<path d="M0.3631 14.0440 L0.3155 13.9488 " />
<path d="M0.3155 13.9488 L0.3155 13.8535 " />
<path d="M0.3155 13.8535 L0.3631 13.7583 " />
<path d="M0.3631 13.7583 L0.4107 13.7107 " />
<path d="M0.4107 13.7107 L0.5060 13.6631 " />
<path d="M0.5060 13.6631 L0.7440 13.6631 " />
<path d="M0.7440 13.6631 L0.8869 13.7107 " />
<path d="M1.5060 13.6631 L1.6964 13.6631 " />
<path d="M1.6964 13.6631 L1.7917 13.7107 " />
<path d="M1.7917 13.7107 L1.8869 13.8059 " />
<path d="M1.8869 13.8059 L1.9345 13.9964 " />
<path d="M1.9345 13.9964 L1.9345 14.3297 " />
<path d="M1.9345 14.3297 L1.8869 14.5202 " />
<path d="M1.8869 14.5202 L1.7917 14.6154 " />
<path d="M1.7917 14.6154 L1.6964 14.6631 " />
<path d="M1.6964 14.6631 L1.5060 14.6631 " />
<path d="M1.5060 14.6631 L1.4107 14.6154 " />
<path d="M1.4107 14.6154 L1.3155 14.5202 " />
<path d="M1.3155 14.5202 L1.2679 14.3297 " />
<path d="M1.2679 14.3297 L1.2679 13.9964 " />
<path d="M1.2679 13.9964 L1.3155 13.8059 " />
<path d="M1.3155 13.8059 L1.4107 13.7107 " />
<path d="M1.4107 13.7107 L1.5060 13.6631 " />
<path d="M2.3631 14.6631 L2.3631 13.6631 " />
<path d="M2.3631 13.6631 L2.7440 13.6631 " />
<path d="M2.7440 13.6631 L2.8393 13.7107 " />
<path d="M2.8393 13.7107 L2.8869 13.7583 " />
<path d="M2.8869 13.7583 L2.9345 13.8535 " />
<path d="M2.9345 13.8535 L2.9345 13.9964 " />
<path d="M2.9345 13.9964 L2.8869 14.0916 " />
<path d="M2.8869 14.0916 L2.8393 14.1393 " />
<path d="M2.8393 14.1393 L2.7440 14.1869 " />
<path d="M2.7440 14.1869 L2.3631 14.1869 " />
<path d="M3.3631 14.2821 L4.1250 14.2821 " />
<path d="M4.7440 14.0916 L4.6488 14.0440 " />
<path d="M4.6488 14.0440 L4.6012 13.9964 " />
<path d="M4.6012 13.9964 L4.5536 13.9012 " />
<path d="M4.5536 13.9012 L4.5536 13.8535 " />
<path d="M4.5536 13.8535 L4.6012 13.7583 " />
<path d="M4.6012 13.7583 L4.6488 13.7107 " />
<path d="M4.6488 13.7107 L4.7440 13.6631 " />
<path d="M4.7440 13.6631 L4.9345 13.6631 " />
<path d="M4.9345 13.6631 L5.0298 13.7107 " />
<path d="M5.0298 13.7107 L5.0774 13.7583 " />
<path d="M5.0774 13.7583 L5.1250 13.8535 " />
<path d="M5.1250 13.8535 L5.1250 13.9012 " />
<path d="M5.1250 13.9012 L5.0774 13.9964 " />
<path d="M5.0774 13.9964 L5.0298 14.0440 " />
<path d="M5.0298 14.0440 L4.9345 14.0916 " />
<path d="M4.9345 14.0916 L4.7440 14.0916 " />
<path d="M4.7440 14.0916 L4.6488 14.1393 " />
<path d="M4.6488 14.1393 L4.6012 14.1869 " />
<path d="M4.6012 14.1869 L4.5536 14.2821 " />
<path d="M4.5536 14.2821 L4.5536 14.4726 " />
<path d="M4.5536 14.4726 L4.6012 14.5678 " />
<path d="M4.6012 14.5678 L4.6488 14.6154 " />
<path d="M4.6488 14.6154 L4.7440 14.6631 " />
<path d="M4.7440 14.6631 L4.9345 14.6631 " />
<path d="M4.9345 14.6631 L5.0298 14.6154 " />
<path d="M5.0298 14.6154 L5.0774 14.5678 " />
<path d="M5.0774 14.5678 L5.1250 14.4726 " />
<path d="M5.1250 14.4726 L5.1250 14.2821 " />
<path d="M5.1250 14.2821 L5.0774 14.1869 " />
<path d="M5.0774 14.1869 L5.0298 14.1393 " />
<path d="M5.0298 14.1393 L4.9345 14.0916 " />
<path d="M5.3155 14.7583 L6.0774 14.7583 " />
<path d="M6.7917 14.6631 L6.3155 14.6631 " />
<path d="M6.3155 14.6631 L6.3155 13.6631 " />
<path d="M7.5536 13.9964 L7.5536 14.6631 " />
<path d="M7.3155 13.6154 L7.0774 14.3297 " />
<path d="M7.0774 14.3297 L7.6964 14.3297 " />
<path d="M8.0774 14.5678 L8.1250 14.6154 " />
<path d="M8.1250 14.6154 L8.0774 14.6631 " />
<path d="M8.0774 14.6631 L8.0298 14.6154 " />
<path d="M8.0298 14.6154 L8.0774 14.5678 " />
<path d="M8.0774 14.5678 L8.0774 14.6631 " />
<path d="M8.6012 14.6631 L8.7917 14.6631 " />
<path d="M8.7917 14.6631 L8.8869 14.6154 " />
<path d="M8.8869 14.6154 L8.9345 14.5678 " />
<path d="M8.9345 14.5678 L9.0298 14.4250 " />
<path d="M9.0298 14.4250 L9.0774 14.2345 " />
<path d="M9.0774 14.2345 L9.0774 13.8535 " />
<path d="M9.0774 13.8535 L9.0298 13.7583 " />
<path d="M9.0298 13.7583 L8.9821 13.7107 " />
<path d="M8.9821 13.7107 L8.8869 13.6631 " />
<path d="M8.8869 13.6631 L8.6964 13.6631 " />
<path d="M8.6964 13.6631 L8.6012 13.7107 " />
<path d="M8.6012 13.7107 L8.5536 13.7583 " />
<path d="M8.5536 13.7583 L8.5060 13.8535 " />
<path d="M8.5060 13.8535 L8.5060 14.0916 " />
<path d="M8.5060 14.0916 L8.5536 14.1869 " />
<path d="M8.5536 14.1869 L8.6012 14.2345 " />
<path d="M8.6012 14.2345 L8.6964 14.2821 " />
<path d="M8.6964 14.2821 L8.8869 14.2821 " />
<path d="M8.8869 14.2821 L8.9821 14.2345 " />
<path d="M8.9821 14.2345 L9.0298 14.1869 " />
<path d="M9.0298 14.1869 L9.0774 14.0916 " />
<path d="M9.5060 14.2821 L10.2679 14.2821 " />
<path d="M10.6488 13.6631 L10.8869 14.6631 " />
<path d="M10.8869 14.6631 L11.0774 13.9488 " />
<path d="M11.0774 13.9488 L11.2679 14.6631 " />
<path d="M11.2679 14.6631 L11.5060 13.6631 " />
<path d="M11.7917 13.6631 L12.4107 13.6631 " />
<path d="M12.4107 13.6631 L12.0774 14.0440 " />
<path d="M12.0774 14.0440 L12.2202 14.0440 " />
<path d="M12.2202 14.0440 L12.3155 14.0916 " />
<path d="M12.3155 14.0916 L12.3631 14.1393 " />
<path d="M12.3631 14.1393 L12.4107 14.2345 " />
<path d="M12.4107 14.2345 L12.4107 14.4726 " />
<path d="M12.4107 14.4726 L12.3631 14.5678 " />
<path d="M12.3631 14.5678 L12.3155 14.6154 " />
<path d="M12.3155 14.6154 L12.2202 14.6631 " />
<path d="M12.2202 14.6631 L11.9345 14.6631 " />
<path d="M11.9345 14.6631 L11.8393 14.6154 " />
<path d="M11.8393 14.6154 L11.7917 14.5678 " />
<path d="M12.8393 14.5678 L12.8869 14.6154 " />
<path d="M12.8869 14.6154 L12.8393 14.6631 " />
<path d="M12.8393 14.6631 L12.7917 14.6154 " />
<path d="M12.7917 14.6154 L12.8393 14.5678 " />
<path d="M12.8393 14.5678 L12.8393 14.6631 " />
<path d="M13.3631 14.6631 L13.5536 14.6631 " />
<path d="M13.5536 14.6631 L13.6488 14.6154 " />
<path d="M13.6488 14.6154 L13.6964 14.5678 " />
<path d="M13.6964 14.5678 L13.7917 14.4250 " />
<path d="M13.7917 14.4250 L13.8393 14.2345 " />
<path d="M13.8393 14.2345 L13.8393 13.8535 " />
<path d="M13.8393 13.8535 L13.7917 13.7583 " />
<path d="M13.7917 13.7583 L13.7440 13.7107 " />
<path d="M13.7440 13.7107 L13.6488 13.6631 " />
<path d="M13.6488 13.6631 L13.4583 13.6631 " />
<path d="M13.4583 13.6631 L13.3631 13.7107 " />
<path d="M13.3631 13.7107 L13.3155 13.7583 " />
<path d="M13.3155 13.7583 L13.2679 13.8535 " />
<path d="M13.2679 13.8535 L13.2679 14.0916 " />
<path d="M13.2679 14.0916 L13.3155 14.1869 " />
<path d="M13.3155 14.1869 L13.3631 14.2345 " />
<path d="M13.3631 14.2345 L13.4583 14.2821 " />
<path d="M13.4583 14.2821 L13.6488 14.2821 " />
<path d="M13.6488 14.2821 L13.7440 14.2345 " />
<path d="M13.7440 14.2345 L13.7917 14.1869 " />
<path d="M13.7917 14.1869 L13.8393 14.0916 " />
<path d="M14.2679 14.2821 L15.0298 14.2821 " />
<path d="M15.5060 14.6631 L15.5060 13.6631 " />
<path d="M15.5060 13.6631 L15.8869 13.6631 " />
<path d="M15.8869 13.6631 L15.9821 13.7107 " />
<path d="M15.9821 13.7107 L16.0298 13.7583 " />
<path d="M16.0298 13.7583 L16.0774 13.8535 " />
<path d="M16.0774 13.8535 L16.0774 13.9964 " />
<path d="M16.0774 13.9964 L16.0298 14.0916 " />
<path d="M16.0298 14.0916 L15.9821 14.1393 " />
<path d="M15.9821 14.1393 L15.8869 14.1869 " />
<path d="M15.8869 14.1869 L15.5060 14.1869 " />
<path d="M17.0298 14.6631 L16.4583 14.6631 " />
<path d="M16.7440 14.6631 L16.7440 13.6631 " />
<path d="M16.7440 13.6631 L16.6488 13.8059 " />
<path d="M16.6488 13.8059 L16.5536 13.9012 " />
<path d="M16.5536 13.9012 L16.4583 13.9488 " />
<path d="M17.4583 14.5678 L17.5060 14.6154 " />
<path d="M17.5060 14.6154 L17.4583 14.6631 " />
<path d="M17.4583 14.6631 L17.4107 14.6154 " />
<path d="M17.4107 14.6154 L17.4583 14.5678 " />
<path d="M17.4583 14.5678 L17.4583 14.6631 " />
<path d="M17.8869 13.7583 L17.9345 13.7107 " />
<path d="M17.9345 13.7107 L18.0298 13.6631 " />
<path d="M18.0298 13.6631 L18.2679 13.6631 " />
<path d="M18.2679 13.6631 L18.3631 13.7107 " />
<path d="M18.3631 13.7107 L18.4107 13.7583 " />
<path d="M18.4107 13.7583 L18.4583 13.8535 " />
<path d="M18.4583 13.8535 L18.4583 13.9488 " />
<path d="M18.4583 13.9488 L18.4107 14.0916 " />
<path d="M18.4107 14.0916 L17.8393 14.6631 " />
<path d="M17.8393 14.6631 L18.4583 14.6631 " />
<path d="M18.7917 13.6631 L19.4583 13.6631 " />
<path d="M19.4583 13.6631 L19.0298 14.6631 " />
<path d="M19.8393 14.2821 L20.6012 14.2821 " />
<path d="M21.5536 14.6631 L21.0774 14.6631 " />
<path d="M21.0774 14.6631 L21.0774 13.6631 " />
<path d="M21.8393 14.6154 L21.9821 14.6631 " />
<path d="M21.9821 14.6631 L22.2202 14.6631 " />
<path d="M22.2202 14.6631 L22.3155 14.6154 " />
<path d="M22.3155 14.6154 L22.3631 14.5678 " />
<path d="M22.3631 14.5678 L22.4107 14.4726 " />
<path d="M22.4107 14.4726 L22.4107 14.3774 " />
<path d="M22.4107 14.3774 L22.3631 14.2821 " />
<path d="M22.3631 14.2821 L22.3155 14.2345 " />
<path d="M22.3155 14.2345 L22.2202 14.1869 " />
<path d="M22.2202 14.1869 L22.0298 14.1393 " />
<path d="M22.0298 14.1393 L21.9345 14.0916 " />
<path d="M21.9345 14.0916 L21.8869 14.0440 " />
<path d="M21.8869 14.0440 L21.8393 13.9488 " />
<path d="M21.8393 13.9488 L21.8393 13.8535 " />
<path d="M21.8393 13.8535 L21.8869 13.7583 " />
<path d="M21.8869 13.7583 L21.9345 13.7107 " />
<path d="M21.9345 13.7107 L22.0298 13.6631 " />
<path d="M22.0298 13.6631 L22.2679 13.6631 " />
<path d="M22.2679 13.6631 L22.4107 13.7107 " />
<path d="M23.2679 13.6631 L23.0774 13.6631 " />
<path d="M23.0774 13.6631 L22.9821 13.7107 " />
<path d="M22.9821 13.7107 L22.9345 13.7583 " />
<path d="M22.9345 13.7583 L22.8393 13.9012 " />
<path d="M22.8393 13.9012 L22.7917 14.0916 " />
<path d="M22.7917 14.0916 L22.7917 14.4726 " />
<path d="M22.7917 14.4726 L22.8393 14.5678 " />
<path d="M22.8393 14.5678 L22.8869 14.6154 " />
<path d="M22.8869 14.6154 L22.9821 14.6631 " />
<path d="M22.9821 14.6631 L23.1726 14.6631 " />
<path d="M23.1726 14.6631 L23.2679 14.6154 " />
<path d="M23.2679 14.6154 L23.3155 14.5678 " />
<path d="M23.3155 14.5678 L23.3631 14.4726 " />
<path d="M23.3631 14.4726 L23.3631 14.2345 " />
<path d="M23.3631 14.2345 L23.3155 14.1393 " />
<path d="M23.3155 14.1393 L23.2679 14.0916 " />
<path d="M23.2679 14.0916 L23.1726 14.0440 " />
<path d="M23.1726 14.0440 L22.9821 14.0440 " />
<path d="M22.9821 14.0440 L22.8869 14.0916 " />
<path d="M22.8869 14.0916 L22.8393 14.1393 " />
<path d="M22.8393 14.1393 L22.7917 14.2345 " />
<path d="M23.7917 14.5678 L23.8393 14.6154 " />
<path d="M23.8393 14.6154 L23.7917 14.6631 " />
<path d="M23.7917 14.6631 L23.7440 14.6154 " />
<path d="M23.7440 14.6154 L23.7917 14.5678 " />
<path d="M23.7917 14.5678 L23.7917 14.6631 " />
<path d="M24.4583 13.6631 L24.5536 13.6631 " />
<path d="M24.5536 13.6631 L24.6488 13.7107 " />
<path d="M24.6488 13.7107 L24.6964 13.7583 " />
<path d="M24.6964 13.7583 L24.7440 13.8535 " />
<path d="M24.7440 13.8535 L24.7917 14.0440 " />
<path d="M24.7917 14.0440 L24.7917 14.2821 " />
<path d="M24.7917 14.2821 L24.7440 14.4726 " />
<path d="M24.7440 14.4726 L24.6964 14.5678 " />
<path d="M24.6964 14.5678 L24.6488 14.6154 " />
<path d="M24.6488 14.6154 L24.5536 14.6631 " />
<path d="M24.5536 14.6631 L24.4583 14.6631 " />
<path d="M24.4583 14.6631 L24.3631 14.6154 " />
<path d="M24.3631 14.6154 L24.3155 14.5678 " />
<path d="M24.3155 14.5678 L24.2679 14.4726 " />
<path d="M24.2679 14.4726 L24.2202 14.2821 " />
<path d="M24.2202 14.2821 L24.2202 14.0440 " />
<path d="M24.2202 14.0440 L24.2679 13.8535 " />
<path d="M24.2679 13.8535 L24.3155 13.7583 " />
<path d="M24.3155 13.7583 L24.3631 13.7107 " />
<path d="M24.3631 13.7107 L24.4583 13.6631 " />
<path d="M25.2202 14.2821 L25.9821 14.2821 " />
<path d="M26.7917 14.1393 L26.9345 14.1869 " />
<path d="M26.9345 14.1869 L26.9821 14.2345 " />
<path d="M26.9821 14.2345 L27.0298 14.3297 " />
<path d="M27.0298 14.3297 L27.0298 14.4726 " />
<path d="M27.0298 14.4726 L26.9821 14.5678 " />
<path d="M26.9821 14.5678 L26.9345 14.6154 " />
<path d="M26.9345 14.6154 L26.8393 14.6631 " />
<path d="M26.8393 14.6631 L26.4583 14.6631 " />
<path d="M26.4583 14.6631 L26.4583 13.6631 " />
<path d="M26.4583 13.6631 L26.7917 13.6631 " />
<path d="M26.7917 13.6631 L26.8869 13.7107 " />
<path d="M26.8869 13.7107 L26.9345 13.7583 " />
<path d="M26.9345 13.7583 L26.9821 13.8535 " />
<path d="M26.9821 13.8535 L26.9821 13.9488 " />
<path d="M26.9821 13.9488 L26.9345 14.0440 " />
<path d="M26.9345 14.0440 L26.8869 14.0916 " />
<path d="M26.8869 14.0916 L26.7917 14.1393 " />
<path d="M26.7917 14.1393 L26.4583 14.1393 " />
<path d="M27.9345 14.6631 L27.4583 14.6631 " />
<path d="M27.4583 14.6631 L27.4583 13.6631 " />
</g></g>
<g style="fill:none;  stroke:#000000; stroke-width:0.0600; stroke-opacity:1;  stroke-linecap:round; stroke-linejoin:round;">
<circle cx="11.6274" cy="10.5282" r="0.0300" /> 
</g>
<g style="fill:none;  stroke:#000000; stroke-width:0.3000; stroke-opacity:1;  stroke-linecap:round; stroke-linejoin:round;">
<circle cx="12.1674" cy="10.9283" r="0.1500" /> 
</g> 
</svg>