<?xml version='1.0' encoding='utf-8'?>
<svg xmlns="http://www.w3.org/2000/svg" version="1.1" width="32.7152mm" height="14.7574mm" viewBox="0.0000 0.0000 32.7152 14.7574">
<title>SVG Image created as TO-263-2_L10.0-W9.1-P5.08-LS15.2-TL.svg date 2026/01/09 08:17:46 </title>
  <desc>Image generated by PCBNEW </desc>
<g style="fill:#000000; fill-opacity:1.0000;stroke:#000000; stroke-opacity:1.0000; stroke-linecap:round; stroke-linejoin:round;" transform="translate(0 0) scale(1 1)">
<path style="fill:#000000; fill-opacity:1.0000; stroke:none;fill-rule:evenodd;" d="M 9.2731,5.4982 9.2731,4.1982 13.2731,4.1982 13.2731,5.4982 Z" /> 
<path style="fill:#000000; fill-opacity:1.0000; stroke:none;fill-rule:evenodd;" d="M 9.2731,10.5782 9.2731,9.2782 13.2731,9.2782 13.2731,10.5782 Z" /> 
<path style="fill:#000000; fill-opacity:1.0000; stroke:none;fill-rule:evenodd;" d="M 17.2531,12.6732 17.2531,2.1033 25.6531,2.1033 25.6531,12.6732 Z" /> 
<path style="fill:#000000; fill-opacity:1.0000; stroke:none;fill-rule:evenodd;" d="M 9.2731,5.4982 9.2731,4.1982 13.2731,4.1982 13.2731,5.4982 Z" /> 
<path style="fill:#000000; fill-opacity:1.0000; stroke:none;fill-rule:evenodd;" d="M 9.2731,10.5782 9.2731,9.2782 13.2731,9.2782 13.2731,10.5782 Z" /> 
<path style="fill:#000000; fill-opacity:1.0000; stroke:none;fill-rule:evenodd;" d="M 17.2531,12.6732 17.2531,2.1033 25.6531,2.1033 25.6531,12.6732 Z" /> 
<path style="fill:#000000; fill-opacity:1.0000; stroke:none;fill-rule:evenodd;" d="M 9.2731,5.4982 9.2731,4.1982 13.2731,4.1982 13.2731,5.4982 Z" /> 
<path style="fill:#000000; fill-opacity:1.0000; stroke:none;fill-rule:evenodd;" d="M 9.2731,10.5782 9.2731,9.2782 13.2731,9.2782 13.2731,10.5782 Z" /> 
<path style="fill:#000000; fill-opacity:1.0000; stroke:none;fill-rule:evenodd;" d="M 17.2531,12.6732 17.2531,2.1033 25.6531,2.1033 25.6531,12.6732 Z" /> 
</g>
<g style="fill:none;  stroke:#000000; stroke-width:0.1500; stroke-opacity:1;  stroke-linecap:round; stroke-linejoin:round;">
</g>
<g style="fill:none;  stroke:#000000; stroke-width:0.2500; stroke-opacity:1;  stroke-linecap:round; stroke-linejoin:round;">
<path d="M17.0231 2.2982 L15.1731 2.2982 " />
<path d="M15.1731 2.2982 L15.1731 12.4682 " />
<path d="M15.1731 12.4682 L17.0731 12.4682 " />
<circle cx="10.1531" cy="3.6282" r="0.1300" /> 
</g>
<g style="fill:none;  stroke:#000000; stroke-width:0.1500; stroke-opacity:1;  stroke-linecap:round; stroke-linejoin:round;">
<text x="16.3631" y="14.4282" textLength="32.7262" font-size="1.3333" lengthAdjust="spacingAndGlyphs" text-anchor="middle" opacity="0" stroke-opacity="0">TO-263-2_L10.0-W9.1-P5.08-LS15.2-TL</text>
<g class="stroked-text"><desc>TO-263-2_L10.0-W9.1-P5.08-LS15.2-TL</desc>
<path d="M0.2202 13.3831 L0.7917 13.3831 " />
<path d="M0.5060 14.3831 L0.5060 13.3831 " />
<path d="M1.3155 13.3831 L1.5060 13.3831 " />
<path d="M1.5060 13.3831 L1.6012 13.4307 " />
<path d="M1.6012 13.4307 L1.6964 13.5259 " />
<path d="M1.6964 13.5259 L1.7440 13.7164 " />
<path d="M1.7440 13.7164 L1.7440 14.0497 " />
<path d="M1.7440 14.0497 L1.6964 14.2402 " />
<path d="M1.6964 14.2402 L1.6012 14.3354 " />
<path d="M1.6012 14.3354 L1.5060 14.3831 " />
<path d="M1.5060 14.3831 L1.3155 14.3831 " />
<path d="M1.3155 14.3831 L1.2202 14.3354 " />
<path d="M1.2202 14.3354 L1.1250 14.2402 " />
<path d="M1.1250 14.2402 L1.0774 14.0497 " />
<path d="M1.0774 14.0497 L1.0774 13.7164 " />
<path d="M1.0774 13.7164 L1.1250 13.5259 " />
<path d="M1.1250 13.5259 L1.2202 13.4307 " />
<path d="M1.2202 13.4307 L1.3155 13.3831 " />
<path d="M2.1726 14.0021 L2.9345 14.0021 " />
<path d="M3.3631 13.4783 L3.4107 13.4307 " />
<path d="M3.4107 13.4307 L3.5060 13.3831 " />
<path d="M3.5060 13.3831 L3.7440 13.3831 " />
<path d="M3.7440 13.3831 L3.8393 13.4307 " />
<path d="M3.8393 13.4307 L3.8869 13.4783 " />
<path d="M3.8869 13.4783 L3.9345 13.5735 " />
<path d="M3.9345 13.5735 L3.9345 13.6688 " />
<path d="M3.9345 13.6688 L3.8869 13.8116 " />
<path d="M3.8869 13.8116 L3.3155 14.3831 " />
<path d="M3.3155 14.3831 L3.9345 14.3831 " />
<path d="M4.7917 13.3831 L4.6012 13.3831 " />
<path d="M4.6012 13.3831 L4.5060 13.4307 " />
<path d="M4.5060 13.4307 L4.4583 13.4783 " />
<path d="M4.4583 13.4783 L4.3631 13.6212 " />
<path d="M4.3631 13.6212 L4.3155 13.8116 " />
<path d="M4.3155 13.8116 L4.3155 14.1926 " />
<path d="M4.3155 14.1926 L4.3631 14.2878 " />
<path d="M4.3631 14.2878 L4.4107 14.3354 " />
<path d="M4.4107 14.3354 L4.5060 14.3831 " />
<path d="M4.5060 14.3831 L4.6964 14.3831 " />
<path d="M4.6964 14.3831 L4.7917 14.3354 " />
<path d="M4.7917 14.3354 L4.8393 14.2878 " />
<path d="M4.8393 14.2878 L4.8869 14.1926 " />
<path d="M4.8869 14.1926 L4.8869 13.9545 " />
<path d="M4.8869 13.9545 L4.8393 13.8593 " />
<path d="M4.8393 13.8593 L4.7917 13.8116 " />
<path d="M4.7917 13.8116 L4.6964 13.7640 " />
<path d="M4.6964 13.7640 L4.5060 13.7640 " />
<path d="M4.5060 13.7640 L4.4107 13.8116 " />
<path d="M4.4107 13.8116 L4.3631 13.8593 " />
<path d="M4.3631 13.8593 L4.3155 13.9545 " />
<path d="M5.2202 13.3831 L5.8393 13.3831 " />
<path d="M5.8393 13.3831 L5.5060 13.7640 " />
<path d="M5.5060 13.7640 L5.6488 13.7640 " />
<path d="M5.6488 13.7640 L5.7440 13.8116 " />
<path d="M5.7440 13.8116 L5.7917 13.8593 " />
<path d="M5.7917 13.8593 L5.8393 13.9545 " />
<path d="M5.8393 13.9545 L5.8393 14.1926 " />
<path d="M5.8393 14.1926 L5.7917 14.2878 " />
<path d="M5.7917 14.2878 L5.7440 14.3354 " />
<path d="M5.7440 14.3354 L5.6488 14.3831 " />
<path d="M5.6488 14.3831 L5.3631 14.3831 " />
<path d="M5.3631 14.3831 L5.2679 14.3354 " />
<path d="M5.2679 14.3354 L5.2202 14.2878 " />
<path d="M6.2679 14.0021 L7.0298 14.0021 " />
<path d="M7.4583 13.4783 L7.5060 13.4307 " />
<path d="M7.5060 13.4307 L7.6012 13.3831 " />
<path d="M7.6012 13.3831 L7.8393 13.3831 " />
<path d="M7.8393 13.3831 L7.9345 13.4307 " />
<path d="M7.9345 13.4307 L7.9821 13.4783 " />
<path d="M7.9821 13.4783 L8.0298 13.5735 " />
<path d="M8.0298 13.5735 L8.0298 13.6688 " />
<path d="M8.0298 13.6688 L7.9821 13.8116 " />
<path d="M7.9821 13.8116 L7.4107 14.3831 " />
<path d="M7.4107 14.3831 L8.0298 14.3831 " />
<path d="M8.2202 14.4783 L8.9821 14.4783 " />
<path d="M9.6964 14.3831 L9.2202 14.3831 " />
<path d="M9.2202 14.3831 L9.2202 13.3831 " />
<path d="M10.5536 14.3831 L9.9821 14.3831 " />
<path d="M10.2679 14.3831 L10.2679 13.3831 " />
<path d="M10.2679 13.3831 L10.1726 13.5259 " />
<path d="M10.1726 13.5259 L10.0774 13.6212 " />
<path d="M10.0774 13.6212 L9.9821 13.6688 " />
<path d="M11.1726 13.3831 L11.2679 13.3831 " />
<path d="M11.2679 13.3831 L11.3631 13.4307 " />
<path d="M11.3631 13.4307 L11.4107 13.4783 " />
<path d="M11.4107 13.4783 L11.4583 13.5735 " />
<path d="M11.4583 13.5735 L11.5060 13.7640 " />
<path d="M11.5060 13.7640 L11.5060 14.0021 " />
<path d="M11.5060 14.0021 L11.4583 14.1926 " />
<path d="M11.4583 14.1926 L11.4107 14.2878 " />
<path d="M11.4107 14.2878 L11.3631 14.3354 " />
<path d="M11.3631 14.3354 L11.2679 14.3831 " />
<path d="M11.2679 14.3831 L11.1726 14.3831 " />
<path d="M11.1726 14.3831 L11.0774 14.3354 " />
<path d="M11.0774 14.3354 L11.0298 14.2878 " />
<path d="M11.0298 14.2878 L10.9821 14.1926 " />
<path d="M10.9821 14.1926 L10.9345 14.0021 " />
<path d="M10.9345 14.0021 L10.9345 13.7640 " />
<path d="M10.9345 13.7640 L10.9821 13.5735 " />
<path d="M10.9821 13.5735 L11.0298 13.4783 " />
<path d="M11.0298 13.4783 L11.0774 13.4307 " />
<path d="M11.0774 13.4307 L11.1726 13.3831 " />
<path d="M11.9345 14.2878 L11.9821 14.3354 " />
<path d="M11.9821 14.3354 L11.9345 14.3831 " />
<path d="M11.9345 14.3831 L11.8869 14.3354 " />
<path d="M11.8869 14.3354 L11.9345 14.2878 " />
<path d="M11.9345 14.2878 L11.9345 14.3831 " />
<path d="M12.6012 13.3831 L12.6964 13.3831 " />
<path d="M12.6964 13.3831 L12.7917 13.4307 " />
<path d="M12.7917 13.4307 L12.8393 13.4783 " />
<path d="M12.8393 13.4783 L12.8869 13.5735 " />
<path d="M12.8869 13.5735 L12.9345 13.7640 " />
<path d="M12.9345 13.7640 L12.9345 14.0021 " />
<path d="M12.9345 14.0021 L12.8869 14.1926 " />
<path d="M12.8869 14.1926 L12.8393 14.2878 " />
<path d="M12.8393 14.2878 L12.7917 14.3354 " />
<path d="M12.7917 14.3354 L12.6964 14.3831 " />
<path d="M12.6964 14.3831 L12.6012 14.3831 " />
<path d="M12.6012 14.3831 L12.5060 14.3354 " />
<path d="M12.5060 14.3354 L12.4583 14.2878 " />
<path d="M12.4583 14.2878 L12.4107 14.1926 " />
<path d="M12.4107 14.1926 L12.3631 14.0021 " />
<path d="M12.3631 14.0021 L12.3631 13.7640 " />
<path d="M12.3631 13.7640 L12.4107 13.5735 " />
<path d="M12.4107 13.5735 L12.4583 13.4783 " />
<path d="M12.4583 13.4783 L12.5060 13.4307 " />
<path d="M12.5060 13.4307 L12.6012 13.3831 " />
<path d="M13.3631 14.0021 L14.1250 14.0021 " />
<path d="M14.5060 13.3831 L14.7440 14.3831 " />
<path d="M14.7440 14.3831 L14.9345 13.6688 " />
<path d="M14.9345 13.6688 L15.1250 14.3831 " />
<path d="M15.1250 14.3831 L15.3631 13.3831 " />
<path d="M15.7917 14.3831 L15.9821 14.3831 " />
<path d="M15.9821 14.3831 L16.0774 14.3354 " />
<path d="M16.0774 14.3354 L16.1250 14.2878 " />
<path d="M16.1250 14.2878 L16.2202 14.1450 " />
<path d="M16.2202 14.1450 L16.2679 13.9545 " />
<path d="M16.2679 13.9545 L16.2679 13.5735 " />
<path d="M16.2679 13.5735 L16.2202 13.4783 " />
<path d="M16.2202 13.4783 L16.1726 13.4307 " />
<path d="M16.1726 13.4307 L16.0774 13.3831 " />
<path d="M16.0774 13.3831 L15.8869 13.3831 " />
<path d="M15.8869 13.3831 L15.7917 13.4307 " />
<path d="M15.7917 13.4307 L15.7440 13.4783 " />
<path d="M15.7440 13.4783 L15.6964 13.5735 " />
<path d="M15.6964 13.5735 L15.6964 13.8116 " />
<path d="M15.6964 13.8116 L15.7440 13.9069 " />
<path d="M15.7440 13.9069 L15.7917 13.9545 " />
<path d="M15.7917 13.9545 L15.8869 14.0021 " />
<path d="M15.8869 14.0021 L16.0774 14.0021 " />
<path d="M16.0774 14.0021 L16.1726 13.9545 " />
<path d="M16.1726 13.9545 L16.2202 13.9069 " />
<path d="M16.2202 13.9069 L16.2679 13.8116 " />
<path d="M16.6964 14.2878 L16.7440 14.3354 " />
<path d="M16.7440 14.3354 L16.6964 14.3831 " />
<path d="M16.6964 14.3831 L16.6488 14.3354 " />
<path d="M16.6488 14.3354 L16.6964 14.2878 " />
<path d="M16.6964 14.2878 L16.6964 14.3831 " />
<path d="M17.6964 14.3831 L17.1250 14.3831 " />
<path d="M17.4107 14.3831 L17.4107 13.3831 " />
<path d="M17.4107 13.3831 L17.3155 13.5259 " />
<path d="M17.3155 13.5259 L17.2202 13.6212 " />
<path d="M17.2202 13.6212 L17.1250 13.6688 " />
<path d="M18.1250 14.0021 L18.8869 14.0021 " />
<path d="M19.3631 14.3831 L19.3631 13.3831 " />
<path d="M19.3631 13.3831 L19.7440 13.3831 " />
<path d="M19.7440 13.3831 L19.8393 13.4307 " />
<path d="M19.8393 13.4307 L19.8869 13.4783 " />
<path d="M19.8869 13.4783 L19.9345 13.5735 " />
<path d="M19.9345 13.5735 L19.9345 13.7164 " />
<path d="M19.9345 13.7164 L19.8869 13.8116 " />
<path d="M19.8869 13.8116 L19.8393 13.8593 " />
<path d="M19.8393 13.8593 L19.7440 13.9069 " />
<path d="M19.7440 13.9069 L19.3631 13.9069 " />
<path d="M20.8393 13.3831 L20.3631 13.3831 " />
<path d="M20.3631 13.3831 L20.3155 13.8593 " />
<path d="M20.3155 13.8593 L20.3631 13.8116 " />
<path d="M20.3631 13.8116 L20.4583 13.7640 " />
<path d="M20.4583 13.7640 L20.6964 13.7640 " />
<path d="M20.6964 13.7640 L20.7917 13.8116 " />
<path d="M20.7917 13.8116 L20.8393 13.8593 " />
<path d="M20.8393 13.8593 L20.8869 13.9545 " />
<path d="M20.8869 13.9545 L20.8869 14.1926 " />
<path d="M20.8869 14.1926 L20.8393 14.2878 " />
<path d="M20.8393 14.2878 L20.7917 14.3354 " />
<path d="M20.7917 14.3354 L20.6964 14.3831 " />
<path d="M20.6964 14.3831 L20.4583 14.3831 " />
<path d="M20.4583 14.3831 L20.3631 14.3354 " />
<path d="M20.3631 14.3354 L20.3155 14.2878 " />
<path d="M21.3155 14.2878 L21.3631 14.3354 " />
<path d="M21.3631 14.3354 L21.3155 14.3831 " />
<path d="M21.3155 14.3831 L21.2679 14.3354 " />
<path d="M21.2679 14.3354 L21.3155 14.2878 " />
<path d="M21.3155 14.2878 L21.3155 14.3831 " />
<path d="M21.9821 13.3831 L22.0774 13.3831 " />
<path d="M22.0774 13.3831 L22.1726 13.4307 " />
<path d="M22.1726 13.4307 L22.2202 13.4783 " />
<path d="M22.2202 13.4783 L22.2679 13.5735 " />
<path d="M22.2679 13.5735 L22.3155 13.7640 " />
<path d="M22.3155 13.7640 L22.3155 14.0021 " />
<path d="M22.3155 14.0021 L22.2679 14.1926 " />
<path d="M22.2679 14.1926 L22.2202 14.2878 " />
<path d="M22.2202 14.2878 L22.1726 14.3354 " />
<path d="M22.1726 14.3354 L22.0774 14.3831 " />
<path d="M22.0774 14.3831 L21.9821 14.3831 " />
<path d="M21.9821 14.3831 L21.8869 14.3354 " />
<path d="M21.8869 14.3354 L21.8393 14.2878 " />
<path d="M21.8393 14.2878 L21.7917 14.1926 " />
<path d="M21.7917 14.1926 L21.7440 14.0021 " />
<path d="M21.7440 14.0021 L21.7440 13.7640 " />
<path d="M21.7440 13.7640 L21.7917 13.5735 " />
<path d="M21.7917 13.5735 L21.8393 13.4783 " />
<path d="M21.8393 13.4783 L21.8869 13.4307 " />
<path d="M21.8869 13.4307 L21.9821 13.3831 " />
<path d="M22.8869 13.8116 L22.7917 13.7640 " />
<path d="M22.7917 13.7640 L22.7440 13.7164 " />
<path d="M22.7440 13.7164 L22.6964 13.6212 " />
<path d="M22.6964 13.6212 L22.6964 13.5735 " />
<path d="M22.6964 13.5735 L22.7440 13.4783 " />
<path d="M22.7440 13.4783 L22.7917 13.4307 " />
<path d="M22.7917 13.4307 L22.8869 13.3831 " />
<path d="M22.8869 13.3831 L23.0774 13.3831 " />
<path d="M23.0774 13.3831 L23.1726 13.4307 " />
<path d="M23.1726 13.4307 L23.2202 13.4783 " />
<path d="M23.2202 13.4783 L23.2679 13.5735 " />
<path d="M23.2679 13.5735 L23.2679 13.6212 " />
<path d="M23.2679 13.6212 L23.2202 13.7164 " />
<path d="M23.2202 13.7164 L23.1726 13.7640 " />
<path d="M23.1726 13.7640 L23.0774 13.8116 " />
<path d="M23.0774 13.8116 L22.8869 13.8116 " />
<path d="M22.8869 13.8116 L22.7917 13.8593 " />
<path d="M22.7917 13.8593 L22.7440 13.9069 " />
<path d="M22.7440 13.9069 L22.6964 14.0021 " />
<path d="M22.6964 14.0021 L22.6964 14.1926 " />
<path d="M22.6964 14.1926 L22.7440 14.2878 " />
<path d="M22.7440 14.2878 L22.7917 14.3354 " />
<path d="M22.7917 14.3354 L22.8869 14.3831 " />
<path d="M22.8869 14.3831 L23.0774 14.3831 " />
<path d="M23.0774 14.3831 L23.1726 14.3354 " />
<path d="M23.1726 14.3354 L23.2202 14.2878 " />
<path d="M23.2202 14.2878 L23.2679 14.1926 " />
<path d="M23.2679 14.1926 L23.2679 14.0021 " />
<path d="M23.2679 14.0021 L23.2202 13.9069 " />
<path d="M23.2202 13.9069 L23.1726 13.8593 " />
<path d="M23.1726 13.8593 L23.0774 13.8116 " />
<path d="M23.6964 14.0021 L24.4583 14.0021 " />
<path d="M25.4107 14.3831 L24.9345 14.3831 " />
<path d="M24.9345 14.3831 L24.9345 13.3831 " />
<path d="M25.6964 14.3354 L25.8393 14.3831 " />
<path d="M25.8393 14.3831 L26.0774 14.3831 " />
<path d="M26.0774 14.3831 L26.1726 14.3354 " />
<path d="M26.1726 14.3354 L26.2202 14.2878 " />
<path d="M26.2202 14.2878 L26.2679 14.1926 " />
<path d="M26.2679 14.1926 L26.2679 14.0974 " />
<path d="M26.2679 14.0974 L26.2202 14.0021 " />
<path d="M26.2202 14.0021 L26.1726 13.9545 " />
<path d="M26.1726 13.9545 L26.0774 13.9069 " />
<path d="M26.0774 13.9069 L25.8869 13.8593 " />
<path d="M25.8869 13.8593 L25.7917 13.8116 " />
<path d="M25.7917 13.8116 L25.7440 13.7640 " />
<path d="M25.7440 13.7640 L25.6964 13.6688 " />
<path d="M25.6964 13.6688 L25.6964 13.5735 " />
<path d="M25.6964 13.5735 L25.7440 13.4783 " />
<path d="M25.7440 13.4783 L25.7917 13.4307 " />
<path d="M25.7917 13.4307 L25.8869 13.3831 " />
<path d="M25.8869 13.3831 L26.1250 13.3831 " />
<path d="M26.1250 13.3831 L26.2679 13.4307 " />
<path d="M27.2202 14.3831 L26.6488 14.3831 " />
<path d="M26.9345 14.3831 L26.9345 13.3831 " />
<path d="M26.9345 13.3831 L26.8393 13.5259 " />
<path d="M26.8393 13.5259 L26.7440 13.6212 " />
<path d="M26.7440 13.6212 L26.6488 13.6688 " />
<path d="M28.1250 13.3831 L27.6488 13.3831 " />
<path d="M27.6488 13.3831 L27.6012 13.8593 " />
<path d="M27.6012 13.8593 L27.6488 13.8116 " />
<path d="M27.6488 13.8116 L27.7440 13.7640 " />
<path d="M27.7440 13.7640 L27.9821 13.7640 " />
<path d="M27.9821 13.7640 L28.0774 13.8116 " />
<path d="M28.0774 13.8116 L28.1250 13.8593 " />
<path d="M28.1250 13.8593 L28.1726 13.9545 " />
<path d="M28.1726 13.9545 L28.1726 14.1926 " />
<path d="M28.1726 14.1926 L28.1250 14.2878 " />
<path d="M28.1250 14.2878 L28.0774 14.3354 " />
<path d="M28.0774 14.3354 L27.9821 14.3831 " />
<path d="M27.9821 14.3831 L27.7440 14.3831 " />
<path d="M27.7440 14.3831 L27.6488 14.3354 " />
<path d="M27.6488 14.3354 L27.6012 14.2878 " />
<path d="M28.6012 14.2878 L28.6488 14.3354 " />
<path d="M28.6488 14.3354 L28.6012 14.3831 " />
<path d="M28.6012 14.3831 L28.5536 14.3354 " />
<path d="M28.5536 14.3354 L28.6012 14.2878 " />
<path d="M28.6012 14.2878 L28.6012 14.3831 " />
<path d="M29.0298 13.4783 L29.0774 13.4307 " />
<path d="M29.0774 13.4307 L29.1726 13.3831 " />
<path d="M29.1726 13.3831 L29.4107 13.3831 " />
<path d="M29.4107 13.3831 L29.5059 13.4307 " />
<path d="M29.5059 13.4307 L29.5536 13.4783 " />
<path d="M29.5536 13.4783 L29.6012 13.5735 " />
<path d="M29.6012 13.5735 L29.6012 13.6688 " />
<path d="M29.6012 13.6688 L29.5536 13.8116 " />
<path d="M29.5536 13.8116 L28.9821 14.3831 " />
<path d="M28.9821 14.3831 L29.6012 14.3831 " />
<path d="M30.0298 14.0021 L30.7917 14.0021 " />
<path d="M31.1250 13.3831 L31.6964 13.3831 " />
<path d="M31.4107 14.3831 L31.4107 13.3831 " />
<path d="M32.5059 14.3831 L32.0298 14.3831 " />
<path d="M32.0298 14.3831 L32.0298 13.3831 " />
</g></g>
<g style="fill:none;  stroke:#000000; stroke-width:0.0600; stroke-opacity:1;  stroke-linecap:round; stroke-linejoin:round;">
<circle cx="9.9331" cy="2.3082" r="0.0300" /> 
</g>
<g style="fill:none;  stroke:#000000; stroke-width:0.2500; stroke-opacity:1;  stroke-linecap:round; stroke-linejoin:round;">
<circle cx="9.7031" cy="3.8282" r="0.1300" /> 
</g> 
</svg>