solid OpenSCAD_Model
  facet normal -1 0 0
    outer loop
      vertex 27.42 1.5 0.5
      vertex 27.42 8.1 8.9
      vertex 27.42 8.1 0.5
    endloop
  endfacet
  facet normal -1 -0 0
    outer loop
      vertex 27.42 8.1 8.9
      vertex 27.42 1.5 0.5
      vertex 27.42 1.5 8.9
    endloop
  endfacet
  facet normal -0 0 1
    outer loop
      vertex 5.15 5.87 0.5
      vertex 23.77 3.73 0.5
      vertex 23.77 5.87 0.5
    endloop
  endfacet
  facet normal 0 0 1
    outer loop
      vertex 23.77 3.73 0.5
      vertex 5.15 5.87 0.5
      vertex 5.15 3.73 0.5
    endloop
  endfacet
  facet normal 0 0 1
    outer loop
      vertex 23.77 5.87 0.5
      vertex 27.42 8.1 0.5
      vertex 23.77 6.27 0.5
    endloop
  endfacet
  facet normal 0 0 1
    outer loop
      vertex 27.42 8.1 0.5
      vertex 5.15 6.27 0.5
      vertex 23.77 6.27 0.5
    endloop
  endfacet
  facet normal 0 0 1
    outer loop
      vertex 1.5 8.1 0.5
      vertex 5.15 5.87 0.5
      vertex 5.15 6.27 0.5
    endloop
  endfacet
  facet normal 0 0 1
    outer loop
      vertex 5.15 5.87 0.5
      vertex 1.5 8.1 0.5
      vertex 5.15 3.73 0.5
    endloop
  endfacet
  facet normal 0 0 1
    outer loop
      vertex 1.5 1.5 0.5
      vertex 5.15 3.73 0.5
      vertex 1.5 8.1 0.5
    endloop
  endfacet
  facet normal -0 0 1
    outer loop
      vertex 1.5 8.1 0.5
      vertex 5.15 6.27 0.5
      vertex 27.42 8.1 0.5
    endloop
  endfacet
  facet normal 0 0 1
    outer loop
      vertex 27.42 8.1 0.5
      vertex 23.77 5.87 0.5
      vertex 27.42 1.5 0.5
    endloop
  endfacet
  facet normal -0 0 1
    outer loop
      vertex 23.77 3.73 0.5
      vertex 27.42 1.5 0.5
      vertex 23.77 5.87 0.5
    endloop
  endfacet
  facet normal -0 0 1
    outer loop
      vertex 23.77 3.33 0.5
      vertex 27.42 1.5 0.5
      vertex 23.77 3.73 0.5
    endloop
  endfacet
  facet normal -0 0 1
    outer loop
      vertex 5.15 3.33 0.5
      vertex 27.42 1.5 0.5
      vertex 23.77 3.33 0.5
    endloop
  endfacet
  facet normal 0 0 1
    outer loop
      vertex 5.15 3.33 0.5
      vertex 1.5 1.5 0.5
      vertex 27.42 1.5 0.5
    endloop
  endfacet
  facet normal 0 0 1
    outer loop
      vertex 5.15 3.73 0.5
      vertex 1.5 1.5 0.5
      vertex 5.15 3.33 0.5
    endloop
  endfacet
  facet normal 1 -0 0
    outer loop
      vertex 1.5 1.5 8.9
      vertex 1.5 8.1 0.5
      vertex 1.5 8.1 8.9
    endloop
  endfacet
  facet normal 1 0 0
    outer loop
      vertex 1.5 8.1 0.5
      vertex 1.5 1.5 8.9
      vertex 1.5 1.5 0.5
    endloop
  endfacet
  facet normal 0 -1 0
    outer loop
      vertex 1.5 8.1 0.5
      vertex 27.42 8.1 8.9
      vertex 1.5 8.1 8.9
    endloop
  endfacet
  facet normal 0 -1 -0
    outer loop
      vertex 27.42 8.1 8.9
      vertex 1.5 8.1 0.5
      vertex 27.42 8.1 0.5
    endloop
  endfacet
  facet normal 0 1 0
    outer loop
      vertex 27.42 1.5 8.9
      vertex 16.81 1.5 3.4
      vertex 16.81 1.5 8.9
    endloop
  endfacet
  facet normal 0 1 0
    outer loop
      vertex 16.81 1.5 3.4
      vertex 27.42 1.5 0.5
      vertex 12.11 1.5 3.4
    endloop
  endfacet
  facet normal 0 1 -0
    outer loop
      vertex 27.42 1.5 0.5
      vertex 16.81 1.5 3.4
      vertex 27.42 1.5 8.9
    endloop
  endfacet
  facet normal 0 1 -0
    outer loop
      vertex 12.11 1.5 3.4
      vertex 1.5 1.5 8.9
      vertex 12.11 1.5 8.9
    endloop
  endfacet
  facet normal 0 1 0
    outer loop
      vertex 12.11 1.5 3.4
      vertex 1.5 1.5 0.5
      vertex 1.5 1.5 8.9
    endloop
  endfacet
  facet normal 0 1 0
    outer loop
      vertex 1.5 1.5 0.5
      vertex 12.11 1.5 3.4
      vertex 27.42 1.5 0.5
    endloop
  endfacet
  facet normal -1 0 0
    outer loop
      vertex 23.77 3.33 0
      vertex 23.77 3.73 0.5
      vertex 23.77 3.73 0
    endloop
  endfacet
  facet normal -1 -0 0
    outer loop
      vertex 23.77 3.73 0.5
      vertex 23.77 3.33 0
      vertex 23.77 3.33 0.5
    endloop
  endfacet
  facet normal 1 -0 0
    outer loop
      vertex 5.15 3.33 0.5
      vertex 5.15 3.73 0
      vertex 5.15 3.73 0.5
    endloop
  endfacet
  facet normal 1 0 0
    outer loop
      vertex 5.15 3.73 0
      vertex 5.15 3.33 0.5
      vertex 5.15 3.33 0
    endloop
  endfacet
  facet normal 0 -1 0
    outer loop
      vertex 5.15 3.73 0
      vertex 23.77 3.73 0.5
      vertex 5.15 3.73 0.5
    endloop
  endfacet
  facet normal 0 -1 -0
    outer loop
      vertex 23.77 3.73 0.5
      vertex 5.15 3.73 0
      vertex 23.77 3.73 0
    endloop
  endfacet
  facet normal 0 1 -0
    outer loop
      vertex 23.77 3.33 0
      vertex 5.15 3.33 0.5
      vertex 23.77 3.33 0.5
    endloop
  endfacet
  facet normal 0 1 0
    outer loop
      vertex 5.15 3.33 0.5
      vertex 23.77 3.33 0
      vertex 5.15 3.33 0
    endloop
  endfacet
  facet normal -1 0 0
    outer loop
      vertex 23.77 5.87 0
      vertex 23.77 6.27 0.5
      vertex 23.77 6.27 0
    endloop
  endfacet
  facet normal -1 -0 0
    outer loop
      vertex 23.77 6.27 0.5
      vertex 23.77 5.87 0
      vertex 23.77 5.87 0.5
    endloop
  endfacet
  facet normal 1 -0 0
    outer loop
      vertex 5.15 5.87 0.5
      vertex 5.15 6.27 0
      vertex 5.15 6.27 0.5
    endloop
  endfacet
  facet normal 1 0 0
    outer loop
      vertex 5.15 6.27 0
      vertex 5.15 5.87 0.5
      vertex 5.15 5.87 0
    endloop
  endfacet
  facet normal 0 -1 0
    outer loop
      vertex 5.15 6.27 0
      vertex 23.77 6.27 0.5
      vertex 5.15 6.27 0.5
    endloop
  endfacet
  facet normal 0 -1 -0
    outer loop
      vertex 23.77 6.27 0.5
      vertex 5.15 6.27 0
      vertex 23.77 6.27 0
    endloop
  endfacet
  facet normal 0 1 -0
    outer loop
      vertex 23.77 5.87 0
      vertex 5.15 5.87 0.5
      vertex 23.77 5.87 0.5
    endloop
  endfacet
  facet normal 0 1 0
    outer loop
      vertex 5.15 5.87 0.5
      vertex 23.77 5.87 0
      vertex 5.15 5.87 0
    endloop
  endfacet
  facet normal -1 0 0
    outer loop
      vertex 16.81 0 3.4
      vertex 16.81 1.5 8.9
      vertex 16.81 1.5 3.4
    endloop
  endfacet
  facet normal -1 -0 0
    outer loop
      vertex 16.81 1.5 8.9
      vertex 16.81 0 3.4
      vertex 16.81 0 8.9
    endloop
  endfacet
  facet normal -0 0 1
    outer loop
      vertex 12.11 1.5 3.4
      vertex 16.81 0 3.4
      vertex 16.81 1.5 3.4
    endloop
  endfacet
  facet normal 0 0 1
    outer loop
      vertex 16.81 0 3.4
      vertex 12.11 1.5 3.4
      vertex 12.11 0 3.4
    endloop
  endfacet
  facet normal 1 -0 0
    outer loop
      vertex 12.11 0 8.9
      vertex 12.11 1.5 3.4
      vertex 12.11 1.5 8.9
    endloop
  endfacet
  facet normal 1 0 0
    outer loop
      vertex 12.11 1.5 3.4
      vertex 12.11 0 8.9
      vertex 12.11 0 3.4
    endloop
  endfacet
  facet normal 1 -0 0
    outer loop
      vertex 28.92 0 8.9
      vertex 28.92 9.6 0
      vertex 28.92 9.6 8.9
    endloop
  endfacet
  facet normal 1 0 0
    outer loop
      vertex 28.92 9.6 0
      vertex 28.92 0 8.9
      vertex 28.92 0 0
    endloop
  endfacet
  facet normal 0 0 1
    outer loop
      vertex 28.92 9.6 8.9
      vertex 27.42 8.1 8.9
      vertex 28.92 0 8.9
    endloop
  endfacet
  facet normal 0 0 1
    outer loop
      vertex 28.92 9.6 8.9
      vertex 1.5 8.1 8.9
      vertex 27.42 8.1 8.9
    endloop
  endfacet
  facet normal 0 0 1
    outer loop
      vertex 1.5 8.1 8.9
      vertex 0 9.6 8.9
      vertex 1.5 1.5 8.9
    endloop
  endfacet
  facet normal -0 0 1
    outer loop
      vertex 0 9.6 8.9
      vertex 1.5 8.1 8.9
      vertex 28.92 9.6 8.9
    endloop
  endfacet
  facet normal -0 0 1
    outer loop
      vertex 27.42 1.5 8.9
      vertex 28.92 0 8.9
      vertex 27.42 8.1 8.9
    endloop
  endfacet
  facet normal 0 0 1
    outer loop
      vertex 16.81 0 8.9
      vertex 27.42 1.5 8.9
      vertex 16.81 1.5 8.9
    endloop
  endfacet
  facet normal 0 0 1
    outer loop
      vertex 27.42 1.5 8.9
      vertex 16.81 0 8.9
      vertex 28.92 0 8.9
    endloop
  endfacet
  facet normal -0 0 1
    outer loop
      vertex 1.5 1.5 8.9
      vertex 12.11 0 8.9
      vertex 12.11 1.5 8.9
    endloop
  endfacet
  facet normal 0 0 1
    outer loop
      vertex 1.5 1.5 8.9
      vertex 0 0 8.9
      vertex 12.11 0 8.9
    endloop
  endfacet
  facet normal 0 0 1
    outer loop
      vertex 0 0 8.9
      vertex 1.5 1.5 8.9
      vertex 0 9.6 8.9
    endloop
  endfacet
  facet normal 0 0 -1
    outer loop
      vertex 5.15 3.73 0
      vertex 23.77 5.87 0
      vertex 23.77 3.73 0
    endloop
  endfacet
  facet normal -0 0 -1
    outer loop
      vertex 23.77 5.87 0
      vertex 5.15 3.73 0
      vertex 5.15 5.87 0
    endloop
  endfacet
  facet normal 0 0 -1
    outer loop
      vertex 23.77 3.73 0
      vertex 28.92 0 0
      vertex 23.77 3.33 0
    endloop
  endfacet
  facet normal 0 0 -1
    outer loop
      vertex 28.92 0 0
      vertex 5.15 3.33 0
      vertex 23.77 3.33 0
    endloop
  endfacet
  facet normal 0 0 -1
    outer loop
      vertex 0 0 0
      vertex 5.15 3.73 0
      vertex 5.15 3.33 0
    endloop
  endfacet
  facet normal -0 0 -1
    outer loop
      vertex 5.15 3.73 0
      vertex 0 0 0
      vertex 5.15 5.87 0
    endloop
  endfacet
  facet normal 0 0 -1
    outer loop
      vertex 0 9.6 0
      vertex 5.15 5.87 0
      vertex 0 0 0
    endloop
  endfacet
  facet normal 0 0 -1
    outer loop
      vertex 0 0 0
      vertex 5.15 3.33 0
      vertex 28.92 0 0
    endloop
  endfacet
  facet normal 0 0 -1
    outer loop
      vertex 28.92 0 0
      vertex 23.77 3.73 0
      vertex 28.92 9.6 0
    endloop
  endfacet
  facet normal 0 0 -1
    outer loop
      vertex 23.77 5.87 0
      vertex 28.92 9.6 0
      vertex 23.77 3.73 0
    endloop
  endfacet
  facet normal 0 0 -1
    outer loop
      vertex 23.77 6.27 0
      vertex 28.92 9.6 0
      vertex 23.77 5.87 0
    endloop
  endfacet
  facet normal 0 0 -1
    outer loop
      vertex 5.15 6.27 0
      vertex 28.92 9.6 0
      vertex 23.77 6.27 0
    endloop
  endfacet
  facet normal 0 0 -1
    outer loop
      vertex 5.15 6.27 0
      vertex 0 9.6 0
      vertex 28.92 9.6 0
    endloop
  endfacet
  facet normal 0 0 -1
    outer loop
      vertex 5.15 5.87 0
      vertex 0 9.6 0
      vertex 5.15 6.27 0
    endloop
  endfacet
  facet normal -1 0 0
    outer loop
      vertex 0 0 0
      vertex 0 9.6 8.9
      vertex 0 9.6 0
    endloop
  endfacet
  facet normal -1 -0 0
    outer loop
      vertex 0 9.6 8.9
      vertex 0 0 0
      vertex 0 0 8.9
    endloop
  endfacet
  facet normal 0 1 -0
    outer loop
      vertex 28.92 9.6 0
      vertex 0 9.6 8.9
      vertex 28.92 9.6 8.9
    endloop
  endfacet
  facet normal 0 1 0
    outer loop
      vertex 0 9.6 8.9
      vertex 28.92 9.6 0
      vertex 0 9.6 0
    endloop
  endfacet
  facet normal 0 -1 0
    outer loop
      vertex 0 0 8.9
      vertex 12.11 0 3.4
      vertex 12.11 0 8.9
    endloop
  endfacet
  facet normal 0 -1 -0
    outer loop
      vertex 12.11 0 3.4
      vertex 0 0 0
      vertex 16.81 0 3.4
    endloop
  endfacet
  facet normal 0 -1 0
    outer loop
      vertex 0 0 0
      vertex 12.11 0 3.4
      vertex 0 0 8.9
    endloop
  endfacet
  facet normal 0 -1 0
    outer loop
      vertex 16.81 0 3.4
      vertex 28.92 0 8.9
      vertex 16.81 0 8.9
    endloop
  endfacet
  facet normal 0 -1 0
    outer loop
      vertex 16.81 0 3.4
      vertex 28.92 0 0
      vertex 28.92 0 8.9
    endloop
  endfacet
  facet normal 0 -1 0
    outer loop
      vertex 28.92 0 0
      vertex 16.81 0 3.4
      vertex 0 0 0
    endloop
  endfacet
endsolid OpenSCAD_Model
