<?xml version='1.0' encoding='utf-8'?>
<svg xmlns="http://www.w3.org/2000/svg" version="1.1" width="5.2578mm" height="9.6774mm" viewBox="0.0000 0.0000 5.2578 9.6774">
<title>SVG Image created as C1206.svg date 2026/01/09 08:17:46 </title>
  <desc>Image generated by PCBNEW </desc>
<g style="fill:#000000; fill-opacity:1.0000;stroke:#000000; stroke-opacity:1.0000; stroke-linecap:round; stroke-linejoin:round;" transform="translate(0 0) scale(1 1)">
<path style="fill:#000000; fill-opacity:1.0000; stroke:none;fill-rule:evenodd;" d="M 3.4800,5.7132 3.4800,3.9832 4.9700,3.9832 4.9700,5.7132 Z" /> 
<path style="fill:#000000; fill-opacity:1.0000; stroke:none;fill-rule:evenodd;" d="M 0.3000,5.7132 0.3000,3.9832 1.7900,3.9832 1.7900,5.7132 Z" /> 
<path style="fill:#000000; fill-opacity:1.0000; stroke:none;fill-rule:evenodd;" d="M 3.4800,5.7132 3.4800,3.9832 4.9700,3.9832 4.9700,5.7132 Z" /> 
<path style="fill:#000000; fill-opacity:1.0000; stroke:none;fill-rule:evenodd;" d="M 0.3000,5.7132 0.3000,3.9832 1.7900,3.9832 1.7900,5.7132 Z" /> 
<path style="fill:#000000; fill-opacity:1.0000; stroke:none;fill-rule:evenodd;" d="M 3.4800,5.7132 3.4800,3.9832 4.9700,3.9832 4.9700,5.7132 Z" /> 
<path style="fill:#000000; fill-opacity:1.0000; stroke:none;fill-rule:evenodd;" d="M 0.3000,5.7132 0.3000,3.9832 1.7900,3.9832 1.7900,5.7132 Z" /> 
</g>
<g style="fill:none;  stroke:#000000; stroke-width:0.1500; stroke-opacity:1;  stroke-linecap:round; stroke-linejoin:round;">
<path d="M5.0450 3.7582 L3.5650 3.7582 " />
<path d="M3.5650 5.9383 L5.0450 5.9383 " />
<path d="M5.1950 5.7882 L5.1950 3.9082 " />
<path d="M0.2250 3.7582 L1.7050 3.7582 " />
<path d="M1.7050 5.9383 L0.2250 5.9383 " />
<path d="M0.0750 5.7882 L0.0750 3.9082 " />
<path d="M5.0450 5.9383 A0.1500 0.1500 0.0 0 0 5.1950 5.7882" />
<path d="M5.1950 3.9082 A0.1500 0.1500 0.0 0 0 5.0450 3.7582" />
<path d="M0.0750 5.7882 A0.1500 0.1500 0.0 0 0 0.2250 5.9383" />
<path d="M0.2250 3.7582 A0.1500 0.1500 0.0 0 0 0.0750 3.9082" />
<text x="2.6350" y="9.3483" textLength="5.0595" font-size="1.3333" lengthAdjust="spacingAndGlyphs" text-anchor="middle" opacity="0" stroke-opacity="0">C1206</text>
<g class="stroked-text"><desc>C1206</desc>
<path d="M1.0398 9.2078 L0.9921 9.2554 " />
<path d="M0.9921 9.2554 L0.8493 9.3031 " />
<path d="M0.8493 9.3031 L0.7540 9.3031 " />
<path d="M0.7540 9.3031 L0.6112 9.2554 " />
<path d="M0.6112 9.2554 L0.5160 9.1602 " />
<path d="M0.5160 9.1602 L0.4683 9.0650 " />
<path d="M0.4683 9.0650 L0.4207 8.8745 " />
<path d="M0.4207 8.8745 L0.4207 8.7316 " />
<path d="M0.4207 8.7316 L0.4683 8.5412 " />
<path d="M0.4683 8.5412 L0.5160 8.4459 " />
<path d="M0.5160 8.4459 L0.6112 8.3507 " />
<path d="M0.6112 8.3507 L0.7540 8.3031 " />
<path d="M0.7540 8.3031 L0.8493 8.3031 " />
<path d="M0.8493 8.3031 L0.9921 8.3507 " />
<path d="M0.9921 8.3507 L1.0398 8.3983 " />
<path d="M1.9921 9.3031 L1.4207 9.3031 " />
<path d="M1.7064 9.3031 L1.7064 8.3031 " />
<path d="M1.7064 8.3031 L1.6112 8.4459 " />
<path d="M1.6112 8.4459 L1.5160 8.5412 " />
<path d="M1.5160 8.5412 L1.4207 8.5888 " />
<path d="M2.3731 8.3983 L2.4207 8.3507 " />
<path d="M2.4207 8.3507 L2.5160 8.3031 " />
<path d="M2.5160 8.3031 L2.7540 8.3031 " />
<path d="M2.7540 8.3031 L2.8493 8.3507 " />
<path d="M2.8493 8.3507 L2.8969 8.3983 " />
<path d="M2.8969 8.3983 L2.9445 8.4935 " />
<path d="M2.9445 8.4935 L2.9445 8.5888 " />
<path d="M2.9445 8.5888 L2.8969 8.7316 " />
<path d="M2.8969 8.7316 L2.3255 9.3031 " />
<path d="M2.3255 9.3031 L2.9445 9.3031 " />
<path d="M3.5636 8.3031 L3.6588 8.3031 " />
<path d="M3.6588 8.3031 L3.7540 8.3507 " />
<path d="M3.7540 8.3507 L3.8017 8.3983 " />
<path d="M3.8017 8.3983 L3.8493 8.4935 " />
<path d="M3.8493 8.4935 L3.8969 8.6840 " />
<path d="M3.8969 8.6840 L3.8969 8.9221 " />
<path d="M3.8969 8.9221 L3.8493 9.1126 " />
<path d="M3.8493 9.1126 L3.8017 9.2078 " />
<path d="M3.8017 9.2078 L3.7540 9.2554 " />
<path d="M3.7540 9.2554 L3.6588 9.3031 " />
<path d="M3.6588 9.3031 L3.5636 9.3031 " />
<path d="M3.5636 9.3031 L3.4683 9.2554 " />
<path d="M3.4683 9.2554 L3.4207 9.2078 " />
<path d="M3.4207 9.2078 L3.3731 9.1126 " />
<path d="M3.3731 9.1126 L3.3255 8.9221 " />
<path d="M3.3255 8.9221 L3.3255 8.6840 " />
<path d="M3.3255 8.6840 L3.3731 8.4935 " />
<path d="M3.3731 8.4935 L3.4207 8.3983 " />
<path d="M3.4207 8.3983 L3.4683 8.3507 " />
<path d="M3.4683 8.3507 L3.5636 8.3031 " />
<path d="M4.7540 8.3031 L4.5636 8.3031 " />
<path d="M4.5636 8.3031 L4.4683 8.3507 " />
<path d="M4.4683 8.3507 L4.4207 8.3983 " />
<path d="M4.4207 8.3983 L4.3255 8.5412 " />
<path d="M4.3255 8.5412 L4.2779 8.7316 " />
<path d="M4.2779 8.7316 L4.2779 9.1126 " />
<path d="M4.2779 9.1126 L4.3255 9.2078 " />
<path d="M4.3255 9.2078 L4.3731 9.2554 " />
<path d="M4.3731 9.2554 L4.4683 9.3031 " />
<path d="M4.4683 9.3031 L4.6588 9.3031 " />
<path d="M4.6588 9.3031 L4.7540 9.2554 " />
<path d="M4.7540 9.2554 L4.8017 9.2078 " />
<path d="M4.8017 9.2078 L4.8493 9.1126 " />
<path d="M4.8493 9.1126 L4.8493 8.8745 " />
<path d="M4.8493 8.8745 L4.8017 8.7793 " />
<path d="M4.8017 8.7793 L4.7540 8.7316 " />
<path d="M4.7540 8.7316 L4.6588 8.6840 " />
<path d="M4.6588 8.6840 L4.4683 8.6840 " />
<path d="M4.4683 8.6840 L4.3731 8.7316 " />
<path d="M4.3731 8.7316 L4.3255 8.7793 " />
<path d="M4.3255 8.7793 L4.2779 8.8745 " />
</g></g>
<g style="fill:none;  stroke:#000000; stroke-width:0.0600; stroke-opacity:1;  stroke-linecap:round; stroke-linejoin:round;">
<circle cx="1.0350" cy="5.6482" r="0.0300" /> 
</g> 
</svg>