<?xml version='1.0' encoding='utf-8'?>
<svg xmlns="http://www.w3.org/2000/svg" version="1.1" width="34.0360mm" height="10.5918mm" viewBox="0.0000 0.0000 34.0360 10.5918">
<title>SVG Image created as CAP-SMD_BD10.0-L10.3-W10.3-LS11.0-FD.svg date 2026/01/09 08:17:46 </title>
  <desc>Image generated by PCBNEW </desc>
<g style="fill:#000000; fill-opacity:1.0000;stroke:#000000; stroke-opacity:1.0000; stroke-linecap:round; stroke-linejoin:round;" transform="translate(0 0) scale(1 1)">
<path style="fill:#000000; fill-opacity:1.0000; stroke:none;fill-rule:evenodd;" d="M 19.2798,6.1200 19.2798,4.4700 23.7798,4.4700 23.7798,6.1200 Z" /> 
<path style="fill:#000000; fill-opacity:1.0000; stroke:none;fill-rule:evenodd;" d="M 10.2798,6.1200 10.2798,4.4700 14.7798,4.4700 14.7798,6.1200 Z" /> 
<path style="fill:#000000; fill-opacity:1.0000; stroke:none;fill-rule:evenodd;" d="M 19.2798,6.1200 19.2798,4.4700 23.7798,4.4700 23.7798,6.1200 Z" /> 
<path style="fill:#000000; fill-opacity:1.0000; stroke:none;fill-rule:evenodd;" d="M 10.2798,6.1200 10.2798,4.4700 14.7798,4.4700 14.7798,6.1200 Z" /> 
<path style="fill:#000000; fill-opacity:1.0000; stroke:none;fill-rule:evenodd;" d="M 19.2798,6.1200 19.2798,4.4700 23.7798,4.4700 23.7798,6.1200 Z" /> 
<path style="fill:#000000; fill-opacity:1.0000; stroke:none;fill-rule:evenodd;" d="M 10.2798,6.1200 10.2798,4.4700 14.7798,4.4700 14.7798,6.1200 Z" /> 
</g>
<g style="fill:none;  stroke:#000000; stroke-width:0.1500; stroke-opacity:1;  stroke-linecap:round; stroke-linejoin:round;">
<path d="M22.2498 4.4450 L22.2498 0.0750 " />
<path d="M22.2498 0.0750 L13.9398 0.0750 " />
<path d="M13.9398 0.0750 L11.7998 2.2050 " />
<path d="M11.7998 2.2050 L11.7998 4.4450 " />
<path d="M22.2498 6.1450 L22.2498 10.5250 " />
<path d="M22.2498 10.5250 L13.9398 10.5250 " />
<path d="M13.9398 10.5250 L11.7998 8.3850 " />
<path d="M11.7998 8.3850 L11.7998 6.1450 " />
<text x="17.0298" y="9.7950" textLength="34.0595" font-size="1.3333" lengthAdjust="spacingAndGlyphs" text-anchor="middle" opacity="0" stroke-opacity="0">CAP-SMD_BD10.0-L10.3-W10.3-LS11.0-FD</text>
<g class="stroked-text"><desc>CAP-SMD_BD10.0-L10.3-W10.3-LS11.0-FD</desc>
<path d="M0.9345 9.6546 L0.8869 9.7022 " />
<path d="M0.8869 9.7022 L0.7440 9.7498 " />
<path d="M0.7440 9.7498 L0.6488 9.7498 " />
<path d="M0.6488 9.7498 L0.5060 9.7022 " />
<path d="M0.5060 9.7022 L0.4107 9.6070 " />
<path d="M0.4107 9.6070 L0.3631 9.5117 " />
<path d="M0.3631 9.5117 L0.3155 9.3212 " />
<path d="M0.3155 9.3212 L0.3155 9.1784 " />
<path d="M0.3155 9.1784 L0.3631 8.9879 " />
<path d="M0.3631 8.9879 L0.4107 8.8927 " />
<path d="M0.4107 8.8927 L0.5060 8.7974 " />
<path d="M0.5060 8.7974 L0.6488 8.7498 " />
<path d="M0.6488 8.7498 L0.7440 8.7498 " />
<path d="M0.7440 8.7498 L0.8869 8.7974 " />
<path d="M0.8869 8.7974 L0.9345 8.8451 " />
<path d="M1.3155 9.4641 L1.7917 9.4641 " />
<path d="M1.2202 9.7498 L1.5536 8.7498 " />
<path d="M1.5536 8.7498 L1.8869 9.7498 " />
<path d="M2.2202 9.7498 L2.2202 8.7498 " />
<path d="M2.2202 8.7498 L2.6012 8.7498 " />
<path d="M2.6012 8.7498 L2.6964 8.7974 " />
<path d="M2.6964 8.7974 L2.7440 8.8451 " />
<path d="M2.7440 8.8451 L2.7917 8.9403 " />
<path d="M2.7917 8.9403 L2.7917 9.0832 " />
<path d="M2.7917 9.0832 L2.7440 9.1784 " />
<path d="M2.7440 9.1784 L2.6964 9.2260 " />
<path d="M2.6964 9.2260 L2.6012 9.2736 " />
<path d="M2.6012 9.2736 L2.2202 9.2736 " />
<path d="M3.2202 9.3689 L3.9821 9.3689 " />
<path d="M4.4107 9.7022 L4.5536 9.7498 " />
<path d="M4.5536 9.7498 L4.7917 9.7498 " />
<path d="M4.7917 9.7498 L4.8869 9.7022 " />
<path d="M4.8869 9.7022 L4.9345 9.6546 " />
<path d="M4.9345 9.6546 L4.9821 9.5593 " />
<path d="M4.9821 9.5593 L4.9821 9.4641 " />
<path d="M4.9821 9.4641 L4.9345 9.3689 " />
<path d="M4.9345 9.3689 L4.8869 9.3212 " />
<path d="M4.8869 9.3212 L4.7917 9.2736 " />
<path d="M4.7917 9.2736 L4.6012 9.2260 " />
<path d="M4.6012 9.2260 L4.5060 9.1784 " />
<path d="M4.5060 9.1784 L4.4583 9.1308 " />
<path d="M4.4583 9.1308 L4.4107 9.0355 " />
<path d="M4.4107 9.0355 L4.4107 8.9403 " />
<path d="M4.4107 8.9403 L4.4583 8.8451 " />
<path d="M4.4583 8.8451 L4.5060 8.7974 " />
<path d="M4.5060 8.7974 L4.6012 8.7498 " />
<path d="M4.6012 8.7498 L4.8393 8.7498 " />
<path d="M4.8393 8.7498 L4.9821 8.7974 " />
<path d="M5.4107 9.7498 L5.4107 8.7498 " />
<path d="M5.4107 8.7498 L5.7440 9.4641 " />
<path d="M5.7440 9.4641 L6.0774 8.7498 " />
<path d="M6.0774 8.7498 L6.0774 9.7498 " />
<path d="M6.5536 9.7498 L6.5536 8.7498 " />
<path d="M6.5536 8.7498 L6.7917 8.7498 " />
<path d="M6.7917 8.7498 L6.9345 8.7974 " />
<path d="M6.9345 8.7974 L7.0298 8.8927 " />
<path d="M7.0298 8.8927 L7.0774 8.9879 " />
<path d="M7.0774 8.9879 L7.1250 9.1784 " />
<path d="M7.1250 9.1784 L7.1250 9.3212 " />
<path d="M7.1250 9.3212 L7.0774 9.5117 " />
<path d="M7.0774 9.5117 L7.0298 9.6070 " />
<path d="M7.0298 9.6070 L6.9345 9.7022 " />
<path d="M6.9345 9.7022 L6.7917 9.7498 " />
<path d="M6.7917 9.7498 L6.5536 9.7498 " />
<path d="M7.3155 9.8451 L8.0774 9.8451 " />
<path d="M8.6488 9.2260 L8.7917 9.2736 " />
<path d="M8.7917 9.2736 L8.8393 9.3212 " />
<path d="M8.8393 9.3212 L8.8869 9.4165 " />
<path d="M8.8869 9.4165 L8.8869 9.5593 " />
<path d="M8.8869 9.5593 L8.8393 9.6546 " />
<path d="M8.8393 9.6546 L8.7917 9.7022 " />
<path d="M8.7917 9.7022 L8.6964 9.7498 " />
<path d="M8.6964 9.7498 L8.3155 9.7498 " />
<path d="M8.3155 9.7498 L8.3155 8.7498 " />
<path d="M8.3155 8.7498 L8.6488 8.7498 " />
<path d="M8.6488 8.7498 L8.7440 8.7974 " />
<path d="M8.7440 8.7974 L8.7917 8.8451 " />
<path d="M8.7917 8.8451 L8.8393 8.9403 " />
<path d="M8.8393 8.9403 L8.8393 9.0355 " />
<path d="M8.8393 9.0355 L8.7917 9.1308 " />
<path d="M8.7917 9.1308 L8.7440 9.1784 " />
<path d="M8.7440 9.1784 L8.6488 9.2260 " />
<path d="M8.6488 9.2260 L8.3155 9.2260 " />
<path d="M9.3155 9.7498 L9.3155 8.7498 " />
<path d="M9.3155 8.7498 L9.5536 8.7498 " />
<path d="M9.5536 8.7498 L9.6964 8.7974 " />
<path d="M9.6964 8.7974 L9.7917 8.8927 " />
<path d="M9.7917 8.8927 L9.8393 8.9879 " />
<path d="M9.8393 8.9879 L9.8869 9.1784 " />
<path d="M9.8869 9.1784 L9.8869 9.3212 " />
<path d="M9.8869 9.3212 L9.8393 9.5117 " />
<path d="M9.8393 9.5117 L9.7917 9.6070 " />
<path d="M9.7917 9.6070 L9.6964 9.7022 " />
<path d="M9.6964 9.7022 L9.5536 9.7498 " />
<path d="M9.5536 9.7498 L9.3155 9.7498 " />
<path d="M10.8393 9.7498 L10.2679 9.7498 " />
<path d="M10.5536 9.7498 L10.5536 8.7498 " />
<path d="M10.5536 8.7498 L10.4583 8.8927 " />
<path d="M10.4583 8.8927 L10.3631 8.9879 " />
<path d="M10.3631 8.9879 L10.2679 9.0355 " />
<path d="M11.4583 8.7498 L11.5536 8.7498 " />
<path d="M11.5536 8.7498 L11.6488 8.7974 " />
<path d="M11.6488 8.7974 L11.6964 8.8451 " />
<path d="M11.6964 8.8451 L11.7440 8.9403 " />
<path d="M11.7440 8.9403 L11.7917 9.1308 " />
<path d="M11.7917 9.1308 L11.7917 9.3689 " />
<path d="M11.7917 9.3689 L11.7440 9.5593 " />
<path d="M11.7440 9.5593 L11.6964 9.6546 " />
<path d="M11.6964 9.6546 L11.6488 9.7022 " />
<path d="M11.6488 9.7022 L11.5536 9.7498 " />
<path d="M11.5536 9.7498 L11.4583 9.7498 " />
<path d="M11.4583 9.7498 L11.3631 9.7022 " />
<path d="M11.3631 9.7022 L11.3155 9.6546 " />
<path d="M11.3155 9.6546 L11.2679 9.5593 " />
<path d="M11.2679 9.5593 L11.2202 9.3689 " />
<path d="M11.2202 9.3689 L11.2202 9.1308 " />
<path d="M11.2202 9.1308 L11.2679 8.9403 " />
<path d="M11.2679 8.9403 L11.3155 8.8451 " />
<path d="M11.3155 8.8451 L11.3631 8.7974 " />
<path d="M11.3631 8.7974 L11.4583 8.7498 " />
<path d="M12.2202 9.6546 L12.2679 9.7022 " />
<path d="M12.2679 9.7022 L12.2202 9.7498 " />
<path d="M12.2202 9.7498 L12.1726 9.7022 " />
<path d="M12.1726 9.7022 L12.2202 9.6546 " />
<path d="M12.2202 9.6546 L12.2202 9.7498 " />
<path d="M12.8869 8.7498 L12.9821 8.7498 " />
<path d="M12.9821 8.7498 L13.0774 8.7974 " />
<path d="M13.0774 8.7974 L13.1250 8.8451 " />
<path d="M13.1250 8.8451 L13.1726 8.9403 " />
<path d="M13.1726 8.9403 L13.2202 9.1308 " />
<path d="M13.2202 9.1308 L13.2202 9.3689 " />
<path d="M13.2202 9.3689 L13.1726 9.5593 " />
<path d="M13.1726 9.5593 L13.1250 9.6546 " />
<path d="M13.1250 9.6546 L13.0774 9.7022 " />
<path d="M13.0774 9.7022 L12.9821 9.7498 " />
<path d="M12.9821 9.7498 L12.8869 9.7498 " />
<path d="M12.8869 9.7498 L12.7917 9.7022 " />
<path d="M12.7917 9.7022 L12.7440 9.6546 " />
<path d="M12.7440 9.6546 L12.6964 9.5593 " />
<path d="M12.6964 9.5593 L12.6488 9.3689 " />
<path d="M12.6488 9.3689 L12.6488 9.1308 " />
<path d="M12.6488 9.1308 L12.6964 8.9403 " />
<path d="M12.6964 8.9403 L12.7440 8.8451 " />
<path d="M12.7440 8.8451 L12.7917 8.7974 " />
<path d="M12.7917 8.7974 L12.8869 8.7498 " />
<path d="M13.6488 9.3689 L14.4107 9.3689 " />
<path d="M15.3631 9.7498 L14.8869 9.7498 " />
<path d="M14.8869 9.7498 L14.8869 8.7498 " />
<path d="M16.2202 9.7498 L15.6488 9.7498 " />
<path d="M15.9345 9.7498 L15.9345 8.7498 " />
<path d="M15.9345 8.7498 L15.8393 8.8927 " />
<path d="M15.8393 8.8927 L15.7440 8.9879 " />
<path d="M15.7440 8.9879 L15.6488 9.0355 " />
<path d="M16.8393 8.7498 L16.9345 8.7498 " />
<path d="M16.9345 8.7498 L17.0298 8.7974 " />
<path d="M17.0298 8.7974 L17.0774 8.8451 " />
<path d="M17.0774 8.8451 L17.1250 8.9403 " />
<path d="M17.1250 8.9403 L17.1726 9.1308 " />
<path d="M17.1726 9.1308 L17.1726 9.3689 " />
<path d="M17.1726 9.3689 L17.1250 9.5593 " />
<path d="M17.1250 9.5593 L17.0774 9.6546 " />
<path d="M17.0774 9.6546 L17.0298 9.7022 " />
<path d="M17.0298 9.7022 L16.9345 9.7498 " />
<path d="M16.9345 9.7498 L16.8393 9.7498 " />
<path d="M16.8393 9.7498 L16.7440 9.7022 " />
<path d="M16.7440 9.7022 L16.6964 9.6546 " />
<path d="M16.6964 9.6546 L16.6488 9.5593 " />
<path d="M16.6488 9.5593 L16.6012 9.3689 " />
<path d="M16.6012 9.3689 L16.6012 9.1308 " />
<path d="M16.6012 9.1308 L16.6488 8.9403 " />
<path d="M16.6488 8.9403 L16.6964 8.8451 " />
<path d="M16.6964 8.8451 L16.7440 8.7974 " />
<path d="M16.7440 8.7974 L16.8393 8.7498 " />
<path d="M17.6012 9.6546 L17.6488 9.7022 " />
<path d="M17.6488 9.7022 L17.6012 9.7498 " />
<path d="M17.6012 9.7498 L17.5536 9.7022 " />
<path d="M17.5536 9.7022 L17.6012 9.6546 " />
<path d="M17.6012 9.6546 L17.6012 9.7498 " />
<path d="M17.9821 8.7498 L18.6012 8.7498 " />
<path d="M18.6012 8.7498 L18.2679 9.1308 " />
<path d="M18.2679 9.1308 L18.4107 9.1308 " />
<path d="M18.4107 9.1308 L18.5060 9.1784 " />
<path d="M18.5060 9.1784 L18.5536 9.2260 " />
<path d="M18.5536 9.2260 L18.6012 9.3212 " />
<path d="M18.6012 9.3212 L18.6012 9.5593 " />
<path d="M18.6012 9.5593 L18.5536 9.6546 " />
<path d="M18.5536 9.6546 L18.5060 9.7022 " />
<path d="M18.5060 9.7022 L18.4107 9.7498 " />
<path d="M18.4107 9.7498 L18.1250 9.7498 " />
<path d="M18.1250 9.7498 L18.0298 9.7022 " />
<path d="M18.0298 9.7022 L17.9821 9.6546 " />
<path d="M19.0298 9.3689 L19.7917 9.3689 " />
<path d="M20.1726 8.7498 L20.4107 9.7498 " />
<path d="M20.4107 9.7498 L20.6012 9.0355 " />
<path d="M20.6012 9.0355 L20.7917 9.7498 " />
<path d="M20.7917 9.7498 L21.0298 8.7498 " />
<path d="M21.9345 9.7498 L21.3631 9.7498 " />
<path d="M21.6488 9.7498 L21.6488 8.7498 " />
<path d="M21.6488 8.7498 L21.5536 8.8927 " />
<path d="M21.5536 8.8927 L21.4583 8.9879 " />
<path d="M21.4583 8.9879 L21.3631 9.0355 " />
<path d="M22.5536 8.7498 L22.6488 8.7498 " />
<path d="M22.6488 8.7498 L22.7440 8.7974 " />
<path d="M22.7440 8.7974 L22.7917 8.8451 " />
<path d="M22.7917 8.8451 L22.8393 8.9403 " />
<path d="M22.8393 8.9403 L22.8869 9.1308 " />
<path d="M22.8869 9.1308 L22.8869 9.3689 " />
<path d="M22.8869 9.3689 L22.8393 9.5593 " />
<path d="M22.8393 9.5593 L22.7917 9.6546 " />
<path d="M22.7917 9.6546 L22.7440 9.7022 " />
<path d="M22.7440 9.7022 L22.6488 9.7498 " />
<path d="M22.6488 9.7498 L22.5536 9.7498 " />
<path d="M22.5536 9.7498 L22.4583 9.7022 " />
<path d="M22.4583 9.7022 L22.4107 9.6546 " />
<path d="M22.4107 9.6546 L22.3631 9.5593 " />
<path d="M22.3631 9.5593 L22.3155 9.3689 " />
<path d="M22.3155 9.3689 L22.3155 9.1308 " />
<path d="M22.3155 9.1308 L22.3631 8.9403 " />
<path d="M22.3631 8.9403 L22.4107 8.8451 " />
<path d="M22.4107 8.8451 L22.4583 8.7974 " />
<path d="M22.4583 8.7974 L22.5536 8.7498 " />
<path d="M23.3155 9.6546 L23.3631 9.7022 " />
<path d="M23.3631 9.7022 L23.3155 9.7498 " />
<path d="M23.3155 9.7498 L23.2679 9.7022 " />
<path d="M23.2679 9.7022 L23.3155 9.6546 " />
<path d="M23.3155 9.6546 L23.3155 9.7498 " />
<path d="M23.6964 8.7498 L24.3155 8.7498 " />
<path d="M24.3155 8.7498 L23.9821 9.1308 " />
<path d="M23.9821 9.1308 L24.1250 9.1308 " />
<path d="M24.1250 9.1308 L24.2202 9.1784 " />
<path d="M24.2202 9.1784 L24.2679 9.2260 " />
<path d="M24.2679 9.2260 L24.3155 9.3212 " />
<path d="M24.3155 9.3212 L24.3155 9.5593 " />
<path d="M24.3155 9.5593 L24.2679 9.6546 " />
<path d="M24.2679 9.6546 L24.2202 9.7022 " />
<path d="M24.2202 9.7022 L24.1250 9.7498 " />
<path d="M24.1250 9.7498 L23.8393 9.7498 " />
<path d="M23.8393 9.7498 L23.7440 9.7022 " />
<path d="M23.7440 9.7022 L23.6964 9.6546 " />
<path d="M24.7440 9.3689 L25.5060 9.3689 " />
<path d="M26.4583 9.7498 L25.9821 9.7498 " />
<path d="M25.9821 9.7498 L25.9821 8.7498 " />
<path d="M26.7440 9.7022 L26.8869 9.7498 " />
<path d="M26.8869 9.7498 L27.1250 9.7498 " />
<path d="M27.1250 9.7498 L27.2202 9.7022 " />
<path d="M27.2202 9.7022 L27.2679 9.6546 " />
<path d="M27.2679 9.6546 L27.3155 9.5593 " />
<path d="M27.3155 9.5593 L27.3155 9.4641 " />
<path d="M27.3155 9.4641 L27.2679 9.3689 " />
<path d="M27.2679 9.3689 L27.2202 9.3212 " />
<path d="M27.2202 9.3212 L27.1250 9.2736 " />
<path d="M27.1250 9.2736 L26.9345 9.2260 " />
<path d="M26.9345 9.2260 L26.8393 9.1784 " />
<path d="M26.8393 9.1784 L26.7917 9.1308 " />
<path d="M26.7917 9.1308 L26.7440 9.0355 " />
<path d="M26.7440 9.0355 L26.7440 8.9403 " />
<path d="M26.7440 8.9403 L26.7917 8.8451 " />
<path d="M26.7917 8.8451 L26.8393 8.7974 " />
<path d="M26.8393 8.7974 L26.9345 8.7498 " />
<path d="M26.9345 8.7498 L27.1726 8.7498 " />
<path d="M27.1726 8.7498 L27.3155 8.7974 " />
<path d="M28.2679 9.7498 L27.6964 9.7498 " />
<path d="M27.9821 9.7498 L27.9821 8.7498 " />
<path d="M27.9821 8.7498 L27.8869 8.8927 " />
<path d="M27.8869 8.8927 L27.7917 8.9879 " />
<path d="M27.7917 8.9879 L27.6964 9.0355 " />
<path d="M29.2202 9.7498 L28.6488 9.7498 " />
<path d="M28.9345 9.7498 L28.9345 8.7498 " />
<path d="M28.9345 8.7498 L28.8393 8.8927 " />
<path d="M28.8393 8.8927 L28.7440 8.9879 " />
<path d="M28.7440 8.9879 L28.6488 9.0355 " />
<path d="M29.6488 9.6546 L29.6964 9.7022 " />
<path d="M29.6964 9.7022 L29.6488 9.7498 " />
<path d="M29.6488 9.7498 L29.6012 9.7022 " />
<path d="M29.6012 9.7022 L29.6488 9.6546 " />
<path d="M29.6488 9.6546 L29.6488 9.7498 " />
<path d="M30.3155 8.7498 L30.4107 8.7498 " />
<path d="M30.4107 8.7498 L30.5059 8.7974 " />
<path d="M30.5059 8.7974 L30.5536 8.8451 " />
<path d="M30.5536 8.8451 L30.6012 8.9403 " />
<path d="M30.6012 8.9403 L30.6488 9.1308 " />
<path d="M30.6488 9.1308 L30.6488 9.3689 " />
<path d="M30.6488 9.3689 L30.6012 9.5593 " />
<path d="M30.6012 9.5593 L30.5536 9.6546 " />
<path d="M30.5536 9.6546 L30.5059 9.7022 " />
<path d="M30.5059 9.7022 L30.4107 9.7498 " />
<path d="M30.4107 9.7498 L30.3155 9.7498 " />
<path d="M30.3155 9.7498 L30.2202 9.7022 " />
<path d="M30.2202 9.7022 L30.1726 9.6546 " />
<path d="M30.1726 9.6546 L30.1250 9.5593 " />
<path d="M30.1250 9.5593 L30.0774 9.3689 " />
<path d="M30.0774 9.3689 L30.0774 9.1308 " />
<path d="M30.0774 9.1308 L30.1250 8.9403 " />
<path d="M30.1250 8.9403 L30.1726 8.8451 " />
<path d="M30.1726 8.8451 L30.2202 8.7974 " />
<path d="M30.2202 8.7974 L30.3155 8.7498 " />
<path d="M31.0774 9.3689 L31.8393 9.3689 " />
<path d="M32.6488 9.2260 L32.3155 9.2260 " />
<path d="M32.3155 9.7498 L32.3155 8.7498 " />
<path d="M32.3155 8.7498 L32.7917 8.7498 " />
<path d="M33.1726 9.7498 L33.1726 8.7498 " />
<path d="M33.1726 8.7498 L33.4107 8.7498 " />
<path d="M33.4107 8.7498 L33.5536 8.7974 " />
<path d="M33.5536 8.7974 L33.6488 8.8927 " />
<path d="M33.6488 8.8927 L33.6964 8.9879 " />
<path d="M33.6964 8.9879 L33.7440 9.1784 " />
<path d="M33.7440 9.1784 L33.7440 9.3212 " />
<path d="M33.7440 9.3212 L33.6964 9.5117 " />
<path d="M33.6964 9.5117 L33.6488 9.6070 " />
<path d="M33.6488 9.6070 L33.5536 9.7022 " />
<path d="M33.5536 9.7022 L33.4107 9.7498 " />
<path d="M33.4107 9.7498 L33.1726 9.7498 " />
</g></g>
<g style="fill:none;  stroke:#000000; stroke-width:0.0600; stroke-opacity:1;  stroke-linecap:round; stroke-linejoin:round;">
<circle cx="11.5298" cy="10.4450" r="0.0300" /> 
</g> 
</svg>