<?xml version='1.0' encoding='utf-8'?>
<svg xmlns="http://www.w3.org/2000/svg" version="1.1" width="30.2260mm" height="9.6774mm" viewBox="0.0000 0.0000 30.2260 9.6774">
<title>SVG Image created as CAP-SMD_BD6.3-L6.6-W6.6-LS7.3-FD.svg date 2026/01/09 08:17:46 </title>
  <desc>Image generated by PCBNEW </desc>
<g style="fill:#000000; fill-opacity:1.0000;stroke:#000000; stroke-opacity:1.0000; stroke-linecap:round; stroke-linejoin:round;" transform="translate(0 0) scale(1 1)">
<path style="fill:#000000; fill-opacity:1.0000; stroke:none;fill-rule:evenodd;" d="M 16.0450,5.4482 16.0450,4.2482 19.5450,4.2482 19.5450,5.4482 Z" /> 
<path style="fill:#000000; fill-opacity:1.0000; stroke:none;fill-rule:evenodd;" d="M 10.7050,5.4482 10.7050,4.2482 14.2050,4.2482 14.2050,5.4482 Z" /> 
<path style="fill:#000000; fill-opacity:1.0000; stroke:none;fill-rule:evenodd;" d="M 16.0450,5.4482 16.0450,4.2482 19.5450,4.2482 19.5450,5.4482 Z" /> 
<path style="fill:#000000; fill-opacity:1.0000; stroke:none;fill-rule:evenodd;" d="M 10.7050,5.4482 10.7050,4.2482 14.2050,4.2482 14.2050,5.4482 Z" /> 
<path style="fill:#000000; fill-opacity:1.0000; stroke:none;fill-rule:evenodd;" d="M 16.0450,5.4482 16.0450,4.2482 19.5450,4.2482 19.5450,5.4482 Z" /> 
<path style="fill:#000000; fill-opacity:1.0000; stroke:none;fill-rule:evenodd;" d="M 10.7050,5.4482 10.7050,4.2482 14.2050,4.2482 14.2050,5.4482 Z" /> 
</g>
<g style="fill:none;  stroke:#000000; stroke-width:0.1500; stroke-opacity:1;  stroke-linecap:round; stroke-linejoin:round;">
<path d="M18.4750 5.5782 L18.4950 8.2182 " />
<path d="M18.4950 8.2182 L13.1350 8.2182 " />
<path d="M13.1350 8.2182 L11.7450 6.8282 " />
<path d="M11.7450 6.8282 L11.7550 5.5282 " />
<path d="M18.4850 4.1383 L18.4950 1.4682 " />
<path d="M18.4950 1.4682 L13.1450 1.4682 " />
<path d="M13.1450 1.4682 L11.7450 2.8682 " />
<path d="M11.7450 2.8682 L11.7450 4.1582 " />
<text x="15.1250" y="9.3483" textLength="30.2500" font-size="1.3333" lengthAdjust="spacingAndGlyphs" text-anchor="middle" opacity="0" stroke-opacity="0">CAP-SMD_BD6.3-L6.6-W6.6-LS7.3-FD</text>
<g class="stroked-text"><desc>CAP-SMD_BD6.3-L6.6-W6.6-LS7.3-FD</desc>
<path d="M0.9345 9.2078 L0.8869 9.2554 " />
<path d="M0.8869 9.2554 L0.7440 9.3031 " />
<path d="M0.7440 9.3031 L0.6488 9.3031 " />
<path d="M0.6488 9.3031 L0.5060 9.2554 " />
<path d="M0.5060 9.2554 L0.4107 9.1602 " />
<path d="M0.4107 9.1602 L0.3631 9.0650 " />
<path d="M0.3631 9.0650 L0.3155 8.8745 " />
<path d="M0.3155 8.8745 L0.3155 8.7316 " />
<path d="M0.3155 8.7316 L0.3631 8.5412 " />
<path d="M0.3631 8.5412 L0.4107 8.4459 " />
<path d="M0.4107 8.4459 L0.5060 8.3507 " />
<path d="M0.5060 8.3507 L0.6488 8.3031 " />
<path d="M0.6488 8.3031 L0.7440 8.3031 " />
<path d="M0.7440 8.3031 L0.8869 8.3507 " />
<path d="M0.8869 8.3507 L0.9345 8.3983 " />
<path d="M1.3155 9.0174 L1.7917 9.0174 " />
<path d="M1.2202 9.3031 L1.5536 8.3031 " />
<path d="M1.5536 8.3031 L1.8869 9.3031 " />
<path d="M2.2202 9.3031 L2.2202 8.3031 " />
<path d="M2.2202 8.3031 L2.6012 8.3031 " />
<path d="M2.6012 8.3031 L2.6964 8.3507 " />
<path d="M2.6964 8.3507 L2.7440 8.3983 " />
<path d="M2.7440 8.3983 L2.7917 8.4935 " />
<path d="M2.7917 8.4935 L2.7917 8.6364 " />
<path d="M2.7917 8.6364 L2.7440 8.7316 " />
<path d="M2.7440 8.7316 L2.6964 8.7793 " />
<path d="M2.6964 8.7793 L2.6012 8.8269 " />
<path d="M2.6012 8.8269 L2.2202 8.8269 " />
<path d="M3.2202 8.9221 L3.9821 8.9221 " />
<path d="M4.4107 9.2554 L4.5536 9.3031 " />
<path d="M4.5536 9.3031 L4.7917 9.3031 " />
<path d="M4.7917 9.3031 L4.8869 9.2554 " />
<path d="M4.8869 9.2554 L4.9345 9.2078 " />
<path d="M4.9345 9.2078 L4.9821 9.1126 " />
<path d="M4.9821 9.1126 L4.9821 9.0174 " />
<path d="M4.9821 9.0174 L4.9345 8.9221 " />
<path d="M4.9345 8.9221 L4.8869 8.8745 " />
<path d="M4.8869 8.8745 L4.7917 8.8269 " />
<path d="M4.7917 8.8269 L4.6012 8.7793 " />
<path d="M4.6012 8.7793 L4.5060 8.7316 " />
<path d="M4.5060 8.7316 L4.4583 8.6840 " />
<path d="M4.4583 8.6840 L4.4107 8.5888 " />
<path d="M4.4107 8.5888 L4.4107 8.4935 " />
<path d="M4.4107 8.4935 L4.4583 8.3983 " />
<path d="M4.4583 8.3983 L4.5060 8.3507 " />
<path d="M4.5060 8.3507 L4.6012 8.3031 " />
<path d="M4.6012 8.3031 L4.8393 8.3031 " />
<path d="M4.8393 8.3031 L4.9821 8.3507 " />
<path d="M5.4107 9.3031 L5.4107 8.3031 " />
<path d="M5.4107 8.3031 L5.7440 9.0174 " />
<path d="M5.7440 9.0174 L6.0774 8.3031 " />
<path d="M6.0774 8.3031 L6.0774 9.3031 " />
<path d="M6.5536 9.3031 L6.5536 8.3031 " />
<path d="M6.5536 8.3031 L6.7917 8.3031 " />
<path d="M6.7917 8.3031 L6.9345 8.3507 " />
<path d="M6.9345 8.3507 L7.0298 8.4459 " />
<path d="M7.0298 8.4459 L7.0774 8.5412 " />
<path d="M7.0774 8.5412 L7.1250 8.7316 " />
<path d="M7.1250 8.7316 L7.1250 8.8745 " />
<path d="M7.1250 8.8745 L7.0774 9.0650 " />
<path d="M7.0774 9.0650 L7.0298 9.1602 " />
<path d="M7.0298 9.1602 L6.9345 9.2554 " />
<path d="M6.9345 9.2554 L6.7917 9.3031 " />
<path d="M6.7917 9.3031 L6.5536 9.3031 " />
<path d="M7.3155 9.3983 L8.0774 9.3983 " />
<path d="M8.6488 8.7793 L8.7917 8.8269 " />
<path d="M8.7917 8.8269 L8.8393 8.8745 " />
<path d="M8.8393 8.8745 L8.8869 8.9697 " />
<path d="M8.8869 8.9697 L8.8869 9.1126 " />
<path d="M8.8869 9.1126 L8.8393 9.2078 " />
<path d="M8.8393 9.2078 L8.7917 9.2554 " />
<path d="M8.7917 9.2554 L8.6964 9.3031 " />
<path d="M8.6964 9.3031 L8.3155 9.3031 " />
<path d="M8.3155 9.3031 L8.3155 8.3031 " />
<path d="M8.3155 8.3031 L8.6488 8.3031 " />
<path d="M8.6488 8.3031 L8.7440 8.3507 " />
<path d="M8.7440 8.3507 L8.7917 8.3983 " />
<path d="M8.7917 8.3983 L8.8393 8.4935 " />
<path d="M8.8393 8.4935 L8.8393 8.5888 " />
<path d="M8.8393 8.5888 L8.7917 8.6840 " />
<path d="M8.7917 8.6840 L8.7440 8.7316 " />
<path d="M8.7440 8.7316 L8.6488 8.7793 " />
<path d="M8.6488 8.7793 L8.3155 8.7793 " />
<path d="M9.3155 9.3031 L9.3155 8.3031 " />
<path d="M9.3155 8.3031 L9.5536 8.3031 " />
<path d="M9.5536 8.3031 L9.6964 8.3507 " />
<path d="M9.6964 8.3507 L9.7917 8.4459 " />
<path d="M9.7917 8.4459 L9.8393 8.5412 " />
<path d="M9.8393 8.5412 L9.8869 8.7316 " />
<path d="M9.8869 8.7316 L9.8869 8.8745 " />
<path d="M9.8869 8.8745 L9.8393 9.0650 " />
<path d="M9.8393 9.0650 L9.7917 9.1602 " />
<path d="M9.7917 9.1602 L9.6964 9.2554 " />
<path d="M9.6964 9.2554 L9.5536 9.3031 " />
<path d="M9.5536 9.3031 L9.3155 9.3031 " />
<path d="M10.7440 8.3031 L10.5536 8.3031 " />
<path d="M10.5536 8.3031 L10.4583 8.3507 " />
<path d="M10.4583 8.3507 L10.4107 8.3983 " />
<path d="M10.4107 8.3983 L10.3155 8.5412 " />
<path d="M10.3155 8.5412 L10.2679 8.7316 " />
<path d="M10.2679 8.7316 L10.2679 9.1126 " />
<path d="M10.2679 9.1126 L10.3155 9.2078 " />
<path d="M10.3155 9.2078 L10.3631 9.2554 " />
<path d="M10.3631 9.2554 L10.4583 9.3031 " />
<path d="M10.4583 9.3031 L10.6488 9.3031 " />
<path d="M10.6488 9.3031 L10.7440 9.2554 " />
<path d="M10.7440 9.2554 L10.7917 9.2078 " />
<path d="M10.7917 9.2078 L10.8393 9.1126 " />
<path d="M10.8393 9.1126 L10.8393 8.8745 " />
<path d="M10.8393 8.8745 L10.7917 8.7793 " />
<path d="M10.7917 8.7793 L10.7440 8.7316 " />
<path d="M10.7440 8.7316 L10.6488 8.6840 " />
<path d="M10.6488 8.6840 L10.4583 8.6840 " />
<path d="M10.4583 8.6840 L10.3631 8.7316 " />
<path d="M10.3631 8.7316 L10.3155 8.7793 " />
<path d="M10.3155 8.7793 L10.2679 8.8745 " />
<path d="M11.2679 9.2078 L11.3155 9.2554 " />
<path d="M11.3155 9.2554 L11.2679 9.3031 " />
<path d="M11.2679 9.3031 L11.2202 9.2554 " />
<path d="M11.2202 9.2554 L11.2679 9.2078 " />
<path d="M11.2679 9.2078 L11.2679 9.3031 " />
<path d="M11.6488 8.3031 L12.2679 8.3031 " />
<path d="M12.2679 8.3031 L11.9345 8.6840 " />
<path d="M11.9345 8.6840 L12.0774 8.6840 " />
<path d="M12.0774 8.6840 L12.1726 8.7316 " />
<path d="M12.1726 8.7316 L12.2202 8.7793 " />
<path d="M12.2202 8.7793 L12.2679 8.8745 " />
<path d="M12.2679 8.8745 L12.2679 9.1126 " />
<path d="M12.2679 9.1126 L12.2202 9.2078 " />
<path d="M12.2202 9.2078 L12.1726 9.2554 " />
<path d="M12.1726 9.2554 L12.0774 9.3031 " />
<path d="M12.0774 9.3031 L11.7917 9.3031 " />
<path d="M11.7917 9.3031 L11.6964 9.2554 " />
<path d="M11.6964 9.2554 L11.6488 9.2078 " />
<path d="M12.6964 8.9221 L13.4583 8.9221 " />
<path d="M14.4107 9.3031 L13.9345 9.3031 " />
<path d="M13.9345 9.3031 L13.9345 8.3031 " />
<path d="M15.1726 8.3031 L14.9821 8.3031 " />
<path d="M14.9821 8.3031 L14.8869 8.3507 " />
<path d="M14.8869 8.3507 L14.8393 8.3983 " />
<path d="M14.8393 8.3983 L14.7440 8.5412 " />
<path d="M14.7440 8.5412 L14.6964 8.7316 " />
<path d="M14.6964 8.7316 L14.6964 9.1126 " />
<path d="M14.6964 9.1126 L14.7440 9.2078 " />
<path d="M14.7440 9.2078 L14.7917 9.2554 " />
<path d="M14.7917 9.2554 L14.8869 9.3031 " />
<path d="M14.8869 9.3031 L15.0774 9.3031 " />
<path d="M15.0774 9.3031 L15.1726 9.2554 " />
<path d="M15.1726 9.2554 L15.2202 9.2078 " />
<path d="M15.2202 9.2078 L15.2679 9.1126 " />
<path d="M15.2679 9.1126 L15.2679 8.8745 " />
<path d="M15.2679 8.8745 L15.2202 8.7793 " />
<path d="M15.2202 8.7793 L15.1726 8.7316 " />
<path d="M15.1726 8.7316 L15.0774 8.6840 " />
<path d="M15.0774 8.6840 L14.8869 8.6840 " />
<path d="M14.8869 8.6840 L14.7917 8.7316 " />
<path d="M14.7917 8.7316 L14.7440 8.7793 " />
<path d="M14.7440 8.7793 L14.6964 8.8745 " />
<path d="M15.6964 9.2078 L15.7440 9.2554 " />
<path d="M15.7440 9.2554 L15.6964 9.3031 " />
<path d="M15.6964 9.3031 L15.6488 9.2554 " />
<path d="M15.6488 9.2554 L15.6964 9.2078 " />
<path d="M15.6964 9.2078 L15.6964 9.3031 " />
<path d="M16.6012 8.3031 L16.4107 8.3031 " />
<path d="M16.4107 8.3031 L16.3155 8.3507 " />
<path d="M16.3155 8.3507 L16.2679 8.3983 " />
<path d="M16.2679 8.3983 L16.1726 8.5412 " />
<path d="M16.1726 8.5412 L16.1250 8.7316 " />
<path d="M16.1250 8.7316 L16.1250 9.1126 " />
<path d="M16.1250 9.1126 L16.1726 9.2078 " />
<path d="M16.1726 9.2078 L16.2202 9.2554 " />
<path d="M16.2202 9.2554 L16.3155 9.3031 " />
<path d="M16.3155 9.3031 L16.5060 9.3031 " />
<path d="M16.5060 9.3031 L16.6012 9.2554 " />
<path d="M16.6012 9.2554 L16.6488 9.2078 " />
<path d="M16.6488 9.2078 L16.6964 9.1126 " />
<path d="M16.6964 9.1126 L16.6964 8.8745 " />
<path d="M16.6964 8.8745 L16.6488 8.7793 " />
<path d="M16.6488 8.7793 L16.6012 8.7316 " />
<path d="M16.6012 8.7316 L16.5060 8.6840 " />
<path d="M16.5060 8.6840 L16.3155 8.6840 " />
<path d="M16.3155 8.6840 L16.2202 8.7316 " />
<path d="M16.2202 8.7316 L16.1726 8.7793 " />
<path d="M16.1726 8.7793 L16.1250 8.8745 " />
<path d="M17.1250 8.9221 L17.8869 8.9221 " />
<path d="M18.2679 8.3031 L18.5060 9.3031 " />
<path d="M18.5060 9.3031 L18.6964 8.5888 " />
<path d="M18.6964 8.5888 L18.8869 9.3031 " />
<path d="M18.8869 9.3031 L19.1250 8.3031 " />
<path d="M19.9345 8.3031 L19.7440 8.3031 " />
<path d="M19.7440 8.3031 L19.6488 8.3507 " />
<path d="M19.6488 8.3507 L19.6012 8.3983 " />
<path d="M19.6012 8.3983 L19.5060 8.5412 " />
<path d="M19.5060 8.5412 L19.4583 8.7316 " />
<path d="M19.4583 8.7316 L19.4583 9.1126 " />
<path d="M19.4583 9.1126 L19.5060 9.2078 " />
<path d="M19.5060 9.2078 L19.5536 9.2554 " />
<path d="M19.5536 9.2554 L19.6488 9.3031 " />
<path d="M19.6488 9.3031 L19.8393 9.3031 " />
<path d="M19.8393 9.3031 L19.9345 9.2554 " />
<path d="M19.9345 9.2554 L19.9821 9.2078 " />
<path d="M19.9821 9.2078 L20.0298 9.1126 " />
<path d="M20.0298 9.1126 L20.0298 8.8745 " />
<path d="M20.0298 8.8745 L19.9821 8.7793 " />
<path d="M19.9821 8.7793 L19.9345 8.7316 " />
<path d="M19.9345 8.7316 L19.8393 8.6840 " />
<path d="M19.8393 8.6840 L19.6488 8.6840 " />
<path d="M19.6488 8.6840 L19.5536 8.7316 " />
<path d="M19.5536 8.7316 L19.5060 8.7793 " />
<path d="M19.5060 8.7793 L19.4583 8.8745 " />
<path d="M20.4583 9.2078 L20.5060 9.2554 " />
<path d="M20.5060 9.2554 L20.4583 9.3031 " />
<path d="M20.4583 9.3031 L20.4107 9.2554 " />
<path d="M20.4107 9.2554 L20.4583 9.2078 " />
<path d="M20.4583 9.2078 L20.4583 9.3031 " />
<path d="M21.3631 8.3031 L21.1726 8.3031 " />
<path d="M21.1726 8.3031 L21.0774 8.3507 " />
<path d="M21.0774 8.3507 L21.0298 8.3983 " />
<path d="M21.0298 8.3983 L20.9345 8.5412 " />
<path d="M20.9345 8.5412 L20.8869 8.7316 " />
<path d="M20.8869 8.7316 L20.8869 9.1126 " />
<path d="M20.8869 9.1126 L20.9345 9.2078 " />
<path d="M20.9345 9.2078 L20.9821 9.2554 " />
<path d="M20.9821 9.2554 L21.0774 9.3031 " />
<path d="M21.0774 9.3031 L21.2679 9.3031 " />
<path d="M21.2679 9.3031 L21.3631 9.2554 " />
<path d="M21.3631 9.2554 L21.4107 9.2078 " />
<path d="M21.4107 9.2078 L21.4583 9.1126 " />
<path d="M21.4583 9.1126 L21.4583 8.8745 " />
<path d="M21.4583 8.8745 L21.4107 8.7793 " />
<path d="M21.4107 8.7793 L21.3631 8.7316 " />
<path d="M21.3631 8.7316 L21.2679 8.6840 " />
<path d="M21.2679 8.6840 L21.0774 8.6840 " />
<path d="M21.0774 8.6840 L20.9821 8.7316 " />
<path d="M20.9821 8.7316 L20.9345 8.7793 " />
<path d="M20.9345 8.7793 L20.8869 8.8745 " />
<path d="M21.8869 8.9221 L22.6488 8.9221 " />
<path d="M23.6012 9.3031 L23.1250 9.3031 " />
<path d="M23.1250 9.3031 L23.1250 8.3031 " />
<path d="M23.8869 9.2554 L24.0298 9.3031 " />
<path d="M24.0298 9.3031 L24.2679 9.3031 " />
<path d="M24.2679 9.3031 L24.3631 9.2554 " />
<path d="M24.3631 9.2554 L24.4107 9.2078 " />
<path d="M24.4107 9.2078 L24.4583 9.1126 " />
<path d="M24.4583 9.1126 L24.4583 9.0174 " />
<path d="M24.4583 9.0174 L24.4107 8.9221 " />
<path d="M24.4107 8.9221 L24.3631 8.8745 " />
<path d="M24.3631 8.8745 L24.2679 8.8269 " />
<path d="M24.2679 8.8269 L24.0774 8.7793 " />
<path d="M24.0774 8.7793 L23.9821 8.7316 " />
<path d="M23.9821 8.7316 L23.9345 8.6840 " />
<path d="M23.9345 8.6840 L23.8869 8.5888 " />
<path d="M23.8869 8.5888 L23.8869 8.4935 " />
<path d="M23.8869 8.4935 L23.9345 8.3983 " />
<path d="M23.9345 8.3983 L23.9821 8.3507 " />
<path d="M23.9821 8.3507 L24.0774 8.3031 " />
<path d="M24.0774 8.3031 L24.3155 8.3031 " />
<path d="M24.3155 8.3031 L24.4583 8.3507 " />
<path d="M24.7917 8.3031 L25.4583 8.3031 " />
<path d="M25.4583 8.3031 L25.0298 9.3031 " />
<path d="M25.8393 9.2078 L25.8869 9.2554 " />
<path d="M25.8869 9.2554 L25.8393 9.3031 " />
<path d="M25.8393 9.3031 L25.7917 9.2554 " />
<path d="M25.7917 9.2554 L25.8393 9.2078 " />
<path d="M25.8393 9.2078 L25.8393 9.3031 " />
<path d="M26.2202 8.3031 L26.8393 8.3031 " />
<path d="M26.8393 8.3031 L26.5059 8.6840 " />
<path d="M26.5059 8.6840 L26.6488 8.6840 " />
<path d="M26.6488 8.6840 L26.7440 8.7316 " />
<path d="M26.7440 8.7316 L26.7917 8.7793 " />
<path d="M26.7917 8.7793 L26.8393 8.8745 " />
<path d="M26.8393 8.8745 L26.8393 9.1126 " />
<path d="M26.8393 9.1126 L26.7917 9.2078 " />
<path d="M26.7917 9.2078 L26.7440 9.2554 " />
<path d="M26.7440 9.2554 L26.6488 9.3031 " />
<path d="M26.6488 9.3031 L26.3631 9.3031 " />
<path d="M26.3631 9.3031 L26.2679 9.2554 " />
<path d="M26.2679 9.2554 L26.2202 9.2078 " />
<path d="M27.2679 8.9221 L28.0298 8.9221 " />
<path d="M28.8393 8.7793 L28.5059 8.7793 " />
<path d="M28.5059 9.3031 L28.5059 8.3031 " />
<path d="M28.5059 8.3031 L28.9821 8.3031 " />
<path d="M29.3631 9.3031 L29.3631 8.3031 " />
<path d="M29.3631 8.3031 L29.6012 8.3031 " />
<path d="M29.6012 8.3031 L29.7440 8.3507 " />
<path d="M29.7440 8.3507 L29.8393 8.4459 " />
<path d="M29.8393 8.4459 L29.8869 8.5412 " />
<path d="M29.8869 8.5412 L29.9345 8.7316 " />
<path d="M29.9345 8.7316 L29.9345 8.8745 " />
<path d="M29.9345 8.8745 L29.8869 9.0650 " />
<path d="M29.8869 9.0650 L29.8393 9.1602 " />
<path d="M29.8393 9.1602 L29.7440 9.2554 " />
<path d="M29.7440 9.2554 L29.6012 9.3031 " />
<path d="M29.6012 9.3031 L29.3631 9.3031 " />
</g></g>
<g style="fill:none;  stroke:#000000; stroke-width:0.0600; stroke-opacity:1;  stroke-linecap:round; stroke-linejoin:round;">
<circle cx="11.4750" cy="8.1482" r="0.0300" /> 
</g> 
</svg>