<?xml version='1.0' encoding='utf-8'?>
<svg xmlns="http://www.w3.org/2000/svg" version="1.1" width="34.0360mm" height="19.2786mm" viewBox="0.0000 0.0000 34.0360 19.2786">
<title>SVG Image created as CAP-SMD_BD18.0-L19.0-W19.0-LS20.4-FD.svg date 2026/01/09 08:17:46 </title>
  <desc>Image generated by PCBNEW </desc>
<g style="fill:#000000; fill-opacity:1.0000;stroke:#000000; stroke-opacity:1.0000; stroke-linecap:round; stroke-linejoin:round;" transform="translate(0 0) scale(1 1)">
<path style="fill:#000000; fill-opacity:1.0000; stroke:none;fill-rule:evenodd;" d="M 5.8298,10.9550 5.8298,8.3550 14.2298,8.3550 14.2298,10.9550 Z" /> 
<path style="fill:#000000; fill-opacity:1.0000; stroke:none;fill-rule:evenodd;" d="M 19.8298,10.9550 19.8298,8.3550 28.2298,8.3550 28.2298,10.9550 Z" /> 
<path style="fill:#000000; fill-opacity:1.0000; stroke:none;fill-rule:evenodd;" d="M 5.8298,10.9550 5.8298,8.3550 14.2298,8.3550 14.2298,10.9550 Z" /> 
<path style="fill:#000000; fill-opacity:1.0000; stroke:none;fill-rule:evenodd;" d="M 19.8298,10.9550 19.8298,8.3550 28.2298,8.3550 28.2298,10.9550 Z" /> 
<path style="fill:#000000; fill-opacity:1.0000; stroke:none;fill-rule:evenodd;" d="M 5.8298,10.9550 5.8298,8.3550 14.2298,8.3550 14.2298,10.9550 Z" /> 
<path style="fill:#000000; fill-opacity:1.0000; stroke:none;fill-rule:evenodd;" d="M 19.8298,10.9550 19.8298,8.3550 28.2298,8.3550 28.2298,10.9550 Z" /> 
</g>
<g style="fill:none;  stroke:#000000; stroke-width:0.1500; stroke-opacity:1;  stroke-linecap:round; stroke-linejoin:round;">
</g>
<g style="fill:none;  stroke:#000000; stroke-width:0.2500; stroke-opacity:1;  stroke-linecap:round; stroke-linejoin:round;">
<path d="M26.5498 8.1250 L26.5498 0.1250 " />
<path d="M26.5498 0.1250 L10.7998 0.1250 " />
<path d="M7.4998 11.1850 L7.4998 15.8750 " />
<path d="M7.4998 15.8750 L10.7998 19.1750 " />
<path d="M10.7998 19.1750 L26.5498 19.1750 " />
<path d="M26.5498 19.1750 L26.5498 11.1850 " />
<path d="M10.7998 0.1250 L7.4998 3.4350 " />
<path d="M7.4998 3.4350 L7.4998 8.1250 " />
</g>
<g style="fill:none;  stroke:#000000; stroke-width:0.1500; stroke-opacity:1;  stroke-linecap:round; stroke-linejoin:round;">
<text x="17.0298" y="14.1550" textLength="34.0595" font-size="1.3333" lengthAdjust="spacingAndGlyphs" text-anchor="middle" opacity="0" stroke-opacity="0">CAP-SMD_BD18.0-L19.0-W19.0-LS20.4-FD</text>
<g class="stroked-text"><desc>CAP-SMD_BD18.0-L19.0-W19.0-LS20.4-FD</desc>
<path d="M0.9345 14.0146 L0.8869 14.0622 " />
<path d="M0.8869 14.0622 L0.7440 14.1098 " />
<path d="M0.7440 14.1098 L0.6488 14.1098 " />
<path d="M0.6488 14.1098 L0.5060 14.0622 " />
<path d="M0.5060 14.0622 L0.4107 13.9670 " />
<path d="M0.4107 13.9670 L0.3631 13.8717 " />
<path d="M0.3631 13.8717 L0.3155 13.6812 " />
<path d="M0.3155 13.6812 L0.3155 13.5384 " />
<path d="M0.3155 13.5384 L0.3631 13.3479 " />
<path d="M0.3631 13.3479 L0.4107 13.2527 " />
<path d="M0.4107 13.2527 L0.5060 13.1574 " />
<path d="M0.5060 13.1574 L0.6488 13.1098 " />
<path d="M0.6488 13.1098 L0.7440 13.1098 " />
<path d="M0.7440 13.1098 L0.8869 13.1574 " />
<path d="M0.8869 13.1574 L0.9345 13.2051 " />
<path d="M1.3155 13.8241 L1.7917 13.8241 " />
<path d="M1.2202 14.1098 L1.5536 13.1098 " />
<path d="M1.5536 13.1098 L1.8869 14.1098 " />
<path d="M2.2202 14.1098 L2.2202 13.1098 " />
<path d="M2.2202 13.1098 L2.6012 13.1098 " />
<path d="M2.6012 13.1098 L2.6964 13.1574 " />
<path d="M2.6964 13.1574 L2.7440 13.2051 " />
<path d="M2.7440 13.2051 L2.7917 13.3003 " />
<path d="M2.7917 13.3003 L2.7917 13.4432 " />
<path d="M2.7917 13.4432 L2.7440 13.5384 " />
<path d="M2.7440 13.5384 L2.6964 13.5860 " />
<path d="M2.6964 13.5860 L2.6012 13.6336 " />
<path d="M2.6012 13.6336 L2.2202 13.6336 " />
<path d="M3.2202 13.7289 L3.9821 13.7289 " />
<path d="M4.4107 14.0622 L4.5536 14.1098 " />
<path d="M4.5536 14.1098 L4.7917 14.1098 " />
<path d="M4.7917 14.1098 L4.8869 14.0622 " />
<path d="M4.8869 14.0622 L4.9345 14.0146 " />
<path d="M4.9345 14.0146 L4.9821 13.9193 " />
<path d="M4.9821 13.9193 L4.9821 13.8241 " />
<path d="M4.9821 13.8241 L4.9345 13.7289 " />
<path d="M4.9345 13.7289 L4.8869 13.6812 " />
<path d="M4.8869 13.6812 L4.7917 13.6336 " />
<path d="M4.7917 13.6336 L4.6012 13.5860 " />
<path d="M4.6012 13.5860 L4.5060 13.5384 " />
<path d="M4.5060 13.5384 L4.4583 13.4908 " />
<path d="M4.4583 13.4908 L4.4107 13.3955 " />
<path d="M4.4107 13.3955 L4.4107 13.3003 " />
<path d="M4.4107 13.3003 L4.4583 13.2051 " />
<path d="M4.4583 13.2051 L4.5060 13.1574 " />
<path d="M4.5060 13.1574 L4.6012 13.1098 " />
<path d="M4.6012 13.1098 L4.8393 13.1098 " />
<path d="M4.8393 13.1098 L4.9821 13.1574 " />
<path d="M5.4107 14.1098 L5.4107 13.1098 " />
<path d="M5.4107 13.1098 L5.7440 13.8241 " />
<path d="M5.7440 13.8241 L6.0774 13.1098 " />
<path d="M6.0774 13.1098 L6.0774 14.1098 " />
<path d="M6.5536 14.1098 L6.5536 13.1098 " />
<path d="M6.5536 13.1098 L6.7917 13.1098 " />
<path d="M6.7917 13.1098 L6.9345 13.1574 " />
<path d="M6.9345 13.1574 L7.0298 13.2527 " />
<path d="M7.0298 13.2527 L7.0774 13.3479 " />
<path d="M7.0774 13.3479 L7.1250 13.5384 " />
<path d="M7.1250 13.5384 L7.1250 13.6812 " />
<path d="M7.1250 13.6812 L7.0774 13.8717 " />
<path d="M7.0774 13.8717 L7.0298 13.9670 " />
<path d="M7.0298 13.9670 L6.9345 14.0622 " />
<path d="M6.9345 14.0622 L6.7917 14.1098 " />
<path d="M6.7917 14.1098 L6.5536 14.1098 " />
<path d="M7.3155 14.2051 L8.0774 14.2051 " />
<path d="M8.6488 13.5860 L8.7917 13.6336 " />
<path d="M8.7917 13.6336 L8.8393 13.6812 " />
<path d="M8.8393 13.6812 L8.8869 13.7765 " />
<path d="M8.8869 13.7765 L8.8869 13.9193 " />
<path d="M8.8869 13.9193 L8.8393 14.0146 " />
<path d="M8.8393 14.0146 L8.7917 14.0622 " />
<path d="M8.7917 14.0622 L8.6964 14.1098 " />
<path d="M8.6964 14.1098 L8.3155 14.1098 " />
<path d="M8.3155 14.1098 L8.3155 13.1098 " />
<path d="M8.3155 13.1098 L8.6488 13.1098 " />
<path d="M8.6488 13.1098 L8.7440 13.1574 " />
<path d="M8.7440 13.1574 L8.7917 13.2051 " />
<path d="M8.7917 13.2051 L8.8393 13.3003 " />
<path d="M8.8393 13.3003 L8.8393 13.3955 " />
<path d="M8.8393 13.3955 L8.7917 13.4908 " />
<path d="M8.7917 13.4908 L8.7440 13.5384 " />
<path d="M8.7440 13.5384 L8.6488 13.5860 " />
<path d="M8.6488 13.5860 L8.3155 13.5860 " />
<path d="M9.3155 14.1098 L9.3155 13.1098 " />
<path d="M9.3155 13.1098 L9.5536 13.1098 " />
<path d="M9.5536 13.1098 L9.6964 13.1574 " />
<path d="M9.6964 13.1574 L9.7917 13.2527 " />
<path d="M9.7917 13.2527 L9.8393 13.3479 " />
<path d="M9.8393 13.3479 L9.8869 13.5384 " />
<path d="M9.8869 13.5384 L9.8869 13.6812 " />
<path d="M9.8869 13.6812 L9.8393 13.8717 " />
<path d="M9.8393 13.8717 L9.7917 13.9670 " />
<path d="M9.7917 13.9670 L9.6964 14.0622 " />
<path d="M9.6964 14.0622 L9.5536 14.1098 " />
<path d="M9.5536 14.1098 L9.3155 14.1098 " />
<path d="M10.8393 14.1098 L10.2679 14.1098 " />
<path d="M10.5536 14.1098 L10.5536 13.1098 " />
<path d="M10.5536 13.1098 L10.4583 13.2527 " />
<path d="M10.4583 13.2527 L10.3631 13.3479 " />
<path d="M10.3631 13.3479 L10.2679 13.3955 " />
<path d="M11.4107 13.5384 L11.3155 13.4908 " />
<path d="M11.3155 13.4908 L11.2679 13.4432 " />
<path d="M11.2679 13.4432 L11.2202 13.3479 " />
<path d="M11.2202 13.3479 L11.2202 13.3003 " />
<path d="M11.2202 13.3003 L11.2679 13.2051 " />
<path d="M11.2679 13.2051 L11.3155 13.1574 " />
<path d="M11.3155 13.1574 L11.4107 13.1098 " />
<path d="M11.4107 13.1098 L11.6012 13.1098 " />
<path d="M11.6012 13.1098 L11.6964 13.1574 " />
<path d="M11.6964 13.1574 L11.7440 13.2051 " />
<path d="M11.7440 13.2051 L11.7917 13.3003 " />
<path d="M11.7917 13.3003 L11.7917 13.3479 " />
<path d="M11.7917 13.3479 L11.7440 13.4432 " />
<path d="M11.7440 13.4432 L11.6964 13.4908 " />
<path d="M11.6964 13.4908 L11.6012 13.5384 " />
<path d="M11.6012 13.5384 L11.4107 13.5384 " />
<path d="M11.4107 13.5384 L11.3155 13.5860 " />
<path d="M11.3155 13.5860 L11.2679 13.6336 " />
<path d="M11.2679 13.6336 L11.2202 13.7289 " />
<path d="M11.2202 13.7289 L11.2202 13.9193 " />
<path d="M11.2202 13.9193 L11.2679 14.0146 " />
<path d="M11.2679 14.0146 L11.3155 14.0622 " />
<path d="M11.3155 14.0622 L11.4107 14.1098 " />
<path d="M11.4107 14.1098 L11.6012 14.1098 " />
<path d="M11.6012 14.1098 L11.6964 14.0622 " />
<path d="M11.6964 14.0622 L11.7440 14.0146 " />
<path d="M11.7440 14.0146 L11.7917 13.9193 " />
<path d="M11.7917 13.9193 L11.7917 13.7289 " />
<path d="M11.7917 13.7289 L11.7440 13.6336 " />
<path d="M11.7440 13.6336 L11.6964 13.5860 " />
<path d="M11.6964 13.5860 L11.6012 13.5384 " />
<path d="M12.2202 14.0146 L12.2679 14.0622 " />
<path d="M12.2679 14.0622 L12.2202 14.1098 " />
<path d="M12.2202 14.1098 L12.1726 14.0622 " />
<path d="M12.1726 14.0622 L12.2202 14.0146 " />
<path d="M12.2202 14.0146 L12.2202 14.1098 " />
<path d="M12.8869 13.1098 L12.9821 13.1098 " />
<path d="M12.9821 13.1098 L13.0774 13.1574 " />
<path d="M13.0774 13.1574 L13.1250 13.2051 " />
<path d="M13.1250 13.2051 L13.1726 13.3003 " />
<path d="M13.1726 13.3003 L13.2202 13.4908 " />
<path d="M13.2202 13.4908 L13.2202 13.7289 " />
<path d="M13.2202 13.7289 L13.1726 13.9193 " />
<path d="M13.1726 13.9193 L13.1250 14.0146 " />
<path d="M13.1250 14.0146 L13.0774 14.0622 " />
<path d="M13.0774 14.0622 L12.9821 14.1098 " />
<path d="M12.9821 14.1098 L12.8869 14.1098 " />
<path d="M12.8869 14.1098 L12.7917 14.0622 " />
<path d="M12.7917 14.0622 L12.7440 14.0146 " />
<path d="M12.7440 14.0146 L12.6964 13.9193 " />
<path d="M12.6964 13.9193 L12.6488 13.7289 " />
<path d="M12.6488 13.7289 L12.6488 13.4908 " />
<path d="M12.6488 13.4908 L12.6964 13.3003 " />
<path d="M12.6964 13.3003 L12.7440 13.2051 " />
<path d="M12.7440 13.2051 L12.7917 13.1574 " />
<path d="M12.7917 13.1574 L12.8869 13.1098 " />
<path d="M13.6488 13.7289 L14.4107 13.7289 " />
<path d="M15.3631 14.1098 L14.8869 14.1098 " />
<path d="M14.8869 14.1098 L14.8869 13.1098 " />
<path d="M16.2202 14.1098 L15.6488 14.1098 " />
<path d="M15.9345 14.1098 L15.9345 13.1098 " />
<path d="M15.9345 13.1098 L15.8393 13.2527 " />
<path d="M15.8393 13.2527 L15.7440 13.3479 " />
<path d="M15.7440 13.3479 L15.6488 13.3955 " />
<path d="M16.6964 14.1098 L16.8869 14.1098 " />
<path d="M16.8869 14.1098 L16.9821 14.0622 " />
<path d="M16.9821 14.0622 L17.0298 14.0146 " />
<path d="M17.0298 14.0146 L17.1250 13.8717 " />
<path d="M17.1250 13.8717 L17.1726 13.6812 " />
<path d="M17.1726 13.6812 L17.1726 13.3003 " />
<path d="M17.1726 13.3003 L17.1250 13.2051 " />
<path d="M17.1250 13.2051 L17.0774 13.1574 " />
<path d="M17.0774 13.1574 L16.9821 13.1098 " />
<path d="M16.9821 13.1098 L16.7917 13.1098 " />
<path d="M16.7917 13.1098 L16.6964 13.1574 " />
<path d="M16.6964 13.1574 L16.6488 13.2051 " />
<path d="M16.6488 13.2051 L16.6012 13.3003 " />
<path d="M16.6012 13.3003 L16.6012 13.5384 " />
<path d="M16.6012 13.5384 L16.6488 13.6336 " />
<path d="M16.6488 13.6336 L16.6964 13.6812 " />
<path d="M16.6964 13.6812 L16.7917 13.7289 " />
<path d="M16.7917 13.7289 L16.9821 13.7289 " />
<path d="M16.9821 13.7289 L17.0774 13.6812 " />
<path d="M17.0774 13.6812 L17.1250 13.6336 " />
<path d="M17.1250 13.6336 L17.1726 13.5384 " />
<path d="M17.6012 14.0146 L17.6488 14.0622 " />
<path d="M17.6488 14.0622 L17.6012 14.1098 " />
<path d="M17.6012 14.1098 L17.5536 14.0622 " />
<path d="M17.5536 14.0622 L17.6012 14.0146 " />
<path d="M17.6012 14.0146 L17.6012 14.1098 " />
<path d="M18.2679 13.1098 L18.3631 13.1098 " />
<path d="M18.3631 13.1098 L18.4583 13.1574 " />
<path d="M18.4583 13.1574 L18.5060 13.2051 " />
<path d="M18.5060 13.2051 L18.5536 13.3003 " />
<path d="M18.5536 13.3003 L18.6012 13.4908 " />
<path d="M18.6012 13.4908 L18.6012 13.7289 " />
<path d="M18.6012 13.7289 L18.5536 13.9193 " />
<path d="M18.5536 13.9193 L18.5060 14.0146 " />
<path d="M18.5060 14.0146 L18.4583 14.0622 " />
<path d="M18.4583 14.0622 L18.3631 14.1098 " />
<path d="M18.3631 14.1098 L18.2679 14.1098 " />
<path d="M18.2679 14.1098 L18.1726 14.0622 " />
<path d="M18.1726 14.0622 L18.1250 14.0146 " />
<path d="M18.1250 14.0146 L18.0774 13.9193 " />
<path d="M18.0774 13.9193 L18.0298 13.7289 " />
<path d="M18.0298 13.7289 L18.0298 13.4908 " />
<path d="M18.0298 13.4908 L18.0774 13.3003 " />
<path d="M18.0774 13.3003 L18.1250 13.2051 " />
<path d="M18.1250 13.2051 L18.1726 13.1574 " />
<path d="M18.1726 13.1574 L18.2679 13.1098 " />
<path d="M19.0298 13.7289 L19.7917 13.7289 " />
<path d="M20.1726 13.1098 L20.4107 14.1098 " />
<path d="M20.4107 14.1098 L20.6012 13.3955 " />
<path d="M20.6012 13.3955 L20.7917 14.1098 " />
<path d="M20.7917 14.1098 L21.0298 13.1098 " />
<path d="M21.9345 14.1098 L21.3631 14.1098 " />
<path d="M21.6488 14.1098 L21.6488 13.1098 " />
<path d="M21.6488 13.1098 L21.5536 13.2527 " />
<path d="M21.5536 13.2527 L21.4583 13.3479 " />
<path d="M21.4583 13.3479 L21.3631 13.3955 " />
<path d="M22.4107 14.1098 L22.6012 14.1098 " />
<path d="M22.6012 14.1098 L22.6964 14.0622 " />
<path d="M22.6964 14.0622 L22.7440 14.0146 " />
<path d="M22.7440 14.0146 L22.8393 13.8717 " />
<path d="M22.8393 13.8717 L22.8869 13.6812 " />
<path d="M22.8869 13.6812 L22.8869 13.3003 " />
<path d="M22.8869 13.3003 L22.8393 13.2051 " />
<path d="M22.8393 13.2051 L22.7917 13.1574 " />
<path d="M22.7917 13.1574 L22.6964 13.1098 " />
<path d="M22.6964 13.1098 L22.5060 13.1098 " />
<path d="M22.5060 13.1098 L22.4107 13.1574 " />
<path d="M22.4107 13.1574 L22.3631 13.2051 " />
<path d="M22.3631 13.2051 L22.3155 13.3003 " />
<path d="M22.3155 13.3003 L22.3155 13.5384 " />
<path d="M22.3155 13.5384 L22.3631 13.6336 " />
<path d="M22.3631 13.6336 L22.4107 13.6812 " />
<path d="M22.4107 13.6812 L22.5060 13.7289 " />
<path d="M22.5060 13.7289 L22.6964 13.7289 " />
<path d="M22.6964 13.7289 L22.7917 13.6812 " />
<path d="M22.7917 13.6812 L22.8393 13.6336 " />
<path d="M22.8393 13.6336 L22.8869 13.5384 " />
<path d="M23.3155 14.0146 L23.3631 14.0622 " />
<path d="M23.3631 14.0622 L23.3155 14.1098 " />
<path d="M23.3155 14.1098 L23.2679 14.0622 " />
<path d="M23.2679 14.0622 L23.3155 14.0146 " />
<path d="M23.3155 14.0146 L23.3155 14.1098 " />
<path d="M23.9821 13.1098 L24.0774 13.1098 " />
<path d="M24.0774 13.1098 L24.1726 13.1574 " />
<path d="M24.1726 13.1574 L24.2202 13.2051 " />
<path d="M24.2202 13.2051 L24.2679 13.3003 " />
<path d="M24.2679 13.3003 L24.3155 13.4908 " />
<path d="M24.3155 13.4908 L24.3155 13.7289 " />
<path d="M24.3155 13.7289 L24.2679 13.9193 " />
<path d="M24.2679 13.9193 L24.2202 14.0146 " />
<path d="M24.2202 14.0146 L24.1726 14.0622 " />
<path d="M24.1726 14.0622 L24.0774 14.1098 " />
<path d="M24.0774 14.1098 L23.9821 14.1098 " />
<path d="M23.9821 14.1098 L23.8869 14.0622 " />
<path d="M23.8869 14.0622 L23.8393 14.0146 " />
<path d="M23.8393 14.0146 L23.7917 13.9193 " />
<path d="M23.7917 13.9193 L23.7440 13.7289 " />
<path d="M23.7440 13.7289 L23.7440 13.4908 " />
<path d="M23.7440 13.4908 L23.7917 13.3003 " />
<path d="M23.7917 13.3003 L23.8393 13.2051 " />
<path d="M23.8393 13.2051 L23.8869 13.1574 " />
<path d="M23.8869 13.1574 L23.9821 13.1098 " />
<path d="M24.7440 13.7289 L25.5060 13.7289 " />
<path d="M26.4583 14.1098 L25.9821 14.1098 " />
<path d="M25.9821 14.1098 L25.9821 13.1098 " />
<path d="M26.7440 14.0622 L26.8869 14.1098 " />
<path d="M26.8869 14.1098 L27.1250 14.1098 " />
<path d="M27.1250 14.1098 L27.2202 14.0622 " />
<path d="M27.2202 14.0622 L27.2679 14.0146 " />
<path d="M27.2679 14.0146 L27.3155 13.9193 " />
<path d="M27.3155 13.9193 L27.3155 13.8241 " />
<path d="M27.3155 13.8241 L27.2679 13.7289 " />
<path d="M27.2679 13.7289 L27.2202 13.6812 " />
<path d="M27.2202 13.6812 L27.1250 13.6336 " />
<path d="M27.1250 13.6336 L26.9345 13.5860 " />
<path d="M26.9345 13.5860 L26.8393 13.5384 " />
<path d="M26.8393 13.5384 L26.7917 13.4908 " />
<path d="M26.7917 13.4908 L26.7440 13.3955 " />
<path d="M26.7440 13.3955 L26.7440 13.3003 " />
<path d="M26.7440 13.3003 L26.7917 13.2051 " />
<path d="M26.7917 13.2051 L26.8393 13.1574 " />
<path d="M26.8393 13.1574 L26.9345 13.1098 " />
<path d="M26.9345 13.1098 L27.1726 13.1098 " />
<path d="M27.1726 13.1098 L27.3155 13.1574 " />
<path d="M27.6964 13.2051 L27.7440 13.1574 " />
<path d="M27.7440 13.1574 L27.8393 13.1098 " />
<path d="M27.8393 13.1098 L28.0774 13.1098 " />
<path d="M28.0774 13.1098 L28.1726 13.1574 " />
<path d="M28.1726 13.1574 L28.2202 13.2051 " />
<path d="M28.2202 13.2051 L28.2679 13.3003 " />
<path d="M28.2679 13.3003 L28.2679 13.3955 " />
<path d="M28.2679 13.3955 L28.2202 13.5384 " />
<path d="M28.2202 13.5384 L27.6488 14.1098 " />
<path d="M27.6488 14.1098 L28.2679 14.1098 " />
<path d="M28.8869 13.1098 L28.9821 13.1098 " />
<path d="M28.9821 13.1098 L29.0774 13.1574 " />
<path d="M29.0774 13.1574 L29.1250 13.2051 " />
<path d="M29.1250 13.2051 L29.1726 13.3003 " />
<path d="M29.1726 13.3003 L29.2202 13.4908 " />
<path d="M29.2202 13.4908 L29.2202 13.7289 " />
<path d="M29.2202 13.7289 L29.1726 13.9193 " />
<path d="M29.1726 13.9193 L29.1250 14.0146 " />
<path d="M29.1250 14.0146 L29.0774 14.0622 " />
<path d="M29.0774 14.0622 L28.9821 14.1098 " />
<path d="M28.9821 14.1098 L28.8869 14.1098 " />
<path d="M28.8869 14.1098 L28.7917 14.0622 " />
<path d="M28.7917 14.0622 L28.7440 14.0146 " />
<path d="M28.7440 14.0146 L28.6964 13.9193 " />
<path d="M28.6964 13.9193 L28.6488 13.7289 " />
<path d="M28.6488 13.7289 L28.6488 13.4908 " />
<path d="M28.6488 13.4908 L28.6964 13.3003 " />
<path d="M28.6964 13.3003 L28.7440 13.2051 " />
<path d="M28.7440 13.2051 L28.7917 13.1574 " />
<path d="M28.7917 13.1574 L28.8869 13.1098 " />
<path d="M29.6488 14.0146 L29.6964 14.0622 " />
<path d="M29.6964 14.0622 L29.6488 14.1098 " />
<path d="M29.6488 14.1098 L29.6012 14.0622 " />
<path d="M29.6012 14.0622 L29.6488 14.0146 " />
<path d="M29.6488 14.0146 L29.6488 14.1098 " />
<path d="M30.5536 13.4432 L30.5536 14.1098 " />
<path d="M30.3155 13.0622 L30.0774 13.7765 " />
<path d="M30.0774 13.7765 L30.6964 13.7765 " />
<path d="M31.0774 13.7289 L31.8393 13.7289 " />
<path d="M32.6488 13.5860 L32.3155 13.5860 " />
<path d="M32.3155 14.1098 L32.3155 13.1098 " />
<path d="M32.3155 13.1098 L32.7917 13.1098 " />
<path d="M33.1726 14.1098 L33.1726 13.1098 " />
<path d="M33.1726 13.1098 L33.4107 13.1098 " />
<path d="M33.4107 13.1098 L33.5536 13.1574 " />
<path d="M33.5536 13.1574 L33.6488 13.2527 " />
<path d="M33.6488 13.2527 L33.6964 13.3479 " />
<path d="M33.6964 13.3479 L33.7440 13.5384 " />
<path d="M33.7440 13.5384 L33.7440 13.6812 " />
<path d="M33.7440 13.6812 L33.6964 13.8717 " />
<path d="M33.6964 13.8717 L33.6488 13.9670 " />
<path d="M33.6488 13.9670 L33.5536 14.0622 " />
<path d="M33.5536 14.0622 L33.4107 14.1098 " />
<path d="M33.4107 14.1098 L33.1726 14.1098 " />
</g></g>
<g style="fill:none;  stroke:#000000; stroke-width:0.0600; stroke-opacity:1;  stroke-linecap:round; stroke-linejoin:round;">
<circle cx="6.8298" cy="19.1550" r="0.0300" /> 
</g> 
</svg>