<?xml version='1.0' encoding='utf-8'?>
<svg xmlns="http://www.w3.org/2000/svg" version="1.1" width="4.9022mm" height="9.6774mm" viewBox="0.0000 0.0000 4.9022 9.6774">
<title>SVG Image created as F1206.svg date 2026/01/09 08:17:46 </title>
  <desc>Image generated by PCBNEW </desc>
<g style="fill:#000000; fill-opacity:1.0000;stroke:#000000; stroke-opacity:1.0000; stroke-linecap:round; stroke-linejoin:round;" transform="translate(0 0) scale(1 1)">
<path style="fill:#000000; fill-opacity:1.0000; stroke:none;fill-rule:evenodd;" d="M 0.4133,5.7132 0.4133,3.9832 1.6033,3.9832 1.6033,5.7132 Z" /> 
<path style="fill:#000000; fill-opacity:1.0000; stroke:none;fill-rule:evenodd;" d="M 3.3133,5.7132 3.3133,3.9832 4.5033,3.9832 4.5033,5.7132 Z" /> 
<path style="fill:#000000; fill-opacity:1.0000; stroke:none;fill-rule:evenodd;" d="M 0.4133,5.7132 0.4133,3.9832 1.6033,3.9832 1.6033,5.7132 Z" /> 
<path style="fill:#000000; fill-opacity:1.0000; stroke:none;fill-rule:evenodd;" d="M 3.3133,5.7132 3.3133,3.9832 4.5033,3.9832 4.5033,5.7132 Z" /> 
<path style="fill:#000000; fill-opacity:1.0000; stroke:none;fill-rule:evenodd;" d="M 0.4133,5.7132 0.4133,3.9832 1.6033,3.9832 1.6033,5.7132 Z" /> 
<path style="fill:#000000; fill-opacity:1.0000; stroke:none;fill-rule:evenodd;" d="M 3.3133,5.7132 3.3133,3.9832 4.5033,3.9832 4.5033,5.7132 Z" /> 
</g>
<g style="fill:none;  stroke:#000000; stroke-width:0.1500; stroke-opacity:1;  stroke-linecap:round; stroke-linejoin:round;">
<path d="M1.5283 3.7582 L0.3383 3.7582 " />
<path d="M3.3883 3.7582 L4.5783 3.7582 " />
<path d="M0.1883 3.9082 L0.1883 5.7882 " />
<path d="M4.7283 3.9082 L4.7283 5.7882 " />
<path d="M0.3383 5.9383 L1.5283 5.9383 " />
<path d="M4.5783 5.9383 L3.3883 5.9383 " />
</g>
<g style="fill:none;  stroke:#000000; stroke-width:0.0800; stroke-opacity:1;  stroke-linecap:round; stroke-linejoin:round;">
<path d="M2.4583 4.0082 A0.8422 0.8422 0.0 0 0 2.4596 4.8504" />
<path d="M2.4583 5.6883 A0.8422 0.8422 0.0 0 0 2.4571 4.8461" />
</g>
<g style="fill:none;  stroke:#000000; stroke-width:0.1500; stroke-opacity:1;  stroke-linecap:round; stroke-linejoin:round;">
<text x="2.4583" y="9.3483" textLength="4.9167" font-size="1.3333" lengthAdjust="spacingAndGlyphs" text-anchor="middle" opacity="0" stroke-opacity="0">F1206</text>
<g class="stroked-text"><desc>F1206</desc>
<path d="M0.6964 8.7793 L0.3631 8.7793 " />
<path d="M0.3631 9.3031 L0.3631 8.3031 " />
<path d="M0.3631 8.3031 L0.8393 8.3031 " />
<path d="M1.7440 9.3031 L1.1726 9.3031 " />
<path d="M1.4583 9.3031 L1.4583 8.3031 " />
<path d="M1.4583 8.3031 L1.3631 8.4459 " />
<path d="M1.3631 8.4459 L1.2679 8.5412 " />
<path d="M1.2679 8.5412 L1.1726 8.5888 " />
<path d="M2.1250 8.3983 L2.1726 8.3507 " />
<path d="M2.1726 8.3507 L2.2679 8.3031 " />
<path d="M2.2679 8.3031 L2.5060 8.3031 " />
<path d="M2.5060 8.3031 L2.6012 8.3507 " />
<path d="M2.6012 8.3507 L2.6488 8.3983 " />
<path d="M2.6488 8.3983 L2.6964 8.4935 " />
<path d="M2.6964 8.4935 L2.6964 8.5888 " />
<path d="M2.6964 8.5888 L2.6488 8.7316 " />
<path d="M2.6488 8.7316 L2.0774 9.3031 " />
<path d="M2.0774 9.3031 L2.6964 9.3031 " />
<path d="M3.3155 8.3031 L3.4107 8.3031 " />
<path d="M3.4107 8.3031 L3.5060 8.3507 " />
<path d="M3.5060 8.3507 L3.5536 8.3983 " />
<path d="M3.5536 8.3983 L3.6012 8.4935 " />
<path d="M3.6012 8.4935 L3.6488 8.6840 " />
<path d="M3.6488 8.6840 L3.6488 8.9221 " />
<path d="M3.6488 8.9221 L3.6012 9.1126 " />
<path d="M3.6012 9.1126 L3.5536 9.2078 " />
<path d="M3.5536 9.2078 L3.5060 9.2554 " />
<path d="M3.5060 9.2554 L3.4107 9.3031 " />
<path d="M3.4107 9.3031 L3.3155 9.3031 " />
<path d="M3.3155 9.3031 L3.2202 9.2554 " />
<path d="M3.2202 9.2554 L3.1726 9.2078 " />
<path d="M3.1726 9.2078 L3.1250 9.1126 " />
<path d="M3.1250 9.1126 L3.0774 8.9221 " />
<path d="M3.0774 8.9221 L3.0774 8.6840 " />
<path d="M3.0774 8.6840 L3.1250 8.4935 " />
<path d="M3.1250 8.4935 L3.1726 8.3983 " />
<path d="M3.1726 8.3983 L3.2202 8.3507 " />
<path d="M3.2202 8.3507 L3.3155 8.3031 " />
<path d="M4.5060 8.3031 L4.3155 8.3031 " />
<path d="M4.3155 8.3031 L4.2202 8.3507 " />
<path d="M4.2202 8.3507 L4.1726 8.3983 " />
<path d="M4.1726 8.3983 L4.0774 8.5412 " />
<path d="M4.0774 8.5412 L4.0298 8.7316 " />
<path d="M4.0298 8.7316 L4.0298 9.1126 " />
<path d="M4.0298 9.1126 L4.0774 9.2078 " />
<path d="M4.0774 9.2078 L4.1250 9.2554 " />
<path d="M4.1250 9.2554 L4.2202 9.3031 " />
<path d="M4.2202 9.3031 L4.4107 9.3031 " />
<path d="M4.4107 9.3031 L4.5060 9.2554 " />
<path d="M4.5060 9.2554 L4.5536 9.2078 " />
<path d="M4.5536 9.2078 L4.6012 9.1126 " />
<path d="M4.6012 9.1126 L4.6012 8.8745 " />
<path d="M4.6012 8.8745 L4.5536 8.7793 " />
<path d="M4.5536 8.7793 L4.5060 8.7316 " />
<path d="M4.5060 8.7316 L4.4107 8.6840 " />
<path d="M4.4107 8.6840 L4.2202 8.6840 " />
<path d="M4.2202 8.6840 L4.1250 8.7316 " />
<path d="M4.1250 8.7316 L4.0774 8.7793 " />
<path d="M4.0774 8.7793 L4.0298 8.8745 " />
</g></g>
<g style="fill:none;  stroke:#000000; stroke-width:0.0600; stroke-opacity:1;  stroke-linecap:round; stroke-linejoin:round;">
<circle cx="0.8583" cy="5.6482" r="0.0300" /> 
</g> 
</svg>