<?xml version='1.0' encoding='utf-8'?>
<svg xmlns="http://www.w3.org/2000/svg" version="1.1" width="26.7970mm" height="11.5824mm" viewBox="0.0000 0.0000 26.7970 11.5824">
<title>SVG Image created as HDR-SMD_6P-P2.00-V-M_XBK_R2.svg date 2026/01/09 08:17:46 </title>
  <desc>Image generated by PCBNEW </desc>
<g style="fill:#000000; fill-opacity:1.0000;stroke:#000000; stroke-opacity:1.0000; stroke-linecap:round; stroke-linejoin:round;" transform="translate(0 0) scale(1 1)">
<path style="fill:#000000; fill-opacity:1.0000; stroke:none;fill-rule:evenodd;" d="M 18.8557,3.0982 18.8557,6.5982 17.9657,6.5982 17.9657,3.0982 Z" /> 
<path style="fill:#000000; fill-opacity:1.0000; stroke:none;fill-rule:evenodd;" d="M 16.8557,4.9982 16.8557,8.4982 15.9657,8.4982 15.9657,4.9982 Z" /> 
<path style="fill:#000000; fill-opacity:1.0000; stroke:none;fill-rule:evenodd;" d="M 14.8557,3.0982 14.8557,6.5982 13.9657,6.5982 13.9657,3.0982 Z" /> 
<path style="fill:#000000; fill-opacity:1.0000; stroke:none;fill-rule:evenodd;" d="M 12.8557,4.9982 12.8557,8.4982 11.9657,8.4982 11.9657,4.9982 Z" /> 
<path style="fill:#000000; fill-opacity:1.0000; stroke:none;fill-rule:evenodd;" d="M 10.8557,3.0982 10.8557,6.5982 9.9657,6.5982 9.9657,3.0982 Z" /> 
</g>
<g style="fill:none;  stroke:#000000; stroke-width:0.8900; stroke-opacity:1;  stroke-linecap:round; stroke-linejoin:round;">
<path d="M8.4107 8.0533 L8.4107 5.4432 " />
<path style="fill:#000000; fill-opacity:1.0000; stroke:none;fill-rule:evenodd;" d="M 18.8557,3.0982 18.8557,6.5982 17.9657,6.5982 17.9657,3.0982 Z" /> 
<path style="fill:#000000; fill-opacity:1.0000; stroke:none;fill-rule:evenodd;" d="M 16.8557,4.9982 16.8557,8.4982 15.9657,8.4982 15.9657,4.9982 Z" /> 
<path style="fill:#000000; fill-opacity:1.0000; stroke:none;fill-rule:evenodd;" d="M 14.8557,3.0982 14.8557,6.5982 13.9657,6.5982 13.9657,3.0982 Z" /> 
<path style="fill:#000000; fill-opacity:1.0000; stroke:none;fill-rule:evenodd;" d="M 12.8557,4.9982 12.8557,8.4982 11.9657,8.4982 11.9657,4.9982 Z" /> 
<path style="fill:#000000; fill-opacity:1.0000; stroke:none;fill-rule:evenodd;" d="M 10.8557,3.0982 10.8557,6.5982 9.9657,6.5982 9.9657,3.0982 Z" /> 
</g>
<g style="fill:none;  stroke:#000000; stroke-width:0.8900; stroke-opacity:1;  stroke-linecap:round; stroke-linejoin:round;">
<path d="M8.4107 8.0533 L8.4107 5.4432 " />
<path style="fill:#000000; fill-opacity:1.0000; stroke:none;fill-rule:evenodd;" d="M 18.8557,3.0982 18.8557,6.5982 17.9657,6.5982 17.9657,3.0982 Z" /> 
<path style="fill:#000000; fill-opacity:1.0000; stroke:none;fill-rule:evenodd;" d="M 16.8557,4.9982 16.8557,8.4982 15.9657,8.4982 15.9657,4.9982 Z" /> 
<path style="fill:#000000; fill-opacity:1.0000; stroke:none;fill-rule:evenodd;" d="M 14.8557,3.0982 14.8557,6.5982 13.9657,6.5982 13.9657,3.0982 Z" /> 
<path style="fill:#000000; fill-opacity:1.0000; stroke:none;fill-rule:evenodd;" d="M 12.8557,4.9982 12.8557,8.4982 11.9657,8.4982 11.9657,4.9982 Z" /> 
<path style="fill:#000000; fill-opacity:1.0000; stroke:none;fill-rule:evenodd;" d="M 10.8557,3.0982 10.8557,6.5982 9.9657,6.5982 9.9657,3.0982 Z" /> 
</g>
<g style="fill:none;  stroke:#000000; stroke-width:0.8900; stroke-opacity:1;  stroke-linecap:round; stroke-linejoin:round;">
<path d="M8.4107 8.0533 L8.4107 5.4432 " />
</g>
<g style="fill:none;  stroke:#000000; stroke-width:0.1500; stroke-opacity:1;  stroke-linecap:round; stroke-linejoin:round;">
</g>
<g style="fill:none;  stroke:#000000; stroke-width:0.2500; stroke-opacity:1;  stroke-linecap:round; stroke-linejoin:round;">
<path d="M17.0907 6.7982 L19.4107 6.7982 " />
<path d="M19.0907 4.7982 L19.4107 4.7982 " />
<path d="M19.4107 4.7982 L19.4107 6.7982 " />
<path d="M7.4107 4.7982 L7.4107 6.7982 " />
<path d="M13.0907 6.7982 L15.7407 6.7982 " />
<path d="M9.0907 6.7982 L11.7407 6.7982 " />
<path d="M7.4107 6.7982 L7.7407 6.7982 " />
<path d="M15.0907 4.7982 L17.7407 4.7982 " />
<path d="M11.0907 4.7982 L13.7407 4.7982 " />
<path d="M7.4107 4.7982 L9.7407 4.7982 " />
<circle cx="7.4007" cy="7.5782" r="0.1300" /> 
</g>
<g style="fill:none;  stroke:#000000; stroke-width:0.1500; stroke-opacity:1;  stroke-linecap:round; stroke-linejoin:round;">
<text x="13.4107" y="11.2482" textLength="26.8214" font-size="1.3333" lengthAdjust="spacingAndGlyphs" text-anchor="middle" opacity="0" stroke-opacity="0">HDR-SMD_6P-P2.00-V-M_XBK_R2</text>
<g class="stroked-text"><desc>HDR-SMD_6P-P2.00-V-M_XBK_R2</desc>
<path d="M0.3631 11.2031 L0.3631 10.2031 " />
<path d="M0.3631 10.6793 L0.9345 10.6793 " />
<path d="M0.9345 11.2031 L0.9345 10.2031 " />
<path d="M1.4107 11.2031 L1.4107 10.2031 " />
<path d="M1.4107 10.2031 L1.6488 10.2031 " />
<path d="M1.6488 10.2031 L1.7917 10.2507 " />
<path d="M1.7917 10.2507 L1.8869 10.3459 " />
<path d="M1.8869 10.3459 L1.9345 10.4412 " />
<path d="M1.9345 10.4412 L1.9821 10.6316 " />
<path d="M1.9821 10.6316 L1.9821 10.7745 " />
<path d="M1.9821 10.7745 L1.9345 10.9650 " />
<path d="M1.9345 10.9650 L1.8869 11.0602 " />
<path d="M1.8869 11.0602 L1.7917 11.1555 " />
<path d="M1.7917 11.1555 L1.6488 11.2031 " />
<path d="M1.6488 11.2031 L1.4107 11.2031 " />
<path d="M2.9821 11.2031 L2.6488 10.7269 " />
<path d="M2.4107 11.2031 L2.4107 10.2031 " />
<path d="M2.4107 10.2031 L2.7917 10.2031 " />
<path d="M2.7917 10.2031 L2.8869 10.2507 " />
<path d="M2.8869 10.2507 L2.9345 10.2983 " />
<path d="M2.9345 10.2983 L2.9821 10.3935 " />
<path d="M2.9821 10.3935 L2.9821 10.5364 " />
<path d="M2.9821 10.5364 L2.9345 10.6316 " />
<path d="M2.9345 10.6316 L2.8869 10.6793 " />
<path d="M2.8869 10.6793 L2.7917 10.7269 " />
<path d="M2.7917 10.7269 L2.4107 10.7269 " />
<path d="M3.4107 10.8221 L4.1726 10.8221 " />
<path d="M4.6012 11.1555 L4.7440 11.2031 " />
<path d="M4.7440 11.2031 L4.9821 11.2031 " />
<path d="M4.9821 11.2031 L5.0774 11.1555 " />
<path d="M5.0774 11.1555 L5.1250 11.1078 " />
<path d="M5.1250 11.1078 L5.1726 11.0126 " />
<path d="M5.1726 11.0126 L5.1726 10.9174 " />
<path d="M5.1726 10.9174 L5.1250 10.8221 " />
<path d="M5.1250 10.8221 L5.0774 10.7745 " />
<path d="M5.0774 10.7745 L4.9821 10.7269 " />
<path d="M4.9821 10.7269 L4.7917 10.6793 " />
<path d="M4.7917 10.6793 L4.6964 10.6316 " />
<path d="M4.6964 10.6316 L4.6488 10.5840 " />
<path d="M4.6488 10.5840 L4.6012 10.4888 " />
<path d="M4.6012 10.4888 L4.6012 10.3935 " />
<path d="M4.6012 10.3935 L4.6488 10.2983 " />
<path d="M4.6488 10.2983 L4.6964 10.2507 " />
<path d="M4.6964 10.2507 L4.7917 10.2031 " />
<path d="M4.7917 10.2031 L5.0298 10.2031 " />
<path d="M5.0298 10.2031 L5.1726 10.2507 " />
<path d="M5.6012 11.2031 L5.6012 10.2031 " />
<path d="M5.6012 10.2031 L5.9345 10.9174 " />
<path d="M5.9345 10.9174 L6.2679 10.2031 " />
<path d="M6.2679 10.2031 L6.2679 11.2031 " />
<path d="M6.7440 11.2031 L6.7440 10.2031 " />
<path d="M6.7440 10.2031 L6.9821 10.2031 " />
<path d="M6.9821 10.2031 L7.1250 10.2507 " />
<path d="M7.1250 10.2507 L7.2202 10.3459 " />
<path d="M7.2202 10.3459 L7.2679 10.4412 " />
<path d="M7.2679 10.4412 L7.3155 10.6316 " />
<path d="M7.3155 10.6316 L7.3155 10.7745 " />
<path d="M7.3155 10.7745 L7.2679 10.9650 " />
<path d="M7.2679 10.9650 L7.2202 11.0602 " />
<path d="M7.2202 11.0602 L7.1250 11.1555 " />
<path d="M7.1250 11.1555 L6.9821 11.2031 " />
<path d="M6.9821 11.2031 L6.7440 11.2031 " />
<path d="M7.5060 11.2983 L8.2679 11.2983 " />
<path d="M8.9345 10.2031 L8.7440 10.2031 " />
<path d="M8.7440 10.2031 L8.6488 10.2507 " />
<path d="M8.6488 10.2507 L8.6012 10.2983 " />
<path d="M8.6012 10.2983 L8.5060 10.4412 " />
<path d="M8.5060 10.4412 L8.4583 10.6316 " />
<path d="M8.4583 10.6316 L8.4583 11.0126 " />
<path d="M8.4583 11.0126 L8.5060 11.1078 " />
<path d="M8.5060 11.1078 L8.5536 11.1555 " />
<path d="M8.5536 11.1555 L8.6488 11.2031 " />
<path d="M8.6488 11.2031 L8.8393 11.2031 " />
<path d="M8.8393 11.2031 L8.9345 11.1555 " />
<path d="M8.9345 11.1555 L8.9821 11.1078 " />
<path d="M8.9821 11.1078 L9.0298 11.0126 " />
<path d="M9.0298 11.0126 L9.0298 10.7745 " />
<path d="M9.0298 10.7745 L8.9821 10.6793 " />
<path d="M8.9821 10.6793 L8.9345 10.6316 " />
<path d="M8.9345 10.6316 L8.8393 10.5840 " />
<path d="M8.8393 10.5840 L8.6488 10.5840 " />
<path d="M8.6488 10.5840 L8.5536 10.6316 " />
<path d="M8.5536 10.6316 L8.5060 10.6793 " />
<path d="M8.5060 10.6793 L8.4583 10.7745 " />
<path d="M9.4583 11.2031 L9.4583 10.2031 " />
<path d="M9.4583 10.2031 L9.8393 10.2031 " />
<path d="M9.8393 10.2031 L9.9345 10.2507 " />
<path d="M9.9345 10.2507 L9.9821 10.2983 " />
<path d="M9.9821 10.2983 L10.0298 10.3935 " />
<path d="M10.0298 10.3935 L10.0298 10.5364 " />
<path d="M10.0298 10.5364 L9.9821 10.6316 " />
<path d="M9.9821 10.6316 L9.9345 10.6793 " />
<path d="M9.9345 10.6793 L9.8393 10.7269 " />
<path d="M9.8393 10.7269 L9.4583 10.7269 " />
<path d="M10.4583 10.8221 L11.2202 10.8221 " />
<path d="M11.6964 11.2031 L11.6964 10.2031 " />
<path d="M11.6964 10.2031 L12.0774 10.2031 " />
<path d="M12.0774 10.2031 L12.1726 10.2507 " />
<path d="M12.1726 10.2507 L12.2202 10.2983 " />
<path d="M12.2202 10.2983 L12.2679 10.3935 " />
<path d="M12.2679 10.3935 L12.2679 10.5364 " />
<path d="M12.2679 10.5364 L12.2202 10.6316 " />
<path d="M12.2202 10.6316 L12.1726 10.6793 " />
<path d="M12.1726 10.6793 L12.0774 10.7269 " />
<path d="M12.0774 10.7269 L11.6964 10.7269 " />
<path d="M12.6488 10.2983 L12.6964 10.2507 " />
<path d="M12.6964 10.2507 L12.7917 10.2031 " />
<path d="M12.7917 10.2031 L13.0298 10.2031 " />
<path d="M13.0298 10.2031 L13.1250 10.2507 " />
<path d="M13.1250 10.2507 L13.1726 10.2983 " />
<path d="M13.1726 10.2983 L13.2202 10.3935 " />
<path d="M13.2202 10.3935 L13.2202 10.4888 " />
<path d="M13.2202 10.4888 L13.1726 10.6316 " />
<path d="M13.1726 10.6316 L12.6012 11.2031 " />
<path d="M12.6012 11.2031 L13.2202 11.2031 " />
<path d="M13.6488 11.1078 L13.6964 11.1555 " />
<path d="M13.6964 11.1555 L13.6488 11.2031 " />
<path d="M13.6488 11.2031 L13.6012 11.1555 " />
<path d="M13.6012 11.1555 L13.6488 11.1078 " />
<path d="M13.6488 11.1078 L13.6488 11.2031 " />
<path d="M14.3155 10.2031 L14.4107 10.2031 " />
<path d="M14.4107 10.2031 L14.5060 10.2507 " />
<path d="M14.5060 10.2507 L14.5536 10.2983 " />
<path d="M14.5536 10.2983 L14.6012 10.3935 " />
<path d="M14.6012 10.3935 L14.6488 10.5840 " />
<path d="M14.6488 10.5840 L14.6488 10.8221 " />
<path d="M14.6488 10.8221 L14.6012 11.0126 " />
<path d="M14.6012 11.0126 L14.5536 11.1078 " />
<path d="M14.5536 11.1078 L14.5060 11.1555 " />
<path d="M14.5060 11.1555 L14.4107 11.2031 " />
<path d="M14.4107 11.2031 L14.3155 11.2031 " />
<path d="M14.3155 11.2031 L14.2202 11.1555 " />
<path d="M14.2202 11.1555 L14.1726 11.1078 " />
<path d="M14.1726 11.1078 L14.1250 11.0126 " />
<path d="M14.1250 11.0126 L14.0774 10.8221 " />
<path d="M14.0774 10.8221 L14.0774 10.5840 " />
<path d="M14.0774 10.5840 L14.1250 10.3935 " />
<path d="M14.1250 10.3935 L14.1726 10.2983 " />
<path d="M14.1726 10.2983 L14.2202 10.2507 " />
<path d="M14.2202 10.2507 L14.3155 10.2031 " />
<path d="M15.2679 10.2031 L15.3631 10.2031 " />
<path d="M15.3631 10.2031 L15.4583 10.2507 " />
<path d="M15.4583 10.2507 L15.5060 10.2983 " />
<path d="M15.5060 10.2983 L15.5536 10.3935 " />
<path d="M15.5536 10.3935 L15.6012 10.5840 " />
<path d="M15.6012 10.5840 L15.6012 10.8221 " />
<path d="M15.6012 10.8221 L15.5536 11.0126 " />
<path d="M15.5536 11.0126 L15.5060 11.1078 " />
<path d="M15.5060 11.1078 L15.4583 11.1555 " />
<path d="M15.4583 11.1555 L15.3631 11.2031 " />
<path d="M15.3631 11.2031 L15.2679 11.2031 " />
<path d="M15.2679 11.2031 L15.1726 11.1555 " />
<path d="M15.1726 11.1555 L15.1250 11.1078 " />
<path d="M15.1250 11.1078 L15.0774 11.0126 " />
<path d="M15.0774 11.0126 L15.0298 10.8221 " />
<path d="M15.0298 10.8221 L15.0298 10.5840 " />
<path d="M15.0298 10.5840 L15.0774 10.3935 " />
<path d="M15.0774 10.3935 L15.1250 10.2983 " />
<path d="M15.1250 10.2983 L15.1726 10.2507 " />
<path d="M15.1726 10.2507 L15.2679 10.2031 " />
<path d="M16.0298 10.8221 L16.7917 10.8221 " />
<path d="M17.1250 10.2031 L17.4583 11.2031 " />
<path d="M17.4583 11.2031 L17.7917 10.2031 " />
<path d="M18.1250 10.8221 L18.8869 10.8221 " />
<path d="M19.3631 11.2031 L19.3631 10.2031 " />
<path d="M19.3631 10.2031 L19.6964 10.9174 " />
<path d="M19.6964 10.9174 L20.0298 10.2031 " />
<path d="M20.0298 10.2031 L20.0298 11.2031 " />
<path d="M20.2679 11.2983 L21.0298 11.2983 " />
<path d="M21.1726 10.2031 L21.8393 11.2031 " />
<path d="M21.8393 10.2031 L21.1726 11.2031 " />
<path d="M22.5536 10.6793 L22.6964 10.7269 " />
<path d="M22.6964 10.7269 L22.7440 10.7745 " />
<path d="M22.7440 10.7745 L22.7917 10.8697 " />
<path d="M22.7917 10.8697 L22.7917 11.0126 " />
<path d="M22.7917 11.0126 L22.7440 11.1078 " />
<path d="M22.7440 11.1078 L22.6964 11.1555 " />
<path d="M22.6964 11.1555 L22.6012 11.2031 " />
<path d="M22.6012 11.2031 L22.2202 11.2031 " />
<path d="M22.2202 11.2031 L22.2202 10.2031 " />
<path d="M22.2202 10.2031 L22.5536 10.2031 " />
<path d="M22.5536 10.2031 L22.6488 10.2507 " />
<path d="M22.6488 10.2507 L22.6964 10.2983 " />
<path d="M22.6964 10.2983 L22.7440 10.3935 " />
<path d="M22.7440 10.3935 L22.7440 10.4888 " />
<path d="M22.7440 10.4888 L22.6964 10.5840 " />
<path d="M22.6964 10.5840 L22.6488 10.6316 " />
<path d="M22.6488 10.6316 L22.5536 10.6793 " />
<path d="M22.5536 10.6793 L22.2202 10.6793 " />
<path d="M23.2202 11.2031 L23.2202 10.2031 " />
<path d="M23.7917 11.2031 L23.3631 10.6316 " />
<path d="M23.7917 10.2031 L23.2202 10.7745 " />
<path d="M23.9821 11.2983 L24.7440 11.2983 " />
<path d="M25.5536 11.2031 L25.2202 10.7269 " />
<path d="M24.9821 11.2031 L24.9821 10.2031 " />
<path d="M24.9821 10.2031 L25.3631 10.2031 " />
<path d="M25.3631 10.2031 L25.4583 10.2507 " />
<path d="M25.4583 10.2507 L25.5060 10.2983 " />
<path d="M25.5060 10.2983 L25.5536 10.3935 " />
<path d="M25.5536 10.3935 L25.5536 10.5364 " />
<path d="M25.5536 10.5364 L25.5060 10.6316 " />
<path d="M25.5060 10.6316 L25.4583 10.6793 " />
<path d="M25.4583 10.6793 L25.3631 10.7269 " />
<path d="M25.3631 10.7269 L24.9821 10.7269 " />
<path d="M25.9345 10.2983 L25.9821 10.2507 " />
<path d="M25.9821 10.2507 L26.0774 10.2031 " />
<path d="M26.0774 10.2031 L26.3155 10.2031 " />
<path d="M26.3155 10.2031 L26.4107 10.2507 " />
<path d="M26.4107 10.2507 L26.4583 10.2983 " />
<path d="M26.4583 10.2983 L26.5060 10.3935 " />
<path d="M26.5060 10.3935 L26.5060 10.4888 " />
<path d="M26.5060 10.4888 L26.4583 10.6316 " />
<path d="M26.4583 10.6316 L25.8869 11.2031 " />
<path d="M25.8869 11.2031 L26.5060 11.2031 " />
</g></g>
<g style="fill:none;  stroke:#000000; stroke-width:0.0600; stroke-opacity:1;  stroke-linecap:round; stroke-linejoin:round;">
<circle cx="7.4107" cy="7.8982" r="0.0300" /> 
</g> 
</svg>