<?xml version='1.0' encoding='utf-8'?>
<svg xmlns="http://www.w3.org/2000/svg" version="1.1" width="18.8214mm" height="9.6774mm" viewBox="0.0000 0.0000 18.8214 9.6774">
<title>SVG Image created as HDR-TH_6P-P2.00-V-F.svg date 2026/01/09 08:17:46 </title>
  <desc>Image generated by PCBNEW </desc>
<g style="fill:#000000; fill-opacity:1.0000;stroke:#000000; stroke-opacity:1.0000; stroke-linecap:round; stroke-linejoin:round;" transform="translate(0 0) scale(1 1)">
</g>
<g style="fill:#000000; fill-opacity:1.0000; stroke:none;">
<circle cx="14.4107" cy="4.8483" r="0.7000" /> 
</g>
<g style="fill:#000000; fill-opacity:1.0000; stroke:none;">
<circle cx="12.4107" cy="4.8483" r="0.7000" /> 
</g>
<g style="fill:#000000; fill-opacity:1.0000; stroke:none;">
<circle cx="10.4107" cy="4.8483" r="0.7000" /> 
</g>
<g style="fill:#000000; fill-opacity:1.0000; stroke:none;">
<circle cx="8.4107" cy="4.8483" r="0.7000" /> 
</g>
<g style="fill:#000000; fill-opacity:1.0000; stroke:none;">
<circle cx="6.4107" cy="4.8483" r="0.7000" /> 
<path style="fill:#000000; fill-opacity:1.0000; stroke:none;fill-rule:evenodd;" d="M 3.7107,5.5482 3.7107,4.1482 5.1107,4.1482 5.1107,5.5482 Z" /> 
</g>
<g style="fill:#000000; fill-opacity:1.0000; stroke:none;">
<circle cx="14.4107" cy="4.8483" r="0.7000" /> 
</g>
<g style="fill:#000000; fill-opacity:1.0000; stroke:none;">
<circle cx="12.4107" cy="4.8483" r="0.7000" /> 
</g>
<g style="fill:#000000; fill-opacity:1.0000; stroke:none;">
<circle cx="10.4107" cy="4.8483" r="0.7000" /> 
</g>
<g style="fill:#000000; fill-opacity:1.0000; stroke:none;">
<circle cx="8.4107" cy="4.8483" r="0.7000" /> 
</g>
<g style="fill:#000000; fill-opacity:1.0000; stroke:none;">
<circle cx="6.4107" cy="4.8483" r="0.7000" /> 
<path style="fill:#000000; fill-opacity:1.0000; stroke:none;fill-rule:evenodd;" d="M 3.7107,5.5482 3.7107,4.1482 5.1107,4.1482 5.1107,5.5482 Z" /> 
</g>
<g style="fill:#000000; fill-opacity:1.0000; stroke:none;">
<circle cx="14.4107" cy="4.8483" r="0.7000" /> 
</g>
<g style="fill:#000000; fill-opacity:1.0000; stroke:none;">
<circle cx="12.4107" cy="4.8483" r="0.7000" /> 
</g>
<g style="fill:#000000; fill-opacity:1.0000; stroke:none;">
<circle cx="10.4107" cy="4.8483" r="0.7000" /> 
</g>
<g style="fill:#000000; fill-opacity:1.0000; stroke:none;">
<circle cx="8.4107" cy="4.8483" r="0.7000" /> 
</g>
<g style="fill:#000000; fill-opacity:1.0000; stroke:none;">
<circle cx="6.4107" cy="4.8483" r="0.7000" /> 
<path style="fill:#000000; fill-opacity:1.0000; stroke:none;fill-rule:evenodd;" d="M 3.7107,5.5482 3.7107,4.1482 5.1107,4.1482 5.1107,5.5482 Z" /> 
</g>
<g style="fill:#000000; fill-opacity:1.0000; stroke:none;">
<circle cx="14.4107" cy="4.8483" r="0.7000" /> 
</g>
<g style="fill:#000000; fill-opacity:1.0000; stroke:none;">
<circle cx="12.4107" cy="4.8483" r="0.7000" /> 
</g>
<g style="fill:#000000; fill-opacity:1.0000; stroke:none;">
<circle cx="10.4107" cy="4.8483" r="0.7000" /> 
</g>
<g style="fill:#000000; fill-opacity:1.0000; stroke:none;">
<circle cx="8.4107" cy="4.8483" r="0.7000" /> 
</g>
<g style="fill:#000000; fill-opacity:1.0000; stroke:none;">
<circle cx="6.4107" cy="4.8483" r="0.7000" /> 
<path style="fill:#000000; fill-opacity:1.0000; stroke:none;fill-rule:evenodd;" d="M 3.7107,5.5482 3.7107,4.1482 5.1107,4.1482 5.1107,5.5482 Z" /> 
</g>
<g style="fill:#000000; fill-opacity:1.0000; stroke:none;">
<circle cx="14.4107" cy="4.8483" r="0.7000" /> 
</g>
<g style="fill:#000000; fill-opacity:1.0000; stroke:none;">
<circle cx="12.4107" cy="4.8483" r="0.7000" /> 
</g>
<g style="fill:#000000; fill-opacity:1.0000; stroke:none;">
<circle cx="10.4107" cy="4.8483" r="0.7000" /> 
</g>
<g style="fill:#000000; fill-opacity:1.0000; stroke:none;">
<circle cx="8.4107" cy="4.8483" r="0.7000" /> 
</g>
<g style="fill:#000000; fill-opacity:1.0000; stroke:none;">
<circle cx="6.4107" cy="4.8483" r="0.7000" /> 
<path style="fill:#000000; fill-opacity:1.0000; stroke:none;fill-rule:evenodd;" d="M 3.7107,5.5482 3.7107,4.1482 5.1107,4.1482 5.1107,5.5482 Z" /> 
</g>
<g style="fill:#000000; fill-opacity:1.0000; stroke:none;">
<circle cx="14.4107" cy="4.8483" r="0.7000" /> 
</g>
<g style="fill:#000000; fill-opacity:1.0000; stroke:none;">
<circle cx="12.4107" cy="4.8483" r="0.7000" /> 
</g>
<g style="fill:#000000; fill-opacity:1.0000; stroke:none;">
<circle cx="10.4107" cy="4.8483" r="0.7000" /> 
</g>
<g style="fill:#000000; fill-opacity:1.0000; stroke:none;">
<circle cx="8.4107" cy="4.8483" r="0.7000" /> 
</g>
<g style="fill:#000000; fill-opacity:1.0000; stroke:none;">
<circle cx="6.4107" cy="4.8483" r="0.7000" /> 
<path style="fill:#000000; fill-opacity:1.0000; stroke:none;fill-rule:evenodd;" d="M 3.7107,5.5482 3.7107,4.1482 5.1107,4.1482 5.1107,5.5482 Z" /> 
</g>
<g style="fill:#000000; fill-opacity:1.0000; stroke:none;">
<circle cx="14.4107" cy="4.8483" r="0.7000" /> 
</g>
<g style="fill:#000000; fill-opacity:1.0000; stroke:none;">
<circle cx="12.4107" cy="4.8483" r="0.7000" /> 
</g>
<g style="fill:#000000; fill-opacity:1.0000; stroke:none;">
<circle cx="10.4107" cy="4.8483" r="0.7000" /> 
</g>
<g style="fill:#000000; fill-opacity:1.0000; stroke:none;">
<circle cx="8.4107" cy="4.8483" r="0.7000" /> 
</g>
<g style="fill:#000000; fill-opacity:1.0000; stroke:none;">
<circle cx="6.4107" cy="4.8483" r="0.7000" /> 
<path style="fill:#000000; fill-opacity:1.0000; stroke:none;fill-rule:evenodd;" d="M 3.7107,5.5482 3.7107,4.1482 5.1107,4.1482 5.1107,5.5482 Z" /> 
</g>
<g style="fill:#000000; fill-opacity:1.0000; stroke:none;">
<circle cx="14.4107" cy="4.8483" r="0.7000" /> 
</g>
<g style="fill:#000000; fill-opacity:1.0000; stroke:none;">
<circle cx="12.4107" cy="4.8483" r="0.7000" /> 
</g>
<g style="fill:#000000; fill-opacity:1.0000; stroke:none;">
<circle cx="10.4107" cy="4.8483" r="0.7000" /> 
</g>
<g style="fill:#000000; fill-opacity:1.0000; stroke:none;">
<circle cx="8.4107" cy="4.8483" r="0.7000" /> 
</g>
<g style="fill:#000000; fill-opacity:1.0000; stroke:none;">
<circle cx="6.4107" cy="4.8483" r="0.7000" /> 
<path style="fill:#000000; fill-opacity:1.0000; stroke:none;fill-rule:evenodd;" d="M 3.7107,5.5482 3.7107,4.1482 5.1107,4.1482 5.1107,5.5482 Z" /> 
</g>
<g style="fill:#000000; fill-opacity:1.0000; stroke:none;">
<circle cx="14.4107" cy="4.8483" r="0.7000" /> 
</g>
<g style="fill:#000000; fill-opacity:1.0000; stroke:none;">
<circle cx="12.4107" cy="4.8483" r="0.7000" /> 
</g>
<g style="fill:#000000; fill-opacity:1.0000; stroke:none;">
<circle cx="10.4107" cy="4.8483" r="0.7000" /> 
</g>
<g style="fill:#000000; fill-opacity:1.0000; stroke:none;">
<circle cx="8.4107" cy="4.8483" r="0.7000" /> 
</g>
<g style="fill:#000000; fill-opacity:1.0000; stroke:none;">
<circle cx="6.4107" cy="4.8483" r="0.7000" /> 
<path style="fill:#000000; fill-opacity:1.0000; stroke:none;fill-rule:evenodd;" d="M 3.7107,5.5482 3.7107,4.1482 5.1107,4.1482 5.1107,5.5482 Z" /> 
</g>
<g style="fill:#000000; fill-opacity:1.0000; stroke:none;">
<circle cx="14.4107" cy="4.8483" r="0.7000" /> 
</g>
<g style="fill:#000000; fill-opacity:1.0000; stroke:none;">
<circle cx="12.4107" cy="4.8483" r="0.7000" /> 
</g>
<g style="fill:#000000; fill-opacity:1.0000; stroke:none;">
<circle cx="10.4107" cy="4.8483" r="0.7000" /> 
</g>
<g style="fill:#000000; fill-opacity:1.0000; stroke:none;">
<circle cx="8.4107" cy="4.8483" r="0.7000" /> 
</g>
<g style="fill:#000000; fill-opacity:1.0000; stroke:none;">
<circle cx="6.4107" cy="4.8483" r="0.7000" /> 
<path style="fill:#000000; fill-opacity:1.0000; stroke:none;fill-rule:evenodd;" d="M 3.7107,5.5482 3.7107,4.1482 5.1107,4.1482 5.1107,5.5482 Z" /> 
</g>
<g style="fill:#000000; fill-opacity:1.0000; stroke:none;">
<circle cx="14.4107" cy="4.8483" r="0.7000" /> 
</g>
<g style="fill:#000000; fill-opacity:1.0000; stroke:none;">
<circle cx="12.4107" cy="4.8483" r="0.7000" /> 
</g>
<g style="fill:#000000; fill-opacity:1.0000; stroke:none;">
<circle cx="10.4107" cy="4.8483" r="0.7000" /> 
</g>
<g style="fill:#000000; fill-opacity:1.0000; stroke:none;">
<circle cx="8.4107" cy="4.8483" r="0.7000" /> 
</g>
<g style="fill:#000000; fill-opacity:1.0000; stroke:none;">
<circle cx="6.4107" cy="4.8483" r="0.7000" /> 
<path style="fill:#000000; fill-opacity:1.0000; stroke:none;fill-rule:evenodd;" d="M 3.7107,5.5482 3.7107,4.1482 5.1107,4.1482 5.1107,5.5482 Z" /> 
</g>
<g style="fill:#000000; fill-opacity:1.0000; stroke:none;">
<circle cx="14.4107" cy="4.8483" r="0.7000" /> 
</g>
<g style="fill:#000000; fill-opacity:1.0000; stroke:none;">
<circle cx="12.4107" cy="4.8483" r="0.7000" /> 
</g>
<g style="fill:#000000; fill-opacity:1.0000; stroke:none;">
<circle cx="10.4107" cy="4.8483" r="0.7000" /> 
</g>
<g style="fill:#000000; fill-opacity:1.0000; stroke:none;">
<circle cx="8.4107" cy="4.8483" r="0.7000" /> 
</g>
<g style="fill:#000000; fill-opacity:1.0000; stroke:none;">
<circle cx="6.4107" cy="4.8483" r="0.7000" /> 
<path style="fill:#000000; fill-opacity:1.0000; stroke:none;fill-rule:evenodd;" d="M 3.7107,5.5482 3.7107,4.1482 5.1107,4.1482 5.1107,5.5482 Z" /> 
</g>
<g style="fill:#000000; fill-opacity:1.0000; stroke:none;">
<circle cx="14.4107" cy="4.8483" r="0.7000" /> 
</g>
<g style="fill:#000000; fill-opacity:1.0000; stroke:none;">
<circle cx="12.4107" cy="4.8483" r="0.7000" /> 
</g>
<g style="fill:#000000; fill-opacity:1.0000; stroke:none;">
<circle cx="10.4107" cy="4.8483" r="0.7000" /> 
</g>
<g style="fill:#000000; fill-opacity:1.0000; stroke:none;">
<circle cx="8.4107" cy="4.8483" r="0.7000" /> 
</g>
<g style="fill:#000000; fill-opacity:1.0000; stroke:none;">
<circle cx="6.4107" cy="4.8483" r="0.7000" /> 
<path style="fill:#000000; fill-opacity:1.0000; stroke:none;fill-rule:evenodd;" d="M 3.7107,5.5482 3.7107,4.1482 5.1107,4.1482 5.1107,5.5482 Z" /> 
</g>
<g style="fill:#000000; fill-opacity:1.0000; stroke:none;">
<circle cx="14.4107" cy="4.8483" r="0.7000" /> 
</g>
<g style="fill:#000000; fill-opacity:1.0000; stroke:none;">
<circle cx="12.4107" cy="4.8483" r="0.7000" /> 
</g>
<g style="fill:#000000; fill-opacity:1.0000; stroke:none;">
<circle cx="10.4107" cy="4.8483" r="0.7000" /> 
</g>
<g style="fill:#000000; fill-opacity:1.0000; stroke:none;">
<circle cx="8.4107" cy="4.8483" r="0.7000" /> 
</g>
<g style="fill:#000000; fill-opacity:1.0000; stroke:none;">
<circle cx="6.4107" cy="4.8483" r="0.7000" /> 
<path style="fill:#000000; fill-opacity:1.0000; stroke:none;fill-rule:evenodd;" d="M 3.7107,5.5482 3.7107,4.1482 5.1107,4.1482 5.1107,5.5482 Z" /> 
</g>
<g style="fill:#000000; fill-opacity:1.0000; stroke:none;">
<circle cx="14.4107" cy="4.8483" r="0.7000" /> 
</g>
<g style="fill:#000000; fill-opacity:1.0000; stroke:none;">
<circle cx="12.4107" cy="4.8483" r="0.7000" /> 
</g>
<g style="fill:#000000; fill-opacity:1.0000; stroke:none;">
<circle cx="10.4107" cy="4.8483" r="0.7000" /> 
</g>
<g style="fill:#000000; fill-opacity:1.0000; stroke:none;">
<circle cx="8.4107" cy="4.8483" r="0.7000" /> 
</g>
<g style="fill:#000000; fill-opacity:1.0000; stroke:none;">
<circle cx="6.4107" cy="4.8483" r="0.7000" /> 
<path style="fill:#000000; fill-opacity:1.0000; stroke:none;fill-rule:evenodd;" d="M 3.7107,5.5482 3.7107,4.1482 5.1107,4.1482 5.1107,5.5482 Z" /> 
</g>
<g style="fill:#000000; fill-opacity:1.0000; stroke:none;">
<circle cx="14.4107" cy="4.8483" r="0.7000" /> 
</g>
<g style="fill:#000000; fill-opacity:1.0000; stroke:none;">
<circle cx="12.4107" cy="4.8483" r="0.7000" /> 
</g>
<g style="fill:#000000; fill-opacity:1.0000; stroke:none;">
<circle cx="10.4107" cy="4.8483" r="0.7000" /> 
</g>
<g style="fill:#000000; fill-opacity:1.0000; stroke:none;">
<circle cx="8.4107" cy="4.8483" r="0.7000" /> 
</g>
<g style="fill:#000000; fill-opacity:1.0000; stroke:none;">
<circle cx="6.4107" cy="4.8483" r="0.7000" /> 
<path style="fill:#000000; fill-opacity:1.0000; stroke:none;fill-rule:evenodd;" d="M 3.7107,5.5482 3.7107,4.1482 5.1107,4.1482 5.1107,5.5482 Z" /> 
</g>
<g style="fill:#000000; fill-opacity:1.0000; stroke:none;">
<circle cx="14.4107" cy="4.8483" r="0.7000" /> 
</g>
<g style="fill:#000000; fill-opacity:1.0000; stroke:none;">
<circle cx="12.4107" cy="4.8483" r="0.7000" /> 
</g>
<g style="fill:#000000; fill-opacity:1.0000; stroke:none;">
<circle cx="10.4107" cy="4.8483" r="0.7000" /> 
</g>
<g style="fill:#000000; fill-opacity:1.0000; stroke:none;">
<circle cx="8.4107" cy="4.8483" r="0.7000" /> 
</g>
<g style="fill:#000000; fill-opacity:1.0000; stroke:none;">
<circle cx="6.4107" cy="4.8483" r="0.7000" /> 
<path style="fill:#000000; fill-opacity:1.0000; stroke:none;fill-rule:evenodd;" d="M 3.7107,5.5482 3.7107,4.1482 5.1107,4.1482 5.1107,5.5482 Z" /> 
</g>
<g style="fill:#000000; fill-opacity:1.0000; stroke:none;">
<circle cx="14.4107" cy="4.8483" r="0.7000" /> 
</g>
<g style="fill:#000000; fill-opacity:1.0000; stroke:none;">
<circle cx="12.4107" cy="4.8483" r="0.7000" /> 
</g>
<g style="fill:#000000; fill-opacity:1.0000; stroke:none;">
<circle cx="10.4107" cy="4.8483" r="0.7000" /> 
</g>
<g style="fill:#000000; fill-opacity:1.0000; stroke:none;">
<circle cx="8.4107" cy="4.8483" r="0.7000" /> 
</g>
<g style="fill:#000000; fill-opacity:1.0000; stroke:none;">
<circle cx="6.4107" cy="4.8483" r="0.7000" /> 
<path style="fill:#000000; fill-opacity:1.0000; stroke:none;fill-rule:evenodd;" d="M 3.7107,5.5482 3.7107,4.1482 5.1107,4.1482 5.1107,5.5482 Z" /> 
</g>
<g style="fill:#000000; fill-opacity:1.0000; stroke:none;">
<circle cx="14.4107" cy="4.8483" r="0.7000" /> 
</g>
<g style="fill:#000000; fill-opacity:1.0000; stroke:none;">
<circle cx="12.4107" cy="4.8483" r="0.7000" /> 
</g>
<g style="fill:#000000; fill-opacity:1.0000; stroke:none;">
<circle cx="10.4107" cy="4.8483" r="0.7000" /> 
</g>
<g style="fill:#000000; fill-opacity:1.0000; stroke:none;">
<circle cx="8.4107" cy="4.8483" r="0.7000" /> 
</g>
<g style="fill:#000000; fill-opacity:1.0000; stroke:none;">
<circle cx="6.4107" cy="4.8483" r="0.7000" /> 
<path style="fill:#000000; fill-opacity:1.0000; stroke:none;fill-rule:evenodd;" d="M 3.7107,5.5482 3.7107,4.1482 5.1107,4.1482 5.1107,5.5482 Z" /> 
</g>
<g style="fill:#000000; fill-opacity:1.0000; stroke:none;">
<circle cx="14.4107" cy="4.8483" r="0.7000" /> 
</g>
<g style="fill:#000000; fill-opacity:1.0000; stroke:none;">
<circle cx="12.4107" cy="4.8483" r="0.7000" /> 
</g>
<g style="fill:#000000; fill-opacity:1.0000; stroke:none;">
<circle cx="10.4107" cy="4.8483" r="0.7000" /> 
</g>
<g style="fill:#000000; fill-opacity:1.0000; stroke:none;">
<circle cx="8.4107" cy="4.8483" r="0.7000" /> 
</g>
<g style="fill:#000000; fill-opacity:1.0000; stroke:none;">
<circle cx="6.4107" cy="4.8483" r="0.7000" /> 
<path style="fill:#000000; fill-opacity:1.0000; stroke:none;fill-rule:evenodd;" d="M 3.7107,5.5482 3.7107,4.1482 5.1107,4.1482 5.1107,5.5482 Z" /> 
</g>
<g style="fill:#000000; fill-opacity:1.0000; stroke:none;">
<circle cx="14.4107" cy="4.8483" r="0.7000" /> 
</g>
<g style="fill:#000000; fill-opacity:1.0000; stroke:none;">
<circle cx="12.4107" cy="4.8483" r="0.7000" /> 
</g>
<g style="fill:#000000; fill-opacity:1.0000; stroke:none;">
<circle cx="10.4107" cy="4.8483" r="0.7000" /> 
</g>
<g style="fill:#000000; fill-opacity:1.0000; stroke:none;">
<circle cx="8.4107" cy="4.8483" r="0.7000" /> 
</g>
<g style="fill:#000000; fill-opacity:1.0000; stroke:none;">
<circle cx="6.4107" cy="4.8483" r="0.7000" /> 
<path style="fill:#000000; fill-opacity:1.0000; stroke:none;fill-rule:evenodd;" d="M 3.7107,5.5482 3.7107,4.1482 5.1107,4.1482 5.1107,5.5482 Z" /> 
</g>
<g style="fill:#000000; fill-opacity:1.0000; stroke:none;">
<circle cx="14.4107" cy="4.8483" r="0.7000" /> 
</g>
<g style="fill:#000000; fill-opacity:1.0000; stroke:none;">
<circle cx="12.4107" cy="4.8483" r="0.7000" /> 
</g>
<g style="fill:#000000; fill-opacity:1.0000; stroke:none;">
<circle cx="10.4107" cy="4.8483" r="0.7000" /> 
</g>
<g style="fill:#000000; fill-opacity:1.0000; stroke:none;">
<circle cx="8.4107" cy="4.8483" r="0.7000" /> 
</g>
<g style="fill:#000000; fill-opacity:1.0000; stroke:none;">
<circle cx="6.4107" cy="4.8483" r="0.7000" /> 
<path style="fill:#000000; fill-opacity:1.0000; stroke:none;fill-rule:evenodd;" d="M 3.7107,5.5482 3.7107,4.1482 5.1107,4.1482 5.1107,5.5482 Z" /> 
</g>
<g style="fill:#000000; fill-opacity:1.0000; stroke:none;">
<circle cx="14.4107" cy="4.8483" r="0.7000" /> 
</g>
<g style="fill:#000000; fill-opacity:1.0000; stroke:none;">
<circle cx="12.4107" cy="4.8483" r="0.7000" /> 
</g>
<g style="fill:#000000; fill-opacity:1.0000; stroke:none;">
<circle cx="10.4107" cy="4.8483" r="0.7000" /> 
</g>
<g style="fill:#000000; fill-opacity:1.0000; stroke:none;">
<circle cx="8.4107" cy="4.8483" r="0.7000" /> 
</g>
<g style="fill:#000000; fill-opacity:1.0000; stroke:none;">
<circle cx="6.4107" cy="4.8483" r="0.7000" /> 
<path style="fill:#000000; fill-opacity:1.0000; stroke:none;fill-rule:evenodd;" d="M 3.7107,5.5482 3.7107,4.1482 5.1107,4.1482 5.1107,5.5482 Z" /> 
</g>
<g style="fill:#000000; fill-opacity:1.0000; stroke:none;">
<circle cx="14.4107" cy="4.8483" r="0.7000" /> 
</g>
<g style="fill:#000000; fill-opacity:1.0000; stroke:none;">
<circle cx="12.4107" cy="4.8483" r="0.7000" /> 
</g>
<g style="fill:#000000; fill-opacity:1.0000; stroke:none;">
<circle cx="10.4107" cy="4.8483" r="0.7000" /> 
</g>
<g style="fill:#000000; fill-opacity:1.0000; stroke:none;">
<circle cx="8.4107" cy="4.8483" r="0.7000" /> 
</g>
<g style="fill:#000000; fill-opacity:1.0000; stroke:none;">
<circle cx="6.4107" cy="4.8483" r="0.7000" /> 
<path style="fill:#000000; fill-opacity:1.0000; stroke:none;fill-rule:evenodd;" d="M 3.7107,5.5482 3.7107,4.1482 5.1107,4.1482 5.1107,5.5482 Z" /> 
</g>
<g style="fill:#000000; fill-opacity:1.0000; stroke:none;">
<circle cx="14.4107" cy="4.8483" r="0.7000" /> 
</g>
<g style="fill:#000000; fill-opacity:1.0000; stroke:none;">
<circle cx="12.4107" cy="4.8483" r="0.7000" /> 
</g>
<g style="fill:#000000; fill-opacity:1.0000; stroke:none;">
<circle cx="10.4107" cy="4.8483" r="0.7000" /> 
</g>
<g style="fill:#000000; fill-opacity:1.0000; stroke:none;">
<circle cx="8.4107" cy="4.8483" r="0.7000" /> 
</g>
<g style="fill:#000000; fill-opacity:1.0000; stroke:none;">
<circle cx="6.4107" cy="4.8483" r="0.7000" /> 
<path style="fill:#000000; fill-opacity:1.0000; stroke:none;fill-rule:evenodd;" d="M 3.7107,5.5482 3.7107,4.1482 5.1107,4.1482 5.1107,5.5482 Z" /> 
</g>
<g style="fill:#000000; fill-opacity:1.0000; stroke:none;">
<circle cx="14.4107" cy="4.8483" r="0.7000" /> 
</g>
<g style="fill:#000000; fill-opacity:1.0000; stroke:none;">
<circle cx="12.4107" cy="4.8483" r="0.7000" /> 
</g>
<g style="fill:#000000; fill-opacity:1.0000; stroke:none;">
<circle cx="10.4107" cy="4.8483" r="0.7000" /> 
</g>
<g style="fill:#000000; fill-opacity:1.0000; stroke:none;">
<circle cx="8.4107" cy="4.8483" r="0.7000" /> 
</g>
<g style="fill:#000000; fill-opacity:1.0000; stroke:none;">
<circle cx="6.4107" cy="4.8483" r="0.7000" /> 
<path style="fill:#000000; fill-opacity:1.0000; stroke:none;fill-rule:evenodd;" d="M 3.7107,5.5482 3.7107,4.1482 5.1107,4.1482 5.1107,5.5482 Z" /> 
</g>
<g style="fill:#000000; fill-opacity:1.0000; stroke:none;">
<circle cx="14.4107" cy="4.8483" r="0.7000" /> 
</g>
<g style="fill:#000000; fill-opacity:1.0000; stroke:none;">
<circle cx="12.4107" cy="4.8483" r="0.7000" /> 
</g>
<g style="fill:#000000; fill-opacity:1.0000; stroke:none;">
<circle cx="10.4107" cy="4.8483" r="0.7000" /> 
</g>
<g style="fill:#000000; fill-opacity:1.0000; stroke:none;">
<circle cx="8.4107" cy="4.8483" r="0.7000" /> 
</g>
<g style="fill:#000000; fill-opacity:1.0000; stroke:none;">
<circle cx="6.4107" cy="4.8483" r="0.7000" /> 
<path style="fill:#000000; fill-opacity:1.0000; stroke:none;fill-rule:evenodd;" d="M 3.7107,5.5482 3.7107,4.1482 5.1107,4.1482 5.1107,5.5482 Z" /> 
</g>
<g style="fill:#000000; fill-opacity:1.0000; stroke:none;">
<circle cx="14.4107" cy="4.8483" r="0.7000" /> 
</g>
<g style="fill:#000000; fill-opacity:1.0000; stroke:none;">
<circle cx="12.4107" cy="4.8483" r="0.7000" /> 
</g>
<g style="fill:#000000; fill-opacity:1.0000; stroke:none;">
<circle cx="10.4107" cy="4.8483" r="0.7000" /> 
</g>
<g style="fill:#000000; fill-opacity:1.0000; stroke:none;">
<circle cx="8.4107" cy="4.8483" r="0.7000" /> 
</g>
<g style="fill:#000000; fill-opacity:1.0000; stroke:none;">
<circle cx="6.4107" cy="4.8483" r="0.7000" /> 
<path style="fill:#000000; fill-opacity:1.0000; stroke:none;fill-rule:evenodd;" d="M 3.7107,5.5482 3.7107,4.1482 5.1107,4.1482 5.1107,5.5482 Z" /> 
</g>
<g style="fill:#000000; fill-opacity:1.0000; stroke:none;">
<circle cx="14.4107" cy="4.8483" r="0.7000" /> 
</g>
<g style="fill:#000000; fill-opacity:1.0000; stroke:none;">
<circle cx="12.4107" cy="4.8483" r="0.7000" /> 
</g>
<g style="fill:#000000; fill-opacity:1.0000; stroke:none;">
<circle cx="10.4107" cy="4.8483" r="0.7000" /> 
</g>
<g style="fill:#000000; fill-opacity:1.0000; stroke:none;">
<circle cx="8.4107" cy="4.8483" r="0.7000" /> 
</g>
<g style="fill:#000000; fill-opacity:1.0000; stroke:none;">
<circle cx="6.4107" cy="4.8483" r="0.7000" /> 
<path style="fill:#000000; fill-opacity:1.0000; stroke:none;fill-rule:evenodd;" d="M 3.7107,5.5482 3.7107,4.1482 5.1107,4.1482 5.1107,5.5482 Z" /> 
</g>
<g style="fill:#000000; fill-opacity:1.0000; stroke:none;">
<circle cx="14.4107" cy="4.8483" r="0.7000" /> 
</g>
<g style="fill:#000000; fill-opacity:1.0000; stroke:none;">
<circle cx="12.4107" cy="4.8483" r="0.7000" /> 
</g>
<g style="fill:#000000; fill-opacity:1.0000; stroke:none;">
<circle cx="10.4107" cy="4.8483" r="0.7000" /> 
</g>
<g style="fill:#000000; fill-opacity:1.0000; stroke:none;">
<circle cx="8.4107" cy="4.8483" r="0.7000" /> 
</g>
<g style="fill:#000000; fill-opacity:1.0000; stroke:none;">
<circle cx="6.4107" cy="4.8483" r="0.7000" /> 
<path style="fill:#000000; fill-opacity:1.0000; stroke:none;fill-rule:evenodd;" d="M 3.7107,5.5482 3.7107,4.1482 5.1107,4.1482 5.1107,5.5482 Z" /> 
</g>
<g style="fill:#000000; fill-opacity:1.0000; stroke:none;">
<circle cx="14.4107" cy="4.8483" r="0.7000" /> 
</g>
<g style="fill:#000000; fill-opacity:1.0000; stroke:none;">
<circle cx="12.4107" cy="4.8483" r="0.7000" /> 
</g>
<g style="fill:#000000; fill-opacity:1.0000; stroke:none;">
<circle cx="10.4107" cy="4.8483" r="0.7000" /> 
</g>
<g style="fill:#000000; fill-opacity:1.0000; stroke:none;">
<circle cx="8.4107" cy="4.8483" r="0.7000" /> 
</g>
<g style="fill:#000000; fill-opacity:1.0000; stroke:none;">
<circle cx="6.4107" cy="4.8483" r="0.7000" /> 
<path style="fill:#000000; fill-opacity:1.0000; stroke:none;fill-rule:evenodd;" d="M 3.7107,5.5482 3.7107,4.1482 5.1107,4.1482 5.1107,5.5482 Z" /> 
</g>
<g style="fill:#000000; fill-opacity:1.0000; stroke:none;">
<circle cx="14.4107" cy="4.8483" r="0.7000" /> 
</g>
<g style="fill:#000000; fill-opacity:1.0000; stroke:none;">
<circle cx="12.4107" cy="4.8483" r="0.7000" /> 
</g>
<g style="fill:#000000; fill-opacity:1.0000; stroke:none;">
<circle cx="10.4107" cy="4.8483" r="0.7000" /> 
</g>
<g style="fill:#000000; fill-opacity:1.0000; stroke:none;">
<circle cx="8.4107" cy="4.8483" r="0.7000" /> 
</g>
<g style="fill:#000000; fill-opacity:1.0000; stroke:none;">
<circle cx="6.4107" cy="4.8483" r="0.7000" /> 
<path style="fill:#000000; fill-opacity:1.0000; stroke:none;fill-rule:evenodd;" d="M 3.7107,5.5482 3.7107,4.1482 5.1107,4.1482 5.1107,5.5482 Z" /> 
</g>
<g style="fill:#000000; fill-opacity:1.0000; stroke:none;">
<circle cx="14.4107" cy="4.8483" r="0.7000" /> 
</g>
<g style="fill:#000000; fill-opacity:1.0000; stroke:none;">
<circle cx="12.4107" cy="4.8483" r="0.7000" /> 
</g>
<g style="fill:#000000; fill-opacity:1.0000; stroke:none;">
<circle cx="10.4107" cy="4.8483" r="0.7000" /> 
</g>
<g style="fill:#000000; fill-opacity:1.0000; stroke:none;">
<circle cx="8.4107" cy="4.8483" r="0.7000" /> 
</g>
<g style="fill:#000000; fill-opacity:1.0000; stroke:none;">
<circle cx="6.4107" cy="4.8483" r="0.7000" /> 
<path style="fill:#000000; fill-opacity:1.0000; stroke:none;fill-rule:evenodd;" d="M 3.7107,5.5482 3.7107,4.1482 5.1107,4.1482 5.1107,5.5482 Z" /> 
</g>
<g style="fill:#000000; fill-opacity:1.0000; stroke:none;">
<circle cx="14.4107" cy="4.8483" r="0.7000" /> 
</g>
<g style="fill:#000000; fill-opacity:1.0000; stroke:none;">
<circle cx="12.4107" cy="4.8483" r="0.7000" /> 
</g>
<g style="fill:#000000; fill-opacity:1.0000; stroke:none;">
<circle cx="10.4107" cy="4.8483" r="0.7000" /> 
</g>
<g style="fill:#000000; fill-opacity:1.0000; stroke:none;">
<circle cx="8.4107" cy="4.8483" r="0.7000" /> 
</g>
<g style="fill:#000000; fill-opacity:1.0000; stroke:none;">
<circle cx="6.4107" cy="4.8483" r="0.7000" /> 
<path style="fill:#000000; fill-opacity:1.0000; stroke:none;fill-rule:evenodd;" d="M 3.7107,5.5482 3.7107,4.1482 5.1107,4.1482 5.1107,5.5482 Z" /> 
</g>
<g style="fill:none;  stroke:#000000; stroke-width:0.1500; stroke-opacity:1;  stroke-linecap:round; stroke-linejoin:round;">
<text x="9.4107" y="9.3483" textLength="18.8214" font-size="1.3333" lengthAdjust="spacingAndGlyphs" text-anchor="middle" opacity="0" stroke-opacity="0">HDR-TH_6P-P2.00-V-F</text>
<g class="stroked-text"><desc>HDR-TH_6P-P2.00-V-F</desc>
<path d="M0.3631 9.3031 L0.3631 8.3031 " />
<path d="M0.3631 8.7793 L0.9345 8.7793 " />
<path d="M0.9345 9.3031 L0.9345 8.3031 " />
<path d="M1.4107 9.3031 L1.4107 8.3031 " />
<path d="M1.4107 8.3031 L1.6488 8.3031 " />
<path d="M1.6488 8.3031 L1.7917 8.3507 " />
<path d="M1.7917 8.3507 L1.8869 8.4459 " />
<path d="M1.8869 8.4459 L1.9345 8.5412 " />
<path d="M1.9345 8.5412 L1.9821 8.7316 " />
<path d="M1.9821 8.7316 L1.9821 8.8745 " />
<path d="M1.9821 8.8745 L1.9345 9.0650 " />
<path d="M1.9345 9.0650 L1.8869 9.1602 " />
<path d="M1.8869 9.1602 L1.7917 9.2554 " />
<path d="M1.7917 9.2554 L1.6488 9.3031 " />
<path d="M1.6488 9.3031 L1.4107 9.3031 " />
<path d="M2.9821 9.3031 L2.6488 8.8269 " />
<path d="M2.4107 9.3031 L2.4107 8.3031 " />
<path d="M2.4107 8.3031 L2.7917 8.3031 " />
<path d="M2.7917 8.3031 L2.8869 8.3507 " />
<path d="M2.8869 8.3507 L2.9345 8.3983 " />
<path d="M2.9345 8.3983 L2.9821 8.4935 " />
<path d="M2.9821 8.4935 L2.9821 8.6364 " />
<path d="M2.9821 8.6364 L2.9345 8.7316 " />
<path d="M2.9345 8.7316 L2.8869 8.7793 " />
<path d="M2.8869 8.7793 L2.7917 8.8269 " />
<path d="M2.7917 8.8269 L2.4107 8.8269 " />
<path d="M3.4107 8.9221 L4.1726 8.9221 " />
<path d="M4.5060 8.3031 L5.0774 8.3031 " />
<path d="M4.7917 9.3031 L4.7917 8.3031 " />
<path d="M5.4107 9.3031 L5.4107 8.3031 " />
<path d="M5.4107 8.7793 L5.9821 8.7793 " />
<path d="M5.9821 9.3031 L5.9821 8.3031 " />
<path d="M6.2202 9.3983 L6.9821 9.3983 " />
<path d="M7.6488 8.3031 L7.4583 8.3031 " />
<path d="M7.4583 8.3031 L7.3631 8.3507 " />
<path d="M7.3631 8.3507 L7.3155 8.3983 " />
<path d="M7.3155 8.3983 L7.2202 8.5412 " />
<path d="M7.2202 8.5412 L7.1726 8.7316 " />
<path d="M7.1726 8.7316 L7.1726 9.1126 " />
<path d="M7.1726 9.1126 L7.2202 9.2078 " />
<path d="M7.2202 9.2078 L7.2679 9.2554 " />
<path d="M7.2679 9.2554 L7.3631 9.3031 " />
<path d="M7.3631 9.3031 L7.5536 9.3031 " />
<path d="M7.5536 9.3031 L7.6488 9.2554 " />
<path d="M7.6488 9.2554 L7.6964 9.2078 " />
<path d="M7.6964 9.2078 L7.7440 9.1126 " />
<path d="M7.7440 9.1126 L7.7440 8.8745 " />
<path d="M7.7440 8.8745 L7.6964 8.7793 " />
<path d="M7.6964 8.7793 L7.6488 8.7316 " />
<path d="M7.6488 8.7316 L7.5536 8.6840 " />
<path d="M7.5536 8.6840 L7.3631 8.6840 " />
<path d="M7.3631 8.6840 L7.2679 8.7316 " />
<path d="M7.2679 8.7316 L7.2202 8.7793 " />
<path d="M7.2202 8.7793 L7.1726 8.8745 " />
<path d="M8.1726 9.3031 L8.1726 8.3031 " />
<path d="M8.1726 8.3031 L8.5536 8.3031 " />
<path d="M8.5536 8.3031 L8.6488 8.3507 " />
<path d="M8.6488 8.3507 L8.6964 8.3983 " />
<path d="M8.6964 8.3983 L8.7440 8.4935 " />
<path d="M8.7440 8.4935 L8.7440 8.6364 " />
<path d="M8.7440 8.6364 L8.6964 8.7316 " />
<path d="M8.6964 8.7316 L8.6488 8.7793 " />
<path d="M8.6488 8.7793 L8.5536 8.8269 " />
<path d="M8.5536 8.8269 L8.1726 8.8269 " />
<path d="M9.1726 8.9221 L9.9345 8.9221 " />
<path d="M10.4107 9.3031 L10.4107 8.3031 " />
<path d="M10.4107 8.3031 L10.7917 8.3031 " />
<path d="M10.7917 8.3031 L10.8869 8.3507 " />
<path d="M10.8869 8.3507 L10.9345 8.3983 " />
<path d="M10.9345 8.3983 L10.9821 8.4935 " />
<path d="M10.9821 8.4935 L10.9821 8.6364 " />
<path d="M10.9821 8.6364 L10.9345 8.7316 " />
<path d="M10.9345 8.7316 L10.8869 8.7793 " />
<path d="M10.8869 8.7793 L10.7917 8.8269 " />
<path d="M10.7917 8.8269 L10.4107 8.8269 " />
<path d="M11.3631 8.3983 L11.4107 8.3507 " />
<path d="M11.4107 8.3507 L11.5060 8.3031 " />
<path d="M11.5060 8.3031 L11.7440 8.3031 " />
<path d="M11.7440 8.3031 L11.8393 8.3507 " />
<path d="M11.8393 8.3507 L11.8869 8.3983 " />
<path d="M11.8869 8.3983 L11.9345 8.4935 " />
<path d="M11.9345 8.4935 L11.9345 8.5888 " />
<path d="M11.9345 8.5888 L11.8869 8.7316 " />
<path d="M11.8869 8.7316 L11.3155 9.3031 " />
<path d="M11.3155 9.3031 L11.9345 9.3031 " />
<path d="M12.3631 9.2078 L12.4107 9.2554 " />
<path d="M12.4107 9.2554 L12.3631 9.3031 " />
<path d="M12.3631 9.3031 L12.3155 9.2554 " />
<path d="M12.3155 9.2554 L12.3631 9.2078 " />
<path d="M12.3631 9.2078 L12.3631 9.3031 " />
<path d="M13.0298 8.3031 L13.1250 8.3031 " />
<path d="M13.1250 8.3031 L13.2202 8.3507 " />
<path d="M13.2202 8.3507 L13.2679 8.3983 " />
<path d="M13.2679 8.3983 L13.3155 8.4935 " />
<path d="M13.3155 8.4935 L13.3631 8.6840 " />
<path d="M13.3631 8.6840 L13.3631 8.9221 " />
<path d="M13.3631 8.9221 L13.3155 9.1126 " />
<path d="M13.3155 9.1126 L13.2679 9.2078 " />
<path d="M13.2679 9.2078 L13.2202 9.2554 " />
<path d="M13.2202 9.2554 L13.1250 9.3031 " />
<path d="M13.1250 9.3031 L13.0298 9.3031 " />
<path d="M13.0298 9.3031 L12.9345 9.2554 " />
<path d="M12.9345 9.2554 L12.8869 9.2078 " />
<path d="M12.8869 9.2078 L12.8393 9.1126 " />
<path d="M12.8393 9.1126 L12.7917 8.9221 " />
<path d="M12.7917 8.9221 L12.7917 8.6840 " />
<path d="M12.7917 8.6840 L12.8393 8.4935 " />
<path d="M12.8393 8.4935 L12.8869 8.3983 " />
<path d="M12.8869 8.3983 L12.9345 8.3507 " />
<path d="M12.9345 8.3507 L13.0298 8.3031 " />
<path d="M13.9821 8.3031 L14.0774 8.3031 " />
<path d="M14.0774 8.3031 L14.1726 8.3507 " />
<path d="M14.1726 8.3507 L14.2202 8.3983 " />
<path d="M14.2202 8.3983 L14.2679 8.4935 " />
<path d="M14.2679 8.4935 L14.3155 8.6840 " />
<path d="M14.3155 8.6840 L14.3155 8.9221 " />
<path d="M14.3155 8.9221 L14.2679 9.1126 " />
<path d="M14.2679 9.1126 L14.2202 9.2078 " />
<path d="M14.2202 9.2078 L14.1726 9.2554 " />
<path d="M14.1726 9.2554 L14.0774 9.3031 " />
<path d="M14.0774 9.3031 L13.9821 9.3031 " />
<path d="M13.9821 9.3031 L13.8869 9.2554 " />
<path d="M13.8869 9.2554 L13.8393 9.2078 " />
<path d="M13.8393 9.2078 L13.7917 9.1126 " />
<path d="M13.7917 9.1126 L13.7440 8.9221 " />
<path d="M13.7440 8.9221 L13.7440 8.6840 " />
<path d="M13.7440 8.6840 L13.7917 8.4935 " />
<path d="M13.7917 8.4935 L13.8393 8.3983 " />
<path d="M13.8393 8.3983 L13.8869 8.3507 " />
<path d="M13.8869 8.3507 L13.9821 8.3031 " />
<path d="M14.7440 8.9221 L15.5060 8.9221 " />
<path d="M15.8393 8.3031 L16.1726 9.3031 " />
<path d="M16.1726 9.3031 L16.5060 8.3031 " />
<path d="M16.8393 8.9221 L17.6012 8.9221 " />
<path d="M18.4107 8.7793 L18.0774 8.7793 " />
<path d="M18.0774 9.3031 L18.0774 8.3031 " />
<path d="M18.0774 8.3031 L18.5536 8.3031 " />
</g></g>
<g style="fill:none;  stroke:#000000; stroke-width:3.0000; stroke-opacity:1;  stroke-linecap:round; stroke-linejoin:round;">
<path d="M3.0607 3.5782 L15.7607 3.5782 " />
<path d="M15.7607 3.5782 L15.7607 6.1182 " />
<path d="M15.7607 6.1182 L3.0607 6.1182 " />
</g>
<g style="fill:#000000; fill-opacity:1.0000; stroke:none;">
<circle cx="3.0607" cy="3.5782" r="1.5000" /> 
</g>
<g style="fill:none;  stroke:#000000; stroke-width:0.0600; stroke-opacity:1;  stroke-linecap:round; stroke-linejoin:round;">
<circle cx="3.1607" cy="6.0482" r="0.0300" /> 
</g> 
</svg>