<?xml version='1.0' encoding='utf-8'?>
<svg xmlns="http://www.w3.org/2000/svg" version="1.1" width="17.7038mm" height="13.0302mm" viewBox="0.0000 0.0000 17.7038 13.0302">
<title>SVG Image created as IND-SMD_L13.8-W12.8.svg date 2026/01/09 08:17:46 </title>
  <desc>Image generated by PCBNEW </desc>
<g style="fill:#000000; fill-opacity:1.0000;stroke:#000000; stroke-opacity:1.0000; stroke-linecap:round; stroke-linejoin:round;" transform="translate(0 0) scale(1 1)">
<path style="fill:#000000; fill-opacity:1.0000; stroke:none;fill-rule:evenodd;" d="M 1.2281,9.0250 1.2281,4.0250 4.9581,4.0250 4.9581,9.0250 Z" /> 
<path style="fill:#000000; fill-opacity:1.0000; stroke:none;fill-rule:evenodd;" d="M 12.7681,9.0250 12.7681,4.0250 16.4981,4.0250 16.4981,9.0250 Z" /> 
<path style="fill:#000000; fill-opacity:1.0000; stroke:none;fill-rule:evenodd;" d="M 1.2281,9.0250 1.2281,4.0250 4.9581,4.0250 4.9581,9.0250 Z" /> 
<path style="fill:#000000; fill-opacity:1.0000; stroke:none;fill-rule:evenodd;" d="M 12.7681,9.0250 12.7681,4.0250 16.4981,4.0250 16.4981,9.0250 Z" /> 
<path style="fill:#000000; fill-opacity:1.0000; stroke:none;fill-rule:evenodd;" d="M 1.2281,9.0250 1.2281,4.0250 4.9581,4.0250 4.9581,9.0250 Z" /> 
<path style="fill:#000000; fill-opacity:1.0000; stroke:none;fill-rule:evenodd;" d="M 12.7681,9.0250 12.7681,4.0250 16.4981,4.0250 16.4981,9.0250 Z" /> 
</g>
<g style="fill:none;  stroke:#000000; stroke-width:0.1500; stroke-opacity:1;  stroke-linecap:round; stroke-linejoin:round;">
</g>
<g style="fill:none;  stroke:#000000; stroke-width:0.2500; stroke-opacity:1;  stroke-linecap:round; stroke-linejoin:round;">
<path d="M15.7631 9.2550 L15.7631 12.9250 " />
<path d="M15.7631 0.1250 L15.7631 3.7950 " />
<path d="M1.9631 0.1250 L15.7631 0.1250 " />
<path d="M1.9631 3.7950 L1.9631 0.1250 " />
<path d="M1.9631 12.9250 L1.9631 9.2550 " />
<path d="M15.7631 12.9250 L1.9631 12.9250 " />
</g>
<g style="fill:none;  stroke:#000000; stroke-width:0.1500; stroke-opacity:1;  stroke-linecap:round; stroke-linejoin:round;">
<text x="8.8631" y="11.0250" textLength="17.7262" font-size="1.3333" lengthAdjust="spacingAndGlyphs" text-anchor="middle" opacity="0" stroke-opacity="0">IND-SMD_L13.8-W12.8</text>
<g class="stroked-text"><desc>IND-SMD_L13.8-W12.8</desc>
<path d="M0.3631 10.9798 L0.3631 9.9798 " />
<path d="M0.8393 10.9798 L0.8393 9.9798 " />
<path d="M0.8393 9.9798 L1.4107 10.9798 " />
<path d="M1.4107 10.9798 L1.4107 9.9798 " />
<path d="M1.8869 10.9798 L1.8869 9.9798 " />
<path d="M1.8869 9.9798 L2.1250 9.9798 " />
<path d="M2.1250 9.9798 L2.2679 10.0274 " />
<path d="M2.2679 10.0274 L2.3631 10.1227 " />
<path d="M2.3631 10.1227 L2.4107 10.2179 " />
<path d="M2.4107 10.2179 L2.4583 10.4084 " />
<path d="M2.4583 10.4084 L2.4583 10.5512 " />
<path d="M2.4583 10.5512 L2.4107 10.7417 " />
<path d="M2.4107 10.7417 L2.3631 10.8370 " />
<path d="M2.3631 10.8370 L2.2679 10.9322 " />
<path d="M2.2679 10.9322 L2.1250 10.9798 " />
<path d="M2.1250 10.9798 L1.8869 10.9798 " />
<path d="M2.8869 10.5989 L3.6488 10.5989 " />
<path d="M4.0774 10.9322 L4.2202 10.9798 " />
<path d="M4.2202 10.9798 L4.4583 10.9798 " />
<path d="M4.4583 10.9798 L4.5536 10.9322 " />
<path d="M4.5536 10.9322 L4.6012 10.8846 " />
<path d="M4.6012 10.8846 L4.6488 10.7893 " />
<path d="M4.6488 10.7893 L4.6488 10.6941 " />
<path d="M4.6488 10.6941 L4.6012 10.5989 " />
<path d="M4.6012 10.5989 L4.5536 10.5512 " />
<path d="M4.5536 10.5512 L4.4583 10.5036 " />
<path d="M4.4583 10.5036 L4.2679 10.4560 " />
<path d="M4.2679 10.4560 L4.1726 10.4084 " />
<path d="M4.1726 10.4084 L4.1250 10.3608 " />
<path d="M4.1250 10.3608 L4.0774 10.2655 " />
<path d="M4.0774 10.2655 L4.0774 10.1703 " />
<path d="M4.0774 10.1703 L4.1250 10.0751 " />
<path d="M4.1250 10.0751 L4.1726 10.0274 " />
<path d="M4.1726 10.0274 L4.2679 9.9798 " />
<path d="M4.2679 9.9798 L4.5060 9.9798 " />
<path d="M4.5060 9.9798 L4.6488 10.0274 " />
<path d="M5.0774 10.9798 L5.0774 9.9798 " />
<path d="M5.0774 9.9798 L5.4107 10.6941 " />
<path d="M5.4107 10.6941 L5.7440 9.9798 " />
<path d="M5.7440 9.9798 L5.7440 10.9798 " />
<path d="M6.2202 10.9798 L6.2202 9.9798 " />
<path d="M6.2202 9.9798 L6.4583 9.9798 " />
<path d="M6.4583 9.9798 L6.6012 10.0274 " />
<path d="M6.6012 10.0274 L6.6964 10.1227 " />
<path d="M6.6964 10.1227 L6.7440 10.2179 " />
<path d="M6.7440 10.2179 L6.7917 10.4084 " />
<path d="M6.7917 10.4084 L6.7917 10.5512 " />
<path d="M6.7917 10.5512 L6.7440 10.7417 " />
<path d="M6.7440 10.7417 L6.6964 10.8370 " />
<path d="M6.6964 10.8370 L6.6012 10.9322 " />
<path d="M6.6012 10.9322 L6.4583 10.9798 " />
<path d="M6.4583 10.9798 L6.2202 10.9798 " />
<path d="M6.9821 11.0751 L7.7440 11.0751 " />
<path d="M8.4583 10.9798 L7.9821 10.9798 " />
<path d="M7.9821 10.9798 L7.9821 9.9798 " />
<path d="M9.3155 10.9798 L8.7440 10.9798 " />
<path d="M9.0298 10.9798 L9.0298 9.9798 " />
<path d="M9.0298 9.9798 L8.9345 10.1227 " />
<path d="M8.9345 10.1227 L8.8393 10.2179 " />
<path d="M8.8393 10.2179 L8.7440 10.2655 " />
<path d="M9.6488 9.9798 L10.2679 9.9798 " />
<path d="M10.2679 9.9798 L9.9345 10.3608 " />
<path d="M9.9345 10.3608 L10.0774 10.3608 " />
<path d="M10.0774 10.3608 L10.1726 10.4084 " />
<path d="M10.1726 10.4084 L10.2202 10.4560 " />
<path d="M10.2202 10.4560 L10.2679 10.5512 " />
<path d="M10.2679 10.5512 L10.2679 10.7893 " />
<path d="M10.2679 10.7893 L10.2202 10.8846 " />
<path d="M10.2202 10.8846 L10.1726 10.9322 " />
<path d="M10.1726 10.9322 L10.0774 10.9798 " />
<path d="M10.0774 10.9798 L9.7917 10.9798 " />
<path d="M9.7917 10.9798 L9.6964 10.9322 " />
<path d="M9.6964 10.9322 L9.6488 10.8846 " />
<path d="M10.6964 10.8846 L10.7440 10.9322 " />
<path d="M10.7440 10.9322 L10.6964 10.9798 " />
<path d="M10.6964 10.9798 L10.6488 10.9322 " />
<path d="M10.6488 10.9322 L10.6964 10.8846 " />
<path d="M10.6964 10.8846 L10.6964 10.9798 " />
<path d="M11.3155 10.4084 L11.2202 10.3608 " />
<path d="M11.2202 10.3608 L11.1726 10.3132 " />
<path d="M11.1726 10.3132 L11.1250 10.2179 " />
<path d="M11.1250 10.2179 L11.1250 10.1703 " />
<path d="M11.1250 10.1703 L11.1726 10.0751 " />
<path d="M11.1726 10.0751 L11.2202 10.0274 " />
<path d="M11.2202 10.0274 L11.3155 9.9798 " />
<path d="M11.3155 9.9798 L11.5060 9.9798 " />
<path d="M11.5060 9.9798 L11.6012 10.0274 " />
<path d="M11.6012 10.0274 L11.6488 10.0751 " />
<path d="M11.6488 10.0751 L11.6964 10.1703 " />
<path d="M11.6964 10.1703 L11.6964 10.2179 " />
<path d="M11.6964 10.2179 L11.6488 10.3132 " />
<path d="M11.6488 10.3132 L11.6012 10.3608 " />
<path d="M11.6012 10.3608 L11.5060 10.4084 " />
<path d="M11.5060 10.4084 L11.3155 10.4084 " />
<path d="M11.3155 10.4084 L11.2202 10.4560 " />
<path d="M11.2202 10.4560 L11.1726 10.5036 " />
<path d="M11.1726 10.5036 L11.1250 10.5989 " />
<path d="M11.1250 10.5989 L11.1250 10.7893 " />
<path d="M11.1250 10.7893 L11.1726 10.8846 " />
<path d="M11.1726 10.8846 L11.2202 10.9322 " />
<path d="M11.2202 10.9322 L11.3155 10.9798 " />
<path d="M11.3155 10.9798 L11.5060 10.9798 " />
<path d="M11.5060 10.9798 L11.6012 10.9322 " />
<path d="M11.6012 10.9322 L11.6488 10.8846 " />
<path d="M11.6488 10.8846 L11.6964 10.7893 " />
<path d="M11.6964 10.7893 L11.6964 10.5989 " />
<path d="M11.6964 10.5989 L11.6488 10.5036 " />
<path d="M11.6488 10.5036 L11.6012 10.4560 " />
<path d="M11.6012 10.4560 L11.5060 10.4084 " />
<path d="M12.1250 10.5989 L12.8869 10.5989 " />
<path d="M13.2679 9.9798 L13.5060 10.9798 " />
<path d="M13.5060 10.9798 L13.6964 10.2655 " />
<path d="M13.6964 10.2655 L13.8869 10.9798 " />
<path d="M13.8869 10.9798 L14.1250 9.9798 " />
<path d="M15.0298 10.9798 L14.4583 10.9798 " />
<path d="M14.7440 10.9798 L14.7440 9.9798 " />
<path d="M14.7440 9.9798 L14.6488 10.1227 " />
<path d="M14.6488 10.1227 L14.5536 10.2179 " />
<path d="M14.5536 10.2179 L14.4583 10.2655 " />
<path d="M15.4107 10.0751 L15.4583 10.0274 " />
<path d="M15.4583 10.0274 L15.5536 9.9798 " />
<path d="M15.5536 9.9798 L15.7917 9.9798 " />
<path d="M15.7917 9.9798 L15.8869 10.0274 " />
<path d="M15.8869 10.0274 L15.9345 10.0751 " />
<path d="M15.9345 10.0751 L15.9821 10.1703 " />
<path d="M15.9821 10.1703 L15.9821 10.2655 " />
<path d="M15.9821 10.2655 L15.9345 10.4084 " />
<path d="M15.9345 10.4084 L15.3631 10.9798 " />
<path d="M15.3631 10.9798 L15.9821 10.9798 " />
<path d="M16.4107 10.8846 L16.4583 10.9322 " />
<path d="M16.4583 10.9322 L16.4107 10.9798 " />
<path d="M16.4107 10.9798 L16.3631 10.9322 " />
<path d="M16.3631 10.9322 L16.4107 10.8846 " />
<path d="M16.4107 10.8846 L16.4107 10.9798 " />
<path d="M17.0298 10.4084 L16.9345 10.3608 " />
<path d="M16.9345 10.3608 L16.8869 10.3132 " />
<path d="M16.8869 10.3132 L16.8393 10.2179 " />
<path d="M16.8393 10.2179 L16.8393 10.1703 " />
<path d="M16.8393 10.1703 L16.8869 10.0751 " />
<path d="M16.8869 10.0751 L16.9345 10.0274 " />
<path d="M16.9345 10.0274 L17.0298 9.9798 " />
<path d="M17.0298 9.9798 L17.2202 9.9798 " />
<path d="M17.2202 9.9798 L17.3155 10.0274 " />
<path d="M17.3155 10.0274 L17.3631 10.0751 " />
<path d="M17.3631 10.0751 L17.4107 10.1703 " />
<path d="M17.4107 10.1703 L17.4107 10.2179 " />
<path d="M17.4107 10.2179 L17.3631 10.3132 " />
<path d="M17.3631 10.3132 L17.3155 10.3608 " />
<path d="M17.3155 10.3608 L17.2202 10.4084 " />
<path d="M17.2202 10.4084 L17.0298 10.4084 " />
<path d="M17.0298 10.4084 L16.9345 10.4560 " />
<path d="M16.9345 10.4560 L16.8869 10.5036 " />
<path d="M16.8869 10.5036 L16.8393 10.5989 " />
<path d="M16.8393 10.5989 L16.8393 10.7893 " />
<path d="M16.8393 10.7893 L16.8869 10.8846 " />
<path d="M16.8869 10.8846 L16.9345 10.9322 " />
<path d="M16.9345 10.9322 L17.0298 10.9798 " />
<path d="M17.0298 10.9798 L17.2202 10.9798 " />
<path d="M17.2202 10.9798 L17.3155 10.9322 " />
<path d="M17.3155 10.9322 L17.3631 10.8846 " />
<path d="M17.3631 10.8846 L17.4107 10.7893 " />
<path d="M17.4107 10.7893 L17.4107 10.5989 " />
<path d="M17.4107 10.5989 L17.3631 10.5036 " />
<path d="M17.3631 10.5036 L17.3155 10.4560 " />
<path d="M17.3155 10.4560 L17.2202 10.4084 " />
</g></g>
<g style="fill:none;  stroke:#000000; stroke-width:0.0600; stroke-opacity:1;  stroke-linecap:round; stroke-linejoin:round;">
<circle cx="1.9631" cy="12.9250" r="0.0300" /> 
</g> 
</svg>