<?xml version='1.0' encoding='utf-8'?>
<svg xmlns="http://www.w3.org/2000/svg" version="1.1" width="17.3228mm" height="9.6774mm" viewBox="0.0000 0.0000 17.3228 9.6774">
<title>SVG Image created as LED0603-R-RD_WHITE.svg date 2026/01/09 08:17:46 </title>
  <desc>Image generated by PCBNEW </desc>
<g style="fill:#000000; fill-opacity:1.0000;stroke:#000000; stroke-opacity:1.0000; stroke-linecap:round; stroke-linejoin:round;" transform="translate(0 0) scale(1 1)">
<path style="fill:#000000; fill-opacity:1.0000; stroke:none;fill-rule:evenodd;" d="M 8.2726,5.2482 7.4726,5.2482 7.4726,4.4482 8.2726,4.4482 Z" /> 
<path style="fill:#000000; fill-opacity:1.0000; stroke:none;fill-rule:evenodd;" d="M 9.8726,5.2482 9.0726,5.2482 9.0726,4.4482 9.8726,4.4482 Z" /> 
<path style="fill:#000000; fill-opacity:1.0000; stroke:none;fill-rule:evenodd;" d="M 8.2726,5.2482 7.4726,5.2482 7.4726,4.4482 8.2726,4.4482 Z" /> 
<path style="fill:#000000; fill-opacity:1.0000; stroke:none;fill-rule:evenodd;" d="M 9.8726,5.2482 9.0726,5.2482 9.0726,4.4482 9.8726,4.4482 Z" /> 
<path style="fill:#000000; fill-opacity:1.0000; stroke:none;fill-rule:evenodd;" d="M 8.2726,5.2482 7.4726,5.2482 7.4726,4.4482 8.2726,4.4482 Z" /> 
<path style="fill:#000000; fill-opacity:1.0000; stroke:none;fill-rule:evenodd;" d="M 9.8726,5.2482 9.0726,5.2482 9.0726,4.4482 9.8726,4.4482 Z" /> 
</g>
<g style="fill:none;  stroke:#000000; stroke-width:0.1500; stroke-opacity:1;  stroke-linecap:round; stroke-linejoin:round;">
</g>
<g style="fill:none;  stroke:#000000; stroke-width:0.2000; stroke-opacity:1;  stroke-linecap:round; stroke-linejoin:round;">
<path d="M8.6726 5.2283 L8.6726 4.4482 " />
</g>
<g style="fill:none;  stroke:#000000; stroke-width:0.1500; stroke-opacity:1;  stroke-linecap:round; stroke-linejoin:round;">
<path d="M8.5326 4.0983 L7.4826 4.0983 " />
<path d="M7.1826 4.4982 L7.1826 4.3982 " />
<path d="M7.1826 4.3982 L7.4826 4.0983 " />
<path d="M7.1826 4.4982 L7.1826 5.1982 " />
<path d="M7.1826 5.1982 L7.1826 5.2982 " />
<path d="M7.1826 5.2982 L7.4826 5.5983 " />
<path d="M8.5326 5.5983 L7.4826 5.5983 " />
<path d="M8.9126 5.5983 L10.0626 5.5983 " />
<path d="M10.0626 4.0983 L10.0626 5.5782 " />
<path d="M8.9126 4.0983 L10.0626 4.0983 " />
</g>
<g style="fill:none;  stroke:#000000; stroke-width:0.2000; stroke-opacity:1;  stroke-linecap:round; stroke-linejoin:round;">
<path d="M8.6726 4.8282 L8.5026 4.8282 " />
</g>
<g style="fill:none;  stroke:#000000; stroke-width:0.1500; stroke-opacity:1;  stroke-linecap:round; stroke-linejoin:round;">
<text x="8.6726" y="9.3483" textLength="17.3452" font-size="1.3333" lengthAdjust="spacingAndGlyphs" text-anchor="middle" opacity="0" stroke-opacity="0">LED0603-R-RD_WHITE</text>
<g class="stroked-text"><desc>LED0603-R-RD_WHITE</desc>
<path d="M0.8393 9.3031 L0.3631 9.3031 " />
<path d="M0.3631 9.3031 L0.3631 8.3031 " />
<path d="M1.1726 8.7793 L1.5060 8.7793 " />
<path d="M1.6488 9.3031 L1.1726 9.3031 " />
<path d="M1.1726 9.3031 L1.1726 8.3031 " />
<path d="M1.1726 8.3031 L1.6488 8.3031 " />
<path d="M2.0774 9.3031 L2.0774 8.3031 " />
<path d="M2.0774 8.3031 L2.3155 8.3031 " />
<path d="M2.3155 8.3031 L2.4583 8.3507 " />
<path d="M2.4583 8.3507 L2.5536 8.4459 " />
<path d="M2.5536 8.4459 L2.6012 8.5412 " />
<path d="M2.6012 8.5412 L2.6488 8.7316 " />
<path d="M2.6488 8.7316 L2.6488 8.8745 " />
<path d="M2.6488 8.8745 L2.6012 9.0650 " />
<path d="M2.6012 9.0650 L2.5536 9.1602 " />
<path d="M2.5536 9.1602 L2.4583 9.2554 " />
<path d="M2.4583 9.2554 L2.3155 9.3031 " />
<path d="M2.3155 9.3031 L2.0774 9.3031 " />
<path d="M3.2679 8.3031 L3.3631 8.3031 " />
<path d="M3.3631 8.3031 L3.4583 8.3507 " />
<path d="M3.4583 8.3507 L3.5060 8.3983 " />
<path d="M3.5060 8.3983 L3.5536 8.4935 " />
<path d="M3.5536 8.4935 L3.6012 8.6840 " />
<path d="M3.6012 8.6840 L3.6012 8.9221 " />
<path d="M3.6012 8.9221 L3.5536 9.1126 " />
<path d="M3.5536 9.1126 L3.5060 9.2078 " />
<path d="M3.5060 9.2078 L3.4583 9.2554 " />
<path d="M3.4583 9.2554 L3.3631 9.3031 " />
<path d="M3.3631 9.3031 L3.2679 9.3031 " />
<path d="M3.2679 9.3031 L3.1726 9.2554 " />
<path d="M3.1726 9.2554 L3.1250 9.2078 " />
<path d="M3.1250 9.2078 L3.0774 9.1126 " />
<path d="M3.0774 9.1126 L3.0298 8.9221 " />
<path d="M3.0298 8.9221 L3.0298 8.6840 " />
<path d="M3.0298 8.6840 L3.0774 8.4935 " />
<path d="M3.0774 8.4935 L3.1250 8.3983 " />
<path d="M3.1250 8.3983 L3.1726 8.3507 " />
<path d="M3.1726 8.3507 L3.2679 8.3031 " />
<path d="M4.4583 8.3031 L4.2679 8.3031 " />
<path d="M4.2679 8.3031 L4.1726 8.3507 " />
<path d="M4.1726 8.3507 L4.1250 8.3983 " />
<path d="M4.1250 8.3983 L4.0298 8.5412 " />
<path d="M4.0298 8.5412 L3.9821 8.7316 " />
<path d="M3.9821 8.7316 L3.9821 9.1126 " />
<path d="M3.9821 9.1126 L4.0298 9.2078 " />
<path d="M4.0298 9.2078 L4.0774 9.2554 " />
<path d="M4.0774 9.2554 L4.1726 9.3031 " />
<path d="M4.1726 9.3031 L4.3631 9.3031 " />
<path d="M4.3631 9.3031 L4.4583 9.2554 " />
<path d="M4.4583 9.2554 L4.5060 9.2078 " />
<path d="M4.5060 9.2078 L4.5536 9.1126 " />
<path d="M4.5536 9.1126 L4.5536 8.8745 " />
<path d="M4.5536 8.8745 L4.5060 8.7793 " />
<path d="M4.5060 8.7793 L4.4583 8.7316 " />
<path d="M4.4583 8.7316 L4.3631 8.6840 " />
<path d="M4.3631 8.6840 L4.1726 8.6840 " />
<path d="M4.1726 8.6840 L4.0774 8.7316 " />
<path d="M4.0774 8.7316 L4.0298 8.7793 " />
<path d="M4.0298 8.7793 L3.9821 8.8745 " />
<path d="M5.1726 8.3031 L5.2679 8.3031 " />
<path d="M5.2679 8.3031 L5.3631 8.3507 " />
<path d="M5.3631 8.3507 L5.4107 8.3983 " />
<path d="M5.4107 8.3983 L5.4583 8.4935 " />
<path d="M5.4583 8.4935 L5.5060 8.6840 " />
<path d="M5.5060 8.6840 L5.5060 8.9221 " />
<path d="M5.5060 8.9221 L5.4583 9.1126 " />
<path d="M5.4583 9.1126 L5.4107 9.2078 " />
<path d="M5.4107 9.2078 L5.3631 9.2554 " />
<path d="M5.3631 9.2554 L5.2679 9.3031 " />
<path d="M5.2679 9.3031 L5.1726 9.3031 " />
<path d="M5.1726 9.3031 L5.0774 9.2554 " />
<path d="M5.0774 9.2554 L5.0298 9.2078 " />
<path d="M5.0298 9.2078 L4.9821 9.1126 " />
<path d="M4.9821 9.1126 L4.9345 8.9221 " />
<path d="M4.9345 8.9221 L4.9345 8.6840 " />
<path d="M4.9345 8.6840 L4.9821 8.4935 " />
<path d="M4.9821 8.4935 L5.0298 8.3983 " />
<path d="M5.0298 8.3983 L5.0774 8.3507 " />
<path d="M5.0774 8.3507 L5.1726 8.3031 " />
<path d="M5.8393 8.3031 L6.4583 8.3031 " />
<path d="M6.4583 8.3031 L6.1250 8.6840 " />
<path d="M6.1250 8.6840 L6.2679 8.6840 " />
<path d="M6.2679 8.6840 L6.3631 8.7316 " />
<path d="M6.3631 8.7316 L6.4107 8.7793 " />
<path d="M6.4107 8.7793 L6.4583 8.8745 " />
<path d="M6.4583 8.8745 L6.4583 9.1126 " />
<path d="M6.4583 9.1126 L6.4107 9.2078 " />
<path d="M6.4107 9.2078 L6.3631 9.2554 " />
<path d="M6.3631 9.2554 L6.2679 9.3031 " />
<path d="M6.2679 9.3031 L5.9821 9.3031 " />
<path d="M5.9821 9.3031 L5.8869 9.2554 " />
<path d="M5.8869 9.2554 L5.8393 9.2078 " />
<path d="M6.8869 8.9221 L7.6488 8.9221 " />
<path d="M8.6964 9.3031 L8.3631 8.8269 " />
<path d="M8.1250 9.3031 L8.1250 8.3031 " />
<path d="M8.1250 8.3031 L8.5060 8.3031 " />
<path d="M8.5060 8.3031 L8.6012 8.3507 " />
<path d="M8.6012 8.3507 L8.6488 8.3983 " />
<path d="M8.6488 8.3983 L8.6964 8.4935 " />
<path d="M8.6964 8.4935 L8.6964 8.6364 " />
<path d="M8.6964 8.6364 L8.6488 8.7316 " />
<path d="M8.6488 8.7316 L8.6012 8.7793 " />
<path d="M8.6012 8.7793 L8.5060 8.8269 " />
<path d="M8.5060 8.8269 L8.1250 8.8269 " />
<path d="M9.1250 8.9221 L9.8869 8.9221 " />
<path d="M10.9345 9.3031 L10.6012 8.8269 " />
<path d="M10.3631 9.3031 L10.3631 8.3031 " />
<path d="M10.3631 8.3031 L10.7440 8.3031 " />
<path d="M10.7440 8.3031 L10.8393 8.3507 " />
<path d="M10.8393 8.3507 L10.8869 8.3983 " />
<path d="M10.8869 8.3983 L10.9345 8.4935 " />
<path d="M10.9345 8.4935 L10.9345 8.6364 " />
<path d="M10.9345 8.6364 L10.8869 8.7316 " />
<path d="M10.8869 8.7316 L10.8393 8.7793 " />
<path d="M10.8393 8.7793 L10.7440 8.8269 " />
<path d="M10.7440 8.8269 L10.3631 8.8269 " />
<path d="M11.3631 9.3031 L11.3631 8.3031 " />
<path d="M11.3631 8.3031 L11.6012 8.3031 " />
<path d="M11.6012 8.3031 L11.7440 8.3507 " />
<path d="M11.7440 8.3507 L11.8393 8.4459 " />
<path d="M11.8393 8.4459 L11.8869 8.5412 " />
<path d="M11.8869 8.5412 L11.9345 8.7316 " />
<path d="M11.9345 8.7316 L11.9345 8.8745 " />
<path d="M11.9345 8.8745 L11.8869 9.0650 " />
<path d="M11.8869 9.0650 L11.8393 9.1602 " />
<path d="M11.8393 9.1602 L11.7440 9.2554 " />
<path d="M11.7440 9.2554 L11.6012 9.3031 " />
<path d="M11.6012 9.3031 L11.3631 9.3031 " />
<path d="M12.1250 9.3983 L12.8869 9.3983 " />
<path d="M13.0298 8.3031 L13.2679 9.3031 " />
<path d="M13.2679 9.3031 L13.4583 8.5888 " />
<path d="M13.4583 8.5888 L13.6488 9.3031 " />
<path d="M13.6488 9.3031 L13.8869 8.3031 " />
<path d="M14.2679 9.3031 L14.2679 8.3031 " />
<path d="M14.2679 8.7793 L14.8393 8.7793 " />
<path d="M14.8393 9.3031 L14.8393 8.3031 " />
<path d="M15.3155 9.3031 L15.3155 8.3031 " />
<path d="M15.6488 8.3031 L16.2202 8.3031 " />
<path d="M15.9345 9.3031 L15.9345 8.3031 " />
<path d="M16.5536 8.7793 L16.8869 8.7793 " />
<path d="M17.0298 9.3031 L16.5536 9.3031 " />
<path d="M16.5536 9.3031 L16.5536 8.3031 " />
<path d="M16.5536 8.3031 L17.0298 8.3031 " />
</g></g>
<g style="fill:none;  stroke:#000000; stroke-width:0.0600; stroke-opacity:1;  stroke-linecap:round; stroke-linejoin:round;">
<circle cx="9.4726" cy="4.4482" r="0.0300" /> 
</g> 
</svg>