<?xml version='1.0' encoding='utf-8'?>
<svg xmlns="http://www.w3.org/2000/svg" version="1.1" width="18.0594mm" height="14.7574mm" viewBox="0.0000 0.0000 18.0594 14.7574">
<title>SVG Image created as LM7912 SMD JLCPCB.svg date 2026/01/09 08:17:46 </title>
  <desc>Image generated by PCBNEW </desc>
<g style="fill:#000000; fill-opacity:1.0000;stroke:#000000; stroke-opacity:1.0000; stroke-linecap:round; stroke-linejoin:round;" transform="translate(0 0) scale(1 1)">
<path style="fill:#000000; fill-opacity:1.0000; stroke:none;fill-rule:evenodd;" d="M 13.2600,10.6832 13.2600,9.1732 16.5600,9.1732 16.5600,10.6832 Z" /> 
<path style="fill:#000000; fill-opacity:1.0000; stroke:none;fill-rule:evenodd;" d="M 13.2600,8.1433 13.2600,6.6332 16.5600,6.6332 16.5600,8.1433 Z" /> 
<path style="fill:#000000; fill-opacity:1.0000; stroke:none;fill-rule:evenodd;" d="M 13.2600,5.6033 13.2600,4.0932 16.5600,4.0932 16.5600,5.6033 Z" /> 
<path style="fill:#000000; fill-opacity:1.0000; stroke:none;fill-rule:evenodd;" d="M 0.0000,12.4482 0.0000,2.3282 10.0200,2.3282 10.0200,12.4482 Z" /> 
<path style="fill:#000000; fill-opacity:1.0000; stroke:none;fill-rule:evenodd;" d="M 13.2600,10.6832 13.2600,9.1732 16.5600,9.1732 16.5600,10.6832 Z" /> 
<path style="fill:#000000; fill-opacity:1.0000; stroke:none;fill-rule:evenodd;" d="M 13.2600,8.1433 13.2600,6.6332 16.5600,6.6332 16.5600,8.1433 Z" /> 
<path style="fill:#000000; fill-opacity:1.0000; stroke:none;fill-rule:evenodd;" d="M 13.2600,5.6033 13.2600,4.0932 16.5600,4.0932 16.5600,5.6033 Z" /> 
<path style="fill:#000000; fill-opacity:1.0000; stroke:none;fill-rule:evenodd;" d="M 0.0000,12.4482 0.0000,2.3282 10.0200,2.3282 10.0200,12.4482 Z" /> 
<path style="fill:#000000; fill-opacity:1.0000; stroke:none;fill-rule:evenodd;" d="M 13.2600,10.6832 13.2600,9.1732 16.5600,9.1732 16.5600,10.6832 Z" /> 
<path style="fill:#000000; fill-opacity:1.0000; stroke:none;fill-rule:evenodd;" d="M 13.2600,8.1433 13.2600,6.6332 16.5600,6.6332 16.5600,8.1433 Z" /> 
<path style="fill:#000000; fill-opacity:1.0000; stroke:none;fill-rule:evenodd;" d="M 13.2600,5.6033 13.2600,4.0932 16.5600,4.0932 16.5600,5.6033 Z" /> 
<path style="fill:#000000; fill-opacity:1.0000; stroke:none;fill-rule:evenodd;" d="M 0.0000,12.4482 0.0000,2.3282 10.0200,2.3282 10.0200,12.4482 Z" /> 
</g>
<g style="fill:none;  stroke:#000000; stroke-width:0.1500; stroke-opacity:1;  stroke-linecap:round; stroke-linejoin:round;">
</g>
<g style="fill:none;  stroke:#000000; stroke-width:0.2500; stroke-opacity:1;  stroke-linecap:round; stroke-linejoin:round;">
<path d="M10.4100 2.3782 L11.1100 2.3782 " />
<path d="M11.1100 2.3782 L11.1100 12.3882 " />
<path d="M11.1100 4.4082 L13.0100 4.4082 " />
<path d="M11.1100 6.9482 L12.6100 6.9482 " />
<path d="M11.1100 9.4882 L13.0100 9.4882 " />
<path d="M11.1100 10.3782 L13.0100 10.3782 " />
<path d="M11.1100 12.3882 L10.4100 12.3882 " />
<path d="M12.6100 6.9482 L12.6100 7.8382 " />
<path d="M12.6100 7.8382 L11.1100 7.8382 " />
<path d="M13.0100 4.4082 L13.0100 5.2982 " />
<path d="M13.0100 5.2982 L11.1100 5.2982 " />
<path d="M13.0100 9.4882 L13.0100 10.3782 " />
</g>
<g style="fill:none;  stroke:#000000; stroke-width:0.4000; stroke-opacity:1;  stroke-linecap:round; stroke-linejoin:round;">
<circle cx="12.0100" cy="11.5882" r="0.2000" /> 
</g>
<g style="fill:none;  stroke:#000000; stroke-width:0.1500; stroke-opacity:1;  stroke-linecap:round; stroke-linejoin:round;">
<text x="9.9600" y="14.4282" textLength="16.2024" font-size="1.3333" lengthAdjust="spacingAndGlyphs" text-anchor="middle" opacity="0" stroke-opacity="0">LM7912 SMD JLCPCB</text>
<g class="stroked-text"><desc>LM7912 SMD JLCPCB</desc>
<path d="M2.6981 14.3831 L2.2219 14.3831 " />
<path d="M2.2219 14.3831 L2.2219 13.3831 " />
<path d="M3.0314 14.3831 L3.0314 13.3831 " />
<path d="M3.0314 13.3831 L3.3648 14.0974 " />
<path d="M3.3648 14.0974 L3.6981 13.3831 " />
<path d="M3.6981 13.3831 L3.6981 14.3831 " />
<path d="M4.0790 13.3831 L4.7457 13.3831 " />
<path d="M4.7457 13.3831 L4.3171 14.3831 " />
<path d="M5.1743 14.3831 L5.3648 14.3831 " />
<path d="M5.3648 14.3831 L5.4600 14.3354 " />
<path d="M5.4600 14.3354 L5.5076 14.2878 " />
<path d="M5.5076 14.2878 L5.6029 14.1450 " />
<path d="M5.6029 14.1450 L5.6505 13.9545 " />
<path d="M5.6505 13.9545 L5.6505 13.5735 " />
<path d="M5.6505 13.5735 L5.6029 13.4783 " />
<path d="M5.6029 13.4783 L5.5552 13.4307 " />
<path d="M5.5552 13.4307 L5.4600 13.3831 " />
<path d="M5.4600 13.3831 L5.2695 13.3831 " />
<path d="M5.2695 13.3831 L5.1743 13.4307 " />
<path d="M5.1743 13.4307 L5.1267 13.4783 " />
<path d="M5.1267 13.4783 L5.0790 13.5735 " />
<path d="M5.0790 13.5735 L5.0790 13.8116 " />
<path d="M5.0790 13.8116 L5.1267 13.9069 " />
<path d="M5.1267 13.9069 L5.1743 13.9545 " />
<path d="M5.1743 13.9545 L5.2695 14.0021 " />
<path d="M5.2695 14.0021 L5.4600 14.0021 " />
<path d="M5.4600 14.0021 L5.5552 13.9545 " />
<path d="M5.5552 13.9545 L5.6029 13.9069 " />
<path d="M5.6029 13.9069 L5.6505 13.8116 " />
<path d="M6.6029 14.3831 L6.0314 14.3831 " />
<path d="M6.3171 14.3831 L6.3171 13.3831 " />
<path d="M6.3171 13.3831 L6.2219 13.5259 " />
<path d="M6.2219 13.5259 L6.1267 13.6212 " />
<path d="M6.1267 13.6212 L6.0314 13.6688 " />
<path d="M6.9838 13.4783 L7.0314 13.4307 " />
<path d="M7.0314 13.4307 L7.1267 13.3831 " />
<path d="M7.1267 13.3831 L7.3648 13.3831 " />
<path d="M7.3648 13.3831 L7.4600 13.4307 " />
<path d="M7.4600 13.4307 L7.5076 13.4783 " />
<path d="M7.5076 13.4783 L7.5552 13.5735 " />
<path d="M7.5552 13.5735 L7.5552 13.6688 " />
<path d="M7.5552 13.6688 L7.5076 13.8116 " />
<path d="M7.5076 13.8116 L6.9362 14.3831 " />
<path d="M6.9362 14.3831 L7.5552 14.3831 " />
<path d="M8.6981 14.3354 L8.8410 14.3831 " />
<path d="M8.8410 14.3831 L9.0790 14.3831 " />
<path d="M9.0790 14.3831 L9.1743 14.3354 " />
<path d="M9.1743 14.3354 L9.2219 14.2878 " />
<path d="M9.2219 14.2878 L9.2695 14.1926 " />
<path d="M9.2695 14.1926 L9.2695 14.0974 " />
<path d="M9.2695 14.0974 L9.2219 14.0021 " />
<path d="M9.2219 14.0021 L9.1743 13.9545 " />
<path d="M9.1743 13.9545 L9.0790 13.9069 " />
<path d="M9.0790 13.9069 L8.8886 13.8593 " />
<path d="M8.8886 13.8593 L8.7933 13.8116 " />
<path d="M8.7933 13.8116 L8.7457 13.7640 " />
<path d="M8.7457 13.7640 L8.6981 13.6688 " />
<path d="M8.6981 13.6688 L8.6981 13.5735 " />
<path d="M8.6981 13.5735 L8.7457 13.4783 " />
<path d="M8.7457 13.4783 L8.7933 13.4307 " />
<path d="M8.7933 13.4307 L8.8886 13.3831 " />
<path d="M8.8886 13.3831 L9.1267 13.3831 " />
<path d="M9.1267 13.3831 L9.2695 13.4307 " />
<path d="M9.6981 14.3831 L9.6981 13.3831 " />
<path d="M9.6981 13.3831 L10.0314 14.0974 " />
<path d="M10.0314 14.0974 L10.3648 13.3831 " />
<path d="M10.3648 13.3831 L10.3648 14.3831 " />
<path d="M10.8410 14.3831 L10.8410 13.3831 " />
<path d="M10.8410 13.3831 L11.0790 13.3831 " />
<path d="M11.0790 13.3831 L11.2219 13.4307 " />
<path d="M11.2219 13.4307 L11.3171 13.5259 " />
<path d="M11.3171 13.5259 L11.3648 13.6212 " />
<path d="M11.3648 13.6212 L11.4124 13.8116 " />
<path d="M11.4124 13.8116 L11.4124 13.9545 " />
<path d="M11.4124 13.9545 L11.3648 14.1450 " />
<path d="M11.3648 14.1450 L11.3171 14.2402 " />
<path d="M11.3171 14.2402 L11.2219 14.3354 " />
<path d="M11.2219 14.3354 L11.0790 14.3831 " />
<path d="M11.0790 14.3831 L10.8410 14.3831 " />
<path d="M12.8886 13.3831 L12.8886 14.0974 " />
<path d="M12.8886 14.0974 L12.8410 14.2402 " />
<path d="M12.8410 14.2402 L12.7457 14.3354 " />
<path d="M12.7457 14.3354 L12.6029 14.3831 " />
<path d="M12.6029 14.3831 L12.5076 14.3831 " />
<path d="M13.8410 14.3831 L13.3648 14.3831 " />
<path d="M13.3648 14.3831 L13.3648 13.3831 " />
<path d="M14.7457 14.2878 L14.6981 14.3354 " />
<path d="M14.6981 14.3354 L14.5552 14.3831 " />
<path d="M14.5552 14.3831 L14.4600 14.3831 " />
<path d="M14.4600 14.3831 L14.3171 14.3354 " />
<path d="M14.3171 14.3354 L14.2219 14.2402 " />
<path d="M14.2219 14.2402 L14.1743 14.1450 " />
<path d="M14.1743 14.1450 L14.1267 13.9545 " />
<path d="M14.1267 13.9545 L14.1267 13.8116 " />
<path d="M14.1267 13.8116 L14.1743 13.6212 " />
<path d="M14.1743 13.6212 L14.2219 13.5259 " />
<path d="M14.2219 13.5259 L14.3171 13.4307 " />
<path d="M14.3171 13.4307 L14.4600 13.3831 " />
<path d="M14.4600 13.3831 L14.5552 13.3831 " />
<path d="M14.5552 13.3831 L14.6981 13.4307 " />
<path d="M14.6981 13.4307 L14.7457 13.4783 " />
<path d="M15.1743 14.3831 L15.1743 13.3831 " />
<path d="M15.1743 13.3831 L15.5552 13.3831 " />
<path d="M15.5552 13.3831 L15.6505 13.4307 " />
<path d="M15.6505 13.4307 L15.6981 13.4783 " />
<path d="M15.6981 13.4783 L15.7457 13.5735 " />
<path d="M15.7457 13.5735 L15.7457 13.7164 " />
<path d="M15.7457 13.7164 L15.6981 13.8116 " />
<path d="M15.6981 13.8116 L15.6505 13.8593 " />
<path d="M15.6505 13.8593 L15.5552 13.9069 " />
<path d="M15.5552 13.9069 L15.1743 13.9069 " />
<path d="M16.7457 14.2878 L16.6981 14.3354 " />
<path d="M16.6981 14.3354 L16.5552 14.3831 " />
<path d="M16.5552 14.3831 L16.4600 14.3831 " />
<path d="M16.4600 14.3831 L16.3171 14.3354 " />
<path d="M16.3171 14.3354 L16.2219 14.2402 " />
<path d="M16.2219 14.2402 L16.1743 14.1450 " />
<path d="M16.1743 14.1450 L16.1267 13.9545 " />
<path d="M16.1267 13.9545 L16.1267 13.8116 " />
<path d="M16.1267 13.8116 L16.1743 13.6212 " />
<path d="M16.1743 13.6212 L16.2219 13.5259 " />
<path d="M16.2219 13.5259 L16.3171 13.4307 " />
<path d="M16.3171 13.4307 L16.4600 13.3831 " />
<path d="M16.4600 13.3831 L16.5552 13.3831 " />
<path d="M16.5552 13.3831 L16.6981 13.4307 " />
<path d="M16.6981 13.4307 L16.7457 13.4783 " />
<path d="M17.5076 13.8593 L17.6505 13.9069 " />
<path d="M17.6505 13.9069 L17.6981 13.9545 " />
<path d="M17.6981 13.9545 L17.7457 14.0497 " />
<path d="M17.7457 14.0497 L17.7457 14.1926 " />
<path d="M17.7457 14.1926 L17.6981 14.2878 " />
<path d="M17.6981 14.2878 L17.6505 14.3354 " />
<path d="M17.6505 14.3354 L17.5552 14.3831 " />
<path d="M17.5552 14.3831 L17.1743 14.3831 " />
<path d="M17.1743 14.3831 L17.1743 13.3831 " />
<path d="M17.1743 13.3831 L17.5076 13.3831 " />
<path d="M17.5076 13.3831 L17.6029 13.4307 " />
<path d="M17.6029 13.4307 L17.6505 13.4783 " />
<path d="M17.6505 13.4783 L17.6981 13.5735 " />
<path d="M17.6981 13.5735 L17.6981 13.6688 " />
<path d="M17.6981 13.6688 L17.6505 13.7640 " />
<path d="M17.6505 13.7640 L17.6029 13.8116 " />
<path d="M17.6029 13.8116 L17.5076 13.8593 " />
<path d="M17.5076 13.8593 L17.1743 13.8593 " />
</g></g>
<g style="fill:none;  stroke:#000000; stroke-width:0.0600; stroke-opacity:1;  stroke-linecap:round; stroke-linejoin:round;">
<circle cx="15.4800" cy="12.4383" r="0.0300" /> 
</g>
<g style="fill:none;  stroke:#000000; stroke-width:0.6000; stroke-opacity:1;  stroke-linecap:round; stroke-linejoin:round;">
<circle cx="15.6800" cy="9.8982" r="0.3000" /> 
</g> 
</svg>