<?xml version='1.0' encoding='utf-8'?>
<svg xmlns="http://www.w3.org/2000/svg" version="1.1" width="29.1846mm" height="12.4968mm" viewBox="0.0000 0.0000 29.1846 12.4968">
<title>SVG Image created as QFN-20_L3.0-W3.0-P0.40-BL-EP1.7.svg date 2026/01/09 08:17:46 </title>
  <desc>Image generated by PCBNEW </desc>
<g style="fill:#000000; fill-opacity:1.0000;stroke:#000000; stroke-opacity:1.0000; stroke-linecap:round; stroke-linejoin:round;" transform="translate(0 0) scale(1 1)">
<path style="fill:#000000; fill-opacity:1.0000; stroke:none;fill-rule:evenodd;" d="M 13.7012,7.9982 13.7012,7.3382 13.9012,7.3382 13.9012,7.9982 Z" /> 
<path style="fill:#000000; fill-opacity:1.0000; stroke:none;fill-rule:evenodd;" d="M 14.1012,7.9982 14.1012,7.3382 14.3012,7.3382 14.3012,7.9982 Z" /> 
<path style="fill:#000000; fill-opacity:1.0000; stroke:none;fill-rule:evenodd;" d="M 14.5012,7.9982 14.5012,7.3382 14.7012,7.3382 14.7012,7.9982 Z" /> 
<path style="fill:#000000; fill-opacity:1.0000; stroke:none;fill-rule:evenodd;" d="M 14.9012,7.9982 14.9012,7.3382 15.1012,7.3382 15.1012,7.9982 Z" /> 
<path style="fill:#000000; fill-opacity:1.0000; stroke:none;fill-rule:evenodd;" d="M 15.3012,7.9982 15.3012,7.3382 15.5012,7.3382 15.5012,7.9982 Z" /> 
<path style="fill:#000000; fill-opacity:1.0000; stroke:none;fill-rule:evenodd;" d="M 15.6812,7.1582 15.6812,6.9582 16.3412,6.9582 16.3412,7.1582 Z" /> 
<path style="fill:#000000; fill-opacity:1.0000; stroke:none;fill-rule:evenodd;" d="M 15.6812,6.7582 15.6812,6.5583 16.3412,6.5583 16.3412,6.7582 Z" /> 
<path style="fill:#000000; fill-opacity:1.0000; stroke:none;fill-rule:evenodd;" d="M 15.6812,6.3582 15.6812,6.1582 16.3412,6.1582 16.3412,6.3582 Z" /> 
<path style="fill:#000000; fill-opacity:1.0000; stroke:none;fill-rule:evenodd;" d="M 15.6812,5.9582 15.6812,5.7582 16.3412,5.7582 16.3412,5.9582 Z" /> 
<path style="fill:#000000; fill-opacity:1.0000; stroke:none;fill-rule:evenodd;" d="M 15.6812,5.5583 15.6812,5.3582 16.3412,5.3582 16.3412,5.5583 Z" /> 
<path style="fill:#000000; fill-opacity:1.0000; stroke:none;fill-rule:evenodd;" d="M 15.3012,5.1782 15.3012,4.5183 15.5012,4.5183 15.5012,5.1782 Z" /> 
<path style="fill:#000000; fill-opacity:1.0000; stroke:none;fill-rule:evenodd;" d="M 14.9012,5.1782 14.9012,4.5183 15.1012,4.5183 15.1012,5.1782 Z" /> 
<path style="fill:#000000; fill-opacity:1.0000; stroke:none;fill-rule:evenodd;" d="M 14.5012,5.1782 14.5012,4.5183 14.7012,4.5183 14.7012,5.1782 Z" /> 
<path style="fill:#000000; fill-opacity:1.0000; stroke:none;fill-rule:evenodd;" d="M 14.1012,5.1782 14.1012,4.5183 14.3012,4.5183 14.3012,5.1782 Z" /> 
<path style="fill:#000000; fill-opacity:1.0000; stroke:none;fill-rule:evenodd;" d="M 13.7012,5.1782 13.7012,4.5183 13.9012,4.5183 13.9012,5.1782 Z" /> 
<path style="fill:#000000; fill-opacity:1.0000; stroke:none;fill-rule:evenodd;" d="M 12.8612,5.5583 12.8612,5.3582 13.5212,5.3582 13.5212,5.5583 Z" /> 
<path style="fill:#000000; fill-opacity:1.0000; stroke:none;fill-rule:evenodd;" d="M 12.8612,5.9582 12.8612,5.7582 13.5212,5.7582 13.5212,5.9582 Z" /> 
<path style="fill:#000000; fill-opacity:1.0000; stroke:none;fill-rule:evenodd;" d="M 12.8612,6.3582 12.8612,6.1582 13.5212,6.1582 13.5212,6.3582 Z" /> 
<path style="fill:#000000; fill-opacity:1.0000; stroke:none;fill-rule:evenodd;" d="M 12.8612,6.7582 12.8612,6.5583 13.5212,6.5583 13.5212,6.7582 Z" /> 
<path style="fill:#000000; fill-opacity:1.0000; stroke:none;fill-rule:evenodd;" d="M 12.8612,7.1582 12.8612,6.9582 13.5212,6.9582 13.5212,7.1582 Z" /> 
<path style="fill:#000000; fill-opacity:1.0000; stroke:none;fill-rule:evenodd;" d="M 13.7762,7.0832 13.7762,5.4333 15.4262,5.4333 15.4262,7.0832 Z" /> 
<path style="fill:#000000; fill-opacity:1.0000; stroke:none;fill-rule:evenodd;" d="M 13.7012,7.9982 13.7012,7.3382 13.9012,7.3382 13.9012,7.9982 Z" /> 
<path style="fill:#000000; fill-opacity:1.0000; stroke:none;fill-rule:evenodd;" d="M 14.1012,7.9982 14.1012,7.3382 14.3012,7.3382 14.3012,7.9982 Z" /> 
<path style="fill:#000000; fill-opacity:1.0000; stroke:none;fill-rule:evenodd;" d="M 14.5012,7.9982 14.5012,7.3382 14.7012,7.3382 14.7012,7.9982 Z" /> 
<path style="fill:#000000; fill-opacity:1.0000; stroke:none;fill-rule:evenodd;" d="M 14.9012,7.9982 14.9012,7.3382 15.1012,7.3382 15.1012,7.9982 Z" /> 
<path style="fill:#000000; fill-opacity:1.0000; stroke:none;fill-rule:evenodd;" d="M 15.3012,7.9982 15.3012,7.3382 15.5012,7.3382 15.5012,7.9982 Z" /> 
<path style="fill:#000000; fill-opacity:1.0000; stroke:none;fill-rule:evenodd;" d="M 15.6812,7.1582 15.6812,6.9582 16.3412,6.9582 16.3412,7.1582 Z" /> 
<path style="fill:#000000; fill-opacity:1.0000; stroke:none;fill-rule:evenodd;" d="M 15.6812,6.7582 15.6812,6.5583 16.3412,6.5583 16.3412,6.7582 Z" /> 
<path style="fill:#000000; fill-opacity:1.0000; stroke:none;fill-rule:evenodd;" d="M 15.6812,6.3582 15.6812,6.1582 16.3412,6.1582 16.3412,6.3582 Z" /> 
<path style="fill:#000000; fill-opacity:1.0000; stroke:none;fill-rule:evenodd;" d="M 15.6812,5.9582 15.6812,5.7582 16.3412,5.7582 16.3412,5.9582 Z" /> 
<path style="fill:#000000; fill-opacity:1.0000; stroke:none;fill-rule:evenodd;" d="M 15.6812,5.5583 15.6812,5.3582 16.3412,5.3582 16.3412,5.5583 Z" /> 
<path style="fill:#000000; fill-opacity:1.0000; stroke:none;fill-rule:evenodd;" d="M 15.3012,5.1782 15.3012,4.5183 15.5012,4.5183 15.5012,5.1782 Z" /> 
<path style="fill:#000000; fill-opacity:1.0000; stroke:none;fill-rule:evenodd;" d="M 14.9012,5.1782 14.9012,4.5183 15.1012,4.5183 15.1012,5.1782 Z" /> 
<path style="fill:#000000; fill-opacity:1.0000; stroke:none;fill-rule:evenodd;" d="M 14.5012,5.1782 14.5012,4.5183 14.7012,4.5183 14.7012,5.1782 Z" /> 
<path style="fill:#000000; fill-opacity:1.0000; stroke:none;fill-rule:evenodd;" d="M 14.1012,5.1782 14.1012,4.5183 14.3012,4.5183 14.3012,5.1782 Z" /> 
<path style="fill:#000000; fill-opacity:1.0000; stroke:none;fill-rule:evenodd;" d="M 13.7012,5.1782 13.7012,4.5183 13.9012,4.5183 13.9012,5.1782 Z" /> 
<path style="fill:#000000; fill-opacity:1.0000; stroke:none;fill-rule:evenodd;" d="M 12.8612,5.5583 12.8612,5.3582 13.5212,5.3582 13.5212,5.5583 Z" /> 
<path style="fill:#000000; fill-opacity:1.0000; stroke:none;fill-rule:evenodd;" d="M 12.8612,5.9582 12.8612,5.7582 13.5212,5.7582 13.5212,5.9582 Z" /> 
<path style="fill:#000000; fill-opacity:1.0000; stroke:none;fill-rule:evenodd;" d="M 12.8612,6.3582 12.8612,6.1582 13.5212,6.1582 13.5212,6.3582 Z" /> 
<path style="fill:#000000; fill-opacity:1.0000; stroke:none;fill-rule:evenodd;" d="M 12.8612,6.7582 12.8612,6.5583 13.5212,6.5583 13.5212,6.7582 Z" /> 
<path style="fill:#000000; fill-opacity:1.0000; stroke:none;fill-rule:evenodd;" d="M 12.8612,7.1582 12.8612,6.9582 13.5212,6.9582 13.5212,7.1582 Z" /> 
<path style="fill:#000000; fill-opacity:1.0000; stroke:none;fill-rule:evenodd;" d="M 13.7762,7.0832 13.7762,5.4333 15.4262,5.4333 15.4262,7.0832 Z" /> 
<path style="fill:#000000; fill-opacity:1.0000; stroke:none;fill-rule:evenodd;" d="M 13.7012,7.9982 13.7012,7.3382 13.9012,7.3382 13.9012,7.9982 Z" /> 
<path style="fill:#000000; fill-opacity:1.0000; stroke:none;fill-rule:evenodd;" d="M 14.1012,7.9982 14.1012,7.3382 14.3012,7.3382 14.3012,7.9982 Z" /> 
<path style="fill:#000000; fill-opacity:1.0000; stroke:none;fill-rule:evenodd;" d="M 14.5012,7.9982 14.5012,7.3382 14.7012,7.3382 14.7012,7.9982 Z" /> 
<path style="fill:#000000; fill-opacity:1.0000; stroke:none;fill-rule:evenodd;" d="M 14.9012,7.9982 14.9012,7.3382 15.1012,7.3382 15.1012,7.9982 Z" /> 
<path style="fill:#000000; fill-opacity:1.0000; stroke:none;fill-rule:evenodd;" d="M 15.3012,7.9982 15.3012,7.3382 15.5012,7.3382 15.5012,7.9982 Z" /> 
<path style="fill:#000000; fill-opacity:1.0000; stroke:none;fill-rule:evenodd;" d="M 15.6812,7.1582 15.6812,6.9582 16.3412,6.9582 16.3412,7.1582 Z" /> 
<path style="fill:#000000; fill-opacity:1.0000; stroke:none;fill-rule:evenodd;" d="M 15.6812,6.7582 15.6812,6.5583 16.3412,6.5583 16.3412,6.7582 Z" /> 
<path style="fill:#000000; fill-opacity:1.0000; stroke:none;fill-rule:evenodd;" d="M 15.6812,6.3582 15.6812,6.1582 16.3412,6.1582 16.3412,6.3582 Z" /> 
<path style="fill:#000000; fill-opacity:1.0000; stroke:none;fill-rule:evenodd;" d="M 15.6812,5.9582 15.6812,5.7582 16.3412,5.7582 16.3412,5.9582 Z" /> 
<path style="fill:#000000; fill-opacity:1.0000; stroke:none;fill-rule:evenodd;" d="M 15.6812,5.5583 15.6812,5.3582 16.3412,5.3582 16.3412,5.5583 Z" /> 
<path style="fill:#000000; fill-opacity:1.0000; stroke:none;fill-rule:evenodd;" d="M 15.3012,5.1782 15.3012,4.5183 15.5012,4.5183 15.5012,5.1782 Z" /> 
<path style="fill:#000000; fill-opacity:1.0000; stroke:none;fill-rule:evenodd;" d="M 14.9012,5.1782 14.9012,4.5183 15.1012,4.5183 15.1012,5.1782 Z" /> 
<path style="fill:#000000; fill-opacity:1.0000; stroke:none;fill-rule:evenodd;" d="M 14.5012,5.1782 14.5012,4.5183 14.7012,4.5183 14.7012,5.1782 Z" /> 
<path style="fill:#000000; fill-opacity:1.0000; stroke:none;fill-rule:evenodd;" d="M 14.1012,5.1782 14.1012,4.5183 14.3012,4.5183 14.3012,5.1782 Z" /> 
<path style="fill:#000000; fill-opacity:1.0000; stroke:none;fill-rule:evenodd;" d="M 13.7012,5.1782 13.7012,4.5183 13.9012,4.5183 13.9012,5.1782 Z" /> 
<path style="fill:#000000; fill-opacity:1.0000; stroke:none;fill-rule:evenodd;" d="M 12.8612,5.5583 12.8612,5.3582 13.5212,5.3582 13.5212,5.5583 Z" /> 
<path style="fill:#000000; fill-opacity:1.0000; stroke:none;fill-rule:evenodd;" d="M 12.8612,5.9582 12.8612,5.7582 13.5212,5.7582 13.5212,5.9582 Z" /> 
<path style="fill:#000000; fill-opacity:1.0000; stroke:none;fill-rule:evenodd;" d="M 12.8612,6.3582 12.8612,6.1582 13.5212,6.1582 13.5212,6.3582 Z" /> 
<path style="fill:#000000; fill-opacity:1.0000; stroke:none;fill-rule:evenodd;" d="M 12.8612,6.7582 12.8612,6.5583 13.5212,6.5583 13.5212,6.7582 Z" /> 
<path style="fill:#000000; fill-opacity:1.0000; stroke:none;fill-rule:evenodd;" d="M 12.8612,7.1582 12.8612,6.9582 13.5212,6.9582 13.5212,7.1582 Z" /> 
<path style="fill:#000000; fill-opacity:1.0000; stroke:none;fill-rule:evenodd;" d="M 13.7762,7.0832 13.7762,5.4333 15.4262,5.4333 15.4262,7.0832 Z" /> 
</g>
<g style="fill:none;  stroke:#000000; stroke-width:0.1500; stroke-opacity:1;  stroke-linecap:round; stroke-linejoin:round;">
<path d="M13.0212 5.1582 L13.0212 4.6782 " />
<path d="M13.0212 4.6782 L13.5012 4.6782 " />
<path d="M16.1812 5.1582 L16.1812 4.6782 " />
<path d="M16.1812 4.6782 L15.7012 4.6782 " />
<path d="M13.0212 7.3582 L13.0212 7.8382 " />
<path d="M13.0212 7.8382 L13.5012 7.8382 " />
<path d="M16.1812 7.3582 L16.1812 7.8382 " />
<path d="M16.1812 7.8382 L15.7012 7.8382 " />
<circle cx="13.8012" cy="8.2982" r="0.1450" /> 
</g>
<g style="fill:none;  stroke:#000000; stroke-width:0.1500; stroke-opacity:1;  stroke-linecap:round; stroke-linejoin:round;">
<text x="14.6012" y="12.1682" textLength="29.2024" font-size="1.3333" lengthAdjust="spacingAndGlyphs" text-anchor="middle" opacity="0" stroke-opacity="0">QFN-20_L3.0-W3.0-P0.40-BL-EP1.7</text>
<g class="stroked-text"><desc>QFN-20_L3.0-W3.0-P0.40-BL-EP1.7</desc>
<path d="M1.0298 12.2183 L0.9345 12.1707 " />
<path d="M0.9345 12.1707 L0.8393 12.0755 " />
<path d="M0.8393 12.0755 L0.6964 11.9326 " />
<path d="M0.6964 11.9326 L0.6012 11.8850 " />
<path d="M0.6012 11.8850 L0.5060 11.8850 " />
<path d="M0.5536 12.1231 L0.4583 12.0755 " />
<path d="M0.4583 12.0755 L0.3631 11.9802 " />
<path d="M0.3631 11.9802 L0.3155 11.7897 " />
<path d="M0.3155 11.7897 L0.3155 11.4564 " />
<path d="M0.3155 11.4564 L0.3631 11.2659 " />
<path d="M0.3631 11.2659 L0.4583 11.1707 " />
<path d="M0.4583 11.1707 L0.5536 11.1231 " />
<path d="M0.5536 11.1231 L0.7440 11.1231 " />
<path d="M0.7440 11.1231 L0.8393 11.1707 " />
<path d="M0.8393 11.1707 L0.9345 11.2659 " />
<path d="M0.9345 11.2659 L0.9821 11.4564 " />
<path d="M0.9821 11.4564 L0.9821 11.7897 " />
<path d="M0.9821 11.7897 L0.9345 11.9802 " />
<path d="M0.9345 11.9802 L0.8393 12.0755 " />
<path d="M0.8393 12.0755 L0.7440 12.1231 " />
<path d="M0.7440 12.1231 L0.5536 12.1231 " />
<path d="M1.7440 11.5993 L1.4107 11.5993 " />
<path d="M1.4107 12.1231 L1.4107 11.1231 " />
<path d="M1.4107 11.1231 L1.8869 11.1231 " />
<path d="M2.2679 12.1231 L2.2679 11.1231 " />
<path d="M2.2679 11.1231 L2.8393 12.1231 " />
<path d="M2.8393 12.1231 L2.8393 11.1231 " />
<path d="M3.3155 11.7421 L4.0774 11.7421 " />
<path d="M4.5060 11.2183 L4.5536 11.1707 " />
<path d="M4.5536 11.1707 L4.6488 11.1231 " />
<path d="M4.6488 11.1231 L4.8869 11.1231 " />
<path d="M4.8869 11.1231 L4.9821 11.1707 " />
<path d="M4.9821 11.1707 L5.0298 11.2183 " />
<path d="M5.0298 11.2183 L5.0774 11.3135 " />
<path d="M5.0774 11.3135 L5.0774 11.4088 " />
<path d="M5.0774 11.4088 L5.0298 11.5516 " />
<path d="M5.0298 11.5516 L4.4583 12.1231 " />
<path d="M4.4583 12.1231 L5.0774 12.1231 " />
<path d="M5.6964 11.1231 L5.7917 11.1231 " />
<path d="M5.7917 11.1231 L5.8869 11.1707 " />
<path d="M5.8869 11.1707 L5.9345 11.2183 " />
<path d="M5.9345 11.2183 L5.9821 11.3135 " />
<path d="M5.9821 11.3135 L6.0298 11.5040 " />
<path d="M6.0298 11.5040 L6.0298 11.7421 " />
<path d="M6.0298 11.7421 L5.9821 11.9326 " />
<path d="M5.9821 11.9326 L5.9345 12.0278 " />
<path d="M5.9345 12.0278 L5.8869 12.0755 " />
<path d="M5.8869 12.0755 L5.7917 12.1231 " />
<path d="M5.7917 12.1231 L5.6964 12.1231 " />
<path d="M5.6964 12.1231 L5.6012 12.0755 " />
<path d="M5.6012 12.0755 L5.5536 12.0278 " />
<path d="M5.5536 12.0278 L5.5060 11.9326 " />
<path d="M5.5060 11.9326 L5.4583 11.7421 " />
<path d="M5.4583 11.7421 L5.4583 11.5040 " />
<path d="M5.4583 11.5040 L5.5060 11.3135 " />
<path d="M5.5060 11.3135 L5.5536 11.2183 " />
<path d="M5.5536 11.2183 L5.6012 11.1707 " />
<path d="M5.6012 11.1707 L5.6964 11.1231 " />
<path d="M6.2202 12.2183 L6.9821 12.2183 " />
<path d="M7.6964 12.1231 L7.2202 12.1231 " />
<path d="M7.2202 12.1231 L7.2202 11.1231 " />
<path d="M7.9345 11.1231 L8.5536 11.1231 " />
<path d="M8.5536 11.1231 L8.2202 11.5040 " />
<path d="M8.2202 11.5040 L8.3631 11.5040 " />
<path d="M8.3631 11.5040 L8.4583 11.5516 " />
<path d="M8.4583 11.5516 L8.5060 11.5993 " />
<path d="M8.5060 11.5993 L8.5536 11.6945 " />
<path d="M8.5536 11.6945 L8.5536 11.9326 " />
<path d="M8.5536 11.9326 L8.5060 12.0278 " />
<path d="M8.5060 12.0278 L8.4583 12.0755 " />
<path d="M8.4583 12.0755 L8.3631 12.1231 " />
<path d="M8.3631 12.1231 L8.0774 12.1231 " />
<path d="M8.0774 12.1231 L7.9821 12.0755 " />
<path d="M7.9821 12.0755 L7.9345 12.0278 " />
<path d="M8.9821 12.0278 L9.0298 12.0755 " />
<path d="M9.0298 12.0755 L8.9821 12.1231 " />
<path d="M8.9821 12.1231 L8.9345 12.0755 " />
<path d="M8.9345 12.0755 L8.9821 12.0278 " />
<path d="M8.9821 12.0278 L8.9821 12.1231 " />
<path d="M9.6488 11.1231 L9.7440 11.1231 " />
<path d="M9.7440 11.1231 L9.8393 11.1707 " />
<path d="M9.8393 11.1707 L9.8869 11.2183 " />
<path d="M9.8869 11.2183 L9.9345 11.3135 " />
<path d="M9.9345 11.3135 L9.9821 11.5040 " />
<path d="M9.9821 11.5040 L9.9821 11.7421 " />
<path d="M9.9821 11.7421 L9.9345 11.9326 " />
<path d="M9.9345 11.9326 L9.8869 12.0278 " />
<path d="M9.8869 12.0278 L9.8393 12.0755 " />
<path d="M9.8393 12.0755 L9.7440 12.1231 " />
<path d="M9.7440 12.1231 L9.6488 12.1231 " />
<path d="M9.6488 12.1231 L9.5536 12.0755 " />
<path d="M9.5536 12.0755 L9.5060 12.0278 " />
<path d="M9.5060 12.0278 L9.4583 11.9326 " />
<path d="M9.4583 11.9326 L9.4107 11.7421 " />
<path d="M9.4107 11.7421 L9.4107 11.5040 " />
<path d="M9.4107 11.5040 L9.4583 11.3135 " />
<path d="M9.4583 11.3135 L9.5060 11.2183 " />
<path d="M9.5060 11.2183 L9.5536 11.1707 " />
<path d="M9.5536 11.1707 L9.6488 11.1231 " />
<path d="M10.4107 11.7421 L11.1726 11.7421 " />
<path d="M11.5536 11.1231 L11.7917 12.1231 " />
<path d="M11.7917 12.1231 L11.9821 11.4088 " />
<path d="M11.9821 11.4088 L12.1726 12.1231 " />
<path d="M12.1726 12.1231 L12.4107 11.1231 " />
<path d="M12.6964 11.1231 L13.3155 11.1231 " />
<path d="M13.3155 11.1231 L12.9821 11.5040 " />
<path d="M12.9821 11.5040 L13.1250 11.5040 " />
<path d="M13.1250 11.5040 L13.2202 11.5516 " />
<path d="M13.2202 11.5516 L13.2679 11.5993 " />
<path d="M13.2679 11.5993 L13.3155 11.6945 " />
<path d="M13.3155 11.6945 L13.3155 11.9326 " />
<path d="M13.3155 11.9326 L13.2679 12.0278 " />
<path d="M13.2679 12.0278 L13.2202 12.0755 " />
<path d="M13.2202 12.0755 L13.1250 12.1231 " />
<path d="M13.1250 12.1231 L12.8393 12.1231 " />
<path d="M12.8393 12.1231 L12.7440 12.0755 " />
<path d="M12.7440 12.0755 L12.6964 12.0278 " />
<path d="M13.7440 12.0278 L13.7917 12.0755 " />
<path d="M13.7917 12.0755 L13.7440 12.1231 " />
<path d="M13.7440 12.1231 L13.6964 12.0755 " />
<path d="M13.6964 12.0755 L13.7440 12.0278 " />
<path d="M13.7440 12.0278 L13.7440 12.1231 " />
<path d="M14.4107 11.1231 L14.5060 11.1231 " />
<path d="M14.5060 11.1231 L14.6012 11.1707 " />
<path d="M14.6012 11.1707 L14.6488 11.2183 " />
<path d="M14.6488 11.2183 L14.6964 11.3135 " />
<path d="M14.6964 11.3135 L14.7440 11.5040 " />
<path d="M14.7440 11.5040 L14.7440 11.7421 " />
<path d="M14.7440 11.7421 L14.6964 11.9326 " />
<path d="M14.6964 11.9326 L14.6488 12.0278 " />
<path d="M14.6488 12.0278 L14.6012 12.0755 " />
<path d="M14.6012 12.0755 L14.5060 12.1231 " />
<path d="M14.5060 12.1231 L14.4107 12.1231 " />
<path d="M14.4107 12.1231 L14.3155 12.0755 " />
<path d="M14.3155 12.0755 L14.2679 12.0278 " />
<path d="M14.2679 12.0278 L14.2202 11.9326 " />
<path d="M14.2202 11.9326 L14.1726 11.7421 " />
<path d="M14.1726 11.7421 L14.1726 11.5040 " />
<path d="M14.1726 11.5040 L14.2202 11.3135 " />
<path d="M14.2202 11.3135 L14.2679 11.2183 " />
<path d="M14.2679 11.2183 L14.3155 11.1707 " />
<path d="M14.3155 11.1707 L14.4107 11.1231 " />
<path d="M15.1726 11.7421 L15.9345 11.7421 " />
<path d="M16.4107 12.1231 L16.4107 11.1231 " />
<path d="M16.4107 11.1231 L16.7917 11.1231 " />
<path d="M16.7917 11.1231 L16.8869 11.1707 " />
<path d="M16.8869 11.1707 L16.9345 11.2183 " />
<path d="M16.9345 11.2183 L16.9821 11.3135 " />
<path d="M16.9821 11.3135 L16.9821 11.4564 " />
<path d="M16.9821 11.4564 L16.9345 11.5516 " />
<path d="M16.9345 11.5516 L16.8869 11.5993 " />
<path d="M16.8869 11.5993 L16.7917 11.6469 " />
<path d="M16.7917 11.6469 L16.4107 11.6469 " />
<path d="M17.6012 11.1231 L17.6964 11.1231 " />
<path d="M17.6964 11.1231 L17.7917 11.1707 " />
<path d="M17.7917 11.1707 L17.8393 11.2183 " />
<path d="M17.8393 11.2183 L17.8869 11.3135 " />
<path d="M17.8869 11.3135 L17.9345 11.5040 " />
<path d="M17.9345 11.5040 L17.9345 11.7421 " />
<path d="M17.9345 11.7421 L17.8869 11.9326 " />
<path d="M17.8869 11.9326 L17.8393 12.0278 " />
<path d="M17.8393 12.0278 L17.7917 12.0755 " />
<path d="M17.7917 12.0755 L17.6964 12.1231 " />
<path d="M17.6964 12.1231 L17.6012 12.1231 " />
<path d="M17.6012 12.1231 L17.5060 12.0755 " />
<path d="M17.5060 12.0755 L17.4583 12.0278 " />
<path d="M17.4583 12.0278 L17.4107 11.9326 " />
<path d="M17.4107 11.9326 L17.3631 11.7421 " />
<path d="M17.3631 11.7421 L17.3631 11.5040 " />
<path d="M17.3631 11.5040 L17.4107 11.3135 " />
<path d="M17.4107 11.3135 L17.4583 11.2183 " />
<path d="M17.4583 11.2183 L17.5060 11.1707 " />
<path d="M17.5060 11.1707 L17.6012 11.1231 " />
<path d="M18.3631 12.0278 L18.4107 12.0755 " />
<path d="M18.4107 12.0755 L18.3631 12.1231 " />
<path d="M18.3631 12.1231 L18.3155 12.0755 " />
<path d="M18.3155 12.0755 L18.3631 12.0278 " />
<path d="M18.3631 12.0278 L18.3631 12.1231 " />
<path d="M19.2679 11.4564 L19.2679 12.1231 " />
<path d="M19.0298 11.0755 L18.7917 11.7897 " />
<path d="M18.7917 11.7897 L19.4107 11.7897 " />
<path d="M19.9821 11.1231 L20.0774 11.1231 " />
<path d="M20.0774 11.1231 L20.1726 11.1707 " />
<path d="M20.1726 11.1707 L20.2202 11.2183 " />
<path d="M20.2202 11.2183 L20.2679 11.3135 " />
<path d="M20.2679 11.3135 L20.3155 11.5040 " />
<path d="M20.3155 11.5040 L20.3155 11.7421 " />
<path d="M20.3155 11.7421 L20.2679 11.9326 " />
<path d="M20.2679 11.9326 L20.2202 12.0278 " />
<path d="M20.2202 12.0278 L20.1726 12.0755 " />
<path d="M20.1726 12.0755 L20.0774 12.1231 " />
<path d="M20.0774 12.1231 L19.9821 12.1231 " />
<path d="M19.9821 12.1231 L19.8869 12.0755 " />
<path d="M19.8869 12.0755 L19.8393 12.0278 " />
<path d="M19.8393 12.0278 L19.7917 11.9326 " />
<path d="M19.7917 11.9326 L19.7440 11.7421 " />
<path d="M19.7440 11.7421 L19.7440 11.5040 " />
<path d="M19.7440 11.5040 L19.7917 11.3135 " />
<path d="M19.7917 11.3135 L19.8393 11.2183 " />
<path d="M19.8393 11.2183 L19.8869 11.1707 " />
<path d="M19.8869 11.1707 L19.9821 11.1231 " />
<path d="M20.7440 11.7421 L21.5060 11.7421 " />
<path d="M22.3155 11.5993 L22.4583 11.6469 " />
<path d="M22.4583 11.6469 L22.5059 11.6945 " />
<path d="M22.5059 11.6945 L22.5536 11.7897 " />
<path d="M22.5536 11.7897 L22.5536 11.9326 " />
<path d="M22.5536 11.9326 L22.5059 12.0278 " />
<path d="M22.5059 12.0278 L22.4583 12.0755 " />
<path d="M22.4583 12.0755 L22.3631 12.1231 " />
<path d="M22.3631 12.1231 L21.9821 12.1231 " />
<path d="M21.9821 12.1231 L21.9821 11.1231 " />
<path d="M21.9821 11.1231 L22.3155 11.1231 " />
<path d="M22.3155 11.1231 L22.4107 11.1707 " />
<path d="M22.4107 11.1707 L22.4583 11.2183 " />
<path d="M22.4583 11.2183 L22.5059 11.3135 " />
<path d="M22.5059 11.3135 L22.5059 11.4088 " />
<path d="M22.5059 11.4088 L22.4583 11.5040 " />
<path d="M22.4583 11.5040 L22.4107 11.5516 " />
<path d="M22.4107 11.5516 L22.3155 11.5993 " />
<path d="M22.3155 11.5993 L21.9821 11.5993 " />
<path d="M23.4583 12.1231 L22.9821 12.1231 " />
<path d="M22.9821 12.1231 L22.9821 11.1231 " />
<path d="M23.7917 11.7421 L24.5536 11.7421 " />
<path d="M25.0298 11.5993 L25.3631 11.5993 " />
<path d="M25.5059 12.1231 L25.0298 12.1231 " />
<path d="M25.0298 12.1231 L25.0298 11.1231 " />
<path d="M25.0298 11.1231 L25.5059 11.1231 " />
<path d="M25.9345 12.1231 L25.9345 11.1231 " />
<path d="M25.9345 11.1231 L26.3155 11.1231 " />
<path d="M26.3155 11.1231 L26.4107 11.1707 " />
<path d="M26.4107 11.1707 L26.4583 11.2183 " />
<path d="M26.4583 11.2183 L26.5059 11.3135 " />
<path d="M26.5059 11.3135 L26.5059 11.4564 " />
<path d="M26.5059 11.4564 L26.4583 11.5516 " />
<path d="M26.4583 11.5516 L26.4107 11.5993 " />
<path d="M26.4107 11.5993 L26.3155 11.6469 " />
<path d="M26.3155 11.6469 L25.9345 11.6469 " />
<path d="M27.4583 12.1231 L26.8869 12.1231 " />
<path d="M27.1726 12.1231 L27.1726 11.1231 " />
<path d="M27.1726 11.1231 L27.0774 11.2659 " />
<path d="M27.0774 11.2659 L26.9821 11.3612 " />
<path d="M26.9821 11.3612 L26.8869 11.4088 " />
<path d="M27.8869 12.0278 L27.9345 12.0755 " />
<path d="M27.9345 12.0755 L27.8869 12.1231 " />
<path d="M27.8869 12.1231 L27.8393 12.0755 " />
<path d="M27.8393 12.0755 L27.8869 12.0278 " />
<path d="M27.8869 12.0278 L27.8869 12.1231 " />
<path d="M28.2679 11.1231 L28.9345 11.1231 " />
<path d="M28.9345 11.1231 L28.5059 12.1231 " />
</g></g>
<g style="fill:none;  stroke:#000000; stroke-width:0.0600; stroke-opacity:1;  stroke-linecap:round; stroke-linejoin:round;">
<circle cx="13.1012" cy="7.7582" r="0.0300" /> 
</g>
<g style="fill:none;  stroke:#000000; stroke-width:0.1500; stroke-opacity:1;  stroke-linecap:round; stroke-linejoin:round;">
<circle cx="13.8012" cy="8.0582" r="0.1450" /> 
</g> 
</svg>