<?xml version='1.0' encoding='utf-8'?>
<svg xmlns="http://www.w3.org/2000/svg" version="1.1" width="5.0546mm" height="9.6774mm" viewBox="0.0000 0.0000 5.0546 9.6774">
<title>SVG Image created as R0805.svg date 2026/01/09 08:17:46 </title>
  <desc>Image generated by PCBNEW </desc>
<g style="fill:#000000; fill-opacity:1.0000;stroke:#000000; stroke-opacity:1.0000; stroke-linecap:round; stroke-linejoin:round;" transform="translate(0 0) scale(1 1)">
<path style="fill:#000000; fill-opacity:1.0000; stroke:none;fill-rule:evenodd;" d="M 2.9648,5.5382 2.9648,4.1582 4.0948,4.1582 4.0948,5.5382 Z" /> 
<path style="fill:#000000; fill-opacity:1.0000; stroke:none;fill-rule:evenodd;" d="M 0.9648,5.5382 0.9648,4.1582 2.0948,4.1582 2.0948,5.5382 Z" /> 
<path style="fill:#000000; fill-opacity:1.0000; stroke:none;fill-rule:evenodd;" d="M 2.9648,5.5382 2.9648,4.1582 4.0948,4.1582 4.0948,5.5382 Z" /> 
<path style="fill:#000000; fill-opacity:1.0000; stroke:none;fill-rule:evenodd;" d="M 0.9648,5.5382 0.9648,4.1582 2.0948,4.1582 2.0948,5.5382 Z" /> 
<path style="fill:#000000; fill-opacity:1.0000; stroke:none;fill-rule:evenodd;" d="M 2.9648,5.5382 2.9648,4.1582 4.0948,4.1582 4.0948,5.5382 Z" /> 
<path style="fill:#000000; fill-opacity:1.0000; stroke:none;fill-rule:evenodd;" d="M 0.9648,5.5382 0.9648,4.1582 2.0948,4.1582 2.0948,5.5382 Z" /> 
</g>
<g style="fill:none;  stroke:#000000; stroke-width:0.1500; stroke-opacity:1;  stroke-linecap:round; stroke-linejoin:round;">
<path d="M3.0098 5.7683 L4.2898 5.7683 " />
<path d="M4.2898 5.7683 L4.2898 3.9282 " />
<path d="M4.2898 3.9282 L3.0098 3.9282 " />
<path d="M2.0498 5.7683 L0.7698 5.7683 " />
<path d="M0.7698 5.7683 L0.7698 3.9282 " />
<path d="M0.7698 3.9282 L2.0498 3.9282 " />
<text x="2.5298" y="9.3483" textLength="5.0595" font-size="1.3333" lengthAdjust="spacingAndGlyphs" text-anchor="middle" opacity="0" stroke-opacity="0">R0805</text>
<g class="stroked-text"><desc>R0805</desc>
<path d="M0.9345 9.3031 L0.6012 8.8269 " />
<path d="M0.3631 9.3031 L0.3631 8.3031 " />
<path d="M0.3631 8.3031 L0.7440 8.3031 " />
<path d="M0.7440 8.3031 L0.8393 8.3507 " />
<path d="M0.8393 8.3507 L0.8869 8.3983 " />
<path d="M0.8869 8.3983 L0.9345 8.4935 " />
<path d="M0.9345 8.4935 L0.9345 8.6364 " />
<path d="M0.9345 8.6364 L0.8869 8.7316 " />
<path d="M0.8869 8.7316 L0.8393 8.7793 " />
<path d="M0.8393 8.7793 L0.7440 8.8269 " />
<path d="M0.7440 8.8269 L0.3631 8.8269 " />
<path d="M1.5536 8.3031 L1.6488 8.3031 " />
<path d="M1.6488 8.3031 L1.7440 8.3507 " />
<path d="M1.7440 8.3507 L1.7917 8.3983 " />
<path d="M1.7917 8.3983 L1.8393 8.4935 " />
<path d="M1.8393 8.4935 L1.8869 8.6840 " />
<path d="M1.8869 8.6840 L1.8869 8.9221 " />
<path d="M1.8869 8.9221 L1.8393 9.1126 " />
<path d="M1.8393 9.1126 L1.7917 9.2078 " />
<path d="M1.7917 9.2078 L1.7440 9.2554 " />
<path d="M1.7440 9.2554 L1.6488 9.3031 " />
<path d="M1.6488 9.3031 L1.5536 9.3031 " />
<path d="M1.5536 9.3031 L1.4583 9.2554 " />
<path d="M1.4583 9.2554 L1.4107 9.2078 " />
<path d="M1.4107 9.2078 L1.3631 9.1126 " />
<path d="M1.3631 9.1126 L1.3155 8.9221 " />
<path d="M1.3155 8.9221 L1.3155 8.6840 " />
<path d="M1.3155 8.6840 L1.3631 8.4935 " />
<path d="M1.3631 8.4935 L1.4107 8.3983 " />
<path d="M1.4107 8.3983 L1.4583 8.3507 " />
<path d="M1.4583 8.3507 L1.5536 8.3031 " />
<path d="M2.4583 8.7316 L2.3631 8.6840 " />
<path d="M2.3631 8.6840 L2.3155 8.6364 " />
<path d="M2.3155 8.6364 L2.2679 8.5412 " />
<path d="M2.2679 8.5412 L2.2679 8.4935 " />
<path d="M2.2679 8.4935 L2.3155 8.3983 " />
<path d="M2.3155 8.3983 L2.3631 8.3507 " />
<path d="M2.3631 8.3507 L2.4583 8.3031 " />
<path d="M2.4583 8.3031 L2.6488 8.3031 " />
<path d="M2.6488 8.3031 L2.7440 8.3507 " />
<path d="M2.7440 8.3507 L2.7917 8.3983 " />
<path d="M2.7917 8.3983 L2.8393 8.4935 " />
<path d="M2.8393 8.4935 L2.8393 8.5412 " />
<path d="M2.8393 8.5412 L2.7917 8.6364 " />
<path d="M2.7917 8.6364 L2.7440 8.6840 " />
<path d="M2.7440 8.6840 L2.6488 8.7316 " />
<path d="M2.6488 8.7316 L2.4583 8.7316 " />
<path d="M2.4583 8.7316 L2.3631 8.7793 " />
<path d="M2.3631 8.7793 L2.3155 8.8269 " />
<path d="M2.3155 8.8269 L2.2679 8.9221 " />
<path d="M2.2679 8.9221 L2.2679 9.1126 " />
<path d="M2.2679 9.1126 L2.3155 9.2078 " />
<path d="M2.3155 9.2078 L2.3631 9.2554 " />
<path d="M2.3631 9.2554 L2.4583 9.3031 " />
<path d="M2.4583 9.3031 L2.6488 9.3031 " />
<path d="M2.6488 9.3031 L2.7440 9.2554 " />
<path d="M2.7440 9.2554 L2.7917 9.2078 " />
<path d="M2.7917 9.2078 L2.8393 9.1126 " />
<path d="M2.8393 9.1126 L2.8393 8.9221 " />
<path d="M2.8393 8.9221 L2.7917 8.8269 " />
<path d="M2.7917 8.8269 L2.7440 8.7793 " />
<path d="M2.7440 8.7793 L2.6488 8.7316 " />
<path d="M3.4583 8.3031 L3.5536 8.3031 " />
<path d="M3.5536 8.3031 L3.6488 8.3507 " />
<path d="M3.6488 8.3507 L3.6964 8.3983 " />
<path d="M3.6964 8.3983 L3.7440 8.4935 " />
<path d="M3.7440 8.4935 L3.7917 8.6840 " />
<path d="M3.7917 8.6840 L3.7917 8.9221 " />
<path d="M3.7917 8.9221 L3.7440 9.1126 " />
<path d="M3.7440 9.1126 L3.6964 9.2078 " />
<path d="M3.6964 9.2078 L3.6488 9.2554 " />
<path d="M3.6488 9.2554 L3.5536 9.3031 " />
<path d="M3.5536 9.3031 L3.4583 9.3031 " />
<path d="M3.4583 9.3031 L3.3631 9.2554 " />
<path d="M3.3631 9.2554 L3.3155 9.2078 " />
<path d="M3.3155 9.2078 L3.2679 9.1126 " />
<path d="M3.2679 9.1126 L3.2202 8.9221 " />
<path d="M3.2202 8.9221 L3.2202 8.6840 " />
<path d="M3.2202 8.6840 L3.2679 8.4935 " />
<path d="M3.2679 8.4935 L3.3155 8.3983 " />
<path d="M3.3155 8.3983 L3.3631 8.3507 " />
<path d="M3.3631 8.3507 L3.4583 8.3031 " />
<path d="M4.6964 8.3031 L4.2202 8.3031 " />
<path d="M4.2202 8.3031 L4.1726 8.7793 " />
<path d="M4.1726 8.7793 L4.2202 8.7316 " />
<path d="M4.2202 8.7316 L4.3155 8.6840 " />
<path d="M4.3155 8.6840 L4.5536 8.6840 " />
<path d="M4.5536 8.6840 L4.6488 8.7316 " />
<path d="M4.6488 8.7316 L4.6964 8.7793 " />
<path d="M4.6964 8.7793 L4.7440 8.8745 " />
<path d="M4.7440 8.8745 L4.7440 9.1126 " />
<path d="M4.7440 9.1126 L4.6964 9.2078 " />
<path d="M4.6964 9.2078 L4.6488 9.2554 " />
<path d="M4.6488 9.2554 L4.5536 9.3031 " />
<path d="M4.5536 9.3031 L4.3155 9.3031 " />
<path d="M4.3155 9.3031 L4.2202 9.2554 " />
<path d="M4.2202 9.2554 L4.1726 9.2078 " />
</g></g>
<g style="fill:none;  stroke:#000000; stroke-width:0.0600; stroke-opacity:1;  stroke-linecap:round; stroke-linejoin:round;">
<circle cx="1.5298" cy="5.4882" r="0.0300" /> 
</g> 
</svg>