<?xml version='1.0' encoding='utf-8'?>
<svg xmlns="http://www.w3.org/2000/svg" version="1.1" width="20.5232mm" height="9.6774mm" viewBox="0.0000 0.0000 20.5232 9.6774">
<title>SVG Image created as SMA_L4.4-W2.8-LS5.4-RD.svg date 2026/01/09 08:17:46 </title>
  <desc>Image generated by PCBNEW </desc>
<g style="fill:#000000; fill-opacity:1.0000;stroke:#000000; stroke-opacity:1.0000; stroke-linecap:round; stroke-linejoin:round;" transform="translate(0 0) scale(1 1)">
<path style="fill:#000000; fill-opacity:1.0000; stroke:none;fill-rule:evenodd;" d="M 11.8129,5.6582 11.8129,4.0382 13.8629,4.0382 13.8629,5.6582 Z" /> 
<path style="fill:#000000; fill-opacity:1.0000; stroke:none;fill-rule:evenodd;" d="M 6.6729,5.6582 6.6729,4.0382 8.7229,4.0382 8.7229,5.6582 Z" /> 
<path style="fill:#000000; fill-opacity:1.0000; stroke:none;fill-rule:evenodd;" d="M 11.8129,5.6582 11.8129,4.0382 13.8629,4.0382 13.8629,5.6582 Z" /> 
<path style="fill:#000000; fill-opacity:1.0000; stroke:none;fill-rule:evenodd;" d="M 6.6729,5.6582 6.6729,4.0382 8.7229,4.0382 8.7229,5.6582 Z" /> 
<path style="fill:#000000; fill-opacity:1.0000; stroke:none;fill-rule:evenodd;" d="M 11.8129,5.6582 11.8129,4.0382 13.8629,4.0382 13.8629,5.6582 Z" /> 
<path style="fill:#000000; fill-opacity:1.0000; stroke:none;fill-rule:evenodd;" d="M 6.6729,5.6582 6.6729,4.0382 8.7229,4.0382 8.7229,5.6582 Z" /> 
</g>
<g style="fill:none;  stroke:#000000; stroke-width:0.1500; stroke-opacity:1;  stroke-linecap:round; stroke-linejoin:round;">
<path d="M7.5679 3.4882 L12.9679 3.4882 " />
<path d="M7.5679 6.2082 L12.9679 6.2082 " />
<path d="M8.9279 3.4882 L8.9279 6.2082 " />
<path d="M12.9679 3.4882 L12.9679 3.8382 " />
<path d="M12.9679 6.2082 L12.9679 5.8582 " />
<text x="10.2679" y="9.3483" textLength="20.5357" font-size="1.3333" lengthAdjust="spacingAndGlyphs" text-anchor="middle" opacity="0" stroke-opacity="0">SMA_L4.4-W2.8-LS5.4-RD</text>
<g class="stroked-text"><desc>SMA_L4.4-W2.8-LS5.4-RD</desc>
<path d="M0.3155 9.2554 L0.4583 9.3031 " />
<path d="M0.4583 9.3031 L0.6964 9.3031 " />
<path d="M0.6964 9.3031 L0.7917 9.2554 " />
<path d="M0.7917 9.2554 L0.8393 9.2078 " />
<path d="M0.8393 9.2078 L0.8869 9.1126 " />
<path d="M0.8869 9.1126 L0.8869 9.0174 " />
<path d="M0.8869 9.0174 L0.8393 8.9221 " />
<path d="M0.8393 8.9221 L0.7917 8.8745 " />
<path d="M0.7917 8.8745 L0.6964 8.8269 " />
<path d="M0.6964 8.8269 L0.5060 8.7793 " />
<path d="M0.5060 8.7793 L0.4107 8.7316 " />
<path d="M0.4107 8.7316 L0.3631 8.6840 " />
<path d="M0.3631 8.6840 L0.3155 8.5888 " />
<path d="M0.3155 8.5888 L0.3155 8.4935 " />
<path d="M0.3155 8.4935 L0.3631 8.3983 " />
<path d="M0.3631 8.3983 L0.4107 8.3507 " />
<path d="M0.4107 8.3507 L0.5060 8.3031 " />
<path d="M0.5060 8.3031 L0.7440 8.3031 " />
<path d="M0.7440 8.3031 L0.8869 8.3507 " />
<path d="M1.3155 9.3031 L1.3155 8.3031 " />
<path d="M1.3155 8.3031 L1.6488 9.0174 " />
<path d="M1.6488 9.0174 L1.9821 8.3031 " />
<path d="M1.9821 8.3031 L1.9821 9.3031 " />
<path d="M2.4107 9.0174 L2.8869 9.0174 " />
<path d="M2.3155 9.3031 L2.6488 8.3031 " />
<path d="M2.6488 8.3031 L2.9821 9.3031 " />
<path d="M3.0774 9.3983 L3.8393 9.3983 " />
<path d="M4.5536 9.3031 L4.0774 9.3031 " />
<path d="M4.0774 9.3031 L4.0774 8.3031 " />
<path d="M5.3155 8.6364 L5.3155 9.3031 " />
<path d="M5.0774 8.2554 L4.8393 8.9697 " />
<path d="M4.8393 8.9697 L5.4583 8.9697 " />
<path d="M5.8393 9.2078 L5.8869 9.2554 " />
<path d="M5.8869 9.2554 L5.8393 9.3031 " />
<path d="M5.8393 9.3031 L5.7917 9.2554 " />
<path d="M5.7917 9.2554 L5.8393 9.2078 " />
<path d="M5.8393 9.2078 L5.8393 9.3031 " />
<path d="M6.7440 8.6364 L6.7440 9.3031 " />
<path d="M6.5060 8.2554 L6.2679 8.9697 " />
<path d="M6.2679 8.9697 L6.8869 8.9697 " />
<path d="M7.2679 8.9221 L8.0298 8.9221 " />
<path d="M8.4107 8.3031 L8.6488 9.3031 " />
<path d="M8.6488 9.3031 L8.8393 8.5888 " />
<path d="M8.8393 8.5888 L9.0298 9.3031 " />
<path d="M9.0298 9.3031 L9.2679 8.3031 " />
<path d="M9.6012 8.3983 L9.6488 8.3507 " />
<path d="M9.6488 8.3507 L9.7440 8.3031 " />
<path d="M9.7440 8.3031 L9.9821 8.3031 " />
<path d="M9.9821 8.3031 L10.0774 8.3507 " />
<path d="M10.0774 8.3507 L10.1250 8.3983 " />
<path d="M10.1250 8.3983 L10.1726 8.4935 " />
<path d="M10.1726 8.4935 L10.1726 8.5888 " />
<path d="M10.1726 8.5888 L10.1250 8.7316 " />
<path d="M10.1250 8.7316 L9.5536 9.3031 " />
<path d="M9.5536 9.3031 L10.1726 9.3031 " />
<path d="M10.6012 9.2078 L10.6488 9.2554 " />
<path d="M10.6488 9.2554 L10.6012 9.3031 " />
<path d="M10.6012 9.3031 L10.5536 9.2554 " />
<path d="M10.5536 9.2554 L10.6012 9.2078 " />
<path d="M10.6012 9.2078 L10.6012 9.3031 " />
<path d="M11.2202 8.7316 L11.1250 8.6840 " />
<path d="M11.1250 8.6840 L11.0774 8.6364 " />
<path d="M11.0774 8.6364 L11.0298 8.5412 " />
<path d="M11.0298 8.5412 L11.0298 8.4935 " />
<path d="M11.0298 8.4935 L11.0774 8.3983 " />
<path d="M11.0774 8.3983 L11.1250 8.3507 " />
<path d="M11.1250 8.3507 L11.2202 8.3031 " />
<path d="M11.2202 8.3031 L11.4107 8.3031 " />
<path d="M11.4107 8.3031 L11.5060 8.3507 " />
<path d="M11.5060 8.3507 L11.5536 8.3983 " />
<path d="M11.5536 8.3983 L11.6012 8.4935 " />
<path d="M11.6012 8.4935 L11.6012 8.5412 " />
<path d="M11.6012 8.5412 L11.5536 8.6364 " />
<path d="M11.5536 8.6364 L11.5060 8.6840 " />
<path d="M11.5060 8.6840 L11.4107 8.7316 " />
<path d="M11.4107 8.7316 L11.2202 8.7316 " />
<path d="M11.2202 8.7316 L11.1250 8.7793 " />
<path d="M11.1250 8.7793 L11.0774 8.8269 " />
<path d="M11.0774 8.8269 L11.0298 8.9221 " />
<path d="M11.0298 8.9221 L11.0298 9.1126 " />
<path d="M11.0298 9.1126 L11.0774 9.2078 " />
<path d="M11.0774 9.2078 L11.1250 9.2554 " />
<path d="M11.1250 9.2554 L11.2202 9.3031 " />
<path d="M11.2202 9.3031 L11.4107 9.3031 " />
<path d="M11.4107 9.3031 L11.5060 9.2554 " />
<path d="M11.5060 9.2554 L11.5536 9.2078 " />
<path d="M11.5536 9.2078 L11.6012 9.1126 " />
<path d="M11.6012 9.1126 L11.6012 8.9221 " />
<path d="M11.6012 8.9221 L11.5536 8.8269 " />
<path d="M11.5536 8.8269 L11.5060 8.7793 " />
<path d="M11.5060 8.7793 L11.4107 8.7316 " />
<path d="M12.0298 8.9221 L12.7917 8.9221 " />
<path d="M13.7440 9.3031 L13.2679 9.3031 " />
<path d="M13.2679 9.3031 L13.2679 8.3031 " />
<path d="M14.0298 9.2554 L14.1726 9.3031 " />
<path d="M14.1726 9.3031 L14.4107 9.3031 " />
<path d="M14.4107 9.3031 L14.5060 9.2554 " />
<path d="M14.5060 9.2554 L14.5536 9.2078 " />
<path d="M14.5536 9.2078 L14.6012 9.1126 " />
<path d="M14.6012 9.1126 L14.6012 9.0174 " />
<path d="M14.6012 9.0174 L14.5536 8.9221 " />
<path d="M14.5536 8.9221 L14.5060 8.8745 " />
<path d="M14.5060 8.8745 L14.4107 8.8269 " />
<path d="M14.4107 8.8269 L14.2202 8.7793 " />
<path d="M14.2202 8.7793 L14.1250 8.7316 " />
<path d="M14.1250 8.7316 L14.0774 8.6840 " />
<path d="M14.0774 8.6840 L14.0298 8.5888 " />
<path d="M14.0298 8.5888 L14.0298 8.4935 " />
<path d="M14.0298 8.4935 L14.0774 8.3983 " />
<path d="M14.0774 8.3983 L14.1250 8.3507 " />
<path d="M14.1250 8.3507 L14.2202 8.3031 " />
<path d="M14.2202 8.3031 L14.4583 8.3031 " />
<path d="M14.4583 8.3031 L14.6012 8.3507 " />
<path d="M15.5060 8.3031 L15.0298 8.3031 " />
<path d="M15.0298 8.3031 L14.9821 8.7793 " />
<path d="M14.9821 8.7793 L15.0298 8.7316 " />
<path d="M15.0298 8.7316 L15.1250 8.6840 " />
<path d="M15.1250 8.6840 L15.3631 8.6840 " />
<path d="M15.3631 8.6840 L15.4583 8.7316 " />
<path d="M15.4583 8.7316 L15.5060 8.7793 " />
<path d="M15.5060 8.7793 L15.5536 8.8745 " />
<path d="M15.5536 8.8745 L15.5536 9.1126 " />
<path d="M15.5536 9.1126 L15.5060 9.2078 " />
<path d="M15.5060 9.2078 L15.4583 9.2554 " />
<path d="M15.4583 9.2554 L15.3631 9.3031 " />
<path d="M15.3631 9.3031 L15.1250 9.3031 " />
<path d="M15.1250 9.3031 L15.0298 9.2554 " />
<path d="M15.0298 9.2554 L14.9821 9.2078 " />
<path d="M15.9821 9.2078 L16.0298 9.2554 " />
<path d="M16.0298 9.2554 L15.9821 9.3031 " />
<path d="M15.9821 9.3031 L15.9345 9.2554 " />
<path d="M15.9345 9.2554 L15.9821 9.2078 " />
<path d="M15.9821 9.2078 L15.9821 9.3031 " />
<path d="M16.8869 8.6364 L16.8869 9.3031 " />
<path d="M16.6488 8.2554 L16.4107 8.9697 " />
<path d="M16.4107 8.9697 L17.0298 8.9697 " />
<path d="M17.4107 8.9221 L18.1726 8.9221 " />
<path d="M19.2202 9.3031 L18.8869 8.8269 " />
<path d="M18.6488 9.3031 L18.6488 8.3031 " />
<path d="M18.6488 8.3031 L19.0298 8.3031 " />
<path d="M19.0298 8.3031 L19.1250 8.3507 " />
<path d="M19.1250 8.3507 L19.1726 8.3983 " />
<path d="M19.1726 8.3983 L19.2202 8.4935 " />
<path d="M19.2202 8.4935 L19.2202 8.6364 " />
<path d="M19.2202 8.6364 L19.1726 8.7316 " />
<path d="M19.1726 8.7316 L19.1250 8.7793 " />
<path d="M19.1250 8.7793 L19.0298 8.8269 " />
<path d="M19.0298 8.8269 L18.6488 8.8269 " />
<path d="M19.6488 9.3031 L19.6488 8.3031 " />
<path d="M19.6488 8.3031 L19.8869 8.3031 " />
<path d="M19.8869 8.3031 L20.0298 8.3507 " />
<path d="M20.0298 8.3507 L20.1250 8.4459 " />
<path d="M20.1250 8.4459 L20.1726 8.5412 " />
<path d="M20.1726 8.5412 L20.2202 8.7316 " />
<path d="M20.2202 8.7316 L20.2202 8.8745 " />
<path d="M20.2202 8.8745 L20.1726 9.0650 " />
<path d="M20.1726 9.0650 L20.1250 9.1602 " />
<path d="M20.1250 9.1602 L20.0298 9.2554 " />
<path d="M20.0298 9.2554 L19.8869 9.3031 " />
<path d="M19.8869 9.3031 L19.6488 9.3031 " />
</g></g>
<g style="fill:none;  stroke:#000000; stroke-width:0.0600; stroke-opacity:1;  stroke-linecap:round; stroke-linejoin:round;">
<circle cx="7.4679" cy="6.2182" r="0.0300" /> 
</g> 
</svg>