<?xml version='1.0' encoding='utf-8'?>
<svg xmlns="http://www.w3.org/2000/svg" version="1.1" width="30.8102mm" height="12.6746mm" viewBox="0.0000 0.0000 30.8102 12.6746">
<title>SVG Image created as SOT-89-3_L4.5-W2.5-P1.50-LS4.2-TL.svg date 2026/01/09 08:17:46 </title>
  <desc>Image generated by PCBNEW </desc>
<g style="fill:#000000; fill-opacity:1.0000;stroke:#000000; stroke-opacity:1.0000; stroke-linecap:round; stroke-linejoin:round;" transform="translate(0 0) scale(1 1)">
<path style="fill:#000000; fill-opacity:1.0000; stroke:none;fill-rule:evenodd;" d="M 17.7528,5.3597 17.7869,5.3682 17.8307,5.3682 17.8428,5.3697 17.9217,5.3895 17.9705,5.3992 17.9728,5.3997 18.0128,5.4097 18.0231,5.4135 18.0582,5.4311 18.0928,5.4397 18.1031,5.4435 18.1431,5.4635 18.1507,5.4682 18.1871,5.4955 18.2631,5.5335 18.2761,5.5429 18.3036,5.5704 18.3407,5.5983 18.3461,5.6029 18.4661,5.7229 18.4707,5.7283 18.5007,5.7683 18.5054,5.7759 18.5218,5.8086 18.5461,5.8329 18.5554,5.8459 18.6154,5.9659 18.6192,5.9761 18.6284,6.0128 18.6471,6.0597 18.6492,6.0661 18.6692,6.1461 18.6697,6.1484 18.6795,6.1973 18.6892,6.2361 18.6907,6.2482 18.6907,6.4682 18.6897,6.4781 18.6797,6.5281 18.6792,6.5304 18.6595,6.6092 18.6497,6.6581 18.6454,6.6706 18.6279,6.7057 18.6192,6.7404 18.6154,6.7506 18.5554,6.8706 18.5507,6.8782 18.5215,6.9171 18.5023,6.9460 18.5007,6.9482 18.4707,6.9882 18.4661,6.9936 18.4386,7.0211 18.4107,7.0582 18.4061,7.0636 18.3461,7.1236 18.3331,7.1330 18.3003,7.1493 18.2761,7.1736 18.2707,7.1782 18.2307,7.2082 18.2231,7.2130 18.0631,7.2930 18.0528,7.2968 17.9761,7.3159 17.9293,7.3347 17.9107,7.3382 17.8769,7.3382 17.8428,7.3468 17.8405,7.3473 17.7905,7.3573 17.7807,7.3582 15.7507,7.3582 15.7386,7.3568 15.6997,7.3470 15.6558,7.3382 15.6207,7.3382 15.5984,7.3330 15.5643,7.3160 15.5209,7.3073 15.5186,7.3068 15.4786,7.2968 15.4684,7.2930 15.3084,7.2130 15.3007,7.2082 15.2607,7.1782 15.2554,7.1736 15.2311,7.1493 15.1984,7.1330 15.1854,7.1236 15.1254,7.0636 15.1207,7.0582 15.0928,7.0211 15.0654,6.9936 15.0607,6.9882 15.0307,6.9482 15.0291,6.9460 15.0099,6.9171 14.9807,6.8782 14.9760,6.8706 14.9360,6.7906 14.9322,6.7804 14.9217,6.7382 13.2707,6.7382 13.2354,6.7236 13.2207,6.6883 13.2207,6.0282 13.2354,5.9929 13.2707,5.9783 14.9217,5.9783 14.9322,5.9361 14.9360,5.9259 14.9760,5.8459 14.9854,5.8329 15.0096,5.8086 15.0260,5.7759 15.0307,5.7683 15.0607,5.7283 15.0654,5.7229 15.1854,5.6029 15.1907,5.5983 15.2279,5.5704 15.2554,5.5429 15.2684,5.5335 15.3443,5.4955 15.3807,5.4682 15.3884,5.4635 15.4284,5.4435 15.4386,5.4397 15.4733,5.4311 15.5084,5.4135 15.5209,5.4092 15.5697,5.3995 15.6486,5.3797 15.6509,5.3792 15.7009,5.3692 15.7107,5.3682 15.7446,5.3682 15.7786,5.3597 15.7907,5.3582 17.7407,5.3582 Z" /> 
<path style="fill:#000000; fill-opacity:1.0000; stroke:none;fill-rule:evenodd;" d="M 14.8407,7.5132 14.8407,8.1832 13.2607,8.1832 13.2607,7.5132 Z" /> 
<path style="fill:#000000; fill-opacity:1.0000; stroke:none;fill-rule:evenodd;" d="M 14.8407,4.5133 14.8407,5.1833 13.2607,5.1833 13.2607,4.5133 Z" /> 
<path style="fill:#000000; fill-opacity:1.0000; stroke:none;fill-rule:evenodd;" d="M 17.7528,5.3597 17.7869,5.3682 17.8307,5.3682 17.8428,5.3697 17.9217,5.3895 17.9705,5.3992 17.9728,5.3997 18.0128,5.4097 18.0231,5.4135 18.0582,5.4311 18.0928,5.4397 18.1031,5.4435 18.1431,5.4635 18.1507,5.4682 18.1871,5.4955 18.2631,5.5335 18.2761,5.5429 18.3036,5.5704 18.3407,5.5983 18.3461,5.6029 18.4661,5.7229 18.4707,5.7283 18.5007,5.7683 18.5054,5.7759 18.5218,5.8086 18.5461,5.8329 18.5554,5.8459 18.6154,5.9659 18.6192,5.9761 18.6284,6.0128 18.6471,6.0597 18.6492,6.0661 18.6692,6.1461 18.6697,6.1484 18.6795,6.1973 18.6892,6.2361 18.6907,6.2482 18.6907,6.4682 18.6897,6.4781 18.6797,6.5281 18.6792,6.5304 18.6595,6.6092 18.6497,6.6581 18.6454,6.6706 18.6279,6.7057 18.6192,6.7404 18.6154,6.7506 18.5554,6.8706 18.5507,6.8782 18.5215,6.9171 18.5023,6.9460 18.5007,6.9482 18.4707,6.9882 18.4661,6.9936 18.4386,7.0211 18.4107,7.0582 18.4061,7.0636 18.3461,7.1236 18.3331,7.1330 18.3003,7.1493 18.2761,7.1736 18.2707,7.1782 18.2307,7.2082 18.2231,7.2130 18.0631,7.2930 18.0528,7.2968 17.9761,7.3159 17.9293,7.3347 17.9107,7.3382 17.8769,7.3382 17.8428,7.3468 17.8405,7.3473 17.7905,7.3573 17.7807,7.3582 15.7507,7.3582 15.7386,7.3568 15.6997,7.3470 15.6558,7.3382 15.6207,7.3382 15.5984,7.3330 15.5643,7.3160 15.5209,7.3073 15.5186,7.3068 15.4786,7.2968 15.4684,7.2930 15.3084,7.2130 15.3007,7.2082 15.2607,7.1782 15.2554,7.1736 15.2311,7.1493 15.1984,7.1330 15.1854,7.1236 15.1254,7.0636 15.1207,7.0582 15.0928,7.0211 15.0654,6.9936 15.0607,6.9882 15.0307,6.9482 15.0291,6.9460 15.0099,6.9171 14.9807,6.8782 14.9760,6.8706 14.9360,6.7906 14.9322,6.7804 14.9217,6.7382 13.2707,6.7382 13.2354,6.7236 13.2207,6.6883 13.2207,6.0282 13.2354,5.9929 13.2707,5.9783 14.9217,5.9783 14.9322,5.9361 14.9360,5.9259 14.9760,5.8459 14.9854,5.8329 15.0096,5.8086 15.0260,5.7759 15.0307,5.7683 15.0607,5.7283 15.0654,5.7229 15.1854,5.6029 15.1907,5.5983 15.2279,5.5704 15.2554,5.5429 15.2684,5.5335 15.3443,5.4955 15.3807,5.4682 15.3884,5.4635 15.4284,5.4435 15.4386,5.4397 15.4733,5.4311 15.5084,5.4135 15.5209,5.4092 15.5697,5.3995 15.6486,5.3797 15.6509,5.3792 15.7009,5.3692 15.7107,5.3682 15.7446,5.3682 15.7786,5.3597 15.7907,5.3582 17.7407,5.3582 Z" /> 
<path style="fill:#000000; fill-opacity:1.0000; stroke:none;fill-rule:evenodd;" d="M 14.8407,7.5132 14.8407,8.1832 13.2607,8.1832 13.2607,7.5132 Z" /> 
<path style="fill:#000000; fill-opacity:1.0000; stroke:none;fill-rule:evenodd;" d="M 14.8407,4.5133 14.8407,5.1833 13.2607,5.1833 13.2607,4.5133 Z" /> 
<path style="fill:#000000; fill-opacity:1.0000; stroke:none;fill-rule:evenodd;" d="M 17.7528,5.3597 17.7869,5.3682 17.8307,5.3682 17.8428,5.3697 17.9217,5.3895 17.9705,5.3992 17.9728,5.3997 18.0128,5.4097 18.0231,5.4135 18.0582,5.4311 18.0928,5.4397 18.1031,5.4435 18.1431,5.4635 18.1507,5.4682 18.1871,5.4955 18.2631,5.5335 18.2761,5.5429 18.3036,5.5704 18.3407,5.5983 18.3461,5.6029 18.4661,5.7229 18.4707,5.7283 18.5007,5.7683 18.5054,5.7759 18.5218,5.8086 18.5461,5.8329 18.5554,5.8459 18.6154,5.9659 18.6192,5.9761 18.6284,6.0128 18.6471,6.0597 18.6492,6.0661 18.6692,6.1461 18.6697,6.1484 18.6795,6.1973 18.6892,6.2361 18.6907,6.2482 18.6907,6.4682 18.6897,6.4781 18.6797,6.5281 18.6792,6.5304 18.6595,6.6092 18.6497,6.6581 18.6454,6.6706 18.6279,6.7057 18.6192,6.7404 18.6154,6.7506 18.5554,6.8706 18.5507,6.8782 18.5215,6.9171 18.5023,6.9460 18.5007,6.9482 18.4707,6.9882 18.4661,6.9936 18.4386,7.0211 18.4107,7.0582 18.4061,7.0636 18.3461,7.1236 18.3331,7.1330 18.3003,7.1493 18.2761,7.1736 18.2707,7.1782 18.2307,7.2082 18.2231,7.2130 18.0631,7.2930 18.0528,7.2968 17.9761,7.3159 17.9293,7.3347 17.9107,7.3382 17.8769,7.3382 17.8428,7.3468 17.8405,7.3473 17.7905,7.3573 17.7807,7.3582 15.7507,7.3582 15.7386,7.3568 15.6997,7.3470 15.6558,7.3382 15.6207,7.3382 15.5984,7.3330 15.5643,7.3160 15.5209,7.3073 15.5186,7.3068 15.4786,7.2968 15.4684,7.2930 15.3084,7.2130 15.3007,7.2082 15.2607,7.1782 15.2554,7.1736 15.2311,7.1493 15.1984,7.1330 15.1854,7.1236 15.1254,7.0636 15.1207,7.0582 15.0928,7.0211 15.0654,6.9936 15.0607,6.9882 15.0307,6.9482 15.0291,6.9460 15.0099,6.9171 14.9807,6.8782 14.9760,6.8706 14.9360,6.7906 14.9322,6.7804 14.9217,6.7382 13.2707,6.7382 13.2354,6.7236 13.2207,6.6883 13.2207,6.0282 13.2354,5.9929 13.2707,5.9783 14.9217,5.9783 14.9322,5.9361 14.9360,5.9259 14.9760,5.8459 14.9854,5.8329 15.0096,5.8086 15.0260,5.7759 15.0307,5.7683 15.0607,5.7283 15.0654,5.7229 15.1854,5.6029 15.1907,5.5983 15.2279,5.5704 15.2554,5.5429 15.2684,5.5335 15.3443,5.4955 15.3807,5.4682 15.3884,5.4635 15.4284,5.4435 15.4386,5.4397 15.4733,5.4311 15.5084,5.4135 15.5209,5.4092 15.5697,5.3995 15.6486,5.3797 15.6509,5.3792 15.7009,5.3692 15.7107,5.3682 15.7446,5.3682 15.7786,5.3597 15.7907,5.3582 17.7407,5.3582 Z" /> 
<path style="fill:#000000; fill-opacity:1.0000; stroke:none;fill-rule:evenodd;" d="M 14.8407,7.5132 14.8407,8.1832 13.2607,8.1832 13.2607,7.5132 Z" /> 
<path style="fill:#000000; fill-opacity:1.0000; stroke:none;fill-rule:evenodd;" d="M 14.8407,4.5133 14.8407,5.1833 13.2607,5.1833 13.2607,4.5133 Z" /> 
</g>
<g style="fill:none;  stroke:#000000; stroke-width:0.1500; stroke-opacity:1;  stroke-linecap:round; stroke-linejoin:round;">
<path d="M17.3707 4.0282 L17.3707 5.1782 " />
<path d="M14.7207 4.0282 L17.3707 4.0282 " />
<path d="M14.7207 8.6783 L17.3707 8.6783 " />
<path d="M17.3707 8.6783 L17.3707 7.5282 " />
<text x="15.4107" y="12.3483" textLength="30.8214" font-size="1.3333" lengthAdjust="spacingAndGlyphs" text-anchor="middle" opacity="0" stroke-opacity="0">SOT-89-3_L4.5-W2.5-P1.50-LS4.2-TL</text>
<g class="stroked-text"><desc>SOT-89-3_L4.5-W2.5-P1.50-LS4.2-TL</desc>
<path d="M0.3155 12.2554 L0.4583 12.3031 " />
<path d="M0.4583 12.3031 L0.6964 12.3031 " />
<path d="M0.6964 12.3031 L0.7917 12.2554 " />
<path d="M0.7917 12.2554 L0.8393 12.2078 " />
<path d="M0.8393 12.2078 L0.8869 12.1126 " />
<path d="M0.8869 12.1126 L0.8869 12.0174 " />
<path d="M0.8869 12.0174 L0.8393 11.9221 " />
<path d="M0.8393 11.9221 L0.7917 11.8745 " />
<path d="M0.7917 11.8745 L0.6964 11.8269 " />
<path d="M0.6964 11.8269 L0.5060 11.7793 " />
<path d="M0.5060 11.7793 L0.4107 11.7316 " />
<path d="M0.4107 11.7316 L0.3631 11.6840 " />
<path d="M0.3631 11.6840 L0.3155 11.5888 " />
<path d="M0.3155 11.5888 L0.3155 11.4935 " />
<path d="M0.3155 11.4935 L0.3631 11.3983 " />
<path d="M0.3631 11.3983 L0.4107 11.3507 " />
<path d="M0.4107 11.3507 L0.5060 11.3031 " />
<path d="M0.5060 11.3031 L0.7440 11.3031 " />
<path d="M0.7440 11.3031 L0.8869 11.3507 " />
<path d="M1.5060 11.3031 L1.6964 11.3031 " />
<path d="M1.6964 11.3031 L1.7917 11.3507 " />
<path d="M1.7917 11.3507 L1.8869 11.4459 " />
<path d="M1.8869 11.4459 L1.9345 11.6364 " />
<path d="M1.9345 11.6364 L1.9345 11.9697 " />
<path d="M1.9345 11.9697 L1.8869 12.1602 " />
<path d="M1.8869 12.1602 L1.7917 12.2554 " />
<path d="M1.7917 12.2554 L1.6964 12.3031 " />
<path d="M1.6964 12.3031 L1.5060 12.3031 " />
<path d="M1.5060 12.3031 L1.4107 12.2554 " />
<path d="M1.4107 12.2554 L1.3155 12.1602 " />
<path d="M1.3155 12.1602 L1.2679 11.9697 " />
<path d="M1.2679 11.9697 L1.2679 11.6364 " />
<path d="M1.2679 11.6364 L1.3155 11.4459 " />
<path d="M1.3155 11.4459 L1.4107 11.3507 " />
<path d="M1.4107 11.3507 L1.5060 11.3031 " />
<path d="M2.2202 11.3031 L2.7917 11.3031 " />
<path d="M2.5060 12.3031 L2.5060 11.3031 " />
<path d="M3.1250 11.9221 L3.8869 11.9221 " />
<path d="M4.5060 11.7316 L4.4107 11.6840 " />
<path d="M4.4107 11.6840 L4.3631 11.6364 " />
<path d="M4.3631 11.6364 L4.3155 11.5412 " />
<path d="M4.3155 11.5412 L4.3155 11.4935 " />
<path d="M4.3155 11.4935 L4.3631 11.3983 " />
<path d="M4.3631 11.3983 L4.4107 11.3507 " />
<path d="M4.4107 11.3507 L4.5060 11.3031 " />
<path d="M4.5060 11.3031 L4.6964 11.3031 " />
<path d="M4.6964 11.3031 L4.7917 11.3507 " />
<path d="M4.7917 11.3507 L4.8393 11.3983 " />
<path d="M4.8393 11.3983 L4.8869 11.4935 " />
<path d="M4.8869 11.4935 L4.8869 11.5412 " />
<path d="M4.8869 11.5412 L4.8393 11.6364 " />
<path d="M4.8393 11.6364 L4.7917 11.6840 " />
<path d="M4.7917 11.6840 L4.6964 11.7316 " />
<path d="M4.6964 11.7316 L4.5060 11.7316 " />
<path d="M4.5060 11.7316 L4.4107 11.7793 " />
<path d="M4.4107 11.7793 L4.3631 11.8269 " />
<path d="M4.3631 11.8269 L4.3155 11.9221 " />
<path d="M4.3155 11.9221 L4.3155 12.1126 " />
<path d="M4.3155 12.1126 L4.3631 12.2078 " />
<path d="M4.3631 12.2078 L4.4107 12.2554 " />
<path d="M4.4107 12.2554 L4.5060 12.3031 " />
<path d="M4.5060 12.3031 L4.6964 12.3031 " />
<path d="M4.6964 12.3031 L4.7917 12.2554 " />
<path d="M4.7917 12.2554 L4.8393 12.2078 " />
<path d="M4.8393 12.2078 L4.8869 12.1126 " />
<path d="M4.8869 12.1126 L4.8869 11.9221 " />
<path d="M4.8869 11.9221 L4.8393 11.8269 " />
<path d="M4.8393 11.8269 L4.7917 11.7793 " />
<path d="M4.7917 11.7793 L4.6964 11.7316 " />
<path d="M5.3631 12.3031 L5.5536 12.3031 " />
<path d="M5.5536 12.3031 L5.6488 12.2554 " />
<path d="M5.6488 12.2554 L5.6964 12.2078 " />
<path d="M5.6964 12.2078 L5.7917 12.0650 " />
<path d="M5.7917 12.0650 L5.8393 11.8745 " />
<path d="M5.8393 11.8745 L5.8393 11.4935 " />
<path d="M5.8393 11.4935 L5.7917 11.3983 " />
<path d="M5.7917 11.3983 L5.7440 11.3507 " />
<path d="M5.7440 11.3507 L5.6488 11.3031 " />
<path d="M5.6488 11.3031 L5.4583 11.3031 " />
<path d="M5.4583 11.3031 L5.3631 11.3507 " />
<path d="M5.3631 11.3507 L5.3155 11.3983 " />
<path d="M5.3155 11.3983 L5.2679 11.4935 " />
<path d="M5.2679 11.4935 L5.2679 11.7316 " />
<path d="M5.2679 11.7316 L5.3155 11.8269 " />
<path d="M5.3155 11.8269 L5.3631 11.8745 " />
<path d="M5.3631 11.8745 L5.4583 11.9221 " />
<path d="M5.4583 11.9221 L5.6488 11.9221 " />
<path d="M5.6488 11.9221 L5.7440 11.8745 " />
<path d="M5.7440 11.8745 L5.7917 11.8269 " />
<path d="M5.7917 11.8269 L5.8393 11.7316 " />
<path d="M6.2679 11.9221 L7.0298 11.9221 " />
<path d="M7.4107 11.3031 L8.0298 11.3031 " />
<path d="M8.0298 11.3031 L7.6964 11.6840 " />
<path d="M7.6964 11.6840 L7.8393 11.6840 " />
<path d="M7.8393 11.6840 L7.9345 11.7316 " />
<path d="M7.9345 11.7316 L7.9821 11.7793 " />
<path d="M7.9821 11.7793 L8.0298 11.8745 " />
<path d="M8.0298 11.8745 L8.0298 12.1126 " />
<path d="M8.0298 12.1126 L7.9821 12.2078 " />
<path d="M7.9821 12.2078 L7.9345 12.2554 " />
<path d="M7.9345 12.2554 L7.8393 12.3031 " />
<path d="M7.8393 12.3031 L7.5536 12.3031 " />
<path d="M7.5536 12.3031 L7.4583 12.2554 " />
<path d="M7.4583 12.2554 L7.4107 12.2078 " />
<path d="M8.2202 12.3983 L8.9821 12.3983 " />
<path d="M9.6964 12.3031 L9.2202 12.3031 " />
<path d="M9.2202 12.3031 L9.2202 11.3031 " />
<path d="M10.4583 11.6364 L10.4583 12.3031 " />
<path d="M10.2202 11.2554 L9.9821 11.9697 " />
<path d="M9.9821 11.9697 L10.6012 11.9697 " />
<path d="M10.9821 12.2078 L11.0298 12.2554 " />
<path d="M11.0298 12.2554 L10.9821 12.3031 " />
<path d="M10.9821 12.3031 L10.9345 12.2554 " />
<path d="M10.9345 12.2554 L10.9821 12.2078 " />
<path d="M10.9821 12.2078 L10.9821 12.3031 " />
<path d="M11.9345 11.3031 L11.4583 11.3031 " />
<path d="M11.4583 11.3031 L11.4107 11.7793 " />
<path d="M11.4107 11.7793 L11.4583 11.7316 " />
<path d="M11.4583 11.7316 L11.5536 11.6840 " />
<path d="M11.5536 11.6840 L11.7917 11.6840 " />
<path d="M11.7917 11.6840 L11.8869 11.7316 " />
<path d="M11.8869 11.7316 L11.9345 11.7793 " />
<path d="M11.9345 11.7793 L11.9821 11.8745 " />
<path d="M11.9821 11.8745 L11.9821 12.1126 " />
<path d="M11.9821 12.1126 L11.9345 12.2078 " />
<path d="M11.9345 12.2078 L11.8869 12.2554 " />
<path d="M11.8869 12.2554 L11.7917 12.3031 " />
<path d="M11.7917 12.3031 L11.5536 12.3031 " />
<path d="M11.5536 12.3031 L11.4583 12.2554 " />
<path d="M11.4583 12.2554 L11.4107 12.2078 " />
<path d="M12.4107 11.9221 L13.1726 11.9221 " />
<path d="M13.5536 11.3031 L13.7917 12.3031 " />
<path d="M13.7917 12.3031 L13.9821 11.5888 " />
<path d="M13.9821 11.5888 L14.1726 12.3031 " />
<path d="M14.1726 12.3031 L14.4107 11.3031 " />
<path d="M14.7440 11.3983 L14.7917 11.3507 " />
<path d="M14.7917 11.3507 L14.8869 11.3031 " />
<path d="M14.8869 11.3031 L15.1250 11.3031 " />
<path d="M15.1250 11.3031 L15.2202 11.3507 " />
<path d="M15.2202 11.3507 L15.2679 11.3983 " />
<path d="M15.2679 11.3983 L15.3155 11.4935 " />
<path d="M15.3155 11.4935 L15.3155 11.5888 " />
<path d="M15.3155 11.5888 L15.2679 11.7316 " />
<path d="M15.2679 11.7316 L14.6964 12.3031 " />
<path d="M14.6964 12.3031 L15.3155 12.3031 " />
<path d="M15.7440 12.2078 L15.7917 12.2554 " />
<path d="M15.7917 12.2554 L15.7440 12.3031 " />
<path d="M15.7440 12.3031 L15.6964 12.2554 " />
<path d="M15.6964 12.2554 L15.7440 12.2078 " />
<path d="M15.7440 12.2078 L15.7440 12.3031 " />
<path d="M16.6964 11.3031 L16.2202 11.3031 " />
<path d="M16.2202 11.3031 L16.1726 11.7793 " />
<path d="M16.1726 11.7793 L16.2202 11.7316 " />
<path d="M16.2202 11.7316 L16.3155 11.6840 " />
<path d="M16.3155 11.6840 L16.5536 11.6840 " />
<path d="M16.5536 11.6840 L16.6488 11.7316 " />
<path d="M16.6488 11.7316 L16.6964 11.7793 " />
<path d="M16.6964 11.7793 L16.7440 11.8745 " />
<path d="M16.7440 11.8745 L16.7440 12.1126 " />
<path d="M16.7440 12.1126 L16.6964 12.2078 " />
<path d="M16.6964 12.2078 L16.6488 12.2554 " />
<path d="M16.6488 12.2554 L16.5536 12.3031 " />
<path d="M16.5536 12.3031 L16.3155 12.3031 " />
<path d="M16.3155 12.3031 L16.2202 12.2554 " />
<path d="M16.2202 12.2554 L16.1726 12.2078 " />
<path d="M17.1726 11.9221 L17.9345 11.9221 " />
<path d="M18.4107 12.3031 L18.4107 11.3031 " />
<path d="M18.4107 11.3031 L18.7917 11.3031 " />
<path d="M18.7917 11.3031 L18.8869 11.3507 " />
<path d="M18.8869 11.3507 L18.9345 11.3983 " />
<path d="M18.9345 11.3983 L18.9821 11.4935 " />
<path d="M18.9821 11.4935 L18.9821 11.6364 " />
<path d="M18.9821 11.6364 L18.9345 11.7316 " />
<path d="M18.9345 11.7316 L18.8869 11.7793 " />
<path d="M18.8869 11.7793 L18.7917 11.8269 " />
<path d="M18.7917 11.8269 L18.4107 11.8269 " />
<path d="M19.9345 12.3031 L19.3631 12.3031 " />
<path d="M19.6488 12.3031 L19.6488 11.3031 " />
<path d="M19.6488 11.3031 L19.5536 11.4459 " />
<path d="M19.5536 11.4459 L19.4583 11.5412 " />
<path d="M19.4583 11.5412 L19.3631 11.5888 " />
<path d="M20.3631 12.2078 L20.4107 12.2554 " />
<path d="M20.4107 12.2554 L20.3631 12.3031 " />
<path d="M20.3631 12.3031 L20.3155 12.2554 " />
<path d="M20.3155 12.2554 L20.3631 12.2078 " />
<path d="M20.3631 12.2078 L20.3631 12.3031 " />
<path d="M21.3155 11.3031 L20.8393 11.3031 " />
<path d="M20.8393 11.3031 L20.7917 11.7793 " />
<path d="M20.7917 11.7793 L20.8393 11.7316 " />
<path d="M20.8393 11.7316 L20.9345 11.6840 " />
<path d="M20.9345 11.6840 L21.1726 11.6840 " />
<path d="M21.1726 11.6840 L21.2679 11.7316 " />
<path d="M21.2679 11.7316 L21.3155 11.7793 " />
<path d="M21.3155 11.7793 L21.3631 11.8745 " />
<path d="M21.3631 11.8745 L21.3631 12.1126 " />
<path d="M21.3631 12.1126 L21.3155 12.2078 " />
<path d="M21.3155 12.2078 L21.2679 12.2554 " />
<path d="M21.2679 12.2554 L21.1726 12.3031 " />
<path d="M21.1726 12.3031 L20.9345 12.3031 " />
<path d="M20.9345 12.3031 L20.8393 12.2554 " />
<path d="M20.8393 12.2554 L20.7917 12.2078 " />
<path d="M21.9821 11.3031 L22.0774 11.3031 " />
<path d="M22.0774 11.3031 L22.1726 11.3507 " />
<path d="M22.1726 11.3507 L22.2202 11.3983 " />
<path d="M22.2202 11.3983 L22.2679 11.4935 " />
<path d="M22.2679 11.4935 L22.3155 11.6840 " />
<path d="M22.3155 11.6840 L22.3155 11.9221 " />
<path d="M22.3155 11.9221 L22.2679 12.1126 " />
<path d="M22.2679 12.1126 L22.2202 12.2078 " />
<path d="M22.2202 12.2078 L22.1726 12.2554 " />
<path d="M22.1726 12.2554 L22.0774 12.3031 " />
<path d="M22.0774 12.3031 L21.9821 12.3031 " />
<path d="M21.9821 12.3031 L21.8869 12.2554 " />
<path d="M21.8869 12.2554 L21.8393 12.2078 " />
<path d="M21.8393 12.2078 L21.7917 12.1126 " />
<path d="M21.7917 12.1126 L21.7440 11.9221 " />
<path d="M21.7440 11.9221 L21.7440 11.6840 " />
<path d="M21.7440 11.6840 L21.7917 11.4935 " />
<path d="M21.7917 11.4935 L21.8393 11.3983 " />
<path d="M21.8393 11.3983 L21.8869 11.3507 " />
<path d="M21.8869 11.3507 L21.9821 11.3031 " />
<path d="M22.7440 11.9221 L23.5060 11.9221 " />
<path d="M24.4583 12.3031 L23.9821 12.3031 " />
<path d="M23.9821 12.3031 L23.9821 11.3031 " />
<path d="M24.7440 12.2554 L24.8869 12.3031 " />
<path d="M24.8869 12.3031 L25.1250 12.3031 " />
<path d="M25.1250 12.3031 L25.2202 12.2554 " />
<path d="M25.2202 12.2554 L25.2679 12.2078 " />
<path d="M25.2679 12.2078 L25.3155 12.1126 " />
<path d="M25.3155 12.1126 L25.3155 12.0174 " />
<path d="M25.3155 12.0174 L25.2679 11.9221 " />
<path d="M25.2679 11.9221 L25.2202 11.8745 " />
<path d="M25.2202 11.8745 L25.1250 11.8269 " />
<path d="M25.1250 11.8269 L24.9345 11.7793 " />
<path d="M24.9345 11.7793 L24.8393 11.7316 " />
<path d="M24.8393 11.7316 L24.7917 11.6840 " />
<path d="M24.7917 11.6840 L24.7440 11.5888 " />
<path d="M24.7440 11.5888 L24.7440 11.4935 " />
<path d="M24.7440 11.4935 L24.7917 11.3983 " />
<path d="M24.7917 11.3983 L24.8393 11.3507 " />
<path d="M24.8393 11.3507 L24.9345 11.3031 " />
<path d="M24.9345 11.3031 L25.1726 11.3031 " />
<path d="M25.1726 11.3031 L25.3155 11.3507 " />
<path d="M26.1726 11.6364 L26.1726 12.3031 " />
<path d="M25.9345 11.2554 L25.6964 11.9697 " />
<path d="M25.6964 11.9697 L26.3155 11.9697 " />
<path d="M26.6964 12.2078 L26.7440 12.2554 " />
<path d="M26.7440 12.2554 L26.6964 12.3031 " />
<path d="M26.6964 12.3031 L26.6488 12.2554 " />
<path d="M26.6488 12.2554 L26.6964 12.2078 " />
<path d="M26.6964 12.2078 L26.6964 12.3031 " />
<path d="M27.1250 11.3983 L27.1726 11.3507 " />
<path d="M27.1726 11.3507 L27.2679 11.3031 " />
<path d="M27.2679 11.3031 L27.5059 11.3031 " />
<path d="M27.5059 11.3031 L27.6012 11.3507 " />
<path d="M27.6012 11.3507 L27.6488 11.3983 " />
<path d="M27.6488 11.3983 L27.6964 11.4935 " />
<path d="M27.6964 11.4935 L27.6964 11.5888 " />
<path d="M27.6964 11.5888 L27.6488 11.7316 " />
<path d="M27.6488 11.7316 L27.0774 12.3031 " />
<path d="M27.0774 12.3031 L27.6964 12.3031 " />
<path d="M28.1250 11.9221 L28.8869 11.9221 " />
<path d="M29.2202 11.3031 L29.7917 11.3031 " />
<path d="M29.5059 12.3031 L29.5059 11.3031 " />
<path d="M30.6012 12.3031 L30.1250 12.3031 " />
<path d="M30.1250 12.3031 L30.1250 11.3031 " />
</g></g>
<g style="fill:none;  stroke:#000000; stroke-width:0.0600; stroke-opacity:1;  stroke-linecap:round; stroke-linejoin:round;">
<circle cx="13.5907" cy="4.0983" r="0.0300" /> 
</g>
<g style="fill:none;  stroke:#000000; stroke-width:0.3000; stroke-opacity:1;  stroke-linecap:round; stroke-linejoin:round;">
<circle cx="13.5807" cy="4.9482" r="0.1500" /> 
</g> 
</svg>