<?xml version='1.0' encoding='utf-8'?>
<svg xmlns="http://www.w3.org/2000/svg" version="1.1" width="25.6540mm" height="17.1958mm" viewBox="0.0000 0.0000 25.6540 17.1958">
<title>SVG Image created as TO-252-3_L6.5-W5.8-P4.58-BL.svg date 2026/01/09 08:17:46 </title>
  <desc>Image generated by PCBNEW </desc>
<g style="fill:#000000; fill-opacity:1.0000;stroke:#000000; stroke-opacity:1.0000; stroke-linecap:round; stroke-linejoin:round;" transform="translate(0 0) scale(1 1)">
<path style="fill:#000000; fill-opacity:1.0000; stroke:none;fill-rule:evenodd;" d="M 14.4943,11.0682 15.7643,11.0682 15.7643,13.6082 14.4943,13.6082 Z" /> 
<path style="fill:#000000; fill-opacity:1.0000; stroke:none;fill-rule:evenodd;" d="M 10.1393,1.7982 15.5393,1.7982 15.5393,7.8982 10.1393,7.8982 Z" /> 
<path style="fill:#000000; fill-opacity:1.0000; stroke:none;fill-rule:evenodd;" d="M 9.9143,11.0782 11.1843,11.0782 11.1843,13.6182 9.9143,13.6182 Z" /> 
<path style="fill:#000000; fill-opacity:1.0000; stroke:none;fill-rule:evenodd;" d="M 14.4943,11.0682 15.7643,11.0682 15.7643,13.6082 14.4943,13.6082 Z" /> 
<path style="fill:#000000; fill-opacity:1.0000; stroke:none;fill-rule:evenodd;" d="M 10.1393,1.7982 15.5393,1.7982 15.5393,7.8982 10.1393,7.8982 Z" /> 
<path style="fill:#000000; fill-opacity:1.0000; stroke:none;fill-rule:evenodd;" d="M 9.9143,11.0782 11.1843,11.0782 11.1843,13.6182 9.9143,13.6182 Z" /> 
<path style="fill:#000000; fill-opacity:1.0000; stroke:none;fill-rule:evenodd;" d="M 14.4943,11.0682 15.7643,11.0682 15.7643,13.6082 14.4943,13.6082 Z" /> 
<path style="fill:#000000; fill-opacity:1.0000; stroke:none;fill-rule:evenodd;" d="M 10.1393,1.7982 15.5393,1.7982 15.5393,7.8982 10.1393,7.8982 Z" /> 
<path style="fill:#000000; fill-opacity:1.0000; stroke:none;fill-rule:evenodd;" d="M 9.9143,11.0782 11.1843,11.0782 11.1843,13.6182 9.9143,13.6182 Z" /> 
</g>
<g style="fill:none;  stroke:#000000; stroke-width:0.1500; stroke-opacity:1;  stroke-linecap:round; stroke-linejoin:round;">
</g>
<g style="fill:none;  stroke:#000000; stroke-width:0.2500; stroke-opacity:1;  stroke-linecap:round; stroke-linejoin:round;">
<path d="M9.5293 2.9482 L9.5293 2.8182 " />
<path d="M9.5293 2.8182 L9.5293 10.0582 " />
<path d="M9.5293 10.0582 L16.1393 10.0582 " />
<path d="M16.1393 10.0582 L16.1393 2.8182 " />
<path d="M16.1393 2.8182 L16.1393 2.6883 " />
</g>
<g style="fill:none;  stroke:#000000; stroke-width:0.1500; stroke-opacity:1;  stroke-linecap:round; stroke-linejoin:round;">
<text x="12.8393" y="16.8483" textLength="25.6786" font-size="1.3333" lengthAdjust="spacingAndGlyphs" text-anchor="middle" opacity="0" stroke-opacity="0">TO-252-3_L6.5-W5.8-P4.58-BL</text>
<g class="stroked-text"><desc>TO-252-3_L6.5-W5.8-P4.58-BL</desc>
<path d="M0.2202 15.8031 L0.7917 15.8031 " />
<path d="M0.5060 16.8031 L0.5060 15.8031 " />
<path d="M1.3155 15.8031 L1.5060 15.8031 " />
<path d="M1.5060 15.8031 L1.6012 15.8507 " />
<path d="M1.6012 15.8507 L1.6964 15.9459 " />
<path d="M1.6964 15.9459 L1.7440 16.1364 " />
<path d="M1.7440 16.1364 L1.7440 16.4697 " />
<path d="M1.7440 16.4697 L1.6964 16.6602 " />
<path d="M1.6964 16.6602 L1.6012 16.7554 " />
<path d="M1.6012 16.7554 L1.5060 16.8031 " />
<path d="M1.5060 16.8031 L1.3155 16.8031 " />
<path d="M1.3155 16.8031 L1.2202 16.7554 " />
<path d="M1.2202 16.7554 L1.1250 16.6602 " />
<path d="M1.1250 16.6602 L1.0774 16.4697 " />
<path d="M1.0774 16.4697 L1.0774 16.1364 " />
<path d="M1.0774 16.1364 L1.1250 15.9459 " />
<path d="M1.1250 15.9459 L1.2202 15.8507 " />
<path d="M1.2202 15.8507 L1.3155 15.8031 " />
<path d="M2.1726 16.4221 L2.9345 16.4221 " />
<path d="M3.3631 15.8983 L3.4107 15.8507 " />
<path d="M3.4107 15.8507 L3.5060 15.8031 " />
<path d="M3.5060 15.8031 L3.7440 15.8031 " />
<path d="M3.7440 15.8031 L3.8393 15.8507 " />
<path d="M3.8393 15.8507 L3.8869 15.8983 " />
<path d="M3.8869 15.8983 L3.9345 15.9935 " />
<path d="M3.9345 15.9935 L3.9345 16.0888 " />
<path d="M3.9345 16.0888 L3.8869 16.2316 " />
<path d="M3.8869 16.2316 L3.3155 16.8031 " />
<path d="M3.3155 16.8031 L3.9345 16.8031 " />
<path d="M4.8393 15.8031 L4.3631 15.8031 " />
<path d="M4.3631 15.8031 L4.3155 16.2793 " />
<path d="M4.3155 16.2793 L4.3631 16.2316 " />
<path d="M4.3631 16.2316 L4.4583 16.1840 " />
<path d="M4.4583 16.1840 L4.6964 16.1840 " />
<path d="M4.6964 16.1840 L4.7917 16.2316 " />
<path d="M4.7917 16.2316 L4.8393 16.2793 " />
<path d="M4.8393 16.2793 L4.8869 16.3745 " />
<path d="M4.8869 16.3745 L4.8869 16.6126 " />
<path d="M4.8869 16.6126 L4.8393 16.7078 " />
<path d="M4.8393 16.7078 L4.7917 16.7554 " />
<path d="M4.7917 16.7554 L4.6964 16.8031 " />
<path d="M4.6964 16.8031 L4.4583 16.8031 " />
<path d="M4.4583 16.8031 L4.3631 16.7554 " />
<path d="M4.3631 16.7554 L4.3155 16.7078 " />
<path d="M5.2679 15.8983 L5.3155 15.8507 " />
<path d="M5.3155 15.8507 L5.4107 15.8031 " />
<path d="M5.4107 15.8031 L5.6488 15.8031 " />
<path d="M5.6488 15.8031 L5.7440 15.8507 " />
<path d="M5.7440 15.8507 L5.7917 15.8983 " />
<path d="M5.7917 15.8983 L5.8393 15.9935 " />
<path d="M5.8393 15.9935 L5.8393 16.0888 " />
<path d="M5.8393 16.0888 L5.7917 16.2316 " />
<path d="M5.7917 16.2316 L5.2202 16.8031 " />
<path d="M5.2202 16.8031 L5.8393 16.8031 " />
<path d="M6.2679 16.4221 L7.0298 16.4221 " />
<path d="M7.4107 15.8031 L8.0298 15.8031 " />
<path d="M8.0298 15.8031 L7.6964 16.1840 " />
<path d="M7.6964 16.1840 L7.8393 16.1840 " />
<path d="M7.8393 16.1840 L7.9345 16.2316 " />
<path d="M7.9345 16.2316 L7.9821 16.2793 " />
<path d="M7.9821 16.2793 L8.0298 16.3745 " />
<path d="M8.0298 16.3745 L8.0298 16.6126 " />
<path d="M8.0298 16.6126 L7.9821 16.7078 " />
<path d="M7.9821 16.7078 L7.9345 16.7554 " />
<path d="M7.9345 16.7554 L7.8393 16.8031 " />
<path d="M7.8393 16.8031 L7.5536 16.8031 " />
<path d="M7.5536 16.8031 L7.4583 16.7554 " />
<path d="M7.4583 16.7554 L7.4107 16.7078 " />
<path d="M8.2202 16.8983 L8.9821 16.8983 " />
<path d="M9.6964 16.8031 L9.2202 16.8031 " />
<path d="M9.2202 16.8031 L9.2202 15.8031 " />
<path d="M10.4583 15.8031 L10.2679 15.8031 " />
<path d="M10.2679 15.8031 L10.1726 15.8507 " />
<path d="M10.1726 15.8507 L10.1250 15.8983 " />
<path d="M10.1250 15.8983 L10.0298 16.0412 " />
<path d="M10.0298 16.0412 L9.9821 16.2316 " />
<path d="M9.9821 16.2316 L9.9821 16.6126 " />
<path d="M9.9821 16.6126 L10.0298 16.7078 " />
<path d="M10.0298 16.7078 L10.0774 16.7554 " />
<path d="M10.0774 16.7554 L10.1726 16.8031 " />
<path d="M10.1726 16.8031 L10.3631 16.8031 " />
<path d="M10.3631 16.8031 L10.4583 16.7554 " />
<path d="M10.4583 16.7554 L10.5060 16.7078 " />
<path d="M10.5060 16.7078 L10.5536 16.6126 " />
<path d="M10.5536 16.6126 L10.5536 16.3745 " />
<path d="M10.5536 16.3745 L10.5060 16.2793 " />
<path d="M10.5060 16.2793 L10.4583 16.2316 " />
<path d="M10.4583 16.2316 L10.3631 16.1840 " />
<path d="M10.3631 16.1840 L10.1726 16.1840 " />
<path d="M10.1726 16.1840 L10.0774 16.2316 " />
<path d="M10.0774 16.2316 L10.0298 16.2793 " />
<path d="M10.0298 16.2793 L9.9821 16.3745 " />
<path d="M10.9821 16.7078 L11.0298 16.7554 " />
<path d="M11.0298 16.7554 L10.9821 16.8031 " />
<path d="M10.9821 16.8031 L10.9345 16.7554 " />
<path d="M10.9345 16.7554 L10.9821 16.7078 " />
<path d="M10.9821 16.7078 L10.9821 16.8031 " />
<path d="M11.9345 15.8031 L11.4583 15.8031 " />
<path d="M11.4583 15.8031 L11.4107 16.2793 " />
<path d="M11.4107 16.2793 L11.4583 16.2316 " />
<path d="M11.4583 16.2316 L11.5536 16.1840 " />
<path d="M11.5536 16.1840 L11.7917 16.1840 " />
<path d="M11.7917 16.1840 L11.8869 16.2316 " />
<path d="M11.8869 16.2316 L11.9345 16.2793 " />
<path d="M11.9345 16.2793 L11.9821 16.3745 " />
<path d="M11.9821 16.3745 L11.9821 16.6126 " />
<path d="M11.9821 16.6126 L11.9345 16.7078 " />
<path d="M11.9345 16.7078 L11.8869 16.7554 " />
<path d="M11.8869 16.7554 L11.7917 16.8031 " />
<path d="M11.7917 16.8031 L11.5536 16.8031 " />
<path d="M11.5536 16.8031 L11.4583 16.7554 " />
<path d="M11.4583 16.7554 L11.4107 16.7078 " />
<path d="M12.4107 16.4221 L13.1726 16.4221 " />
<path d="M13.5536 15.8031 L13.7917 16.8031 " />
<path d="M13.7917 16.8031 L13.9821 16.0888 " />
<path d="M13.9821 16.0888 L14.1726 16.8031 " />
<path d="M14.1726 16.8031 L14.4107 15.8031 " />
<path d="M15.2679 15.8031 L14.7917 15.8031 " />
<path d="M14.7917 15.8031 L14.7440 16.2793 " />
<path d="M14.7440 16.2793 L14.7917 16.2316 " />
<path d="M14.7917 16.2316 L14.8869 16.1840 " />
<path d="M14.8869 16.1840 L15.1250 16.1840 " />
<path d="M15.1250 16.1840 L15.2202 16.2316 " />
<path d="M15.2202 16.2316 L15.2679 16.2793 " />
<path d="M15.2679 16.2793 L15.3155 16.3745 " />
<path d="M15.3155 16.3745 L15.3155 16.6126 " />
<path d="M15.3155 16.6126 L15.2679 16.7078 " />
<path d="M15.2679 16.7078 L15.2202 16.7554 " />
<path d="M15.2202 16.7554 L15.1250 16.8031 " />
<path d="M15.1250 16.8031 L14.8869 16.8031 " />
<path d="M14.8869 16.8031 L14.7917 16.7554 " />
<path d="M14.7917 16.7554 L14.7440 16.7078 " />
<path d="M15.7440 16.7078 L15.7917 16.7554 " />
<path d="M15.7917 16.7554 L15.7440 16.8031 " />
<path d="M15.7440 16.8031 L15.6964 16.7554 " />
<path d="M15.6964 16.7554 L15.7440 16.7078 " />
<path d="M15.7440 16.7078 L15.7440 16.8031 " />
<path d="M16.3631 16.2316 L16.2679 16.1840 " />
<path d="M16.2679 16.1840 L16.2202 16.1364 " />
<path d="M16.2202 16.1364 L16.1726 16.0412 " />
<path d="M16.1726 16.0412 L16.1726 15.9935 " />
<path d="M16.1726 15.9935 L16.2202 15.8983 " />
<path d="M16.2202 15.8983 L16.2679 15.8507 " />
<path d="M16.2679 15.8507 L16.3631 15.8031 " />
<path d="M16.3631 15.8031 L16.5536 15.8031 " />
<path d="M16.5536 15.8031 L16.6488 15.8507 " />
<path d="M16.6488 15.8507 L16.6964 15.8983 " />
<path d="M16.6964 15.8983 L16.7440 15.9935 " />
<path d="M16.7440 15.9935 L16.7440 16.0412 " />
<path d="M16.7440 16.0412 L16.6964 16.1364 " />
<path d="M16.6964 16.1364 L16.6488 16.1840 " />
<path d="M16.6488 16.1840 L16.5536 16.2316 " />
<path d="M16.5536 16.2316 L16.3631 16.2316 " />
<path d="M16.3631 16.2316 L16.2679 16.2793 " />
<path d="M16.2679 16.2793 L16.2202 16.3269 " />
<path d="M16.2202 16.3269 L16.1726 16.4221 " />
<path d="M16.1726 16.4221 L16.1726 16.6126 " />
<path d="M16.1726 16.6126 L16.2202 16.7078 " />
<path d="M16.2202 16.7078 L16.2679 16.7554 " />
<path d="M16.2679 16.7554 L16.3631 16.8031 " />
<path d="M16.3631 16.8031 L16.5536 16.8031 " />
<path d="M16.5536 16.8031 L16.6488 16.7554 " />
<path d="M16.6488 16.7554 L16.6964 16.7078 " />
<path d="M16.6964 16.7078 L16.7440 16.6126 " />
<path d="M16.7440 16.6126 L16.7440 16.4221 " />
<path d="M16.7440 16.4221 L16.6964 16.3269 " />
<path d="M16.6964 16.3269 L16.6488 16.2793 " />
<path d="M16.6488 16.2793 L16.5536 16.2316 " />
<path d="M17.1726 16.4221 L17.9345 16.4221 " />
<path d="M18.4107 16.8031 L18.4107 15.8031 " />
<path d="M18.4107 15.8031 L18.7917 15.8031 " />
<path d="M18.7917 15.8031 L18.8869 15.8507 " />
<path d="M18.8869 15.8507 L18.9345 15.8983 " />
<path d="M18.9345 15.8983 L18.9821 15.9935 " />
<path d="M18.9821 15.9935 L18.9821 16.1364 " />
<path d="M18.9821 16.1364 L18.9345 16.2316 " />
<path d="M18.9345 16.2316 L18.8869 16.2793 " />
<path d="M18.8869 16.2793 L18.7917 16.3269 " />
<path d="M18.7917 16.3269 L18.4107 16.3269 " />
<path d="M19.8393 16.1364 L19.8393 16.8031 " />
<path d="M19.6012 15.7554 L19.3631 16.4697 " />
<path d="M19.3631 16.4697 L19.9821 16.4697 " />
<path d="M20.3631 16.7078 L20.4107 16.7554 " />
<path d="M20.4107 16.7554 L20.3631 16.8031 " />
<path d="M20.3631 16.8031 L20.3155 16.7554 " />
<path d="M20.3155 16.7554 L20.3631 16.7078 " />
<path d="M20.3631 16.7078 L20.3631 16.8031 " />
<path d="M21.3155 15.8031 L20.8393 15.8031 " />
<path d="M20.8393 15.8031 L20.7917 16.2793 " />
<path d="M20.7917 16.2793 L20.8393 16.2316 " />
<path d="M20.8393 16.2316 L20.9345 16.1840 " />
<path d="M20.9345 16.1840 L21.1726 16.1840 " />
<path d="M21.1726 16.1840 L21.2679 16.2316 " />
<path d="M21.2679 16.2316 L21.3155 16.2793 " />
<path d="M21.3155 16.2793 L21.3631 16.3745 " />
<path d="M21.3631 16.3745 L21.3631 16.6126 " />
<path d="M21.3631 16.6126 L21.3155 16.7078 " />
<path d="M21.3155 16.7078 L21.2679 16.7554 " />
<path d="M21.2679 16.7554 L21.1726 16.8031 " />
<path d="M21.1726 16.8031 L20.9345 16.8031 " />
<path d="M20.9345 16.8031 L20.8393 16.7554 " />
<path d="M20.8393 16.7554 L20.7917 16.7078 " />
<path d="M21.9345 16.2316 L21.8393 16.1840 " />
<path d="M21.8393 16.1840 L21.7917 16.1364 " />
<path d="M21.7917 16.1364 L21.7440 16.0412 " />
<path d="M21.7440 16.0412 L21.7440 15.9935 " />
<path d="M21.7440 15.9935 L21.7917 15.8983 " />
<path d="M21.7917 15.8983 L21.8393 15.8507 " />
<path d="M21.8393 15.8507 L21.9345 15.8031 " />
<path d="M21.9345 15.8031 L22.1250 15.8031 " />
<path d="M22.1250 15.8031 L22.2202 15.8507 " />
<path d="M22.2202 15.8507 L22.2679 15.8983 " />
<path d="M22.2679 15.8983 L22.3155 15.9935 " />
<path d="M22.3155 15.9935 L22.3155 16.0412 " />
<path d="M22.3155 16.0412 L22.2679 16.1364 " />
<path d="M22.2679 16.1364 L22.2202 16.1840 " />
<path d="M22.2202 16.1840 L22.1250 16.2316 " />
<path d="M22.1250 16.2316 L21.9345 16.2316 " />
<path d="M21.9345 16.2316 L21.8393 16.2793 " />
<path d="M21.8393 16.2793 L21.7917 16.3269 " />
<path d="M21.7917 16.3269 L21.7440 16.4221 " />
<path d="M21.7440 16.4221 L21.7440 16.6126 " />
<path d="M21.7440 16.6126 L21.7917 16.7078 " />
<path d="M21.7917 16.7078 L21.8393 16.7554 " />
<path d="M21.8393 16.7554 L21.9345 16.8031 " />
<path d="M21.9345 16.8031 L22.1250 16.8031 " />
<path d="M22.1250 16.8031 L22.2202 16.7554 " />
<path d="M22.2202 16.7554 L22.2679 16.7078 " />
<path d="M22.2679 16.7078 L22.3155 16.6126 " />
<path d="M22.3155 16.6126 L22.3155 16.4221 " />
<path d="M22.3155 16.4221 L22.2679 16.3269 " />
<path d="M22.2679 16.3269 L22.2202 16.2793 " />
<path d="M22.2202 16.2793 L22.1250 16.2316 " />
<path d="M22.7440 16.4221 L23.5060 16.4221 " />
<path d="M24.3155 16.2793 L24.4583 16.3269 " />
<path d="M24.4583 16.3269 L24.5059 16.3745 " />
<path d="M24.5059 16.3745 L24.5536 16.4697 " />
<path d="M24.5536 16.4697 L24.5536 16.6126 " />
<path d="M24.5536 16.6126 L24.5059 16.7078 " />
<path d="M24.5059 16.7078 L24.4583 16.7554 " />
<path d="M24.4583 16.7554 L24.3631 16.8031 " />
<path d="M24.3631 16.8031 L23.9821 16.8031 " />
<path d="M23.9821 16.8031 L23.9821 15.8031 " />
<path d="M23.9821 15.8031 L24.3155 15.8031 " />
<path d="M24.3155 15.8031 L24.4107 15.8507 " />
<path d="M24.4107 15.8507 L24.4583 15.8983 " />
<path d="M24.4583 15.8983 L24.5059 15.9935 " />
<path d="M24.5059 15.9935 L24.5059 16.0888 " />
<path d="M24.5059 16.0888 L24.4583 16.1840 " />
<path d="M24.4583 16.1840 L24.4107 16.2316 " />
<path d="M24.4107 16.2316 L24.3155 16.2793 " />
<path d="M24.3155 16.2793 L23.9821 16.2793 " />
<path d="M25.4583 16.8031 L24.9821 16.8031 " />
<path d="M24.9821 16.8031 L24.9821 15.8031 " />
</g></g>
<g style="fill:none;  stroke:#000000; stroke-width:0.0600; stroke-opacity:1;  stroke-linecap:round; stroke-linejoin:round;">
<circle cx="9.7893" cy="12.4482" r="0.0300" /> 
</g>
<g style="fill:none;  stroke:#000000; stroke-width:0.2500; stroke-opacity:1;  stroke-linecap:round; stroke-linejoin:round;">
<circle cx="10.5493" cy="12.1582" r="0.1300" /> 
</g> 
</svg>