<?xml version='1.0' encoding='utf-8'?>
<svg xmlns="http://www.w3.org/2000/svg" version="1.1" width="5.0546mm" height="9.6774mm" viewBox="0.0000 0.0000 5.0546 9.6774">
<title>SVG Image created as C0603.svg date 2026/01/09 08:17:46 </title>
  <desc>Image generated by PCBNEW </desc>
<g style="fill:#000000; fill-opacity:1.0000;stroke:#000000; stroke-opacity:1.0000; stroke-linecap:round; stroke-linejoin:round;" transform="translate(0 0) scale(1 1)">
<path style="fill:#000000; fill-opacity:1.0000; stroke:none;fill-rule:evenodd;" d="M 2.8298,5.2982 2.8298,4.3982 3.6298,4.3982 3.6298,5.2982 Z" /> 
<path style="fill:#000000; fill-opacity:1.0000; stroke:none;fill-rule:evenodd;" d="M 1.4298,5.2982 1.4298,4.3982 2.2298,4.3982 2.2298,5.2982 Z" /> 
<path style="fill:#000000; fill-opacity:1.0000; stroke:none;fill-rule:evenodd;" d="M 2.8298,5.2982 2.8298,4.3982 3.6298,4.3982 3.6298,5.2982 Z" /> 
<path style="fill:#000000; fill-opacity:1.0000; stroke:none;fill-rule:evenodd;" d="M 1.4298,5.2982 1.4298,4.3982 2.2298,4.3982 2.2298,5.2982 Z" /> 
<path style="fill:#000000; fill-opacity:1.0000; stroke:none;fill-rule:evenodd;" d="M 2.8298,5.2982 2.8298,4.3982 3.6298,4.3982 3.6298,5.2982 Z" /> 
<path style="fill:#000000; fill-opacity:1.0000; stroke:none;fill-rule:evenodd;" d="M 1.4298,5.2982 1.4298,4.3982 2.2298,4.3982 2.2298,5.2982 Z" /> 
</g>
<g style="fill:none;  stroke:#000000; stroke-width:0.1500; stroke-opacity:1;  stroke-linecap:round; stroke-linejoin:round;">
</g>
<g style="fill:none;  stroke:#000000; stroke-width:0.2500; stroke-opacity:1;  stroke-linecap:round; stroke-linejoin:round;">
<path d="M2.2498 5.5583 L1.4498 5.5583 " />
<path d="M2.8098 5.5583 L3.6098 5.5583 " />
<path d="M2.2498 4.1383 L1.4498 4.1383 " />
<path d="M2.8098 4.1383 L3.6098 4.1383 " />
<path d="M1.1398 5.2482 L1.1398 4.4482 " />
<path d="M3.9198 4.4482 L3.9198 5.2482 " />
<path d="M3.9198 4.4482 A0.3100 0.3100 0.0 0 0 3.6098 4.1383" />
<path d="M3.6098 5.5582 A0.3100 0.3100 0.0 0 0 3.9198 5.2482" />
<path d="M1.1398 5.2482 A0.3100 0.3100 0.0 0 0 1.4498 5.5582" />
<path d="M1.4498 4.1383 A0.3100 0.3100 0.0 0 0 1.1398 4.4482" />
</g>
<g style="fill:none;  stroke:#000000; stroke-width:0.1500; stroke-opacity:1;  stroke-linecap:round; stroke-linejoin:round;">
<text x="2.5298" y="9.3483" textLength="5.0595" font-size="1.3333" lengthAdjust="spacingAndGlyphs" text-anchor="middle" opacity="0" stroke-opacity="0">C0603</text>
<g class="stroked-text"><desc>C0603</desc>
<path d="M0.9345 9.2078 L0.8869 9.2554 " />
<path d="M0.8869 9.2554 L0.7440 9.3031 " />
<path d="M0.7440 9.3031 L0.6488 9.3031 " />
<path d="M0.6488 9.3031 L0.5060 9.2554 " />
<path d="M0.5060 9.2554 L0.4107 9.1602 " />
<path d="M0.4107 9.1602 L0.3631 9.0650 " />
<path d="M0.3631 9.0650 L0.3155 8.8745 " />
<path d="M0.3155 8.8745 L0.3155 8.7316 " />
<path d="M0.3155 8.7316 L0.3631 8.5412 " />
<path d="M0.3631 8.5412 L0.4107 8.4459 " />
<path d="M0.4107 8.4459 L0.5060 8.3507 " />
<path d="M0.5060 8.3507 L0.6488 8.3031 " />
<path d="M0.6488 8.3031 L0.7440 8.3031 " />
<path d="M0.7440 8.3031 L0.8869 8.3507 " />
<path d="M0.8869 8.3507 L0.9345 8.3983 " />
<path d="M1.5536 8.3031 L1.6488 8.3031 " />
<path d="M1.6488 8.3031 L1.7440 8.3507 " />
<path d="M1.7440 8.3507 L1.7917 8.3983 " />
<path d="M1.7917 8.3983 L1.8393 8.4935 " />
<path d="M1.8393 8.4935 L1.8869 8.6840 " />
<path d="M1.8869 8.6840 L1.8869 8.9221 " />
<path d="M1.8869 8.9221 L1.8393 9.1126 " />
<path d="M1.8393 9.1126 L1.7917 9.2078 " />
<path d="M1.7917 9.2078 L1.7440 9.2554 " />
<path d="M1.7440 9.2554 L1.6488 9.3031 " />
<path d="M1.6488 9.3031 L1.5536 9.3031 " />
<path d="M1.5536 9.3031 L1.4583 9.2554 " />
<path d="M1.4583 9.2554 L1.4107 9.2078 " />
<path d="M1.4107 9.2078 L1.3631 9.1126 " />
<path d="M1.3631 9.1126 L1.3155 8.9221 " />
<path d="M1.3155 8.9221 L1.3155 8.6840 " />
<path d="M1.3155 8.6840 L1.3631 8.4935 " />
<path d="M1.3631 8.4935 L1.4107 8.3983 " />
<path d="M1.4107 8.3983 L1.4583 8.3507 " />
<path d="M1.4583 8.3507 L1.5536 8.3031 " />
<path d="M2.7440 8.3031 L2.5536 8.3031 " />
<path d="M2.5536 8.3031 L2.4583 8.3507 " />
<path d="M2.4583 8.3507 L2.4107 8.3983 " />
<path d="M2.4107 8.3983 L2.3155 8.5412 " />
<path d="M2.3155 8.5412 L2.2679 8.7316 " />
<path d="M2.2679 8.7316 L2.2679 9.1126 " />
<path d="M2.2679 9.1126 L2.3155 9.2078 " />
<path d="M2.3155 9.2078 L2.3631 9.2554 " />
<path d="M2.3631 9.2554 L2.4583 9.3031 " />
<path d="M2.4583 9.3031 L2.6488 9.3031 " />
<path d="M2.6488 9.3031 L2.7440 9.2554 " />
<path d="M2.7440 9.2554 L2.7917 9.2078 " />
<path d="M2.7917 9.2078 L2.8393 9.1126 " />
<path d="M2.8393 9.1126 L2.8393 8.8745 " />
<path d="M2.8393 8.8745 L2.7917 8.7793 " />
<path d="M2.7917 8.7793 L2.7440 8.7316 " />
<path d="M2.7440 8.7316 L2.6488 8.6840 " />
<path d="M2.6488 8.6840 L2.4583 8.6840 " />
<path d="M2.4583 8.6840 L2.3631 8.7316 " />
<path d="M2.3631 8.7316 L2.3155 8.7793 " />
<path d="M2.3155 8.7793 L2.2679 8.8745 " />
<path d="M3.4583 8.3031 L3.5536 8.3031 " />
<path d="M3.5536 8.3031 L3.6488 8.3507 " />
<path d="M3.6488 8.3507 L3.6964 8.3983 " />
<path d="M3.6964 8.3983 L3.7440 8.4935 " />
<path d="M3.7440 8.4935 L3.7917 8.6840 " />
<path d="M3.7917 8.6840 L3.7917 8.9221 " />
<path d="M3.7917 8.9221 L3.7440 9.1126 " />
<path d="M3.7440 9.1126 L3.6964 9.2078 " />
<path d="M3.6964 9.2078 L3.6488 9.2554 " />
<path d="M3.6488 9.2554 L3.5536 9.3031 " />
<path d="M3.5536 9.3031 L3.4583 9.3031 " />
<path d="M3.4583 9.3031 L3.3631 9.2554 " />
<path d="M3.3631 9.2554 L3.3155 9.2078 " />
<path d="M3.3155 9.2078 L3.2679 9.1126 " />
<path d="M3.2679 9.1126 L3.2202 8.9221 " />
<path d="M3.2202 8.9221 L3.2202 8.6840 " />
<path d="M3.2202 8.6840 L3.2679 8.4935 " />
<path d="M3.2679 8.4935 L3.3155 8.3983 " />
<path d="M3.3155 8.3983 L3.3631 8.3507 " />
<path d="M3.3631 8.3507 L3.4583 8.3031 " />
<path d="M4.1250 8.3031 L4.7440 8.3031 " />
<path d="M4.7440 8.3031 L4.4107 8.6840 " />
<path d="M4.4107 8.6840 L4.5536 8.6840 " />
<path d="M4.5536 8.6840 L4.6488 8.7316 " />
<path d="M4.6488 8.7316 L4.6964 8.7793 " />
<path d="M4.6964 8.7793 L4.7440 8.8745 " />
<path d="M4.7440 8.8745 L4.7440 9.1126 " />
<path d="M4.7440 9.1126 L4.6964 9.2078 " />
<path d="M4.6964 9.2078 L4.6488 9.2554 " />
<path d="M4.6488 9.2554 L4.5536 9.3031 " />
<path d="M4.5536 9.3031 L4.2679 9.3031 " />
<path d="M4.2679 9.3031 L4.1726 9.2554 " />
<path d="M4.1726 9.2554 L4.1250 9.2078 " />
</g></g>
<g style="fill:none;  stroke:#000000; stroke-width:0.0600; stroke-opacity:1;  stroke-linecap:round; stroke-linejoin:round;">
<circle cx="1.7298" cy="5.2482" r="0.0300" /> 
</g> 
</svg>