<?xml version="1.0" standalone="no"?>
 <!DOCTYPE svg PUBLIC "-//W3C//DTD SVG 1.1//EN" 
 "http://www.w3.org/Graphics/SVG/1.1/DTD/svg11.dtd"> 
<svg
  xmlns:svg="http://www.w3.org/2000/svg"
  xmlns="http://www.w3.org/2000/svg"
  xmlns:xlink="http://www.w3.org/1999/xlink"
  version="1.1"
  width="17.0434mm" height="24.8920mm" viewBox="0.0000 0.0000 17.0434 24.8920">
<title>SVG Image created as CONN-TH_1217754-1.svg date 2026/01/01 22:36:26 </title>
  <desc>Image generated by PCBNEW </desc>
<g style="fill:#000000; fill-opacity:1.0000;stroke:#000000; stroke-opacity:1.0000;
stroke-linecap:round; stroke-linejoin:round;"
 transform="translate(0 0) scale(1 1)">
<path style="fill:#000000; fill-opacity:1.0000; stroke:none;fill-rule:evenodd;"
d="M 7.4298,3.7482
9.6298,3.7482
9.6298,5.9482
7.4298,5.9482
Z" /> 
</g>
<g style="fill:#000000; fill-opacity:1.0000; stroke:none;">
<circle cx="8.5298" cy="9.9283" r="1.1000" /> 
<path style="fill:#000000; fill-opacity:1.0000; stroke:none;fill-rule:evenodd;"
d="M 7.4298,3.7482
9.6298,3.7482
9.6298,5.9482
7.4298,5.9482
Z" /> 
</g>
<g style="fill:#000000; fill-opacity:1.0000; stroke:none;">
<circle cx="8.5298" cy="9.9283" r="1.1000" /> 
<path style="fill:#000000; fill-opacity:1.0000; stroke:none;fill-rule:evenodd;"
d="M 7.4298,3.7482
9.6298,3.7482
9.6298,5.9482
7.4298,5.9482
Z" /> 
</g>
<g style="fill:#000000; fill-opacity:1.0000; stroke:none;">
<circle cx="8.5298" cy="9.9283" r="1.1000" /> 
<path style="fill:#000000; fill-opacity:1.0000; stroke:none;fill-rule:evenodd;"
d="M 7.4298,3.7482
9.6298,3.7482
9.6298,5.9482
7.4298,5.9482
Z" /> 
</g>
<g style="fill:#000000; fill-opacity:1.0000; stroke:none;">
<circle cx="8.5298" cy="9.9283" r="1.1000" /> 
<path style="fill:#000000; fill-opacity:1.0000; stroke:none;fill-rule:evenodd;"
d="M 7.4298,3.7482
9.6298,3.7482
9.6298,5.9482
7.4298,5.9482
Z" /> 
</g>
<g style="fill:#000000; fill-opacity:1.0000; stroke:none;">
<circle cx="8.5298" cy="9.9283" r="1.1000" /> 
<path style="fill:#000000; fill-opacity:1.0000; stroke:none;fill-rule:evenodd;"
d="M 7.4298,3.7482
9.6298,3.7482
9.6298,5.9482
7.4298,5.9482
Z" /> 
</g>
<g style="fill:#000000; fill-opacity:1.0000; stroke:none;">
<circle cx="8.5298" cy="9.9283" r="1.1000" /> 
<path style="fill:#000000; fill-opacity:1.0000; stroke:none;fill-rule:evenodd;"
d="M 7.4298,3.7482
9.6298,3.7482
9.6298,5.9482
7.4298,5.9482
Z" /> 
</g>
<g style="fill:#000000; fill-opacity:1.0000; stroke:none;">
<circle cx="8.5298" cy="9.9283" r="1.1000" /> 
<path style="fill:#000000; fill-opacity:1.0000; stroke:none;fill-rule:evenodd;"
d="M 7.4298,3.7482
9.6298,3.7482
9.6298,5.9482
7.4298,5.9482
Z" /> 
</g>
<g style="fill:#000000; fill-opacity:1.0000; stroke:none;">
<circle cx="8.5298" cy="9.9283" r="1.1000" /> 
<path style="fill:#000000; fill-opacity:1.0000; stroke:none;fill-rule:evenodd;"
d="M 7.4298,3.7482
9.6298,3.7482
9.6298,5.9482
7.4298,5.9482
Z" /> 
</g>
<g style="fill:#000000; fill-opacity:1.0000; stroke:none;">
<circle cx="8.5298" cy="9.9283" r="1.1000" /> 
<path style="fill:#000000; fill-opacity:1.0000; stroke:none;fill-rule:evenodd;"
d="M 7.4298,3.7482
9.6298,3.7482
9.6298,5.9482
7.4298,5.9482
Z" /> 
</g>
<g style="fill:#000000; fill-opacity:1.0000; stroke:none;">
<circle cx="8.5298" cy="9.9283" r="1.1000" /> 
<path style="fill:#000000; fill-opacity:1.0000; stroke:none;fill-rule:evenodd;"
d="M 7.4298,3.7482
9.6298,3.7482
9.6298,5.9482
7.4298,5.9482
Z" /> 
</g>
<g style="fill:#000000; fill-opacity:1.0000; stroke:none;">
<circle cx="8.5298" cy="9.9283" r="1.1000" /> 
<path style="fill:#000000; fill-opacity:1.0000; stroke:none;fill-rule:evenodd;"
d="M 7.4298,3.7482
9.6298,3.7482
9.6298,5.9482
7.4298,5.9482
Z" /> 
</g>
<g style="fill:#000000; fill-opacity:1.0000; stroke:none;">
<circle cx="8.5298" cy="9.9283" r="1.1000" /> 
<path style="fill:#000000; fill-opacity:1.0000; stroke:none;fill-rule:evenodd;"
d="M 7.4298,3.7482
9.6298,3.7482
9.6298,5.9482
7.4298,5.9482
Z" /> 
</g>
<g style="fill:#000000; fill-opacity:1.0000; stroke:none;">
<circle cx="8.5298" cy="9.9283" r="1.1000" /> 
<path style="fill:#000000; fill-opacity:1.0000; stroke:none;fill-rule:evenodd;"
d="M 7.4298,3.7482
9.6298,3.7482
9.6298,5.9482
7.4298,5.9482
Z" /> 
</g>
<g style="fill:#000000; fill-opacity:1.0000; stroke:none;">
<circle cx="8.5298" cy="9.9283" r="1.1000" /> 
<path style="fill:#000000; fill-opacity:1.0000; stroke:none;fill-rule:evenodd;"
d="M 7.4298,3.7482
9.6298,3.7482
9.6298,5.9482
7.4298,5.9482
Z" /> 
</g>
<g style="fill:#000000; fill-opacity:1.0000; stroke:none;">
<circle cx="8.5298" cy="9.9283" r="1.1000" /> 
<path style="fill:#000000; fill-opacity:1.0000; stroke:none;fill-rule:evenodd;"
d="M 7.4298,3.7482
9.6298,3.7482
9.6298,5.9482
7.4298,5.9482
Z" /> 
</g>
<g style="fill:#000000; fill-opacity:1.0000; stroke:none;">
<circle cx="8.5298" cy="9.9283" r="1.1000" /> 
<path style="fill:#000000; fill-opacity:1.0000; stroke:none;fill-rule:evenodd;"
d="M 7.4298,3.7482
9.6298,3.7482
9.6298,5.9482
7.4298,5.9482
Z" /> 
</g>
<g style="fill:#000000; fill-opacity:1.0000; stroke:none;">
<circle cx="8.5298" cy="9.9283" r="1.1000" /> 
<path style="fill:#000000; fill-opacity:1.0000; stroke:none;fill-rule:evenodd;"
d="M 7.4298,3.7482
9.6298,3.7482
9.6298,5.9482
7.4298,5.9482
Z" /> 
</g>
<g style="fill:#000000; fill-opacity:1.0000; stroke:none;">
<circle cx="8.5298" cy="9.9283" r="1.1000" /> 
<path style="fill:#000000; fill-opacity:1.0000; stroke:none;fill-rule:evenodd;"
d="M 7.4298,3.7482
9.6298,3.7482
9.6298,5.9482
7.4298,5.9482
Z" /> 
</g>
<g style="fill:#000000; fill-opacity:1.0000; stroke:none;">
<circle cx="8.5298" cy="9.9283" r="1.1000" /> 
<path style="fill:#000000; fill-opacity:1.0000; stroke:none;fill-rule:evenodd;"
d="M 7.4298,3.7482
9.6298,3.7482
9.6298,5.9482
7.4298,5.9482
Z" /> 
</g>
<g style="fill:#000000; fill-opacity:1.0000; stroke:none;">
<circle cx="8.5298" cy="9.9283" r="1.1000" /> 
<path style="fill:#000000; fill-opacity:1.0000; stroke:none;fill-rule:evenodd;"
d="M 7.4298,3.7482
9.6298,3.7482
9.6298,5.9482
7.4298,5.9482
Z" /> 
</g>
<g style="fill:#000000; fill-opacity:1.0000; stroke:none;">
<circle cx="8.5298" cy="9.9283" r="1.1000" /> 
<path style="fill:#000000; fill-opacity:1.0000; stroke:none;fill-rule:evenodd;"
d="M 7.4298,3.7482
9.6298,3.7482
9.6298,5.9482
7.4298,5.9482
Z" /> 
</g>
<g style="fill:#000000; fill-opacity:1.0000; stroke:none;">
<circle cx="8.5298" cy="9.9283" r="1.1000" /> 
<path style="fill:#000000; fill-opacity:1.0000; stroke:none;fill-rule:evenodd;"
d="M 7.4298,3.7482
9.6298,3.7482
9.6298,5.9482
7.4298,5.9482
Z" /> 
</g>
<g style="fill:#000000; fill-opacity:1.0000; stroke:none;">
<circle cx="8.5298" cy="9.9283" r="1.1000" /> 
<path style="fill:#000000; fill-opacity:1.0000; stroke:none;fill-rule:evenodd;"
d="M 7.4298,3.7482
9.6298,3.7482
9.6298,5.9482
7.4298,5.9482
Z" /> 
</g>
<g style="fill:#000000; fill-opacity:1.0000; stroke:none;">
<circle cx="8.5298" cy="9.9283" r="1.1000" /> 
<path style="fill:#000000; fill-opacity:1.0000; stroke:none;fill-rule:evenodd;"
d="M 7.4298,3.7482
9.6298,3.7482
9.6298,5.9482
7.4298,5.9482
Z" /> 
</g>
<g style="fill:#000000; fill-opacity:1.0000; stroke:none;">
<circle cx="8.5298" cy="9.9283" r="1.1000" /> 
<path style="fill:#000000; fill-opacity:1.0000; stroke:none;fill-rule:evenodd;"
d="M 7.4298,3.7482
9.6298,3.7482
9.6298,5.9482
7.4298,5.9482
Z" /> 
</g>
<g style="fill:#000000; fill-opacity:1.0000; stroke:none;">
<circle cx="8.5298" cy="9.9283" r="1.1000" /> 
<path style="fill:#000000; fill-opacity:1.0000; stroke:none;fill-rule:evenodd;"
d="M 7.4298,3.7482
9.6298,3.7482
9.6298,5.9482
7.4298,5.9482
Z" /> 
</g>
<g style="fill:#000000; fill-opacity:1.0000; stroke:none;">
<circle cx="8.5298" cy="9.9283" r="1.1000" /> 
<path style="fill:#000000; fill-opacity:1.0000; stroke:none;fill-rule:evenodd;"
d="M 7.4298,3.7482
9.6298,3.7482
9.6298,5.9482
7.4298,5.9482
Z" /> 
</g>
<g style="fill:#000000; fill-opacity:1.0000; stroke:none;">
<circle cx="8.5298" cy="9.9283" r="1.1000" /> 
<path style="fill:#000000; fill-opacity:1.0000; stroke:none;fill-rule:evenodd;"
d="M 7.4298,3.7482
9.6298,3.7482
9.6298,5.9482
7.4298,5.9482
Z" /> 
</g>
<g style="fill:#000000; fill-opacity:1.0000; stroke:none;">
<circle cx="8.5298" cy="9.9283" r="1.1000" /> 
<path style="fill:#000000; fill-opacity:1.0000; stroke:none;fill-rule:evenodd;"
d="M 7.4298,3.7482
9.6298,3.7482
9.6298,5.9482
7.4298,5.9482
Z" /> 
</g>
<g style="fill:#000000; fill-opacity:1.0000; stroke:none;">
<circle cx="8.5298" cy="9.9283" r="1.1000" /> 
<path style="fill:#000000; fill-opacity:1.0000; stroke:none;fill-rule:evenodd;"
d="M 7.4298,3.7482
9.6298,3.7482
9.6298,5.9482
7.4298,5.9482
Z" /> 
</g>
<g style="fill:#000000; fill-opacity:1.0000; stroke:none;">
<circle cx="8.5298" cy="9.9283" r="1.1000" /> 
<path style="fill:#000000; fill-opacity:1.0000; stroke:none;fill-rule:evenodd;"
d="M 7.4298,3.7482
9.6298,3.7482
9.6298,5.9482
7.4298,5.9482
Z" /> 
</g>
<g style="fill:#000000; fill-opacity:1.0000; stroke:none;">
<circle cx="8.5298" cy="9.9283" r="1.1000" /> 
<path style="fill:#000000; fill-opacity:1.0000; stroke:none;fill-rule:evenodd;"
d="M 7.4298,3.7482
9.6298,3.7482
9.6298,5.9482
7.4298,5.9482
Z" /> 
</g>
<g style="fill:#000000; fill-opacity:1.0000; stroke:none;">
<circle cx="8.5298" cy="9.9283" r="1.1000" /> 
<path style="fill:#000000; fill-opacity:1.0000; stroke:none;fill-rule:evenodd;"
d="M 7.4298,3.7482
9.6298,3.7482
9.6298,5.9482
7.4298,5.9482
Z" /> 
</g>
<g style="fill:#000000; fill-opacity:1.0000; stroke:none;">
<circle cx="8.5298" cy="9.9283" r="1.1000" /> 
</g>
<g style="fill:none; 
stroke:#000000; stroke-width:0.1500; stroke-opacity:1; 
stroke-linecap:round; stroke-linejoin:round;">
<text x="8.5298" y="1.3482"
textLength="4.5357" font-size="1.3333" lengthAdjust="spacingAndGlyphs"
text-anchor="middle" opacity="0" stroke-opacity="0">REF**</text>
<g class="stroked-text"><desc>REF**</desc>
<path d="M7.1964 1.3031
L6.8631 0.8269
" />
<path d="M6.6250 1.3031
L6.6250 0.3031
" />
<path d="M6.6250 0.3031
L7.0060 0.3031
" />
<path d="M7.0060 0.3031
L7.1012 0.3507
" />
<path d="M7.1012 0.3507
L7.1488 0.3983
" />
<path d="M7.1488 0.3983
L7.1964 0.4935
" />
<path d="M7.1964 0.4935
L7.1964 0.6364
" />
<path d="M7.1964 0.6364
L7.1488 0.7316
" />
<path d="M7.1488 0.7316
L7.1012 0.7793
" />
<path d="M7.1012 0.7793
L7.0060 0.8269
" />
<path d="M7.0060 0.8269
L6.6250 0.8269
" />
<path d="M7.6250 0.7793
L7.9583 0.7793
" />
<path d="M8.1012 1.3031
L7.6250 1.3031
" />
<path d="M7.6250 1.3031
L7.6250 0.3031
" />
<path d="M7.6250 0.3031
L8.1012 0.3031
" />
<path d="M8.8631 0.7793
L8.5298 0.7793
" />
<path d="M8.5298 1.3031
L8.5298 0.3031
" />
<path d="M8.5298 0.3031
L9.0060 0.3031
" />
<path d="M9.5298 0.3031
L9.5298 0.5412
" />
<path d="M9.2917 0.4459
L9.5298 0.5412
" />
<path d="M9.5298 0.5412
L9.7679 0.4459
" />
<path d="M9.3869 0.7316
L9.5298 0.5412
" />
<path d="M9.5298 0.5412
L9.6726 0.7316
" />
<path d="M10.2917 0.3031
L10.2917 0.5412
" />
<path d="M10.0536 0.4459
L10.2917 0.5412
" />
<path d="M10.2917 0.5412
L10.5298 0.4459
" />
<path d="M10.1488 0.7316
L10.2917 0.5412
" />
<path d="M10.2917 0.5412
L10.4345 0.7316
" />
</g></g>
<g style="fill:none; 
stroke:#000000; stroke-width:0.2500; stroke-opacity:1; 
stroke-linecap:round; stroke-linejoin:round;">
<path d="M8.1498 8.6482
L8.1498 6.1182
" />
<path d="M9.0398 11.1582
L9.0398 24.7782
" />
<path d="M9.0398 24.7782
L8.1498 24.7782
" />
<path d="M8.1498 24.7782
L8.1498 11.1982
" />
<path d="M9.0398 6.0782
L9.0398 8.6982
" />
</g>
<g style="fill:none; 
stroke:#000000; stroke-width:0.1500; stroke-opacity:1; 
stroke-linecap:round; stroke-linejoin:round;">
<text x="8.5298" y="14.4282"
textLength="17.0595" font-size="1.3333" lengthAdjust="spacingAndGlyphs"
text-anchor="middle" opacity="0" stroke-opacity="0">CONN-TH_1217754-1</text>
<g class="stroked-text"><desc>CONN-TH_1217754-1</desc>
<path d="M0.9345 14.2878
L0.8869 14.3354
" />
<path d="M0.8869 14.3354
L0.7440 14.3831
" />
<path d="M0.7440 14.3831
L0.6488 14.3831
" />
<path d="M0.6488 14.3831
L0.5060 14.3354
" />
<path d="M0.5060 14.3354
L0.4107 14.2402
" />
<path d="M0.4107 14.2402
L0.3631 14.1450
" />
<path d="M0.3631 14.1450
L0.3155 13.9545
" />
<path d="M0.3155 13.9545
L0.3155 13.8116
" />
<path d="M0.3155 13.8116
L0.3631 13.6212
" />
<path d="M0.3631 13.6212
L0.4107 13.5259
" />
<path d="M0.4107 13.5259
L0.5060 13.4307
" />
<path d="M0.5060 13.4307
L0.6488 13.3831
" />
<path d="M0.6488 13.3831
L0.7440 13.3831
" />
<path d="M0.7440 13.3831
L0.8869 13.4307
" />
<path d="M0.8869 13.4307
L0.9345 13.4783
" />
<path d="M1.5536 13.3831
L1.7440 13.3831
" />
<path d="M1.7440 13.3831
L1.8393 13.4307
" />
<path d="M1.8393 13.4307
L1.9345 13.5259
" />
<path d="M1.9345 13.5259
L1.9821 13.7164
" />
<path d="M1.9821 13.7164
L1.9821 14.0497
" />
<path d="M1.9821 14.0497
L1.9345 14.2402
" />
<path d="M1.9345 14.2402
L1.8393 14.3354
" />
<path d="M1.8393 14.3354
L1.7440 14.3831
" />
<path d="M1.7440 14.3831
L1.5536 14.3831
" />
<path d="M1.5536 14.3831
L1.4583 14.3354
" />
<path d="M1.4583 14.3354
L1.3631 14.2402
" />
<path d="M1.3631 14.2402
L1.3155 14.0497
" />
<path d="M1.3155 14.0497
L1.3155 13.7164
" />
<path d="M1.3155 13.7164
L1.3631 13.5259
" />
<path d="M1.3631 13.5259
L1.4583 13.4307
" />
<path d="M1.4583 13.4307
L1.5536 13.3831
" />
<path d="M2.4107 14.3831
L2.4107 13.3831
" />
<path d="M2.4107 13.3831
L2.9821 14.3831
" />
<path d="M2.9821 14.3831
L2.9821 13.3831
" />
<path d="M3.4583 14.3831
L3.4583 13.3831
" />
<path d="M3.4583 13.3831
L4.0298 14.3831
" />
<path d="M4.0298 14.3831
L4.0298 13.3831
" />
<path d="M4.5060 14.0021
L5.2679 14.0021
" />
<path d="M5.6012 13.3831
L6.1726 13.3831
" />
<path d="M5.8869 14.3831
L5.8869 13.3831
" />
<path d="M6.5060 14.3831
L6.5060 13.3831
" />
<path d="M6.5060 13.8593
L7.0774 13.8593
" />
<path d="M7.0774 14.3831
L7.0774 13.3831
" />
<path d="M7.3155 14.4783
L8.0774 14.4783
" />
<path d="M8.8393 14.3831
L8.2679 14.3831
" />
<path d="M8.5536 14.3831
L8.5536 13.3831
" />
<path d="M8.5536 13.3831
L8.4583 13.5259
" />
<path d="M8.4583 13.5259
L8.3631 13.6212
" />
<path d="M8.3631 13.6212
L8.2679 13.6688
" />
<path d="M9.2202 13.4783
L9.2679 13.4307
" />
<path d="M9.2679 13.4307
L9.3631 13.3831
" />
<path d="M9.3631 13.3831
L9.6012 13.3831
" />
<path d="M9.6012 13.3831
L9.6964 13.4307
" />
<path d="M9.6964 13.4307
L9.7440 13.4783
" />
<path d="M9.7440 13.4783
L9.7917 13.5735
" />
<path d="M9.7917 13.5735
L9.7917 13.6688
" />
<path d="M9.7917 13.6688
L9.7440 13.8116
" />
<path d="M9.7440 13.8116
L9.1726 14.3831
" />
<path d="M9.1726 14.3831
L9.7917 14.3831
" />
<path d="M10.7440 14.3831
L10.1726 14.3831
" />
<path d="M10.4583 14.3831
L10.4583 13.3831
" />
<path d="M10.4583 13.3831
L10.3631 13.5259
" />
<path d="M10.3631 13.5259
L10.2679 13.6212
" />
<path d="M10.2679 13.6212
L10.1726 13.6688
" />
<path d="M11.0774 13.3831
L11.7440 13.3831
" />
<path d="M11.7440 13.3831
L11.3155 14.3831
" />
<path d="M12.0298 13.3831
L12.6964 13.3831
" />
<path d="M12.6964 13.3831
L12.2679 14.3831
" />
<path d="M13.5536 13.3831
L13.0774 13.3831
" />
<path d="M13.0774 13.3831
L13.0298 13.8593
" />
<path d="M13.0298 13.8593
L13.0774 13.8116
" />
<path d="M13.0774 13.8116
L13.1726 13.7640
" />
<path d="M13.1726 13.7640
L13.4107 13.7640
" />
<path d="M13.4107 13.7640
L13.5060 13.8116
" />
<path d="M13.5060 13.8116
L13.5536 13.8593
" />
<path d="M13.5536 13.8593
L13.6012 13.9545
" />
<path d="M13.6012 13.9545
L13.6012 14.1926
" />
<path d="M13.6012 14.1926
L13.5536 14.2878
" />
<path d="M13.5536 14.2878
L13.5060 14.3354
" />
<path d="M13.5060 14.3354
L13.4107 14.3831
" />
<path d="M13.4107 14.3831
L13.1726 14.3831
" />
<path d="M13.1726 14.3831
L13.0774 14.3354
" />
<path d="M13.0774 14.3354
L13.0298 14.2878
" />
<path d="M14.4583 13.7164
L14.4583 14.3831
" />
<path d="M14.2202 13.3354
L13.9821 14.0497
" />
<path d="M13.9821 14.0497
L14.6012 14.0497
" />
<path d="M14.9821 14.0021
L15.7440 14.0021
" />
<path d="M16.7440 14.3831
L16.1726 14.3831
" />
<path d="M16.4583 14.3831
L16.4583 13.3831
" />
<path d="M16.4583 13.3831
L16.3631 13.5259
" />
<path d="M16.3631 13.5259
L16.2679 13.6212
" />
<path d="M16.2679 13.6212
L16.1726 13.6688
" />
</g><text x="8.5298" y="7.8882"
textLength="4.5357" font-size="1.3333" lengthAdjust="spacingAndGlyphs"
text-anchor="middle" opacity="0" stroke-opacity="0">REF**</text>
<g class="stroked-text"><desc>REF**</desc>
<path d="M7.1964 7.8431
L6.8631 7.3669
" />
<path d="M6.6250 7.8431
L6.6250 6.8431
" />
<path d="M6.6250 6.8431
L7.0060 6.8431
" />
<path d="M7.0060 6.8431
L7.1012 6.8907
" />
<path d="M7.1012 6.8907
L7.1488 6.9383
" />
<path d="M7.1488 6.9383
L7.1964 7.0335
" />
<path d="M7.1964 7.0335
L7.1964 7.1764
" />
<path d="M7.1964 7.1764
L7.1488 7.2716
" />
<path d="M7.1488 7.2716
L7.1012 7.3193
" />
<path d="M7.1012 7.3193
L7.0060 7.3669
" />
<path d="M7.0060 7.3669
L6.6250 7.3669
" />
<path d="M7.6250 7.3193
L7.9583 7.3193
" />
<path d="M8.1012 7.8431
L7.6250 7.8431
" />
<path d="M7.6250 7.8431
L7.6250 6.8431
" />
<path d="M7.6250 6.8431
L8.1012 6.8431
" />
<path d="M8.8631 7.3193
L8.5298 7.3193
" />
<path d="M8.5298 7.8431
L8.5298 6.8431
" />
<path d="M8.5298 6.8431
L9.0060 6.8431
" />
<path d="M9.5298 6.8431
L9.5298 7.0812
" />
<path d="M9.2917 6.9859
L9.5298 7.0812
" />
<path d="M9.5298 7.0812
L9.7679 6.9859
" />
<path d="M9.3869 7.2716
L9.5298 7.0812
" />
<path d="M9.5298 7.0812
L9.6726 7.2716
" />
<path d="M10.2917 6.8431
L10.2917 7.0812
" />
<path d="M10.0536 6.9859
L10.2917 7.0812
" />
<path d="M10.2917 7.0812
L10.5298 6.9859
" />
<path d="M10.1488 7.2716
L10.2917 7.0812
" />
<path d="M10.2917 7.0812
L10.4345 7.2716
" />
</g></g>
<g style="fill:none; 
stroke:#000000; stroke-width:0.0600; stroke-opacity:1; 
stroke-linecap:round; stroke-linejoin:round;">
<circle cx="7.4298" cy="3.7482" r="0.0300" /> 
</g>
<g style="fill:none; 
stroke:#000000; stroke-width:0.6000; stroke-opacity:1; 
stroke-linecap:round; stroke-linejoin:round;">
<circle cx="8.5298" cy="4.8483" r="0.3000" /> 
<circle cx="8.5298" cy="9.9283" r="0.3000" /> 
</g> 
</svg>
