<?xml version='1.0' encoding='utf-8'?>
<svg xmlns="http://www.w3.org/2000/svg" version="1.1" width="24.8158mm" height="14.4780mm" viewBox="0.0000 0.0000 24.8158 14.4780">
<title>SVG Image created as DC-IN-TH_DC550250-0366-2H.svg date 2026/01/09 08:17:46 </title>
  <desc>Image generated by PCBNEW </desc>
<g style="fill:#000000; fill-opacity:1.0000;stroke:#000000; stroke-opacity:1.0000; stroke-linecap:round; stroke-linejoin:round;" transform="translate(0 0) scale(1 1)">
</g>
<g style="fill:none;  stroke:#000000; stroke-width:1.6000; stroke-opacity:1;  stroke-linecap:round; stroke-linejoin:round;">
<path d="M15.5407 3.7482 L15.5407 5.9482 " />
</g>
<g style="fill:none;  stroke:#000000; stroke-width:1.4000; stroke-opacity:1;  stroke-linecap:round; stroke-linejoin:round;">
<path d="M9.2907 3.6482 L9.2907 6.0482 " />
<path d="M11.3407 9.6482 L13.6407 9.6482 " />
</g>
<g style="fill:none;  stroke:#000000; stroke-width:1.6000; stroke-opacity:1;  stroke-linecap:round; stroke-linejoin:round;">
<path d="M15.5407 3.7482 L15.5407 5.9482 " />
</g>
<g style="fill:none;  stroke:#000000; stroke-width:1.4000; stroke-opacity:1;  stroke-linecap:round; stroke-linejoin:round;">
<path d="M9.2907 3.6482 L9.2907 6.0482 " />
<path d="M11.3407 9.6482 L13.6407 9.6482 " />
</g>
<g style="fill:none;  stroke:#000000; stroke-width:1.6000; stroke-opacity:1;  stroke-linecap:round; stroke-linejoin:round;">
<path d="M15.5407 3.7482 L15.5407 5.9482 " />
</g>
<g style="fill:none;  stroke:#000000; stroke-width:1.4000; stroke-opacity:1;  stroke-linecap:round; stroke-linejoin:round;">
<path d="M9.2907 3.6482 L9.2907 6.0482 " />
<path d="M11.3407 9.6482 L13.6407 9.6482 " />
</g>
<g style="fill:none;  stroke:#000000; stroke-width:1.6000; stroke-opacity:1;  stroke-linecap:round; stroke-linejoin:round;">
<path d="M15.5407 3.7482 L15.5407 5.9482 " />
</g>
<g style="fill:none;  stroke:#000000; stroke-width:1.4000; stroke-opacity:1;  stroke-linecap:round; stroke-linejoin:round;">
<path d="M9.2907 3.6482 L9.2907 6.0482 " />
<path d="M11.3407 9.6482 L13.6407 9.6482 " />
</g>
<g style="fill:none;  stroke:#000000; stroke-width:1.6000; stroke-opacity:1;  stroke-linecap:round; stroke-linejoin:round;">
<path d="M15.5407 3.7482 L15.5407 5.9482 " />
</g>
<g style="fill:none;  stroke:#000000; stroke-width:1.4000; stroke-opacity:1;  stroke-linecap:round; stroke-linejoin:round;">
<path d="M9.2907 3.6482 L9.2907 6.0482 " />
<path d="M11.3407 9.6482 L13.6407 9.6482 " />
</g>
<g style="fill:none;  stroke:#000000; stroke-width:1.6000; stroke-opacity:1;  stroke-linecap:round; stroke-linejoin:round;">
<path d="M15.5407 3.7482 L15.5407 5.9482 " />
</g>
<g style="fill:none;  stroke:#000000; stroke-width:1.4000; stroke-opacity:1;  stroke-linecap:round; stroke-linejoin:round;">
<path d="M9.2907 3.6482 L9.2907 6.0482 " />
<path d="M11.3407 9.6482 L13.6407 9.6482 " />
</g>
<g style="fill:none;  stroke:#000000; stroke-width:1.6000; stroke-opacity:1;  stroke-linecap:round; stroke-linejoin:round;">
<path d="M15.5407 3.7482 L15.5407 5.9482 " />
</g>
<g style="fill:none;  stroke:#000000; stroke-width:1.4000; stroke-opacity:1;  stroke-linecap:round; stroke-linejoin:round;">
<path d="M9.2907 3.6482 L9.2907 6.0482 " />
<path d="M11.3407 9.6482 L13.6407 9.6482 " />
</g>
<g style="fill:none;  stroke:#000000; stroke-width:1.6000; stroke-opacity:1;  stroke-linecap:round; stroke-linejoin:round;">
<path d="M15.5407 3.7482 L15.5407 5.9482 " />
</g>
<g style="fill:none;  stroke:#000000; stroke-width:1.4000; stroke-opacity:1;  stroke-linecap:round; stroke-linejoin:round;">
<path d="M9.2907 3.6482 L9.2907 6.0482 " />
<path d="M11.3407 9.6482 L13.6407 9.6482 " />
</g>
<g style="fill:none;  stroke:#000000; stroke-width:1.6000; stroke-opacity:1;  stroke-linecap:round; stroke-linejoin:round;">
<path d="M15.5407 3.7482 L15.5407 5.9482 " />
</g>
<g style="fill:none;  stroke:#000000; stroke-width:1.4000; stroke-opacity:1;  stroke-linecap:round; stroke-linejoin:round;">
<path d="M9.2907 3.6482 L9.2907 6.0482 " />
<path d="M11.3407 9.6482 L13.6407 9.6482 " />
</g>
<g style="fill:none;  stroke:#000000; stroke-width:1.6000; stroke-opacity:1;  stroke-linecap:round; stroke-linejoin:round;">
<path d="M15.5407 3.7482 L15.5407 5.9482 " />
</g>
<g style="fill:none;  stroke:#000000; stroke-width:1.4000; stroke-opacity:1;  stroke-linecap:round; stroke-linejoin:round;">
<path d="M9.2907 3.6482 L9.2907 6.0482 " />
<path d="M11.3407 9.6482 L13.6407 9.6482 " />
</g>
<g style="fill:none;  stroke:#000000; stroke-width:1.6000; stroke-opacity:1;  stroke-linecap:round; stroke-linejoin:round;">
<path d="M15.5407 3.7482 L15.5407 5.9482 " />
</g>
<g style="fill:none;  stroke:#000000; stroke-width:1.4000; stroke-opacity:1;  stroke-linecap:round; stroke-linejoin:round;">
<path d="M9.2907 3.6482 L9.2907 6.0482 " />
<path d="M11.3407 9.6482 L13.6407 9.6482 " />
</g>
<g style="fill:none;  stroke:#000000; stroke-width:1.6000; stroke-opacity:1;  stroke-linecap:round; stroke-linejoin:round;">
<path d="M15.5407 3.7482 L15.5407 5.9482 " />
</g>
<g style="fill:none;  stroke:#000000; stroke-width:1.4000; stroke-opacity:1;  stroke-linecap:round; stroke-linejoin:round;">
<path d="M9.2907 3.6482 L9.2907 6.0482 " />
<path d="M11.3407 9.6482 L13.6407 9.6482 " />
</g>
<g style="fill:none;  stroke:#000000; stroke-width:1.6000; stroke-opacity:1;  stroke-linecap:round; stroke-linejoin:round;">
<path d="M15.5407 3.7482 L15.5407 5.9482 " />
</g>
<g style="fill:none;  stroke:#000000; stroke-width:1.4000; stroke-opacity:1;  stroke-linecap:round; stroke-linejoin:round;">
<path d="M9.2907 3.6482 L9.2907 6.0482 " />
<path d="M11.3407 9.6482 L13.6407 9.6482 " />
</g>
<g style="fill:none;  stroke:#000000; stroke-width:1.6000; stroke-opacity:1;  stroke-linecap:round; stroke-linejoin:round;">
<path d="M15.5407 3.7482 L15.5407 5.9482 " />
</g>
<g style="fill:none;  stroke:#000000; stroke-width:1.4000; stroke-opacity:1;  stroke-linecap:round; stroke-linejoin:round;">
<path d="M9.2907 3.6482 L9.2907 6.0482 " />
<path d="M11.3407 9.6482 L13.6407 9.6482 " />
</g>
<g style="fill:none;  stroke:#000000; stroke-width:1.6000; stroke-opacity:1;  stroke-linecap:round; stroke-linejoin:round;">
<path d="M15.5407 3.7482 L15.5407 5.9482 " />
</g>
<g style="fill:none;  stroke:#000000; stroke-width:1.4000; stroke-opacity:1;  stroke-linecap:round; stroke-linejoin:round;">
<path d="M9.2907 3.6482 L9.2907 6.0482 " />
<path d="M11.3407 9.6482 L13.6407 9.6482 " />
</g>
<g style="fill:none;  stroke:#000000; stroke-width:1.6000; stroke-opacity:1;  stroke-linecap:round; stroke-linejoin:round;">
<path d="M15.5407 3.7482 L15.5407 5.9482 " />
</g>
<g style="fill:none;  stroke:#000000; stroke-width:1.4000; stroke-opacity:1;  stroke-linecap:round; stroke-linejoin:round;">
<path d="M9.2907 3.6482 L9.2907 6.0482 " />
<path d="M11.3407 9.6482 L13.6407 9.6482 " />
</g>
<g style="fill:none;  stroke:#000000; stroke-width:1.6000; stroke-opacity:1;  stroke-linecap:round; stroke-linejoin:round;">
<path d="M15.5407 3.7482 L15.5407 5.9482 " />
</g>
<g style="fill:none;  stroke:#000000; stroke-width:1.4000; stroke-opacity:1;  stroke-linecap:round; stroke-linejoin:round;">
<path d="M9.2907 3.6482 L9.2907 6.0482 " />
<path d="M11.3407 9.6482 L13.6407 9.6482 " />
</g>
<g style="fill:none;  stroke:#000000; stroke-width:1.6000; stroke-opacity:1;  stroke-linecap:round; stroke-linejoin:round;">
<path d="M15.5407 3.7482 L15.5407 5.9482 " />
</g>
<g style="fill:none;  stroke:#000000; stroke-width:1.4000; stroke-opacity:1;  stroke-linecap:round; stroke-linejoin:round;">
<path d="M9.2907 3.6482 L9.2907 6.0482 " />
<path d="M11.3407 9.6482 L13.6407 9.6482 " />
</g>
<g style="fill:none;  stroke:#000000; stroke-width:1.6000; stroke-opacity:1;  stroke-linecap:round; stroke-linejoin:round;">
<path d="M15.5407 3.7482 L15.5407 5.9482 " />
</g>
<g style="fill:none;  stroke:#000000; stroke-width:1.4000; stroke-opacity:1;  stroke-linecap:round; stroke-linejoin:round;">
<path d="M9.2907 3.6482 L9.2907 6.0482 " />
<path d="M11.3407 9.6482 L13.6407 9.6482 " />
</g>
<g style="fill:none;  stroke:#000000; stroke-width:1.6000; stroke-opacity:1;  stroke-linecap:round; stroke-linejoin:round;">
<path d="M15.5407 3.7482 L15.5407 5.9482 " />
</g>
<g style="fill:none;  stroke:#000000; stroke-width:1.4000; stroke-opacity:1;  stroke-linecap:round; stroke-linejoin:round;">
<path d="M9.2907 3.6482 L9.2907 6.0482 " />
<path d="M11.3407 9.6482 L13.6407 9.6482 " />
</g>
<g style="fill:none;  stroke:#000000; stroke-width:1.6000; stroke-opacity:1;  stroke-linecap:round; stroke-linejoin:round;">
<path d="M15.5407 3.7482 L15.5407 5.9482 " />
</g>
<g style="fill:none;  stroke:#000000; stroke-width:1.4000; stroke-opacity:1;  stroke-linecap:round; stroke-linejoin:round;">
<path d="M9.2907 3.6482 L9.2907 6.0482 " />
<path d="M11.3407 9.6482 L13.6407 9.6482 " />
</g>
<g style="fill:none;  stroke:#000000; stroke-width:1.6000; stroke-opacity:1;  stroke-linecap:round; stroke-linejoin:round;">
<path d="M15.5407 3.7482 L15.5407 5.9482 " />
</g>
<g style="fill:none;  stroke:#000000; stroke-width:1.4000; stroke-opacity:1;  stroke-linecap:round; stroke-linejoin:round;">
<path d="M9.2907 3.6482 L9.2907 6.0482 " />
<path d="M11.3407 9.6482 L13.6407 9.6482 " />
</g>
<g style="fill:none;  stroke:#000000; stroke-width:1.6000; stroke-opacity:1;  stroke-linecap:round; stroke-linejoin:round;">
<path d="M15.5407 3.7482 L15.5407 5.9482 " />
</g>
<g style="fill:none;  stroke:#000000; stroke-width:1.4000; stroke-opacity:1;  stroke-linecap:round; stroke-linejoin:round;">
<path d="M9.2907 3.6482 L9.2907 6.0482 " />
<path d="M11.3407 9.6482 L13.6407 9.6482 " />
</g>
<g style="fill:none;  stroke:#000000; stroke-width:1.6000; stroke-opacity:1;  stroke-linecap:round; stroke-linejoin:round;">
<path d="M15.5407 3.7482 L15.5407 5.9482 " />
</g>
<g style="fill:none;  stroke:#000000; stroke-width:1.4000; stroke-opacity:1;  stroke-linecap:round; stroke-linejoin:round;">
<path d="M9.2907 3.6482 L9.2907 6.0482 " />
<path d="M11.3407 9.6482 L13.6407 9.6482 " />
</g>
<g style="fill:none;  stroke:#000000; stroke-width:1.6000; stroke-opacity:1;  stroke-linecap:round; stroke-linejoin:round;">
<path d="M15.5407 3.7482 L15.5407 5.9482 " />
</g>
<g style="fill:none;  stroke:#000000; stroke-width:1.4000; stroke-opacity:1;  stroke-linecap:round; stroke-linejoin:round;">
<path d="M9.2907 3.6482 L9.2907 6.0482 " />
<path d="M11.3407 9.6482 L13.6407 9.6482 " />
</g>
<g style="fill:none;  stroke:#000000; stroke-width:1.6000; stroke-opacity:1;  stroke-linecap:round; stroke-linejoin:round;">
<path d="M15.5407 3.7482 L15.5407 5.9482 " />
</g>
<g style="fill:none;  stroke:#000000; stroke-width:1.4000; stroke-opacity:1;  stroke-linecap:round; stroke-linejoin:round;">
<path d="M9.2907 3.6482 L9.2907 6.0482 " />
<path d="M11.3407 9.6482 L13.6407 9.6482 " />
</g>
<g style="fill:none;  stroke:#000000; stroke-width:1.6000; stroke-opacity:1;  stroke-linecap:round; stroke-linejoin:round;">
<path d="M15.5407 3.7482 L15.5407 5.9482 " />
</g>
<g style="fill:none;  stroke:#000000; stroke-width:1.4000; stroke-opacity:1;  stroke-linecap:round; stroke-linejoin:round;">
<path d="M9.2907 3.6482 L9.2907 6.0482 " />
<path d="M11.3407 9.6482 L13.6407 9.6482 " />
</g>
<g style="fill:none;  stroke:#000000; stroke-width:1.6000; stroke-opacity:1;  stroke-linecap:round; stroke-linejoin:round;">
<path d="M15.5407 3.7482 L15.5407 5.9482 " />
</g>
<g style="fill:none;  stroke:#000000; stroke-width:1.4000; stroke-opacity:1;  stroke-linecap:round; stroke-linejoin:round;">
<path d="M9.2907 3.6482 L9.2907 6.0482 " />
<path d="M11.3407 9.6482 L13.6407 9.6482 " />
</g>
<g style="fill:none;  stroke:#000000; stroke-width:1.6000; stroke-opacity:1;  stroke-linecap:round; stroke-linejoin:round;">
<path d="M15.5407 3.7482 L15.5407 5.9482 " />
</g>
<g style="fill:none;  stroke:#000000; stroke-width:1.4000; stroke-opacity:1;  stroke-linecap:round; stroke-linejoin:round;">
<path d="M9.2907 3.6482 L9.2907 6.0482 " />
<path d="M11.3407 9.6482 L13.6407 9.6482 " />
</g>
<g style="fill:none;  stroke:#000000; stroke-width:1.6000; stroke-opacity:1;  stroke-linecap:round; stroke-linejoin:round;">
<path d="M15.5407 3.7482 L15.5407 5.9482 " />
</g>
<g style="fill:none;  stroke:#000000; stroke-width:1.4000; stroke-opacity:1;  stroke-linecap:round; stroke-linejoin:round;">
<path d="M9.2907 3.6482 L9.2907 6.0482 " />
<path d="M11.3407 9.6482 L13.6407 9.6482 " />
</g>
<g style="fill:none;  stroke:#000000; stroke-width:1.6000; stroke-opacity:1;  stroke-linecap:round; stroke-linejoin:round;">
<path d="M15.5407 3.7482 L15.5407 5.9482 " />
</g>
<g style="fill:none;  stroke:#000000; stroke-width:1.4000; stroke-opacity:1;  stroke-linecap:round; stroke-linejoin:round;">
<path d="M9.2907 3.6482 L9.2907 6.0482 " />
<path d="M11.3407 9.6482 L13.6407 9.6482 " />
</g>
<g style="fill:none;  stroke:#000000; stroke-width:1.6000; stroke-opacity:1;  stroke-linecap:round; stroke-linejoin:round;">
<path d="M15.5407 3.7482 L15.5407 5.9482 " />
</g>
<g style="fill:none;  stroke:#000000; stroke-width:1.4000; stroke-opacity:1;  stroke-linecap:round; stroke-linejoin:round;">
<path d="M9.2907 3.6482 L9.2907 6.0482 " />
<path d="M11.3407 9.6482 L13.6407 9.6482 " />
</g>
<g style="fill:none;  stroke:#000000; stroke-width:1.6000; stroke-opacity:1;  stroke-linecap:round; stroke-linejoin:round;">
<path d="M15.5407 3.7482 L15.5407 5.9482 " />
</g>
<g style="fill:none;  stroke:#000000; stroke-width:1.4000; stroke-opacity:1;  stroke-linecap:round; stroke-linejoin:round;">
<path d="M9.2907 3.6482 L9.2907 6.0482 " />
<path d="M11.3407 9.6482 L13.6407 9.6482 " />
</g>
<g style="fill:none;  stroke:#000000; stroke-width:1.6000; stroke-opacity:1;  stroke-linecap:round; stroke-linejoin:round;">
<path d="M15.5407 3.7482 L15.5407 5.9482 " />
</g>
<g style="fill:none;  stroke:#000000; stroke-width:1.4000; stroke-opacity:1;  stroke-linecap:round; stroke-linejoin:round;">
<path d="M9.2907 3.6482 L9.2907 6.0482 " />
<path d="M11.3407 9.6482 L13.6407 9.6482 " />
</g>
<g style="fill:none;  stroke:#000000; stroke-width:0.1500; stroke-opacity:1;  stroke-linecap:round; stroke-linejoin:round;">
</g>
<g style="fill:none;  stroke:#000000; stroke-width:0.2500; stroke-opacity:1;  stroke-linecap:round; stroke-linejoin:round;">
<path d="M4.3507 2.3382 L16.2907 2.3382 " />
<path d="M4.3507 7.3882 L16.2907 7.3882 " />
<path d="M4.3507 0.3483 L4.3507 9.3483 " />
<path d="M10.4607 9.3483 L1.7907 9.3483 " />
<path d="M1.7907 9.3483 L1.7907 0.3483 " />
<path d="M16.2907 6.6582 L16.2907 9.3483 " />
<path d="M16.2907 9.3483 L14.5207 9.3483 " />
<path d="M1.7907 0.3483 L16.2907 0.3483 " />
<path d="M16.2907 0.3483 L16.2907 3.0382 " />
</g>
<g style="fill:none;  stroke:#000000; stroke-width:0.1500; stroke-opacity:1;  stroke-linecap:round; stroke-linejoin:round;">
<text x="12.4107" y="14.1482" textLength="24.8214" font-size="1.3333" lengthAdjust="spacingAndGlyphs" text-anchor="middle" opacity="0" stroke-opacity="0">DC-IN-TH_DC550250-0366-2H</text>
<g class="stroked-text"><desc>DC-IN-TH_DC550250-0366-2H</desc>
<path d="M0.3631 14.1031 L0.3631 13.1031 " />
<path d="M0.3631 13.1031 L0.6012 13.1031 " />
<path d="M0.6012 13.1031 L0.7440 13.1507 " />
<path d="M0.7440 13.1507 L0.8393 13.2459 " />
<path d="M0.8393 13.2459 L0.8869 13.3412 " />
<path d="M0.8869 13.3412 L0.9345 13.5316 " />
<path d="M0.9345 13.5316 L0.9345 13.6745 " />
<path d="M0.9345 13.6745 L0.8869 13.8650 " />
<path d="M0.8869 13.8650 L0.8393 13.9602 " />
<path d="M0.8393 13.9602 L0.7440 14.0554 " />
<path d="M0.7440 14.0554 L0.6012 14.1031 " />
<path d="M0.6012 14.1031 L0.3631 14.1031 " />
<path d="M1.9345 14.0078 L1.8869 14.0554 " />
<path d="M1.8869 14.0554 L1.7440 14.1031 " />
<path d="M1.7440 14.1031 L1.6488 14.1031 " />
<path d="M1.6488 14.1031 L1.5060 14.0554 " />
<path d="M1.5060 14.0554 L1.4107 13.9602 " />
<path d="M1.4107 13.9602 L1.3631 13.8650 " />
<path d="M1.3631 13.8650 L1.3155 13.6745 " />
<path d="M1.3155 13.6745 L1.3155 13.5316 " />
<path d="M1.3155 13.5316 L1.3631 13.3412 " />
<path d="M1.3631 13.3412 L1.4107 13.2459 " />
<path d="M1.4107 13.2459 L1.5060 13.1507 " />
<path d="M1.5060 13.1507 L1.6488 13.1031 " />
<path d="M1.6488 13.1031 L1.7440 13.1031 " />
<path d="M1.7440 13.1031 L1.8869 13.1507 " />
<path d="M1.8869 13.1507 L1.9345 13.1983 " />
<path d="M2.3631 13.7221 L3.1250 13.7221 " />
<path d="M3.6012 14.1031 L3.6012 13.1031 " />
<path d="M4.0774 14.1031 L4.0774 13.1031 " />
<path d="M4.0774 13.1031 L4.6488 14.1031 " />
<path d="M4.6488 14.1031 L4.6488 13.1031 " />
<path d="M5.1250 13.7221 L5.8869 13.7221 " />
<path d="M6.2202 13.1031 L6.7917 13.1031 " />
<path d="M6.5060 14.1031 L6.5060 13.1031 " />
<path d="M7.1250 14.1031 L7.1250 13.1031 " />
<path d="M7.1250 13.5793 L7.6964 13.5793 " />
<path d="M7.6964 14.1031 L7.6964 13.1031 " />
<path d="M7.9345 14.1983 L8.6964 14.1983 " />
<path d="M8.9345 14.1031 L8.9345 13.1031 " />
<path d="M8.9345 13.1031 L9.1726 13.1031 " />
<path d="M9.1726 13.1031 L9.3155 13.1507 " />
<path d="M9.3155 13.1507 L9.4107 13.2459 " />
<path d="M9.4107 13.2459 L9.4583 13.3412 " />
<path d="M9.4583 13.3412 L9.5060 13.5316 " />
<path d="M9.5060 13.5316 L9.5060 13.6745 " />
<path d="M9.5060 13.6745 L9.4583 13.8650 " />
<path d="M9.4583 13.8650 L9.4107 13.9602 " />
<path d="M9.4107 13.9602 L9.3155 14.0554 " />
<path d="M9.3155 14.0554 L9.1726 14.1031 " />
<path d="M9.1726 14.1031 L8.9345 14.1031 " />
<path d="M10.5060 14.0078 L10.4583 14.0554 " />
<path d="M10.4583 14.0554 L10.3155 14.1031 " />
<path d="M10.3155 14.1031 L10.2202 14.1031 " />
<path d="M10.2202 14.1031 L10.0774 14.0554 " />
<path d="M10.0774 14.0554 L9.9821 13.9602 " />
<path d="M9.9821 13.9602 L9.9345 13.8650 " />
<path d="M9.9345 13.8650 L9.8869 13.6745 " />
<path d="M9.8869 13.6745 L9.8869 13.5316 " />
<path d="M9.8869 13.5316 L9.9345 13.3412 " />
<path d="M9.9345 13.3412 L9.9821 13.2459 " />
<path d="M9.9821 13.2459 L10.0774 13.1507 " />
<path d="M10.0774 13.1507 L10.2202 13.1031 " />
<path d="M10.2202 13.1031 L10.3155 13.1031 " />
<path d="M10.3155 13.1031 L10.4583 13.1507 " />
<path d="M10.4583 13.1507 L10.5060 13.1983 " />
<path d="M11.4107 13.1031 L10.9345 13.1031 " />
<path d="M10.9345 13.1031 L10.8869 13.5793 " />
<path d="M10.8869 13.5793 L10.9345 13.5316 " />
<path d="M10.9345 13.5316 L11.0298 13.4840 " />
<path d="M11.0298 13.4840 L11.2679 13.4840 " />
<path d="M11.2679 13.4840 L11.3631 13.5316 " />
<path d="M11.3631 13.5316 L11.4107 13.5793 " />
<path d="M11.4107 13.5793 L11.4583 13.6745 " />
<path d="M11.4583 13.6745 L11.4583 13.9126 " />
<path d="M11.4583 13.9126 L11.4107 14.0078 " />
<path d="M11.4107 14.0078 L11.3631 14.0554 " />
<path d="M11.3631 14.0554 L11.2679 14.1031 " />
<path d="M11.2679 14.1031 L11.0298 14.1031 " />
<path d="M11.0298 14.1031 L10.9345 14.0554 " />
<path d="M10.9345 14.0554 L10.8869 14.0078 " />
<path d="M12.3631 13.1031 L11.8869 13.1031 " />
<path d="M11.8869 13.1031 L11.8393 13.5793 " />
<path d="M11.8393 13.5793 L11.8869 13.5316 " />
<path d="M11.8869 13.5316 L11.9821 13.4840 " />
<path d="M11.9821 13.4840 L12.2202 13.4840 " />
<path d="M12.2202 13.4840 L12.3155 13.5316 " />
<path d="M12.3155 13.5316 L12.3631 13.5793 " />
<path d="M12.3631 13.5793 L12.4107 13.6745 " />
<path d="M12.4107 13.6745 L12.4107 13.9126 " />
<path d="M12.4107 13.9126 L12.3631 14.0078 " />
<path d="M12.3631 14.0078 L12.3155 14.0554 " />
<path d="M12.3155 14.0554 L12.2202 14.1031 " />
<path d="M12.2202 14.1031 L11.9821 14.1031 " />
<path d="M11.9821 14.1031 L11.8869 14.0554 " />
<path d="M11.8869 14.0554 L11.8393 14.0078 " />
<path d="M13.0298 13.1031 L13.1250 13.1031 " />
<path d="M13.1250 13.1031 L13.2202 13.1507 " />
<path d="M13.2202 13.1507 L13.2679 13.1983 " />
<path d="M13.2679 13.1983 L13.3155 13.2935 " />
<path d="M13.3155 13.2935 L13.3631 13.4840 " />
<path d="M13.3631 13.4840 L13.3631 13.7221 " />
<path d="M13.3631 13.7221 L13.3155 13.9126 " />
<path d="M13.3155 13.9126 L13.2679 14.0078 " />
<path d="M13.2679 14.0078 L13.2202 14.0554 " />
<path d="M13.2202 14.0554 L13.1250 14.1031 " />
<path d="M13.1250 14.1031 L13.0298 14.1031 " />
<path d="M13.0298 14.1031 L12.9345 14.0554 " />
<path d="M12.9345 14.0554 L12.8869 14.0078 " />
<path d="M12.8869 14.0078 L12.8393 13.9126 " />
<path d="M12.8393 13.9126 L12.7917 13.7221 " />
<path d="M12.7917 13.7221 L12.7917 13.4840 " />
<path d="M12.7917 13.4840 L12.8393 13.2935 " />
<path d="M12.8393 13.2935 L12.8869 13.1983 " />
<path d="M12.8869 13.1983 L12.9345 13.1507 " />
<path d="M12.9345 13.1507 L13.0298 13.1031 " />
<path d="M13.7440 13.1983 L13.7917 13.1507 " />
<path d="M13.7917 13.1507 L13.8869 13.1031 " />
<path d="M13.8869 13.1031 L14.1250 13.1031 " />
<path d="M14.1250 13.1031 L14.2202 13.1507 " />
<path d="M14.2202 13.1507 L14.2679 13.1983 " />
<path d="M14.2679 13.1983 L14.3155 13.2935 " />
<path d="M14.3155 13.2935 L14.3155 13.3888 " />
<path d="M14.3155 13.3888 L14.2679 13.5316 " />
<path d="M14.2679 13.5316 L13.6964 14.1031 " />
<path d="M13.6964 14.1031 L14.3155 14.1031 " />
<path d="M15.2202 13.1031 L14.7440 13.1031 " />
<path d="M14.7440 13.1031 L14.6964 13.5793 " />
<path d="M14.6964 13.5793 L14.7440 13.5316 " />
<path d="M14.7440 13.5316 L14.8393 13.4840 " />
<path d="M14.8393 13.4840 L15.0774 13.4840 " />
<path d="M15.0774 13.4840 L15.1726 13.5316 " />
<path d="M15.1726 13.5316 L15.2202 13.5793 " />
<path d="M15.2202 13.5793 L15.2679 13.6745 " />
<path d="M15.2679 13.6745 L15.2679 13.9126 " />
<path d="M15.2679 13.9126 L15.2202 14.0078 " />
<path d="M15.2202 14.0078 L15.1726 14.0554 " />
<path d="M15.1726 14.0554 L15.0774 14.1031 " />
<path d="M15.0774 14.1031 L14.8393 14.1031 " />
<path d="M14.8393 14.1031 L14.7440 14.0554 " />
<path d="M14.7440 14.0554 L14.6964 14.0078 " />
<path d="M15.8869 13.1031 L15.9821 13.1031 " />
<path d="M15.9821 13.1031 L16.0774 13.1507 " />
<path d="M16.0774 13.1507 L16.1250 13.1983 " />
<path d="M16.1250 13.1983 L16.1726 13.2935 " />
<path d="M16.1726 13.2935 L16.2202 13.4840 " />
<path d="M16.2202 13.4840 L16.2202 13.7221 " />
<path d="M16.2202 13.7221 L16.1726 13.9126 " />
<path d="M16.1726 13.9126 L16.1250 14.0078 " />
<path d="M16.1250 14.0078 L16.0774 14.0554 " />
<path d="M16.0774 14.0554 L15.9821 14.1031 " />
<path d="M15.9821 14.1031 L15.8869 14.1031 " />
<path d="M15.8869 14.1031 L15.7917 14.0554 " />
<path d="M15.7917 14.0554 L15.7440 14.0078 " />
<path d="M15.7440 14.0078 L15.6964 13.9126 " />
<path d="M15.6964 13.9126 L15.6488 13.7221 " />
<path d="M15.6488 13.7221 L15.6488 13.4840 " />
<path d="M15.6488 13.4840 L15.6964 13.2935 " />
<path d="M15.6964 13.2935 L15.7440 13.1983 " />
<path d="M15.7440 13.1983 L15.7917 13.1507 " />
<path d="M15.7917 13.1507 L15.8869 13.1031 " />
<path d="M16.6488 13.7221 L17.4107 13.7221 " />
<path d="M18.0774 13.1031 L18.1726 13.1031 " />
<path d="M18.1726 13.1031 L18.2679 13.1507 " />
<path d="M18.2679 13.1507 L18.3155 13.1983 " />
<path d="M18.3155 13.1983 L18.3631 13.2935 " />
<path d="M18.3631 13.2935 L18.4107 13.4840 " />
<path d="M18.4107 13.4840 L18.4107 13.7221 " />
<path d="M18.4107 13.7221 L18.3631 13.9126 " />
<path d="M18.3631 13.9126 L18.3155 14.0078 " />
<path d="M18.3155 14.0078 L18.2679 14.0554 " />
<path d="M18.2679 14.0554 L18.1726 14.1031 " />
<path d="M18.1726 14.1031 L18.0774 14.1031 " />
<path d="M18.0774 14.1031 L17.9821 14.0554 " />
<path d="M17.9821 14.0554 L17.9345 14.0078 " />
<path d="M17.9345 14.0078 L17.8869 13.9126 " />
<path d="M17.8869 13.9126 L17.8393 13.7221 " />
<path d="M17.8393 13.7221 L17.8393 13.4840 " />
<path d="M17.8393 13.4840 L17.8869 13.2935 " />
<path d="M17.8869 13.2935 L17.9345 13.1983 " />
<path d="M17.9345 13.1983 L17.9821 13.1507 " />
<path d="M17.9821 13.1507 L18.0774 13.1031 " />
<path d="M18.7440 13.1031 L19.3631 13.1031 " />
<path d="M19.3631 13.1031 L19.0298 13.4840 " />
<path d="M19.0298 13.4840 L19.1726 13.4840 " />
<path d="M19.1726 13.4840 L19.2679 13.5316 " />
<path d="M19.2679 13.5316 L19.3155 13.5793 " />
<path d="M19.3155 13.5793 L19.3631 13.6745 " />
<path d="M19.3631 13.6745 L19.3631 13.9126 " />
<path d="M19.3631 13.9126 L19.3155 14.0078 " />
<path d="M19.3155 14.0078 L19.2679 14.0554 " />
<path d="M19.2679 14.0554 L19.1726 14.1031 " />
<path d="M19.1726 14.1031 L18.8869 14.1031 " />
<path d="M18.8869 14.1031 L18.7917 14.0554 " />
<path d="M18.7917 14.0554 L18.7440 14.0078 " />
<path d="M20.2202 13.1031 L20.0298 13.1031 " />
<path d="M20.0298 13.1031 L19.9345 13.1507 " />
<path d="M19.9345 13.1507 L19.8869 13.1983 " />
<path d="M19.8869 13.1983 L19.7917 13.3412 " />
<path d="M19.7917 13.3412 L19.7440 13.5316 " />
<path d="M19.7440 13.5316 L19.7440 13.9126 " />
<path d="M19.7440 13.9126 L19.7917 14.0078 " />
<path d="M19.7917 14.0078 L19.8393 14.0554 " />
<path d="M19.8393 14.0554 L19.9345 14.1031 " />
<path d="M19.9345 14.1031 L20.1250 14.1031 " />
<path d="M20.1250 14.1031 L20.2202 14.0554 " />
<path d="M20.2202 14.0554 L20.2679 14.0078 " />
<path d="M20.2679 14.0078 L20.3155 13.9126 " />
<path d="M20.3155 13.9126 L20.3155 13.6745 " />
<path d="M20.3155 13.6745 L20.2679 13.5793 " />
<path d="M20.2679 13.5793 L20.2202 13.5316 " />
<path d="M20.2202 13.5316 L20.1250 13.4840 " />
<path d="M20.1250 13.4840 L19.9345 13.4840 " />
<path d="M19.9345 13.4840 L19.8393 13.5316 " />
<path d="M19.8393 13.5316 L19.7917 13.5793 " />
<path d="M19.7917 13.5793 L19.7440 13.6745 " />
<path d="M21.1726 13.1031 L20.9821 13.1031 " />
<path d="M20.9821 13.1031 L20.8869 13.1507 " />
<path d="M20.8869 13.1507 L20.8393 13.1983 " />
<path d="M20.8393 13.1983 L20.7440 13.3412 " />
<path d="M20.7440 13.3412 L20.6964 13.5316 " />
<path d="M20.6964 13.5316 L20.6964 13.9126 " />
<path d="M20.6964 13.9126 L20.7440 14.0078 " />
<path d="M20.7440 14.0078 L20.7917 14.0554 " />
<path d="M20.7917 14.0554 L20.8869 14.1031 " />
<path d="M20.8869 14.1031 L21.0774 14.1031 " />
<path d="M21.0774 14.1031 L21.1726 14.0554 " />
<path d="M21.1726 14.0554 L21.2202 14.0078 " />
<path d="M21.2202 14.0078 L21.2679 13.9126 " />
<path d="M21.2679 13.9126 L21.2679 13.6745 " />
<path d="M21.2679 13.6745 L21.2202 13.5793 " />
<path d="M21.2202 13.5793 L21.1726 13.5316 " />
<path d="M21.1726 13.5316 L21.0774 13.4840 " />
<path d="M21.0774 13.4840 L20.8869 13.4840 " />
<path d="M20.8869 13.4840 L20.7917 13.5316 " />
<path d="M20.7917 13.5316 L20.7440 13.5793 " />
<path d="M20.7440 13.5793 L20.6964 13.6745 " />
<path d="M21.6964 13.7221 L22.4583 13.7221 " />
<path d="M22.8869 13.1983 L22.9345 13.1507 " />
<path d="M22.9345 13.1507 L23.0298 13.1031 " />
<path d="M23.0298 13.1031 L23.2679 13.1031 " />
<path d="M23.2679 13.1031 L23.3631 13.1507 " />
<path d="M23.3631 13.1507 L23.4107 13.1983 " />
<path d="M23.4107 13.1983 L23.4583 13.2935 " />
<path d="M23.4583 13.2935 L23.4583 13.3888 " />
<path d="M23.4583 13.3888 L23.4107 13.5316 " />
<path d="M23.4107 13.5316 L22.8393 14.1031 " />
<path d="M22.8393 14.1031 L23.4583 14.1031 " />
<path d="M23.8869 14.1031 L23.8869 13.1031 " />
<path d="M23.8869 13.5793 L24.4583 13.5793 " />
<path d="M24.4583 14.1031 L24.4583 13.1031 " />
</g></g>
<g style="fill:none;  stroke:#000000; stroke-width:0.0600; stroke-opacity:1;  stroke-linecap:round; stroke-linejoin:round;">
<circle cx="16.2907" cy="0.3483" r="0.0300" /> 
</g> 
</svg>