<?xml version="1.0" standalone="no"?>
 <!DOCTYPE svg PUBLIC "-//W3C//DTD SVG 1.1//EN" 
 "http://www.w3.org/Graphics/SVG/1.1/DTD/svg11.dtd"> 
<svg
  xmlns:svg="http://www.w3.org/2000/svg"
  xmlns="http://www.w3.org/2000/svg"
  xmlns:xlink="http://www.w3.org/1999/xlink"
  version="1.1"
  width="5.4864mm" height="9.6774mm" viewBox="0.0000 0.0000 5.4864 9.6774">
<title>SVG Image created as F1210.svg date 2026/01/01 22:36:26 </title>
  <desc>Image generated by PCBNEW </desc>
<g style="fill:#000000; fill-opacity:1.0000;stroke:#000000; stroke-opacity:1.0000;
stroke-linecap:round; stroke-linejoin:round;"
 transform="translate(0 0) scale(1 1)">
<path style="fill:#000000; fill-opacity:1.0000; stroke:none;fill-rule:evenodd;"
d="M 3.6000,6.2382
3.6000,3.4583
5.0900,3.4583
5.0900,6.2382
Z" /> 
<path style="fill:#000000; fill-opacity:1.0000; stroke:none;fill-rule:evenodd;"
d="M 0.4000,6.2382
0.4000,3.4583
1.8900,3.4583
1.8900,6.2382
Z" /> 
<path style="fill:#000000; fill-opacity:1.0000; stroke:none;fill-rule:evenodd;"
d="M 3.6000,6.2382
3.6000,3.4583
5.0900,3.4583
5.0900,6.2382
Z" /> 
<path style="fill:#000000; fill-opacity:1.0000; stroke:none;fill-rule:evenodd;"
d="M 0.4000,6.2382
0.4000,3.4583
1.8900,3.4583
1.8900,6.2382
Z" /> 
<path style="fill:#000000; fill-opacity:1.0000; stroke:none;fill-rule:evenodd;"
d="M 3.6000,6.2382
3.6000,3.4583
5.0900,3.4583
5.0900,6.2382
Z" /> 
<path style="fill:#000000; fill-opacity:1.0000; stroke:none;fill-rule:evenodd;"
d="M 0.4000,6.2382
0.4000,3.4583
1.8900,3.4583
1.8900,6.2382
Z" /> 
</g>
<g style="fill:none; 
stroke:#000000; stroke-width:0.1500; stroke-opacity:1; 
stroke-linecap:round; stroke-linejoin:round;">
<text x="2.7450" y="1.3482"
textLength="4.5357" font-size="1.3333" lengthAdjust="spacingAndGlyphs"
text-anchor="middle" opacity="0" stroke-opacity="0">REF**</text>
<g class="stroked-text"><desc>REF**</desc>
<path d="M1.4117 1.3031
L1.0783 0.8269
" />
<path d="M0.8402 1.3031
L0.8402 0.3031
" />
<path d="M0.8402 0.3031
L1.2212 0.3031
" />
<path d="M1.2212 0.3031
L1.3164 0.3507
" />
<path d="M1.3164 0.3507
L1.3640 0.3983
" />
<path d="M1.3640 0.3983
L1.4117 0.4935
" />
<path d="M1.4117 0.4935
L1.4117 0.6364
" />
<path d="M1.4117 0.6364
L1.3640 0.7316
" />
<path d="M1.3640 0.7316
L1.3164 0.7793
" />
<path d="M1.3164 0.7793
L1.2212 0.8269
" />
<path d="M1.2212 0.8269
L0.8402 0.8269
" />
<path d="M1.8402 0.7793
L2.1736 0.7793
" />
<path d="M2.3164 1.3031
L1.8402 1.3031
" />
<path d="M1.8402 1.3031
L1.8402 0.3031
" />
<path d="M1.8402 0.3031
L2.3164 0.3031
" />
<path d="M3.0783 0.7793
L2.7450 0.7793
" />
<path d="M2.7450 1.3031
L2.7450 0.3031
" />
<path d="M2.7450 0.3031
L3.2212 0.3031
" />
<path d="M3.7450 0.3031
L3.7450 0.5412
" />
<path d="M3.5069 0.4459
L3.7450 0.5412
" />
<path d="M3.7450 0.5412
L3.9831 0.4459
" />
<path d="M3.6021 0.7316
L3.7450 0.5412
" />
<path d="M3.7450 0.5412
L3.8879 0.7316
" />
<path d="M4.5069 0.3031
L4.5069 0.5412
" />
<path d="M4.2688 0.4459
L4.5069 0.5412
" />
<path d="M4.5069 0.5412
L4.7450 0.4459
" />
<path d="M4.3640 0.7316
L4.5069 0.5412
" />
<path d="M4.5069 0.5412
L4.6498 0.7316
" />
</g><path d="M0.0750 3.4482
L0.0750 6.2482
" />
<path d="M5.4150 3.4482
L5.4150 6.2482
" />
<path d="M3.6350 6.4982
L5.0350 6.4982
" />
<path d="M5.0350 3.1982
L3.6450 3.1982
" />
<path d="M1.8550 6.4982
L0.4550 6.4982
" />
<path d="M0.4550 3.1982
L1.8450 3.1982
" />
<path d="M2.7450 4.4682 A0.1900 0.1900 0.0 0 0 2.7450 4.8483" />
<path d="M2.7450 5.2283 A0.1900 0.1900 0.0 0 0 2.7450 4.8482" />
<text x="2.7450" y="9.3483"
textLength="4.9167" font-size="1.3333" lengthAdjust="spacingAndGlyphs"
text-anchor="middle" opacity="0" stroke-opacity="0">F1210</text>
<g class="stroked-text"><desc>F1210</desc>
<path d="M0.9831 8.7793
L0.6498 8.7793
" />
<path d="M0.6498 9.3031
L0.6498 8.3031
" />
<path d="M0.6498 8.3031
L1.1260 8.3031
" />
<path d="M2.0307 9.3031
L1.4593 9.3031
" />
<path d="M1.7450 9.3031
L1.7450 8.3031
" />
<path d="M1.7450 8.3031
L1.6498 8.4459
" />
<path d="M1.6498 8.4459
L1.5545 8.5412
" />
<path d="M1.5545 8.5412
L1.4593 8.5888
" />
<path d="M2.4117 8.3983
L2.4593 8.3507
" />
<path d="M2.4593 8.3507
L2.5545 8.3031
" />
<path d="M2.5545 8.3031
L2.7926 8.3031
" />
<path d="M2.7926 8.3031
L2.8879 8.3507
" />
<path d="M2.8879 8.3507
L2.9355 8.3983
" />
<path d="M2.9355 8.3983
L2.9831 8.4935
" />
<path d="M2.9831 8.4935
L2.9831 8.5888
" />
<path d="M2.9831 8.5888
L2.9355 8.7316
" />
<path d="M2.9355 8.7316
L2.3640 9.3031
" />
<path d="M2.3640 9.3031
L2.9831 9.3031
" />
<path d="M3.9355 9.3031
L3.3640 9.3031
" />
<path d="M3.6498 9.3031
L3.6498 8.3031
" />
<path d="M3.6498 8.3031
L3.5545 8.4459
" />
<path d="M3.5545 8.4459
L3.4593 8.5412
" />
<path d="M3.4593 8.5412
L3.3640 8.5888
" />
<path d="M4.5545 8.3031
L4.6498 8.3031
" />
<path d="M4.6498 8.3031
L4.7450 8.3507
" />
<path d="M4.7450 8.3507
L4.7926 8.3983
" />
<path d="M4.7926 8.3983
L4.8402 8.4935
" />
<path d="M4.8402 8.4935
L4.8879 8.6840
" />
<path d="M4.8879 8.6840
L4.8879 8.9221
" />
<path d="M4.8879 8.9221
L4.8402 9.1126
" />
<path d="M4.8402 9.1126
L4.7926 9.2078
" />
<path d="M4.7926 9.2078
L4.7450 9.2554
" />
<path d="M4.7450 9.2554
L4.6498 9.3031
" />
<path d="M4.6498 9.3031
L4.5545 9.3031
" />
<path d="M4.5545 9.3031
L4.4593 9.2554
" />
<path d="M4.4593 9.2554
L4.4117 9.2078
" />
<path d="M4.4117 9.2078
L4.3640 9.1126
" />
<path d="M4.3640 9.1126
L4.3164 8.9221
" />
<path d="M4.3164 8.9221
L4.3164 8.6840
" />
<path d="M4.3164 8.6840
L4.3640 8.4935
" />
<path d="M4.3640 8.4935
L4.4117 8.3983
" />
<path d="M4.4117 8.3983
L4.4593 8.3507
" />
<path d="M4.4593 8.3507
L4.5545 8.3031
" />
</g><text x="2.7450" y="5.3483"
textLength="4.5357" font-size="1.3333" lengthAdjust="spacingAndGlyphs"
text-anchor="middle" opacity="0" stroke-opacity="0">REF**</text>
<g class="stroked-text"><desc>REF**</desc>
<path d="M1.4117 5.3031
L1.0783 4.8269
" />
<path d="M0.8402 5.3031
L0.8402 4.3031
" />
<path d="M0.8402 4.3031
L1.2212 4.3031
" />
<path d="M1.2212 4.3031
L1.3164 4.3507
" />
<path d="M1.3164 4.3507
L1.3640 4.3983
" />
<path d="M1.3640 4.3983
L1.4117 4.4935
" />
<path d="M1.4117 4.4935
L1.4117 4.6364
" />
<path d="M1.4117 4.6364
L1.3640 4.7316
" />
<path d="M1.3640 4.7316
L1.3164 4.7793
" />
<path d="M1.3164 4.7793
L1.2212 4.8269
" />
<path d="M1.2212 4.8269
L0.8402 4.8269
" />
<path d="M1.8402 4.7793
L2.1736 4.7793
" />
<path d="M2.3164 5.3031
L1.8402 5.3031
" />
<path d="M1.8402 5.3031
L1.8402 4.3031
" />
<path d="M1.8402 4.3031
L2.3164 4.3031
" />
<path d="M3.0783 4.7793
L2.7450 4.7793
" />
<path d="M2.7450 5.3031
L2.7450 4.3031
" />
<path d="M2.7450 4.3031
L3.2212 4.3031
" />
<path d="M3.7450 4.3031
L3.7450 4.5412
" />
<path d="M3.5069 4.4459
L3.7450 4.5412
" />
<path d="M3.7450 4.5412
L3.9831 4.4459
" />
<path d="M3.6021 4.7316
L3.7450 4.5412
" />
<path d="M3.7450 4.5412
L3.8879 4.7316
" />
<path d="M4.5069 4.3031
L4.5069 4.5412
" />
<path d="M4.2688 4.4459
L4.5069 4.5412
" />
<path d="M4.5069 4.5412
L4.7450 4.4459
" />
<path d="M4.3640 4.7316
L4.5069 4.5412
" />
<path d="M4.5069 4.5412
L4.6498 4.7316
" />
</g></g>
<g style="fill:none; 
stroke:#000000; stroke-width:0.0600; stroke-opacity:1; 
stroke-linecap:round; stroke-linejoin:round;">
<circle cx="1.1350" cy="6.1382" r="0.0300" /> 
</g> 
</svg>
