<?xml version='1.0' encoding='utf-8'?>
<svg xmlns="http://www.w3.org/2000/svg" version="1.1" width="5.7150mm" height="9.6774mm" viewBox="0.0000 0.0000 5.7150 9.6774">
<title>SVG Image created as F1812.svg date 2026/01/09 08:17:46 </title>
  <desc>Image generated by PCBNEW </desc>
<g style="fill:#000000; fill-opacity:1.0000;stroke:#000000; stroke-opacity:1.0000; stroke-linecap:round; stroke-linejoin:round;" transform="translate(0 0) scale(1 1)">
<path style="fill:#000000; fill-opacity:1.0000; stroke:none;fill-rule:evenodd;" d="M 4.0100,6.5982 4.0100,3.0982 5.4200,3.0982 5.4200,6.5982 Z" /> 
<path style="fill:#000000; fill-opacity:1.0000; stroke:none;fill-rule:evenodd;" d="M 0.3100,6.5982 0.3100,3.0982 1.7200,3.0982 1.7200,6.5982 Z" /> 
<path style="fill:#000000; fill-opacity:1.0000; stroke:none;fill-rule:evenodd;" d="M 4.0100,6.5982 4.0100,3.0982 5.4200,3.0982 5.4200,6.5982 Z" /> 
<path style="fill:#000000; fill-opacity:1.0000; stroke:none;fill-rule:evenodd;" d="M 0.3100,6.5982 0.3100,3.0982 1.7200,3.0982 1.7200,6.5982 Z" /> 
<path style="fill:#000000; fill-opacity:1.0000; stroke:none;fill-rule:evenodd;" d="M 4.0100,6.5982 4.0100,3.0982 5.4200,3.0982 5.4200,6.5982 Z" /> 
<path style="fill:#000000; fill-opacity:1.0000; stroke:none;fill-rule:evenodd;" d="M 0.3100,6.5982 0.3100,3.0982 1.7200,3.0982 1.7200,6.5982 Z" /> 
</g>
<g style="fill:none;  stroke:#000000; stroke-width:0.1500; stroke-opacity:1;  stroke-linecap:round; stroke-linejoin:round;">
<path d="M0.0750 3.0482 L0.0750 6.6082 " />
<path d="M5.6550 3.0682 L5.6550 6.6282 " />
<path d="M1.5950 6.8782 L0.3250 6.8782 " />
<path d="M4.1350 6.8782 L5.4050 6.8782 " />
<path d="M0.3250 2.8182 L1.6350 2.8182 " />
<path d="M5.4050 2.8182 L4.1350 2.8182 " />
<path d="M2.8650 5.4783 A0.3256 0.3256 0.0 0 0 2.8596 4.8373" />
<path d="M2.8650 4.2182 A0.3256 0.3256 0.0 0 0 2.8704 4.8592" />
<text x="2.8650" y="9.3483" textLength="4.9167" font-size="1.3333" lengthAdjust="spacingAndGlyphs" text-anchor="middle" opacity="0" stroke-opacity="0">F1812</text>
<g class="stroked-text"><desc>F1812</desc>
<path d="M1.1031 8.7793 L0.7698 8.7793 " />
<path d="M0.7698 9.3031 L0.7698 8.3031 " />
<path d="M0.7698 8.3031 L1.2460 8.3031 " />
<path d="M2.1507 9.3031 L1.5793 9.3031 " />
<path d="M1.8650 9.3031 L1.8650 8.3031 " />
<path d="M1.8650 8.3031 L1.7698 8.4459 " />
<path d="M1.7698 8.4459 L1.6745 8.5412 " />
<path d="M1.6745 8.5412 L1.5793 8.5888 " />
<path d="M2.7221 8.7316 L2.6269 8.6840 " />
<path d="M2.6269 8.6840 L2.5793 8.6364 " />
<path d="M2.5793 8.6364 L2.5317 8.5412 " />
<path d="M2.5317 8.5412 L2.5317 8.4935 " />
<path d="M2.5317 8.4935 L2.5793 8.3983 " />
<path d="M2.5793 8.3983 L2.6269 8.3507 " />
<path d="M2.6269 8.3507 L2.7221 8.3031 " />
<path d="M2.7221 8.3031 L2.9126 8.3031 " />
<path d="M2.9126 8.3031 L3.0079 8.3507 " />
<path d="M3.0079 8.3507 L3.0555 8.3983 " />
<path d="M3.0555 8.3983 L3.1031 8.4935 " />
<path d="M3.1031 8.4935 L3.1031 8.5412 " />
<path d="M3.1031 8.5412 L3.0555 8.6364 " />
<path d="M3.0555 8.6364 L3.0079 8.6840 " />
<path d="M3.0079 8.6840 L2.9126 8.7316 " />
<path d="M2.9126 8.7316 L2.7221 8.7316 " />
<path d="M2.7221 8.7316 L2.6269 8.7793 " />
<path d="M2.6269 8.7793 L2.5793 8.8269 " />
<path d="M2.5793 8.8269 L2.5317 8.9221 " />
<path d="M2.5317 8.9221 L2.5317 9.1126 " />
<path d="M2.5317 9.1126 L2.5793 9.2078 " />
<path d="M2.5793 9.2078 L2.6269 9.2554 " />
<path d="M2.6269 9.2554 L2.7221 9.3031 " />
<path d="M2.7221 9.3031 L2.9126 9.3031 " />
<path d="M2.9126 9.3031 L3.0079 9.2554 " />
<path d="M3.0079 9.2554 L3.0555 9.2078 " />
<path d="M3.0555 9.2078 L3.1031 9.1126 " />
<path d="M3.1031 9.1126 L3.1031 8.9221 " />
<path d="M3.1031 8.9221 L3.0555 8.8269 " />
<path d="M3.0555 8.8269 L3.0079 8.7793 " />
<path d="M3.0079 8.7793 L2.9126 8.7316 " />
<path d="M4.0555 9.3031 L3.4840 9.3031 " />
<path d="M3.7698 9.3031 L3.7698 8.3031 " />
<path d="M3.7698 8.3031 L3.6745 8.4459 " />
<path d="M3.6745 8.4459 L3.5793 8.5412 " />
<path d="M3.5793 8.5412 L3.4840 8.5888 " />
<path d="M4.4364 8.3983 L4.4840 8.3507 " />
<path d="M4.4840 8.3507 L4.5793 8.3031 " />
<path d="M4.5793 8.3031 L4.8174 8.3031 " />
<path d="M4.8174 8.3031 L4.9126 8.3507 " />
<path d="M4.9126 8.3507 L4.9602 8.3983 " />
<path d="M4.9602 8.3983 L5.0079 8.4935 " />
<path d="M5.0079 8.4935 L5.0079 8.5888 " />
<path d="M5.0079 8.5888 L4.9602 8.7316 " />
<path d="M4.9602 8.7316 L4.3888 9.3031 " />
<path d="M4.3888 9.3031 L5.0079 9.3031 " />
</g></g>
<g style="fill:none;  stroke:#000000; stroke-width:0.0600; stroke-opacity:1;  stroke-linecap:round; stroke-linejoin:round;">
<circle cx="0.5850" cy="6.4682" r="0.0300" /> 
</g> 
</svg>