<?xml version="1.0" standalone="no"?>
 <!DOCTYPE svg PUBLIC "-//W3C//DTD SVG 1.1//EN" 
 "http://www.w3.org/Graphics/SVG/1.1/DTD/svg11.dtd"> 
<svg
  xmlns:svg="http://www.w3.org/2000/svg"
  xmlns="http://www.w3.org/2000/svg"
  xmlns:xlink="http://www.w3.org/1999/xlink"
  version="1.1"
  width="18.0086mm" height="9.6774mm" viewBox="0.0000 0.0000 18.0086 9.6774">
<title>SVG Image created as FUSE-SMD_L10.1-W3.1.svg date 2026/01/01 22:36:26 </title>
  <desc>Image generated by PCBNEW </desc>
<g style="fill:#000000; fill-opacity:1.0000;stroke:#000000; stroke-opacity:1.0000;
stroke-linecap:round; stroke-linejoin:round;"
 transform="translate(0 0) scale(1 1)">
<path style="fill:#000000; fill-opacity:1.0000; stroke:none;fill-rule:evenodd;"
d="M 2.6810,6.5633
2.6810,3.1332
5.9310,3.1332
5.9310,6.5633
Z" /> 
<path style="fill:#000000; fill-opacity:1.0000; stroke:none;fill-rule:evenodd;"
d="M 12.0810,6.5633
12.0810,3.1332
15.3310,3.1332
15.3310,6.5633
Z" /> 
<path style="fill:#000000; fill-opacity:1.0000; stroke:none;fill-rule:evenodd;"
d="M 2.6810,6.5633
2.6810,3.1332
5.9310,3.1332
5.9310,6.5633
Z" /> 
<path style="fill:#000000; fill-opacity:1.0000; stroke:none;fill-rule:evenodd;"
d="M 12.0810,6.5633
12.0810,3.1332
15.3310,3.1332
15.3310,6.5633
Z" /> 
<path style="fill:#000000; fill-opacity:1.0000; stroke:none;fill-rule:evenodd;"
d="M 2.6810,6.5633
2.6810,3.1332
5.9310,3.1332
5.9310,6.5633
Z" /> 
<path style="fill:#000000; fill-opacity:1.0000; stroke:none;fill-rule:evenodd;"
d="M 12.0810,6.5633
12.0810,3.1332
15.3310,3.1332
15.3310,6.5633
Z" /> 
</g>
<g style="fill:none; 
stroke:#000000; stroke-width:0.1500; stroke-opacity:1; 
stroke-linecap:round; stroke-linejoin:round;">
<text x="9.0060" y="1.3482"
textLength="4.5357" font-size="1.3333" lengthAdjust="spacingAndGlyphs"
text-anchor="middle" opacity="0" stroke-opacity="0">REF**</text>
<g class="stroked-text"><desc>REF**</desc>
<path d="M7.6726 1.3031
L7.3393 0.8269
" />
<path d="M7.1012 1.3031
L7.1012 0.3031
" />
<path d="M7.1012 0.3031
L7.4821 0.3031
" />
<path d="M7.4821 0.3031
L7.5774 0.3507
" />
<path d="M7.5774 0.3507
L7.6250 0.3983
" />
<path d="M7.6250 0.3983
L7.6726 0.4935
" />
<path d="M7.6726 0.4935
L7.6726 0.6364
" />
<path d="M7.6726 0.6364
L7.6250 0.7316
" />
<path d="M7.6250 0.7316
L7.5774 0.7793
" />
<path d="M7.5774 0.7793
L7.4821 0.8269
" />
<path d="M7.4821 0.8269
L7.1012 0.8269
" />
<path d="M8.1012 0.7793
L8.4345 0.7793
" />
<path d="M8.5774 1.3031
L8.1012 1.3031
" />
<path d="M8.1012 1.3031
L8.1012 0.3031
" />
<path d="M8.1012 0.3031
L8.5774 0.3031
" />
<path d="M9.3393 0.7793
L9.0060 0.7793
" />
<path d="M9.0060 1.3031
L9.0060 0.3031
" />
<path d="M9.0060 0.3031
L9.4821 0.3031
" />
<path d="M10.0060 0.3031
L10.0060 0.5412
" />
<path d="M9.7679 0.4459
L10.0060 0.5412
" />
<path d="M10.0060 0.5412
L10.2440 0.4459
" />
<path d="M9.8631 0.7316
L10.0060 0.5412
" />
<path d="M10.0060 0.5412
L10.1488 0.7316
" />
<path d="M10.7679 0.3031
L10.7679 0.5412
" />
<path d="M10.5298 0.4459
L10.7679 0.5412
" />
<path d="M10.7679 0.5412
L11.0060 0.4459
" />
<path d="M10.6250 0.7316
L10.7679 0.5412
" />
<path d="M10.7679 0.5412
L10.9107 0.7316
" />
</g></g>
<g style="fill:none; 
stroke:#000000; stroke-width:0.2500; stroke-opacity:1; 
stroke-linecap:round; stroke-linejoin:round;">
<path d="M6.2060 6.3982
L11.8060 6.3982
" />
<path d="M6.2060 3.2982
L11.8060 3.2982
" />
</g>
<g style="fill:none; 
stroke:#000000; stroke-width:0.1500; stroke-opacity:1; 
stroke-linecap:round; stroke-linejoin:round;">
<path d="M8.9760 4.4982 A0.1900 0.1900 0.0 0 0 8.9760 4.8783" />
<path d="M8.9760 5.2583 A0.1900 0.1900 0.0 0 0 8.9760 4.8782" />
<text x="9.0060" y="9.3483"
textLength="18.0119" font-size="1.3333" lengthAdjust="spacingAndGlyphs"
text-anchor="middle" opacity="0" stroke-opacity="0">FUSE-SMD_L10.1-W3.1</text>
<g class="stroked-text"><desc>FUSE-SMD_L10.1-W3.1</desc>
<path d="M0.6964 8.7793
L0.3631 8.7793
" />
<path d="M0.3631 9.3031
L0.3631 8.3031
" />
<path d="M0.3631 8.3031
L0.8393 8.3031
" />
<path d="M1.2202 8.3031
L1.2202 9.1126
" />
<path d="M1.2202 9.1126
L1.2679 9.2078
" />
<path d="M1.2679 9.2078
L1.3155 9.2554
" />
<path d="M1.3155 9.2554
L1.4107 9.3031
" />
<path d="M1.4107 9.3031
L1.6012 9.3031
" />
<path d="M1.6012 9.3031
L1.6964 9.2554
" />
<path d="M1.6964 9.2554
L1.7440 9.2078
" />
<path d="M1.7440 9.2078
L1.7917 9.1126
" />
<path d="M1.7917 9.1126
L1.7917 8.3031
" />
<path d="M2.2202 9.2554
L2.3631 9.3031
" />
<path d="M2.3631 9.3031
L2.6012 9.3031
" />
<path d="M2.6012 9.3031
L2.6964 9.2554
" />
<path d="M2.6964 9.2554
L2.7440 9.2078
" />
<path d="M2.7440 9.2078
L2.7917 9.1126
" />
<path d="M2.7917 9.1126
L2.7917 9.0174
" />
<path d="M2.7917 9.0174
L2.7440 8.9221
" />
<path d="M2.7440 8.9221
L2.6964 8.8745
" />
<path d="M2.6964 8.8745
L2.6012 8.8269
" />
<path d="M2.6012 8.8269
L2.4107 8.7793
" />
<path d="M2.4107 8.7793
L2.3155 8.7316
" />
<path d="M2.3155 8.7316
L2.2679 8.6840
" />
<path d="M2.2679 8.6840
L2.2202 8.5888
" />
<path d="M2.2202 8.5888
L2.2202 8.4935
" />
<path d="M2.2202 8.4935
L2.2679 8.3983
" />
<path d="M2.2679 8.3983
L2.3155 8.3507
" />
<path d="M2.3155 8.3507
L2.4107 8.3031
" />
<path d="M2.4107 8.3031
L2.6488 8.3031
" />
<path d="M2.6488 8.3031
L2.7917 8.3507
" />
<path d="M3.2202 8.7793
L3.5536 8.7793
" />
<path d="M3.6964 9.3031
L3.2202 9.3031
" />
<path d="M3.2202 9.3031
L3.2202 8.3031
" />
<path d="M3.2202 8.3031
L3.6964 8.3031
" />
<path d="M4.1250 8.9221
L4.8869 8.9221
" />
<path d="M5.3155 9.2554
L5.4583 9.3031
" />
<path d="M5.4583 9.3031
L5.6964 9.3031
" />
<path d="M5.6964 9.3031
L5.7917 9.2554
" />
<path d="M5.7917 9.2554
L5.8393 9.2078
" />
<path d="M5.8393 9.2078
L5.8869 9.1126
" />
<path d="M5.8869 9.1126
L5.8869 9.0174
" />
<path d="M5.8869 9.0174
L5.8393 8.9221
" />
<path d="M5.8393 8.9221
L5.7917 8.8745
" />
<path d="M5.7917 8.8745
L5.6964 8.8269
" />
<path d="M5.6964 8.8269
L5.5060 8.7793
" />
<path d="M5.5060 8.7793
L5.4107 8.7316
" />
<path d="M5.4107 8.7316
L5.3631 8.6840
" />
<path d="M5.3631 8.6840
L5.3155 8.5888
" />
<path d="M5.3155 8.5888
L5.3155 8.4935
" />
<path d="M5.3155 8.4935
L5.3631 8.3983
" />
<path d="M5.3631 8.3983
L5.4107 8.3507
" />
<path d="M5.4107 8.3507
L5.5060 8.3031
" />
<path d="M5.5060 8.3031
L5.7440 8.3031
" />
<path d="M5.7440 8.3031
L5.8869 8.3507
" />
<path d="M6.3155 9.3031
L6.3155 8.3031
" />
<path d="M6.3155 8.3031
L6.6488 9.0174
" />
<path d="M6.6488 9.0174
L6.9821 8.3031
" />
<path d="M6.9821 8.3031
L6.9821 9.3031
" />
<path d="M7.4583 9.3031
L7.4583 8.3031
" />
<path d="M7.4583 8.3031
L7.6964 8.3031
" />
<path d="M7.6964 8.3031
L7.8393 8.3507
" />
<path d="M7.8393 8.3507
L7.9345 8.4459
" />
<path d="M7.9345 8.4459
L7.9821 8.5412
" />
<path d="M7.9821 8.5412
L8.0298 8.7316
" />
<path d="M8.0298 8.7316
L8.0298 8.8745
" />
<path d="M8.0298 8.8745
L7.9821 9.0650
" />
<path d="M7.9821 9.0650
L7.9345 9.1602
" />
<path d="M7.9345 9.1602
L7.8393 9.2554
" />
<path d="M7.8393 9.2554
L7.6964 9.3031
" />
<path d="M7.6964 9.3031
L7.4583 9.3031
" />
<path d="M8.2202 9.3983
L8.9821 9.3983
" />
<path d="M9.6964 9.3031
L9.2202 9.3031
" />
<path d="M9.2202 9.3031
L9.2202 8.3031
" />
<path d="M10.5536 9.3031
L9.9821 9.3031
" />
<path d="M10.2679 9.3031
L10.2679 8.3031
" />
<path d="M10.2679 8.3031
L10.1726 8.4459
" />
<path d="M10.1726 8.4459
L10.0774 8.5412
" />
<path d="M10.0774 8.5412
L9.9821 8.5888
" />
<path d="M11.1726 8.3031
L11.2679 8.3031
" />
<path d="M11.2679 8.3031
L11.3631 8.3507
" />
<path d="M11.3631 8.3507
L11.4107 8.3983
" />
<path d="M11.4107 8.3983
L11.4583 8.4935
" />
<path d="M11.4583 8.4935
L11.5060 8.6840
" />
<path d="M11.5060 8.6840
L11.5060 8.9221
" />
<path d="M11.5060 8.9221
L11.4583 9.1126
" />
<path d="M11.4583 9.1126
L11.4107 9.2078
" />
<path d="M11.4107 9.2078
L11.3631 9.2554
" />
<path d="M11.3631 9.2554
L11.2679 9.3031
" />
<path d="M11.2679 9.3031
L11.1726 9.3031
" />
<path d="M11.1726 9.3031
L11.0774 9.2554
" />
<path d="M11.0774 9.2554
L11.0298 9.2078
" />
<path d="M11.0298 9.2078
L10.9821 9.1126
" />
<path d="M10.9821 9.1126
L10.9345 8.9221
" />
<path d="M10.9345 8.9221
L10.9345 8.6840
" />
<path d="M10.9345 8.6840
L10.9821 8.4935
" />
<path d="M10.9821 8.4935
L11.0298 8.3983
" />
<path d="M11.0298 8.3983
L11.0774 8.3507
" />
<path d="M11.0774 8.3507
L11.1726 8.3031
" />
<path d="M11.9345 9.2078
L11.9821 9.2554
" />
<path d="M11.9821 9.2554
L11.9345 9.3031
" />
<path d="M11.9345 9.3031
L11.8869 9.2554
" />
<path d="M11.8869 9.2554
L11.9345 9.2078
" />
<path d="M11.9345 9.2078
L11.9345 9.3031
" />
<path d="M12.9345 9.3031
L12.3631 9.3031
" />
<path d="M12.6488 9.3031
L12.6488 8.3031
" />
<path d="M12.6488 8.3031
L12.5536 8.4459
" />
<path d="M12.5536 8.4459
L12.4583 8.5412
" />
<path d="M12.4583 8.5412
L12.3631 8.5888
" />
<path d="M13.3631 8.9221
L14.1250 8.9221
" />
<path d="M14.5060 8.3031
L14.7440 9.3031
" />
<path d="M14.7440 9.3031
L14.9345 8.5888
" />
<path d="M14.9345 8.5888
L15.1250 9.3031
" />
<path d="M15.1250 9.3031
L15.3631 8.3031
" />
<path d="M15.6488 8.3031
L16.2679 8.3031
" />
<path d="M16.2679 8.3031
L15.9345 8.6840
" />
<path d="M15.9345 8.6840
L16.0774 8.6840
" />
<path d="M16.0774 8.6840
L16.1726 8.7316
" />
<path d="M16.1726 8.7316
L16.2202 8.7793
" />
<path d="M16.2202 8.7793
L16.2679 8.8745
" />
<path d="M16.2679 8.8745
L16.2679 9.1126
" />
<path d="M16.2679 9.1126
L16.2202 9.2078
" />
<path d="M16.2202 9.2078
L16.1726 9.2554
" />
<path d="M16.1726 9.2554
L16.0774 9.3031
" />
<path d="M16.0774 9.3031
L15.7917 9.3031
" />
<path d="M15.7917 9.3031
L15.6964 9.2554
" />
<path d="M15.6964 9.2554
L15.6488 9.2078
" />
<path d="M16.6964 9.2078
L16.7440 9.2554
" />
<path d="M16.7440 9.2554
L16.6964 9.3031
" />
<path d="M16.6964 9.3031
L16.6488 9.2554
" />
<path d="M16.6488 9.2554
L16.6964 9.2078
" />
<path d="M16.6964 9.2078
L16.6964 9.3031
" />
<path d="M17.6964 9.3031
L17.1250 9.3031
" />
<path d="M17.4107 9.3031
L17.4107 8.3031
" />
<path d="M17.4107 8.3031
L17.3155 8.4459
" />
<path d="M17.3155 8.4459
L17.2202 8.5412
" />
<path d="M17.2202 8.5412
L17.1250 8.5888
" />
</g><text x="9.0060" y="5.3483"
textLength="4.5357" font-size="1.3333" lengthAdjust="spacingAndGlyphs"
text-anchor="middle" opacity="0" stroke-opacity="0">REF**</text>
<g class="stroked-text"><desc>REF**</desc>
<path d="M7.6726 5.3031
L7.3393 4.8269
" />
<path d="M7.1012 5.3031
L7.1012 4.3031
" />
<path d="M7.1012 4.3031
L7.4821 4.3031
" />
<path d="M7.4821 4.3031
L7.5774 4.3507
" />
<path d="M7.5774 4.3507
L7.6250 4.3983
" />
<path d="M7.6250 4.3983
L7.6726 4.4935
" />
<path d="M7.6726 4.4935
L7.6726 4.6364
" />
<path d="M7.6726 4.6364
L7.6250 4.7316
" />
<path d="M7.6250 4.7316
L7.5774 4.7793
" />
<path d="M7.5774 4.7793
L7.4821 4.8269
" />
<path d="M7.4821 4.8269
L7.1012 4.8269
" />
<path d="M8.1012 4.7793
L8.4345 4.7793
" />
<path d="M8.5774 5.3031
L8.1012 5.3031
" />
<path d="M8.1012 5.3031
L8.1012 4.3031
" />
<path d="M8.1012 4.3031
L8.5774 4.3031
" />
<path d="M9.3393 4.7793
L9.0060 4.7793
" />
<path d="M9.0060 5.3031
L9.0060 4.3031
" />
<path d="M9.0060 4.3031
L9.4821 4.3031
" />
<path d="M10.0060 4.3031
L10.0060 4.5412
" />
<path d="M9.7679 4.4459
L10.0060 4.5412
" />
<path d="M10.0060 4.5412
L10.2440 4.4459
" />
<path d="M9.8631 4.7316
L10.0060 4.5412
" />
<path d="M10.0060 4.5412
L10.1488 4.7316
" />
<path d="M10.7679 4.3031
L10.7679 4.5412
" />
<path d="M10.5298 4.4459
L10.7679 4.5412
" />
<path d="M10.7679 4.5412
L11.0060 4.4459
" />
<path d="M10.6250 4.7316
L10.7679 4.5412
" />
<path d="M10.7679 4.5412
L10.9107 4.7316
" />
</g></g>
<g style="fill:none; 
stroke:#000000; stroke-width:0.0600; stroke-opacity:1; 
stroke-linecap:round; stroke-linejoin:round;">
<circle cx="3.9660" cy="6.3682" r="0.0300" /> 
</g> 
</svg>
