<?xml version='1.0' encoding='utf-8'?>
<svg xmlns="http://www.w3.org/2000/svg" version="1.1" width="17.0434mm" height="9.6774mm" viewBox="0.0000 0.0000 17.0434 9.6774">
<title>SVG Image created as FUSE-SMD_L6.1-W2.6.svg date 2026/01/09 08:17:46 </title>
  <desc>Image generated by PCBNEW </desc>
<g style="fill:#000000; fill-opacity:1.0000;stroke:#000000; stroke-opacity:1.0000; stroke-linecap:round; stroke-linejoin:round;" transform="translate(0 0) scale(1 1)">
<path style="fill:#000000; fill-opacity:1.0000; stroke:none;fill-rule:evenodd;" d="M 9.4048,6.3032 9.4048,3.3932 12.3148,3.3932 12.3148,6.3032 Z" /> 
<path style="fill:#000000; fill-opacity:1.0000; stroke:none;fill-rule:evenodd;" d="M 4.7448,6.3032 4.7448,3.3932 7.6548,3.3932 7.6548,6.3032 Z" /> 
<path style="fill:#000000; fill-opacity:1.0000; stroke:none;fill-rule:evenodd;" d="M 9.4048,6.3032 9.4048,3.3932 12.3148,3.3932 12.3148,6.3032 Z" /> 
<path style="fill:#000000; fill-opacity:1.0000; stroke:none;fill-rule:evenodd;" d="M 4.7448,6.3032 4.7448,3.3932 7.6548,3.3932 7.6548,6.3032 Z" /> 
<path style="fill:#000000; fill-opacity:1.0000; stroke:none;fill-rule:evenodd;" d="M 9.4048,6.3032 9.4048,3.3932 12.3148,3.3932 12.3148,6.3032 Z" /> 
<path style="fill:#000000; fill-opacity:1.0000; stroke:none;fill-rule:evenodd;" d="M 4.7448,6.3032 4.7448,3.3932 7.6548,3.3932 7.6548,6.3032 Z" /> 
</g>
<g style="fill:none;  stroke:#000000; stroke-width:0.1500; stroke-opacity:1;  stroke-linecap:round; stroke-linejoin:round;">
<path d="M4.4698 3.4583 L4.4698 6.2482 " />
<path d="M12.5898 3.4482 L12.5898 6.2482 " />
<path d="M9.4198 6.6282 L12.3398 6.6282 " />
<path d="M12.3398 3.0682 L9.5298 3.0682 " />
<path d="M7.6398 6.6282 L4.7198 6.6282 " />
<path d="M4.7198 3.0682 L7.5298 3.0682 " />
<path d="M3.8342 4.0850 A0.4720 0.4720 0.0 0 0 3.8298 4.8482" />
<path d="M3.8222 5.7331 A0.5270 0.5270 0.0 0 0 3.8298 4.8482" />
<text x="8.5298" y="9.3483" textLength="17.0595" font-size="1.3333" lengthAdjust="spacingAndGlyphs" text-anchor="middle" opacity="0" stroke-opacity="0">FUSE-SMD_L6.1-W2.6</text>
<g class="stroked-text"><desc>FUSE-SMD_L6.1-W2.6</desc>
<path d="M0.6964 8.7793 L0.3631 8.7793 " />
<path d="M0.3631 9.3031 L0.3631 8.3031 " />
<path d="M0.3631 8.3031 L0.8393 8.3031 " />
<path d="M1.2202 8.3031 L1.2202 9.1126 " />
<path d="M1.2202 9.1126 L1.2679 9.2078 " />
<path d="M1.2679 9.2078 L1.3155 9.2554 " />
<path d="M1.3155 9.2554 L1.4107 9.3031 " />
<path d="M1.4107 9.3031 L1.6012 9.3031 " />
<path d="M1.6012 9.3031 L1.6964 9.2554 " />
<path d="M1.6964 9.2554 L1.7440 9.2078 " />
<path d="M1.7440 9.2078 L1.7917 9.1126 " />
<path d="M1.7917 9.1126 L1.7917 8.3031 " />
<path d="M2.2202 9.2554 L2.3631 9.3031 " />
<path d="M2.3631 9.3031 L2.6012 9.3031 " />
<path d="M2.6012 9.3031 L2.6964 9.2554 " />
<path d="M2.6964 9.2554 L2.7440 9.2078 " />
<path d="M2.7440 9.2078 L2.7917 9.1126 " />
<path d="M2.7917 9.1126 L2.7917 9.0174 " />
<path d="M2.7917 9.0174 L2.7440 8.9221 " />
<path d="M2.7440 8.9221 L2.6964 8.8745 " />
<path d="M2.6964 8.8745 L2.6012 8.8269 " />
<path d="M2.6012 8.8269 L2.4107 8.7793 " />
<path d="M2.4107 8.7793 L2.3155 8.7316 " />
<path d="M2.3155 8.7316 L2.2679 8.6840 " />
<path d="M2.2679 8.6840 L2.2202 8.5888 " />
<path d="M2.2202 8.5888 L2.2202 8.4935 " />
<path d="M2.2202 8.4935 L2.2679 8.3983 " />
<path d="M2.2679 8.3983 L2.3155 8.3507 " />
<path d="M2.3155 8.3507 L2.4107 8.3031 " />
<path d="M2.4107 8.3031 L2.6488 8.3031 " />
<path d="M2.6488 8.3031 L2.7917 8.3507 " />
<path d="M3.2202 8.7793 L3.5536 8.7793 " />
<path d="M3.6964 9.3031 L3.2202 9.3031 " />
<path d="M3.2202 9.3031 L3.2202 8.3031 " />
<path d="M3.2202 8.3031 L3.6964 8.3031 " />
<path d="M4.1250 8.9221 L4.8869 8.9221 " />
<path d="M5.3155 9.2554 L5.4583 9.3031 " />
<path d="M5.4583 9.3031 L5.6964 9.3031 " />
<path d="M5.6964 9.3031 L5.7917 9.2554 " />
<path d="M5.7917 9.2554 L5.8393 9.2078 " />
<path d="M5.8393 9.2078 L5.8869 9.1126 " />
<path d="M5.8869 9.1126 L5.8869 9.0174 " />
<path d="M5.8869 9.0174 L5.8393 8.9221 " />
<path d="M5.8393 8.9221 L5.7917 8.8745 " />
<path d="M5.7917 8.8745 L5.6964 8.8269 " />
<path d="M5.6964 8.8269 L5.5060 8.7793 " />
<path d="M5.5060 8.7793 L5.4107 8.7316 " />
<path d="M5.4107 8.7316 L5.3631 8.6840 " />
<path d="M5.3631 8.6840 L5.3155 8.5888 " />
<path d="M5.3155 8.5888 L5.3155 8.4935 " />
<path d="M5.3155 8.4935 L5.3631 8.3983 " />
<path d="M5.3631 8.3983 L5.4107 8.3507 " />
<path d="M5.4107 8.3507 L5.5060 8.3031 " />
<path d="M5.5060 8.3031 L5.7440 8.3031 " />
<path d="M5.7440 8.3031 L5.8869 8.3507 " />
<path d="M6.3155 9.3031 L6.3155 8.3031 " />
<path d="M6.3155 8.3031 L6.6488 9.0174 " />
<path d="M6.6488 9.0174 L6.9821 8.3031 " />
<path d="M6.9821 8.3031 L6.9821 9.3031 " />
<path d="M7.4583 9.3031 L7.4583 8.3031 " />
<path d="M7.4583 8.3031 L7.6964 8.3031 " />
<path d="M7.6964 8.3031 L7.8393 8.3507 " />
<path d="M7.8393 8.3507 L7.9345 8.4459 " />
<path d="M7.9345 8.4459 L7.9821 8.5412 " />
<path d="M7.9821 8.5412 L8.0298 8.7316 " />
<path d="M8.0298 8.7316 L8.0298 8.8745 " />
<path d="M8.0298 8.8745 L7.9821 9.0650 " />
<path d="M7.9821 9.0650 L7.9345 9.1602 " />
<path d="M7.9345 9.1602 L7.8393 9.2554 " />
<path d="M7.8393 9.2554 L7.6964 9.3031 " />
<path d="M7.6964 9.3031 L7.4583 9.3031 " />
<path d="M8.2202 9.3983 L8.9821 9.3983 " />
<path d="M9.6964 9.3031 L9.2202 9.3031 " />
<path d="M9.2202 9.3031 L9.2202 8.3031 " />
<path d="M10.4583 8.3031 L10.2679 8.3031 " />
<path d="M10.2679 8.3031 L10.1726 8.3507 " />
<path d="M10.1726 8.3507 L10.1250 8.3983 " />
<path d="M10.1250 8.3983 L10.0298 8.5412 " />
<path d="M10.0298 8.5412 L9.9821 8.7316 " />
<path d="M9.9821 8.7316 L9.9821 9.1126 " />
<path d="M9.9821 9.1126 L10.0298 9.2078 " />
<path d="M10.0298 9.2078 L10.0774 9.2554 " />
<path d="M10.0774 9.2554 L10.1726 9.3031 " />
<path d="M10.1726 9.3031 L10.3631 9.3031 " />
<path d="M10.3631 9.3031 L10.4583 9.2554 " />
<path d="M10.4583 9.2554 L10.5060 9.2078 " />
<path d="M10.5060 9.2078 L10.5536 9.1126 " />
<path d="M10.5536 9.1126 L10.5536 8.8745 " />
<path d="M10.5536 8.8745 L10.5060 8.7793 " />
<path d="M10.5060 8.7793 L10.4583 8.7316 " />
<path d="M10.4583 8.7316 L10.3631 8.6840 " />
<path d="M10.3631 8.6840 L10.1726 8.6840 " />
<path d="M10.1726 8.6840 L10.0774 8.7316 " />
<path d="M10.0774 8.7316 L10.0298 8.7793 " />
<path d="M10.0298 8.7793 L9.9821 8.8745 " />
<path d="M10.9821 9.2078 L11.0298 9.2554 " />
<path d="M11.0298 9.2554 L10.9821 9.3031 " />
<path d="M10.9821 9.3031 L10.9345 9.2554 " />
<path d="M10.9345 9.2554 L10.9821 9.2078 " />
<path d="M10.9821 9.2078 L10.9821 9.3031 " />
<path d="M11.9821 9.3031 L11.4107 9.3031 " />
<path d="M11.6964 9.3031 L11.6964 8.3031 " />
<path d="M11.6964 8.3031 L11.6012 8.4459 " />
<path d="M11.6012 8.4459 L11.5060 8.5412 " />
<path d="M11.5060 8.5412 L11.4107 8.5888 " />
<path d="M12.4107 8.9221 L13.1726 8.9221 " />
<path d="M13.5536 8.3031 L13.7917 9.3031 " />
<path d="M13.7917 9.3031 L13.9821 8.5888 " />
<path d="M13.9821 8.5888 L14.1726 9.3031 " />
<path d="M14.1726 9.3031 L14.4107 8.3031 " />
<path d="M14.7440 8.3983 L14.7917 8.3507 " />
<path d="M14.7917 8.3507 L14.8869 8.3031 " />
<path d="M14.8869 8.3031 L15.1250 8.3031 " />
<path d="M15.1250 8.3031 L15.2202 8.3507 " />
<path d="M15.2202 8.3507 L15.2679 8.3983 " />
<path d="M15.2679 8.3983 L15.3155 8.4935 " />
<path d="M15.3155 8.4935 L15.3155 8.5888 " />
<path d="M15.3155 8.5888 L15.2679 8.7316 " />
<path d="M15.2679 8.7316 L14.6964 9.3031 " />
<path d="M14.6964 9.3031 L15.3155 9.3031 " />
<path d="M15.7440 9.2078 L15.7917 9.2554 " />
<path d="M15.7917 9.2554 L15.7440 9.3031 " />
<path d="M15.7440 9.3031 L15.6964 9.2554 " />
<path d="M15.6964 9.2554 L15.7440 9.2078 " />
<path d="M15.7440 9.2078 L15.7440 9.3031 " />
<path d="M16.6488 8.3031 L16.4583 8.3031 " />
<path d="M16.4583 8.3031 L16.3631 8.3507 " />
<path d="M16.3631 8.3507 L16.3155 8.3983 " />
<path d="M16.3155 8.3983 L16.2202 8.5412 " />
<path d="M16.2202 8.5412 L16.1726 8.7316 " />
<path d="M16.1726 8.7316 L16.1726 9.1126 " />
<path d="M16.1726 9.1126 L16.2202 9.2078 " />
<path d="M16.2202 9.2078 L16.2679 9.2554 " />
<path d="M16.2679 9.2554 L16.3631 9.3031 " />
<path d="M16.3631 9.3031 L16.5536 9.3031 " />
<path d="M16.5536 9.3031 L16.6488 9.2554 " />
<path d="M16.6488 9.2554 L16.6964 9.2078 " />
<path d="M16.6964 9.2078 L16.7440 9.1126 " />
<path d="M16.7440 9.1126 L16.7440 8.8745 " />
<path d="M16.7440 8.8745 L16.6964 8.7793 " />
<path d="M16.6964 8.7793 L16.6488 8.7316 " />
<path d="M16.6488 8.7316 L16.5536 8.6840 " />
<path d="M16.5536 8.6840 L16.3631 8.6840 " />
<path d="M16.3631 8.6840 L16.2679 8.7316 " />
<path d="M16.2679 8.7316 L16.2202 8.7793 " />
<path d="M16.2202 8.7793 L16.1726 8.8745 " />
</g></g>
<g style="fill:none;  stroke:#000000; stroke-width:0.0600; stroke-opacity:1;  stroke-linecap:round; stroke-linejoin:round;">
<circle cx="5.4798" cy="6.1982" r="0.0300" /> 
</g> 
</svg>