<?xml version="1.0" standalone="no"?>
 <!DOCTYPE svg PUBLIC "-//W3C//DTD SVG 1.1//EN" 
 "http://www.w3.org/Graphics/SVG/1.1/DTD/svg11.dtd"> 
<svg
  xmlns:svg="http://www.w3.org/2000/svg"
  xmlns="http://www.w3.org/2000/svg"
  xmlns:xlink="http://www.w3.org/1999/xlink"
  version="1.1"
  width="19.1008mm" height="9.6774mm" viewBox="0.0000 0.0000 19.1008 9.6774">
<title>SVG Image created as HDR-TH_3P-P2.54-V-M.svg date 2026/01/01 22:36:26 </title>
  <desc>Image generated by PCBNEW </desc>
<g style="fill:#000000; fill-opacity:1.0000;stroke:#000000; stroke-opacity:1.0000;
stroke-linecap:round; stroke-linejoin:round;"
 transform="translate(0 0) scale(1 1)">
<path style="fill:#000000; fill-opacity:1.0000; stroke:none;fill-rule:evenodd;"
d="M 6.1636,5.6982
6.1636,3.9982
7.8636,3.9982
7.8636,5.6982
Z" /> 
</g>
<g style="fill:#000000; fill-opacity:1.0000; stroke:none;">
<circle cx="9.5536" cy="4.8483" r="0.8500" /> 
</g>
<g style="fill:#000000; fill-opacity:1.0000; stroke:none;">
<circle cx="12.0936" cy="4.8483" r="0.8500" /> 
<path style="fill:#000000; fill-opacity:1.0000; stroke:none;fill-rule:evenodd;"
d="M 6.1636,5.6982
6.1636,3.9982
7.8636,3.9982
7.8636,5.6982
Z" /> 
</g>
<g style="fill:#000000; fill-opacity:1.0000; stroke:none;">
<circle cx="9.5536" cy="4.8483" r="0.8500" /> 
</g>
<g style="fill:#000000; fill-opacity:1.0000; stroke:none;">
<circle cx="12.0936" cy="4.8483" r="0.8500" /> 
<path style="fill:#000000; fill-opacity:1.0000; stroke:none;fill-rule:evenodd;"
d="M 6.1636,5.6982
6.1636,3.9982
7.8636,3.9982
7.8636,5.6982
Z" /> 
</g>
<g style="fill:#000000; fill-opacity:1.0000; stroke:none;">
<circle cx="9.5536" cy="4.8483" r="0.8500" /> 
</g>
<g style="fill:#000000; fill-opacity:1.0000; stroke:none;">
<circle cx="12.0936" cy="4.8483" r="0.8500" /> 
<path style="fill:#000000; fill-opacity:1.0000; stroke:none;fill-rule:evenodd;"
d="M 6.1636,5.6982
6.1636,3.9982
7.8636,3.9982
7.8636,5.6982
Z" /> 
</g>
<g style="fill:#000000; fill-opacity:1.0000; stroke:none;">
<circle cx="9.5536" cy="4.8483" r="0.8500" /> 
</g>
<g style="fill:#000000; fill-opacity:1.0000; stroke:none;">
<circle cx="12.0936" cy="4.8483" r="0.8500" /> 
<path style="fill:#000000; fill-opacity:1.0000; stroke:none;fill-rule:evenodd;"
d="M 6.1636,5.6982
6.1636,3.9982
7.8636,3.9982
7.8636,5.6982
Z" /> 
</g>
<g style="fill:#000000; fill-opacity:1.0000; stroke:none;">
<circle cx="9.5536" cy="4.8483" r="0.8500" /> 
</g>
<g style="fill:#000000; fill-opacity:1.0000; stroke:none;">
<circle cx="12.0936" cy="4.8483" r="0.8500" /> 
<path style="fill:#000000; fill-opacity:1.0000; stroke:none;fill-rule:evenodd;"
d="M 6.1636,5.6982
6.1636,3.9982
7.8636,3.9982
7.8636,5.6982
Z" /> 
</g>
<g style="fill:#000000; fill-opacity:1.0000; stroke:none;">
<circle cx="9.5536" cy="4.8483" r="0.8500" /> 
</g>
<g style="fill:#000000; fill-opacity:1.0000; stroke:none;">
<circle cx="12.0936" cy="4.8483" r="0.8500" /> 
<path style="fill:#000000; fill-opacity:1.0000; stroke:none;fill-rule:evenodd;"
d="M 6.1636,5.6982
6.1636,3.9982
7.8636,3.9982
7.8636,5.6982
Z" /> 
</g>
<g style="fill:#000000; fill-opacity:1.0000; stroke:none;">
<circle cx="9.5536" cy="4.8483" r="0.8500" /> 
</g>
<g style="fill:#000000; fill-opacity:1.0000; stroke:none;">
<circle cx="12.0936" cy="4.8483" r="0.8500" /> 
<path style="fill:#000000; fill-opacity:1.0000; stroke:none;fill-rule:evenodd;"
d="M 6.1636,5.6982
6.1636,3.9982
7.8636,3.9982
7.8636,5.6982
Z" /> 
</g>
<g style="fill:#000000; fill-opacity:1.0000; stroke:none;">
<circle cx="9.5536" cy="4.8483" r="0.8500" /> 
</g>
<g style="fill:#000000; fill-opacity:1.0000; stroke:none;">
<circle cx="12.0936" cy="4.8483" r="0.8500" /> 
<path style="fill:#000000; fill-opacity:1.0000; stroke:none;fill-rule:evenodd;"
d="M 6.1636,5.6982
6.1636,3.9982
7.8636,3.9982
7.8636,5.6982
Z" /> 
</g>
<g style="fill:#000000; fill-opacity:1.0000; stroke:none;">
<circle cx="9.5536" cy="4.8483" r="0.8500" /> 
</g>
<g style="fill:#000000; fill-opacity:1.0000; stroke:none;">
<circle cx="12.0936" cy="4.8483" r="0.8500" /> 
<path style="fill:#000000; fill-opacity:1.0000; stroke:none;fill-rule:evenodd;"
d="M 6.1636,5.6982
6.1636,3.9982
7.8636,3.9982
7.8636,5.6982
Z" /> 
</g>
<g style="fill:#000000; fill-opacity:1.0000; stroke:none;">
<circle cx="9.5536" cy="4.8483" r="0.8500" /> 
</g>
<g style="fill:#000000; fill-opacity:1.0000; stroke:none;">
<circle cx="12.0936" cy="4.8483" r="0.8500" /> 
<path style="fill:#000000; fill-opacity:1.0000; stroke:none;fill-rule:evenodd;"
d="M 6.1636,5.6982
6.1636,3.9982
7.8636,3.9982
7.8636,5.6982
Z" /> 
</g>
<g style="fill:#000000; fill-opacity:1.0000; stroke:none;">
<circle cx="9.5536" cy="4.8483" r="0.8500" /> 
</g>
<g style="fill:#000000; fill-opacity:1.0000; stroke:none;">
<circle cx="12.0936" cy="4.8483" r="0.8500" /> 
<path style="fill:#000000; fill-opacity:1.0000; stroke:none;fill-rule:evenodd;"
d="M 6.1636,5.6982
6.1636,3.9982
7.8636,3.9982
7.8636,5.6982
Z" /> 
</g>
<g style="fill:#000000; fill-opacity:1.0000; stroke:none;">
<circle cx="9.5536" cy="4.8483" r="0.8500" /> 
</g>
<g style="fill:#000000; fill-opacity:1.0000; stroke:none;">
<circle cx="12.0936" cy="4.8483" r="0.8500" /> 
<path style="fill:#000000; fill-opacity:1.0000; stroke:none;fill-rule:evenodd;"
d="M 6.1636,5.6982
6.1636,3.9982
7.8636,3.9982
7.8636,5.6982
Z" /> 
</g>
<g style="fill:#000000; fill-opacity:1.0000; stroke:none;">
<circle cx="9.5536" cy="4.8483" r="0.8500" /> 
</g>
<g style="fill:#000000; fill-opacity:1.0000; stroke:none;">
<circle cx="12.0936" cy="4.8483" r="0.8500" /> 
<path style="fill:#000000; fill-opacity:1.0000; stroke:none;fill-rule:evenodd;"
d="M 6.1636,5.6982
6.1636,3.9982
7.8636,3.9982
7.8636,5.6982
Z" /> 
</g>
<g style="fill:#000000; fill-opacity:1.0000; stroke:none;">
<circle cx="9.5536" cy="4.8483" r="0.8500" /> 
</g>
<g style="fill:#000000; fill-opacity:1.0000; stroke:none;">
<circle cx="12.0936" cy="4.8483" r="0.8500" /> 
<path style="fill:#000000; fill-opacity:1.0000; stroke:none;fill-rule:evenodd;"
d="M 6.1636,5.6982
6.1636,3.9982
7.8636,3.9982
7.8636,5.6982
Z" /> 
</g>
<g style="fill:#000000; fill-opacity:1.0000; stroke:none;">
<circle cx="9.5536" cy="4.8483" r="0.8500" /> 
</g>
<g style="fill:#000000; fill-opacity:1.0000; stroke:none;">
<circle cx="12.0936" cy="4.8483" r="0.8500" /> 
<path style="fill:#000000; fill-opacity:1.0000; stroke:none;fill-rule:evenodd;"
d="M 6.1636,5.6982
6.1636,3.9982
7.8636,3.9982
7.8636,5.6982
Z" /> 
</g>
<g style="fill:#000000; fill-opacity:1.0000; stroke:none;">
<circle cx="9.5536" cy="4.8483" r="0.8500" /> 
</g>
<g style="fill:#000000; fill-opacity:1.0000; stroke:none;">
<circle cx="12.0936" cy="4.8483" r="0.8500" /> 
<path style="fill:#000000; fill-opacity:1.0000; stroke:none;fill-rule:evenodd;"
d="M 6.1636,5.6982
6.1636,3.9982
7.8636,3.9982
7.8636,5.6982
Z" /> 
</g>
<g style="fill:#000000; fill-opacity:1.0000; stroke:none;">
<circle cx="9.5536" cy="4.8483" r="0.8500" /> 
</g>
<g style="fill:#000000; fill-opacity:1.0000; stroke:none;">
<circle cx="12.0936" cy="4.8483" r="0.8500" /> 
<path style="fill:#000000; fill-opacity:1.0000; stroke:none;fill-rule:evenodd;"
d="M 6.1636,5.6982
6.1636,3.9982
7.8636,3.9982
7.8636,5.6982
Z" /> 
</g>
<g style="fill:#000000; fill-opacity:1.0000; stroke:none;">
<circle cx="9.5536" cy="4.8483" r="0.8500" /> 
</g>
<g style="fill:#000000; fill-opacity:1.0000; stroke:none;">
<circle cx="12.0936" cy="4.8483" r="0.8500" /> 
<path style="fill:#000000; fill-opacity:1.0000; stroke:none;fill-rule:evenodd;"
d="M 6.1636,5.6982
6.1636,3.9982
7.8636,3.9982
7.8636,5.6982
Z" /> 
</g>
<g style="fill:#000000; fill-opacity:1.0000; stroke:none;">
<circle cx="9.5536" cy="4.8483" r="0.8500" /> 
</g>
<g style="fill:#000000; fill-opacity:1.0000; stroke:none;">
<circle cx="12.0936" cy="4.8483" r="0.8500" /> 
<path style="fill:#000000; fill-opacity:1.0000; stroke:none;fill-rule:evenodd;"
d="M 6.1636,5.6982
6.1636,3.9982
7.8636,3.9982
7.8636,5.6982
Z" /> 
</g>
<g style="fill:#000000; fill-opacity:1.0000; stroke:none;">
<circle cx="9.5536" cy="4.8483" r="0.8500" /> 
</g>
<g style="fill:#000000; fill-opacity:1.0000; stroke:none;">
<circle cx="12.0936" cy="4.8483" r="0.8500" /> 
<path style="fill:#000000; fill-opacity:1.0000; stroke:none;fill-rule:evenodd;"
d="M 6.1636,5.6982
6.1636,3.9982
7.8636,3.9982
7.8636,5.6982
Z" /> 
</g>
<g style="fill:#000000; fill-opacity:1.0000; stroke:none;">
<circle cx="9.5536" cy="4.8483" r="0.8500" /> 
</g>
<g style="fill:#000000; fill-opacity:1.0000; stroke:none;">
<circle cx="12.0936" cy="4.8483" r="0.8500" /> 
<path style="fill:#000000; fill-opacity:1.0000; stroke:none;fill-rule:evenodd;"
d="M 6.1636,5.6982
6.1636,3.9982
7.8636,3.9982
7.8636,5.6982
Z" /> 
</g>
<g style="fill:#000000; fill-opacity:1.0000; stroke:none;">
<circle cx="9.5536" cy="4.8483" r="0.8500" /> 
</g>
<g style="fill:#000000; fill-opacity:1.0000; stroke:none;">
<circle cx="12.0936" cy="4.8483" r="0.8500" /> 
<path style="fill:#000000; fill-opacity:1.0000; stroke:none;fill-rule:evenodd;"
d="M 6.1636,5.6982
6.1636,3.9982
7.8636,3.9982
7.8636,5.6982
Z" /> 
</g>
<g style="fill:#000000; fill-opacity:1.0000; stroke:none;">
<circle cx="9.5536" cy="4.8483" r="0.8500" /> 
</g>
<g style="fill:#000000; fill-opacity:1.0000; stroke:none;">
<circle cx="12.0936" cy="4.8483" r="0.8500" /> 
<path style="fill:#000000; fill-opacity:1.0000; stroke:none;fill-rule:evenodd;"
d="M 6.1636,5.6982
6.1636,3.9982
7.8636,3.9982
7.8636,5.6982
Z" /> 
</g>
<g style="fill:#000000; fill-opacity:1.0000; stroke:none;">
<circle cx="9.5536" cy="4.8483" r="0.8500" /> 
</g>
<g style="fill:#000000; fill-opacity:1.0000; stroke:none;">
<circle cx="12.0936" cy="4.8483" r="0.8500" /> 
<path style="fill:#000000; fill-opacity:1.0000; stroke:none;fill-rule:evenodd;"
d="M 6.1636,5.6982
6.1636,3.9982
7.8636,3.9982
7.8636,5.6982
Z" /> 
</g>
<g style="fill:#000000; fill-opacity:1.0000; stroke:none;">
<circle cx="9.5536" cy="4.8483" r="0.8500" /> 
</g>
<g style="fill:#000000; fill-opacity:1.0000; stroke:none;">
<circle cx="12.0936" cy="4.8483" r="0.8500" /> 
<path style="fill:#000000; fill-opacity:1.0000; stroke:none;fill-rule:evenodd;"
d="M 6.1636,5.6982
6.1636,3.9982
7.8636,3.9982
7.8636,5.6982
Z" /> 
</g>
<g style="fill:#000000; fill-opacity:1.0000; stroke:none;">
<circle cx="9.5536" cy="4.8483" r="0.8500" /> 
</g>
<g style="fill:#000000; fill-opacity:1.0000; stroke:none;">
<circle cx="12.0936" cy="4.8483" r="0.8500" /> 
<path style="fill:#000000; fill-opacity:1.0000; stroke:none;fill-rule:evenodd;"
d="M 6.1636,5.6982
6.1636,3.9982
7.8636,3.9982
7.8636,5.6982
Z" /> 
</g>
<g style="fill:#000000; fill-opacity:1.0000; stroke:none;">
<circle cx="9.5536" cy="4.8483" r="0.8500" /> 
</g>
<g style="fill:#000000; fill-opacity:1.0000; stroke:none;">
<circle cx="12.0936" cy="4.8483" r="0.8500" /> 
<path style="fill:#000000; fill-opacity:1.0000; stroke:none;fill-rule:evenodd;"
d="M 6.1636,5.6982
6.1636,3.9982
7.8636,3.9982
7.8636,5.6982
Z" /> 
</g>
<g style="fill:#000000; fill-opacity:1.0000; stroke:none;">
<circle cx="9.5536" cy="4.8483" r="0.8500" /> 
</g>
<g style="fill:#000000; fill-opacity:1.0000; stroke:none;">
<circle cx="12.0936" cy="4.8483" r="0.8500" /> 
<path style="fill:#000000; fill-opacity:1.0000; stroke:none;fill-rule:evenodd;"
d="M 6.1636,5.6982
6.1636,3.9982
7.8636,3.9982
7.8636,5.6982
Z" /> 
</g>
<g style="fill:#000000; fill-opacity:1.0000; stroke:none;">
<circle cx="9.5536" cy="4.8483" r="0.8500" /> 
</g>
<g style="fill:#000000; fill-opacity:1.0000; stroke:none;">
<circle cx="12.0936" cy="4.8483" r="0.8500" /> 
<path style="fill:#000000; fill-opacity:1.0000; stroke:none;fill-rule:evenodd;"
d="M 6.1636,5.6982
6.1636,3.9982
7.8636,3.9982
7.8636,5.6982
Z" /> 
</g>
<g style="fill:#000000; fill-opacity:1.0000; stroke:none;">
<circle cx="9.5536" cy="4.8483" r="0.8500" /> 
</g>
<g style="fill:#000000; fill-opacity:1.0000; stroke:none;">
<circle cx="12.0936" cy="4.8483" r="0.8500" /> 
<path style="fill:#000000; fill-opacity:1.0000; stroke:none;fill-rule:evenodd;"
d="M 6.1636,5.6982
6.1636,3.9982
7.8636,3.9982
7.8636,5.6982
Z" /> 
</g>
<g style="fill:#000000; fill-opacity:1.0000; stroke:none;">
<circle cx="9.5536" cy="4.8483" r="0.8500" /> 
</g>
<g style="fill:#000000; fill-opacity:1.0000; stroke:none;">
<circle cx="12.0936" cy="4.8483" r="0.8500" /> 
<path style="fill:#000000; fill-opacity:1.0000; stroke:none;fill-rule:evenodd;"
d="M 6.1636,5.6982
6.1636,3.9982
7.8636,3.9982
7.8636,5.6982
Z" /> 
</g>
<g style="fill:#000000; fill-opacity:1.0000; stroke:none;">
<circle cx="9.5536" cy="4.8483" r="0.8500" /> 
</g>
<g style="fill:#000000; fill-opacity:1.0000; stroke:none;">
<circle cx="12.0936" cy="4.8483" r="0.8500" /> 
<path style="fill:#000000; fill-opacity:1.0000; stroke:none;fill-rule:evenodd;"
d="M 6.1636,5.6982
6.1636,3.9982
7.8636,3.9982
7.8636,5.6982
Z" /> 
</g>
<g style="fill:#000000; fill-opacity:1.0000; stroke:none;">
<circle cx="9.5536" cy="4.8483" r="0.8500" /> 
</g>
<g style="fill:#000000; fill-opacity:1.0000; stroke:none;">
<circle cx="12.0936" cy="4.8483" r="0.8500" /> 
<path style="fill:#000000; fill-opacity:1.0000; stroke:none;fill-rule:evenodd;"
d="M 6.1636,5.6982
6.1636,3.9982
7.8636,3.9982
7.8636,5.6982
Z" /> 
</g>
<g style="fill:#000000; fill-opacity:1.0000; stroke:none;">
<circle cx="9.5536" cy="4.8483" r="0.8500" /> 
</g>
<g style="fill:#000000; fill-opacity:1.0000; stroke:none;">
<circle cx="12.0936" cy="4.8483" r="0.8500" /> 
</g>
<g style="fill:none; 
stroke:#000000; stroke-width:0.1500; stroke-opacity:1; 
stroke-linecap:round; stroke-linejoin:round;">
<text x="9.5536" y="1.3482"
textLength="4.5357" font-size="1.3333" lengthAdjust="spacingAndGlyphs"
text-anchor="middle" opacity="0" stroke-opacity="0">REF**</text>
<g class="stroked-text"><desc>REF**</desc>
<path d="M8.2202 1.3031
L7.8869 0.8269
" />
<path d="M7.6488 1.3031
L7.6488 0.3031
" />
<path d="M7.6488 0.3031
L8.0298 0.3031
" />
<path d="M8.0298 0.3031
L8.1250 0.3507
" />
<path d="M8.1250 0.3507
L8.1726 0.3983
" />
<path d="M8.1726 0.3983
L8.2202 0.4935
" />
<path d="M8.2202 0.4935
L8.2202 0.6364
" />
<path d="M8.2202 0.6364
L8.1726 0.7316
" />
<path d="M8.1726 0.7316
L8.1250 0.7793
" />
<path d="M8.1250 0.7793
L8.0298 0.8269
" />
<path d="M8.0298 0.8269
L7.6488 0.8269
" />
<path d="M8.6488 0.7793
L8.9821 0.7793
" />
<path d="M9.1250 1.3031
L8.6488 1.3031
" />
<path d="M8.6488 1.3031
L8.6488 0.3031
" />
<path d="M8.6488 0.3031
L9.1250 0.3031
" />
<path d="M9.8869 0.7793
L9.5536 0.7793
" />
<path d="M9.5536 1.3031
L9.5536 0.3031
" />
<path d="M9.5536 0.3031
L10.0298 0.3031
" />
<path d="M10.5536 0.3031
L10.5536 0.5412
" />
<path d="M10.3155 0.4459
L10.5536 0.5412
" />
<path d="M10.5536 0.5412
L10.7917 0.4459
" />
<path d="M10.4107 0.7316
L10.5536 0.5412
" />
<path d="M10.5536 0.5412
L10.6964 0.7316
" />
<path d="M11.3155 0.3031
L11.3155 0.5412
" />
<path d="M11.0774 0.4459
L11.3155 0.5412
" />
<path d="M11.3155 0.5412
L11.5536 0.4459
" />
<path d="M11.1726 0.7316
L11.3155 0.5412
" />
<path d="M11.3155 0.5412
L11.4583 0.7316
" />
</g></g>
<g style="fill:none; 
stroke:#000000; stroke-width:0.2500; stroke-opacity:1; 
stroke-linecap:round; stroke-linejoin:round;">
<path d="M13.5736 3.5782
L13.5736 6.1182
" />
<path d="M5.5336 3.5782
L13.5736 3.5782
" />
<path d="M8.3036 3.5782
L8.3036 6.1182
" />
<path d="M5.5336 6.1182
L13.5736 6.1182
" />
<path d="M5.5336 3.5782
L5.5336 6.1182
" />
</g>
<g style="fill:none; 
stroke:#000000; stroke-width:0.1500; stroke-opacity:1; 
stroke-linecap:round; stroke-linejoin:round;">
<text x="9.5536" y="9.3483"
textLength="19.1071" font-size="1.3333" lengthAdjust="spacingAndGlyphs"
text-anchor="middle" opacity="0" stroke-opacity="0">HDR-TH_3P-P2.54-V-M</text>
<g class="stroked-text"><desc>HDR-TH_3P-P2.54-V-M</desc>
<path d="M0.3631 9.3031
L0.3631 8.3031
" />
<path d="M0.3631 8.7793
L0.9345 8.7793
" />
<path d="M0.9345 9.3031
L0.9345 8.3031
" />
<path d="M1.4107 9.3031
L1.4107 8.3031
" />
<path d="M1.4107 8.3031
L1.6488 8.3031
" />
<path d="M1.6488 8.3031
L1.7917 8.3507
" />
<path d="M1.7917 8.3507
L1.8869 8.4459
" />
<path d="M1.8869 8.4459
L1.9345 8.5412
" />
<path d="M1.9345 8.5412
L1.9821 8.7316
" />
<path d="M1.9821 8.7316
L1.9821 8.8745
" />
<path d="M1.9821 8.8745
L1.9345 9.0650
" />
<path d="M1.9345 9.0650
L1.8869 9.1602
" />
<path d="M1.8869 9.1602
L1.7917 9.2554
" />
<path d="M1.7917 9.2554
L1.6488 9.3031
" />
<path d="M1.6488 9.3031
L1.4107 9.3031
" />
<path d="M2.9821 9.3031
L2.6488 8.8269
" />
<path d="M2.4107 9.3031
L2.4107 8.3031
" />
<path d="M2.4107 8.3031
L2.7917 8.3031
" />
<path d="M2.7917 8.3031
L2.8869 8.3507
" />
<path d="M2.8869 8.3507
L2.9345 8.3983
" />
<path d="M2.9345 8.3983
L2.9821 8.4935
" />
<path d="M2.9821 8.4935
L2.9821 8.6364
" />
<path d="M2.9821 8.6364
L2.9345 8.7316
" />
<path d="M2.9345 8.7316
L2.8869 8.7793
" />
<path d="M2.8869 8.7793
L2.7917 8.8269
" />
<path d="M2.7917 8.8269
L2.4107 8.8269
" />
<path d="M3.4107 8.9221
L4.1726 8.9221
" />
<path d="M4.5060 8.3031
L5.0774 8.3031
" />
<path d="M4.7917 9.3031
L4.7917 8.3031
" />
<path d="M5.4107 9.3031
L5.4107 8.3031
" />
<path d="M5.4107 8.7793
L5.9821 8.7793
" />
<path d="M5.9821 9.3031
L5.9821 8.3031
" />
<path d="M6.2202 9.3983
L6.9821 9.3983
" />
<path d="M7.1250 8.3031
L7.7440 8.3031
" />
<path d="M7.7440 8.3031
L7.4107 8.6840
" />
<path d="M7.4107 8.6840
L7.5536 8.6840
" />
<path d="M7.5536 8.6840
L7.6488 8.7316
" />
<path d="M7.6488 8.7316
L7.6964 8.7793
" />
<path d="M7.6964 8.7793
L7.7440 8.8745
" />
<path d="M7.7440 8.8745
L7.7440 9.1126
" />
<path d="M7.7440 9.1126
L7.6964 9.2078
" />
<path d="M7.6964 9.2078
L7.6488 9.2554
" />
<path d="M7.6488 9.2554
L7.5536 9.3031
" />
<path d="M7.5536 9.3031
L7.2679 9.3031
" />
<path d="M7.2679 9.3031
L7.1726 9.2554
" />
<path d="M7.1726 9.2554
L7.1250 9.2078
" />
<path d="M8.1726 9.3031
L8.1726 8.3031
" />
<path d="M8.1726 8.3031
L8.5536 8.3031
" />
<path d="M8.5536 8.3031
L8.6488 8.3507
" />
<path d="M8.6488 8.3507
L8.6964 8.3983
" />
<path d="M8.6964 8.3983
L8.7440 8.4935
" />
<path d="M8.7440 8.4935
L8.7440 8.6364
" />
<path d="M8.7440 8.6364
L8.6964 8.7316
" />
<path d="M8.6964 8.7316
L8.6488 8.7793
" />
<path d="M8.6488 8.7793
L8.5536 8.8269
" />
<path d="M8.5536 8.8269
L8.1726 8.8269
" />
<path d="M9.1726 8.9221
L9.9345 8.9221
" />
<path d="M10.4107 9.3031
L10.4107 8.3031
" />
<path d="M10.4107 8.3031
L10.7917 8.3031
" />
<path d="M10.7917 8.3031
L10.8869 8.3507
" />
<path d="M10.8869 8.3507
L10.9345 8.3983
" />
<path d="M10.9345 8.3983
L10.9821 8.4935
" />
<path d="M10.9821 8.4935
L10.9821 8.6364
" />
<path d="M10.9821 8.6364
L10.9345 8.7316
" />
<path d="M10.9345 8.7316
L10.8869 8.7793
" />
<path d="M10.8869 8.7793
L10.7917 8.8269
" />
<path d="M10.7917 8.8269
L10.4107 8.8269
" />
<path d="M11.3631 8.3983
L11.4107 8.3507
" />
<path d="M11.4107 8.3507
L11.5060 8.3031
" />
<path d="M11.5060 8.3031
L11.7440 8.3031
" />
<path d="M11.7440 8.3031
L11.8393 8.3507
" />
<path d="M11.8393 8.3507
L11.8869 8.3983
" />
<path d="M11.8869 8.3983
L11.9345 8.4935
" />
<path d="M11.9345 8.4935
L11.9345 8.5888
" />
<path d="M11.9345 8.5888
L11.8869 8.7316
" />
<path d="M11.8869 8.7316
L11.3155 9.3031
" />
<path d="M11.3155 9.3031
L11.9345 9.3031
" />
<path d="M12.3631 9.2078
L12.4107 9.2554
" />
<path d="M12.4107 9.2554
L12.3631 9.3031
" />
<path d="M12.3631 9.3031
L12.3155 9.2554
" />
<path d="M12.3155 9.2554
L12.3631 9.2078
" />
<path d="M12.3631 9.2078
L12.3631 9.3031
" />
<path d="M13.3155 8.3031
L12.8393 8.3031
" />
<path d="M12.8393 8.3031
L12.7917 8.7793
" />
<path d="M12.7917 8.7793
L12.8393 8.7316
" />
<path d="M12.8393 8.7316
L12.9345 8.6840
" />
<path d="M12.9345 8.6840
L13.1726 8.6840
" />
<path d="M13.1726 8.6840
L13.2679 8.7316
" />
<path d="M13.2679 8.7316
L13.3155 8.7793
" />
<path d="M13.3155 8.7793
L13.3631 8.8745
" />
<path d="M13.3631 8.8745
L13.3631 9.1126
" />
<path d="M13.3631 9.1126
L13.3155 9.2078
" />
<path d="M13.3155 9.2078
L13.2679 9.2554
" />
<path d="M13.2679 9.2554
L13.1726 9.3031
" />
<path d="M13.1726 9.3031
L12.9345 9.3031
" />
<path d="M12.9345 9.3031
L12.8393 9.2554
" />
<path d="M12.8393 9.2554
L12.7917 9.2078
" />
<path d="M14.2202 8.6364
L14.2202 9.3031
" />
<path d="M13.9821 8.2554
L13.7440 8.9697
" />
<path d="M13.7440 8.9697
L14.3631 8.9697
" />
<path d="M14.7440 8.9221
L15.5060 8.9221
" />
<path d="M15.8393 8.3031
L16.1726 9.3031
" />
<path d="M16.1726 9.3031
L16.5060 8.3031
" />
<path d="M16.8393 8.9221
L17.6012 8.9221
" />
<path d="M18.0774 9.3031
L18.0774 8.3031
" />
<path d="M18.0774 8.3031
L18.4107 9.0174
" />
<path d="M18.4107 9.0174
L18.7440 8.3031
" />
<path d="M18.7440 8.3031
L18.7440 9.3031
" />
</g><text x="9.5536" y="5.3483"
textLength="4.5357" font-size="1.3333" lengthAdjust="spacingAndGlyphs"
text-anchor="middle" opacity="0" stroke-opacity="0">REF**</text>
<g class="stroked-text"><desc>REF**</desc>
<path d="M8.2202 5.3031
L7.8869 4.8269
" />
<path d="M7.6488 5.3031
L7.6488 4.3031
" />
<path d="M7.6488 4.3031
L8.0298 4.3031
" />
<path d="M8.0298 4.3031
L8.1250 4.3507
" />
<path d="M8.1250 4.3507
L8.1726 4.3983
" />
<path d="M8.1726 4.3983
L8.2202 4.4935
" />
<path d="M8.2202 4.4935
L8.2202 4.6364
" />
<path d="M8.2202 4.6364
L8.1726 4.7316
" />
<path d="M8.1726 4.7316
L8.1250 4.7793
" />
<path d="M8.1250 4.7793
L8.0298 4.8269
" />
<path d="M8.0298 4.8269
L7.6488 4.8269
" />
<path d="M8.6488 4.7793
L8.9821 4.7793
" />
<path d="M9.1250 5.3031
L8.6488 5.3031
" />
<path d="M8.6488 5.3031
L8.6488 4.3031
" />
<path d="M8.6488 4.3031
L9.1250 4.3031
" />
<path d="M9.8869 4.7793
L9.5536 4.7793
" />
<path d="M9.5536 5.3031
L9.5536 4.3031
" />
<path d="M9.5536 4.3031
L10.0298 4.3031
" />
<path d="M10.5536 4.3031
L10.5536 4.5412
" />
<path d="M10.3155 4.4459
L10.5536 4.5412
" />
<path d="M10.5536 4.5412
L10.7917 4.4459
" />
<path d="M10.4107 4.7316
L10.5536 4.5412
" />
<path d="M10.5536 4.5412
L10.6964 4.7316
" />
<path d="M11.3155 4.3031
L11.3155 4.5412
" />
<path d="M11.0774 4.4459
L11.3155 4.5412
" />
<path d="M11.3155 4.5412
L11.5536 4.4459
" />
<path d="M11.1726 4.7316
L11.3155 4.5412
" />
<path d="M11.3155 4.5412
L11.4583 4.7316
" />
</g></g>
<g style="fill:none; 
stroke:#000000; stroke-width:0.0600; stroke-opacity:1; 
stroke-linecap:round; stroke-linejoin:round;">
<circle cx="5.7436" cy="6.0982" r="0.0300" /> 
</g> 
</svg>
