<?xml version='1.0' encoding='utf-8'?>
<svg xmlns="http://www.w3.org/2000/svg" version="1.1" width="12.2428mm" height="9.6774mm" viewBox="0.0000 0.0000 12.2428 9.6774">
<title>SVG Image created as LED0805-R-RD.svg date 2026/01/09 08:17:46 </title>
  <desc>Image generated by PCBNEW </desc>
<g style="fill:#000000; fill-opacity:1.0000;stroke:#000000; stroke-opacity:1.0000; stroke-linecap:round; stroke-linejoin:round;" transform="translate(0 0) scale(1 1)">
<path style="fill:#000000; fill-opacity:1.0000; stroke:none;fill-rule:evenodd;" d="M 5.5750,4.1482 5.5750,5.5482 4.5750,5.5482 4.5750,4.1482 Z" /> 
<path style="fill:#000000; fill-opacity:1.0000; stroke:none;fill-rule:evenodd;" d="M 7.6750,4.1482 7.6750,5.5482 6.6750,5.5482 6.6750,4.1482 Z" /> 
<path style="fill:#000000; fill-opacity:1.0000; stroke:none;fill-rule:evenodd;" d="M 5.5750,4.1482 5.5750,5.5482 4.5750,5.5482 4.5750,4.1482 Z" /> 
<path style="fill:#000000; fill-opacity:1.0000; stroke:none;fill-rule:evenodd;" d="M 7.6750,4.1482 7.6750,5.5482 6.6750,5.5482 6.6750,4.1482 Z" /> 
<path style="fill:#000000; fill-opacity:1.0000; stroke:none;fill-rule:evenodd;" d="M 5.5750,4.1482 5.5750,5.5482 4.5750,5.5482 4.5750,4.1482 Z" /> 
<path style="fill:#000000; fill-opacity:1.0000; stroke:none;fill-rule:evenodd;" d="M 7.6750,4.1482 7.6750,5.5482 6.6750,5.5482 6.6750,4.1482 Z" /> 
</g>
<g style="fill:none;  stroke:#000000; stroke-width:0.1500; stroke-opacity:1;  stroke-linecap:round; stroke-linejoin:round;">
</g>
<g style="fill:none;  stroke:#000000; stroke-width:0.2500; stroke-opacity:1;  stroke-linecap:round; stroke-linejoin:round;">
<path d="M6.3250 4.3483 L5.9250 4.7482 " />
<path d="M5.9250 4.7482 L5.8250 4.8483 " />
<path d="M5.8250 4.8483 L5.9250 4.9482 " />
<path d="M5.9250 4.9482 L6.3250 5.3483 " />
<path d="M6.3250 4.3483 L6.3250 5.3483 " />
<path d="M6.5750 5.8682 L8.1250 5.8682 " />
<path d="M8.1250 5.8682 L8.1250 3.8282 " />
<path d="M8.1250 3.8282 L6.5750 3.8282 " />
<path d="M5.7850 5.8882 L4.3150 5.8882 " />
<path d="M4.3150 5.8882 L3.9050 5.4783 " />
<path d="M3.9050 5.4783 L3.9050 4.2082 " />
<path d="M3.9050 4.2082 L4.2850 3.8282 " />
<path d="M4.2850 3.8282 L5.8050 3.8282 " />
</g>
<g style="fill:none;  stroke:#000000; stroke-width:0.1500; stroke-opacity:1;  stroke-linecap:round; stroke-linejoin:round;">
<text x="6.1250" y="9.3483" textLength="12.2500" font-size="1.3333" lengthAdjust="spacingAndGlyphs" text-anchor="middle" opacity="0" stroke-opacity="0">LED0805-R-RD</text>
<g class="stroked-text"><desc>LED0805-R-RD</desc>
<path d="M0.8393 9.3031 L0.3631 9.3031 " />
<path d="M0.3631 9.3031 L0.3631 8.3031 " />
<path d="M1.1726 8.7793 L1.5060 8.7793 " />
<path d="M1.6488 9.3031 L1.1726 9.3031 " />
<path d="M1.1726 9.3031 L1.1726 8.3031 " />
<path d="M1.1726 8.3031 L1.6488 8.3031 " />
<path d="M2.0774 9.3031 L2.0774 8.3031 " />
<path d="M2.0774 8.3031 L2.3155 8.3031 " />
<path d="M2.3155 8.3031 L2.4583 8.3507 " />
<path d="M2.4583 8.3507 L2.5536 8.4459 " />
<path d="M2.5536 8.4459 L2.6012 8.5412 " />
<path d="M2.6012 8.5412 L2.6488 8.7316 " />
<path d="M2.6488 8.7316 L2.6488 8.8745 " />
<path d="M2.6488 8.8745 L2.6012 9.0650 " />
<path d="M2.6012 9.0650 L2.5536 9.1602 " />
<path d="M2.5536 9.1602 L2.4583 9.2554 " />
<path d="M2.4583 9.2554 L2.3155 9.3031 " />
<path d="M2.3155 9.3031 L2.0774 9.3031 " />
<path d="M3.2679 8.3031 L3.3631 8.3031 " />
<path d="M3.3631 8.3031 L3.4583 8.3507 " />
<path d="M3.4583 8.3507 L3.5060 8.3983 " />
<path d="M3.5060 8.3983 L3.5536 8.4935 " />
<path d="M3.5536 8.4935 L3.6012 8.6840 " />
<path d="M3.6012 8.6840 L3.6012 8.9221 " />
<path d="M3.6012 8.9221 L3.5536 9.1126 " />
<path d="M3.5536 9.1126 L3.5060 9.2078 " />
<path d="M3.5060 9.2078 L3.4583 9.2554 " />
<path d="M3.4583 9.2554 L3.3631 9.3031 " />
<path d="M3.3631 9.3031 L3.2679 9.3031 " />
<path d="M3.2679 9.3031 L3.1726 9.2554 " />
<path d="M3.1726 9.2554 L3.1250 9.2078 " />
<path d="M3.1250 9.2078 L3.0774 9.1126 " />
<path d="M3.0774 9.1126 L3.0298 8.9221 " />
<path d="M3.0298 8.9221 L3.0298 8.6840 " />
<path d="M3.0298 8.6840 L3.0774 8.4935 " />
<path d="M3.0774 8.4935 L3.1250 8.3983 " />
<path d="M3.1250 8.3983 L3.1726 8.3507 " />
<path d="M3.1726 8.3507 L3.2679 8.3031 " />
<path d="M4.1726 8.7316 L4.0774 8.6840 " />
<path d="M4.0774 8.6840 L4.0298 8.6364 " />
<path d="M4.0298 8.6364 L3.9821 8.5412 " />
<path d="M3.9821 8.5412 L3.9821 8.4935 " />
<path d="M3.9821 8.4935 L4.0298 8.3983 " />
<path d="M4.0298 8.3983 L4.0774 8.3507 " />
<path d="M4.0774 8.3507 L4.1726 8.3031 " />
<path d="M4.1726 8.3031 L4.3631 8.3031 " />
<path d="M4.3631 8.3031 L4.4583 8.3507 " />
<path d="M4.4583 8.3507 L4.5060 8.3983 " />
<path d="M4.5060 8.3983 L4.5536 8.4935 " />
<path d="M4.5536 8.4935 L4.5536 8.5412 " />
<path d="M4.5536 8.5412 L4.5060 8.6364 " />
<path d="M4.5060 8.6364 L4.4583 8.6840 " />
<path d="M4.4583 8.6840 L4.3631 8.7316 " />
<path d="M4.3631 8.7316 L4.1726 8.7316 " />
<path d="M4.1726 8.7316 L4.0774 8.7793 " />
<path d="M4.0774 8.7793 L4.0298 8.8269 " />
<path d="M4.0298 8.8269 L3.9821 8.9221 " />
<path d="M3.9821 8.9221 L3.9821 9.1126 " />
<path d="M3.9821 9.1126 L4.0298 9.2078 " />
<path d="M4.0298 9.2078 L4.0774 9.2554 " />
<path d="M4.0774 9.2554 L4.1726 9.3031 " />
<path d="M4.1726 9.3031 L4.3631 9.3031 " />
<path d="M4.3631 9.3031 L4.4583 9.2554 " />
<path d="M4.4583 9.2554 L4.5060 9.2078 " />
<path d="M4.5060 9.2078 L4.5536 9.1126 " />
<path d="M4.5536 9.1126 L4.5536 8.9221 " />
<path d="M4.5536 8.9221 L4.5060 8.8269 " />
<path d="M4.5060 8.8269 L4.4583 8.7793 " />
<path d="M4.4583 8.7793 L4.3631 8.7316 " />
<path d="M5.1726 8.3031 L5.2679 8.3031 " />
<path d="M5.2679 8.3031 L5.3631 8.3507 " />
<path d="M5.3631 8.3507 L5.4107 8.3983 " />
<path d="M5.4107 8.3983 L5.4583 8.4935 " />
<path d="M5.4583 8.4935 L5.5060 8.6840 " />
<path d="M5.5060 8.6840 L5.5060 8.9221 " />
<path d="M5.5060 8.9221 L5.4583 9.1126 " />
<path d="M5.4583 9.1126 L5.4107 9.2078 " />
<path d="M5.4107 9.2078 L5.3631 9.2554 " />
<path d="M5.3631 9.2554 L5.2679 9.3031 " />
<path d="M5.2679 9.3031 L5.1726 9.3031 " />
<path d="M5.1726 9.3031 L5.0774 9.2554 " />
<path d="M5.0774 9.2554 L5.0298 9.2078 " />
<path d="M5.0298 9.2078 L4.9821 9.1126 " />
<path d="M4.9821 9.1126 L4.9345 8.9221 " />
<path d="M4.9345 8.9221 L4.9345 8.6840 " />
<path d="M4.9345 8.6840 L4.9821 8.4935 " />
<path d="M4.9821 8.4935 L5.0298 8.3983 " />
<path d="M5.0298 8.3983 L5.0774 8.3507 " />
<path d="M5.0774 8.3507 L5.1726 8.3031 " />
<path d="M6.4107 8.3031 L5.9345 8.3031 " />
<path d="M5.9345 8.3031 L5.8869 8.7793 " />
<path d="M5.8869 8.7793 L5.9345 8.7316 " />
<path d="M5.9345 8.7316 L6.0298 8.6840 " />
<path d="M6.0298 8.6840 L6.2679 8.6840 " />
<path d="M6.2679 8.6840 L6.3631 8.7316 " />
<path d="M6.3631 8.7316 L6.4107 8.7793 " />
<path d="M6.4107 8.7793 L6.4583 8.8745 " />
<path d="M6.4583 8.8745 L6.4583 9.1126 " />
<path d="M6.4583 9.1126 L6.4107 9.2078 " />
<path d="M6.4107 9.2078 L6.3631 9.2554 " />
<path d="M6.3631 9.2554 L6.2679 9.3031 " />
<path d="M6.2679 9.3031 L6.0298 9.3031 " />
<path d="M6.0298 9.3031 L5.9345 9.2554 " />
<path d="M5.9345 9.2554 L5.8869 9.2078 " />
<path d="M6.8869 8.9221 L7.6488 8.9221 " />
<path d="M8.6964 9.3031 L8.3631 8.8269 " />
<path d="M8.1250 9.3031 L8.1250 8.3031 " />
<path d="M8.1250 8.3031 L8.5060 8.3031 " />
<path d="M8.5060 8.3031 L8.6012 8.3507 " />
<path d="M8.6012 8.3507 L8.6488 8.3983 " />
<path d="M8.6488 8.3983 L8.6964 8.4935 " />
<path d="M8.6964 8.4935 L8.6964 8.6364 " />
<path d="M8.6964 8.6364 L8.6488 8.7316 " />
<path d="M8.6488 8.7316 L8.6012 8.7793 " />
<path d="M8.6012 8.7793 L8.5060 8.8269 " />
<path d="M8.5060 8.8269 L8.1250 8.8269 " />
<path d="M9.1250 8.9221 L9.8869 8.9221 " />
<path d="M10.9345 9.3031 L10.6012 8.8269 " />
<path d="M10.3631 9.3031 L10.3631 8.3031 " />
<path d="M10.3631 8.3031 L10.7440 8.3031 " />
<path d="M10.7440 8.3031 L10.8393 8.3507 " />
<path d="M10.8393 8.3507 L10.8869 8.3983 " />
<path d="M10.8869 8.3983 L10.9345 8.4935 " />
<path d="M10.9345 8.4935 L10.9345 8.6364 " />
<path d="M10.9345 8.6364 L10.8869 8.7316 " />
<path d="M10.8869 8.7316 L10.8393 8.7793 " />
<path d="M10.8393 8.7793 L10.7440 8.8269 " />
<path d="M10.7440 8.8269 L10.3631 8.8269 " />
<path d="M11.3631 9.3031 L11.3631 8.3031 " />
<path d="M11.3631 8.3031 L11.6012 8.3031 " />
<path d="M11.6012 8.3031 L11.7440 8.3507 " />
<path d="M11.7440 8.3507 L11.8393 8.4459 " />
<path d="M11.8393 8.4459 L11.8869 8.5412 " />
<path d="M11.8869 8.5412 L11.9345 8.7316 " />
<path d="M11.9345 8.7316 L11.9345 8.8745 " />
<path d="M11.9345 8.8745 L11.8869 9.0650 " />
<path d="M11.8869 9.0650 L11.8393 9.1602 " />
<path d="M11.8393 9.1602 L11.7440 9.2554 " />
<path d="M11.7440 9.2554 L11.6012 9.3031 " />
<path d="M11.6012 9.3031 L11.3631 9.3031 " />
</g></g>
<g style="fill:none;  stroke:#000000; stroke-width:0.0600; stroke-opacity:1;  stroke-linecap:round; stroke-linejoin:round;">
<circle cx="7.1250" cy="4.2182" r="0.0300" /> 
</g> 
</svg>