<?xml version='1.0' encoding='utf-8'?>
<svg xmlns="http://www.w3.org/2000/svg" version="1.1" width="14.3764mm" height="9.6774mm" viewBox="0.0000 0.0000 14.3764 9.6774">
<title>SVG Image created as LED0603-FD_BLUE.svg date 2026/01/09 08:17:46 </title>
  <desc>Image generated by PCBNEW </desc>
<g style="fill:#000000; fill-opacity:1.0000;stroke:#000000; stroke-opacity:1.0000; stroke-linecap:round; stroke-linejoin:round;" transform="translate(0 0) scale(1 1)">
<path style="fill:#000000; fill-opacity:1.0000; stroke:none;fill-rule:evenodd;" d="M 8.3164,4.3982 8.3164,5.2982 7.5164,5.2982 7.5164,4.3982 Z" /> 
<path style="fill:#000000; fill-opacity:1.0000; stroke:none;fill-rule:evenodd;" d="M 6.8764,4.3982 6.8764,5.2982 6.0764,5.2982 6.0764,4.3982 Z" /> 
<path style="fill:#000000; fill-opacity:1.0000; stroke:none;fill-rule:evenodd;" d="M 8.3164,4.3982 8.3164,5.2982 7.5164,5.2982 7.5164,4.3982 Z" /> 
<path style="fill:#000000; fill-opacity:1.0000; stroke:none;fill-rule:evenodd;" d="M 6.8764,4.3982 6.8764,5.2982 6.0764,5.2982 6.0764,4.3982 Z" /> 
<path style="fill:#000000; fill-opacity:1.0000; stroke:none;fill-rule:evenodd;" d="M 8.3164,4.3982 8.3164,5.2982 7.5164,5.2982 7.5164,4.3982 Z" /> 
<path style="fill:#000000; fill-opacity:1.0000; stroke:none;fill-rule:evenodd;" d="M 6.8764,4.3982 6.8764,5.2982 6.0764,5.2982 6.0764,4.3982 Z" /> 
</g>
<g style="fill:none;  stroke:#000000; stroke-width:0.1500; stroke-opacity:1;  stroke-linecap:round; stroke-linejoin:round;">
<path d="M7.2864 4.5082 L7.2864 4.9982 " />
<path d="M7.2864 4.9982 L7.2364 5.0382 " />
<path d="M6.9964 4.7982 L7.3964 5.2482 " />
<path d="M7.3964 5.2482 L7.3964 4.3982 " />
<path d="M7.3864 4.4082 L6.9964 4.7982 " />
<path d="M7.1564 4.6383 L7.1564 4.9482 " />
<path d="M7.1564 4.9482 L7.1464 4.9482 " />
<path d="M7.2964 4.7982 L6.9964 4.7982 " />
<path d="M6.7964 4.0882 L5.9964 4.0983 " />
<path d="M6.8764 5.6082 L5.9964 5.5983 " />
<path d="M7.3264 5.5983 L8.5764 5.5983 " />
<path d="M5.6964 5.1982 L5.6964 5.2982 " />
<path d="M5.6964 5.2982 L5.9964 5.5983 " />
<path d="M5.6964 4.4982 L5.6964 4.3982 " />
<path d="M5.6964 4.3982 L5.9964 4.0983 " />
<path d="M5.6964 4.4982 L5.6964 5.1982 " />
<path d="M8.5764 4.0983 L8.5764 5.5782 " />
<path d="M7.3264 4.0983 L8.5764 4.0983 " />
<text x="7.1964" y="9.3483" textLength="14.3929" font-size="1.3333" lengthAdjust="spacingAndGlyphs" text-anchor="middle" opacity="0" stroke-opacity="0">LED0603-FD_BLUE</text>
<g class="stroked-text"><desc>LED0603-FD_BLUE</desc>
<path d="M0.8393 9.3031 L0.3631 9.3031 " />
<path d="M0.3631 9.3031 L0.3631 8.3031 " />
<path d="M1.1726 8.7793 L1.5060 8.7793 " />
<path d="M1.6488 9.3031 L1.1726 9.3031 " />
<path d="M1.1726 9.3031 L1.1726 8.3031 " />
<path d="M1.1726 8.3031 L1.6488 8.3031 " />
<path d="M2.0774 9.3031 L2.0774 8.3031 " />
<path d="M2.0774 8.3031 L2.3155 8.3031 " />
<path d="M2.3155 8.3031 L2.4583 8.3507 " />
<path d="M2.4583 8.3507 L2.5536 8.4459 " />
<path d="M2.5536 8.4459 L2.6012 8.5412 " />
<path d="M2.6012 8.5412 L2.6488 8.7316 " />
<path d="M2.6488 8.7316 L2.6488 8.8745 " />
<path d="M2.6488 8.8745 L2.6012 9.0650 " />
<path d="M2.6012 9.0650 L2.5536 9.1602 " />
<path d="M2.5536 9.1602 L2.4583 9.2554 " />
<path d="M2.4583 9.2554 L2.3155 9.3031 " />
<path d="M2.3155 9.3031 L2.0774 9.3031 " />
<path d="M3.2679 8.3031 L3.3631 8.3031 " />
<path d="M3.3631 8.3031 L3.4583 8.3507 " />
<path d="M3.4583 8.3507 L3.5060 8.3983 " />
<path d="M3.5060 8.3983 L3.5536 8.4935 " />
<path d="M3.5536 8.4935 L3.6012 8.6840 " />
<path d="M3.6012 8.6840 L3.6012 8.9221 " />
<path d="M3.6012 8.9221 L3.5536 9.1126 " />
<path d="M3.5536 9.1126 L3.5060 9.2078 " />
<path d="M3.5060 9.2078 L3.4583 9.2554 " />
<path d="M3.4583 9.2554 L3.3631 9.3031 " />
<path d="M3.3631 9.3031 L3.2679 9.3031 " />
<path d="M3.2679 9.3031 L3.1726 9.2554 " />
<path d="M3.1726 9.2554 L3.1250 9.2078 " />
<path d="M3.1250 9.2078 L3.0774 9.1126 " />
<path d="M3.0774 9.1126 L3.0298 8.9221 " />
<path d="M3.0298 8.9221 L3.0298 8.6840 " />
<path d="M3.0298 8.6840 L3.0774 8.4935 " />
<path d="M3.0774 8.4935 L3.1250 8.3983 " />
<path d="M3.1250 8.3983 L3.1726 8.3507 " />
<path d="M3.1726 8.3507 L3.2679 8.3031 " />
<path d="M4.4583 8.3031 L4.2679 8.3031 " />
<path d="M4.2679 8.3031 L4.1726 8.3507 " />
<path d="M4.1726 8.3507 L4.1250 8.3983 " />
<path d="M4.1250 8.3983 L4.0298 8.5412 " />
<path d="M4.0298 8.5412 L3.9821 8.7316 " />
<path d="M3.9821 8.7316 L3.9821 9.1126 " />
<path d="M3.9821 9.1126 L4.0298 9.2078 " />
<path d="M4.0298 9.2078 L4.0774 9.2554 " />
<path d="M4.0774 9.2554 L4.1726 9.3031 " />
<path d="M4.1726 9.3031 L4.3631 9.3031 " />
<path d="M4.3631 9.3031 L4.4583 9.2554 " />
<path d="M4.4583 9.2554 L4.5060 9.2078 " />
<path d="M4.5060 9.2078 L4.5536 9.1126 " />
<path d="M4.5536 9.1126 L4.5536 8.8745 " />
<path d="M4.5536 8.8745 L4.5060 8.7793 " />
<path d="M4.5060 8.7793 L4.4583 8.7316 " />
<path d="M4.4583 8.7316 L4.3631 8.6840 " />
<path d="M4.3631 8.6840 L4.1726 8.6840 " />
<path d="M4.1726 8.6840 L4.0774 8.7316 " />
<path d="M4.0774 8.7316 L4.0298 8.7793 " />
<path d="M4.0298 8.7793 L3.9821 8.8745 " />
<path d="M5.1726 8.3031 L5.2679 8.3031 " />
<path d="M5.2679 8.3031 L5.3631 8.3507 " />
<path d="M5.3631 8.3507 L5.4107 8.3983 " />
<path d="M5.4107 8.3983 L5.4583 8.4935 " />
<path d="M5.4583 8.4935 L5.5060 8.6840 " />
<path d="M5.5060 8.6840 L5.5060 8.9221 " />
<path d="M5.5060 8.9221 L5.4583 9.1126 " />
<path d="M5.4583 9.1126 L5.4107 9.2078 " />
<path d="M5.4107 9.2078 L5.3631 9.2554 " />
<path d="M5.3631 9.2554 L5.2679 9.3031 " />
<path d="M5.2679 9.3031 L5.1726 9.3031 " />
<path d="M5.1726 9.3031 L5.0774 9.2554 " />
<path d="M5.0774 9.2554 L5.0298 9.2078 " />
<path d="M5.0298 9.2078 L4.9821 9.1126 " />
<path d="M4.9821 9.1126 L4.9345 8.9221 " />
<path d="M4.9345 8.9221 L4.9345 8.6840 " />
<path d="M4.9345 8.6840 L4.9821 8.4935 " />
<path d="M4.9821 8.4935 L5.0298 8.3983 " />
<path d="M5.0298 8.3983 L5.0774 8.3507 " />
<path d="M5.0774 8.3507 L5.1726 8.3031 " />
<path d="M5.8393 8.3031 L6.4583 8.3031 " />
<path d="M6.4583 8.3031 L6.1250 8.6840 " />
<path d="M6.1250 8.6840 L6.2679 8.6840 " />
<path d="M6.2679 8.6840 L6.3631 8.7316 " />
<path d="M6.3631 8.7316 L6.4107 8.7793 " />
<path d="M6.4107 8.7793 L6.4583 8.8745 " />
<path d="M6.4583 8.8745 L6.4583 9.1126 " />
<path d="M6.4583 9.1126 L6.4107 9.2078 " />
<path d="M6.4107 9.2078 L6.3631 9.2554 " />
<path d="M6.3631 9.2554 L6.2679 9.3031 " />
<path d="M6.2679 9.3031 L5.9821 9.3031 " />
<path d="M5.9821 9.3031 L5.8869 9.2554 " />
<path d="M5.8869 9.2554 L5.8393 9.2078 " />
<path d="M6.8869 8.9221 L7.6488 8.9221 " />
<path d="M8.4583 8.7793 L8.1250 8.7793 " />
<path d="M8.1250 9.3031 L8.1250 8.3031 " />
<path d="M8.1250 8.3031 L8.6012 8.3031 " />
<path d="M8.9821 9.3031 L8.9821 8.3031 " />
<path d="M8.9821 8.3031 L9.2202 8.3031 " />
<path d="M9.2202 8.3031 L9.3631 8.3507 " />
<path d="M9.3631 8.3507 L9.4583 8.4459 " />
<path d="M9.4583 8.4459 L9.5060 8.5412 " />
<path d="M9.5060 8.5412 L9.5536 8.7316 " />
<path d="M9.5536 8.7316 L9.5536 8.8745 " />
<path d="M9.5536 8.8745 L9.5060 9.0650 " />
<path d="M9.5060 9.0650 L9.4583 9.1602 " />
<path d="M9.4583 9.1602 L9.3631 9.2554 " />
<path d="M9.3631 9.2554 L9.2202 9.3031 " />
<path d="M9.2202 9.3031 L8.9821 9.3031 " />
<path d="M9.7440 9.3983 L10.5060 9.3983 " />
<path d="M11.0774 8.7793 L11.2202 8.8269 " />
<path d="M11.2202 8.8269 L11.2679 8.8745 " />
<path d="M11.2679 8.8745 L11.3155 8.9697 " />
<path d="M11.3155 8.9697 L11.3155 9.1126 " />
<path d="M11.3155 9.1126 L11.2679 9.2078 " />
<path d="M11.2679 9.2078 L11.2202 9.2554 " />
<path d="M11.2202 9.2554 L11.1250 9.3031 " />
<path d="M11.1250 9.3031 L10.7440 9.3031 " />
<path d="M10.7440 9.3031 L10.7440 8.3031 " />
<path d="M10.7440 8.3031 L11.0774 8.3031 " />
<path d="M11.0774 8.3031 L11.1726 8.3507 " />
<path d="M11.1726 8.3507 L11.2202 8.3983 " />
<path d="M11.2202 8.3983 L11.2679 8.4935 " />
<path d="M11.2679 8.4935 L11.2679 8.5888 " />
<path d="M11.2679 8.5888 L11.2202 8.6840 " />
<path d="M11.2202 8.6840 L11.1726 8.7316 " />
<path d="M11.1726 8.7316 L11.0774 8.7793 " />
<path d="M11.0774 8.7793 L10.7440 8.7793 " />
<path d="M12.2202 9.3031 L11.7440 9.3031 " />
<path d="M11.7440 9.3031 L11.7440 8.3031 " />
<path d="M12.5536 8.3031 L12.5536 9.1126 " />
<path d="M12.5536 9.1126 L12.6012 9.2078 " />
<path d="M12.6012 9.2078 L12.6488 9.2554 " />
<path d="M12.6488 9.2554 L12.7440 9.3031 " />
<path d="M12.7440 9.3031 L12.9345 9.3031 " />
<path d="M12.9345 9.3031 L13.0298 9.2554 " />
<path d="M13.0298 9.2554 L13.0774 9.2078 " />
<path d="M13.0774 9.2078 L13.1250 9.1126 " />
<path d="M13.1250 9.1126 L13.1250 8.3031 " />
<path d="M13.6012 8.7793 L13.9345 8.7793 " />
<path d="M14.0774 9.3031 L13.6012 9.3031 " />
<path d="M13.6012 9.3031 L13.6012 8.3031 " />
<path d="M13.6012 8.3031 L14.0774 8.3031 " />
</g></g>
<g style="fill:none;  stroke:#000000; stroke-width:0.0600; stroke-opacity:1;  stroke-linecap:round; stroke-linejoin:round;">
<circle cx="6.3964" cy="5.2482" r="0.0300" /> 
</g> 
</svg>