<?xml version="1.0" standalone="no"?>
 <!DOCTYPE svg PUBLIC "-//W3C//DTD SVG 1.1//EN" 
 "http://www.w3.org/Graphics/SVG/1.1/DTD/svg11.dtd"> 
<svg
  xmlns:svg="http://www.w3.org/2000/svg"
  xmlns="http://www.w3.org/2000/svg"
  xmlns:xlink="http://www.w3.org/1999/xlink"
  version="1.1"
  width="5.0546mm" height="9.6774mm" viewBox="0.0000 0.0000 5.0546 9.6774">
<title>SVG Image created as R0603.svg date 2026/01/01 22:36:26 </title>
  <desc>Image generated by PCBNEW </desc>
<g style="fill:#000000; fill-opacity:1.0000;stroke:#000000; stroke-opacity:1.0000;
stroke-linecap:round; stroke-linejoin:round;"
 transform="translate(0 0) scale(1 1)">
<path style="fill:#000000; fill-opacity:1.0000; stroke:none;fill-rule:evenodd;"
d="M 2.8748,5.2782
2.8748,4.4182
3.6848,4.4182
3.6848,5.2782
Z" /> 
<path style="fill:#000000; fill-opacity:1.0000; stroke:none;fill-rule:evenodd;"
d="M 1.3748,5.2782
1.3748,4.4182
2.1848,4.4182
2.1848,5.2782
Z" /> 
<path style="fill:#000000; fill-opacity:1.0000; stroke:none;fill-rule:evenodd;"
d="M 2.8748,5.2782
2.8748,4.4182
3.6848,4.4182
3.6848,5.2782
Z" /> 
<path style="fill:#000000; fill-opacity:1.0000; stroke:none;fill-rule:evenodd;"
d="M 1.3748,5.2782
1.3748,4.4182
2.1848,4.4182
2.1848,5.2782
Z" /> 
<path style="fill:#000000; fill-opacity:1.0000; stroke:none;fill-rule:evenodd;"
d="M 2.8748,5.2782
2.8748,4.4182
3.6848,4.4182
3.6848,5.2782
Z" /> 
<path style="fill:#000000; fill-opacity:1.0000; stroke:none;fill-rule:evenodd;"
d="M 1.3748,5.2782
1.3748,4.4182
2.1848,4.4182
2.1848,5.2782
Z" /> 
</g>
<g style="fill:none; 
stroke:#000000; stroke-width:0.1500; stroke-opacity:1; 
stroke-linecap:round; stroke-linejoin:round;">
<text x="2.5298" y="1.3482"
textLength="4.5357" font-size="1.3333" lengthAdjust="spacingAndGlyphs"
text-anchor="middle" opacity="0" stroke-opacity="0">REF**</text>
<g class="stroked-text"><desc>REF**</desc>
<path d="M1.1964 1.3031
L0.8631 0.8269
" />
<path d="M0.6250 1.3031
L0.6250 0.3031
" />
<path d="M0.6250 0.3031
L1.0060 0.3031
" />
<path d="M1.0060 0.3031
L1.1012 0.3507
" />
<path d="M1.1012 0.3507
L1.1488 0.3983
" />
<path d="M1.1488 0.3983
L1.1964 0.4935
" />
<path d="M1.1964 0.4935
L1.1964 0.6364
" />
<path d="M1.1964 0.6364
L1.1488 0.7316
" />
<path d="M1.1488 0.7316
L1.1012 0.7793
" />
<path d="M1.1012 0.7793
L1.0060 0.8269
" />
<path d="M1.0060 0.8269
L0.6250 0.8269
" />
<path d="M1.6250 0.7793
L1.9583 0.7793
" />
<path d="M2.1012 1.3031
L1.6250 1.3031
" />
<path d="M1.6250 1.3031
L1.6250 0.3031
" />
<path d="M1.6250 0.3031
L2.1012 0.3031
" />
<path d="M2.8631 0.7793
L2.5298 0.7793
" />
<path d="M2.5298 1.3031
L2.5298 0.3031
" />
<path d="M2.5298 0.3031
L3.0060 0.3031
" />
<path d="M3.5298 0.3031
L3.5298 0.5412
" />
<path d="M3.2917 0.4459
L3.5298 0.5412
" />
<path d="M3.5298 0.5412
L3.7679 0.4459
" />
<path d="M3.3869 0.7316
L3.5298 0.5412
" />
<path d="M3.5298 0.5412
L3.6726 0.7316
" />
<path d="M4.2917 0.3031
L4.2917 0.5412
" />
<path d="M4.0536 0.4459
L4.2917 0.5412
" />
<path d="M4.2917 0.5412
L4.5298 0.4459
" />
<path d="M4.1488 0.7316
L4.2917 0.5412
" />
<path d="M4.2917 0.5412
L4.4345 0.7316
" />
</g><path d="M2.9598 5.5082
L3.9198 5.5082
" />
<path d="M3.9198 5.5082
L3.9198 4.1883
" />
<path d="M3.9198 4.1883
L2.9598 4.1883
" />
<path d="M2.0998 5.5082
L1.1398 5.5082
" />
<path d="M1.1398 5.5082
L1.1398 4.1883
" />
<path d="M1.1398 4.1883
L2.0998 4.1883
" />
<text x="2.5298" y="9.3483"
textLength="5.0595" font-size="1.3333" lengthAdjust="spacingAndGlyphs"
text-anchor="middle" opacity="0" stroke-opacity="0">R0603</text>
<g class="stroked-text"><desc>R0603</desc>
<path d="M0.9345 9.3031
L0.6012 8.8269
" />
<path d="M0.3631 9.3031
L0.3631 8.3031
" />
<path d="M0.3631 8.3031
L0.7440 8.3031
" />
<path d="M0.7440 8.3031
L0.8393 8.3507
" />
<path d="M0.8393 8.3507
L0.8869 8.3983
" />
<path d="M0.8869 8.3983
L0.9345 8.4935
" />
<path d="M0.9345 8.4935
L0.9345 8.6364
" />
<path d="M0.9345 8.6364
L0.8869 8.7316
" />
<path d="M0.8869 8.7316
L0.8393 8.7793
" />
<path d="M0.8393 8.7793
L0.7440 8.8269
" />
<path d="M0.7440 8.8269
L0.3631 8.8269
" />
<path d="M1.5536 8.3031
L1.6488 8.3031
" />
<path d="M1.6488 8.3031
L1.7440 8.3507
" />
<path d="M1.7440 8.3507
L1.7917 8.3983
" />
<path d="M1.7917 8.3983
L1.8393 8.4935
" />
<path d="M1.8393 8.4935
L1.8869 8.6840
" />
<path d="M1.8869 8.6840
L1.8869 8.9221
" />
<path d="M1.8869 8.9221
L1.8393 9.1126
" />
<path d="M1.8393 9.1126
L1.7917 9.2078
" />
<path d="M1.7917 9.2078
L1.7440 9.2554
" />
<path d="M1.7440 9.2554
L1.6488 9.3031
" />
<path d="M1.6488 9.3031
L1.5536 9.3031
" />
<path d="M1.5536 9.3031
L1.4583 9.2554
" />
<path d="M1.4583 9.2554
L1.4107 9.2078
" />
<path d="M1.4107 9.2078
L1.3631 9.1126
" />
<path d="M1.3631 9.1126
L1.3155 8.9221
" />
<path d="M1.3155 8.9221
L1.3155 8.6840
" />
<path d="M1.3155 8.6840
L1.3631 8.4935
" />
<path d="M1.3631 8.4935
L1.4107 8.3983
" />
<path d="M1.4107 8.3983
L1.4583 8.3507
" />
<path d="M1.4583 8.3507
L1.5536 8.3031
" />
<path d="M2.7440 8.3031
L2.5536 8.3031
" />
<path d="M2.5536 8.3031
L2.4583 8.3507
" />
<path d="M2.4583 8.3507
L2.4107 8.3983
" />
<path d="M2.4107 8.3983
L2.3155 8.5412
" />
<path d="M2.3155 8.5412
L2.2679 8.7316
" />
<path d="M2.2679 8.7316
L2.2679 9.1126
" />
<path d="M2.2679 9.1126
L2.3155 9.2078
" />
<path d="M2.3155 9.2078
L2.3631 9.2554
" />
<path d="M2.3631 9.2554
L2.4583 9.3031
" />
<path d="M2.4583 9.3031
L2.6488 9.3031
" />
<path d="M2.6488 9.3031
L2.7440 9.2554
" />
<path d="M2.7440 9.2554
L2.7917 9.2078
" />
<path d="M2.7917 9.2078
L2.8393 9.1126
" />
<path d="M2.8393 9.1126
L2.8393 8.8745
" />
<path d="M2.8393 8.8745
L2.7917 8.7793
" />
<path d="M2.7917 8.7793
L2.7440 8.7316
" />
<path d="M2.7440 8.7316
L2.6488 8.6840
" />
<path d="M2.6488 8.6840
L2.4583 8.6840
" />
<path d="M2.4583 8.6840
L2.3631 8.7316
" />
<path d="M2.3631 8.7316
L2.3155 8.7793
" />
<path d="M2.3155 8.7793
L2.2679 8.8745
" />
<path d="M3.4583 8.3031
L3.5536 8.3031
" />
<path d="M3.5536 8.3031
L3.6488 8.3507
" />
<path d="M3.6488 8.3507
L3.6964 8.3983
" />
<path d="M3.6964 8.3983
L3.7440 8.4935
" />
<path d="M3.7440 8.4935
L3.7917 8.6840
" />
<path d="M3.7917 8.6840
L3.7917 8.9221
" />
<path d="M3.7917 8.9221
L3.7440 9.1126
" />
<path d="M3.7440 9.1126
L3.6964 9.2078
" />
<path d="M3.6964 9.2078
L3.6488 9.2554
" />
<path d="M3.6488 9.2554
L3.5536 9.3031
" />
<path d="M3.5536 9.3031
L3.4583 9.3031
" />
<path d="M3.4583 9.3031
L3.3631 9.2554
" />
<path d="M3.3631 9.2554
L3.3155 9.2078
" />
<path d="M3.3155 9.2078
L3.2679 9.1126
" />
<path d="M3.2679 9.1126
L3.2202 8.9221
" />
<path d="M3.2202 8.9221
L3.2202 8.6840
" />
<path d="M3.2202 8.6840
L3.2679 8.4935
" />
<path d="M3.2679 8.4935
L3.3155 8.3983
" />
<path d="M3.3155 8.3983
L3.3631 8.3507
" />
<path d="M3.3631 8.3507
L3.4583 8.3031
" />
<path d="M4.1250 8.3031
L4.7440 8.3031
" />
<path d="M4.7440 8.3031
L4.4107 8.6840
" />
<path d="M4.4107 8.6840
L4.5536 8.6840
" />
<path d="M4.5536 8.6840
L4.6488 8.7316
" />
<path d="M4.6488 8.7316
L4.6964 8.7793
" />
<path d="M4.6964 8.7793
L4.7440 8.8745
" />
<path d="M4.7440 8.8745
L4.7440 9.1126
" />
<path d="M4.7440 9.1126
L4.6964 9.2078
" />
<path d="M4.6964 9.2078
L4.6488 9.2554
" />
<path d="M4.6488 9.2554
L4.5536 9.3031
" />
<path d="M4.5536 9.3031
L4.2679 9.3031
" />
<path d="M4.2679 9.3031
L4.1726 9.2554
" />
<path d="M4.1726 9.2554
L4.1250 9.2078
" />
</g><text x="2.5298" y="5.3483"
textLength="4.5357" font-size="1.3333" lengthAdjust="spacingAndGlyphs"
text-anchor="middle" opacity="0" stroke-opacity="0">REF**</text>
<g class="stroked-text"><desc>REF**</desc>
<path d="M1.1964 5.3031
L0.8631 4.8269
" />
<path d="M0.6250 5.3031
L0.6250 4.3031
" />
<path d="M0.6250 4.3031
L1.0060 4.3031
" />
<path d="M1.0060 4.3031
L1.1012 4.3507
" />
<path d="M1.1012 4.3507
L1.1488 4.3983
" />
<path d="M1.1488 4.3983
L1.1964 4.4935
" />
<path d="M1.1964 4.4935
L1.1964 4.6364
" />
<path d="M1.1964 4.6364
L1.1488 4.7316
" />
<path d="M1.1488 4.7316
L1.1012 4.7793
" />
<path d="M1.1012 4.7793
L1.0060 4.8269
" />
<path d="M1.0060 4.8269
L0.6250 4.8269
" />
<path d="M1.6250 4.7793
L1.9583 4.7793
" />
<path d="M2.1012 5.3031
L1.6250 5.3031
" />
<path d="M1.6250 5.3031
L1.6250 4.3031
" />
<path d="M1.6250 4.3031
L2.1012 4.3031
" />
<path d="M2.8631 4.7793
L2.5298 4.7793
" />
<path d="M2.5298 5.3031
L2.5298 4.3031
" />
<path d="M2.5298 4.3031
L3.0060 4.3031
" />
<path d="M3.5298 4.3031
L3.5298 4.5412
" />
<path d="M3.2917 4.4459
L3.5298 4.5412
" />
<path d="M3.5298 4.5412
L3.7679 4.4459
" />
<path d="M3.3869 4.7316
L3.5298 4.5412
" />
<path d="M3.5298 4.5412
L3.6726 4.7316
" />
<path d="M4.2917 4.3031
L4.2917 4.5412
" />
<path d="M4.0536 4.4459
L4.2917 4.5412
" />
<path d="M4.2917 4.5412
L4.5298 4.4459
" />
<path d="M4.1488 4.7316
L4.2917 4.5412
" />
<path d="M4.2917 4.5412
L4.4345 4.7316
" />
</g></g>
<g style="fill:none; 
stroke:#000000; stroke-width:0.0600; stroke-opacity:1; 
stroke-linecap:round; stroke-linejoin:round;">
<circle cx="1.7298" cy="5.2482" r="0.0300" /> 
</g> 
</svg>
