<?xml version='1.0' encoding='utf-8'?>
<svg xmlns="http://www.w3.org/2000/svg" version="1.1" width="25.6286mm" height="9.6774mm" viewBox="0.0000 0.0000 25.6286 9.6774">
<title>SVG Image created as TO-220-3_L10.0-W4.5-P2.54-L.svg date 2026/01/09 08:17:46 </title>
  <desc>Image generated by PCBNEW </desc>
<g style="fill:#000000; fill-opacity:1.0000;stroke:#000000; stroke-opacity:1.0000; stroke-linecap:round; stroke-linejoin:round;" transform="translate(0 0) scale(1 1)">
</g>
<g style="fill:none;  stroke:#000000; stroke-width:1.8000; stroke-opacity:1;  stroke-linecap:round; stroke-linejoin:round;">
<path d="M12.8155 4.4482 L12.8155 5.2482 " />
<path d="M15.3555 4.4482 L15.3555 5.2482 " />
<path style="fill:#000000; fill-opacity:1.0000; stroke:none;fill-rule:evenodd;" d="M 9.3755,6.1482 9.3755,3.5482 11.1755,3.5482 11.1755,6.1482 Z" /> 
</g>
<g style="fill:none;  stroke:#000000; stroke-width:1.8000; stroke-opacity:1;  stroke-linecap:round; stroke-linejoin:round;">
<path d="M12.8155 4.4482 L12.8155 5.2482 " />
<path d="M15.3555 4.4482 L15.3555 5.2482 " />
<path style="fill:#000000; fill-opacity:1.0000; stroke:none;fill-rule:evenodd;" d="M 9.3755,6.1482 9.3755,3.5482 11.1755,3.5482 11.1755,6.1482 Z" /> 
</g>
<g style="fill:none;  stroke:#000000; stroke-width:1.8000; stroke-opacity:1;  stroke-linecap:round; stroke-linejoin:round;">
<path d="M12.8155 4.4482 L12.8155 5.2482 " />
<path d="M15.3555 4.4482 L15.3555 5.2482 " />
<path style="fill:#000000; fill-opacity:1.0000; stroke:none;fill-rule:evenodd;" d="M 9.3755,6.1482 9.3755,3.5482 11.1755,3.5482 11.1755,6.1482 Z" /> 
</g>
<g style="fill:none;  stroke:#000000; stroke-width:1.8000; stroke-opacity:1;  stroke-linecap:round; stroke-linejoin:round;">
<path d="M12.8155 4.4482 L12.8155 5.2482 " />
<path d="M15.3555 4.4482 L15.3555 5.2482 " />
<path style="fill:#000000; fill-opacity:1.0000; stroke:none;fill-rule:evenodd;" d="M 9.3755,6.1482 9.3755,3.5482 11.1755,3.5482 11.1755,6.1482 Z" /> 
</g>
<g style="fill:none;  stroke:#000000; stroke-width:1.8000; stroke-opacity:1;  stroke-linecap:round; stroke-linejoin:round;">
<path d="M12.8155 4.4482 L12.8155 5.2482 " />
<path d="M15.3555 4.4482 L15.3555 5.2482 " />
<path style="fill:#000000; fill-opacity:1.0000; stroke:none;fill-rule:evenodd;" d="M 9.3755,6.1482 9.3755,3.5482 11.1755,3.5482 11.1755,6.1482 Z" /> 
</g>
<g style="fill:none;  stroke:#000000; stroke-width:1.8000; stroke-opacity:1;  stroke-linecap:round; stroke-linejoin:round;">
<path d="M12.8155 4.4482 L12.8155 5.2482 " />
<path d="M15.3555 4.4482 L15.3555 5.2482 " />
<path style="fill:#000000; fill-opacity:1.0000; stroke:none;fill-rule:evenodd;" d="M 9.3755,6.1482 9.3755,3.5482 11.1755,3.5482 11.1755,6.1482 Z" /> 
</g>
<g style="fill:none;  stroke:#000000; stroke-width:1.8000; stroke-opacity:1;  stroke-linecap:round; stroke-linejoin:round;">
<path d="M12.8155 4.4482 L12.8155 5.2482 " />
<path d="M15.3555 4.4482 L15.3555 5.2482 " />
<path style="fill:#000000; fill-opacity:1.0000; stroke:none;fill-rule:evenodd;" d="M 9.3755,6.1482 9.3755,3.5482 11.1755,3.5482 11.1755,6.1482 Z" /> 
</g>
<g style="fill:none;  stroke:#000000; stroke-width:1.8000; stroke-opacity:1;  stroke-linecap:round; stroke-linejoin:round;">
<path d="M12.8155 4.4482 L12.8155 5.2482 " />
<path d="M15.3555 4.4482 L15.3555 5.2482 " />
<path style="fill:#000000; fill-opacity:1.0000; stroke:none;fill-rule:evenodd;" d="M 9.3755,6.1482 9.3755,3.5482 11.1755,3.5482 11.1755,6.1482 Z" /> 
</g>
<g style="fill:none;  stroke:#000000; stroke-width:1.8000; stroke-opacity:1;  stroke-linecap:round; stroke-linejoin:round;">
<path d="M12.8155 4.4482 L12.8155 5.2482 " />
<path d="M15.3555 4.4482 L15.3555 5.2482 " />
<path style="fill:#000000; fill-opacity:1.0000; stroke:none;fill-rule:evenodd;" d="M 9.3755,6.1482 9.3755,3.5482 11.1755,3.5482 11.1755,6.1482 Z" /> 
</g>
<g style="fill:none;  stroke:#000000; stroke-width:1.8000; stroke-opacity:1;  stroke-linecap:round; stroke-linejoin:round;">
<path d="M12.8155 4.4482 L12.8155 5.2482 " />
<path d="M15.3555 4.4482 L15.3555 5.2482 " />
<path style="fill:#000000; fill-opacity:1.0000; stroke:none;fill-rule:evenodd;" d="M 9.3755,6.1482 9.3755,3.5482 11.1755,3.5482 11.1755,6.1482 Z" /> 
</g>
<g style="fill:none;  stroke:#000000; stroke-width:1.8000; stroke-opacity:1;  stroke-linecap:round; stroke-linejoin:round;">
<path d="M12.8155 4.4482 L12.8155 5.2482 " />
<path d="M15.3555 4.4482 L15.3555 5.2482 " />
<path style="fill:#000000; fill-opacity:1.0000; stroke:none;fill-rule:evenodd;" d="M 9.3755,6.1482 9.3755,3.5482 11.1755,3.5482 11.1755,6.1482 Z" /> 
</g>
<g style="fill:none;  stroke:#000000; stroke-width:1.8000; stroke-opacity:1;  stroke-linecap:round; stroke-linejoin:round;">
<path d="M12.8155 4.4482 L12.8155 5.2482 " />
<path d="M15.3555 4.4482 L15.3555 5.2482 " />
<path style="fill:#000000; fill-opacity:1.0000; stroke:none;fill-rule:evenodd;" d="M 9.3755,6.1482 9.3755,3.5482 11.1755,3.5482 11.1755,6.1482 Z" /> 
</g>
<g style="fill:none;  stroke:#000000; stroke-width:1.8000; stroke-opacity:1;  stroke-linecap:round; stroke-linejoin:round;">
<path d="M12.8155 4.4482 L12.8155 5.2482 " />
<path d="M15.3555 4.4482 L15.3555 5.2482 " />
<path style="fill:#000000; fill-opacity:1.0000; stroke:none;fill-rule:evenodd;" d="M 9.3755,6.1482 9.3755,3.5482 11.1755,3.5482 11.1755,6.1482 Z" /> 
</g>
<g style="fill:none;  stroke:#000000; stroke-width:1.8000; stroke-opacity:1;  stroke-linecap:round; stroke-linejoin:round;">
<path d="M12.8155 4.4482 L12.8155 5.2482 " />
<path d="M15.3555 4.4482 L15.3555 5.2482 " />
<path style="fill:#000000; fill-opacity:1.0000; stroke:none;fill-rule:evenodd;" d="M 9.3755,6.1482 9.3755,3.5482 11.1755,3.5482 11.1755,6.1482 Z" /> 
</g>
<g style="fill:none;  stroke:#000000; stroke-width:1.8000; stroke-opacity:1;  stroke-linecap:round; stroke-linejoin:round;">
<path d="M12.8155 4.4482 L12.8155 5.2482 " />
<path d="M15.3555 4.4482 L15.3555 5.2482 " />
<path style="fill:#000000; fill-opacity:1.0000; stroke:none;fill-rule:evenodd;" d="M 9.3755,6.1482 9.3755,3.5482 11.1755,3.5482 11.1755,6.1482 Z" /> 
</g>
<g style="fill:none;  stroke:#000000; stroke-width:1.8000; stroke-opacity:1;  stroke-linecap:round; stroke-linejoin:round;">
<path d="M12.8155 4.4482 L12.8155 5.2482 " />
<path d="M15.3555 4.4482 L15.3555 5.2482 " />
<path style="fill:#000000; fill-opacity:1.0000; stroke:none;fill-rule:evenodd;" d="M 9.3755,6.1482 9.3755,3.5482 11.1755,3.5482 11.1755,6.1482 Z" /> 
</g>
<g style="fill:none;  stroke:#000000; stroke-width:1.8000; stroke-opacity:1;  stroke-linecap:round; stroke-linejoin:round;">
<path d="M12.8155 4.4482 L12.8155 5.2482 " />
<path d="M15.3555 4.4482 L15.3555 5.2482 " />
<path style="fill:#000000; fill-opacity:1.0000; stroke:none;fill-rule:evenodd;" d="M 9.3755,6.1482 9.3755,3.5482 11.1755,3.5482 11.1755,6.1482 Z" /> 
</g>
<g style="fill:none;  stroke:#000000; stroke-width:1.8000; stroke-opacity:1;  stroke-linecap:round; stroke-linejoin:round;">
<path d="M12.8155 4.4482 L12.8155 5.2482 " />
<path d="M15.3555 4.4482 L15.3555 5.2482 " />
<path style="fill:#000000; fill-opacity:1.0000; stroke:none;fill-rule:evenodd;" d="M 9.3755,6.1482 9.3755,3.5482 11.1755,3.5482 11.1755,6.1482 Z" /> 
</g>
<g style="fill:none;  stroke:#000000; stroke-width:1.8000; stroke-opacity:1;  stroke-linecap:round; stroke-linejoin:round;">
<path d="M12.8155 4.4482 L12.8155 5.2482 " />
<path d="M15.3555 4.4482 L15.3555 5.2482 " />
<path style="fill:#000000; fill-opacity:1.0000; stroke:none;fill-rule:evenodd;" d="M 9.3755,6.1482 9.3755,3.5482 11.1755,3.5482 11.1755,6.1482 Z" /> 
</g>
<g style="fill:none;  stroke:#000000; stroke-width:1.8000; stroke-opacity:1;  stroke-linecap:round; stroke-linejoin:round;">
<path d="M12.8155 4.4482 L12.8155 5.2482 " />
<path d="M15.3555 4.4482 L15.3555 5.2482 " />
<path style="fill:#000000; fill-opacity:1.0000; stroke:none;fill-rule:evenodd;" d="M 9.3755,6.1482 9.3755,3.5482 11.1755,3.5482 11.1755,6.1482 Z" /> 
</g>
<g style="fill:none;  stroke:#000000; stroke-width:1.8000; stroke-opacity:1;  stroke-linecap:round; stroke-linejoin:round;">
<path d="M12.8155 4.4482 L12.8155 5.2482 " />
<path d="M15.3555 4.4482 L15.3555 5.2482 " />
<path style="fill:#000000; fill-opacity:1.0000; stroke:none;fill-rule:evenodd;" d="M 9.3755,6.1482 9.3755,3.5482 11.1755,3.5482 11.1755,6.1482 Z" /> 
</g>
<g style="fill:none;  stroke:#000000; stroke-width:1.8000; stroke-opacity:1;  stroke-linecap:round; stroke-linejoin:round;">
<path d="M12.8155 4.4482 L12.8155 5.2482 " />
<path d="M15.3555 4.4482 L15.3555 5.2482 " />
<path style="fill:#000000; fill-opacity:1.0000; stroke:none;fill-rule:evenodd;" d="M 9.3755,6.1482 9.3755,3.5482 11.1755,3.5482 11.1755,6.1482 Z" /> 
</g>
<g style="fill:none;  stroke:#000000; stroke-width:1.8000; stroke-opacity:1;  stroke-linecap:round; stroke-linejoin:round;">
<path d="M12.8155 4.4482 L12.8155 5.2482 " />
<path d="M15.3555 4.4482 L15.3555 5.2482 " />
<path style="fill:#000000; fill-opacity:1.0000; stroke:none;fill-rule:evenodd;" d="M 9.3755,6.1482 9.3755,3.5482 11.1755,3.5482 11.1755,6.1482 Z" /> 
</g>
<g style="fill:none;  stroke:#000000; stroke-width:1.8000; stroke-opacity:1;  stroke-linecap:round; stroke-linejoin:round;">
<path d="M12.8155 4.4482 L12.8155 5.2482 " />
<path d="M15.3555 4.4482 L15.3555 5.2482 " />
<path style="fill:#000000; fill-opacity:1.0000; stroke:none;fill-rule:evenodd;" d="M 9.3755,6.1482 9.3755,3.5482 11.1755,3.5482 11.1755,6.1482 Z" /> 
</g>
<g style="fill:none;  stroke:#000000; stroke-width:1.8000; stroke-opacity:1;  stroke-linecap:round; stroke-linejoin:round;">
<path d="M12.8155 4.4482 L12.8155 5.2482 " />
<path d="M15.3555 4.4482 L15.3555 5.2482 " />
<path style="fill:#000000; fill-opacity:1.0000; stroke:none;fill-rule:evenodd;" d="M 9.3755,6.1482 9.3755,3.5482 11.1755,3.5482 11.1755,6.1482 Z" /> 
</g>
<g style="fill:none;  stroke:#000000; stroke-width:1.8000; stroke-opacity:1;  stroke-linecap:round; stroke-linejoin:round;">
<path d="M12.8155 4.4482 L12.8155 5.2482 " />
<path d="M15.3555 4.4482 L15.3555 5.2482 " />
<path style="fill:#000000; fill-opacity:1.0000; stroke:none;fill-rule:evenodd;" d="M 9.3755,6.1482 9.3755,3.5482 11.1755,3.5482 11.1755,6.1482 Z" /> 
</g>
<g style="fill:none;  stroke:#000000; stroke-width:1.8000; stroke-opacity:1;  stroke-linecap:round; stroke-linejoin:round;">
<path d="M12.8155 4.4482 L12.8155 5.2482 " />
<path d="M15.3555 4.4482 L15.3555 5.2482 " />
<path style="fill:#000000; fill-opacity:1.0000; stroke:none;fill-rule:evenodd;" d="M 9.3755,6.1482 9.3755,3.5482 11.1755,3.5482 11.1755,6.1482 Z" /> 
</g>
<g style="fill:none;  stroke:#000000; stroke-width:1.8000; stroke-opacity:1;  stroke-linecap:round; stroke-linejoin:round;">
<path d="M12.8155 4.4482 L12.8155 5.2482 " />
<path d="M15.3555 4.4482 L15.3555 5.2482 " />
<path style="fill:#000000; fill-opacity:1.0000; stroke:none;fill-rule:evenodd;" d="M 9.3755,6.1482 9.3755,3.5482 11.1755,3.5482 11.1755,6.1482 Z" /> 
</g>
<g style="fill:none;  stroke:#000000; stroke-width:1.8000; stroke-opacity:1;  stroke-linecap:round; stroke-linejoin:round;">
<path d="M12.8155 4.4482 L12.8155 5.2482 " />
<path d="M15.3555 4.4482 L15.3555 5.2482 " />
<path style="fill:#000000; fill-opacity:1.0000; stroke:none;fill-rule:evenodd;" d="M 9.3755,6.1482 9.3755,3.5482 11.1755,3.5482 11.1755,6.1482 Z" /> 
</g>
<g style="fill:none;  stroke:#000000; stroke-width:1.8000; stroke-opacity:1;  stroke-linecap:round; stroke-linejoin:round;">
<path d="M12.8155 4.4482 L12.8155 5.2482 " />
<path d="M15.3555 4.4482 L15.3555 5.2482 " />
<path style="fill:#000000; fill-opacity:1.0000; stroke:none;fill-rule:evenodd;" d="M 9.3755,6.1482 9.3755,3.5482 11.1755,3.5482 11.1755,6.1482 Z" /> 
</g>
<g style="fill:none;  stroke:#000000; stroke-width:1.8000; stroke-opacity:1;  stroke-linecap:round; stroke-linejoin:round;">
<path d="M12.8155 4.4482 L12.8155 5.2482 " />
<path d="M15.3555 4.4482 L15.3555 5.2482 " />
<path style="fill:#000000; fill-opacity:1.0000; stroke:none;fill-rule:evenodd;" d="M 9.3755,6.1482 9.3755,3.5482 11.1755,3.5482 11.1755,6.1482 Z" /> 
</g>
<g style="fill:none;  stroke:#000000; stroke-width:1.8000; stroke-opacity:1;  stroke-linecap:round; stroke-linejoin:round;">
<path d="M12.8155 4.4482 L12.8155 5.2482 " />
<path d="M15.3555 4.4482 L15.3555 5.2482 " />
<path style="fill:#000000; fill-opacity:1.0000; stroke:none;fill-rule:evenodd;" d="M 9.3755,6.1482 9.3755,3.5482 11.1755,3.5482 11.1755,6.1482 Z" /> 
</g>
<g style="fill:none;  stroke:#000000; stroke-width:1.8000; stroke-opacity:1;  stroke-linecap:round; stroke-linejoin:round;">
<path d="M12.8155 4.4482 L12.8155 5.2482 " />
<path d="M15.3555 4.4482 L15.3555 5.2482 " />
<path style="fill:#000000; fill-opacity:1.0000; stroke:none;fill-rule:evenodd;" d="M 9.3755,6.1482 9.3755,3.5482 11.1755,3.5482 11.1755,6.1482 Z" /> 
</g>
<g style="fill:none;  stroke:#000000; stroke-width:1.8000; stroke-opacity:1;  stroke-linecap:round; stroke-linejoin:round;">
<path d="M12.8155 4.4482 L12.8155 5.2482 " />
<path d="M15.3555 4.4482 L15.3555 5.2482 " />
<path style="fill:#000000; fill-opacity:1.0000; stroke:none;fill-rule:evenodd;" d="M 9.3755,6.1482 9.3755,3.5482 11.1755,3.5482 11.1755,6.1482 Z" /> 
</g>
<g style="fill:none;  stroke:#000000; stroke-width:0.1500; stroke-opacity:1;  stroke-linecap:round; stroke-linejoin:round;">
</g>
<g style="fill:none;  stroke:#000000; stroke-width:0.2500; stroke-opacity:1;  stroke-linecap:round; stroke-linejoin:round;">
<path d="M7.5155 1.7582 L18.1155 1.7582 " />
<path d="M18.1155 1.7582 L18.1155 6.5583 " />
<path d="M18.1155 6.5583 L7.5155 6.5583 " />
<path d="M7.5155 6.5583 L7.5155 1.7682 " />
<path d="M7.5155 1.7682 L7.5155 1.7582 " />
<path d="M18.1155 2.3582 L7.5155 2.3582 " />
</g>
<g style="fill:none;  stroke:#000000; stroke-width:0.4000; stroke-opacity:1;  stroke-linecap:round; stroke-linejoin:round;">
<path d="M10.0459 7.1780 A0.1903 0.1903 0.0 1 0 10.0555 7.1782" />
</g>
<g style="fill:none;  stroke:#000000; stroke-width:0.1500; stroke-opacity:1;  stroke-linecap:round; stroke-linejoin:round;">
<text x="12.8155" y="9.3483" textLength="25.6310" font-size="1.3333" lengthAdjust="spacingAndGlyphs" text-anchor="middle" opacity="0" stroke-opacity="0">TO-220-3_L10.0-W4.5-P2.54-L</text>
<g class="stroked-text"><desc>TO-220-3_L10.0-W4.5-P2.54-L</desc>
<path d="M0.2202 8.3031 L0.7917 8.3031 " />
<path d="M0.5060 9.3031 L0.5060 8.3031 " />
<path d="M1.3155 8.3031 L1.5060 8.3031 " />
<path d="M1.5060 8.3031 L1.6012 8.3507 " />
<path d="M1.6012 8.3507 L1.6964 8.4459 " />
<path d="M1.6964 8.4459 L1.7440 8.6364 " />
<path d="M1.7440 8.6364 L1.7440 8.9697 " />
<path d="M1.7440 8.9697 L1.6964 9.1602 " />
<path d="M1.6964 9.1602 L1.6012 9.2554 " />
<path d="M1.6012 9.2554 L1.5060 9.3031 " />
<path d="M1.5060 9.3031 L1.3155 9.3031 " />
<path d="M1.3155 9.3031 L1.2202 9.2554 " />
<path d="M1.2202 9.2554 L1.1250 9.1602 " />
<path d="M1.1250 9.1602 L1.0774 8.9697 " />
<path d="M1.0774 8.9697 L1.0774 8.6364 " />
<path d="M1.0774 8.6364 L1.1250 8.4459 " />
<path d="M1.1250 8.4459 L1.2202 8.3507 " />
<path d="M1.2202 8.3507 L1.3155 8.3031 " />
<path d="M2.1726 8.9221 L2.9345 8.9221 " />
<path d="M3.3631 8.3983 L3.4107 8.3507 " />
<path d="M3.4107 8.3507 L3.5060 8.3031 " />
<path d="M3.5060 8.3031 L3.7440 8.3031 " />
<path d="M3.7440 8.3031 L3.8393 8.3507 " />
<path d="M3.8393 8.3507 L3.8869 8.3983 " />
<path d="M3.8869 8.3983 L3.9345 8.4935 " />
<path d="M3.9345 8.4935 L3.9345 8.5888 " />
<path d="M3.9345 8.5888 L3.8869 8.7316 " />
<path d="M3.8869 8.7316 L3.3155 9.3031 " />
<path d="M3.3155 9.3031 L3.9345 9.3031 " />
<path d="M4.3155 8.3983 L4.3631 8.3507 " />
<path d="M4.3631 8.3507 L4.4583 8.3031 " />
<path d="M4.4583 8.3031 L4.6964 8.3031 " />
<path d="M4.6964 8.3031 L4.7917 8.3507 " />
<path d="M4.7917 8.3507 L4.8393 8.3983 " />
<path d="M4.8393 8.3983 L4.8869 8.4935 " />
<path d="M4.8869 8.4935 L4.8869 8.5888 " />
<path d="M4.8869 8.5888 L4.8393 8.7316 " />
<path d="M4.8393 8.7316 L4.2679 9.3031 " />
<path d="M4.2679 9.3031 L4.8869 9.3031 " />
<path d="M5.5060 8.3031 L5.6012 8.3031 " />
<path d="M5.6012 8.3031 L5.6964 8.3507 " />
<path d="M5.6964 8.3507 L5.7440 8.3983 " />
<path d="M5.7440 8.3983 L5.7917 8.4935 " />
<path d="M5.7917 8.4935 L5.8393 8.6840 " />
<path d="M5.8393 8.6840 L5.8393 8.9221 " />
<path d="M5.8393 8.9221 L5.7917 9.1126 " />
<path d="M5.7917 9.1126 L5.7440 9.2078 " />
<path d="M5.7440 9.2078 L5.6964 9.2554 " />
<path d="M5.6964 9.2554 L5.6012 9.3031 " />
<path d="M5.6012 9.3031 L5.5060 9.3031 " />
<path d="M5.5060 9.3031 L5.4107 9.2554 " />
<path d="M5.4107 9.2554 L5.3631 9.2078 " />
<path d="M5.3631 9.2078 L5.3155 9.1126 " />
<path d="M5.3155 9.1126 L5.2679 8.9221 " />
<path d="M5.2679 8.9221 L5.2679 8.6840 " />
<path d="M5.2679 8.6840 L5.3155 8.4935 " />
<path d="M5.3155 8.4935 L5.3631 8.3983 " />
<path d="M5.3631 8.3983 L5.4107 8.3507 " />
<path d="M5.4107 8.3507 L5.5060 8.3031 " />
<path d="M6.2679 8.9221 L7.0298 8.9221 " />
<path d="M7.4107 8.3031 L8.0298 8.3031 " />
<path d="M8.0298 8.3031 L7.6964 8.6840 " />
<path d="M7.6964 8.6840 L7.8393 8.6840 " />
<path d="M7.8393 8.6840 L7.9345 8.7316 " />
<path d="M7.9345 8.7316 L7.9821 8.7793 " />
<path d="M7.9821 8.7793 L8.0298 8.8745 " />
<path d="M8.0298 8.8745 L8.0298 9.1126 " />
<path d="M8.0298 9.1126 L7.9821 9.2078 " />
<path d="M7.9821 9.2078 L7.9345 9.2554 " />
<path d="M7.9345 9.2554 L7.8393 9.3031 " />
<path d="M7.8393 9.3031 L7.5536 9.3031 " />
<path d="M7.5536 9.3031 L7.4583 9.2554 " />
<path d="M7.4583 9.2554 L7.4107 9.2078 " />
<path d="M8.2202 9.3983 L8.9821 9.3983 " />
<path d="M9.6964 9.3031 L9.2202 9.3031 " />
<path d="M9.2202 9.3031 L9.2202 8.3031 " />
<path d="M10.5536 9.3031 L9.9821 9.3031 " />
<path d="M10.2679 9.3031 L10.2679 8.3031 " />
<path d="M10.2679 8.3031 L10.1726 8.4459 " />
<path d="M10.1726 8.4459 L10.0774 8.5412 " />
<path d="M10.0774 8.5412 L9.9821 8.5888 " />
<path d="M11.1726 8.3031 L11.2679 8.3031 " />
<path d="M11.2679 8.3031 L11.3631 8.3507 " />
<path d="M11.3631 8.3507 L11.4107 8.3983 " />
<path d="M11.4107 8.3983 L11.4583 8.4935 " />
<path d="M11.4583 8.4935 L11.5060 8.6840 " />
<path d="M11.5060 8.6840 L11.5060 8.9221 " />
<path d="M11.5060 8.9221 L11.4583 9.1126 " />
<path d="M11.4583 9.1126 L11.4107 9.2078 " />
<path d="M11.4107 9.2078 L11.3631 9.2554 " />
<path d="M11.3631 9.2554 L11.2679 9.3031 " />
<path d="M11.2679 9.3031 L11.1726 9.3031 " />
<path d="M11.1726 9.3031 L11.0774 9.2554 " />
<path d="M11.0774 9.2554 L11.0298 9.2078 " />
<path d="M11.0298 9.2078 L10.9821 9.1126 " />
<path d="M10.9821 9.1126 L10.9345 8.9221 " />
<path d="M10.9345 8.9221 L10.9345 8.6840 " />
<path d="M10.9345 8.6840 L10.9821 8.4935 " />
<path d="M10.9821 8.4935 L11.0298 8.3983 " />
<path d="M11.0298 8.3983 L11.0774 8.3507 " />
<path d="M11.0774 8.3507 L11.1726 8.3031 " />
<path d="M11.9345 9.2078 L11.9821 9.2554 " />
<path d="M11.9821 9.2554 L11.9345 9.3031 " />
<path d="M11.9345 9.3031 L11.8869 9.2554 " />
<path d="M11.8869 9.2554 L11.9345 9.2078 " />
<path d="M11.9345 9.2078 L11.9345 9.3031 " />
<path d="M12.6012 8.3031 L12.6964 8.3031 " />
<path d="M12.6964 8.3031 L12.7917 8.3507 " />
<path d="M12.7917 8.3507 L12.8393 8.3983 " />
<path d="M12.8393 8.3983 L12.8869 8.4935 " />
<path d="M12.8869 8.4935 L12.9345 8.6840 " />
<path d="M12.9345 8.6840 L12.9345 8.9221 " />
<path d="M12.9345 8.9221 L12.8869 9.1126 " />
<path d="M12.8869 9.1126 L12.8393 9.2078 " />
<path d="M12.8393 9.2078 L12.7917 9.2554 " />
<path d="M12.7917 9.2554 L12.6964 9.3031 " />
<path d="M12.6964 9.3031 L12.6012 9.3031 " />
<path d="M12.6012 9.3031 L12.5060 9.2554 " />
<path d="M12.5060 9.2554 L12.4583 9.2078 " />
<path d="M12.4583 9.2078 L12.4107 9.1126 " />
<path d="M12.4107 9.1126 L12.3631 8.9221 " />
<path d="M12.3631 8.9221 L12.3631 8.6840 " />
<path d="M12.3631 8.6840 L12.4107 8.4935 " />
<path d="M12.4107 8.4935 L12.4583 8.3983 " />
<path d="M12.4583 8.3983 L12.5060 8.3507 " />
<path d="M12.5060 8.3507 L12.6012 8.3031 " />
<path d="M13.3631 8.9221 L14.1250 8.9221 " />
<path d="M14.5060 8.3031 L14.7440 9.3031 " />
<path d="M14.7440 9.3031 L14.9345 8.5888 " />
<path d="M14.9345 8.5888 L15.1250 9.3031 " />
<path d="M15.1250 9.3031 L15.3631 8.3031 " />
<path d="M16.1726 8.6364 L16.1726 9.3031 " />
<path d="M15.9345 8.2554 L15.6964 8.9697 " />
<path d="M15.6964 8.9697 L16.3155 8.9697 " />
<path d="M16.6964 9.2078 L16.7440 9.2554 " />
<path d="M16.7440 9.2554 L16.6964 9.3031 " />
<path d="M16.6964 9.3031 L16.6488 9.2554 " />
<path d="M16.6488 9.2554 L16.6964 9.2078 " />
<path d="M16.6964 9.2078 L16.6964 9.3031 " />
<path d="M17.6488 8.3031 L17.1726 8.3031 " />
<path d="M17.1726 8.3031 L17.1250 8.7793 " />
<path d="M17.1250 8.7793 L17.1726 8.7316 " />
<path d="M17.1726 8.7316 L17.2679 8.6840 " />
<path d="M17.2679 8.6840 L17.5060 8.6840 " />
<path d="M17.5060 8.6840 L17.6012 8.7316 " />
<path d="M17.6012 8.7316 L17.6488 8.7793 " />
<path d="M17.6488 8.7793 L17.6964 8.8745 " />
<path d="M17.6964 8.8745 L17.6964 9.1126 " />
<path d="M17.6964 9.1126 L17.6488 9.2078 " />
<path d="M17.6488 9.2078 L17.6012 9.2554 " />
<path d="M17.6012 9.2554 L17.5060 9.3031 " />
<path d="M17.5060 9.3031 L17.2679 9.3031 " />
<path d="M17.2679 9.3031 L17.1726 9.2554 " />
<path d="M17.1726 9.2554 L17.1250 9.2078 " />
<path d="M18.1250 8.9221 L18.8869 8.9221 " />
<path d="M19.3631 9.3031 L19.3631 8.3031 " />
<path d="M19.3631 8.3031 L19.7440 8.3031 " />
<path d="M19.7440 8.3031 L19.8393 8.3507 " />
<path d="M19.8393 8.3507 L19.8869 8.3983 " />
<path d="M19.8869 8.3983 L19.9345 8.4935 " />
<path d="M19.9345 8.4935 L19.9345 8.6364 " />
<path d="M19.9345 8.6364 L19.8869 8.7316 " />
<path d="M19.8869 8.7316 L19.8393 8.7793 " />
<path d="M19.8393 8.7793 L19.7440 8.8269 " />
<path d="M19.7440 8.8269 L19.3631 8.8269 " />
<path d="M20.3155 8.3983 L20.3631 8.3507 " />
<path d="M20.3631 8.3507 L20.4583 8.3031 " />
<path d="M20.4583 8.3031 L20.6964 8.3031 " />
<path d="M20.6964 8.3031 L20.7917 8.3507 " />
<path d="M20.7917 8.3507 L20.8393 8.3983 " />
<path d="M20.8393 8.3983 L20.8869 8.4935 " />
<path d="M20.8869 8.4935 L20.8869 8.5888 " />
<path d="M20.8869 8.5888 L20.8393 8.7316 " />
<path d="M20.8393 8.7316 L20.2679 9.3031 " />
<path d="M20.2679 9.3031 L20.8869 9.3031 " />
<path d="M21.3155 9.2078 L21.3631 9.2554 " />
<path d="M21.3631 9.2554 L21.3155 9.3031 " />
<path d="M21.3155 9.3031 L21.2679 9.2554 " />
<path d="M21.2679 9.2554 L21.3155 9.2078 " />
<path d="M21.3155 9.2078 L21.3155 9.3031 " />
<path d="M22.2679 8.3031 L21.7917 8.3031 " />
<path d="M21.7917 8.3031 L21.7440 8.7793 " />
<path d="M21.7440 8.7793 L21.7917 8.7316 " />
<path d="M21.7917 8.7316 L21.8869 8.6840 " />
<path d="M21.8869 8.6840 L22.1250 8.6840 " />
<path d="M22.1250 8.6840 L22.2202 8.7316 " />
<path d="M22.2202 8.7316 L22.2679 8.7793 " />
<path d="M22.2679 8.7793 L22.3155 8.8745 " />
<path d="M22.3155 8.8745 L22.3155 9.1126 " />
<path d="M22.3155 9.1126 L22.2679 9.2078 " />
<path d="M22.2679 9.2078 L22.2202 9.2554 " />
<path d="M22.2202 9.2554 L22.1250 9.3031 " />
<path d="M22.1250 9.3031 L21.8869 9.3031 " />
<path d="M21.8869 9.3031 L21.7917 9.2554 " />
<path d="M21.7917 9.2554 L21.7440 9.2078 " />
<path d="M23.1726 8.6364 L23.1726 9.3031 " />
<path d="M22.9345 8.2554 L22.6964 8.9697 " />
<path d="M22.6964 8.9697 L23.3155 8.9697 " />
<path d="M23.6964 8.9221 L24.4583 8.9221 " />
<path d="M25.4107 9.3031 L24.9345 9.3031 " />
<path d="M24.9345 9.3031 L24.9345 8.3031 " />
</g></g>
<g style="fill:none;  stroke:#000000; stroke-width:0.0600; stroke-opacity:1;  stroke-linecap:round; stroke-linejoin:round;">
<circle cx="7.8155" cy="1.8482" r="0.0300" /> 
</g>
<g style="fill:none;  stroke:#000000; stroke-width:0.6000; stroke-opacity:1;  stroke-linecap:round; stroke-linejoin:round;">
<circle cx="9.8955" cy="6.9982" r="0.3000" /> 
</g> 
</svg>