<?xml version='1.0' encoding='utf-8'?>
<svg xmlns="http://www.w3.org/2000/svg" version="1.1" width="32.7152mm" height="17.2974mm" viewBox="0.0000 0.0000 32.7152 17.2974">
<title>SVG Image created as TO-263-7_L10.2-W8.6-P1.27-LS14.4-TL.svg date 2026/01/01 17:58:18 </title>
  <desc>Image generated by PCBNEW </desc>
<g style="fill:#000000; fill-opacity:1.0000;stroke:#000000; stroke-opacity:1.0000; stroke-linecap:round; stroke-linejoin:round;" transform="translate(0 0) scale(1 1)">
<path style="fill:#000000; fill-opacity:1.0000; stroke:none;fill-rule:evenodd;" d="M 16.1031,14.0582 16.1031,3.2582 26.1031,3.2582 26.1031,14.0582 Z" /> 
<path style="fill:#000000; fill-opacity:1.0000; stroke:none;fill-rule:evenodd;" d="M 9.7181,12.9182 9.7181,12.0183 13.5281,12.0183 13.5281,12.9182 Z" /> 
<path style="fill:#000000; fill-opacity:1.0000; stroke:none;fill-rule:evenodd;" d="M 9.7181,11.6482 9.7181,10.7482 13.5281,10.7482 13.5281,11.6482 Z" /> 
<path style="fill:#000000; fill-opacity:1.0000; stroke:none;fill-rule:evenodd;" d="M 9.7181,10.3782 9.7181,9.4782 13.5281,9.4782 13.5281,10.3782 Z" /> 
<path style="fill:#000000; fill-opacity:1.0000; stroke:none;fill-rule:evenodd;" d="M 9.7181,9.1082 9.7181,8.2082 13.5281,8.2082 13.5281,9.1082 Z" /> 
<path style="fill:#000000; fill-opacity:1.0000; stroke:none;fill-rule:evenodd;" d="M 9.7181,7.8382 9.7181,6.9383 13.5281,6.9383 13.5281,7.8382 Z" /> 
<path style="fill:#000000; fill-opacity:1.0000; stroke:none;fill-rule:evenodd;" d="M 9.7181,6.5682 9.7181,5.6682 13.5281,5.6682 13.5281,6.5682 Z" /> 
<path style="fill:#000000; fill-opacity:1.0000; stroke:none;fill-rule:evenodd;" d="M 9.7181,5.2982 9.7181,4.3982 13.5281,4.3982 13.5281,5.2982 Z" /> 
<path style="fill:#000000; fill-opacity:1.0000; stroke:none;fill-rule:evenodd;" d="M 16.1031,14.0582 16.1031,3.2582 26.1031,3.2582 26.1031,14.0582 Z" /> 
<path style="fill:#000000; fill-opacity:1.0000; stroke:none;fill-rule:evenodd;" d="M 9.7181,12.9182 9.7181,12.0183 13.5281,12.0183 13.5281,12.9182 Z" /> 
<path style="fill:#000000; fill-opacity:1.0000; stroke:none;fill-rule:evenodd;" d="M 9.7181,11.6482 9.7181,10.7482 13.5281,10.7482 13.5281,11.6482 Z" /> 
<path style="fill:#000000; fill-opacity:1.0000; stroke:none;fill-rule:evenodd;" d="M 9.7181,10.3782 9.7181,9.4782 13.5281,9.4782 13.5281,10.3782 Z" /> 
<path style="fill:#000000; fill-opacity:1.0000; stroke:none;fill-rule:evenodd;" d="M 9.7181,9.1082 9.7181,8.2082 13.5281,8.2082 13.5281,9.1082 Z" /> 
<path style="fill:#000000; fill-opacity:1.0000; stroke:none;fill-rule:evenodd;" d="M 9.7181,7.8382 9.7181,6.9383 13.5281,6.9383 13.5281,7.8382 Z" /> 
<path style="fill:#000000; fill-opacity:1.0000; stroke:none;fill-rule:evenodd;" d="M 9.7181,6.5682 9.7181,5.6682 13.5281,5.6682 13.5281,6.5682 Z" /> 
<path style="fill:#000000; fill-opacity:1.0000; stroke:none;fill-rule:evenodd;" d="M 9.7181,5.2982 9.7181,4.3982 13.5281,4.3982 13.5281,5.2982 Z" /> 
<path style="fill:#000000; fill-opacity:1.0000; stroke:none;fill-rule:evenodd;" d="M 16.1031,14.0582 16.1031,3.2582 26.1031,3.2582 26.1031,14.0582 Z" /> 
<path style="fill:#000000; fill-opacity:1.0000; stroke:none;fill-rule:evenodd;" d="M 9.7181,12.9182 9.7181,12.0183 13.5281,12.0183 13.5281,12.9182 Z" /> 
<path style="fill:#000000; fill-opacity:1.0000; stroke:none;fill-rule:evenodd;" d="M 9.7181,11.6482 9.7181,10.7482 13.5281,10.7482 13.5281,11.6482 Z" /> 
<path style="fill:#000000; fill-opacity:1.0000; stroke:none;fill-rule:evenodd;" d="M 9.7181,10.3782 9.7181,9.4782 13.5281,9.4782 13.5281,10.3782 Z" /> 
<path style="fill:#000000; fill-opacity:1.0000; stroke:none;fill-rule:evenodd;" d="M 9.7181,9.1082 9.7181,8.2082 13.5281,8.2082 13.5281,9.1082 Z" /> 
<path style="fill:#000000; fill-opacity:1.0000; stroke:none;fill-rule:evenodd;" d="M 9.7181,7.8382 9.7181,6.9383 13.5281,6.9383 13.5281,7.8382 Z" /> 
<path style="fill:#000000; fill-opacity:1.0000; stroke:none;fill-rule:evenodd;" d="M 9.7181,6.5682 9.7181,5.6682 13.5281,5.6682 13.5281,6.5682 Z" /> 
<path style="fill:#000000; fill-opacity:1.0000; stroke:none;fill-rule:evenodd;" d="M 9.7181,5.2982 9.7181,4.3982 13.5281,4.3982 13.5281,5.2982 Z" /> 
</g>
<g style="fill:none;  stroke:#000000; stroke-width:0.1500; stroke-opacity:1;  stroke-linecap:round; stroke-linejoin:round;">
</g>
<g style="fill:none;  stroke:#000000; stroke-width:0.2500; stroke-opacity:1;  stroke-linecap:round; stroke-linejoin:round;">
<path d="M15.8731 3.5482 L15.0031 3.5482 " />
<path d="M15.0031 3.5482 L15.0031 13.7482 " />
<path d="M15.0031 13.7482 L15.8731 13.7482 " />
</g>
<g style="fill:none;  stroke:#000000; stroke-width:0.4000; stroke-opacity:1;  stroke-linecap:round; stroke-linejoin:round;">
<circle cx="14.3331" cy="3.9582" r="0.2000" /> 
</g>
<g style="fill:none;  stroke:#000000; stroke-width:0.1500; stroke-opacity:1;  stroke-linecap:round; stroke-linejoin:round;">
<text x="16.3631" y="16.9682" textLength="32.7262" font-size="1.3333" lengthAdjust="spacingAndGlyphs" text-anchor="middle" opacity="0" stroke-opacity="0">TO-263-7_L10.2-W8.6-P1.27-LS14.4-TL</text>
<g class="stroked-text"><desc>TO-263-7_L10.2-W8.6-P1.27-LS14.4-TL</desc>
<path d="M0.2202 15.9231 L0.7917 15.9231 " />
<path d="M0.5060 16.9231 L0.5060 15.9231 " />
<path d="M1.3155 15.9231 L1.5060 15.9231 " />
<path d="M1.5060 15.9231 L1.6012 15.9707 " />
<path d="M1.6012 15.9707 L1.6964 16.0659 " />
<path d="M1.6964 16.0659 L1.7440 16.2564 " />
<path d="M1.7440 16.2564 L1.7440 16.5897 " />
<path d="M1.7440 16.5897 L1.6964 16.7802 " />
<path d="M1.6964 16.7802 L1.6012 16.8755 " />
<path d="M1.6012 16.8755 L1.5060 16.9231 " />
<path d="M1.5060 16.9231 L1.3155 16.9231 " />
<path d="M1.3155 16.9231 L1.2202 16.8755 " />
<path d="M1.2202 16.8755 L1.1250 16.7802 " />
<path d="M1.1250 16.7802 L1.0774 16.5897 " />
<path d="M1.0774 16.5897 L1.0774 16.2564 " />
<path d="M1.0774 16.2564 L1.1250 16.0659 " />
<path d="M1.1250 16.0659 L1.2202 15.9707 " />
<path d="M1.2202 15.9707 L1.3155 15.9231 " />
<path d="M2.1726 16.5421 L2.9345 16.5421 " />
<path d="M3.3631 16.0183 L3.4107 15.9707 " />
<path d="M3.4107 15.9707 L3.5060 15.9231 " />
<path d="M3.5060 15.9231 L3.7440 15.9231 " />
<path d="M3.7440 15.9231 L3.8393 15.9707 " />
<path d="M3.8393 15.9707 L3.8869 16.0183 " />
<path d="M3.8869 16.0183 L3.9345 16.1135 " />
<path d="M3.9345 16.1135 L3.9345 16.2088 " />
<path d="M3.9345 16.2088 L3.8869 16.3516 " />
<path d="M3.8869 16.3516 L3.3155 16.9231 " />
<path d="M3.3155 16.9231 L3.9345 16.9231 " />
<path d="M4.7917 15.9231 L4.6012 15.9231 " />
<path d="M4.6012 15.9231 L4.5060 15.9707 " />
<path d="M4.5060 15.9707 L4.4583 16.0183 " />
<path d="M4.4583 16.0183 L4.3631 16.1612 " />
<path d="M4.3631 16.1612 L4.3155 16.3516 " />
<path d="M4.3155 16.3516 L4.3155 16.7326 " />
<path d="M4.3155 16.7326 L4.3631 16.8278 " />
<path d="M4.3631 16.8278 L4.4107 16.8755 " />
<path d="M4.4107 16.8755 L4.5060 16.9231 " />
<path d="M4.5060 16.9231 L4.6964 16.9231 " />
<path d="M4.6964 16.9231 L4.7917 16.8755 " />
<path d="M4.7917 16.8755 L4.8393 16.8278 " />
<path d="M4.8393 16.8278 L4.8869 16.7326 " />
<path d="M4.8869 16.7326 L4.8869 16.4945 " />
<path d="M4.8869 16.4945 L4.8393 16.3993 " />
<path d="M4.8393 16.3993 L4.7917 16.3516 " />
<path d="M4.7917 16.3516 L4.6964 16.3040 " />
<path d="M4.6964 16.3040 L4.5060 16.3040 " />
<path d="M4.5060 16.3040 L4.4107 16.3516 " />
<path d="M4.4107 16.3516 L4.3631 16.3993 " />
<path d="M4.3631 16.3993 L4.3155 16.4945 " />
<path d="M5.2202 15.9231 L5.8393 15.9231 " />
<path d="M5.8393 15.9231 L5.5060 16.3040 " />
<path d="M5.5060 16.3040 L5.6488 16.3040 " />
<path d="M5.6488 16.3040 L5.7440 16.3516 " />
<path d="M5.7440 16.3516 L5.7917 16.3993 " />
<path d="M5.7917 16.3993 L5.8393 16.4945 " />
<path d="M5.8393 16.4945 L5.8393 16.7326 " />
<path d="M5.8393 16.7326 L5.7917 16.8278 " />
<path d="M5.7917 16.8278 L5.7440 16.8755 " />
<path d="M5.7440 16.8755 L5.6488 16.9231 " />
<path d="M5.6488 16.9231 L5.3631 16.9231 " />
<path d="M5.3631 16.9231 L5.2679 16.8755 " />
<path d="M5.2679 16.8755 L5.2202 16.8278 " />
<path d="M6.2679 16.5421 L7.0298 16.5421 " />
<path d="M7.4107 15.9231 L8.0774 15.9231 " />
<path d="M8.0774 15.9231 L7.6488 16.9231 " />
<path d="M8.2202 17.0183 L8.9821 17.0183 " />
<path d="M9.6964 16.9231 L9.2202 16.9231 " />
<path d="M9.2202 16.9231 L9.2202 15.9231 " />
<path d="M10.5536 16.9231 L9.9821 16.9231 " />
<path d="M10.2679 16.9231 L10.2679 15.9231 " />
<path d="M10.2679 15.9231 L10.1726 16.0659 " />
<path d="M10.1726 16.0659 L10.0774 16.1612 " />
<path d="M10.0774 16.1612 L9.9821 16.2088 " />
<path d="M11.1726 15.9231 L11.2679 15.9231 " />
<path d="M11.2679 15.9231 L11.3631 15.9707 " />
<path d="M11.3631 15.9707 L11.4107 16.0183 " />
<path d="M11.4107 16.0183 L11.4583 16.1135 " />
<path d="M11.4583 16.1135 L11.5060 16.3040 " />
<path d="M11.5060 16.3040 L11.5060 16.5421 " />
<path d="M11.5060 16.5421 L11.4583 16.7326 " />
<path d="M11.4583 16.7326 L11.4107 16.8278 " />
<path d="M11.4107 16.8278 L11.3631 16.8755 " />
<path d="M11.3631 16.8755 L11.2679 16.9231 " />
<path d="M11.2679 16.9231 L11.1726 16.9231 " />
<path d="M11.1726 16.9231 L11.0774 16.8755 " />
<path d="M11.0774 16.8755 L11.0298 16.8278 " />
<path d="M11.0298 16.8278 L10.9821 16.7326 " />
<path d="M10.9821 16.7326 L10.9345 16.5421 " />
<path d="M10.9345 16.5421 L10.9345 16.3040 " />
<path d="M10.9345 16.3040 L10.9821 16.1135 " />
<path d="M10.9821 16.1135 L11.0298 16.0183 " />
<path d="M11.0298 16.0183 L11.0774 15.9707 " />
<path d="M11.0774 15.9707 L11.1726 15.9231 " />
<path d="M11.9345 16.8278 L11.9821 16.8755 " />
<path d="M11.9821 16.8755 L11.9345 16.9231 " />
<path d="M11.9345 16.9231 L11.8869 16.8755 " />
<path d="M11.8869 16.8755 L11.9345 16.8278 " />
<path d="M11.9345 16.8278 L11.9345 16.9231 " />
<path d="M12.3631 16.0183 L12.4107 15.9707 " />
<path d="M12.4107 15.9707 L12.5060 15.9231 " />
<path d="M12.5060 15.9231 L12.7440 15.9231 " />
<path d="M12.7440 15.9231 L12.8393 15.9707 " />
<path d="M12.8393 15.9707 L12.8869 16.0183 " />
<path d="M12.8869 16.0183 L12.9345 16.1135 " />
<path d="M12.9345 16.1135 L12.9345 16.2088 " />
<path d="M12.9345 16.2088 L12.8869 16.3516 " />
<path d="M12.8869 16.3516 L12.3155 16.9231 " />
<path d="M12.3155 16.9231 L12.9345 16.9231 " />
<path d="M13.3631 16.5421 L14.1250 16.5421 " />
<path d="M14.5060 15.9231 L14.7440 16.9231 " />
<path d="M14.7440 16.9231 L14.9345 16.2088 " />
<path d="M14.9345 16.2088 L15.1250 16.9231 " />
<path d="M15.1250 16.9231 L15.3631 15.9231 " />
<path d="M15.8869 16.3516 L15.7917 16.3040 " />
<path d="M15.7917 16.3040 L15.7440 16.2564 " />
<path d="M15.7440 16.2564 L15.6964 16.1612 " />
<path d="M15.6964 16.1612 L15.6964 16.1135 " />
<path d="M15.6964 16.1135 L15.7440 16.0183 " />
<path d="M15.7440 16.0183 L15.7917 15.9707 " />
<path d="M15.7917 15.9707 L15.8869 15.9231 " />
<path d="M15.8869 15.9231 L16.0774 15.9231 " />
<path d="M16.0774 15.9231 L16.1726 15.9707 " />
<path d="M16.1726 15.9707 L16.2202 16.0183 " />
<path d="M16.2202 16.0183 L16.2679 16.1135 " />
<path d="M16.2679 16.1135 L16.2679 16.1612 " />
<path d="M16.2679 16.1612 L16.2202 16.2564 " />
<path d="M16.2202 16.2564 L16.1726 16.3040 " />
<path d="M16.1726 16.3040 L16.0774 16.3516 " />
<path d="M16.0774 16.3516 L15.8869 16.3516 " />
<path d="M15.8869 16.3516 L15.7917 16.3993 " />
<path d="M15.7917 16.3993 L15.7440 16.4469 " />
<path d="M15.7440 16.4469 L15.6964 16.5421 " />
<path d="M15.6964 16.5421 L15.6964 16.7326 " />
<path d="M15.6964 16.7326 L15.7440 16.8278 " />
<path d="M15.7440 16.8278 L15.7917 16.8755 " />
<path d="M15.7917 16.8755 L15.8869 16.9231 " />
<path d="M15.8869 16.9231 L16.0774 16.9231 " />
<path d="M16.0774 16.9231 L16.1726 16.8755 " />
<path d="M16.1726 16.8755 L16.2202 16.8278 " />
<path d="M16.2202 16.8278 L16.2679 16.7326 " />
<path d="M16.2679 16.7326 L16.2679 16.5421 " />
<path d="M16.2679 16.5421 L16.2202 16.4469 " />
<path d="M16.2202 16.4469 L16.1726 16.3993 " />
<path d="M16.1726 16.3993 L16.0774 16.3516 " />
<path d="M16.6964 16.8278 L16.7440 16.8755 " />
<path d="M16.7440 16.8755 L16.6964 16.9231 " />
<path d="M16.6964 16.9231 L16.6488 16.8755 " />
<path d="M16.6488 16.8755 L16.6964 16.8278 " />
<path d="M16.6964 16.8278 L16.6964 16.9231 " />
<path d="M17.6012 15.9231 L17.4107 15.9231 " />
<path d="M17.4107 15.9231 L17.3155 15.9707 " />
<path d="M17.3155 15.9707 L17.2679 16.0183 " />
<path d="M17.2679 16.0183 L17.1726 16.1612 " />
<path d="M17.1726 16.1612 L17.1250 16.3516 " />
<path d="M17.1250 16.3516 L17.1250 16.7326 " />
<path d="M17.1250 16.7326 L17.1726 16.8278 " />
<path d="M17.1726 16.8278 L17.2202 16.8755 " />
<path d="M17.2202 16.8755 L17.3155 16.9231 " />
<path d="M17.3155 16.9231 L17.5060 16.9231 " />
<path d="M17.5060 16.9231 L17.6012 16.8755 " />
<path d="M17.6012 16.8755 L17.6488 16.8278 " />
<path d="M17.6488 16.8278 L17.6964 16.7326 " />
<path d="M17.6964 16.7326 L17.6964 16.4945 " />
<path d="M17.6964 16.4945 L17.6488 16.3993 " />
<path d="M17.6488 16.3993 L17.6012 16.3516 " />
<path d="M17.6012 16.3516 L17.5060 16.3040 " />
<path d="M17.5060 16.3040 L17.3155 16.3040 " />
<path d="M17.3155 16.3040 L17.2202 16.3516 " />
<path d="M17.2202 16.3516 L17.1726 16.3993 " />
<path d="M17.1726 16.3993 L17.1250 16.4945 " />
<path d="M18.1250 16.5421 L18.8869 16.5421 " />
<path d="M19.3631 16.9231 L19.3631 15.9231 " />
<path d="M19.3631 15.9231 L19.7440 15.9231 " />
<path d="M19.7440 15.9231 L19.8393 15.9707 " />
<path d="M19.8393 15.9707 L19.8869 16.0183 " />
<path d="M19.8869 16.0183 L19.9345 16.1135 " />
<path d="M19.9345 16.1135 L19.9345 16.2564 " />
<path d="M19.9345 16.2564 L19.8869 16.3516 " />
<path d="M19.8869 16.3516 L19.8393 16.3993 " />
<path d="M19.8393 16.3993 L19.7440 16.4469 " />
<path d="M19.7440 16.4469 L19.3631 16.4469 " />
<path d="M20.8869 16.9231 L20.3155 16.9231 " />
<path d="M20.6012 16.9231 L20.6012 15.9231 " />
<path d="M20.6012 15.9231 L20.5060 16.0659 " />
<path d="M20.5060 16.0659 L20.4107 16.1612 " />
<path d="M20.4107 16.1612 L20.3155 16.2088 " />
<path d="M21.3155 16.8278 L21.3631 16.8755 " />
<path d="M21.3631 16.8755 L21.3155 16.9231 " />
<path d="M21.3155 16.9231 L21.2679 16.8755 " />
<path d="M21.2679 16.8755 L21.3155 16.8278 " />
<path d="M21.3155 16.8278 L21.3155 16.9231 " />
<path d="M21.7440 16.0183 L21.7917 15.9707 " />
<path d="M21.7917 15.9707 L21.8869 15.9231 " />
<path d="M21.8869 15.9231 L22.1250 15.9231 " />
<path d="M22.1250 15.9231 L22.2202 15.9707 " />
<path d="M22.2202 15.9707 L22.2679 16.0183 " />
<path d="M22.2679 16.0183 L22.3155 16.1135 " />
<path d="M22.3155 16.1135 L22.3155 16.2088 " />
<path d="M22.3155 16.2088 L22.2679 16.3516 " />
<path d="M22.2679 16.3516 L21.6964 16.9231 " />
<path d="M21.6964 16.9231 L22.3155 16.9231 " />
<path d="M22.6488 15.9231 L23.3155 15.9231 " />
<path d="M23.3155 15.9231 L22.8869 16.9231 " />
<path d="M23.6964 16.5421 L24.4583 16.5421 " />
<path d="M25.4107 16.9231 L24.9345 16.9231 " />
<path d="M24.9345 16.9231 L24.9345 15.9231 " />
<path d="M25.6964 16.8755 L25.8393 16.9231 " />
<path d="M25.8393 16.9231 L26.0774 16.9231 " />
<path d="M26.0774 16.9231 L26.1726 16.8755 " />
<path d="M26.1726 16.8755 L26.2202 16.8278 " />
<path d="M26.2202 16.8278 L26.2679 16.7326 " />
<path d="M26.2679 16.7326 L26.2679 16.6374 " />
<path d="M26.2679 16.6374 L26.2202 16.5421 " />
<path d="M26.2202 16.5421 L26.1726 16.4945 " />
<path d="M26.1726 16.4945 L26.0774 16.4469 " />
<path d="M26.0774 16.4469 L25.8869 16.3993 " />
<path d="M25.8869 16.3993 L25.7917 16.3516 " />
<path d="M25.7917 16.3516 L25.7440 16.3040 " />
<path d="M25.7440 16.3040 L25.6964 16.2088 " />
<path d="M25.6964 16.2088 L25.6964 16.1135 " />
<path d="M25.6964 16.1135 L25.7440 16.0183 " />
<path d="M25.7440 16.0183 L25.7917 15.9707 " />
<path d="M25.7917 15.9707 L25.8869 15.9231 " />
<path d="M25.8869 15.9231 L26.1250 15.9231 " />
<path d="M26.1250 15.9231 L26.2679 15.9707 " />
<path d="M27.2202 16.9231 L26.6488 16.9231 " />
<path d="M26.9345 16.9231 L26.9345 15.9231 " />
<path d="M26.9345 15.9231 L26.8393 16.0659 " />
<path d="M26.8393 16.0659 L26.7440 16.1612 " />
<path d="M26.7440 16.1612 L26.6488 16.2088 " />
<path d="M28.0774 16.2564 L28.0774 16.9231 " />
<path d="M27.8393 15.8754 L27.6012 16.5897 " />
<path d="M27.6012 16.5897 L28.2202 16.5897 " />
<path d="M28.6012 16.8278 L28.6488 16.8755 " />
<path d="M28.6488 16.8755 L28.6012 16.9231 " />
<path d="M28.6012 16.9231 L28.5536 16.8755 " />
<path d="M28.5536 16.8755 L28.6012 16.8278 " />
<path d="M28.6012 16.8278 L28.6012 16.9231 " />
<path d="M29.5059 16.2564 L29.5059 16.9231 " />
<path d="M29.2679 15.8754 L29.0298 16.5897 " />
<path d="M29.0298 16.5897 L29.6488 16.5897 " />
<path d="M30.0298 16.5421 L30.7917 16.5421 " />
<path d="M31.1250 15.9231 L31.6964 15.9231 " />
<path d="M31.4107 16.9231 L31.4107 15.9231 " />
<path d="M32.5059 16.9231 L32.0298 16.9231 " />
<path d="M32.0298 16.9231 L32.0298 15.9231 " />
</g></g>
<g style="fill:none;  stroke:#000000; stroke-width:0.0600; stroke-opacity:1;  stroke-linecap:round; stroke-linejoin:round;">
<circle cx="10.5631" cy="3.5782" r="0.0300" /> 
</g>
<g style="fill:none;  stroke:#000000; stroke-width:0.5000; stroke-opacity:1;  stroke-linecap:round; stroke-linejoin:round;">
<circle cx="12.6831" cy="4.8483" r="0.2500" /> 
</g> 
</svg>