<?xml version='1.0' encoding='utf-8'?>
<svg xmlns="http://www.w3.org/2000/svg" version="1.1" width="26.7970mm" height="16.4846mm" viewBox="0.0000 0.0000 26.7970 16.4846">
<title>SVG Image created as TO-263-5_L10.2-W8.9-P1.70-BR.svg date 2026/01/09 08:17:46 </title>
  <desc>Image generated by PCBNEW </desc>
<g style="fill:#000000; fill-opacity:1.0000;stroke:#000000; stroke-opacity:1.0000; stroke-linecap:round; stroke-linejoin:round;" transform="translate(0 0) scale(1 1)">
<path style="fill:#000000; fill-opacity:1.0000; stroke:none;fill-rule:evenodd;" d="M 17.0307,12.1582 17.0307,11.1382 20.1107,11.1382 20.1107,12.1582 Z" /> 
<path style="fill:#000000; fill-opacity:1.0000; stroke:none;fill-rule:evenodd;" d="M 17.0307,10.4582 17.0307,9.4383 20.1107,9.4383 20.1107,10.4582 Z" /> 
<path style="fill:#000000; fill-opacity:1.0000; stroke:none;fill-rule:evenodd;" d="M 17.0307,8.7583 17.0307,7.7382 20.1107,7.7382 20.1107,8.7583 Z" /> 
<path style="fill:#000000; fill-opacity:1.0000; stroke:none;fill-rule:evenodd;" d="M 17.0307,7.0582 17.0307,6.0382 20.1107,6.0382 20.1107,7.0582 Z" /> 
<path style="fill:#000000; fill-opacity:1.0000; stroke:none;fill-rule:evenodd;" d="M 17.0307,5.3582 17.0307,4.3382 20.1107,4.3382 20.1107,5.3582 Z" /> 
<path style="fill:#000000; fill-opacity:1.0000; stroke:none;fill-rule:evenodd;" d="M 4.0007,13.7482 4.0007,2.7483 12.5007,2.7483 12.5007,13.7482 Z" /> 
<path style="fill:#000000; fill-opacity:1.0000; stroke:none;fill-rule:evenodd;" d="M 17.0307,12.1582 17.0307,11.1382 20.1107,11.1382 20.1107,12.1582 Z" /> 
<path style="fill:#000000; fill-opacity:1.0000; stroke:none;fill-rule:evenodd;" d="M 17.0307,10.4582 17.0307,9.4383 20.1107,9.4383 20.1107,10.4582 Z" /> 
<path style="fill:#000000; fill-opacity:1.0000; stroke:none;fill-rule:evenodd;" d="M 17.0307,8.7583 17.0307,7.7382 20.1107,7.7382 20.1107,8.7583 Z" /> 
<path style="fill:#000000; fill-opacity:1.0000; stroke:none;fill-rule:evenodd;" d="M 17.0307,7.0582 17.0307,6.0382 20.1107,6.0382 20.1107,7.0582 Z" /> 
<path style="fill:#000000; fill-opacity:1.0000; stroke:none;fill-rule:evenodd;" d="M 17.0307,5.3582 17.0307,4.3382 20.1107,4.3382 20.1107,5.3582 Z" /> 
<path style="fill:#000000; fill-opacity:1.0000; stroke:none;fill-rule:evenodd;" d="M 4.0007,13.7482 4.0007,2.7483 12.5007,2.7483 12.5007,13.7482 Z" /> 
<path style="fill:#000000; fill-opacity:1.0000; stroke:none;fill-rule:evenodd;" d="M 17.0307,12.1582 17.0307,11.1382 20.1107,11.1382 20.1107,12.1582 Z" /> 
<path style="fill:#000000; fill-opacity:1.0000; stroke:none;fill-rule:evenodd;" d="M 17.0307,10.4582 17.0307,9.4383 20.1107,9.4383 20.1107,10.4582 Z" /> 
<path style="fill:#000000; fill-opacity:1.0000; stroke:none;fill-rule:evenodd;" d="M 17.0307,8.7583 17.0307,7.7382 20.1107,7.7382 20.1107,8.7583 Z" /> 
<path style="fill:#000000; fill-opacity:1.0000; stroke:none;fill-rule:evenodd;" d="M 17.0307,7.0582 17.0307,6.0382 20.1107,6.0382 20.1107,7.0582 Z" /> 
<path style="fill:#000000; fill-opacity:1.0000; stroke:none;fill-rule:evenodd;" d="M 17.0307,5.3582 17.0307,4.3382 20.1107,4.3382 20.1107,5.3582 Z" /> 
<path style="fill:#000000; fill-opacity:1.0000; stroke:none;fill-rule:evenodd;" d="M 4.0007,13.7482 4.0007,2.7483 12.5007,2.7483 12.5007,13.7482 Z" /> 
</g>
<g style="fill:none;  stroke:#000000; stroke-width:0.1500; stroke-opacity:1;  stroke-linecap:round; stroke-linejoin:round;">
<path d="M14.5607 13.4082 L12.7507 13.4082 " />
<path d="M14.5407 3.0882 L12.7507 3.0882 " />
<path d="M14.4407 3.0882 L14.9107 3.0882 " />
<path d="M14.4407 13.4082 L14.9107 13.4082 " />
<path d="M14.9107 13.4082 L14.9107 3.0882 " />
</g>
<g style="fill:none;  stroke:#000000; stroke-width:0.4000; stroke-opacity:1;  stroke-linecap:round; stroke-linejoin:round;">
<circle cx="18.4707" cy="12.8182" r="0.2000" /> 
</g>
<g style="fill:none;  stroke:#000000; stroke-width:0.1500; stroke-opacity:1;  stroke-linecap:round; stroke-linejoin:round;">
<text x="13.4107" y="16.1483" textLength="26.8214" font-size="1.3333" lengthAdjust="spacingAndGlyphs" text-anchor="middle" opacity="0" stroke-opacity="0">TO-263-5_L10.2-W8.9-P1.70-BR</text>
<g class="stroked-text"><desc>TO-263-5_L10.2-W8.9-P1.70-BR</desc>
<path d="M0.2202 15.1031 L0.7917 15.1031 " />
<path d="M0.5060 16.1031 L0.5060 15.1031 " />
<path d="M1.3155 15.1031 L1.5060 15.1031 " />
<path d="M1.5060 15.1031 L1.6012 15.1507 " />
<path d="M1.6012 15.1507 L1.6964 15.2459 " />
<path d="M1.6964 15.2459 L1.7440 15.4364 " />
<path d="M1.7440 15.4364 L1.7440 15.7697 " />
<path d="M1.7440 15.7697 L1.6964 15.9602 " />
<path d="M1.6964 15.9602 L1.6012 16.0555 " />
<path d="M1.6012 16.0555 L1.5060 16.1031 " />
<path d="M1.5060 16.1031 L1.3155 16.1031 " />
<path d="M1.3155 16.1031 L1.2202 16.0555 " />
<path d="M1.2202 16.0555 L1.1250 15.9602 " />
<path d="M1.1250 15.9602 L1.0774 15.7697 " />
<path d="M1.0774 15.7697 L1.0774 15.4364 " />
<path d="M1.0774 15.4364 L1.1250 15.2459 " />
<path d="M1.1250 15.2459 L1.2202 15.1507 " />
<path d="M1.2202 15.1507 L1.3155 15.1031 " />
<path d="M2.1726 15.7221 L2.9345 15.7221 " />
<path d="M3.3631 15.1983 L3.4107 15.1507 " />
<path d="M3.4107 15.1507 L3.5060 15.1031 " />
<path d="M3.5060 15.1031 L3.7440 15.1031 " />
<path d="M3.7440 15.1031 L3.8393 15.1507 " />
<path d="M3.8393 15.1507 L3.8869 15.1983 " />
<path d="M3.8869 15.1983 L3.9345 15.2935 " />
<path d="M3.9345 15.2935 L3.9345 15.3888 " />
<path d="M3.9345 15.3888 L3.8869 15.5316 " />
<path d="M3.8869 15.5316 L3.3155 16.1031 " />
<path d="M3.3155 16.1031 L3.9345 16.1031 " />
<path d="M4.7917 15.1031 L4.6012 15.1031 " />
<path d="M4.6012 15.1031 L4.5060 15.1507 " />
<path d="M4.5060 15.1507 L4.4583 15.1983 " />
<path d="M4.4583 15.1983 L4.3631 15.3412 " />
<path d="M4.3631 15.3412 L4.3155 15.5316 " />
<path d="M4.3155 15.5316 L4.3155 15.9126 " />
<path d="M4.3155 15.9126 L4.3631 16.0078 " />
<path d="M4.3631 16.0078 L4.4107 16.0555 " />
<path d="M4.4107 16.0555 L4.5060 16.1031 " />
<path d="M4.5060 16.1031 L4.6964 16.1031 " />
<path d="M4.6964 16.1031 L4.7917 16.0555 " />
<path d="M4.7917 16.0555 L4.8393 16.0078 " />
<path d="M4.8393 16.0078 L4.8869 15.9126 " />
<path d="M4.8869 15.9126 L4.8869 15.6745 " />
<path d="M4.8869 15.6745 L4.8393 15.5793 " />
<path d="M4.8393 15.5793 L4.7917 15.5316 " />
<path d="M4.7917 15.5316 L4.6964 15.4840 " />
<path d="M4.6964 15.4840 L4.5060 15.4840 " />
<path d="M4.5060 15.4840 L4.4107 15.5316 " />
<path d="M4.4107 15.5316 L4.3631 15.5793 " />
<path d="M4.3631 15.5793 L4.3155 15.6745 " />
<path d="M5.2202 15.1031 L5.8393 15.1031 " />
<path d="M5.8393 15.1031 L5.5060 15.4840 " />
<path d="M5.5060 15.4840 L5.6488 15.4840 " />
<path d="M5.6488 15.4840 L5.7440 15.5316 " />
<path d="M5.7440 15.5316 L5.7917 15.5793 " />
<path d="M5.7917 15.5793 L5.8393 15.6745 " />
<path d="M5.8393 15.6745 L5.8393 15.9126 " />
<path d="M5.8393 15.9126 L5.7917 16.0078 " />
<path d="M5.7917 16.0078 L5.7440 16.0555 " />
<path d="M5.7440 16.0555 L5.6488 16.1031 " />
<path d="M5.6488 16.1031 L5.3631 16.1031 " />
<path d="M5.3631 16.1031 L5.2679 16.0555 " />
<path d="M5.2679 16.0555 L5.2202 16.0078 " />
<path d="M6.2679 15.7221 L7.0298 15.7221 " />
<path d="M7.9821 15.1031 L7.5060 15.1031 " />
<path d="M7.5060 15.1031 L7.4583 15.5793 " />
<path d="M7.4583 15.5793 L7.5060 15.5316 " />
<path d="M7.5060 15.5316 L7.6012 15.4840 " />
<path d="M7.6012 15.4840 L7.8393 15.4840 " />
<path d="M7.8393 15.4840 L7.9345 15.5316 " />
<path d="M7.9345 15.5316 L7.9821 15.5793 " />
<path d="M7.9821 15.5793 L8.0298 15.6745 " />
<path d="M8.0298 15.6745 L8.0298 15.9126 " />
<path d="M8.0298 15.9126 L7.9821 16.0078 " />
<path d="M7.9821 16.0078 L7.9345 16.0555 " />
<path d="M7.9345 16.0555 L7.8393 16.1031 " />
<path d="M7.8393 16.1031 L7.6012 16.1031 " />
<path d="M7.6012 16.1031 L7.5060 16.0555 " />
<path d="M7.5060 16.0555 L7.4583 16.0078 " />
<path d="M8.2202 16.1983 L8.9821 16.1983 " />
<path d="M9.6964 16.1031 L9.2202 16.1031 " />
<path d="M9.2202 16.1031 L9.2202 15.1031 " />
<path d="M10.5536 16.1031 L9.9821 16.1031 " />
<path d="M10.2679 16.1031 L10.2679 15.1031 " />
<path d="M10.2679 15.1031 L10.1726 15.2459 " />
<path d="M10.1726 15.2459 L10.0774 15.3412 " />
<path d="M10.0774 15.3412 L9.9821 15.3888 " />
<path d="M11.1726 15.1031 L11.2679 15.1031 " />
<path d="M11.2679 15.1031 L11.3631 15.1507 " />
<path d="M11.3631 15.1507 L11.4107 15.1983 " />
<path d="M11.4107 15.1983 L11.4583 15.2935 " />
<path d="M11.4583 15.2935 L11.5060 15.4840 " />
<path d="M11.5060 15.4840 L11.5060 15.7221 " />
<path d="M11.5060 15.7221 L11.4583 15.9126 " />
<path d="M11.4583 15.9126 L11.4107 16.0078 " />
<path d="M11.4107 16.0078 L11.3631 16.0555 " />
<path d="M11.3631 16.0555 L11.2679 16.1031 " />
<path d="M11.2679 16.1031 L11.1726 16.1031 " />
<path d="M11.1726 16.1031 L11.0774 16.0555 " />
<path d="M11.0774 16.0555 L11.0298 16.0078 " />
<path d="M11.0298 16.0078 L10.9821 15.9126 " />
<path d="M10.9821 15.9126 L10.9345 15.7221 " />
<path d="M10.9345 15.7221 L10.9345 15.4840 " />
<path d="M10.9345 15.4840 L10.9821 15.2935 " />
<path d="M10.9821 15.2935 L11.0298 15.1983 " />
<path d="M11.0298 15.1983 L11.0774 15.1507 " />
<path d="M11.0774 15.1507 L11.1726 15.1031 " />
<path d="M11.9345 16.0078 L11.9821 16.0555 " />
<path d="M11.9821 16.0555 L11.9345 16.1031 " />
<path d="M11.9345 16.1031 L11.8869 16.0555 " />
<path d="M11.8869 16.0555 L11.9345 16.0078 " />
<path d="M11.9345 16.0078 L11.9345 16.1031 " />
<path d="M12.3631 15.1983 L12.4107 15.1507 " />
<path d="M12.4107 15.1507 L12.5060 15.1031 " />
<path d="M12.5060 15.1031 L12.7440 15.1031 " />
<path d="M12.7440 15.1031 L12.8393 15.1507 " />
<path d="M12.8393 15.1507 L12.8869 15.1983 " />
<path d="M12.8869 15.1983 L12.9345 15.2935 " />
<path d="M12.9345 15.2935 L12.9345 15.3888 " />
<path d="M12.9345 15.3888 L12.8869 15.5316 " />
<path d="M12.8869 15.5316 L12.3155 16.1031 " />
<path d="M12.3155 16.1031 L12.9345 16.1031 " />
<path d="M13.3631 15.7221 L14.1250 15.7221 " />
<path d="M14.5060 15.1031 L14.7440 16.1031 " />
<path d="M14.7440 16.1031 L14.9345 15.3888 " />
<path d="M14.9345 15.3888 L15.1250 16.1031 " />
<path d="M15.1250 16.1031 L15.3631 15.1031 " />
<path d="M15.8869 15.5316 L15.7917 15.4840 " />
<path d="M15.7917 15.4840 L15.7440 15.4364 " />
<path d="M15.7440 15.4364 L15.6964 15.3412 " />
<path d="M15.6964 15.3412 L15.6964 15.2935 " />
<path d="M15.6964 15.2935 L15.7440 15.1983 " />
<path d="M15.7440 15.1983 L15.7917 15.1507 " />
<path d="M15.7917 15.1507 L15.8869 15.1031 " />
<path d="M15.8869 15.1031 L16.0774 15.1031 " />
<path d="M16.0774 15.1031 L16.1726 15.1507 " />
<path d="M16.1726 15.1507 L16.2202 15.1983 " />
<path d="M16.2202 15.1983 L16.2679 15.2935 " />
<path d="M16.2679 15.2935 L16.2679 15.3412 " />
<path d="M16.2679 15.3412 L16.2202 15.4364 " />
<path d="M16.2202 15.4364 L16.1726 15.4840 " />
<path d="M16.1726 15.4840 L16.0774 15.5316 " />
<path d="M16.0774 15.5316 L15.8869 15.5316 " />
<path d="M15.8869 15.5316 L15.7917 15.5793 " />
<path d="M15.7917 15.5793 L15.7440 15.6269 " />
<path d="M15.7440 15.6269 L15.6964 15.7221 " />
<path d="M15.6964 15.7221 L15.6964 15.9126 " />
<path d="M15.6964 15.9126 L15.7440 16.0078 " />
<path d="M15.7440 16.0078 L15.7917 16.0555 " />
<path d="M15.7917 16.0555 L15.8869 16.1031 " />
<path d="M15.8869 16.1031 L16.0774 16.1031 " />
<path d="M16.0774 16.1031 L16.1726 16.0555 " />
<path d="M16.1726 16.0555 L16.2202 16.0078 " />
<path d="M16.2202 16.0078 L16.2679 15.9126 " />
<path d="M16.2679 15.9126 L16.2679 15.7221 " />
<path d="M16.2679 15.7221 L16.2202 15.6269 " />
<path d="M16.2202 15.6269 L16.1726 15.5793 " />
<path d="M16.1726 15.5793 L16.0774 15.5316 " />
<path d="M16.6964 16.0078 L16.7440 16.0555 " />
<path d="M16.7440 16.0555 L16.6964 16.1031 " />
<path d="M16.6964 16.1031 L16.6488 16.0555 " />
<path d="M16.6488 16.0555 L16.6964 16.0078 " />
<path d="M16.6964 16.0078 L16.6964 16.1031 " />
<path d="M17.2202 16.1031 L17.4107 16.1031 " />
<path d="M17.4107 16.1031 L17.5060 16.0555 " />
<path d="M17.5060 16.0555 L17.5536 16.0078 " />
<path d="M17.5536 16.0078 L17.6488 15.8650 " />
<path d="M17.6488 15.8650 L17.6964 15.6745 " />
<path d="M17.6964 15.6745 L17.6964 15.2935 " />
<path d="M17.6964 15.2935 L17.6488 15.1983 " />
<path d="M17.6488 15.1983 L17.6012 15.1507 " />
<path d="M17.6012 15.1507 L17.5060 15.1031 " />
<path d="M17.5060 15.1031 L17.3155 15.1031 " />
<path d="M17.3155 15.1031 L17.2202 15.1507 " />
<path d="M17.2202 15.1507 L17.1726 15.1983 " />
<path d="M17.1726 15.1983 L17.1250 15.2935 " />
<path d="M17.1250 15.2935 L17.1250 15.5316 " />
<path d="M17.1250 15.5316 L17.1726 15.6269 " />
<path d="M17.1726 15.6269 L17.2202 15.6745 " />
<path d="M17.2202 15.6745 L17.3155 15.7221 " />
<path d="M17.3155 15.7221 L17.5060 15.7221 " />
<path d="M17.5060 15.7221 L17.6012 15.6745 " />
<path d="M17.6012 15.6745 L17.6488 15.6269 " />
<path d="M17.6488 15.6269 L17.6964 15.5316 " />
<path d="M18.1250 15.7221 L18.8869 15.7221 " />
<path d="M19.3631 16.1031 L19.3631 15.1031 " />
<path d="M19.3631 15.1031 L19.7440 15.1031 " />
<path d="M19.7440 15.1031 L19.8393 15.1507 " />
<path d="M19.8393 15.1507 L19.8869 15.1983 " />
<path d="M19.8869 15.1983 L19.9345 15.2935 " />
<path d="M19.9345 15.2935 L19.9345 15.4364 " />
<path d="M19.9345 15.4364 L19.8869 15.5316 " />
<path d="M19.8869 15.5316 L19.8393 15.5793 " />
<path d="M19.8393 15.5793 L19.7440 15.6269 " />
<path d="M19.7440 15.6269 L19.3631 15.6269 " />
<path d="M20.8869 16.1031 L20.3155 16.1031 " />
<path d="M20.6012 16.1031 L20.6012 15.1031 " />
<path d="M20.6012 15.1031 L20.5060 15.2459 " />
<path d="M20.5060 15.2459 L20.4107 15.3412 " />
<path d="M20.4107 15.3412 L20.3155 15.3888 " />
<path d="M21.3155 16.0078 L21.3631 16.0555 " />
<path d="M21.3631 16.0555 L21.3155 16.1031 " />
<path d="M21.3155 16.1031 L21.2679 16.0555 " />
<path d="M21.2679 16.0555 L21.3155 16.0078 " />
<path d="M21.3155 16.0078 L21.3155 16.1031 " />
<path d="M21.6964 15.1031 L22.3631 15.1031 " />
<path d="M22.3631 15.1031 L21.9345 16.1031 " />
<path d="M22.9345 15.1031 L23.0298 15.1031 " />
<path d="M23.0298 15.1031 L23.1250 15.1507 " />
<path d="M23.1250 15.1507 L23.1726 15.1983 " />
<path d="M23.1726 15.1983 L23.2202 15.2935 " />
<path d="M23.2202 15.2935 L23.2679 15.4840 " />
<path d="M23.2679 15.4840 L23.2679 15.7221 " />
<path d="M23.2679 15.7221 L23.2202 15.9126 " />
<path d="M23.2202 15.9126 L23.1726 16.0078 " />
<path d="M23.1726 16.0078 L23.1250 16.0555 " />
<path d="M23.1250 16.0555 L23.0298 16.1031 " />
<path d="M23.0298 16.1031 L22.9345 16.1031 " />
<path d="M22.9345 16.1031 L22.8393 16.0555 " />
<path d="M22.8393 16.0555 L22.7917 16.0078 " />
<path d="M22.7917 16.0078 L22.7440 15.9126 " />
<path d="M22.7440 15.9126 L22.6964 15.7221 " />
<path d="M22.6964 15.7221 L22.6964 15.4840 " />
<path d="M22.6964 15.4840 L22.7440 15.2935 " />
<path d="M22.7440 15.2935 L22.7917 15.1983 " />
<path d="M22.7917 15.1983 L22.8393 15.1507 " />
<path d="M22.8393 15.1507 L22.9345 15.1031 " />
<path d="M23.6964 15.7221 L24.4583 15.7221 " />
<path d="M25.2679 15.5793 L25.4107 15.6269 " />
<path d="M25.4107 15.6269 L25.4583 15.6745 " />
<path d="M25.4583 15.6745 L25.5059 15.7697 " />
<path d="M25.5059 15.7697 L25.5059 15.9126 " />
<path d="M25.5059 15.9126 L25.4583 16.0078 " />
<path d="M25.4583 16.0078 L25.4107 16.0555 " />
<path d="M25.4107 16.0555 L25.3155 16.1031 " />
<path d="M25.3155 16.1031 L24.9345 16.1031 " />
<path d="M24.9345 16.1031 L24.9345 15.1031 " />
<path d="M24.9345 15.1031 L25.2679 15.1031 " />
<path d="M25.2679 15.1031 L25.3631 15.1507 " />
<path d="M25.3631 15.1507 L25.4107 15.1983 " />
<path d="M25.4107 15.1983 L25.4583 15.2935 " />
<path d="M25.4583 15.2935 L25.4583 15.3888 " />
<path d="M25.4583 15.3888 L25.4107 15.4840 " />
<path d="M25.4107 15.4840 L25.3631 15.5316 " />
<path d="M25.3631 15.5316 L25.2679 15.5793 " />
<path d="M25.2679 15.5793 L24.9345 15.5793 " />
<path d="M26.5059 16.1031 L26.1726 15.6269 " />
<path d="M25.9345 16.1031 L25.9345 15.1031 " />
<path d="M25.9345 15.1031 L26.3155 15.1031 " />
<path d="M26.3155 15.1031 L26.4107 15.1507 " />
<path d="M26.4107 15.1507 L26.4583 15.1983 " />
<path d="M26.4583 15.1983 L26.5059 15.2935 " />
<path d="M26.5059 15.2935 L26.5059 15.4364 " />
<path d="M26.5059 15.4364 L26.4583 15.5316 " />
<path d="M26.4583 15.5316 L26.4107 15.5793 " />
<path d="M26.4107 15.5793 L26.3155 15.6269 " />
<path d="M26.3155 15.6269 L25.9345 15.6269 " />
</g></g>
<g style="fill:none;  stroke:#000000; stroke-width:0.0600; stroke-opacity:1;  stroke-linecap:round; stroke-linejoin:round;">
<circle cx="19.3507" cy="13.3282" r="0.0300" /> 
</g>
<g style="fill:none;  stroke:#000000; stroke-width:0.5000; stroke-opacity:1;  stroke-linecap:round; stroke-linejoin:round;">
<circle cx="19.4807" cy="11.6783" r="0.2500" /> 
</g> 
</svg>