<?xml version="1.0" standalone="no"?>
 <!DOCTYPE svg PUBLIC "-//W3C//DTD SVG 1.1//EN" 
 "http://www.w3.org/Graphics/SVG/1.1/DTD/svg11.dtd"> 
<svg
  xmlns:svg="http://www.w3.org/2000/svg"
  xmlns="http://www.w3.org/2000/svg"
  xmlns:xlink="http://www.w3.org/1999/xlink"
  version="1.1"
  width="20.0406mm" height="13.7414mm" viewBox="0.0000 0.0000 20.0406 13.7414">
<title>SVG Image created as TYPE-C-SMD_TYPE-C-6P.svg date 2026/01/01 22:36:26 </title>
  <desc>Image generated by PCBNEW </desc>
<g style="fill:#000000; fill-opacity:1.0000;stroke:#000000; stroke-opacity:1.0000;
stroke-linecap:round; stroke-linejoin:round;"
 transform="translate(0 0) scale(1 1)">
</g>
<g style="fill:none; 
stroke:#000000; stroke-width:1.1000; stroke-opacity:1; 
stroke-linecap:round; stroke-linejoin:round;">
<path d="M14.3498 8.5083
L14.3498 9.3082
" />
<path d="M5.7098 8.5083
L5.7098 9.3082
" />
<path d="M14.3498 4.6982
L14.3498 5.4982
" />
<path d="M5.7098 4.6982
L5.7098 5.4982
" />
<path d="M14.3498 8.5083
L14.3498 9.3082
" />
<path d="M5.7098 8.5083
L5.7098 9.3082
" />
<path d="M14.3498 4.6982
L14.3498 5.4982
" />
<path d="M5.7098 4.6982
L5.7098 5.4982
" />
<path d="M14.3498 8.5083
L14.3498 9.3082
" />
<path d="M5.7098 8.5083
L5.7098 9.3082
" />
<path d="M14.3498 4.6982
L14.3498 5.4982
" />
<path d="M5.7098 4.6982
L5.7098 5.4982
" />
<path d="M14.3498 8.5083
L14.3498 9.3082
" />
<path d="M5.7098 8.5083
L5.7098 9.3082
" />
<path d="M14.3498 4.6982
L14.3498 5.4982
" />
<path d="M5.7098 4.6982
L5.7098 5.4982
" />
<path d="M14.3498 8.5083
L14.3498 9.3082
" />
<path d="M5.7098 8.5083
L5.7098 9.3082
" />
<path d="M14.3498 4.6982
L14.3498 5.4982
" />
<path d="M5.7098 4.6982
L5.7098 5.4982
" />
<path d="M14.3498 8.5083
L14.3498 9.3082
" />
<path d="M5.7098 8.5083
L5.7098 9.3082
" />
<path d="M14.3498 4.6982
L14.3498 5.4982
" />
<path d="M5.7098 4.6982
L5.7098 5.4982
" />
<path d="M14.3498 8.5083
L14.3498 9.3082
" />
<path d="M5.7098 8.5083
L5.7098 9.3082
" />
<path d="M14.3498 4.6982
L14.3498 5.4982
" />
<path d="M5.7098 4.6982
L5.7098 5.4982
" />
<path d="M14.3498 8.5083
L14.3498 9.3082
" />
<path d="M5.7098 8.5083
L5.7098 9.3082
" />
<path d="M14.3498 4.6982
L14.3498 5.4982
" />
<path d="M5.7098 4.6982
L5.7098 5.4982
" />
<path d="M14.3498 8.5083
L14.3498 9.3082
" />
<path d="M5.7098 8.5083
L5.7098 9.3082
" />
<path d="M14.3498 4.6982
L14.3498 5.4982
" />
<path d="M5.7098 4.6982
L5.7098 5.4982
" />
<path d="M14.3498 8.5083
L14.3498 9.3082
" />
<path d="M5.7098 8.5083
L5.7098 9.3082
" />
<path d="M14.3498 4.6982
L14.3498 5.4982
" />
<path d="M5.7098 4.6982
L5.7098 5.4982
" />
<path d="M14.3498 8.5083
L14.3498 9.3082
" />
<path d="M5.7098 8.5083
L5.7098 9.3082
" />
<path d="M14.3498 4.6982
L14.3498 5.4982
" />
<path d="M5.7098 4.6982
L5.7098 5.4982
" />
<path d="M14.3498 8.5083
L14.3498 9.3082
" />
<path d="M5.7098 8.5083
L5.7098 9.3082
" />
<path d="M14.3498 4.6982
L14.3498 5.4982
" />
<path d="M5.7098 4.6982
L5.7098 5.4982
" />
<path d="M14.3498 8.5083
L14.3498 9.3082
" />
<path d="M5.7098 8.5083
L5.7098 9.3082
" />
<path d="M14.3498 4.6982
L14.3498 5.4982
" />
<path d="M5.7098 4.6982
L5.7098 5.4982
" />
<path d="M14.3498 8.5083
L14.3498 9.3082
" />
<path d="M5.7098 8.5083
L5.7098 9.3082
" />
<path d="M14.3498 4.6982
L14.3498 5.4982
" />
<path d="M5.7098 4.6982
L5.7098 5.4982
" />
<path d="M14.3498 8.5083
L14.3498 9.3082
" />
<path d="M5.7098 8.5083
L5.7098 9.3082
" />
<path d="M14.3498 4.6982
L14.3498 5.4982
" />
<path d="M5.7098 4.6982
L5.7098 5.4982
" />
<path d="M14.3498 8.5083
L14.3498 9.3082
" />
<path d="M5.7098 8.5083
L5.7098 9.3082
" />
<path d="M14.3498 4.6982
L14.3498 5.4982
" />
<path d="M5.7098 4.6982
L5.7098 5.4982
" />
<path d="M14.3498 8.5083
L14.3498 9.3082
" />
<path d="M5.7098 8.5083
L5.7098 9.3082
" />
<path d="M14.3498 4.6982
L14.3498 5.4982
" />
<path d="M5.7098 4.6982
L5.7098 5.4982
" />
<path d="M14.3498 8.5083
L14.3498 9.3082
" />
<path d="M5.7098 8.5083
L5.7098 9.3082
" />
<path d="M14.3498 4.6982
L14.3498 5.4982
" />
<path d="M5.7098 4.6982
L5.7098 5.4982
" />
<path d="M14.3498 8.5083
L14.3498 9.3082
" />
<path d="M5.7098 8.5083
L5.7098 9.3082
" />
<path d="M14.3498 4.6982
L14.3498 5.4982
" />
<path d="M5.7098 4.6982
L5.7098 5.4982
" />
<path d="M14.3498 8.5083
L14.3498 9.3082
" />
<path d="M5.7098 8.5083
L5.7098 9.3082
" />
<path d="M14.3498 4.6982
L14.3498 5.4982
" />
<path d="M5.7098 4.6982
L5.7098 5.4982
" />
<path d="M14.3498 8.5083
L14.3498 9.3082
" />
<path d="M5.7098 8.5083
L5.7098 9.3082
" />
<path d="M14.3498 4.6982
L14.3498 5.4982
" />
<path d="M5.7098 4.6982
L5.7098 5.4982
" />
<path d="M14.3498 8.5083
L14.3498 9.3082
" />
<path d="M5.7098 8.5083
L5.7098 9.3082
" />
<path d="M14.3498 4.6982
L14.3498 5.4982
" />
<path d="M5.7098 4.6982
L5.7098 5.4982
" />
<path d="M14.3498 8.5083
L14.3498 9.3082
" />
<path d="M5.7098 8.5083
L5.7098 9.3082
" />
<path d="M14.3498 4.6982
L14.3498 5.4982
" />
<path d="M5.7098 4.6982
L5.7098 5.4982
" />
<path d="M14.3498 8.5083
L14.3498 9.3082
" />
<path d="M5.7098 8.5083
L5.7098 9.3082
" />
<path d="M14.3498 4.6982
L14.3498 5.4982
" />
<path d="M5.7098 4.6982
L5.7098 5.4982
" />
<path d="M14.3498 8.5083
L14.3498 9.3082
" />
<path d="M5.7098 8.5083
L5.7098 9.3082
" />
<path d="M14.3498 4.6982
L14.3498 5.4982
" />
<path d="M5.7098 4.6982
L5.7098 5.4982
" />
<path d="M14.3498 8.5083
L14.3498 9.3082
" />
<path d="M5.7098 8.5083
L5.7098 9.3082
" />
<path d="M14.3498 4.6982
L14.3498 5.4982
" />
<path d="M5.7098 4.6982
L5.7098 5.4982
" />
<path d="M14.3498 8.5083
L14.3498 9.3082
" />
<path d="M5.7098 8.5083
L5.7098 9.3082
" />
<path d="M14.3498 4.6982
L14.3498 5.4982
" />
<path d="M5.7098 4.6982
L5.7098 5.4982
" />
<path d="M14.3498 8.5083
L14.3498 9.3082
" />
<path d="M5.7098 8.5083
L5.7098 9.3082
" />
<path d="M14.3498 4.6982
L14.3498 5.4982
" />
<path d="M5.7098 4.6982
L5.7098 5.4982
" />
<path d="M14.3498 8.5083
L14.3498 9.3082
" />
<path d="M5.7098 8.5083
L5.7098 9.3082
" />
<path d="M14.3498 4.6982
L14.3498 5.4982
" />
<path d="M5.7098 4.6982
L5.7098 5.4982
" />
<path d="M14.3498 8.5083
L14.3498 9.3082
" />
<path d="M5.7098 8.5083
L5.7098 9.3082
" />
<path d="M14.3498 4.6982
L14.3498 5.4982
" />
<path d="M5.7098 4.6982
L5.7098 5.4982
" />
<path d="M14.3498 8.5083
L14.3498 9.3082
" />
<path d="M5.7098 8.5083
L5.7098 9.3082
" />
<path d="M14.3498 4.6982
L14.3498 5.4982
" />
<path d="M5.7098 4.6982
L5.7098 5.4982
" />
<path d="M14.3498 8.5083
L14.3498 9.3082
" />
<path d="M5.7098 8.5083
L5.7098 9.3082
" />
<path d="M14.3498 4.6982
L14.3498 5.4982
" />
<path d="M5.7098 4.6982
L5.7098 5.4982
" />
<path style="fill:#000000; fill-opacity:1.0000; stroke:none;fill-rule:evenodd;"
d="M 6.9298,5.4482
6.9298,4.2482
7.7298,4.2482
7.7298,5.4482
Z" /> 
<path style="fill:#000000; fill-opacity:1.0000; stroke:none;fill-rule:evenodd;"
d="M 8.1798,5.4482
8.1798,4.2482
8.8798,4.2482
8.8798,5.4482
Z" /> 
<path style="fill:#000000; fill-opacity:1.0000; stroke:none;fill-rule:evenodd;"
d="M 9.1798,5.4482
9.1798,4.2482
9.8798,4.2482
9.8798,5.4482
Z" /> 
<path style="fill:#000000; fill-opacity:1.0000; stroke:none;fill-rule:evenodd;"
d="M 10.1798,5.4482
10.1798,4.2482
10.8798,4.2482
10.8798,5.4482
Z" /> 
<path style="fill:#000000; fill-opacity:1.0000; stroke:none;fill-rule:evenodd;"
d="M 11.1798,5.4482
11.1798,4.2482
11.8798,4.2482
11.8798,5.4482
Z" /> 
<path style="fill:#000000; fill-opacity:1.0000; stroke:none;fill-rule:evenodd;"
d="M 12.3298,5.4482
12.3298,4.2482
13.1298,4.2482
13.1298,5.4482
Z" /> 
</g>
<g style="fill:none; 
stroke:#000000; stroke-width:1.1000; stroke-opacity:1; 
stroke-linecap:round; stroke-linejoin:round;">
<path d="M14.3498 8.5083
L14.3498 9.3082
" />
<path d="M5.7098 8.5083
L5.7098 9.3082
" />
<path d="M14.3498 4.6982
L14.3498 5.4982
" />
<path d="M5.7098 4.6982
L5.7098 5.4982
" />
<path style="fill:#000000; fill-opacity:1.0000; stroke:none;fill-rule:evenodd;"
d="M 6.9298,5.4482
6.9298,4.2482
7.7298,4.2482
7.7298,5.4482
Z" /> 
<path style="fill:#000000; fill-opacity:1.0000; stroke:none;fill-rule:evenodd;"
d="M 8.1798,5.4482
8.1798,4.2482
8.8798,4.2482
8.8798,5.4482
Z" /> 
<path style="fill:#000000; fill-opacity:1.0000; stroke:none;fill-rule:evenodd;"
d="M 9.1798,5.4482
9.1798,4.2482
9.8798,4.2482
9.8798,5.4482
Z" /> 
<path style="fill:#000000; fill-opacity:1.0000; stroke:none;fill-rule:evenodd;"
d="M 10.1798,5.4482
10.1798,4.2482
10.8798,4.2482
10.8798,5.4482
Z" /> 
<path style="fill:#000000; fill-opacity:1.0000; stroke:none;fill-rule:evenodd;"
d="M 11.1798,5.4482
11.1798,4.2482
11.8798,4.2482
11.8798,5.4482
Z" /> 
<path style="fill:#000000; fill-opacity:1.0000; stroke:none;fill-rule:evenodd;"
d="M 12.3298,5.4482
12.3298,4.2482
13.1298,4.2482
13.1298,5.4482
Z" /> 
</g>
<g style="fill:none; 
stroke:#000000; stroke-width:1.1000; stroke-opacity:1; 
stroke-linecap:round; stroke-linejoin:round;">
<path d="M14.3498 8.5083
L14.3498 9.3082
" />
<path d="M5.7098 8.5083
L5.7098 9.3082
" />
<path d="M14.3498 4.6982
L14.3498 5.4982
" />
<path d="M5.7098 4.6982
L5.7098 5.4982
" />
<path style="fill:#000000; fill-opacity:1.0000; stroke:none;fill-rule:evenodd;"
d="M 6.9298,5.4482
6.9298,4.2482
7.7298,4.2482
7.7298,5.4482
Z" /> 
<path style="fill:#000000; fill-opacity:1.0000; stroke:none;fill-rule:evenodd;"
d="M 8.1798,5.4482
8.1798,4.2482
8.8798,4.2482
8.8798,5.4482
Z" /> 
<path style="fill:#000000; fill-opacity:1.0000; stroke:none;fill-rule:evenodd;"
d="M 9.1798,5.4482
9.1798,4.2482
9.8798,4.2482
9.8798,5.4482
Z" /> 
<path style="fill:#000000; fill-opacity:1.0000; stroke:none;fill-rule:evenodd;"
d="M 10.1798,5.4482
10.1798,4.2482
10.8798,4.2482
10.8798,5.4482
Z" /> 
<path style="fill:#000000; fill-opacity:1.0000; stroke:none;fill-rule:evenodd;"
d="M 11.1798,5.4482
11.1798,4.2482
11.8798,4.2482
11.8798,5.4482
Z" /> 
<path style="fill:#000000; fill-opacity:1.0000; stroke:none;fill-rule:evenodd;"
d="M 12.3298,5.4482
12.3298,4.2482
13.1298,4.2482
13.1298,5.4482
Z" /> 
</g>
<g style="fill:none; 
stroke:#000000; stroke-width:0.1500; stroke-opacity:1; 
stroke-linecap:round; stroke-linejoin:round;">
<text x="10.0298" y="1.3482"
textLength="4.5357" font-size="1.3333" lengthAdjust="spacingAndGlyphs"
text-anchor="middle" opacity="0" stroke-opacity="0">REF**</text>
<g class="stroked-text"><desc>REF**</desc>
<path d="M8.6964 1.3031
L8.3631 0.8269
" />
<path d="M8.1250 1.3031
L8.1250 0.3031
" />
<path d="M8.1250 0.3031
L8.5060 0.3031
" />
<path d="M8.5060 0.3031
L8.6012 0.3507
" />
<path d="M8.6012 0.3507
L8.6488 0.3983
" />
<path d="M8.6488 0.3983
L8.6964 0.4935
" />
<path d="M8.6964 0.4935
L8.6964 0.6364
" />
<path d="M8.6964 0.6364
L8.6488 0.7316
" />
<path d="M8.6488 0.7316
L8.6012 0.7793
" />
<path d="M8.6012 0.7793
L8.5060 0.8269
" />
<path d="M8.5060 0.8269
L8.1250 0.8269
" />
<path d="M9.1250 0.7793
L9.4583 0.7793
" />
<path d="M9.6012 1.3031
L9.1250 1.3031
" />
<path d="M9.1250 1.3031
L9.1250 0.3031
" />
<path d="M9.1250 0.3031
L9.6012 0.3031
" />
<path d="M10.3631 0.7793
L10.0298 0.7793
" />
<path d="M10.0298 1.3031
L10.0298 0.3031
" />
<path d="M10.0298 0.3031
L10.5060 0.3031
" />
<path d="M11.0298 0.3031
L11.0298 0.5412
" />
<path d="M10.7917 0.4459
L11.0298 0.5412
" />
<path d="M11.0298 0.5412
L11.2679 0.4459
" />
<path d="M10.8869 0.7316
L11.0298 0.5412
" />
<path d="M11.0298 0.5412
L11.1726 0.7316
" />
<path d="M11.7917 0.3031
L11.7917 0.5412
" />
<path d="M11.5536 0.4459
L11.7917 0.5412
" />
<path d="M11.7917 0.5412
L12.0298 0.4459
" />
<path d="M11.6488 0.7316
L11.7917 0.5412
" />
<path d="M11.7917 0.5412
L11.9345 0.7316
" />
</g></g>
<g style="fill:none; 
stroke:#000000; stroke-width:0.2500; stroke-opacity:1; 
stroke-linecap:round; stroke-linejoin:round;">
<path d="M13.3598 4.6982
L13.5698 4.6982
" />
<path d="M6.4898 4.6982
L6.6998 4.6982
" />
<path d="M5.5298 6.2982
L5.5298 6.2582
" />
<path d="M5.5298 6.2982
L5.5298 7.7382
" />
<path d="M14.5298 7.6982
L14.5298 6.2482
" />
<path d="M5.5298 10.0983
L5.5298 10.0782
" />
<path d="M5.5298 10.0782
L5.5298 11.4982
" />
<path d="M5.5298 11.4982
L14.5298 11.4982
" />
<path d="M14.5298 11.4982
L14.5298 10.0983
" />
<path d="M9.6298 6.0982
L9.6298 5.8982
" />
<path d="M11.0298 6.4982
L11.0298 6.0982
" />
<path d="M11.0298 6.0982
L10.4298 6.0982
" />
<path d="M10.4298 6.0982
L10.4298 5.8982
" />
<path d="M9.0298 6.4982
L9.0298 6.0982
" />
<path d="M9.0298 6.0982
L9.6298 6.0982
" />
<path d="M9.0198 6.4982
L11.0398 6.4982
" />
<path d="M7.2098 10.3282
L7.7098 7.8282
" />
<path d="M7.7098 7.8282
L9.0098 7.8282
" />
<path d="M9.0098 7.8282
L9.5098 10.3282
" />
<path d="M9.5098 10.3282
L9.0198 10.3282
" />
<path d="M9.0198 10.3282
L8.6198 8.2282
" />
<path d="M8.6198 8.2282
L8.0898 8.2282
" />
<path d="M8.0898 8.2282
L7.6898 10.3282
" />
<path d="M7.6898 10.3282
L7.2098 10.3282
" />
<path d="M7.5098 9.0282
L7.9098 9.0282
" />
<path d="M8.8098 9.0282
L9.2098 9.0282
" />
<path d="M12.0898 9.0282
L12.4898 9.0282
" />
<path d="M10.7898 9.0282
L11.1898 9.0282
" />
<path d="M10.4898 10.3282
L10.9898 7.8282
" />
<path d="M10.9898 7.8282
L12.2898 7.8282
" />
<path d="M12.2898 7.8282
L12.7898 10.3282
" />
<path d="M12.7898 10.3282
L12.2898 10.3282
" />
<path d="M12.2898 10.3282
L11.8898 8.2282
" />
<path d="M11.8898 8.2282
L11.3698 8.2282
" />
<path d="M11.3698 8.2282
L10.9598 10.3282
" />
<path d="M10.9598 10.3282
L10.4898 10.3282
" />
</g>
<g style="fill:none; 
stroke:#000000; stroke-width:0.1500; stroke-opacity:1; 
stroke-linecap:round; stroke-linejoin:round;">
<text x="10.0298" y="13.4082"
textLength="20.0595" font-size="1.3333" lengthAdjust="spacingAndGlyphs"
text-anchor="middle" opacity="0" stroke-opacity="0">TYPE-C-SMD_TYPE-C-6P</text>
<g class="stroked-text"><desc>TYPE-C-SMD_TYPE-C-6P</desc>
<path d="M0.2202 12.3631
L0.7917 12.3631
" />
<path d="M0.5060 13.3631
L0.5060 12.3631
" />
<path d="M1.3155 12.8869
L1.3155 13.3631
" />
<path d="M0.9821 12.3631
L1.3155 12.8869
" />
<path d="M1.3155 12.8869
L1.6488 12.3631
" />
<path d="M1.9821 13.3631
L1.9821 12.3631
" />
<path d="M1.9821 12.3631
L2.3631 12.3631
" />
<path d="M2.3631 12.3631
L2.4583 12.4107
" />
<path d="M2.4583 12.4107
L2.5060 12.4583
" />
<path d="M2.5060 12.4583
L2.5536 12.5535
" />
<path d="M2.5536 12.5535
L2.5536 12.6964
" />
<path d="M2.5536 12.6964
L2.5060 12.7916
" />
<path d="M2.5060 12.7916
L2.4583 12.8393
" />
<path d="M2.4583 12.8393
L2.3631 12.8869
" />
<path d="M2.3631 12.8869
L1.9821 12.8869
" />
<path d="M2.9821 12.8393
L3.3155 12.8393
" />
<path d="M3.4583 13.3631
L2.9821 13.3631
" />
<path d="M2.9821 13.3631
L2.9821 12.3631
" />
<path d="M2.9821 12.3631
L3.4583 12.3631
" />
<path d="M3.8869 12.9821
L4.6488 12.9821
" />
<path d="M5.6964 13.2678
L5.6488 13.3155
" />
<path d="M5.6488 13.3155
L5.5060 13.3631
" />
<path d="M5.5060 13.3631
L5.4107 13.3631
" />
<path d="M5.4107 13.3631
L5.2679 13.3155
" />
<path d="M5.2679 13.3155
L5.1726 13.2202
" />
<path d="M5.1726 13.2202
L5.1250 13.1250
" />
<path d="M5.1250 13.1250
L5.0774 12.9345
" />
<path d="M5.0774 12.9345
L5.0774 12.7916
" />
<path d="M5.0774 12.7916
L5.1250 12.6012
" />
<path d="M5.1250 12.6012
L5.1726 12.5059
" />
<path d="M5.1726 12.5059
L5.2679 12.4107
" />
<path d="M5.2679 12.4107
L5.4107 12.3631
" />
<path d="M5.4107 12.3631
L5.5060 12.3631
" />
<path d="M5.5060 12.3631
L5.6488 12.4107
" />
<path d="M5.6488 12.4107
L5.6964 12.4583
" />
<path d="M6.1250 12.9821
L6.8869 12.9821
" />
<path d="M7.3155 13.3155
L7.4583 13.3631
" />
<path d="M7.4583 13.3631
L7.6964 13.3631
" />
<path d="M7.6964 13.3631
L7.7917 13.3155
" />
<path d="M7.7917 13.3155
L7.8393 13.2678
" />
<path d="M7.8393 13.2678
L7.8869 13.1726
" />
<path d="M7.8869 13.1726
L7.8869 13.0774
" />
<path d="M7.8869 13.0774
L7.8393 12.9821
" />
<path d="M7.8393 12.9821
L7.7917 12.9345
" />
<path d="M7.7917 12.9345
L7.6964 12.8869
" />
<path d="M7.6964 12.8869
L7.5060 12.8393
" />
<path d="M7.5060 12.8393
L7.4107 12.7916
" />
<path d="M7.4107 12.7916
L7.3631 12.7440
" />
<path d="M7.3631 12.7440
L7.3155 12.6488
" />
<path d="M7.3155 12.6488
L7.3155 12.5535
" />
<path d="M7.3155 12.5535
L7.3631 12.4583
" />
<path d="M7.3631 12.4583
L7.4107 12.4107
" />
<path d="M7.4107 12.4107
L7.5060 12.3631
" />
<path d="M7.5060 12.3631
L7.7440 12.3631
" />
<path d="M7.7440 12.3631
L7.8869 12.4107
" />
<path d="M8.3155 13.3631
L8.3155 12.3631
" />
<path d="M8.3155 12.3631
L8.6488 13.0774
" />
<path d="M8.6488 13.0774
L8.9821 12.3631
" />
<path d="M8.9821 12.3631
L8.9821 13.3631
" />
<path d="M9.4583 13.3631
L9.4583 12.3631
" />
<path d="M9.4583 12.3631
L9.6964 12.3631
" />
<path d="M9.6964 12.3631
L9.8393 12.4107
" />
<path d="M9.8393 12.4107
L9.9345 12.5059
" />
<path d="M9.9345 12.5059
L9.9821 12.6012
" />
<path d="M9.9821 12.6012
L10.0298 12.7916
" />
<path d="M10.0298 12.7916
L10.0298 12.9345
" />
<path d="M10.0298 12.9345
L9.9821 13.1250
" />
<path d="M9.9821 13.1250
L9.9345 13.2202
" />
<path d="M9.9345 13.2202
L9.8393 13.3155
" />
<path d="M9.8393 13.3155
L9.6964 13.3631
" />
<path d="M9.6964 13.3631
L9.4583 13.3631
" />
<path d="M10.2202 13.4583
L10.9821 13.4583
" />
<path d="M11.0774 12.3631
L11.6488 12.3631
" />
<path d="M11.3631 13.3631
L11.3631 12.3631
" />
<path d="M12.1726 12.8869
L12.1726 13.3631
" />
<path d="M11.8393 12.3631
L12.1726 12.8869
" />
<path d="M12.1726 12.8869
L12.5060 12.3631
" />
<path d="M12.8393 13.3631
L12.8393 12.3631
" />
<path d="M12.8393 12.3631
L13.2202 12.3631
" />
<path d="M13.2202 12.3631
L13.3155 12.4107
" />
<path d="M13.3155 12.4107
L13.3631 12.4583
" />
<path d="M13.3631 12.4583
L13.4107 12.5535
" />
<path d="M13.4107 12.5535
L13.4107 12.6964
" />
<path d="M13.4107 12.6964
L13.3631 12.7916
" />
<path d="M13.3631 12.7916
L13.3155 12.8393
" />
<path d="M13.3155 12.8393
L13.2202 12.8869
" />
<path d="M13.2202 12.8869
L12.8393 12.8869
" />
<path d="M13.8393 12.8393
L14.1726 12.8393
" />
<path d="M14.3155 13.3631
L13.8393 13.3631
" />
<path d="M13.8393 13.3631
L13.8393 12.3631
" />
<path d="M13.8393 12.3631
L14.3155 12.3631
" />
<path d="M14.7440 12.9821
L15.5060 12.9821
" />
<path d="M16.5536 13.2678
L16.5060 13.3155
" />
<path d="M16.5060 13.3155
L16.3631 13.3631
" />
<path d="M16.3631 13.3631
L16.2679 13.3631
" />
<path d="M16.2679 13.3631
L16.1250 13.3155
" />
<path d="M16.1250 13.3155
L16.0298 13.2202
" />
<path d="M16.0298 13.2202
L15.9821 13.1250
" />
<path d="M15.9821 13.1250
L15.9345 12.9345
" />
<path d="M15.9345 12.9345
L15.9345 12.7916
" />
<path d="M15.9345 12.7916
L15.9821 12.6012
" />
<path d="M15.9821 12.6012
L16.0298 12.5059
" />
<path d="M16.0298 12.5059
L16.1250 12.4107
" />
<path d="M16.1250 12.4107
L16.2679 12.3631
" />
<path d="M16.2679 12.3631
L16.3631 12.3631
" />
<path d="M16.3631 12.3631
L16.5060 12.4107
" />
<path d="M16.5060 12.4107
L16.5536 12.4583
" />
<path d="M16.9821 12.9821
L17.7440 12.9821
" />
<path d="M18.6488 12.3631
L18.4583 12.3631
" />
<path d="M18.4583 12.3631
L18.3631 12.4107
" />
<path d="M18.3631 12.4107
L18.3155 12.4583
" />
<path d="M18.3155 12.4583
L18.2202 12.6012
" />
<path d="M18.2202 12.6012
L18.1726 12.7916
" />
<path d="M18.1726 12.7916
L18.1726 13.1726
" />
<path d="M18.1726 13.1726
L18.2202 13.2678
" />
<path d="M18.2202 13.2678
L18.2679 13.3155
" />
<path d="M18.2679 13.3155
L18.3631 13.3631
" />
<path d="M18.3631 13.3631
L18.5536 13.3631
" />
<path d="M18.5536 13.3631
L18.6488 13.3155
" />
<path d="M18.6488 13.3155
L18.6964 13.2678
" />
<path d="M18.6964 13.2678
L18.7440 13.1726
" />
<path d="M18.7440 13.1726
L18.7440 12.9345
" />
<path d="M18.7440 12.9345
L18.6964 12.8393
" />
<path d="M18.6964 12.8393
L18.6488 12.7916
" />
<path d="M18.6488 12.7916
L18.5536 12.7440
" />
<path d="M18.5536 12.7440
L18.3631 12.7440
" />
<path d="M18.3631 12.7440
L18.2679 12.7916
" />
<path d="M18.2679 12.7916
L18.2202 12.8393
" />
<path d="M18.2202 12.8393
L18.1726 12.9345
" />
<path d="M19.1726 13.3631
L19.1726 12.3631
" />
<path d="M19.1726 12.3631
L19.5536 12.3631
" />
<path d="M19.5536 12.3631
L19.6488 12.4107
" />
<path d="M19.6488 12.4107
L19.6964 12.4583
" />
<path d="M19.6964 12.4583
L19.7440 12.5535
" />
<path d="M19.7440 12.5535
L19.7440 12.6964
" />
<path d="M19.7440 12.6964
L19.6964 12.7916
" />
<path d="M19.6964 12.7916
L19.6488 12.8393
" />
<path d="M19.6488 12.8393
L19.5536 12.8869
" />
<path d="M19.5536 12.8869
L19.1726 12.8869
" />
</g><text x="10.0298" y="7.3782"
textLength="4.5357" font-size="1.3333" lengthAdjust="spacingAndGlyphs"
text-anchor="middle" opacity="0" stroke-opacity="0">REF**</text>
<g class="stroked-text"><desc>REF**</desc>
<path d="M8.6964 7.3331
L8.3631 6.8569
" />
<path d="M8.1250 7.3331
L8.1250 6.3331
" />
<path d="M8.1250 6.3331
L8.5060 6.3331
" />
<path d="M8.5060 6.3331
L8.6012 6.3807
" />
<path d="M8.6012 6.3807
L8.6488 6.4283
" />
<path d="M8.6488 6.4283
L8.6964 6.5235
" />
<path d="M8.6964 6.5235
L8.6964 6.6664
" />
<path d="M8.6964 6.6664
L8.6488 6.7616
" />
<path d="M8.6488 6.7616
L8.6012 6.8093
" />
<path d="M8.6012 6.8093
L8.5060 6.8569
" />
<path d="M8.5060 6.8569
L8.1250 6.8569
" />
<path d="M9.1250 6.8093
L9.4583 6.8093
" />
<path d="M9.6012 7.3331
L9.1250 7.3331
" />
<path d="M9.1250 7.3331
L9.1250 6.3331
" />
<path d="M9.1250 6.3331
L9.6012 6.3331
" />
<path d="M10.3631 6.8093
L10.0298 6.8093
" />
<path d="M10.0298 7.3331
L10.0298 6.3331
" />
<path d="M10.0298 6.3331
L10.5060 6.3331
" />
<path d="M11.0298 6.3331
L11.0298 6.5712
" />
<path d="M10.7917 6.4759
L11.0298 6.5712
" />
<path d="M11.0298 6.5712
L11.2679 6.4759
" />
<path d="M10.8869 6.7616
L11.0298 6.5712
" />
<path d="M11.0298 6.5712
L11.1726 6.7616
" />
<path d="M11.7917 6.3331
L11.7917 6.5712
" />
<path d="M11.5536 6.4759
L11.7917 6.5712
" />
<path d="M11.7917 6.5712
L12.0298 6.4759
" />
<path d="M11.6488 6.7616
L11.7917 6.5712
" />
<path d="M11.7917 6.5712
L11.9345 6.7616
" />
</g></g>
<g style="fill:none; 
stroke:#000000; stroke-width:0.0600; stroke-opacity:1; 
stroke-linecap:round; stroke-linejoin:round;">
<circle cx="14.4998" cy="11.4982" r="0.0300" /> 
</g>
<g style="fill:none; 
stroke:#000000; stroke-width:0.3000; stroke-opacity:1; 
stroke-linecap:round; stroke-linejoin:round;">
<circle cx="7.0298" cy="4.4982" r="0.1500" /> 
</g> 
</svg>
