%TF.GenerationSoftware,KiCad,Pcbnew,9.0.6*%
%TF.CreationDate,2026-01-11T21:04:53+09:00*%
%TF.ProjectId,zudo-pd,7a75646f-2d70-4642-9e6b-696361645f70,rev?*%
%TF.SameCoordinates,Original*%
%TF.FileFunction,Copper,L1,Top*%
%TF.FilePolarity,Positive*%
%FSLAX46Y46*%
G04 Gerber Fmt 4.6, Leading zero omitted, Abs format (unit mm)*
G04 Created by KiCad (PCBNEW 9.0.6) date 2026-01-11 21:04:53*
%MOMM*%
%LPD*%
G01*
G04 APERTURE LIST*
%TA.AperFunction,NonConductor*%
%ADD10C,0.200000*%
%TD*%
%TA.AperFunction,ComponentPad*%
%ADD11C,1.800000*%
%TD*%
%TA.AperFunction,ComponentPad*%
%ADD12R,1.780000X1.800000*%
%TD*%
%TA.AperFunction,ComponentPad*%
%ADD13R,1.800000X1.780000*%
%TD*%
%TA.AperFunction,SMDPad,CuDef*%
%ADD14R,8.500000X11.000000*%
%TD*%
%TA.AperFunction,SMDPad,CuDef*%
%ADD15R,3.080000X1.020000*%
%TD*%
%TA.AperFunction,SMDPad,CuDef*%
%ADD16R,3.500000X1.200000*%
%TD*%
%TA.AperFunction,SMDPad,CuDef*%
%ADD17R,0.860000X0.810000*%
%TD*%
%TA.AperFunction,SMDPad,CuDef*%
%ADD18R,0.800000X1.200000*%
%TD*%
%TA.AperFunction,SMDPad,CuDef*%
%ADD19R,0.700000X1.200000*%
%TD*%
%TA.AperFunction,ComponentPad*%
%ADD20O,1.100000X1.900000*%
%TD*%
%TA.AperFunction,SMDPad,CuDef*%
%ADD21R,1.200000X3.500000*%
%TD*%
%TA.AperFunction,SMDPad,CuDef*%
%ADD22R,0.200000X0.660000*%
%TD*%
%TA.AperFunction,SMDPad,CuDef*%
%ADD23R,0.660000X0.200000*%
%TD*%
%TA.AperFunction,SMDPad,CuDef*%
%ADD24R,1.650000X1.650000*%
%TD*%
%TA.AperFunction,SMDPad,CuDef*%
%ADD25R,1.490000X1.730000*%
%TD*%
%TA.AperFunction,SMDPad,CuDef*%
%ADD26C,1.500000*%
%TD*%
%TA.AperFunction,SMDPad,CuDef*%
%ADD27R,1.410000X1.350000*%
%TD*%
%TA.AperFunction,SMDPad,CuDef*%
%ADD28R,0.810000X0.860000*%
%TD*%
%TA.AperFunction,SMDPad,CuDef*%
%ADD29R,4.500000X1.650000*%
%TD*%
%TA.AperFunction,SMDPad,CuDef*%
%ADD30R,0.900000X0.800000*%
%TD*%
%TA.AperFunction,SMDPad,CuDef*%
%ADD31R,2.000000X2.000000*%
%TD*%
%TA.AperFunction,SMDPad,CuDef*%
%ADD32R,1.350000X1.410000*%
%TD*%
%TA.AperFunction,ComponentPad*%
%ADD33R,2.200000X2.200000*%
%TD*%
%TA.AperFunction,ComponentPad*%
%ADD34C,2.200000*%
%TD*%
%TA.AperFunction,SMDPad,CuDef*%
%ADD35R,3.730000X5.000000*%
%TD*%
%TA.AperFunction,SMDPad,CuDef*%
%ADD36R,4.000000X1.300000*%
%TD*%
%TA.AperFunction,SMDPad,CuDef*%
%ADD37R,8.400000X10.570000*%
%TD*%
%TA.AperFunction,SMDPad,CuDef*%
%ADD38R,1.900000X1.900000*%
%TD*%
%TA.AperFunction,SMDPad,CuDef*%
%ADD39R,0.800000X0.800000*%
%TD*%
%TA.AperFunction,SMDPad,CuDef*%
%ADD40R,1.190000X1.730000*%
%TD*%
%TA.AperFunction,SMDPad,CuDef*%
%ADD41R,1.130000X1.380000*%
%TD*%
%TA.AperFunction,SMDPad,CuDef*%
%ADD42R,2.780000X1.490000*%
%TD*%
%TA.AperFunction,SMDPad,CuDef*%
%ADD43R,0.800000X1.000000*%
%TD*%
%TA.AperFunction,SMDPad,CuDef*%
%ADD44R,1.650000X4.500000*%
%TD*%
%TA.AperFunction,SMDPad,CuDef*%
%ADD45R,1.410000X3.500000*%
%TD*%
%TA.AperFunction,SMDPad,CuDef*%
%ADD46R,1.380000X1.130000*%
%TD*%
%TA.AperFunction,SMDPad,CuDef*%
%ADD47R,3.500000X1.600000*%
%TD*%
%TA.AperFunction,SMDPad,CuDef*%
%ADD48R,9.000000X10.200000*%
%TD*%
%TA.AperFunction,SMDPad,CuDef*%
%ADD49R,1.270000X2.540000*%
%TD*%
%TA.AperFunction,SMDPad,CuDef*%
%ADD50R,5.400000X6.100000*%
%TD*%
%TA.AperFunction,ViaPad*%
%ADD51C,1.200000*%
%TD*%
%TA.AperFunction,ViaPad*%
%ADD52C,1.800000*%
%TD*%
%TA.AperFunction,ViaPad*%
%ADD53C,4.000000*%
%TD*%
%TA.AperFunction,ViaPad*%
%ADD54C,0.600000*%
%TD*%
%TA.AperFunction,ViaPad*%
%ADD55C,1.500000*%
%TD*%
%TA.AperFunction,Conductor*%
%ADD56C,0.700000*%
%TD*%
%TA.AperFunction,Conductor*%
%ADD57C,1.000000*%
%TD*%
%TA.AperFunction,Conductor*%
%ADD58C,0.130000*%
%TD*%
%TA.AperFunction,Conductor*%
%ADD59C,0.400000*%
%TD*%
G04 APERTURE END LIST*
D10*
X-37000000Y-35900000D02*
X-32000000Y-35900000D01*
X-32000000Y-47900000D01*
X-37000000Y-47900000D01*
X-37000000Y-35900000D01*
X-37000000Y-23300000D02*
X-32000000Y-23300000D01*
X-32000000Y-35300000D01*
X-37000000Y-35300000D01*
X-37000000Y-23300000D01*
X-36950000Y-10850000D02*
X-31950000Y-10850000D01*
X-31950000Y-22850000D01*
X-36950000Y-22850000D01*
X-36950000Y-10850000D01*
X-25410000Y-8480000D02*
X-20410000Y-8480000D01*
X-20410000Y-23480000D01*
X-25410000Y-23480000D01*
X-25410000Y-8480000D01*
X-18910000Y-41180000D02*
X-13910000Y-41180000D01*
X-13910000Y-51180000D01*
X-18910000Y-51180000D01*
X-18910000Y-41180000D01*
X-25410000Y-23980000D02*
X-20410000Y-23980000D01*
X-20410000Y-38980000D01*
X-25410000Y-38980000D01*
X-25410000Y-23980000D01*
X-24910000Y-39980000D02*
X-19910000Y-39980000D01*
X-19910000Y-54980000D01*
X-24910000Y-54980000D01*
X-24910000Y-39980000D01*
X-18410000Y-29980000D02*
X-13410000Y-29980000D01*
X-13410000Y-39980000D01*
X-18410000Y-39980000D01*
X-18410000Y-29980000D01*
X-18410000Y-18980000D02*
X-13410000Y-18980000D01*
X-13410000Y-28980000D01*
X-18410000Y-28980000D01*
X-18410000Y-18980000D01*
X-24910000Y-55480000D02*
X-19910000Y-55480000D01*
X-19910000Y-70480000D01*
X-24910000Y-70480000D01*
X-24910000Y-55480000D01*
X-18410000Y-8480000D02*
X-13410000Y-8480000D01*
X-13410000Y-18480000D01*
X-18410000Y-18480000D01*
X-18410000Y-8480000D01*
X27000000Y28000000D02*
X37000000Y28000000D01*
X37000000Y23000000D01*
X27000000Y23000000D01*
X27000000Y28000000D01*
X16000000Y28000000D02*
X26000000Y28000000D01*
X26000000Y23000000D01*
X16000000Y23000000D01*
X16000000Y28000000D01*
X5000000Y28000000D02*
X15000000Y28000000D01*
X15000000Y23000000D01*
X5000000Y23000000D01*
X5000000Y28000000D01*
X-5500000Y28000000D02*
X4500000Y28000000D01*
X4500000Y23000000D01*
X-5500000Y23000000D01*
X-5500000Y28000000D01*
X26000000Y21500000D02*
X41000000Y21500000D01*
X41000000Y16500000D01*
X26000000Y16500000D01*
X26000000Y21500000D01*
X41500000Y21500000D02*
X56500000Y21500000D01*
X56500000Y16500000D01*
X41500000Y16500000D01*
X41500000Y21500000D01*
X10000000Y21000000D02*
X25000000Y21000000D01*
X25000000Y16000000D01*
X10000000Y16000000D01*
X10000000Y21000000D01*
X-5500000Y21000000D02*
X9500000Y21000000D01*
X9500000Y16000000D01*
X-5500000Y16000000D01*
X-5500000Y21000000D01*
D11*
%TO.P,J4,16,16*%
%TO.N,GATE rail*%
X20460000Y-12980000D03*
%TO.P,J4,15,15*%
X20460000Y-10440000D03*
%TO.P,J4,14,14*%
%TO.N,CV rail*%
X23000000Y-12980000D03*
%TO.P,J4,13,13*%
X23000000Y-10440000D03*
%TO.P,J4,12,12*%
%TO.N,+5V rail*%
X25540000Y-12980000D03*
%TO.P,J4,11,11*%
X25540000Y-10440000D03*
%TO.P,J4,10,10*%
%TO.N,+12V rail*%
X28080000Y-12980000D03*
%TO.P,J4,9,9*%
X28080000Y-10440000D03*
%TO.P,J4,8,8*%
%TO.N,GND*%
X30620000Y-12980000D03*
%TO.P,J4,7,7*%
X30620000Y-10440000D03*
%TO.P,J4,6,6*%
X33160000Y-12980000D03*
%TO.P,J4,5,5*%
X33160000Y-10440000D03*
%TO.P,J4,4,4*%
X35700000Y-12980000D03*
%TO.P,J4,3,3*%
X35700000Y-10440000D03*
%TO.P,J4,2,2*%
%TO.N,-12V rail*%
X38240000Y-12980000D03*
D12*
%TO.P,J4,1,1*%
X38240000Y-10440000D03*
%TD*%
D13*
%TO.P,J3,1,1*%
%TO.N,-12V rail*%
X5130000Y-55110000D03*
D11*
%TO.P,J3,2,2*%
X7670000Y-55110000D03*
%TO.P,J3,3,3*%
%TO.N,GND*%
X5130000Y-57650000D03*
%TO.P,J3,4,4*%
X7670000Y-57650000D03*
%TO.P,J3,5,5*%
X5130000Y-60190000D03*
%TO.P,J3,6,6*%
X7670000Y-60190000D03*
%TO.P,J3,7,7*%
X5130000Y-62730000D03*
%TO.P,J3,8,8*%
X7670000Y-62730000D03*
%TO.P,J3,9,9*%
%TO.N,+12V rail*%
X5130000Y-65270000D03*
%TO.P,J3,10,10*%
X7670000Y-65270000D03*
%TO.P,J3,11,11*%
%TO.N,+5V rail*%
X5130000Y-67810000D03*
%TO.P,J3,12,12*%
X7670000Y-67810000D03*
%TO.P,J3,13,13*%
%TO.N,CV rail*%
X5130000Y-70350000D03*
%TO.P,J3,14,14*%
X7670000Y-70350000D03*
%TO.P,J3,15,15*%
%TO.N,GATE rail*%
X5130000Y-72890000D03*
%TO.P,J3,16,16*%
X7670000Y-72890000D03*
%TD*%
D13*
%TO.P,J2,1,1*%
%TO.N,-12V rail*%
X5020000Y-78860000D03*
D11*
%TO.P,J2,2,2*%
X7560000Y-78860000D03*
%TO.P,J2,3,3*%
%TO.N,GND*%
X5020000Y-81400000D03*
%TO.P,J2,4,4*%
X7560000Y-81400000D03*
%TO.P,J2,5,5*%
X5020000Y-83940000D03*
%TO.P,J2,6,6*%
X7560000Y-83940000D03*
%TO.P,J2,7,7*%
X5020000Y-86480000D03*
%TO.P,J2,8,8*%
X7560000Y-86480000D03*
%TO.P,J2,9,9*%
%TO.N,+12V rail*%
X5020000Y-89020000D03*
%TO.P,J2,10,10*%
X7560000Y-89020000D03*
%TO.P,J2,11,11*%
%TO.N,+5V rail*%
X5020000Y-91560000D03*
%TO.P,J2,12,12*%
X7560000Y-91560000D03*
%TO.P,J2,13,13*%
%TO.N,CV rail*%
X5020000Y-94100000D03*
%TO.P,J2,14,14*%
X7560000Y-94100000D03*
%TO.P,J2,15,15*%
%TO.N,GATE rail*%
X5020000Y-96640000D03*
%TO.P,J2,16,16*%
X7560000Y-96640000D03*
%TD*%
D14*
%TO.P,U4,6,TAB*%
%TO.N,/DC-DC Conversion/-13.5V OUT*%
X53720000Y-64402500D03*
D15*
%TO.P,U4,5,~{ON}/OFF*%
X43400000Y-67802500D03*
%TO.P,U4,4,Feedback*%
%TO.N,Net-(U4-Feedback)*%
X43400000Y-66102500D03*
%TO.P,U4,3,Gnd*%
%TO.N,/DC-DC Conversion/-13.5V OUT*%
X43400000Y-64402500D03*
%TO.P,U4,2,Output*%
%TO.N,Net-(D3-K)*%
X43400000Y-62702500D03*
%TO.P,U4,1,Vin*%
%TO.N,+15V -> +13.5V gen*%
X43400000Y-61002500D03*
%TD*%
D16*
%TO.P,C9,2,2*%
%TO.N,/DC-DC Conversion/-13.5V OUT*%
X40620000Y-56402500D03*
%TO.P,C9,1,1*%
%TO.N,+15V -> +13.5V gen*%
X45960000Y-56402500D03*
%TD*%
D17*
%TO.P,R13,2,2*%
%TO.N,Net-(J1-CC1)*%
X41450000Y-15190000D03*
%TO.P,R13,1,1*%
%TO.N,GND*%
X41450000Y-16690000D03*
%TD*%
D18*
%TO.P,J1,B12,GND*%
%TO.N,GND*%
X57020000Y-7260000D03*
D19*
%TO.P,J1,B9,VBUS*%
%TO.N,+15V -> +13.5V gen*%
X55820000Y-7260000D03*
%TO.P,J1,A5,CC1*%
%TO.N,Net-(J1-CC1)*%
X54820000Y-7260000D03*
%TO.P,J1,B5,CC2*%
%TO.N,Net-(J1-CC2)*%
X53820000Y-7260000D03*
%TO.P,J1,A9,VBUS*%
%TO.N,+15V -> +13.5V gen*%
X52820000Y-7260000D03*
D18*
%TO.P,J1,A12,GND*%
%TO.N,GND*%
X51620000Y-7260000D03*
D20*
%TO.P,J1,7,EH*%
X50000000Y-3200000D03*
X58640000Y-3200000D03*
X50000000Y-7010000D03*
X58640000Y-7010000D03*
%TD*%
D21*
%TO.P,C5,1,1*%
%TO.N,+15V -> +13.5V gen*%
X57220000Y-17170000D03*
%TO.P,C5,2,2*%
%TO.N,GND*%
X57220000Y-11830000D03*
%TD*%
D22*
%TO.P,U1,1,DRV*%
%TO.N,Net-(U1-CFG1)*%
X45080000Y-12622500D03*
%TO.P,U1,2,VBUS*%
%TO.N,+15V -> +13.5V gen*%
X44680000Y-12622500D03*
%TO.P,U1,3,NC*%
%TO.N,unconnected-(U1-NC-Pad3)*%
X44280000Y-12622500D03*
%TO.P,U1,4,NC*%
%TO.N,unconnected-(U1-NC-Pad4)*%
X43880000Y-12622500D03*
%TO.P,U1,5,GATE*%
%TO.N,unconnected-(U1-GATE-Pad5)*%
X43480000Y-12622500D03*
D23*
%TO.P,U1,6,~{NMOS}*%
%TO.N,GND*%
X42870000Y-13232500D03*
%TO.P,U1,7,VDD*%
%TO.N,Net-(U1-VDD)*%
X42870000Y-13632500D03*
%TO.P,U1,8,DP*%
%TO.N,Net-(U1-DM)*%
X42870000Y-14032500D03*
%TO.P,U1,9,DM*%
X42870000Y-14432500D03*
%TO.P,U1,10,CC1*%
%TO.N,Net-(J1-CC1)*%
X42870000Y-14832500D03*
D22*
%TO.P,U1,11,CC2*%
%TO.N,Net-(J1-CC2)*%
X43480000Y-15442500D03*
%TO.P,U1,12,CFG3*%
%TO.N,unconnected-(U1-CFG3-Pad12)*%
X43880000Y-15442500D03*
%TO.P,U1,13,CFG2*%
%TO.N,unconnected-(U1-CFG2-Pad13)*%
X44280000Y-15442500D03*
%TO.P,U1,14,ISP*%
%TO.N,GND*%
X44680000Y-15442500D03*
%TO.P,U1,15,ISN*%
X45080000Y-15442500D03*
D23*
%TO.P,U1,16,NC*%
%TO.N,unconnected-(U1-NC-Pad16)*%
X45690000Y-14832500D03*
%TO.P,U1,17,NC*%
%TO.N,unconnected-(U1-NC-Pad17)*%
X45690000Y-14432500D03*
%TO.P,U1,18,NC*%
%TO.N,unconnected-(U1-NC-Pad18)*%
X45690000Y-14032500D03*
%TO.P,U1,19,CFG1*%
%TO.N,Net-(U1-CFG1)*%
X45690000Y-13632500D03*
%TO.P,U1,20,NC*%
%TO.N,unconnected-(U1-NC-Pad20)*%
X45690000Y-13232500D03*
D24*
%TO.P,U1,21,GND*%
%TO.N,GND*%
X44280000Y-14032500D03*
%TD*%
D25*
%TO.P,C1,1,1*%
%TO.N,GND*%
X52060000Y-12432500D03*
%TO.P,C1,2,2*%
%TO.N,+15V -> +13.5V gen*%
X48880000Y-12432500D03*
%TD*%
D26*
%TO.P,TP2,1,1*%
%TO.N,GND*%
X64400000Y-5200000D03*
%TD*%
D27*
%TO.P,C2,1,1*%
%TO.N,GND*%
X50880000Y-14632500D03*
%TO.P,C2,2,2*%
%TO.N,+15V -> +13.5V gen*%
X48880000Y-14632500D03*
%TD*%
D28*
%TO.P,R11,1,1*%
%TO.N,Net-(U1-CFG1)*%
X49130000Y-10202500D03*
%TO.P,R11,2,2*%
%TO.N,GND*%
X50630000Y-10202500D03*
%TD*%
D29*
%TO.P,C3,1,1*%
%TO.N,/DC-DC Conversion/+13.5V OUT*%
X62720000Y-12500000D03*
%TO.P,C3,2,2*%
%TO.N,GND*%
X71720000Y-12500000D03*
%TD*%
D26*
%TO.P,TP3,1,1*%
%TO.N,/DC-DC Conversion/+13.5V OUT*%
X67600000Y-5200000D03*
%TD*%
%TO.P,TP1,1,1*%
%TO.N,+15V -> +13.5V gen*%
X61200000Y-5200000D03*
%TD*%
D30*
%TO.P,C30,2,2*%
%TO.N,GND*%
X41480000Y-12132500D03*
%TO.P,C30,1,1*%
%TO.N,Net-(U1-VDD)*%
X41480000Y-13532500D03*
%TD*%
D31*
%TO.P,D1,2,A*%
%TO.N,GND*%
X68460000Y-34102500D03*
%TO.P,D1,1,K*%
%TO.N,Net-(D1-K)*%
X72860000Y-34102500D03*
%TD*%
D27*
%TO.P,C6,1,1*%
%TO.N,+15V -> +13.5V gen*%
X43960000Y-20202500D03*
%TO.P,C6,2,2*%
%TO.N,GND*%
X41960000Y-20202500D03*
%TD*%
D32*
%TO.P,C19,1,1*%
%TO.N,Net-(U8-OUT)*%
X49240000Y-87042500D03*
%TO.P,C19,2,2*%
%TO.N,Net-(C16-Pad2)*%
X49240000Y-85042500D03*
%TD*%
D33*
%TO.P,J7,1,1*%
%TO.N,+12V rail*%
X15240000Y-34000000D03*
D34*
%TO.P,J7,2,2*%
X10160000Y-34000000D03*
%TD*%
%TO.P,J9,2,2*%
%TO.N,GND*%
X10160000Y-22000000D03*
D33*
%TO.P,J9,1,1*%
X15240000Y-22000000D03*
%TD*%
D32*
%TO.P,C32,1*%
%TO.N,Net-(U3-Feedback)*%
X40960000Y-47702500D03*
%TO.P,C32,2*%
%TO.N,/DC-DC Conversion/+7.5V OUT*%
X40960000Y-49702500D03*
%TD*%
D35*
%TO.P,L2,1,1*%
%TO.N,Net-(D2-K)*%
X61190000Y-42702500D03*
%TO.P,L2,2,2*%
%TO.N,/DC-DC Conversion/+7.5V OUT*%
X72730000Y-42702500D03*
%TD*%
D36*
%TO.P,U6,1,IN*%
%TO.N,/DC-DC Conversion/+13.5V OUT*%
X34550000Y-50442500D03*
%TO.P,U6,3,OUT*%
%TO.N,Net-(U6-OUT)*%
X34550000Y-45362500D03*
D37*
%TO.P,U6,4,GND*%
%TO.N,GND*%
X24370000Y-47902500D03*
%TD*%
D38*
%TO.P,TVS3,1,C*%
%TO.N,GND*%
X44430000Y-94102500D03*
%TO.P,TVS3,2,A*%
%TO.N,-12V rail*%
X49090000Y-94102500D03*
%TD*%
D30*
%TO.P,C16,1,1*%
%TO.N,/DC-DC Conversion/-13.5V OUT*%
X49140000Y-81750000D03*
%TO.P,C16,2,2*%
%TO.N,Net-(C16-Pad2)*%
X49140000Y-83150000D03*
%TD*%
D39*
%TO.P,LED2,1,C*%
%TO.N,GND*%
X19000000Y-95802500D03*
%TO.P,LED2,2,A*%
%TO.N,Net-(LED2-A)*%
X19000000Y-94302500D03*
%TD*%
D15*
%TO.P,U3,1,Vin*%
%TO.N,+15V -> +13.5V gen*%
X44040000Y-42502500D03*
%TO.P,U3,2,Output*%
%TO.N,Net-(D2-K)*%
X44040000Y-44202500D03*
%TO.P,U3,3,Gnd*%
%TO.N,GND*%
X44040000Y-45902500D03*
%TO.P,U3,4,Feedback*%
%TO.N,Net-(U3-Feedback)*%
X44040000Y-47602500D03*
%TO.P,U3,5,~{ON}/OFF*%
%TO.N,GND*%
X44040000Y-49302500D03*
D14*
%TO.P,U3,6,TAB*%
X54360000Y-45902500D03*
%TD*%
D40*
%TO.P,PTC3,1,1*%
%TO.N,Net-(U8-OUT)*%
X45910000Y-90802500D03*
%TO.P,PTC3,2,2*%
%TO.N,-12V rail*%
X48810000Y-90802500D03*
%TD*%
D41*
%TO.P,R9,1,1*%
%TO.N,Net-(U8-OUT)*%
X43560000Y-90902500D03*
%TO.P,R9,2,2*%
%TO.N,Net-(LED4-C)*%
X41560000Y-90902500D03*
%TD*%
D35*
%TO.P,L3,1,1*%
%TO.N,Net-(D3-K)*%
X61290000Y-65302500D03*
%TO.P,L3,2,2*%
%TO.N,GND*%
X72830000Y-65302500D03*
%TD*%
D32*
%TO.P,C17,1,1*%
%TO.N,GND*%
X33350000Y-41202500D03*
%TO.P,C17,2,2*%
%TO.N,Net-(U6-OUT)*%
X33350000Y-43202500D03*
%TD*%
D42*
%TO.P,PTC1,1,1*%
%TO.N,Net-(U6-OUT)*%
X32800000Y-28200000D03*
%TO.P,PTC1,2,2*%
%TO.N,+12V rail*%
X32800000Y-25000000D03*
%TD*%
D16*
%TO.P,C23,1,1*%
%TO.N,Net-(U7-OUT)*%
X33170000Y-73342500D03*
%TO.P,C23,2,2*%
%TO.N,GND*%
X27830000Y-73342500D03*
%TD*%
D43*
%TO.P,TVS2,1,A*%
%TO.N,GND*%
X20570000Y-80342500D03*
%TO.P,TVS2,2,K*%
%TO.N,+5V rail*%
X20570000Y-77942500D03*
%TD*%
D44*
%TO.P,C20,1,1*%
%TO.N,/DC-DC Conversion/+13.5V OUT*%
X32050000Y-54902500D03*
%TO.P,C20,2,2*%
%TO.N,GND*%
X32050000Y-63902500D03*
%TD*%
D17*
%TO.P,R1,1,1*%
%TO.N,Net-(U2-Feedback)*%
X38860000Y-30252500D03*
%TO.P,R1,2,2*%
%TO.N,/DC-DC Conversion/+13.5V OUT*%
X38860000Y-28752500D03*
%TD*%
D45*
%TO.P,PTC2,1,1*%
%TO.N,Net-(U7-OUT)*%
X24320000Y-74742500D03*
%TO.P,PTC2,2,2*%
%TO.N,+5V rail*%
X20620000Y-74742500D03*
%TD*%
D29*
%TO.P,C14,1,1*%
%TO.N,/DC-DC Conversion/+13.5V OUT*%
X25450000Y-59302500D03*
%TO.P,C14,2,2*%
%TO.N,GND*%
X16450000Y-59302500D03*
%TD*%
D26*
%TO.P,TP5,1,1*%
%TO.N,/DC-DC Conversion/-13.5V OUT*%
X73560000Y-84802500D03*
%TD*%
D16*
%TO.P,C7,1,1*%
%TO.N,+15V -> +13.5V gen*%
X45460000Y-35902500D03*
%TO.P,C7,2,2*%
%TO.N,GND*%
X40120000Y-35902500D03*
%TD*%
D32*
%TO.P,C33,1*%
%TO.N,GND*%
X40560000Y-68202500D03*
%TO.P,C33,2*%
%TO.N,Net-(U4-Feedback)*%
X40560000Y-66202500D03*
%TD*%
D17*
%TO.P,R2,1,1*%
%TO.N,GND*%
X38860000Y-25452500D03*
%TO.P,R2,2,2*%
%TO.N,Net-(U2-Feedback)*%
X38860000Y-26952500D03*
%TD*%
D46*
%TO.P,R7,1,1*%
%TO.N,Net-(U6-OUT)*%
X33800000Y-31800000D03*
%TO.P,R7,2,2*%
%TO.N,Net-(LED2-A)*%
X33800000Y-33800000D03*
%TD*%
D15*
%TO.P,U2,1,Vin*%
%TO.N,+15V -> +13.5V gen*%
X43840000Y-21702500D03*
%TO.P,U2,2,Output*%
%TO.N,Net-(D1-K)*%
X43840000Y-23402500D03*
%TO.P,U2,3,Gnd*%
%TO.N,GND*%
X43840000Y-25102500D03*
%TO.P,U2,4,Feedback*%
%TO.N,Net-(U2-Feedback)*%
X43840000Y-26802500D03*
%TO.P,U2,5,~{ON}/OFF*%
%TO.N,GND*%
X43840000Y-28502500D03*
D14*
%TO.P,U2,6,TAB*%
X54160000Y-25102500D03*
%TD*%
D17*
%TO.P,R3,1,1*%
%TO.N,/DC-DC Conversion/+7.5V OUT*%
X39060000Y-49752500D03*
%TO.P,R3,2,2*%
%TO.N,Net-(U3-Feedback)*%
X39060000Y-51252500D03*
%TD*%
D41*
%TO.P,R8,1,1*%
%TO.N,Net-(U7-OUT)*%
X25750000Y-71000000D03*
%TO.P,R8,2,2*%
%TO.N,Net-(LED3-A)*%
X23750000Y-71000000D03*
%TD*%
D16*
%TO.P,C22,1,1*%
%TO.N,/DC-DC Conversion/+7.5V OUT*%
X33340000Y-91642500D03*
%TO.P,C22,2,2*%
%TO.N,GND*%
X28000000Y-91642500D03*
%TD*%
D27*
%TO.P,C8,1,1*%
%TO.N,+15V -> +13.5V gen*%
X44060000Y-40802500D03*
%TO.P,C8,2,2*%
%TO.N,GND*%
X42060000Y-40802500D03*
%TD*%
D32*
%TO.P,C31,1*%
%TO.N,Net-(U2-Feedback)*%
X40860000Y-27002500D03*
%TO.P,C31,2*%
%TO.N,/DC-DC Conversion/+13.5V OUT*%
X40860000Y-29002500D03*
%TD*%
%TO.P,C18,1,1*%
%TO.N,Net-(U7-OUT)*%
X35870000Y-77742500D03*
%TO.P,C18,2,2*%
%TO.N,GND*%
X35870000Y-75742500D03*
%TD*%
D39*
%TO.P,LED4,1,C*%
%TO.N,Net-(LED4-C)*%
X24000000Y-95802500D03*
%TO.P,LED4,2,A*%
%TO.N,GND*%
X24000000Y-94302500D03*
%TD*%
D17*
%TO.P,R4,1,1*%
%TO.N,Net-(U3-Feedback)*%
X39060000Y-47652500D03*
%TO.P,R4,2,2*%
%TO.N,GND*%
X39060000Y-46152500D03*
%TD*%
D29*
%TO.P,C11,1,1*%
%TO.N,GND*%
X73060000Y-78302500D03*
%TO.P,C11,2,2*%
%TO.N,/DC-DC Conversion/-13.5V OUT*%
X64060000Y-78302500D03*
%TD*%
%TO.P,C24,1,1*%
%TO.N,Net-(C16-Pad2)*%
X58640000Y-75600000D03*
%TO.P,C24,2,2*%
%TO.N,/DC-DC Conversion/-13.5V OUT*%
X49640000Y-75600000D03*
%TD*%
D47*
%TO.P,U7,1,IN*%
%TO.N,/DC-DC Conversion/+7.5V OUT*%
X38370000Y-85082500D03*
D48*
%TO.P,U7,2,GND*%
%TO.N,GND*%
X27570000Y-82542500D03*
D47*
%TO.P,U7,3,OUT*%
%TO.N,Net-(U7-OUT)*%
X38370000Y-80002500D03*
%TD*%
D44*
%TO.P,C21,1,1*%
%TO.N,Net-(U6-OUT)*%
X27150000Y-39802500D03*
%TO.P,C21,2,2*%
%TO.N,GND*%
X27150000Y-30802500D03*
%TD*%
D34*
%TO.P,J8,2,2*%
%TO.N,+5V rail*%
X10160000Y-46000000D03*
D33*
%TO.P,J8,1,1*%
X15240000Y-46000000D03*
%TD*%
D17*
%TO.P,R6,1,1*%
%TO.N,Net-(U4-Feedback)*%
X38560000Y-64902500D03*
%TO.P,R6,2,2*%
%TO.N,/DC-DC Conversion/-13.5V OUT*%
X38560000Y-63402500D03*
%TD*%
D31*
%TO.P,D3,1,K*%
%TO.N,Net-(D3-K)*%
X62760000Y-55602500D03*
%TO.P,D3,2,A*%
%TO.N,/DC-DC Conversion/-13.5V OUT*%
X58360000Y-55602500D03*
%TD*%
D34*
%TO.P,J6,2,2*%
%TO.N,-12V rail*%
X10160000Y-10000000D03*
D33*
%TO.P,J6,1,1*%
X15240000Y-10000000D03*
%TD*%
D35*
%TO.P,L1,1,1*%
%TO.N,Net-(D1-K)*%
X72930000Y-25502500D03*
%TO.P,L1,2,2*%
%TO.N,/DC-DC Conversion/+13.5V OUT*%
X61390000Y-25502500D03*
%TD*%
D49*
%TO.P,U8,1,GND*%
%TO.N,GND*%
X42360000Y-87552500D03*
D50*
%TO.P,U8,2,VIN*%
%TO.N,/DC-DC Conversion/-13.5V OUT*%
X44650000Y-80052500D03*
D49*
%TO.P,U8,3,OUT*%
%TO.N,Net-(U8-OUT)*%
X46940000Y-87542500D03*
%TD*%
D17*
%TO.P,R5,1,1*%
%TO.N,Net-(U4-Feedback)*%
X38560000Y-66602500D03*
%TO.P,R5,2,2*%
%TO.N,GND*%
X38560000Y-68102500D03*
%TD*%
D32*
%TO.P,C10,1,1*%
%TO.N,+15V -> +13.5V gen*%
X40460000Y-61602500D03*
%TO.P,C10,2,2*%
%TO.N,/DC-DC Conversion/-13.5V OUT*%
X40460000Y-63602500D03*
%TD*%
D30*
%TO.P,C15,2,2*%
%TO.N,GND*%
X36750000Y-88450000D03*
%TO.P,C15,1,1*%
%TO.N,/DC-DC Conversion/+7.5V OUT*%
X36750000Y-87050000D03*
%TD*%
D26*
%TO.P,TP4,1,1*%
%TO.N,/DC-DC Conversion/+7.5V OUT*%
X73560000Y-51302500D03*
%TD*%
D39*
%TO.P,LED3,1,C*%
%TO.N,GND*%
X21500000Y-95802500D03*
%TO.P,LED3,2,A*%
%TO.N,Net-(LED3-A)*%
X21500000Y-94302500D03*
%TD*%
D21*
%TO.P,C4,1,1*%
%TO.N,/DC-DC Conversion/+7.5V OUT*%
X68560000Y-51382500D03*
%TO.P,C4,2,2*%
%TO.N,GND*%
X68560000Y-56722500D03*
%TD*%
D44*
%TO.P,C25,1,1*%
%TO.N,Net-(C16-Pad2)*%
X56560000Y-83302500D03*
%TO.P,C25,2,2*%
%TO.N,Net-(U8-OUT)*%
X56560000Y-92302500D03*
%TD*%
D31*
%TO.P,D2,1,K*%
%TO.N,Net-(D2-K)*%
X61660000Y-34102500D03*
%TO.P,D2,2,A*%
%TO.N,GND*%
X66060000Y-34102500D03*
%TD*%
D38*
%TO.P,TVS1,1,C*%
%TO.N,+12V rail*%
X32600000Y-22530000D03*
%TO.P,TVS1,2,A*%
%TO.N,GND*%
X32600000Y-17870000D03*
%TD*%
D28*
%TO.P,R12,1,1*%
%TO.N,GND*%
X41720000Y-18290000D03*
%TO.P,R12,2,2*%
%TO.N,Net-(J1-CC2)*%
X43220000Y-18290000D03*
%TD*%
D51*
%TO.N,GND*%
X33150000Y-4750000D03*
X50550000Y-12650000D03*
D52*
X24675000Y-31925000D03*
%TO.N,+12V rail*%
X21000000Y-35900000D03*
X28200000Y-17400000D03*
%TO.N,GND*%
X15240000Y-25550000D03*
%TO.N,+5V rail*%
X17250000Y-36400000D03*
D53*
%TO.N,GND*%
X6350000Y-22000000D03*
D54*
X42530000Y-17230000D03*
D52*
X35380000Y-22670000D03*
D54*
X40670000Y-19120000D03*
%TO.N,Net-(J1-CC2)*%
X40550000Y-10920000D03*
%TO.N,Net-(J1-CC1)*%
X42880000Y-11432500D03*
X54820000Y-8810000D03*
%TO.N,Net-(J1-CC2)*%
X53820000Y-8800000D03*
%TO.N,+15V -> +13.5V gen*%
X60050000Y-7810000D03*
X57040000Y-5140000D03*
%TO.N,Net-(U1-CFG1)*%
X48010000Y-11020000D03*
%TO.N,GND*%
X50500000Y-11260000D03*
D51*
%TO.N,Net-(LED2-A)*%
X31200000Y-34600000D03*
D52*
%TO.N,GND*%
X54720000Y-15000000D03*
X54290000Y-3250000D03*
%TO.N,+15V -> +13.5V gen*%
X47080000Y-16702500D03*
D54*
%TO.N,Net-(U1-CFG1)*%
X46130000Y-12622500D03*
D52*
%TO.N,GND*%
X54720000Y-12500000D03*
D54*
X42720000Y-12500000D03*
D53*
X69500000Y-16500000D03*
D54*
X43868750Y-13621250D03*
X30200000Y-78200000D03*
X28400000Y-78200000D03*
X26600000Y-78200000D03*
X24800000Y-78200000D03*
X28400000Y-85400000D03*
X26600000Y-85400000D03*
X30200000Y-87000000D03*
X28400000Y-87000000D03*
X26600000Y-87000000D03*
X24800000Y-87000000D03*
X30200000Y-85400000D03*
X24800000Y-85400000D03*
X30200000Y-83600000D03*
X28400000Y-83600000D03*
X26600000Y-83600000D03*
X24800000Y-81800000D03*
X24800000Y-83600000D03*
X30200000Y-80000000D03*
X26600000Y-80000000D03*
X24800000Y-80000000D03*
X30200000Y-81800000D03*
X28400000Y-81800000D03*
X26600000Y-81800000D03*
X28400000Y-80000000D03*
X27200000Y-43600000D03*
X25400000Y-43600000D03*
X23600000Y-43600000D03*
X21800000Y-43600000D03*
X25400000Y-50800000D03*
X23600000Y-50800000D03*
X27200000Y-52400000D03*
X25400000Y-52400000D03*
X23600000Y-52400000D03*
X21800000Y-52400000D03*
X27200000Y-50800000D03*
X21800000Y-50800000D03*
X27200000Y-49000000D03*
X25400000Y-49000000D03*
X23600000Y-49000000D03*
X21800000Y-47200000D03*
X21800000Y-49000000D03*
X27200000Y-45400000D03*
X23600000Y-45400000D03*
X21800000Y-45400000D03*
X27200000Y-47200000D03*
X25400000Y-47200000D03*
X23600000Y-47200000D03*
X25400000Y-45400000D03*
X57000000Y-41400000D03*
X55200000Y-41400000D03*
X53400000Y-41400000D03*
X51600000Y-41400000D03*
X55200000Y-48600000D03*
X53400000Y-48600000D03*
X57000000Y-50200000D03*
X55200000Y-50200000D03*
X53400000Y-50200000D03*
X51600000Y-50200000D03*
X57000000Y-48600000D03*
X51600000Y-48600000D03*
X57000000Y-46800000D03*
X55200000Y-46800000D03*
X53400000Y-46800000D03*
X51600000Y-45000000D03*
X51600000Y-46800000D03*
X57000000Y-43200000D03*
X53400000Y-43200000D03*
X51600000Y-43200000D03*
X57000000Y-45000000D03*
X55200000Y-45000000D03*
X53400000Y-45000000D03*
X55200000Y-43200000D03*
X57000000Y-29600000D03*
X55200000Y-29600000D03*
X53400000Y-29600000D03*
X51600000Y-29600000D03*
X57000000Y-28000000D03*
X55200000Y-28000000D03*
X53400000Y-28000000D03*
X51600000Y-28000000D03*
X57000000Y-26200000D03*
X55200000Y-26200000D03*
X53400000Y-26200000D03*
X51600000Y-26200000D03*
X57000000Y-24400000D03*
X55200000Y-24400000D03*
X53400000Y-24400000D03*
X51600000Y-24400000D03*
X57000000Y-22600000D03*
X55200000Y-22600000D03*
X53400000Y-22600000D03*
X51600000Y-22600000D03*
X57000000Y-20800000D03*
X55200000Y-20800000D03*
X53400000Y-20800000D03*
X51600000Y-20800000D03*
D53*
X67800000Y-68300000D03*
X31200000Y-37700000D03*
D51*
%TO.N,Net-(D1-K)*%
X69750000Y-25500000D03*
%TO.N,GND*%
X41150000Y-22125000D03*
D55*
X39000000Y-71500000D03*
D52*
%TO.N,Net-(D3-K)*%
X46460000Y-62002500D03*
D53*
%TO.N,GND*%
X70500000Y-74500000D03*
D52*
%TO.N,+15V -> +13.5V gen*%
X49500000Y-56602500D03*
X48000000Y-34500000D03*
%TO.N,/DC-DC Conversion/+13.5V OUT*%
X36460000Y-47502500D03*
X37660000Y-43902500D03*
D51*
%TO.N,/DC-DC Conversion/+7.5V OUT*%
X37560000Y-53202500D03*
D52*
X34250000Y-87900000D03*
D51*
%TO.N,Net-(U2-Feedback)*%
X36500000Y-26952500D03*
X36500000Y-30252500D03*
%TO.N,Net-(U3-Feedback)*%
X40210000Y-51750000D03*
X38000000Y-48250000D03*
%TO.N,Net-(D1-K)*%
X47660000Y-23402500D03*
D53*
%TO.N,Net-(D3-K)*%
X67000000Y-62000000D03*
D52*
%TO.N,-12V rail*%
X12460000Y-53402500D03*
X15610000Y-82602500D03*
X12460000Y-76002500D03*
%TO.N,CV rail*%
X14760000Y-61902500D03*
X14760000Y-75802500D03*
X14760000Y-68702500D03*
X12660000Y-80002500D03*
D54*
%TO.N,Net-(LED2-A)*%
X17400000Y-94300000D03*
D52*
%TO.N,GND*%
X28500000Y-89500000D03*
D51*
X40300000Y-40950000D03*
X39500000Y-44750000D03*
D52*
X70500000Y-37000000D03*
D51*
X40000000Y-88000000D03*
X17500000Y-95802500D03*
D53*
X71500000Y-54000000D03*
D51*
X20570000Y-81800000D03*
X47250000Y-45750000D03*
X38500000Y-77000000D03*
D52*
X64000000Y-37000000D03*
D51*
X41500000Y-95000000D03*
X47050000Y-25975000D03*
D52*
X17500000Y-56700000D03*
D51*
X44000000Y-30000000D03*
D52*
X29000000Y-71000000D03*
X34260000Y-61852500D03*
X40500000Y-34000000D03*
D51*
X47250000Y-49500000D03*
D55*
X42500000Y-71000000D03*
D51*
X36500000Y-25452500D03*
X26000000Y-94302500D03*
%TD*%
D56*
%TO.N,/DC-DC Conversion/+7.5V OUT*%
X33340000Y-91642500D02*
X33340000Y-88810000D01*
X33340000Y-88810000D02*
X34250000Y-87900000D01*
X34250000Y-87900000D02*
X35790000Y-87050000D01*
X35790000Y-87050000D02*
X36750000Y-87050000D01*
X38370000Y-85082500D02*
X38370000Y-85280000D01*
X38370000Y-85280000D02*
X36600000Y-87050000D01*
%TO.N,GND*%
X36750000Y-88450000D02*
X39550000Y-88450000D01*
X39550000Y-88450000D02*
X40000000Y-88000000D01*
D57*
%TO.N,/DC-DC Conversion/-13.5V OUT*%
X49140000Y-81750000D02*
X49140000Y-77042500D01*
%TO.N,Net-(C16-Pad2)*%
X49240000Y-85042500D02*
X49240000Y-83250000D01*
X49240000Y-83250000D02*
X49140000Y-83150000D01*
D58*
%TO.N,+15V -> +13.5V gen*%
X44680000Y-11532500D02*
X47080000Y-11532500D01*
D56*
%TO.N,GND*%
X33160000Y-4760000D02*
X33150000Y-4750000D01*
X33160000Y-10440000D02*
X33160000Y-4760000D01*
X52060000Y-12432500D02*
X50767500Y-12432500D01*
X50767500Y-12432500D02*
X50550000Y-12650000D01*
X50500000Y-10350000D02*
X50600000Y-10250000D01*
X50500000Y-11260000D02*
X50500000Y-10350000D01*
D57*
%TO.N,+12V rail*%
X30650000Y-22530000D02*
X30110000Y-21990000D01*
X21000000Y-35900000D02*
X21000000Y-31100000D01*
X21000000Y-31100000D02*
X30110000Y-21990000D01*
X28200000Y-20080000D02*
X28200000Y-17400000D01*
X30110000Y-21990000D02*
X28200000Y-20080000D01*
X32600000Y-22530000D02*
X30650000Y-22530000D01*
D56*
X28080000Y-12980000D02*
X28100000Y-13000000D01*
X28080000Y-10440000D02*
X28080000Y-12980000D01*
D57*
%TO.N,GND*%
X15240000Y-25550000D02*
X15240000Y-25590000D01*
X15240000Y-25590000D02*
X15250000Y-25600000D01*
X15240000Y-22000000D02*
X15240000Y-25550000D01*
D58*
%TO.N,Net-(U1-CFG1)*%
X46350000Y-13550000D02*
X46350000Y-12842500D01*
X46350000Y-12842500D02*
X46130000Y-12622500D01*
X46350000Y-13550000D02*
X46274375Y-13625625D01*
X46274375Y-13625625D02*
X46274375Y-13626875D01*
X46274375Y-13626875D02*
X45695625Y-13626875D01*
X45695625Y-13626875D02*
X45690000Y-13632500D01*
%TO.N,Net-(J1-CC1)*%
X40764000Y-14564000D02*
X41400000Y-15200000D01*
X40764000Y-11466500D02*
X40764000Y-14564000D01*
X40798000Y-11432500D02*
X40764000Y-11466500D01*
X42880000Y-11432500D02*
X40798000Y-11432500D01*
%TO.N,Net-(J1-CC2)*%
X40900000Y-15910000D02*
X43060000Y-15910000D01*
X40900000Y-15910000D02*
X40349000Y-15359000D01*
X40349000Y-11121000D02*
X40550000Y-10920000D01*
X40349000Y-15359000D02*
X40349000Y-11121000D01*
D59*
%TO.N,GATE rail*%
X20460000Y-12860000D02*
X20550000Y-12950000D01*
X20460000Y-10440000D02*
X20460000Y-12860000D01*
D56*
%TO.N,CV rail*%
X23000000Y-12950000D02*
X23050000Y-13000000D01*
X23000000Y-10440000D02*
X23000000Y-12950000D01*
D57*
%TO.N,+5V rail*%
X17250000Y-43950000D02*
X17250000Y-36400000D01*
X15150000Y-46050000D02*
X17250000Y-43950000D01*
X10460000Y-46410000D02*
X10100000Y-46050000D01*
X10100000Y-46050000D02*
X15150000Y-46050000D01*
X10460000Y-67700000D02*
X10460000Y-46410000D01*
%TO.N,+12V rail*%
X2180000Y-41970000D02*
X10300000Y-33850000D01*
X2180000Y-65400000D02*
X2180000Y-41970000D01*
X15240000Y-34000000D02*
X10100000Y-34000000D01*
%TO.N,GND*%
X15240000Y-22000000D02*
X6350000Y-22000000D01*
%TO.N,-12V rail*%
X38350000Y-13050000D02*
X38200000Y-12900000D01*
X38200000Y-12900000D02*
X38200000Y-10550000D01*
X19150000Y-18700000D02*
X22500000Y-15350000D01*
X22500000Y-15350000D02*
X36050000Y-15350000D01*
X36050000Y-15350000D02*
X38350000Y-13050000D01*
X19100000Y-18750000D02*
X19150000Y-18700000D01*
X15200000Y-15350000D02*
X15200000Y-10000000D01*
X19100000Y-50200000D02*
X19100000Y-18750000D01*
X12460000Y-53402500D02*
X15897500Y-53402500D01*
X15897500Y-53402500D02*
X19100000Y-50200000D01*
X15200000Y-10000000D02*
X10150000Y-10000000D01*
X19150000Y-18700000D02*
X18550000Y-18700000D01*
X18550000Y-18700000D02*
X15200000Y-15350000D01*
D58*
%TO.N,GND*%
X41990000Y-16690000D02*
X42530000Y-17230000D01*
X41450000Y-16690000D02*
X41990000Y-16690000D01*
%TO.N,Net-(J1-CC2)*%
X43060000Y-15910000D02*
X43490000Y-15480000D01*
%TO.N,GND*%
X41720000Y-18290000D02*
X40890000Y-19120000D01*
X40890000Y-19120000D02*
X40670000Y-19120000D01*
%TO.N,Net-(J1-CC2)*%
X43490000Y-18080000D02*
X43190000Y-18380000D01*
X43490000Y-17560000D02*
X43490000Y-18080000D01*
D56*
%TO.N,GND*%
X32600000Y-17870000D02*
X35380000Y-20650000D01*
X35380000Y-20650000D02*
X35380000Y-22670000D01*
D58*
%TO.N,Net-(J1-CC2)*%
X43490000Y-17560000D02*
X43490000Y-15450000D01*
D57*
%TO.N,GND*%
X58640000Y-3200000D02*
X54240000Y-3200000D01*
X50000000Y-3200000D02*
X54240000Y-3200000D01*
X54240000Y-3200000D02*
X54290000Y-3250000D01*
D56*
%TO.N,Net-(J1-CC1)*%
X54820000Y-8810000D02*
X54830000Y-8820000D01*
X54820000Y-7260000D02*
X54820000Y-8810000D01*
%TO.N,Net-(J1-CC2)*%
X53820000Y-7260000D02*
X53820000Y-8800000D01*
%TO.N,+15V -> +13.5V gen*%
X60050000Y-6360000D02*
X61150000Y-5260000D01*
X60050000Y-7810000D02*
X60050000Y-6360000D01*
X56890000Y-5290000D02*
X57040000Y-5140000D01*
X55820000Y-5290000D02*
X56890000Y-5290000D01*
X52870000Y-5280000D02*
X52870000Y-7520000D01*
X55810000Y-5280000D02*
X52890000Y-5280000D01*
X52880000Y-5270000D02*
X52870000Y-5280000D01*
X55820000Y-7260000D02*
X55820000Y-5290000D01*
X55820000Y-5290000D02*
X55810000Y-5280000D01*
X52890000Y-5280000D02*
X52880000Y-5270000D01*
X52820000Y-7260000D02*
X52820000Y-7987500D01*
X52820000Y-7987500D02*
X51667500Y-9140000D01*
X51667500Y-9140000D02*
X47890000Y-9140000D01*
X47890000Y-9140000D02*
X47090000Y-9940000D01*
X47090000Y-9940000D02*
X47090000Y-11522500D01*
X47090000Y-11522500D02*
X47080000Y-11532500D01*
D58*
%TO.N,Net-(U1-CFG1)*%
X48827500Y-10202500D02*
X48010000Y-11020000D01*
X49130000Y-10202500D02*
X48827500Y-10202500D01*
D57*
%TO.N,GND*%
X51510000Y-7290000D02*
X51480000Y-7260000D01*
X50110000Y-7260000D02*
X50090000Y-7240000D01*
X51480000Y-7260000D02*
X50110000Y-7260000D01*
X57170000Y-7270000D02*
X57180000Y-7260000D01*
X57180000Y-7260000D02*
X58640000Y-7260000D01*
X58640000Y-7260000D02*
X58650000Y-7250000D01*
X50000000Y-7400000D02*
X50010000Y-7410000D01*
X50000000Y-3200000D02*
X50000000Y-7400000D01*
X58640000Y-3200000D02*
X58640000Y-7380000D01*
X57970000Y-11830000D02*
X64400000Y-5400000D01*
X57220000Y-11830000D02*
X57970000Y-11830000D01*
%TO.N,/DC-DC Conversion/+13.5V OUT*%
X61390000Y-25502500D02*
X61390000Y-11410000D01*
X61390000Y-11410000D02*
X67600000Y-5200000D01*
%TO.N,+12V rail*%
X32600000Y-24800000D02*
X32800000Y-25000000D01*
X32600000Y-22530000D02*
X32600000Y-24800000D01*
%TO.N,Net-(LED2-A)*%
X32200000Y-33800000D02*
X31400000Y-34600000D01*
X33800000Y-33800000D02*
X32200000Y-33800000D01*
%TO.N,Net-(U6-OUT)*%
X27150000Y-39802500D02*
X27150000Y-36552500D01*
X33800000Y-29200000D02*
X32800000Y-28200000D01*
X33800000Y-31800000D02*
X33800000Y-29200000D01*
X27150000Y-36552500D02*
X31902500Y-31800000D01*
X31902500Y-31800000D02*
X33800000Y-31800000D01*
%TO.N,GND*%
X40300000Y-40950000D02*
X40300000Y-43950000D01*
X40300000Y-43950000D02*
X39500000Y-44750000D01*
X41975000Y-40950000D02*
X42075000Y-40850000D01*
X40300000Y-40950000D02*
X41975000Y-40950000D01*
X41975000Y-40950000D02*
X42000000Y-40925000D01*
%TO.N,/DC-DC Conversion/+13.5V OUT*%
X61390000Y-25502500D02*
X61390000Y-29872500D01*
X61390000Y-29872500D02*
X59160000Y-32102500D01*
X59160000Y-32102500D02*
X41060000Y-32102500D01*
%TO.N,Net-(D1-K)*%
X43500000Y-23402500D02*
X47660000Y-23402500D01*
D56*
%TO.N,+15V -> +13.5V gen*%
X44000000Y-20202500D02*
X47680000Y-20202500D01*
X47680000Y-20202500D02*
X49382500Y-18500000D01*
X49382500Y-18500000D02*
X55890000Y-18500000D01*
X55890000Y-18500000D02*
X57220000Y-17170000D01*
X47080000Y-16920000D02*
X44000000Y-20000000D01*
X44000000Y-20500000D02*
X44000000Y-21500000D01*
X47080000Y-16702500D02*
X47080000Y-16920000D01*
X44000000Y-20000000D02*
X44000000Y-20500000D01*
D57*
%TO.N,GND*%
X71720000Y-12500000D02*
X69500000Y-16500000D01*
D56*
%TO.N,+15V -> +13.5V gen*%
X56980000Y-16702500D02*
X47080000Y-16702500D01*
D58*
X44680000Y-12622500D02*
X44680000Y-11532500D01*
D56*
X47080000Y-11532500D02*
X47080000Y-12432500D01*
X47080000Y-14632500D02*
X47080000Y-16702500D01*
X48880000Y-14632500D02*
X47080000Y-14632500D01*
X48880000Y-12432500D02*
X47080000Y-12432500D01*
X47080000Y-12432500D02*
X47080000Y-14632500D01*
X57220000Y-16942500D02*
X56980000Y-16702500D01*
X57220000Y-17170000D02*
X57220000Y-16942500D01*
D58*
%TO.N,Net-(U1-VDD)*%
X41580000Y-13632500D02*
X41480000Y-13532500D01*
X42870000Y-13632500D02*
X41580000Y-13632500D01*
%TO.N,Net-(J1-CC1)*%
X41930000Y-14832500D02*
X41530000Y-15232500D01*
X42870000Y-14832500D02*
X41930000Y-14832500D01*
%TO.N,Net-(U1-CFG1)*%
X46230000Y-12622500D02*
X46130000Y-12622500D01*
X46130000Y-12622500D02*
X45080000Y-12622500D01*
X46270000Y-12622500D02*
X46230000Y-12622500D01*
X46270000Y-12622500D02*
X46274375Y-12626875D01*
%TO.N,unconnected-(U1-GATE-Pad5)*%
X43480000Y-12622500D02*
X43480000Y-12632500D01*
%TO.N,Net-(U1-DM)*%
X42870000Y-14032500D02*
X42870000Y-14432500D01*
%TO.N,GND*%
X44680000Y-14432500D02*
X44668750Y-14421250D01*
X44680000Y-15442500D02*
X44680000Y-14432500D01*
X43868750Y-13621250D02*
X44280000Y-14032500D01*
X45080000Y-14832500D02*
X44280000Y-14032500D01*
X44668750Y-14421250D02*
X44280000Y-14032500D01*
X43480000Y-13232500D02*
X43868750Y-13621250D01*
X45080000Y-15442500D02*
X44680000Y-15442500D01*
X42870000Y-13232500D02*
X43480000Y-13232500D01*
D57*
X54720000Y-12500000D02*
X56550000Y-12500000D01*
D59*
X41480000Y-12132500D02*
X42352500Y-12132500D01*
D57*
X56550000Y-12500000D02*
X57220000Y-11830000D01*
D59*
X42352500Y-12132500D02*
X42720000Y-12500000D01*
D56*
X54352500Y-14632500D02*
X54720000Y-15000000D01*
X50880000Y-14632500D02*
X54352500Y-14632500D01*
D57*
X72830000Y-65302500D02*
X70797500Y-65302500D01*
X70797500Y-65302500D02*
X67800000Y-68300000D01*
X27150000Y-30802500D02*
X25797500Y-30802500D01*
X25797500Y-30802500D02*
X24675000Y-31925000D01*
X31200000Y-37700000D02*
X31200000Y-39052500D01*
X31200000Y-39052500D02*
X33350000Y-41202500D01*
X17500000Y-56700000D02*
X17500000Y-58252500D01*
X17500000Y-58252500D02*
X16450000Y-59302500D01*
X20570000Y-80342500D02*
X20570000Y-81800000D01*
D56*
%TO.N,Net-(LED2-A)*%
X19000000Y-94302500D02*
X17400000Y-94300000D01*
D57*
%TO.N,Net-(D1-K)*%
X69750000Y-25500000D02*
X72927500Y-25500000D01*
X72927500Y-25500000D02*
X72930000Y-25502500D01*
X72930000Y-25502500D02*
X72930000Y-34032500D01*
X72930000Y-34032500D02*
X72860000Y-34102500D01*
%TO.N,GND*%
X41960000Y-20202500D02*
X41150000Y-21012500D01*
X41150000Y-21012500D02*
X41150000Y-22125000D01*
X43840000Y-25102500D02*
X46177500Y-25102500D01*
X46177500Y-25102500D02*
X47050000Y-25975000D01*
X43840000Y-28502500D02*
X43840000Y-29840000D01*
X43840000Y-29840000D02*
X44000000Y-30000000D01*
X38860000Y-25452500D02*
X36500000Y-25452500D01*
%TO.N,Net-(U2-Feedback)*%
X43690000Y-26952500D02*
X43840000Y-26802500D01*
X36500000Y-26952500D02*
X43690000Y-26952500D01*
X36500000Y-30252500D02*
X38860000Y-30252500D01*
D56*
%TO.N,+15V -> +13.5V gen*%
X48000000Y-34500000D02*
X46862500Y-34500000D01*
X46862500Y-34500000D02*
X45460000Y-35902500D01*
D57*
X45460000Y-35902500D02*
X45460000Y-39402500D01*
X45460000Y-39402500D02*
X44060000Y-40802500D01*
%TO.N,GND*%
X40500000Y-34000000D02*
X40500000Y-35522500D01*
X40500000Y-35522500D02*
X40120000Y-35902500D01*
%TO.N,+15V -> +13.5V gen*%
X45960000Y-56402500D02*
X49300000Y-56402500D01*
X49300000Y-56402500D02*
X49500000Y-56602500D01*
%TO.N,GND*%
X38560000Y-68102500D02*
X38560000Y-71060000D01*
X38560000Y-71060000D02*
X39000000Y-71500000D01*
X40560000Y-68202500D02*
X40560000Y-69060000D01*
X40560000Y-69060000D02*
X42500000Y-71000000D01*
X29000000Y-71000000D02*
X29000000Y-72172500D01*
X29000000Y-72172500D02*
X27830000Y-73342500D01*
X35870000Y-75742500D02*
X37242500Y-75742500D01*
X37242500Y-75742500D02*
X38500000Y-77000000D01*
X44430000Y-94102500D02*
X42397500Y-94102500D01*
X42397500Y-94102500D02*
X41500000Y-95000000D01*
X42360000Y-87552500D02*
X40447500Y-87552500D01*
X40447500Y-87552500D02*
X40000000Y-88000000D01*
X28500000Y-89500000D02*
X28500000Y-91142500D01*
X28500000Y-91142500D02*
X28000000Y-91642500D01*
D56*
X24000000Y-94302500D02*
X26000000Y-94302500D01*
X21500000Y-95802500D02*
X17500000Y-95802500D01*
X19000000Y-95802500D02*
X17500000Y-95802500D01*
D57*
%TO.N,-12V rail*%
X49090000Y-95922500D02*
X47560000Y-97452500D01*
X47560000Y-97452500D02*
X24560000Y-97452500D01*
X49090000Y-94102500D02*
X49090000Y-95922500D01*
X24560000Y-97452500D02*
X24410000Y-97602500D01*
X24410000Y-97602500D02*
X16000000Y-97602500D01*
X16000000Y-97602500D02*
X16000000Y-82992500D01*
X16000000Y-82992500D02*
X15610000Y-82602500D01*
%TO.N,Net-(U3-Feedback)*%
X39060000Y-51252500D02*
X39712500Y-51252500D01*
X39712500Y-51252500D02*
X40210000Y-51750000D01*
X38000000Y-48250000D02*
X38597500Y-47652500D01*
X38597500Y-47652500D02*
X40910000Y-47652500D01*
X40910000Y-47652500D02*
X40960000Y-47702500D01*
D59*
%TO.N,GND*%
X39500000Y-44750000D02*
X39500000Y-45712500D01*
X39500000Y-45712500D02*
X39060000Y-46152500D01*
X44040000Y-49302500D02*
X47052500Y-49302500D01*
X47052500Y-49302500D02*
X47250000Y-49500000D01*
X44040000Y-45902500D02*
X47097500Y-45902500D01*
X47097500Y-45902500D02*
X47250000Y-45750000D01*
D57*
X68460000Y-34102500D02*
X68460000Y-34960000D01*
X68460000Y-34960000D02*
X70500000Y-37000000D01*
X66060000Y-34102500D02*
X66060000Y-34940000D01*
X66060000Y-34940000D02*
X64000000Y-37000000D01*
X71500000Y-54000000D02*
X68777500Y-56722500D01*
X68777500Y-56722500D02*
X68560000Y-56722500D01*
%TO.N,Net-(D3-K)*%
X67000000Y-62000000D02*
X64592500Y-62000000D01*
X64592500Y-62000000D02*
X61290000Y-65302500D01*
%TO.N,GND*%
X70500000Y-74500000D02*
X70500000Y-75742500D01*
X70500000Y-75742500D02*
X73060000Y-78302500D01*
%TO.N,+15V -> +13.5V gen*%
X44060000Y-42482500D02*
X44040000Y-42502500D01*
X45960000Y-56602500D02*
X45960000Y-58442500D01*
X41060000Y-61002500D02*
X40460000Y-61602500D01*
X43400000Y-61002500D02*
X41060000Y-61002500D01*
X44060000Y-40802500D02*
X44060000Y-42482500D01*
X45960000Y-56402500D02*
X45960000Y-56602500D01*
X45960000Y-58442500D02*
X43400000Y-61002500D01*
%TO.N,/DC-DC Conversion/+13.5V OUT*%
X41060000Y-32102500D02*
X35760000Y-32102500D01*
X25450000Y-59302500D02*
X27650000Y-59302500D01*
X27650000Y-59302500D02*
X32050000Y-54902500D01*
X35760000Y-32102500D02*
X35760000Y-42002500D01*
X61160000Y-25272500D02*
X61390000Y-25502500D01*
X40860000Y-31902500D02*
X41060000Y-32102500D01*
X38860000Y-28752500D02*
X40610000Y-28752500D01*
X40610000Y-28752500D02*
X40860000Y-29002500D01*
X34550000Y-50442500D02*
X34550000Y-51302500D01*
X34550000Y-51302500D02*
X34550000Y-52402500D01*
X34550000Y-52402500D02*
X32050000Y-54902500D01*
X34550000Y-49412500D02*
X36460000Y-47502500D01*
X34550000Y-51302500D02*
X34550000Y-49412500D01*
X35760000Y-42002500D02*
X37660000Y-43902500D01*
X40860000Y-29002500D02*
X40860000Y-31902500D01*
%TO.N,/DC-DC Conversion/+7.5V OUT*%
X69060000Y-50632500D02*
X72890000Y-50632500D01*
X68560000Y-51382500D02*
X68560000Y-51132500D01*
X37660000Y-49702500D02*
X37560000Y-49802500D01*
X70260000Y-50632500D02*
X69060000Y-50632500D01*
X72730000Y-48162500D02*
X70260000Y-50632500D01*
X72730000Y-42702500D02*
X72730000Y-48162500D01*
X40960000Y-49702500D02*
X39110000Y-49702500D01*
X68560000Y-51132500D02*
X69060000Y-50632500D01*
X39110000Y-49702500D02*
X37660000Y-49702500D01*
X63860000Y-50632500D02*
X61290000Y-53202500D01*
X37560000Y-49802500D02*
X37560000Y-53202500D01*
X68060000Y-50632500D02*
X63860000Y-50632500D01*
X72890000Y-50632500D02*
X73560000Y-51302500D01*
X68560000Y-51132500D02*
X68060000Y-50632500D01*
X61290000Y-53202500D02*
X37560000Y-53202500D01*
X39110000Y-49702500D02*
X39060000Y-49752500D01*
%TO.N,/DC-DC Conversion/-13.5V OUT*%
X50320000Y-67802500D02*
X53720000Y-64402500D01*
X36360000Y-60662500D02*
X36360000Y-71762500D01*
X57560000Y-54802500D02*
X42220000Y-54802500D01*
X67060000Y-78302500D02*
X64060000Y-78302500D01*
X43400000Y-67802500D02*
X50320000Y-67802500D01*
X54260000Y-64402500D02*
X64060000Y-74202500D01*
X60260000Y-57502500D02*
X60260000Y-57862500D01*
X48160000Y-76542500D02*
X44650000Y-80052500D01*
X64060000Y-74202500D02*
X64060000Y-78302500D01*
X53720000Y-64402500D02*
X54260000Y-64402500D01*
X58360000Y-55602500D02*
X60260000Y-57502500D01*
X41260000Y-64402500D02*
X40460000Y-63602500D01*
X58360000Y-55602500D02*
X57560000Y-54802500D01*
X44860000Y-79842500D02*
X44650000Y-80052500D01*
X43400000Y-64402500D02*
X41260000Y-64402500D01*
X38560000Y-63402500D02*
X40260000Y-63402500D01*
X48900000Y-76542500D02*
X48160000Y-76542500D01*
X36360000Y-71762500D02*
X44650000Y-80052500D01*
X40260000Y-63402500D02*
X40460000Y-63602500D01*
X60260000Y-57862500D02*
X53720000Y-64402500D01*
X43400000Y-64402500D02*
X53720000Y-64402500D01*
X73560000Y-84802500D02*
X67060000Y-78302500D01*
X49640000Y-75802500D02*
X48900000Y-76542500D01*
X42220000Y-54802500D02*
X40620000Y-56402500D01*
X45740000Y-79842500D02*
X44860000Y-79842500D01*
X40620000Y-56402500D02*
X36360000Y-60662500D01*
%TO.N,Net-(C16-Pad2)*%
X56300000Y-83042500D02*
X51240000Y-83042500D01*
X51240000Y-83042500D02*
X49240000Y-85042500D01*
X58640000Y-80242500D02*
X56560000Y-82322500D01*
X56560000Y-82322500D02*
X56560000Y-83302500D01*
X58640000Y-75802500D02*
X58640000Y-80242500D01*
X56560000Y-83302500D02*
X56300000Y-83042500D01*
%TO.N,Net-(U6-OUT)*%
X33350000Y-43202500D02*
X32050000Y-43202500D01*
X34550000Y-44402500D02*
X33350000Y-43202500D01*
X34550000Y-45362500D02*
X34550000Y-44402500D01*
X32050000Y-43202500D02*
X28650000Y-39802500D01*
X27050000Y-39802500D02*
X27150000Y-39802500D01*
X28650000Y-39802500D02*
X27150000Y-39802500D01*
%TO.N,Net-(U7-OUT)*%
X25870000Y-75742500D02*
X32970000Y-75742500D01*
X32970000Y-75742500D02*
X33170000Y-75942500D01*
X24320000Y-74742500D02*
X24870000Y-74742500D01*
X24470000Y-74592500D02*
X24320000Y-74742500D01*
D59*
X25750000Y-72000000D02*
X24320000Y-73430000D01*
D57*
X34970000Y-77742500D02*
X35870000Y-77742500D01*
X24870000Y-74742500D02*
X25870000Y-75742500D01*
D59*
X24320000Y-73430000D02*
X24320000Y-74742500D01*
D57*
X36110000Y-77742500D02*
X38370000Y-80002500D01*
X33170000Y-73342500D02*
X33170000Y-75942500D01*
X33170000Y-75942500D02*
X34970000Y-77742500D01*
X35870000Y-77742500D02*
X36110000Y-77742500D01*
D59*
X25750000Y-71000000D02*
X25750000Y-72000000D01*
D57*
%TO.N,Net-(U8-OUT)*%
X56100000Y-92302500D02*
X56560000Y-92302500D01*
X45910000Y-90802500D02*
X45910000Y-88572500D01*
X43560000Y-90902500D02*
X45810000Y-90902500D01*
X49240000Y-87042500D02*
X50840000Y-87042500D01*
X47440000Y-87042500D02*
X46940000Y-87542500D01*
X49240000Y-87042500D02*
X47440000Y-87042500D01*
X45910000Y-88572500D02*
X46940000Y-87542500D01*
X45810000Y-90902500D02*
X45910000Y-90802500D01*
X50840000Y-87042500D02*
X56100000Y-92302500D01*
%TO.N,Net-(U3-Feedback)*%
X41060000Y-47602500D02*
X40960000Y-47702500D01*
X44040000Y-47602500D02*
X41060000Y-47602500D01*
%TO.N,Net-(U4-Feedback)*%
X40660000Y-66102500D02*
X40560000Y-66202500D01*
X40560000Y-66202500D02*
X39860000Y-66202500D01*
X38560000Y-64902500D02*
X38560000Y-66602500D01*
X39860000Y-66202500D02*
X38560000Y-64902500D01*
X43400000Y-66102500D02*
X40660000Y-66102500D01*
%TO.N,Net-(D2-K)*%
X61190000Y-34572500D02*
X61660000Y-34102500D01*
X44040000Y-44202500D02*
X45460000Y-44202500D01*
X61190000Y-38002500D02*
X61190000Y-34572500D01*
X61090000Y-38102500D02*
X61190000Y-38002500D01*
X48660000Y-38102500D02*
X61090000Y-38102500D01*
X48660000Y-41002500D02*
X48660000Y-38102500D01*
X61190000Y-42702500D02*
X61190000Y-38002500D01*
X45460000Y-44202500D02*
X48660000Y-41002500D01*
%TO.N,Net-(D3-K)*%
X64660000Y-58202500D02*
X64660000Y-57502500D01*
X61290000Y-65302500D02*
X60990000Y-65002500D01*
X64660000Y-57502500D02*
X62760000Y-55602500D01*
X61290000Y-65302500D02*
X61290000Y-61572500D01*
X61290000Y-61572500D02*
X64660000Y-58202500D01*
%TO.N,-12V rail*%
X12460000Y-53402500D02*
X12460000Y-76002500D01*
X49090000Y-91082500D02*
X48810000Y-90802500D01*
X7630000Y-55110000D02*
X5090000Y-55110000D01*
X49090000Y-94102500D02*
X49090000Y-91082500D01*
D56*
X5020000Y-78860000D02*
X7560000Y-78860000D01*
D57*
%TO.N,CV rail*%
X7700000Y-94100000D02*
X12700000Y-89100000D01*
X12700000Y-89100000D02*
X12660000Y-89060000D01*
X14760000Y-75802500D02*
X14760000Y-68702500D01*
X7630000Y-70350000D02*
X5090000Y-70350000D01*
X5020000Y-94100000D02*
X7560000Y-94100000D01*
X14760000Y-61902500D02*
X14760000Y-61502500D01*
X12660000Y-89060000D02*
X12660000Y-80002500D01*
X14760000Y-68702500D02*
X14760000Y-61902500D01*
X7560000Y-94100000D02*
X7700000Y-94100000D01*
%TO.N,+12V rail*%
X5090000Y-65270000D02*
X2310000Y-65270000D01*
X2180000Y-88980000D02*
X2180000Y-65400000D01*
X2220000Y-89020000D02*
X2180000Y-88980000D01*
X2310000Y-65270000D02*
X2180000Y-65400000D01*
X5090000Y-65270000D02*
X7630000Y-65270000D01*
X7560000Y-89020000D02*
X2220000Y-89020000D01*
%TO.N,+5V rail*%
X20570000Y-77942500D02*
X10470000Y-77942500D01*
X10460000Y-77932500D02*
X10460000Y-88660000D01*
X5090000Y-67810000D02*
X5200000Y-67700000D01*
X5020000Y-91560000D02*
X7560000Y-91560000D01*
X5200000Y-67700000D02*
X10460000Y-67700000D01*
X10470000Y-77942500D02*
X10460000Y-77932500D01*
X10460000Y-88660000D02*
X7560000Y-91560000D01*
X10460000Y-77932500D02*
X10460000Y-67700000D01*
X20620000Y-77892500D02*
X20570000Y-77942500D01*
X20620000Y-74742500D02*
X20620000Y-77892500D01*
D59*
%TO.N,GATE rail*%
X7560000Y-96640000D02*
X5020000Y-96640000D01*
X5090000Y-72890000D02*
X7630000Y-72890000D01*
%TO.N,Net-(LED3-A)*%
X22060000Y-73052500D02*
X22060000Y-87302500D01*
X20560000Y-88802500D02*
X20560000Y-93362500D01*
X22060000Y-87302500D02*
X20560000Y-88802500D01*
X22470000Y-72280000D02*
X22470000Y-72642500D01*
X20560000Y-93362500D02*
X21500000Y-94302500D01*
X22470000Y-72642500D02*
X22060000Y-73052500D01*
X23750000Y-71000000D02*
X22470000Y-72280000D01*
%TO.N,Net-(LED4-C)*%
X35310000Y-95802500D02*
X24000000Y-95802500D01*
X41560000Y-90902500D02*
X40210000Y-90902500D01*
X40210000Y-90902500D02*
X35310000Y-95802500D01*
D57*
%TO.N,GND*%
X32210000Y-63902500D02*
X34260000Y-61852500D01*
X32050000Y-63902500D02*
X32210000Y-63902500D01*
%TO.N,Net-(D3-K)*%
X45760000Y-62702500D02*
X46460000Y-62002500D01*
X43400000Y-62702500D02*
X45760000Y-62702500D01*
%TD*%
M02*
