%TF.GenerationSoftware,KiCad,Pcbnew,9.0.6*%
%TF.CreationDate,2026-01-11T21:04:54+09:00*%
%TF.ProjectId,zudo-pd,7a75646f-2d70-4642-9e6b-696361645f70,rev?*%
%TF.SameCoordinates,Original*%
%TF.FileFunction,Soldermask,Top*%
%TF.FilePolarity,Negative*%
%FSLAX46Y46*%
G04 Gerber Fmt 4.6, Leading zero omitted, Abs format (unit mm)*
G04 Created by KiCad (PCBNEW 9.0.6) date 2026-01-11 21:04:54*
%MOMM*%
%LPD*%
G01*
G04 APERTURE LIST*
%ADD10C,1.800000*%
%ADD11R,1.780000X1.800000*%
%ADD12R,1.800000X1.780000*%
%ADD13R,8.500000X11.000000*%
%ADD14R,3.080000X1.020000*%
%ADD15R,3.500000X1.200000*%
%ADD16R,0.860000X0.810000*%
%ADD17R,0.800000X1.200000*%
%ADD18R,0.700000X1.200000*%
%ADD19O,1.100000X1.900000*%
%ADD20C,3.200000*%
%ADD21R,1.200000X3.500000*%
%ADD22R,0.200000X0.660000*%
%ADD23R,0.660000X0.200000*%
%ADD24R,1.650000X1.650000*%
%ADD25R,1.490000X1.730000*%
%ADD26C,1.500000*%
%ADD27R,1.410000X1.350000*%
%ADD28R,0.810000X0.860000*%
%ADD29R,4.500000X1.650000*%
%ADD30R,0.900000X0.800000*%
%ADD31R,2.000000X2.000000*%
%ADD32R,1.350000X1.410000*%
%ADD33R,2.200000X2.200000*%
%ADD34C,2.200000*%
%ADD35R,3.730000X5.000000*%
%ADD36R,4.000000X1.300000*%
%ADD37R,8.400000X10.570000*%
%ADD38R,1.900000X1.900000*%
%ADD39R,0.800000X0.800000*%
%ADD40R,1.190000X1.730000*%
%ADD41R,1.130000X1.380000*%
%ADD42R,2.780000X1.490000*%
%ADD43R,0.800000X1.000000*%
%ADD44R,1.650000X4.500000*%
%ADD45R,1.410000X3.500000*%
%ADD46R,1.380000X1.130000*%
%ADD47R,3.500000X1.600000*%
%ADD48R,9.000000X10.200000*%
%ADD49R,1.270000X2.540000*%
%ADD50R,5.400000X6.100000*%
G04 APERTURE END LIST*
D10*
%TO.C,J4*%
X20460000Y-12980000D03*
X20460000Y-10440000D03*
X23000000Y-12980000D03*
X23000000Y-10440000D03*
X25540000Y-12980000D03*
X25540000Y-10440000D03*
X28080000Y-12980000D03*
X28080000Y-10440000D03*
X30620000Y-12980000D03*
X30620000Y-10440000D03*
X33160000Y-12980000D03*
X33160000Y-10440000D03*
X35700000Y-12980000D03*
X35700000Y-10440000D03*
X38240000Y-12980000D03*
D11*
X38240000Y-10440000D03*
%TD*%
D12*
%TO.C,J3*%
X5130000Y-55110000D03*
D10*
X7670000Y-55110000D03*
X5130000Y-57650000D03*
X7670000Y-57650000D03*
X5130000Y-60190000D03*
X7670000Y-60190000D03*
X5130000Y-62730000D03*
X7670000Y-62730000D03*
X5130000Y-65270000D03*
X7670000Y-65270000D03*
X5130000Y-67810000D03*
X7670000Y-67810000D03*
X5130000Y-70350000D03*
X7670000Y-70350000D03*
X5130000Y-72890000D03*
X7670000Y-72890000D03*
%TD*%
D12*
%TO.C,J2*%
X5020000Y-78860000D03*
D10*
X7560000Y-78860000D03*
X5020000Y-81400000D03*
X7560000Y-81400000D03*
X5020000Y-83940000D03*
X7560000Y-83940000D03*
X5020000Y-86480000D03*
X7560000Y-86480000D03*
X5020000Y-89020000D03*
X7560000Y-89020000D03*
X5020000Y-91560000D03*
X7560000Y-91560000D03*
X5020000Y-94100000D03*
X7560000Y-94100000D03*
X5020000Y-96640000D03*
X7560000Y-96640000D03*
%TD*%
D13*
%TO.C,U4*%
X53720000Y-64402500D03*
D14*
X43400000Y-67802500D03*
X43400000Y-66102500D03*
X43400000Y-64402500D03*
X43400000Y-62702500D03*
X43400000Y-61002500D03*
%TD*%
D15*
%TO.C,C9*%
X40620000Y-56402500D03*
X45960000Y-56402500D03*
%TD*%
D16*
%TO.C,R13*%
X41450000Y-15190000D03*
X41450000Y-16690000D03*
%TD*%
D17*
%TO.C,J1*%
X57020000Y-7260000D03*
D18*
X55820000Y-7260000D03*
X54820000Y-7260000D03*
X53820000Y-7260000D03*
X52820000Y-7260000D03*
D17*
X51620000Y-7260000D03*
D19*
X50000000Y-3200000D03*
X58640000Y-3200000D03*
X50000000Y-7010000D03*
X58640000Y-7010000D03*
%TD*%
D20*
%TO.C,*%
X12200000Y-95800000D03*
%TD*%
%TO.C,REF\u002A\u002A*%
X-2600000Y-3200000D03*
%TD*%
%TO.C,REF\u002A\u002A*%
X72500000Y-3200000D03*
%TD*%
D21*
%TO.C,C5*%
X57220000Y-17170000D03*
X57220000Y-11830000D03*
%TD*%
D22*
%TO.C,U1*%
X45080000Y-12622500D03*
X44680000Y-12622500D03*
X44280000Y-12622500D03*
X43880000Y-12622500D03*
X43480000Y-12622500D03*
D23*
X42870000Y-13232500D03*
X42870000Y-13632500D03*
X42870000Y-14032500D03*
X42870000Y-14432500D03*
X42870000Y-14832500D03*
D22*
X43480000Y-15442500D03*
X43880000Y-15442500D03*
X44280000Y-15442500D03*
X44680000Y-15442500D03*
X45080000Y-15442500D03*
D23*
X45690000Y-14832500D03*
X45690000Y-14432500D03*
X45690000Y-14032500D03*
X45690000Y-13632500D03*
X45690000Y-13232500D03*
D24*
X44280000Y-14032500D03*
%TD*%
D20*
%TO.C,REF\u002A\u002A*%
X23800000Y-22300000D03*
%TD*%
D25*
%TO.C,C1*%
X52060000Y-12432500D03*
X48880000Y-12432500D03*
%TD*%
D26*
%TO.C,TP2*%
X64400000Y-5200000D03*
%TD*%
D27*
%TO.C,C2*%
X50880000Y-14632500D03*
X48880000Y-14632500D03*
%TD*%
D28*
%TO.C,R11*%
X49130000Y-10202500D03*
X50630000Y-10202500D03*
%TD*%
D29*
%TO.C,C3*%
X62720000Y-12500000D03*
X71720000Y-12500000D03*
%TD*%
D26*
%TO.C,TP3*%
X67600000Y-5200000D03*
%TD*%
%TO.C,TP1*%
X61200000Y-5200000D03*
%TD*%
D30*
%TO.C,C30*%
X41480000Y-12132500D03*
X41480000Y-13532500D03*
%TD*%
D31*
%TO.C,D1*%
X68460000Y-34102500D03*
X72860000Y-34102500D03*
%TD*%
D27*
%TO.C,C6*%
X43960000Y-20202500D03*
X41960000Y-20202500D03*
%TD*%
D32*
%TO.C,C19*%
X49240000Y-87042500D03*
X49240000Y-85042500D03*
%TD*%
D33*
%TO.C,J7*%
X15240000Y-34000000D03*
D34*
X10160000Y-34000000D03*
%TD*%
%TO.C,J9*%
X10160000Y-22000000D03*
D33*
X15240000Y-22000000D03*
%TD*%
D32*
%TO.C,C32*%
X40960000Y-47702500D03*
X40960000Y-49702500D03*
%TD*%
D35*
%TO.C,L2*%
X61190000Y-42702500D03*
X72730000Y-42702500D03*
%TD*%
D36*
%TO.C,U6*%
X34550000Y-50442500D03*
X34550000Y-45362500D03*
D37*
X24370000Y-47902500D03*
%TD*%
D38*
%TO.C,TVS3*%
X44430000Y-94102500D03*
X49090000Y-94102500D03*
%TD*%
D30*
%TO.C,C16*%
X49140000Y-81750000D03*
X49140000Y-83150000D03*
%TD*%
D39*
%TO.C,LED2*%
X19000000Y-95802500D03*
X19000000Y-94302500D03*
%TD*%
D14*
%TO.C,U3*%
X44040000Y-42502500D03*
X44040000Y-44202500D03*
X44040000Y-45902500D03*
X44040000Y-47602500D03*
X44040000Y-49302500D03*
D13*
X54360000Y-45902500D03*
%TD*%
D40*
%TO.C,PTC3*%
X45910000Y-90802500D03*
X48810000Y-90802500D03*
%TD*%
D41*
%TO.C,R9*%
X43560000Y-90902500D03*
X41560000Y-90902500D03*
%TD*%
D35*
%TO.C,L3*%
X61290000Y-65302500D03*
X72830000Y-65302500D03*
%TD*%
D32*
%TO.C,C17*%
X33350000Y-41202500D03*
X33350000Y-43202500D03*
%TD*%
D42*
%TO.C,PTC1*%
X32800000Y-28200000D03*
X32800000Y-25000000D03*
%TD*%
D15*
%TO.C,C23*%
X33170000Y-73342500D03*
X27830000Y-73342500D03*
%TD*%
D43*
%TO.C,TVS2*%
X20570000Y-80342500D03*
X20570000Y-77942500D03*
%TD*%
D44*
%TO.C,C20*%
X32050000Y-54902500D03*
X32050000Y-63902500D03*
%TD*%
D16*
%TO.C,R1*%
X38860000Y-30252500D03*
X38860000Y-28752500D03*
%TD*%
D45*
%TO.C,PTC2*%
X24320000Y-74742500D03*
X20620000Y-74742500D03*
%TD*%
D20*
%TO.C,REF\u002A\u002A*%
X72500000Y-95500000D03*
%TD*%
D29*
%TO.C,C14*%
X25450000Y-59302500D03*
X16450000Y-59302500D03*
%TD*%
D26*
%TO.C,TP5*%
X73560000Y-84802500D03*
%TD*%
D15*
%TO.C,C7*%
X45460000Y-35902500D03*
X40120000Y-35902500D03*
%TD*%
D32*
%TO.C,C33*%
X40560000Y-68202500D03*
X40560000Y-66202500D03*
%TD*%
D16*
%TO.C,R2*%
X38860000Y-25452500D03*
X38860000Y-26952500D03*
%TD*%
D46*
%TO.C,R7*%
X33800000Y-31800000D03*
X33800000Y-33800000D03*
%TD*%
D14*
%TO.C,U2*%
X43840000Y-21702500D03*
X43840000Y-23402500D03*
X43840000Y-25102500D03*
X43840000Y-26802500D03*
X43840000Y-28502500D03*
D13*
X54160000Y-25102500D03*
%TD*%
D16*
%TO.C,R3*%
X39060000Y-49752500D03*
X39060000Y-51252500D03*
%TD*%
D41*
%TO.C,R8*%
X25750000Y-71000000D03*
X23750000Y-71000000D03*
%TD*%
D15*
%TO.C,C22*%
X33340000Y-91642500D03*
X28000000Y-91642500D03*
%TD*%
D20*
%TO.C,REF\u002A\u002A*%
X66750000Y-90000000D03*
%TD*%
D27*
%TO.C,C8*%
X44060000Y-40802500D03*
X42060000Y-40802500D03*
%TD*%
D32*
%TO.C,C31*%
X40860000Y-27002500D03*
X40860000Y-29002500D03*
%TD*%
%TO.C,C18*%
X35870000Y-77742500D03*
X35870000Y-75742500D03*
%TD*%
D39*
%TO.C,LED4*%
X24000000Y-95802500D03*
X24000000Y-94302500D03*
%TD*%
D16*
%TO.C,R4*%
X39060000Y-47652500D03*
X39060000Y-46152500D03*
%TD*%
D29*
%TO.C,C11*%
X73060000Y-78302500D03*
X64060000Y-78302500D03*
%TD*%
%TO.C,C24*%
X58640000Y-75600000D03*
X49640000Y-75600000D03*
%TD*%
D47*
%TO.C,U7*%
X38370000Y-85082500D03*
D48*
X27570000Y-82542500D03*
D47*
X38370000Y-80002500D03*
%TD*%
D44*
%TO.C,C21*%
X27150000Y-39802500D03*
X27150000Y-30802500D03*
%TD*%
D34*
%TO.C,J8*%
X10160000Y-46000000D03*
D33*
X15240000Y-46000000D03*
%TD*%
D16*
%TO.C,R6*%
X38560000Y-64902500D03*
X38560000Y-63402500D03*
%TD*%
D31*
%TO.C,D3*%
X62760000Y-55602500D03*
X58360000Y-55602500D03*
%TD*%
D34*
%TO.C,J6*%
X10160000Y-10000000D03*
D33*
X15240000Y-10000000D03*
%TD*%
D35*
%TO.C,L1*%
X72930000Y-25502500D03*
X61390000Y-25502500D03*
%TD*%
D49*
%TO.C,U8*%
X42360000Y-87552500D03*
D50*
X44650000Y-80052500D03*
D49*
X46940000Y-87542500D03*
%TD*%
D16*
%TO.C,R5*%
X38560000Y-66602500D03*
X38560000Y-68102500D03*
%TD*%
D32*
%TO.C,C10*%
X40460000Y-61602500D03*
X40460000Y-63602500D03*
%TD*%
D30*
%TO.C,C15*%
X36750000Y-88450000D03*
X36750000Y-87050000D03*
%TD*%
D26*
%TO.C,TP4*%
X73560000Y-51302500D03*
%TD*%
D39*
%TO.C,LED3*%
X21500000Y-95802500D03*
X21500000Y-94302500D03*
%TD*%
D20*
%TO.C,REF\u002A\u002A*%
X19750000Y-68500000D03*
%TD*%
D21*
%TO.C,C4*%
X68560000Y-51382500D03*
X68560000Y-56722500D03*
%TD*%
D44*
%TO.C,C25*%
X56560000Y-83302500D03*
X56560000Y-92302500D03*
%TD*%
D31*
%TO.C,D2*%
X61660000Y-34102500D03*
X66060000Y-34102500D03*
%TD*%
D38*
%TO.C,TVS1*%
X32600000Y-22530000D03*
X32600000Y-17870000D03*
%TD*%
D28*
%TO.C,R12*%
X41720000Y-18290000D03*
X43220000Y-18290000D03*
%TD*%
M02*
