M48
; DRILL file {KiCad 9.0.6} date 2026-01-11T21:04:51+0900
; FORMAT={-:-/ absolute / metric / decimal}
; #@! TF.CreationDate,2026-01-11T21:04:51+09:00
; #@! TF.GenerationSoftware,Kicad,Pcbnew,9.0.6
; #@! TF.FileFunction,Plated,1,2,PTH
FMAT,2
METRIC
; #@! TA.AperFunction,Plated,PTH,ViaDrill
T1C0.300
; #@! TA.AperFunction,Plated,PTH,ViaDrill
T2C0.400
; #@! TA.AperFunction,Plated,PTH,ViaDrill
T3C0.600
; #@! TA.AperFunction,Plated,PTH,ComponentDrill
T4C0.700
; #@! TA.AperFunction,Plated,PTH,ViaDrill
T5C0.800
; #@! TA.AperFunction,Plated,PTH,ComponentDrill
T6C1.100
; #@! TA.AperFunction,Plated,PTH,ComponentDrill
T7C1.400
; #@! TA.AperFunction,Plated,PTH,ViaDrill
T8C1.800
%
G90
G05
T1
X17.4Y-94.3
X21.8Y-43.6
X21.8Y-45.4
X21.8Y-47.2
X21.8Y-49.0
X21.8Y-50.8
X21.8Y-52.4
X23.6Y-43.6
X23.6Y-45.4
X23.6Y-47.2
X23.6Y-49.0
X23.6Y-50.8
X23.6Y-52.4
X24.8Y-78.2
X24.8Y-80.0
X24.8Y-81.8
X24.8Y-83.6
X24.8Y-85.4
X24.8Y-87.0
X25.4Y-43.6
X25.4Y-45.4
X25.4Y-47.2
X25.4Y-49.0
X25.4Y-50.8
X25.4Y-52.4
X26.6Y-78.2
X26.6Y-80.0
X26.6Y-81.8
X26.6Y-83.6
X26.6Y-85.4
X26.6Y-87.0
X27.2Y-43.6
X27.2Y-45.4
X27.2Y-47.2
X27.2Y-49.0
X27.2Y-50.8
X27.2Y-52.4
X28.4Y-78.2
X28.4Y-80.0
X28.4Y-81.8
X28.4Y-83.6
X28.4Y-85.4
X28.4Y-87.0
X30.2Y-78.2
X30.2Y-80.0
X30.2Y-81.8
X30.2Y-83.6
X30.2Y-85.4
X30.2Y-87.0
X40.55Y-10.92
X40.67Y-19.12
X42.53Y-17.23
X42.72Y-12.5
X42.88Y-11.432
X43.869Y-13.621
X46.13Y-12.622
X48.01Y-11.02
X50.5Y-11.26
X51.6Y-20.8
X51.6Y-22.6
X51.6Y-24.4
X51.6Y-26.2
X51.6Y-28.0
X51.6Y-29.6
X51.6Y-41.4
X51.6Y-43.2
X51.6Y-45.0
X51.6Y-46.8
X51.6Y-48.6
X51.6Y-50.2
X53.4Y-20.8
X53.4Y-22.6
X53.4Y-24.4
X53.4Y-26.2
X53.4Y-28.0
X53.4Y-29.6
X53.4Y-41.4
X53.4Y-43.2
X53.4Y-45.0
X53.4Y-46.8
X53.4Y-48.6
X53.4Y-50.2
X53.82Y-8.8
X54.82Y-8.81
X55.2Y-20.8
X55.2Y-22.6
X55.2Y-24.4
X55.2Y-26.2
X55.2Y-28.0
X55.2Y-29.6
X55.2Y-41.4
X55.2Y-43.2
X55.2Y-45.0
X55.2Y-46.8
X55.2Y-48.6
X55.2Y-50.2
X57.0Y-20.8
X57.0Y-22.6
X57.0Y-24.4
X57.0Y-26.2
X57.0Y-28.0
X57.0Y-29.6
X57.0Y-41.4
X57.0Y-43.2
X57.0Y-45.0
X57.0Y-46.8
X57.0Y-48.6
X57.0Y-50.2
X57.04Y-5.14
X60.05Y-7.81
T2
X39.0Y-71.5
X42.5Y-71.0
T3
X17.5Y-95.802
X20.57Y-81.8
X26.0Y-94.302
X31.2Y-34.6
X33.15Y-4.75
X36.5Y-25.453
X36.5Y-26.952
X36.5Y-30.252
X37.56Y-53.203
X38.0Y-48.25
X38.5Y-77.0
X39.5Y-44.75
X40.0Y-88.0
X40.21Y-51.75
X40.3Y-40.95
X41.15Y-22.125
X41.5Y-95.0
X44.0Y-30.0
X47.05Y-25.975
X47.25Y-45.75
X47.25Y-49.5
X47.66Y-23.402
X50.55Y-12.65
X69.75Y-25.5
T5
X12.46Y-53.402
X12.46Y-76.002
X12.66Y-80.002
X14.76Y-61.902
X14.76Y-68.703
X14.76Y-75.802
X15.24Y-25.55
X15.61Y-82.602
X17.25Y-36.4
X17.5Y-56.7
X21.0Y-35.9
X24.675Y-31.925
X28.2Y-17.4
X28.5Y-89.5
X29.0Y-71.0
X34.25Y-87.9
X34.26Y-61.852
X35.38Y-22.67
X36.46Y-47.502
X37.66Y-43.902
X40.5Y-34.0
X46.46Y-62.002
X47.08Y-16.703
X48.0Y-34.5
X49.5Y-56.602
X54.29Y-3.25
X54.72Y-12.5
X54.72Y-15.0
X64.0Y-37.0
X70.5Y-37.0
T6
X5.02Y-78.86
X5.02Y-81.4
X5.02Y-83.94
X5.02Y-86.48
X5.02Y-89.02
X5.02Y-91.56
X5.02Y-94.1
X5.02Y-96.64
X5.13Y-55.11
X5.13Y-57.65
X5.13Y-60.19
X5.13Y-62.73
X5.13Y-65.27
X5.13Y-67.81
X5.13Y-70.35
X5.13Y-72.89
X7.56Y-78.86
X7.56Y-81.4
X7.56Y-83.94
X7.56Y-86.48
X7.56Y-89.02
X7.56Y-91.56
X7.56Y-94.1
X7.56Y-96.64
X7.67Y-55.11
X7.67Y-57.65
X7.67Y-60.19
X7.67Y-62.73
X7.67Y-65.27
X7.67Y-67.81
X7.67Y-70.35
X7.67Y-72.89
X20.46Y-10.44
X20.46Y-12.98
X23.0Y-10.44
X23.0Y-12.98
X25.54Y-10.44
X25.54Y-12.98
X28.08Y-10.44
X28.08Y-12.98
X30.62Y-10.44
X30.62Y-12.98
X33.16Y-10.44
X33.16Y-12.98
X35.7Y-10.44
X35.7Y-12.98
X38.24Y-10.44
X38.24Y-12.98
T7
X10.16Y-10.0
X10.16Y-22.0
X10.16Y-34.0
X10.16Y-46.0
X15.24Y-10.0
X15.24Y-22.0
X15.24Y-34.0
X15.24Y-46.0
T8
X6.35Y-22.0
X31.2Y-37.7
X67.0Y-62.0
X67.8Y-68.3
X69.5Y-16.5
X70.5Y-74.5
X71.5Y-54.0
T4
G00X50.0Y-3.6
M15
G01X50.0Y-2.8
M16
G05
G00X50.0Y-7.41
M15
G01X50.0Y-6.61
M16
G05
G00X58.64Y-3.6
M15
G01X58.64Y-2.8
M16
G05
G00X58.64Y-7.41
M15
G01X58.64Y-6.61
M16
G05
M30
