%TF.GenerationSoftware,KiCad,Pcbnew,9.0.6*%
%TF.CreationDate,2026-01-11T21:04:53+09:00*%
%TF.ProjectId,zudo-pd,7a75646f-2d70-4642-9e6b-696361645f70,rev?*%
%TF.SameCoordinates,Original*%
%TF.FileFunction,Copper,L2,Bot*%
%TF.FilePolarity,Positive*%
%FSLAX46Y46*%
G04 Gerber Fmt 4.6, Leading zero omitted, Abs format (unit mm)*
G04 Created by KiCad (PCBNEW 9.0.6) date 2026-01-11 21:04:53*
%MOMM*%
%LPD*%
G01*
G04 APERTURE LIST*
%TA.AperFunction,ComponentPad*%
%ADD10C,1.800000*%
%TD*%
%TA.AperFunction,ComponentPad*%
%ADD11R,1.780000X1.800000*%
%TD*%
%TA.AperFunction,ComponentPad*%
%ADD12R,1.800000X1.780000*%
%TD*%
%TA.AperFunction,ComponentPad*%
%ADD13O,1.100000X1.900000*%
%TD*%
%TA.AperFunction,ComponentPad*%
%ADD14R,2.200000X2.200000*%
%TD*%
%TA.AperFunction,ComponentPad*%
%ADD15C,2.200000*%
%TD*%
%TA.AperFunction,ViaPad*%
%ADD16C,1.200000*%
%TD*%
%TA.AperFunction,ViaPad*%
%ADD17C,1.800000*%
%TD*%
%TA.AperFunction,ViaPad*%
%ADD18C,4.000000*%
%TD*%
%TA.AperFunction,ViaPad*%
%ADD19C,0.600000*%
%TD*%
%TA.AperFunction,ViaPad*%
%ADD20C,1.500000*%
%TD*%
%TA.AperFunction,Conductor*%
%ADD21C,1.000000*%
%TD*%
%TA.AperFunction,Conductor*%
%ADD22C,0.400000*%
%TD*%
%TA.AperFunction,Conductor*%
%ADD23C,0.700000*%
%TD*%
%TA.AperFunction,Conductor*%
%ADD24C,0.130000*%
%TD*%
G04 APERTURE END LIST*
D10*
%TO.P,J4,16,16*%
%TO.N,GATE rail*%
X20460000Y-12980000D03*
%TO.P,J4,15,15*%
X20460000Y-10440000D03*
%TO.P,J4,14,14*%
%TO.N,CV rail*%
X23000000Y-12980000D03*
%TO.P,J4,13,13*%
X23000000Y-10440000D03*
%TO.P,J4,12,12*%
%TO.N,+5V rail*%
X25540000Y-12980000D03*
%TO.P,J4,11,11*%
X25540000Y-10440000D03*
%TO.P,J4,10,10*%
%TO.N,+12V rail*%
X28080000Y-12980000D03*
%TO.P,J4,9,9*%
X28080000Y-10440000D03*
%TO.P,J4,8,8*%
%TO.N,GND*%
X30620000Y-12980000D03*
%TO.P,J4,7,7*%
X30620000Y-10440000D03*
%TO.P,J4,6,6*%
X33160000Y-12980000D03*
%TO.P,J4,5,5*%
X33160000Y-10440000D03*
%TO.P,J4,4,4*%
X35700000Y-12980000D03*
%TO.P,J4,3,3*%
X35700000Y-10440000D03*
%TO.P,J4,2,2*%
%TO.N,-12V rail*%
X38240000Y-12980000D03*
D11*
%TO.P,J4,1,1*%
X38240000Y-10440000D03*
%TD*%
D12*
%TO.P,J3,1,1*%
%TO.N,-12V rail*%
X5130000Y-55110000D03*
D10*
%TO.P,J3,2,2*%
X7670000Y-55110000D03*
%TO.P,J3,3,3*%
%TO.N,GND*%
X5130000Y-57650000D03*
%TO.P,J3,4,4*%
X7670000Y-57650000D03*
%TO.P,J3,5,5*%
X5130000Y-60190000D03*
%TO.P,J3,6,6*%
X7670000Y-60190000D03*
%TO.P,J3,7,7*%
X5130000Y-62730000D03*
%TO.P,J3,8,8*%
X7670000Y-62730000D03*
%TO.P,J3,9,9*%
%TO.N,+12V rail*%
X5130000Y-65270000D03*
%TO.P,J3,10,10*%
X7670000Y-65270000D03*
%TO.P,J3,11,11*%
%TO.N,+5V rail*%
X5130000Y-67810000D03*
%TO.P,J3,12,12*%
X7670000Y-67810000D03*
%TO.P,J3,13,13*%
%TO.N,CV rail*%
X5130000Y-70350000D03*
%TO.P,J3,14,14*%
X7670000Y-70350000D03*
%TO.P,J3,15,15*%
%TO.N,GATE rail*%
X5130000Y-72890000D03*
%TO.P,J3,16,16*%
X7670000Y-72890000D03*
%TD*%
D12*
%TO.P,J2,1,1*%
%TO.N,-12V rail*%
X5020000Y-78860000D03*
D10*
%TO.P,J2,2,2*%
X7560000Y-78860000D03*
%TO.P,J2,3,3*%
%TO.N,GND*%
X5020000Y-81400000D03*
%TO.P,J2,4,4*%
X7560000Y-81400000D03*
%TO.P,J2,5,5*%
X5020000Y-83940000D03*
%TO.P,J2,6,6*%
X7560000Y-83940000D03*
%TO.P,J2,7,7*%
X5020000Y-86480000D03*
%TO.P,J2,8,8*%
X7560000Y-86480000D03*
%TO.P,J2,9,9*%
%TO.N,+12V rail*%
X5020000Y-89020000D03*
%TO.P,J2,10,10*%
X7560000Y-89020000D03*
%TO.P,J2,11,11*%
%TO.N,+5V rail*%
X5020000Y-91560000D03*
%TO.P,J2,12,12*%
X7560000Y-91560000D03*
%TO.P,J2,13,13*%
%TO.N,CV rail*%
X5020000Y-94100000D03*
%TO.P,J2,14,14*%
X7560000Y-94100000D03*
%TO.P,J2,15,15*%
%TO.N,GATE rail*%
X5020000Y-96640000D03*
%TO.P,J2,16,16*%
X7560000Y-96640000D03*
%TD*%
D13*
%TO.P,J1,7,EH*%
%TO.N,GND*%
X50000000Y-3200000D03*
X58640000Y-3200000D03*
X50000000Y-7010000D03*
X58640000Y-7010000D03*
%TD*%
D14*
%TO.P,J7,1,1*%
%TO.N,+12V rail*%
X15240000Y-34000000D03*
D15*
%TO.P,J7,2,2*%
X10160000Y-34000000D03*
%TD*%
%TO.P,J9,2,2*%
%TO.N,GND*%
X10160000Y-22000000D03*
D14*
%TO.P,J9,1,1*%
X15240000Y-22000000D03*
%TD*%
D15*
%TO.P,J8,2,2*%
%TO.N,+5V rail*%
X10160000Y-46000000D03*
D14*
%TO.P,J8,1,1*%
X15240000Y-46000000D03*
%TD*%
D15*
%TO.P,J6,2,2*%
%TO.N,-12V rail*%
X10160000Y-10000000D03*
D14*
%TO.P,J6,1,1*%
X15240000Y-10000000D03*
%TD*%
D16*
%TO.N,GND*%
X33150000Y-4750000D03*
X50550000Y-12650000D03*
D17*
X24675000Y-31925000D03*
%TO.N,+12V rail*%
X21000000Y-35900000D03*
X28200000Y-17400000D03*
%TO.N,GND*%
X15240000Y-25550000D03*
%TO.N,+5V rail*%
X17250000Y-36400000D03*
D18*
%TO.N,GND*%
X6350000Y-22000000D03*
D19*
X42530000Y-17230000D03*
D17*
X35380000Y-22670000D03*
D19*
X40670000Y-19120000D03*
%TO.N,Net-(J1-CC2)*%
X40550000Y-10920000D03*
%TO.N,Net-(J1-CC1)*%
X42880000Y-11432500D03*
X54820000Y-8810000D03*
%TO.N,Net-(J1-CC2)*%
X53820000Y-8800000D03*
%TO.N,+15V -> +13.5V gen*%
X60050000Y-7810000D03*
X57040000Y-5140000D03*
%TO.N,Net-(U1-CFG1)*%
X48010000Y-11020000D03*
%TO.N,GND*%
X50500000Y-11260000D03*
D16*
%TO.N,Net-(LED2-A)*%
X31200000Y-34600000D03*
D17*
%TO.N,GND*%
X54720000Y-15000000D03*
X54290000Y-3250000D03*
%TO.N,+15V -> +13.5V gen*%
X47080000Y-16702500D03*
D19*
%TO.N,Net-(U1-CFG1)*%
X46130000Y-12622500D03*
D17*
%TO.N,GND*%
X54720000Y-12500000D03*
D19*
X42720000Y-12500000D03*
D18*
X69500000Y-16500000D03*
D19*
X43868750Y-13621250D03*
X30200000Y-78200000D03*
X28400000Y-78200000D03*
X26600000Y-78200000D03*
X24800000Y-78200000D03*
X28400000Y-85400000D03*
X26600000Y-85400000D03*
X30200000Y-87000000D03*
X28400000Y-87000000D03*
X26600000Y-87000000D03*
X24800000Y-87000000D03*
X30200000Y-85400000D03*
X24800000Y-85400000D03*
X30200000Y-83600000D03*
X28400000Y-83600000D03*
X26600000Y-83600000D03*
X24800000Y-81800000D03*
X24800000Y-83600000D03*
X30200000Y-80000000D03*
X26600000Y-80000000D03*
X24800000Y-80000000D03*
X30200000Y-81800000D03*
X28400000Y-81800000D03*
X26600000Y-81800000D03*
X28400000Y-80000000D03*
X27200000Y-43600000D03*
X25400000Y-43600000D03*
X23600000Y-43600000D03*
X21800000Y-43600000D03*
X25400000Y-50800000D03*
X23600000Y-50800000D03*
X27200000Y-52400000D03*
X25400000Y-52400000D03*
X23600000Y-52400000D03*
X21800000Y-52400000D03*
X27200000Y-50800000D03*
X21800000Y-50800000D03*
X27200000Y-49000000D03*
X25400000Y-49000000D03*
X23600000Y-49000000D03*
X21800000Y-47200000D03*
X21800000Y-49000000D03*
X27200000Y-45400000D03*
X23600000Y-45400000D03*
X21800000Y-45400000D03*
X27200000Y-47200000D03*
X25400000Y-47200000D03*
X23600000Y-47200000D03*
X25400000Y-45400000D03*
X57000000Y-41400000D03*
X55200000Y-41400000D03*
X53400000Y-41400000D03*
X51600000Y-41400000D03*
X55200000Y-48600000D03*
X53400000Y-48600000D03*
X57000000Y-50200000D03*
X55200000Y-50200000D03*
X53400000Y-50200000D03*
X51600000Y-50200000D03*
X57000000Y-48600000D03*
X51600000Y-48600000D03*
X57000000Y-46800000D03*
X55200000Y-46800000D03*
X53400000Y-46800000D03*
X51600000Y-45000000D03*
X51600000Y-46800000D03*
X57000000Y-43200000D03*
X53400000Y-43200000D03*
X51600000Y-43200000D03*
X57000000Y-45000000D03*
X55200000Y-45000000D03*
X53400000Y-45000000D03*
X55200000Y-43200000D03*
X57000000Y-29600000D03*
X55200000Y-29600000D03*
X53400000Y-29600000D03*
X51600000Y-29600000D03*
X57000000Y-28000000D03*
X55200000Y-28000000D03*
X53400000Y-28000000D03*
X51600000Y-28000000D03*
X57000000Y-26200000D03*
X55200000Y-26200000D03*
X53400000Y-26200000D03*
X51600000Y-26200000D03*
X57000000Y-24400000D03*
X55200000Y-24400000D03*
X53400000Y-24400000D03*
X51600000Y-24400000D03*
X57000000Y-22600000D03*
X55200000Y-22600000D03*
X53400000Y-22600000D03*
X51600000Y-22600000D03*
X57000000Y-20800000D03*
X55200000Y-20800000D03*
X53400000Y-20800000D03*
X51600000Y-20800000D03*
D18*
X67800000Y-68300000D03*
X31200000Y-37700000D03*
D16*
%TO.N,Net-(D1-K)*%
X69750000Y-25500000D03*
%TO.N,GND*%
X41150000Y-22125000D03*
D20*
X39000000Y-71500000D03*
D17*
%TO.N,Net-(D3-K)*%
X46460000Y-62002500D03*
D18*
%TO.N,GND*%
X70500000Y-74500000D03*
D17*
%TO.N,+15V -> +13.5V gen*%
X49500000Y-56602500D03*
X48000000Y-34500000D03*
%TO.N,/DC-DC Conversion/+13.5V OUT*%
X36460000Y-47502500D03*
X37660000Y-43902500D03*
D16*
%TO.N,/DC-DC Conversion/+7.5V OUT*%
X37560000Y-53202500D03*
D17*
X34250000Y-87900000D03*
D16*
%TO.N,Net-(U2-Feedback)*%
X36500000Y-26952500D03*
X36500000Y-30252500D03*
%TO.N,Net-(U3-Feedback)*%
X40210000Y-51750000D03*
X38000000Y-48250000D03*
%TO.N,Net-(D1-K)*%
X47660000Y-23402500D03*
D18*
%TO.N,Net-(D3-K)*%
X67000000Y-62000000D03*
D17*
%TO.N,-12V rail*%
X12460000Y-53402500D03*
X15610000Y-82602500D03*
X12460000Y-76002500D03*
%TO.N,CV rail*%
X14760000Y-61902500D03*
X14760000Y-75802500D03*
X14760000Y-68702500D03*
X12660000Y-80002500D03*
D19*
%TO.N,Net-(LED2-A)*%
X17400000Y-94300000D03*
D17*
%TO.N,GND*%
X28500000Y-89500000D03*
D16*
X40300000Y-40950000D03*
X39500000Y-44750000D03*
D17*
X70500000Y-37000000D03*
D16*
X40000000Y-88000000D03*
X17500000Y-95802500D03*
D18*
X71500000Y-54000000D03*
D16*
X20570000Y-81800000D03*
X47250000Y-45750000D03*
X38500000Y-77000000D03*
D17*
X64000000Y-37000000D03*
D16*
X41500000Y-95000000D03*
X47050000Y-25975000D03*
D17*
X17500000Y-56700000D03*
D16*
X44000000Y-30000000D03*
D17*
X29000000Y-71000000D03*
X34260000Y-61852500D03*
X40500000Y-34000000D03*
D16*
X47250000Y-49500000D03*
D20*
X42500000Y-71000000D03*
D16*
X36500000Y-25452500D03*
X26000000Y-94302500D03*
%TD*%
D21*
%TO.N,/DC-DC Conversion/+7.5V OUT*%
X34250000Y-87900000D02*
X33560000Y-87210000D01*
X33560000Y-87210000D02*
X33560000Y-64052500D01*
X33560000Y-64052500D02*
X31310000Y-64052500D01*
X31310000Y-64052500D02*
X31310000Y-59552500D01*
X31310000Y-59552500D02*
X33560000Y-59552500D01*
X33560000Y-57202500D02*
X37560000Y-53202500D01*
X33560000Y-59552500D02*
X33560000Y-57202500D01*
D22*
%TO.N,GATE rail*%
X2200000Y-71207500D02*
X2200000Y-51850000D01*
X2200000Y-51850000D02*
X2450000Y-51600000D01*
X2182500Y-71225000D02*
X2200000Y-71207500D01*
X2160000Y-71202500D02*
X2182500Y-71225000D01*
X12600000Y-19000000D02*
X16763662Y-19000000D01*
X20550000Y-15213662D02*
X20550000Y-12900000D01*
X2450000Y-51600000D02*
X11800000Y-51600000D01*
X11800000Y-51600000D02*
X12600000Y-50800000D01*
X16763662Y-19000000D02*
X20550000Y-15213662D01*
X2160000Y-72900000D02*
X2160000Y-71202500D01*
X12600000Y-50800000D02*
X12600000Y-19000000D01*
X20550000Y-12900000D02*
X20460000Y-12810000D01*
X20460000Y-12810000D02*
X20460000Y-10440000D01*
D23*
%TO.N,CV rail*%
X16891000Y-54271500D02*
X14760000Y-56402500D01*
X14760000Y-56402500D02*
X14760000Y-61902500D01*
%TO.N,+15V -> +13.5V gen*%
X45460000Y-31960000D02*
X45460000Y-26150000D01*
X42560000Y-26202500D02*
X45407500Y-26202500D01*
X45407500Y-26202500D02*
X45460000Y-26150000D01*
D21*
%TO.N,+12V rail*%
X16200000Y-40700000D02*
X21000000Y-35900000D01*
X15100000Y-40700000D02*
X16200000Y-40700000D01*
X15240000Y-34000000D02*
X15100000Y-34140000D01*
X15100000Y-34140000D02*
X15100000Y-40700000D01*
D23*
X28080000Y-12980000D02*
X28080000Y-17280000D01*
X28080000Y-17280000D02*
X28200000Y-17400000D01*
%TO.N,CV rail*%
X23000000Y-10440000D02*
X24451000Y-8989000D01*
X24451000Y-8989000D02*
X39681000Y-8989000D01*
X39681000Y-8989000D02*
X39691000Y-8999000D01*
X39691000Y-8999000D02*
X39691000Y-20633740D01*
X39691000Y-20633740D02*
X19975740Y-40349000D01*
X19064662Y-40349000D02*
X16891000Y-42522662D01*
X19975740Y-40349000D02*
X19064662Y-40349000D01*
X16891000Y-42522662D02*
X16891000Y-54271500D01*
D21*
%TO.N,+5V rail*%
X18950000Y-34700000D02*
X18950000Y-34200000D01*
X25550000Y-12900000D02*
X25550000Y-10550000D01*
X17250000Y-36400000D02*
X18950000Y-34700000D01*
X18950000Y-19500000D02*
X25550000Y-12900000D01*
X18950000Y-34200000D02*
X18950000Y-19500000D01*
D24*
%TO.N,Net-(J1-CC1)*%
X42880000Y-11432500D02*
X44752500Y-9560000D01*
X44752500Y-9560000D02*
X51390000Y-9560000D01*
X51390000Y-9560000D02*
X51390000Y-9920000D01*
X51390000Y-9920000D02*
X53030000Y-11560000D01*
X53540000Y-11560000D02*
X54030000Y-11070000D01*
X54780000Y-8850000D02*
X54820000Y-8810000D01*
X53030000Y-11560000D02*
X53540000Y-11560000D01*
X54030000Y-11070000D02*
X54780000Y-11070000D01*
X54780000Y-11070000D02*
X54780000Y-8850000D01*
%TO.N,Net-(J1-CC2)*%
X40550000Y-10920000D02*
X42670000Y-8800000D01*
X42670000Y-8800000D02*
X53820000Y-8800000D01*
D23*
%TO.N,+15V -> +13.5V gen*%
X60050000Y-5650000D02*
X60050000Y-7810000D01*
X57040000Y-5140000D02*
X59540000Y-5140000D01*
X59980000Y-5580000D02*
X60050000Y-5650000D01*
X59540000Y-5140000D02*
X59980000Y-5580000D01*
D24*
%TO.N,Net-(U1-CFG1)*%
X48010000Y-11020000D02*
X46407500Y-12622500D01*
X46407500Y-12622500D02*
X46130000Y-12622500D01*
D21*
%TO.N,Net-(LED2-A)*%
X21190000Y-73810000D02*
X19000000Y-73810000D01*
X27400000Y-38400000D02*
X24400000Y-41400000D01*
X19500000Y-41400000D02*
X19500000Y-62500000D01*
X24400000Y-41400000D02*
X19500000Y-41400000D01*
X19000000Y-92700000D02*
X17400000Y-94300000D01*
X28580209Y-34600000D02*
X27400000Y-35780209D01*
X27400000Y-35780209D02*
X27400000Y-38400000D01*
X19500000Y-62500000D02*
X21500000Y-62500000D01*
X19000000Y-73810000D02*
X19000000Y-92700000D01*
X21500000Y-62500000D02*
X24750000Y-65750000D01*
X24750000Y-65750000D02*
X24750000Y-70250000D01*
X24750000Y-70250000D02*
X21190000Y-73810000D01*
X31200000Y-34600000D02*
X28580209Y-34600000D01*
D23*
%TO.N,+15V -> +13.5V gen*%
X45460000Y-26150000D02*
X45460000Y-23500000D01*
D21*
%TO.N,Net-(D1-K)*%
X69480000Y-25502500D02*
X61530000Y-17552500D01*
X61530000Y-17552500D02*
X53530000Y-17552500D01*
X53530000Y-17552500D02*
X51380000Y-19702500D01*
X51380000Y-19702500D02*
X47660000Y-19702500D01*
D23*
%TO.N,+15V -> +13.5V gen*%
X45460000Y-18802500D02*
X45460000Y-18322500D01*
X45460000Y-18322500D02*
X47080000Y-16702500D01*
D21*
%TO.N,Net-(D1-K)*%
X47660000Y-19702500D02*
X47660000Y-23402500D01*
%TO.N,Net-(U2-Feedback)*%
X36500000Y-26952500D02*
X36500000Y-30252500D01*
D23*
%TO.N,+15V -> +13.5V gen*%
X48000000Y-34500000D02*
X45460000Y-31960000D01*
X45460000Y-23500000D02*
X45460000Y-18802500D01*
D21*
X49500000Y-56602500D02*
X46260000Y-56602500D01*
X46260000Y-56602500D02*
X45960000Y-56302500D01*
D23*
X42560000Y-26202500D02*
X42560000Y-38202500D01*
X42560000Y-38202500D02*
X40560000Y-38202500D01*
X40560000Y-38202500D02*
X38860000Y-39902500D01*
X41360000Y-55402500D02*
X45960000Y-55402500D01*
X38860000Y-39902500D02*
X38860000Y-41902500D01*
X38860000Y-41902500D02*
X41360000Y-44402500D01*
X41360000Y-44402500D02*
X41360000Y-55402500D01*
X45960000Y-55402500D02*
X45960000Y-56302500D01*
D21*
%TO.N,Net-(U3-Feedback)*%
X39060000Y-49310000D02*
X38000000Y-48250000D01*
X40210000Y-51750000D02*
X39060000Y-50600000D01*
X39060000Y-50600000D02*
X39060000Y-49310000D01*
%TO.N,/DC-DC Conversion/+13.5V OUT*%
X36460000Y-45102500D02*
X37660000Y-43902500D01*
X36460000Y-47502500D02*
X36460000Y-45102500D01*
%TO.N,-12V rail*%
X7630000Y-53445000D02*
X7630000Y-55110000D01*
X10010000Y-81802500D02*
X10010000Y-76002500D01*
X12460000Y-76002500D02*
X10010000Y-76002500D01*
X15610000Y-82602500D02*
X10810000Y-82602500D01*
X12460000Y-53402500D02*
X7672500Y-53402500D01*
X8580000Y-76002500D02*
X7560000Y-77022500D01*
X10810000Y-82602500D02*
X10010000Y-81802500D01*
X7672500Y-53402500D02*
X7630000Y-53445000D01*
X7560000Y-77022500D02*
X7560000Y-78860000D01*
X10010000Y-76002500D02*
X8580000Y-76002500D01*
%TO.N,CV rail*%
X9295000Y-68685000D02*
X14742500Y-68685000D01*
X14742500Y-68685000D02*
X14760000Y-68702500D01*
X14760000Y-77902500D02*
X14760000Y-75802500D01*
X12660000Y-80002500D02*
X14760000Y-77902500D01*
X7630000Y-70350000D02*
X9295000Y-68685000D01*
D22*
%TO.N,GATE rail*%
X2170000Y-72890000D02*
X2160000Y-72900000D01*
X3440000Y-96640000D02*
X2160000Y-95360000D01*
X2160000Y-95360000D02*
X2160000Y-72900000D01*
X5020000Y-96640000D02*
X3440000Y-96640000D01*
X5090000Y-72890000D02*
X2170000Y-72890000D01*
D21*
%TO.N,Net-(D3-K)*%
X64897500Y-64102500D02*
X67000000Y-62000000D01*
X46460000Y-62002500D02*
X46460000Y-62702500D01*
X46460000Y-62702500D02*
X47860000Y-64102500D01*
X47860000Y-64102500D02*
X64897500Y-64102500D01*
%TD*%
%TA.AperFunction,Conductor*%
%TO.N,GND*%
G36*
X7047470Y-86692297D02*
G01*
X7119881Y-86817715D01*
X7222285Y-86920119D01*
X7347703Y-86992530D01*
X7389754Y-87003797D01*
X6762485Y-87631065D01*
X6762485Y-87631066D01*
X6787680Y-87649371D01*
X6830346Y-87704701D01*
X6836325Y-87774314D01*
X6803720Y-87836110D01*
X6787681Y-87850008D01*
X6647636Y-87951756D01*
X6491756Y-88107636D01*
X6491752Y-88107641D01*
X6390318Y-88247254D01*
X6334988Y-88289920D01*
X6265375Y-88295899D01*
X6203580Y-88263293D01*
X6189682Y-88247254D01*
X6088247Y-88107641D01*
X6088243Y-88107636D01*
X5932363Y-87951756D01*
X5932358Y-87951752D01*
X5792319Y-87850008D01*
X5749653Y-87794678D01*
X5743674Y-87725065D01*
X5776279Y-87663270D01*
X5792319Y-87649372D01*
X5817513Y-87631066D01*
X5817514Y-87631066D01*
X5190244Y-87003797D01*
X5232297Y-86992530D01*
X5357715Y-86920119D01*
X5460119Y-86817715D01*
X5532530Y-86692297D01*
X5543797Y-86650244D01*
X6171065Y-87277513D01*
X6189680Y-87251893D01*
X6245010Y-87209227D01*
X6314623Y-87203248D01*
X6376419Y-87235853D01*
X6390317Y-87251893D01*
X6408931Y-87277513D01*
X6408932Y-87277513D01*
X7036202Y-86650243D01*
X7047470Y-86692297D01*
G37*
%TD.AperFunction*%
%TA.AperFunction,Conductor*%
G36*
X7047470Y-84152297D02*
G01*
X7119881Y-84277715D01*
X7222285Y-84380119D01*
X7347703Y-84452530D01*
X7389754Y-84463797D01*
X6762485Y-85091065D01*
X6762485Y-85091067D01*
X6788105Y-85109681D01*
X6830771Y-85165010D01*
X6836750Y-85234624D01*
X6804145Y-85296419D01*
X6788105Y-85310317D01*
X6762485Y-85328930D01*
X6762485Y-85328932D01*
X7389755Y-85956202D01*
X7347703Y-85967470D01*
X7222285Y-86039881D01*
X7119881Y-86142285D01*
X7047470Y-86267703D01*
X7036202Y-86309755D01*
X6408932Y-85682485D01*
X6408930Y-85682485D01*
X6390317Y-85708105D01*
X6334988Y-85750771D01*
X6265374Y-85756750D01*
X6203579Y-85724145D01*
X6189681Y-85708105D01*
X6171067Y-85682485D01*
X6171065Y-85682485D01*
X5543797Y-86309754D01*
X5532530Y-86267703D01*
X5460119Y-86142285D01*
X5357715Y-86039881D01*
X5232297Y-85967470D01*
X5190243Y-85956201D01*
X5817513Y-85328932D01*
X5817513Y-85328931D01*
X5791893Y-85310317D01*
X5749227Y-85254987D01*
X5743248Y-85185374D01*
X5753270Y-85155759D01*
X5795463Y-85069015D01*
X5190244Y-84463797D01*
X5232297Y-84452530D01*
X5357715Y-84380119D01*
X5460119Y-84277715D01*
X5532530Y-84152297D01*
X5543797Y-84110244D01*
X6171065Y-84737513D01*
X6189680Y-84711893D01*
X6245010Y-84669227D01*
X6314623Y-84663248D01*
X6376419Y-84695853D01*
X6390317Y-84711893D01*
X6408931Y-84737513D01*
X6408932Y-84737513D01*
X7036202Y-84110243D01*
X7047470Y-84152297D01*
G37*
%TD.AperFunction*%
%TA.AperFunction,Conductor*%
G36*
X7047470Y-81612297D02*
G01*
X7119881Y-81737715D01*
X7222285Y-81840119D01*
X7347703Y-81912530D01*
X7389754Y-81923797D01*
X6762485Y-82551065D01*
X6762485Y-82551067D01*
X6788105Y-82569681D01*
X6830771Y-82625010D01*
X6836750Y-82694624D01*
X6804145Y-82756419D01*
X6788105Y-82770317D01*
X6762485Y-82788930D01*
X6762485Y-82788932D01*
X7389755Y-83416202D01*
X7347703Y-83427470D01*
X7222285Y-83499881D01*
X7119881Y-83602285D01*
X7047470Y-83727703D01*
X7036202Y-83769755D01*
X6408932Y-83142485D01*
X6408930Y-83142485D01*
X6390317Y-83168105D01*
X6334988Y-83210771D01*
X6265374Y-83216750D01*
X6203579Y-83184145D01*
X6189681Y-83168105D01*
X6171067Y-83142485D01*
X6171065Y-83142485D01*
X5543797Y-83769754D01*
X5532530Y-83727703D01*
X5460119Y-83602285D01*
X5357715Y-83499881D01*
X5232297Y-83427470D01*
X5190243Y-83416201D01*
X5817513Y-82788932D01*
X5817513Y-82788931D01*
X5791893Y-82770317D01*
X5749227Y-82714987D01*
X5743248Y-82645374D01*
X5753270Y-82615759D01*
X5795463Y-82529015D01*
X5190244Y-81923797D01*
X5232297Y-81912530D01*
X5357715Y-81840119D01*
X5460119Y-81737715D01*
X5532530Y-81612297D01*
X5543797Y-81570244D01*
X6171065Y-82197513D01*
X6189680Y-82171893D01*
X6245010Y-82129227D01*
X6314623Y-82123248D01*
X6376419Y-82155853D01*
X6390317Y-82171893D01*
X6408931Y-82197513D01*
X6408932Y-82197513D01*
X7036202Y-81570243D01*
X7047470Y-81612297D01*
G37*
%TD.AperFunction*%
%TA.AperFunction,Conductor*%
G36*
X6566491Y-79854202D02*
G01*
X6594747Y-79875354D01*
X6647640Y-79928247D01*
X6787679Y-80029990D01*
X6830345Y-80085319D01*
X6836324Y-80154933D01*
X6803719Y-80216728D01*
X6787679Y-80230626D01*
X6762485Y-80248930D01*
X6762485Y-80248932D01*
X7389755Y-80876202D01*
X7347703Y-80887470D01*
X7222285Y-80959881D01*
X7119881Y-81062285D01*
X7047470Y-81187703D01*
X7036202Y-81229755D01*
X6408932Y-80602485D01*
X6408930Y-80602485D01*
X6390317Y-80628105D01*
X6334988Y-80670771D01*
X6265374Y-80676750D01*
X6203579Y-80644145D01*
X6189681Y-80628105D01*
X6171067Y-80602485D01*
X6171065Y-80602485D01*
X5543797Y-81229754D01*
X5532530Y-81187703D01*
X5460119Y-81062285D01*
X5357715Y-80959881D01*
X5232297Y-80887470D01*
X5190243Y-80876202D01*
X5779628Y-80286818D01*
X5840951Y-80253333D01*
X5867308Y-80250499D01*
X5967872Y-80250499D01*
X6027483Y-80244091D01*
X6162331Y-80193796D01*
X6277546Y-80107546D01*
X6363796Y-79992331D01*
X6390885Y-79919701D01*
X6432754Y-79863769D01*
X6498218Y-79839351D01*
X6566491Y-79854202D01*
G37*
%TD.AperFunction*%
%TA.AperFunction,Conductor*%
G36*
X8956946Y-79515212D02*
G01*
X9000397Y-79569927D01*
X9009500Y-79616560D01*
X9009500Y-80644542D01*
X8989815Y-80711581D01*
X8937011Y-80757336D01*
X8867853Y-80767280D01*
X8804297Y-80738255D01*
X8775015Y-80700837D01*
X8757388Y-80666243D01*
X8711066Y-80602485D01*
X8711065Y-80602485D01*
X8083797Y-81229754D01*
X8072530Y-81187703D01*
X8000119Y-81062285D01*
X7897715Y-80959881D01*
X7772297Y-80887470D01*
X7730243Y-80876201D01*
X8357513Y-80248932D01*
X8332319Y-80230628D01*
X8289653Y-80175298D01*
X8283674Y-80105685D01*
X8316279Y-80043889D01*
X8332313Y-80029994D01*
X8472365Y-79928242D01*
X8628242Y-79772365D01*
X8757815Y-79594022D01*
X8775015Y-79560264D01*
X8822990Y-79509469D01*
X8890811Y-79492674D01*
X8956946Y-79515212D01*
G37*
%TD.AperFunction*%
%TA.AperFunction,Conductor*%
G36*
X7179172Y-52320185D02*
G01*
X7224927Y-52372989D01*
X7234871Y-52442147D01*
X7205846Y-52505703D01*
X7181024Y-52527602D01*
X7034718Y-52625360D01*
X7034714Y-52625363D01*
X6992219Y-52667860D01*
X6992218Y-52667861D01*
X6922538Y-52737540D01*
X6852859Y-52807219D01*
X6743371Y-52971079D01*
X6743364Y-52971092D01*
X6667950Y-53153160D01*
X6667947Y-53153170D01*
X6629500Y-53346456D01*
X6629500Y-53813106D01*
X6609815Y-53880145D01*
X6557011Y-53925900D01*
X6487853Y-53935844D01*
X6424297Y-53906819D01*
X6406234Y-53887418D01*
X6391584Y-53867848D01*
X6387546Y-53862454D01*
X6387544Y-53862453D01*
X6387544Y-53862452D01*
X6272335Y-53776206D01*
X6272328Y-53776202D01*
X6137482Y-53725908D01*
X6137483Y-53725908D01*
X6077883Y-53719501D01*
X6077881Y-53719500D01*
X6077873Y-53719500D01*
X6077864Y-53719500D01*
X4182129Y-53719500D01*
X4182123Y-53719501D01*
X4122516Y-53725908D01*
X3987671Y-53776202D01*
X3987664Y-53776206D01*
X3872455Y-53862452D01*
X3872452Y-53862455D01*
X3786206Y-53977664D01*
X3786202Y-53977671D01*
X3735908Y-54112517D01*
X3729501Y-54172116D01*
X3729500Y-54172135D01*
X3729500Y-56047870D01*
X3729501Y-56047876D01*
X3735908Y-56107483D01*
X3786202Y-56242328D01*
X3786206Y-56242335D01*
X3872452Y-56357544D01*
X3872455Y-56357547D01*
X3987664Y-56443793D01*
X3987671Y-56443797D01*
X4032618Y-56460561D01*
X4122517Y-56494091D01*
X4182127Y-56500500D01*
X4282693Y-56500499D01*
X4349729Y-56520183D01*
X4370372Y-56536818D01*
X4959756Y-57126202D01*
X4917703Y-57137470D01*
X4792285Y-57209881D01*
X4689881Y-57312285D01*
X4617470Y-57437703D01*
X4606202Y-57479755D01*
X3978932Y-56852485D01*
X3978931Y-56852485D01*
X3932616Y-56916233D01*
X3832567Y-57112589D01*
X3764473Y-57322164D01*
X3730000Y-57539818D01*
X3730000Y-57760181D01*
X3764473Y-57977835D01*
X3832567Y-58187410D01*
X3932611Y-58383756D01*
X3978932Y-58447513D01*
X4606202Y-57820243D01*
X4617470Y-57862297D01*
X4689881Y-57987715D01*
X4792285Y-58090119D01*
X4917703Y-58162530D01*
X4959754Y-58173797D01*
X4354534Y-58779016D01*
X4396728Y-58865760D01*
X4397593Y-58870889D01*
X4400771Y-58875010D01*
X4403345Y-58904986D01*
X4408351Y-58934656D01*
X4406304Y-58939441D01*
X4406750Y-58944624D01*
X4392710Y-58971232D01*
X4380880Y-58998899D01*
X4376573Y-59001817D01*
X4374145Y-59006419D01*
X4358105Y-59020317D01*
X4332485Y-59038930D01*
X4332485Y-59038932D01*
X4959755Y-59666202D01*
X4917703Y-59677470D01*
X4792285Y-59749881D01*
X4689881Y-59852285D01*
X4617470Y-59977703D01*
X4606202Y-60019755D01*
X3978932Y-59392485D01*
X3978931Y-59392485D01*
X3932616Y-59456233D01*
X3832567Y-59652589D01*
X3764473Y-59862164D01*
X3730000Y-60079818D01*
X3730000Y-60300181D01*
X3764473Y-60517835D01*
X3832567Y-60727410D01*
X3932611Y-60923756D01*
X3978932Y-60987513D01*
X4606202Y-60360243D01*
X4617470Y-60402297D01*
X4689881Y-60527715D01*
X4792285Y-60630119D01*
X4917703Y-60702530D01*
X4959754Y-60713797D01*
X4354534Y-61319016D01*
X4396728Y-61405760D01*
X4397593Y-61410889D01*
X4400771Y-61415010D01*
X4403345Y-61444986D01*
X4408351Y-61474656D01*
X4406304Y-61479441D01*
X4406750Y-61484624D01*
X4392710Y-61511232D01*
X4380880Y-61538899D01*
X4376573Y-61541817D01*
X4374145Y-61546419D01*
X4358105Y-61560317D01*
X4332485Y-61578930D01*
X4332485Y-61578932D01*
X4959755Y-62206202D01*
X4917703Y-62217470D01*
X4792285Y-62289881D01*
X4689881Y-62392285D01*
X4617470Y-62517703D01*
X4606202Y-62559755D01*
X3978932Y-61932485D01*
X3978931Y-61932485D01*
X3932616Y-61996233D01*
X3832567Y-62192589D01*
X3764473Y-62402164D01*
X3730000Y-62619818D01*
X3730000Y-62840181D01*
X3764473Y-63057835D01*
X3832567Y-63267410D01*
X3932611Y-63463756D01*
X3978932Y-63527513D01*
X4606202Y-62900243D01*
X4617470Y-62942297D01*
X4689881Y-63067715D01*
X4792285Y-63170119D01*
X4917703Y-63242530D01*
X4959754Y-63253797D01*
X4332485Y-63881065D01*
X4332485Y-63881066D01*
X4357680Y-63899371D01*
X4400346Y-63954701D01*
X4406325Y-64024314D01*
X4373720Y-64086110D01*
X4357681Y-64100008D01*
X4217636Y-64201756D01*
X4061756Y-64357636D01*
X4061752Y-64357641D01*
X3932187Y-64535974D01*
X3832104Y-64732393D01*
X3832103Y-64732396D01*
X3763985Y-64942047D01*
X3729500Y-65159778D01*
X3729500Y-65380221D01*
X3763985Y-65597952D01*
X3832103Y-65807603D01*
X3832104Y-65807606D01*
X3900122Y-65941096D01*
X3927129Y-65994100D01*
X3932187Y-66004025D01*
X4061752Y-66182358D01*
X4061756Y-66182363D01*
X4217636Y-66338243D01*
X4217641Y-66338247D01*
X4357254Y-66439682D01*
X4399920Y-66495012D01*
X4405899Y-66564625D01*
X4373293Y-66626420D01*
X4357254Y-66640318D01*
X4217641Y-66741752D01*
X4217636Y-66741756D01*
X4061756Y-66897636D01*
X4061752Y-66897641D01*
X3932187Y-67075974D01*
X3832104Y-67272393D01*
X3832103Y-67272396D01*
X3763985Y-67482047D01*
X3729500Y-67699778D01*
X3729500Y-67920221D01*
X3763985Y-68137952D01*
X3832103Y-68347603D01*
X3832104Y-68347606D01*
X3900122Y-68481096D01*
X3927129Y-68534100D01*
X3932187Y-68544025D01*
X4061752Y-68722358D01*
X4061756Y-68722363D01*
X4217636Y-68878243D01*
X4217641Y-68878247D01*
X4357254Y-68979682D01*
X4399920Y-69035012D01*
X4405899Y-69104625D01*
X4373293Y-69166420D01*
X4357254Y-69180318D01*
X4217641Y-69281752D01*
X4217636Y-69281756D01*
X4061756Y-69437636D01*
X4061752Y-69437641D01*
X3932187Y-69615974D01*
X3832104Y-69812393D01*
X3832103Y-69812396D01*
X3763985Y-70022047D01*
X3743488Y-70151460D01*
X3729500Y-70239778D01*
X3729500Y-70460222D01*
X3742426Y-70541835D01*
X3763985Y-70677952D01*
X3832103Y-70887603D01*
X3832104Y-70887606D01*
X3872351Y-70966593D01*
X3927129Y-71074100D01*
X3932187Y-71084025D01*
X4061752Y-71262358D01*
X4061756Y-71262363D01*
X4217636Y-71418243D01*
X4217641Y-71418247D01*
X4357254Y-71519682D01*
X4399920Y-71575012D01*
X4405899Y-71644625D01*
X4373293Y-71706420D01*
X4357254Y-71720318D01*
X4217641Y-71821752D01*
X4217636Y-71821756D01*
X4061758Y-71977634D01*
X4012997Y-72044747D01*
X3944965Y-72138386D01*
X3889638Y-72181051D01*
X3844649Y-72189500D01*
X2984500Y-72189500D01*
X2917461Y-72169815D01*
X2871706Y-72117011D01*
X2860500Y-72065500D01*
X2860500Y-71468070D01*
X2869940Y-71420615D01*
X2870921Y-71418247D01*
X2873580Y-71411828D01*
X2900500Y-71276494D01*
X2900500Y-71138506D01*
X2900500Y-52424500D01*
X2920185Y-52357461D01*
X2972989Y-52311706D01*
X3024500Y-52300500D01*
X7112133Y-52300500D01*
X7179172Y-52320185D01*
G37*
%TD.AperFunction*%
%TA.AperFunction,Conductor*%
G36*
X7157470Y-62942297D02*
G01*
X7229881Y-63067715D01*
X7332285Y-63170119D01*
X7457703Y-63242530D01*
X7499754Y-63253797D01*
X6872485Y-63881065D01*
X6872485Y-63881066D01*
X6897680Y-63899371D01*
X6940346Y-63954701D01*
X6946325Y-64024314D01*
X6913720Y-64086110D01*
X6897681Y-64100008D01*
X6757636Y-64201756D01*
X6601756Y-64357636D01*
X6601752Y-64357641D01*
X6500318Y-64497254D01*
X6444988Y-64539920D01*
X6375375Y-64545899D01*
X6313580Y-64513293D01*
X6299682Y-64497254D01*
X6198247Y-64357641D01*
X6198243Y-64357636D01*
X6042363Y-64201756D01*
X6042358Y-64201752D01*
X5902319Y-64100008D01*
X5859653Y-64044678D01*
X5853674Y-63975065D01*
X5886279Y-63913270D01*
X5902319Y-63899372D01*
X5927513Y-63881066D01*
X5927514Y-63881066D01*
X5300244Y-63253797D01*
X5342297Y-63242530D01*
X5467715Y-63170119D01*
X5570119Y-63067715D01*
X5642530Y-62942297D01*
X5653797Y-62900244D01*
X6281065Y-63527513D01*
X6299680Y-63501893D01*
X6355010Y-63459227D01*
X6424623Y-63453248D01*
X6486419Y-63485853D01*
X6500317Y-63501893D01*
X6518931Y-63527513D01*
X6518932Y-63527513D01*
X7146202Y-62900243D01*
X7157470Y-62942297D01*
G37*
%TD.AperFunction*%
%TA.AperFunction,Conductor*%
G36*
X7157470Y-60402297D02*
G01*
X7229881Y-60527715D01*
X7332285Y-60630119D01*
X7457703Y-60702530D01*
X7499754Y-60713797D01*
X6872485Y-61341065D01*
X6872485Y-61341067D01*
X6898105Y-61359681D01*
X6940771Y-61415010D01*
X6946750Y-61484624D01*
X6914145Y-61546419D01*
X6898105Y-61560317D01*
X6872485Y-61578930D01*
X6872485Y-61578932D01*
X7499755Y-62206202D01*
X7457703Y-62217470D01*
X7332285Y-62289881D01*
X7229881Y-62392285D01*
X7157470Y-62517703D01*
X7146202Y-62559755D01*
X6518932Y-61932485D01*
X6518930Y-61932485D01*
X6500317Y-61958105D01*
X6444988Y-62000771D01*
X6375374Y-62006750D01*
X6313579Y-61974145D01*
X6299681Y-61958105D01*
X6281067Y-61932485D01*
X6281065Y-61932485D01*
X5653797Y-62559754D01*
X5642530Y-62517703D01*
X5570119Y-62392285D01*
X5467715Y-62289881D01*
X5342297Y-62217470D01*
X5300243Y-62206201D01*
X5927513Y-61578932D01*
X5927513Y-61578931D01*
X5901893Y-61560317D01*
X5859227Y-61504987D01*
X5853248Y-61435374D01*
X5863270Y-61405759D01*
X5905463Y-61319015D01*
X5300244Y-60713797D01*
X5342297Y-60702530D01*
X5467715Y-60630119D01*
X5570119Y-60527715D01*
X5642530Y-60402297D01*
X5653797Y-60360244D01*
X6281065Y-60987513D01*
X6299680Y-60961893D01*
X6355010Y-60919227D01*
X6424623Y-60913248D01*
X6486419Y-60945853D01*
X6500317Y-60961893D01*
X6518931Y-60987513D01*
X6518932Y-60987513D01*
X7146202Y-60360243D01*
X7157470Y-60402297D01*
G37*
%TD.AperFunction*%
%TA.AperFunction,Conductor*%
G36*
X7157470Y-57862297D02*
G01*
X7229881Y-57987715D01*
X7332285Y-58090119D01*
X7457703Y-58162530D01*
X7499754Y-58173797D01*
X6872485Y-58801065D01*
X6872485Y-58801067D01*
X6898105Y-58819681D01*
X6940771Y-58875010D01*
X6946750Y-58944624D01*
X6914145Y-59006419D01*
X6898105Y-59020317D01*
X6872485Y-59038930D01*
X6872485Y-59038932D01*
X7499755Y-59666202D01*
X7457703Y-59677470D01*
X7332285Y-59749881D01*
X7229881Y-59852285D01*
X7157470Y-59977703D01*
X7146202Y-60019755D01*
X6518932Y-59392485D01*
X6518930Y-59392485D01*
X6500317Y-59418105D01*
X6444988Y-59460771D01*
X6375374Y-59466750D01*
X6313579Y-59434145D01*
X6299681Y-59418105D01*
X6281067Y-59392485D01*
X6281065Y-59392485D01*
X5653797Y-60019754D01*
X5642530Y-59977703D01*
X5570119Y-59852285D01*
X5467715Y-59749881D01*
X5342297Y-59677470D01*
X5300243Y-59666201D01*
X5927513Y-59038932D01*
X5927513Y-59038931D01*
X5901893Y-59020317D01*
X5859227Y-58964987D01*
X5853248Y-58895374D01*
X5863270Y-58865759D01*
X5905463Y-58779015D01*
X5300244Y-58173797D01*
X5342297Y-58162530D01*
X5467715Y-58090119D01*
X5570119Y-57987715D01*
X5642530Y-57862297D01*
X5653797Y-57820244D01*
X6281065Y-58447513D01*
X6299680Y-58421893D01*
X6355010Y-58379227D01*
X6424623Y-58373248D01*
X6486419Y-58405853D01*
X6500317Y-58421893D01*
X6518931Y-58447513D01*
X6518932Y-58447513D01*
X7146202Y-57820243D01*
X7157470Y-57862297D01*
G37*
%TD.AperFunction*%
%TA.AperFunction,Conductor*%
G36*
X6676491Y-56104202D02*
G01*
X6704747Y-56125354D01*
X6757640Y-56178247D01*
X6897679Y-56279990D01*
X6940345Y-56335319D01*
X6946324Y-56404933D01*
X6913719Y-56466728D01*
X6897679Y-56480626D01*
X6872485Y-56498930D01*
X6872485Y-56498932D01*
X7499755Y-57126202D01*
X7457703Y-57137470D01*
X7332285Y-57209881D01*
X7229881Y-57312285D01*
X7157470Y-57437703D01*
X7146202Y-57479755D01*
X6518932Y-56852485D01*
X6518930Y-56852485D01*
X6500317Y-56878105D01*
X6444988Y-56920771D01*
X6375374Y-56926750D01*
X6313579Y-56894145D01*
X6299681Y-56878105D01*
X6281067Y-56852485D01*
X6281065Y-56852485D01*
X5653797Y-57479754D01*
X5642530Y-57437703D01*
X5570119Y-57312285D01*
X5467715Y-57209881D01*
X5342297Y-57137470D01*
X5300243Y-57126202D01*
X5889628Y-56536818D01*
X5950951Y-56503333D01*
X5977308Y-56500499D01*
X6077872Y-56500499D01*
X6137483Y-56494091D01*
X6272331Y-56443796D01*
X6387546Y-56357546D01*
X6473796Y-56242331D01*
X6500885Y-56169701D01*
X6542754Y-56113769D01*
X6608218Y-56089351D01*
X6676491Y-56104202D01*
G37*
%TD.AperFunction*%
%TA.AperFunction,Conductor*%
G36*
X35187470Y-13192297D02*
G01*
X35259881Y-13317715D01*
X35362285Y-13420119D01*
X35487703Y-13492530D01*
X35529754Y-13503797D01*
X34902485Y-14131065D01*
X34902485Y-14131066D01*
X34966243Y-14177388D01*
X35162589Y-14277432D01*
X35372164Y-14345526D01*
X35589819Y-14380000D01*
X35810181Y-14380000D01*
X36027835Y-14345526D01*
X36237410Y-14277432D01*
X36433760Y-14177386D01*
X36497513Y-14131066D01*
X36497514Y-14131066D01*
X35870244Y-13503797D01*
X35912297Y-13492530D01*
X36037715Y-13420119D01*
X36140119Y-13317715D01*
X36212530Y-13192297D01*
X36223797Y-13150245D01*
X36851066Y-13777514D01*
X36851066Y-13777513D01*
X36869372Y-13752319D01*
X36924701Y-13709653D01*
X36994315Y-13703674D01*
X37056110Y-13736279D01*
X37070008Y-13752319D01*
X37171752Y-13892358D01*
X37171756Y-13892363D01*
X37327636Y-14048243D01*
X37327641Y-14048247D01*
X37414536Y-14111379D01*
X37505978Y-14177815D01*
X37634375Y-14243237D01*
X37702393Y-14277895D01*
X37702396Y-14277896D01*
X37795677Y-14308204D01*
X37912049Y-14346015D01*
X38129778Y-14380500D01*
X38129779Y-14380500D01*
X38350221Y-14380500D01*
X38350222Y-14380500D01*
X38567951Y-14346015D01*
X38678183Y-14310198D01*
X38748023Y-14308204D01*
X38807856Y-14344284D01*
X38838684Y-14406985D01*
X38840500Y-14428130D01*
X38840500Y-20230089D01*
X38820815Y-20297128D01*
X38804181Y-20317770D01*
X22450031Y-36671919D01*
X22388708Y-36705404D01*
X22319016Y-36700420D01*
X22263083Y-36658548D01*
X22238666Y-36593084D01*
X22251866Y-36527942D01*
X22297893Y-36437610D01*
X22297896Y-36437603D01*
X22317229Y-36378100D01*
X22366015Y-36227951D01*
X22400500Y-36010222D01*
X22400500Y-35789778D01*
X22366015Y-35572049D01*
X22299999Y-35368870D01*
X22297896Y-35362396D01*
X22297895Y-35362393D01*
X22232487Y-35234025D01*
X22197815Y-35165978D01*
X22180704Y-35142427D01*
X22068247Y-34987641D01*
X22068243Y-34987636D01*
X21912363Y-34831756D01*
X21912358Y-34831752D01*
X21734025Y-34702187D01*
X21734024Y-34702186D01*
X21734022Y-34702185D01*
X21671096Y-34670122D01*
X21537606Y-34602104D01*
X21537603Y-34602103D01*
X21327952Y-34533985D01*
X21192963Y-34512605D01*
X21110222Y-34499500D01*
X20889778Y-34499500D01*
X20817201Y-34510995D01*
X20672047Y-34533985D01*
X20462396Y-34602103D01*
X20462393Y-34602104D01*
X20265978Y-34702184D01*
X20147385Y-34788347D01*
X20081578Y-34811826D01*
X20013524Y-34796000D01*
X19964830Y-34745894D01*
X19950500Y-34688028D01*
X19950500Y-22178711D01*
X21949500Y-22178711D01*
X21949500Y-22421288D01*
X21981161Y-22661785D01*
X22043947Y-22896104D01*
X22136773Y-23120205D01*
X22136777Y-23120214D01*
X22152729Y-23147844D01*
X22258064Y-23330289D01*
X22258066Y-23330292D01*
X22258067Y-23330293D01*
X22405733Y-23522736D01*
X22405739Y-23522743D01*
X22577256Y-23694260D01*
X22577262Y-23694265D01*
X22769711Y-23841936D01*
X22979788Y-23963224D01*
X23203900Y-24056054D01*
X23438211Y-24118838D01*
X23618586Y-24142584D01*
X23678711Y-24150500D01*
X23678712Y-24150500D01*
X23921289Y-24150500D01*
X23969388Y-24144167D01*
X24161789Y-24118838D01*
X24396100Y-24056054D01*
X24620212Y-23963224D01*
X24830289Y-23841936D01*
X25022738Y-23694265D01*
X25194265Y-23522738D01*
X25341936Y-23330289D01*
X25463224Y-23120212D01*
X25556054Y-22896100D01*
X25618838Y-22661789D01*
X25650500Y-22421288D01*
X25650500Y-22178712D01*
X25618838Y-21938211D01*
X25556054Y-21703900D01*
X25463224Y-21479788D01*
X25341936Y-21269711D01*
X25269954Y-21175902D01*
X25194266Y-21077263D01*
X25194260Y-21077256D01*
X25022743Y-20905739D01*
X25022736Y-20905733D01*
X24830293Y-20758067D01*
X24830292Y-20758066D01*
X24830289Y-20758064D01*
X24620212Y-20636776D01*
X24607617Y-20631559D01*
X24396104Y-20543947D01*
X24161785Y-20481161D01*
X23921289Y-20449500D01*
X23921288Y-20449500D01*
X23678712Y-20449500D01*
X23678711Y-20449500D01*
X23438214Y-20481161D01*
X23203895Y-20543947D01*
X22979794Y-20636773D01*
X22979788Y-20636776D01*
X22769706Y-20758067D01*
X22577263Y-20905733D01*
X22577256Y-20905739D01*
X22405739Y-21077256D01*
X22405733Y-21077263D01*
X22258067Y-21269706D01*
X22136777Y-21479785D01*
X22136773Y-21479794D01*
X22043947Y-21703895D01*
X21981161Y-21938214D01*
X21949500Y-22178711D01*
X19950500Y-22178711D01*
X19950500Y-19965782D01*
X19970185Y-19898743D01*
X19986819Y-19878101D01*
X25448102Y-14416819D01*
X25509425Y-14383334D01*
X25535783Y-14380500D01*
X25650221Y-14380500D01*
X25650222Y-14380500D01*
X25867951Y-14346015D01*
X26077606Y-14277895D01*
X26274022Y-14177815D01*
X26452365Y-14048242D01*
X26608242Y-13892365D01*
X26691686Y-13777514D01*
X26709682Y-13752745D01*
X26765011Y-13710079D01*
X26834625Y-13704100D01*
X26896420Y-13736705D01*
X26910318Y-13752745D01*
X27011752Y-13892358D01*
X27011756Y-13892363D01*
X27011758Y-13892365D01*
X27167635Y-14048242D01*
X27178384Y-14056051D01*
X27221050Y-14111379D01*
X27229500Y-14156370D01*
X27229500Y-16338531D01*
X27209815Y-16405570D01*
X27193181Y-16426212D01*
X27131756Y-16487636D01*
X27131752Y-16487641D01*
X27002187Y-16665974D01*
X26902104Y-16862393D01*
X26902103Y-16862396D01*
X26833985Y-17072047D01*
X26799500Y-17289778D01*
X26799500Y-17510221D01*
X26833985Y-17727952D01*
X26902103Y-17937603D01*
X26902104Y-17937606D01*
X26934098Y-18000396D01*
X26986378Y-18103000D01*
X27002187Y-18134025D01*
X27131752Y-18312358D01*
X27131756Y-18312363D01*
X27287636Y-18468243D01*
X27287641Y-18468247D01*
X27404295Y-18553000D01*
X27465978Y-18597815D01*
X27586277Y-18659111D01*
X27662393Y-18697895D01*
X27662396Y-18697896D01*
X27749355Y-18726150D01*
X27872049Y-18766015D01*
X28089778Y-18800500D01*
X28089779Y-18800500D01*
X28310221Y-18800500D01*
X28310222Y-18800500D01*
X28527951Y-18766015D01*
X28737606Y-18697895D01*
X28934022Y-18597815D01*
X29112365Y-18468242D01*
X29268242Y-18312365D01*
X29397815Y-18134022D01*
X29497895Y-17937606D01*
X29566015Y-17727951D01*
X29600500Y-17510222D01*
X29600500Y-17289778D01*
X29566015Y-17072049D01*
X29514896Y-16914718D01*
X29497896Y-16862396D01*
X29497895Y-16862393D01*
X29453548Y-16775359D01*
X29397815Y-16665978D01*
X29344269Y-16592278D01*
X29268247Y-16487641D01*
X29268243Y-16487636D01*
X29112363Y-16331756D01*
X29112358Y-16331752D01*
X28981615Y-16236762D01*
X28938949Y-16181432D01*
X28930500Y-16136444D01*
X28930500Y-14156370D01*
X28939710Y-14125003D01*
X28947746Y-14093285D01*
X28949633Y-14091210D01*
X28950185Y-14089331D01*
X28969844Y-14065765D01*
X28975429Y-14060546D01*
X28992365Y-14048242D01*
X29148242Y-13892365D01*
X29249991Y-13752317D01*
X29305320Y-13709653D01*
X29374933Y-13703674D01*
X29436729Y-13736279D01*
X29450628Y-13752319D01*
X29468932Y-13777513D01*
X30096202Y-13150243D01*
X30107470Y-13192297D01*
X30179881Y-13317715D01*
X30282285Y-13420119D01*
X30407703Y-13492530D01*
X30449754Y-13503797D01*
X29822485Y-14131065D01*
X29822485Y-14131066D01*
X29886243Y-14177388D01*
X30082589Y-14277432D01*
X30292164Y-14345526D01*
X30509819Y-14380000D01*
X30730181Y-14380000D01*
X30947835Y-14345526D01*
X31157410Y-14277432D01*
X31353760Y-14177386D01*
X31417513Y-14131066D01*
X31417514Y-14131066D01*
X30790244Y-13503797D01*
X30832297Y-13492530D01*
X30957715Y-13420119D01*
X31060119Y-13317715D01*
X31132530Y-13192297D01*
X31143797Y-13150245D01*
X31771065Y-13777513D01*
X31789680Y-13751893D01*
X31845010Y-13709227D01*
X31914623Y-13703248D01*
X31976419Y-13735853D01*
X31990317Y-13751893D01*
X32008931Y-13777513D01*
X32008932Y-13777513D01*
X32636202Y-13150243D01*
X32647470Y-13192297D01*
X32719881Y-13317715D01*
X32822285Y-13420119D01*
X32947703Y-13492530D01*
X32989754Y-13503797D01*
X32362485Y-14131065D01*
X32362485Y-14131066D01*
X32426243Y-14177388D01*
X32622589Y-14277432D01*
X32832164Y-14345526D01*
X33049819Y-14380000D01*
X33270181Y-14380000D01*
X33487835Y-14345526D01*
X33697410Y-14277432D01*
X33893760Y-14177386D01*
X33957513Y-14131066D01*
X33957514Y-14131066D01*
X33330244Y-13503797D01*
X33372297Y-13492530D01*
X33497715Y-13420119D01*
X33600119Y-13317715D01*
X33672530Y-13192297D01*
X33683797Y-13150244D01*
X34311065Y-13777513D01*
X34329680Y-13751893D01*
X34385010Y-13709227D01*
X34454623Y-13703248D01*
X34516419Y-13735853D01*
X34530317Y-13751893D01*
X34548931Y-13777513D01*
X34548932Y-13777513D01*
X35176202Y-13150243D01*
X35187470Y-13192297D01*
G37*
%TD.AperFunction*%
%TA.AperFunction,Conductor*%
G36*
X30107470Y-10652297D02*
G01*
X30179881Y-10777715D01*
X30282285Y-10880119D01*
X30407703Y-10952530D01*
X30449754Y-10963797D01*
X29844534Y-11569016D01*
X29886728Y-11655760D01*
X29887593Y-11660889D01*
X29890771Y-11665010D01*
X29893345Y-11694986D01*
X29898351Y-11724656D01*
X29896304Y-11729441D01*
X29896750Y-11734624D01*
X29882710Y-11761232D01*
X29870880Y-11788899D01*
X29866573Y-11791817D01*
X29864145Y-11796419D01*
X29848105Y-11810317D01*
X29822485Y-11828930D01*
X29822485Y-11828932D01*
X30449755Y-12456202D01*
X30407703Y-12467470D01*
X30282285Y-12539881D01*
X30179881Y-12642285D01*
X30107470Y-12767703D01*
X30096202Y-12809755D01*
X29468932Y-12182485D01*
X29468930Y-12182485D01*
X29450626Y-12207679D01*
X29395296Y-12250345D01*
X29325683Y-12256324D01*
X29263888Y-12223718D01*
X29249990Y-12207679D01*
X29148247Y-12067640D01*
X28992363Y-11911756D01*
X28992358Y-11911752D01*
X28852745Y-11810318D01*
X28810079Y-11754989D01*
X28804100Y-11685375D01*
X28836705Y-11623580D01*
X28852745Y-11609682D01*
X28992358Y-11508247D01*
X28992356Y-11508247D01*
X28992365Y-11508242D01*
X29148242Y-11352365D01*
X29249991Y-11212317D01*
X29305320Y-11169653D01*
X29374933Y-11163674D01*
X29436729Y-11196279D01*
X29450628Y-11212319D01*
X29468932Y-11237513D01*
X30096202Y-10610243D01*
X30107470Y-10652297D01*
G37*
%TD.AperFunction*%
%TA.AperFunction,Conductor*%
G36*
X32647470Y-10652297D02*
G01*
X32719881Y-10777715D01*
X32822285Y-10880119D01*
X32947703Y-10952530D01*
X32989754Y-10963797D01*
X32362485Y-11591065D01*
X32362485Y-11591067D01*
X32388105Y-11609681D01*
X32430771Y-11665010D01*
X32436750Y-11734624D01*
X32404145Y-11796419D01*
X32388105Y-11810317D01*
X32362485Y-11828930D01*
X32362485Y-11828932D01*
X32989755Y-12456202D01*
X32947703Y-12467470D01*
X32822285Y-12539881D01*
X32719881Y-12642285D01*
X32647470Y-12767703D01*
X32636202Y-12809755D01*
X32008932Y-12182485D01*
X32008930Y-12182485D01*
X31990317Y-12208105D01*
X31934988Y-12250771D01*
X31865374Y-12256750D01*
X31803579Y-12224145D01*
X31789681Y-12208105D01*
X31771067Y-12182485D01*
X31771065Y-12182485D01*
X31143797Y-12809754D01*
X31132530Y-12767703D01*
X31060119Y-12642285D01*
X30957715Y-12539881D01*
X30832297Y-12467470D01*
X30790243Y-12456201D01*
X31417513Y-11828932D01*
X31417513Y-11828931D01*
X31391893Y-11810317D01*
X31349227Y-11754987D01*
X31343248Y-11685374D01*
X31353270Y-11655759D01*
X31395463Y-11569015D01*
X30790244Y-10963797D01*
X30832297Y-10952530D01*
X30957715Y-10880119D01*
X31060119Y-10777715D01*
X31132530Y-10652297D01*
X31143797Y-10610244D01*
X31771065Y-11237513D01*
X31789680Y-11211893D01*
X31845010Y-11169227D01*
X31914623Y-11163248D01*
X31976419Y-11195853D01*
X31990317Y-11211893D01*
X32008931Y-11237513D01*
X32008932Y-11237513D01*
X32636202Y-10610243D01*
X32647470Y-10652297D01*
G37*
%TD.AperFunction*%
%TA.AperFunction,Conductor*%
G36*
X35187470Y-10652297D02*
G01*
X35259881Y-10777715D01*
X35362285Y-10880119D01*
X35487703Y-10952530D01*
X35529754Y-10963797D01*
X34902485Y-11591065D01*
X34902485Y-11591067D01*
X34928105Y-11609681D01*
X34970771Y-11665010D01*
X34976750Y-11734624D01*
X34944145Y-11796419D01*
X34928105Y-11810317D01*
X34902485Y-11828930D01*
X34902485Y-11828932D01*
X35529755Y-12456202D01*
X35487703Y-12467470D01*
X35362285Y-12539881D01*
X35259881Y-12642285D01*
X35187470Y-12767703D01*
X35176202Y-12809755D01*
X34548932Y-12182485D01*
X34548930Y-12182485D01*
X34530317Y-12208105D01*
X34474988Y-12250771D01*
X34405374Y-12256750D01*
X34343579Y-12224145D01*
X34329681Y-12208105D01*
X34311067Y-12182485D01*
X34311065Y-12182485D01*
X33683797Y-12809754D01*
X33672530Y-12767703D01*
X33600119Y-12642285D01*
X33497715Y-12539881D01*
X33372297Y-12467470D01*
X33330243Y-12456201D01*
X33957513Y-11828932D01*
X33957513Y-11828931D01*
X33931893Y-11810317D01*
X33889227Y-11754987D01*
X33883248Y-11685374D01*
X33893270Y-11655759D01*
X33935463Y-11569015D01*
X33330244Y-10963797D01*
X33372297Y-10952530D01*
X33497715Y-10880119D01*
X33600119Y-10777715D01*
X33672530Y-10652297D01*
X33683797Y-10610244D01*
X34311065Y-11237513D01*
X34329680Y-11211893D01*
X34385010Y-11169227D01*
X34454623Y-11163248D01*
X34516419Y-11195853D01*
X34530317Y-11211893D01*
X34548931Y-11237513D01*
X34548932Y-11237513D01*
X35176202Y-10610243D01*
X35187470Y-10652297D01*
G37*
%TD.AperFunction*%
%TA.AperFunction,Conductor*%
G36*
X36813181Y-11199628D02*
G01*
X36846666Y-11260951D01*
X36849500Y-11287308D01*
X36849500Y-11387869D01*
X36849501Y-11387876D01*
X36855908Y-11447483D01*
X36906202Y-11582328D01*
X36906206Y-11582335D01*
X36992452Y-11697544D01*
X36992455Y-11697547D01*
X37107664Y-11783793D01*
X37107673Y-11783798D01*
X37180296Y-11810884D01*
X37236230Y-11852754D01*
X37260648Y-11918218D01*
X37245797Y-11986491D01*
X37224646Y-12014746D01*
X37171757Y-12067635D01*
X37070008Y-12207681D01*
X37014678Y-12250346D01*
X36945065Y-12256325D01*
X36883270Y-12223719D01*
X36869371Y-12207680D01*
X36851066Y-12182485D01*
X36851065Y-12182485D01*
X36223797Y-12809754D01*
X36212530Y-12767703D01*
X36140119Y-12642285D01*
X36037715Y-12539881D01*
X35912297Y-12467470D01*
X35870243Y-12456201D01*
X36497513Y-11828932D01*
X36497513Y-11828931D01*
X36471893Y-11810317D01*
X36429227Y-11754987D01*
X36423248Y-11685374D01*
X36455854Y-11623579D01*
X36471893Y-11609680D01*
X36497513Y-11591065D01*
X35870244Y-10963797D01*
X35912297Y-10952530D01*
X36037715Y-10880119D01*
X36140119Y-10777715D01*
X36212530Y-10652297D01*
X36223797Y-10610244D01*
X36813181Y-11199628D01*
G37*
%TD.AperFunction*%
%TA.AperFunction,Conductor*%
G36*
X39216663Y-43466510D02*
G01*
X39238801Y-43484091D01*
X40473181Y-44718470D01*
X40506666Y-44779793D01*
X40509500Y-44806151D01*
X40509500Y-50335217D01*
X40489815Y-50402256D01*
X40437011Y-50448011D01*
X40367853Y-50457955D01*
X40304297Y-50428930D01*
X40297819Y-50422898D01*
X40096819Y-50221898D01*
X40063334Y-50160575D01*
X40060500Y-50134217D01*
X40060500Y-49211459D01*
X40060499Y-49211456D01*
X40056477Y-49191229D01*
X40056477Y-49191228D01*
X40022052Y-49018169D01*
X40022051Y-49018168D01*
X40022051Y-49018164D01*
X39974348Y-48903000D01*
X39957466Y-48862243D01*
X39946635Y-48836093D01*
X39946634Y-48836092D01*
X39946632Y-48836086D01*
X39837139Y-48672218D01*
X39697782Y-48532861D01*
X39697781Y-48532860D01*
X39054109Y-47889189D01*
X39023859Y-47839824D01*
X39019873Y-47827556D01*
X39019870Y-47827550D01*
X38941233Y-47673213D01*
X38925937Y-47652160D01*
X38839414Y-47533072D01*
X38716928Y-47410586D01*
X38576788Y-47308768D01*
X38422445Y-47230127D01*
X38257701Y-47176598D01*
X38257699Y-47176597D01*
X38257698Y-47176597D01*
X38126271Y-47155781D01*
X38086611Y-47149500D01*
X37913389Y-47149500D01*
X37908517Y-47149500D01*
X37908517Y-47147237D01*
X37849295Y-47134776D01*
X37799555Y-47085707D01*
X37790050Y-47063859D01*
X37757897Y-46964899D01*
X37757895Y-46964893D01*
X37723237Y-46896875D01*
X37657815Y-46768478D01*
X37641260Y-46745692D01*
X37528247Y-46590141D01*
X37528243Y-46590136D01*
X37496819Y-46558712D01*
X37463334Y-46497389D01*
X37460500Y-46471031D01*
X37460500Y-45568282D01*
X37469144Y-45538841D01*
X37475668Y-45508855D01*
X37479422Y-45503839D01*
X37480185Y-45501243D01*
X37496819Y-45480601D01*
X37638101Y-45339319D01*
X37699424Y-45305834D01*
X37725782Y-45303000D01*
X37770221Y-45303000D01*
X37770222Y-45303000D01*
X37987951Y-45268515D01*
X38197606Y-45200395D01*
X38394022Y-45100315D01*
X38572365Y-44970742D01*
X38728242Y-44814865D01*
X38857815Y-44636522D01*
X38957895Y-44440106D01*
X39026015Y-44230451D01*
X39060500Y-44012722D01*
X39060500Y-43792278D01*
X39028647Y-43591168D01*
X39037601Y-43521877D01*
X39082598Y-43468425D01*
X39149349Y-43447785D01*
X39216663Y-43466510D01*
G37*
%TD.AperFunction*%
%TA.AperFunction,Conductor*%
G36*
X75442539Y-520185D02*
G01*
X75488294Y-572989D01*
X75499500Y-624500D01*
X75499500Y-98375500D01*
X75479815Y-98442539D01*
X75427011Y-98488294D01*
X75375500Y-98499500D01*
X-5375500Y-98499500D01*
X-5442539Y-98479815D01*
X-5488294Y-98427011D01*
X-5499500Y-98375500D01*
X-5499500Y-95428996D01*
X1459499Y-95428996D01*
X1486418Y-95564322D01*
X1486421Y-95564332D01*
X1539222Y-95691807D01*
X1615887Y-95806545D01*
X1615888Y-95806546D01*
X2895886Y-97086542D01*
X2972566Y-97163222D01*
X2993459Y-97184115D01*
X3108182Y-97260771D01*
X3108186Y-97260773D01*
X3108189Y-97260775D01*
X3182866Y-97291707D01*
X3235671Y-97313580D01*
X3262106Y-97318838D01*
X3334206Y-97333179D01*
X3371005Y-97340500D01*
X3371007Y-97340500D01*
X3734649Y-97340500D01*
X3801688Y-97360185D01*
X3834964Y-97391611D01*
X3951753Y-97552358D01*
X3951758Y-97552365D01*
X4107636Y-97708243D01*
X4107641Y-97708247D01*
X4263192Y-97821260D01*
X4285978Y-97837815D01*
X4414375Y-97903237D01*
X4482393Y-97937895D01*
X4482396Y-97937896D01*
X4587221Y-97971955D01*
X4692049Y-98006015D01*
X4909778Y-98040500D01*
X4909779Y-98040500D01*
X5130221Y-98040500D01*
X5130222Y-98040500D01*
X5347951Y-98006015D01*
X5557606Y-97937895D01*
X5754022Y-97837815D01*
X5932365Y-97708242D01*
X6088242Y-97552365D01*
X6153005Y-97463226D01*
X6189682Y-97412745D01*
X6245011Y-97370079D01*
X6314625Y-97364100D01*
X6376420Y-97396705D01*
X6390318Y-97412745D01*
X6491752Y-97552358D01*
X6491756Y-97552363D01*
X6647636Y-97708243D01*
X6647641Y-97708247D01*
X6803192Y-97821260D01*
X6825978Y-97837815D01*
X6954375Y-97903237D01*
X7022393Y-97937895D01*
X7022396Y-97937896D01*
X7127221Y-97971955D01*
X7232049Y-98006015D01*
X7449778Y-98040500D01*
X7449779Y-98040500D01*
X7670221Y-98040500D01*
X7670222Y-98040500D01*
X7887951Y-98006015D01*
X8097606Y-97937895D01*
X8294022Y-97837815D01*
X8472365Y-97708242D01*
X8628242Y-97552365D01*
X8757815Y-97374022D01*
X8857895Y-97177606D01*
X8926015Y-96967951D01*
X8960500Y-96750222D01*
X8960500Y-96529778D01*
X8926015Y-96312049D01*
X8857895Y-96102394D01*
X8857895Y-96102393D01*
X8774895Y-95939500D01*
X8757815Y-95905978D01*
X8744380Y-95887487D01*
X8642703Y-95747538D01*
X8642702Y-95747537D01*
X8628245Y-95727638D01*
X8579318Y-95678711D01*
X10349500Y-95678711D01*
X10349500Y-95921288D01*
X10381161Y-96161785D01*
X10443947Y-96396104D01*
X10499530Y-96530293D01*
X10536776Y-96620212D01*
X10658064Y-96830289D01*
X10658066Y-96830292D01*
X10658067Y-96830293D01*
X10805733Y-97022736D01*
X10805739Y-97022743D01*
X10977256Y-97194260D01*
X10977263Y-97194266D01*
X11057787Y-97256054D01*
X11169711Y-97341936D01*
X11379788Y-97463224D01*
X11603900Y-97556054D01*
X11838211Y-97618838D01*
X12018586Y-97642584D01*
X12078711Y-97650500D01*
X12078712Y-97650500D01*
X12321289Y-97650500D01*
X12369388Y-97644167D01*
X12561789Y-97618838D01*
X12796100Y-97556054D01*
X13020212Y-97463224D01*
X13230289Y-97341936D01*
X13422738Y-97194265D01*
X13594265Y-97022738D01*
X13741936Y-96830289D01*
X13863224Y-96620212D01*
X13956054Y-96396100D01*
X14018838Y-96161789D01*
X14050500Y-95921288D01*
X14050500Y-95678712D01*
X14018838Y-95438211D01*
X14002895Y-95378711D01*
X70649500Y-95378711D01*
X70649500Y-95621288D01*
X70681161Y-95861785D01*
X70743947Y-96096104D01*
X70771155Y-96161789D01*
X70836776Y-96320212D01*
X70958064Y-96530289D01*
X70958066Y-96530292D01*
X70958067Y-96530293D01*
X71105733Y-96722736D01*
X71105739Y-96722743D01*
X71277256Y-96894260D01*
X71277262Y-96894265D01*
X71469711Y-97041936D01*
X71679788Y-97163224D01*
X71903900Y-97256054D01*
X72138211Y-97318838D01*
X72313661Y-97341936D01*
X72378711Y-97350500D01*
X72378712Y-97350500D01*
X72621289Y-97350500D01*
X72686339Y-97341936D01*
X72861789Y-97318838D01*
X73096100Y-97256054D01*
X73320212Y-97163224D01*
X73530289Y-97041936D01*
X73722738Y-96894265D01*
X73894265Y-96722738D01*
X74041936Y-96530289D01*
X74163224Y-96320212D01*
X74256054Y-96096100D01*
X74318838Y-95861789D01*
X74350500Y-95621288D01*
X74350500Y-95378712D01*
X74318838Y-95138211D01*
X74256054Y-94903900D01*
X74163224Y-94679788D01*
X74041936Y-94469711D01*
X73894265Y-94277262D01*
X73894260Y-94277256D01*
X73722743Y-94105739D01*
X73722736Y-94105733D01*
X73530293Y-93958067D01*
X73530292Y-93958066D01*
X73530289Y-93958064D01*
X73320212Y-93836776D01*
X73320205Y-93836773D01*
X73096104Y-93743947D01*
X72861785Y-93681161D01*
X72621289Y-93649500D01*
X72621288Y-93649500D01*
X72378712Y-93649500D01*
X72378711Y-93649500D01*
X72138214Y-93681161D01*
X71903895Y-93743947D01*
X71679794Y-93836773D01*
X71679785Y-93836777D01*
X71469706Y-93958067D01*
X71277263Y-94105733D01*
X71277256Y-94105739D01*
X71105739Y-94277256D01*
X71105733Y-94277263D01*
X70958067Y-94469706D01*
X70836777Y-94679785D01*
X70836773Y-94679794D01*
X70743947Y-94903895D01*
X70681161Y-95138214D01*
X70649500Y-95378711D01*
X14002895Y-95378711D01*
X13956054Y-95203900D01*
X13863224Y-94979788D01*
X13741936Y-94769711D01*
X13672936Y-94679788D01*
X13594266Y-94577263D01*
X13594260Y-94577256D01*
X13422743Y-94405739D01*
X13422736Y-94405733D01*
X13230293Y-94258067D01*
X13230292Y-94258066D01*
X13230289Y-94258064D01*
X13020212Y-94136776D01*
X13020205Y-94136773D01*
X12796104Y-94043947D01*
X12561785Y-93981161D01*
X12321289Y-93949500D01*
X12321288Y-93949500D01*
X12078712Y-93949500D01*
X12078711Y-93949500D01*
X11838214Y-93981161D01*
X11603895Y-94043947D01*
X11379794Y-94136773D01*
X11379785Y-94136777D01*
X11169706Y-94258067D01*
X10977263Y-94405733D01*
X10977256Y-94405739D01*
X10805739Y-94577256D01*
X10805733Y-94577263D01*
X10658067Y-94769706D01*
X10536777Y-94979785D01*
X10536773Y-94979794D01*
X10443947Y-95203895D01*
X10381161Y-95438214D01*
X10349500Y-95678711D01*
X8579318Y-95678711D01*
X8472363Y-95571756D01*
X8472358Y-95571752D01*
X8332745Y-95470318D01*
X8290079Y-95414989D01*
X8284100Y-95345375D01*
X8316705Y-95283580D01*
X8332745Y-95269682D01*
X8472358Y-95168247D01*
X8472356Y-95168247D01*
X8472365Y-95168242D01*
X8628242Y-95012365D01*
X8757815Y-94834022D01*
X8857895Y-94637606D01*
X8926015Y-94427951D01*
X8960500Y-94210222D01*
X8960500Y-93989778D01*
X8926015Y-93772049D01*
X8857895Y-93562394D01*
X8857895Y-93562393D01*
X8823237Y-93494375D01*
X8757815Y-93365978D01*
X8729681Y-93327254D01*
X8628247Y-93187641D01*
X8628243Y-93187636D01*
X8472363Y-93031756D01*
X8472358Y-93031752D01*
X8332745Y-92930318D01*
X8290079Y-92874989D01*
X8284100Y-92805375D01*
X8316705Y-92743580D01*
X8332745Y-92729682D01*
X8472358Y-92628247D01*
X8472356Y-92628247D01*
X8472365Y-92628242D01*
X8628242Y-92472365D01*
X8757815Y-92294022D01*
X8857895Y-92097606D01*
X8926015Y-91887951D01*
X8960500Y-91670222D01*
X8960500Y-91449778D01*
X8926015Y-91232049D01*
X8860462Y-91030293D01*
X8857896Y-91022396D01*
X8857895Y-91022393D01*
X8823237Y-90954375D01*
X8757815Y-90825978D01*
X8729681Y-90787254D01*
X8628247Y-90647641D01*
X8628243Y-90647636D01*
X8472363Y-90491756D01*
X8472358Y-90491752D01*
X8332745Y-90390318D01*
X8290079Y-90334989D01*
X8284100Y-90265375D01*
X8316705Y-90203580D01*
X8332745Y-90189682D01*
X8472358Y-90088247D01*
X8472356Y-90088247D01*
X8472365Y-90088242D01*
X8628242Y-89932365D01*
X8757815Y-89754022D01*
X8857895Y-89557606D01*
X8926015Y-89347951D01*
X8960500Y-89130222D01*
X8960500Y-88909778D01*
X8926015Y-88692049D01*
X8857895Y-88482394D01*
X8857895Y-88482393D01*
X8823237Y-88414375D01*
X8757815Y-88285978D01*
X8715656Y-88227951D01*
X8628247Y-88107641D01*
X8628243Y-88107636D01*
X8472363Y-87951756D01*
X8472358Y-87951752D01*
X8332319Y-87850008D01*
X8289653Y-87794678D01*
X8283674Y-87725065D01*
X8316279Y-87663270D01*
X8332319Y-87649372D01*
X8357513Y-87631066D01*
X8357514Y-87631066D01*
X7730244Y-87003797D01*
X7772297Y-86992530D01*
X7897715Y-86920119D01*
X8000119Y-86817715D01*
X8072530Y-86692297D01*
X8083797Y-86650244D01*
X8711066Y-87277514D01*
X8711066Y-87277513D01*
X8757386Y-87213760D01*
X8857432Y-87017410D01*
X8925526Y-86807835D01*
X8960000Y-86590181D01*
X8960000Y-86369818D01*
X8925526Y-86152164D01*
X8857432Y-85942589D01*
X8757388Y-85746243D01*
X8711066Y-85682485D01*
X8711065Y-85682485D01*
X8083797Y-86309754D01*
X8072530Y-86267703D01*
X8000119Y-86142285D01*
X7897715Y-86039881D01*
X7772297Y-85967470D01*
X7730243Y-85956201D01*
X8357513Y-85328932D01*
X8357513Y-85328931D01*
X8331893Y-85310317D01*
X8289227Y-85254987D01*
X8283248Y-85185374D01*
X8315854Y-85123579D01*
X8331893Y-85109680D01*
X8357513Y-85091065D01*
X7730244Y-84463797D01*
X7772297Y-84452530D01*
X7897715Y-84380119D01*
X8000119Y-84277715D01*
X8072530Y-84152297D01*
X8083797Y-84110244D01*
X8711066Y-84737514D01*
X8711066Y-84737513D01*
X8757386Y-84673760D01*
X8857432Y-84477410D01*
X8925526Y-84267835D01*
X8960000Y-84050181D01*
X8960000Y-83829818D01*
X8925526Y-83612164D01*
X8857432Y-83402589D01*
X8757388Y-83206243D01*
X8711066Y-83142485D01*
X8711065Y-83142485D01*
X8083797Y-83769754D01*
X8072530Y-83727703D01*
X8000119Y-83602285D01*
X7897715Y-83499881D01*
X7772297Y-83427470D01*
X7730243Y-83416201D01*
X8357513Y-82788932D01*
X8357513Y-82788931D01*
X8331893Y-82770317D01*
X8289227Y-82714987D01*
X8283248Y-82645374D01*
X8315854Y-82583579D01*
X8331893Y-82569680D01*
X8357513Y-82551065D01*
X7730244Y-81923797D01*
X7772297Y-81912530D01*
X7897715Y-81840119D01*
X8000119Y-81737715D01*
X8072530Y-81612297D01*
X8083797Y-81570244D01*
X8711066Y-82197514D01*
X8711066Y-82197513D01*
X8757388Y-82133758D01*
X8809665Y-82031158D01*
X8857639Y-81980362D01*
X8925460Y-81963566D01*
X8991595Y-81986103D01*
X9035047Y-82040818D01*
X9041767Y-82063259D01*
X9047947Y-82094330D01*
X9047950Y-82094339D01*
X9123364Y-82276407D01*
X9123371Y-82276420D01*
X9232860Y-82440281D01*
X9232863Y-82440285D01*
X9376537Y-82583959D01*
X9376559Y-82583979D01*
X10029735Y-83237155D01*
X10029764Y-83237186D01*
X10172214Y-83379636D01*
X10172218Y-83379639D01*
X10336079Y-83489128D01*
X10336092Y-83489135D01*
X10464833Y-83542461D01*
X10507744Y-83560235D01*
X10518164Y-83564551D01*
X10614812Y-83583775D01*
X10628240Y-83586446D01*
X10711458Y-83603000D01*
X10711459Y-83603000D01*
X10711460Y-83603000D01*
X10908540Y-83603000D01*
X14578531Y-83603000D01*
X14645570Y-83622685D01*
X14666212Y-83639319D01*
X14697636Y-83670743D01*
X14697641Y-83670747D01*
X14853192Y-83783760D01*
X14875978Y-83800315D01*
X15004375Y-83865737D01*
X15072393Y-83900395D01*
X15072396Y-83900396D01*
X15177221Y-83934455D01*
X15282049Y-83968515D01*
X15499778Y-84003000D01*
X15499779Y-84003000D01*
X15720221Y-84003000D01*
X15720222Y-84003000D01*
X15937951Y-83968515D01*
X16147606Y-83900395D01*
X16344022Y-83800315D01*
X16522365Y-83670742D01*
X16678242Y-83514865D01*
X16807815Y-83336522D01*
X16907895Y-83140106D01*
X16976015Y-82930451D01*
X17010500Y-82712722D01*
X17010500Y-82492278D01*
X16976015Y-82274549D01*
X16907895Y-82064894D01*
X16907895Y-82064893D01*
X16873237Y-81996875D01*
X16807815Y-81868478D01*
X16712811Y-81737715D01*
X16678247Y-81690141D01*
X16678243Y-81690136D01*
X16522363Y-81534256D01*
X16522358Y-81534252D01*
X16344025Y-81404687D01*
X16344024Y-81404686D01*
X16344022Y-81404685D01*
X16256459Y-81360069D01*
X16147606Y-81304604D01*
X16147603Y-81304603D01*
X15937952Y-81236485D01*
X15829086Y-81219242D01*
X15720222Y-81202000D01*
X15499778Y-81202000D01*
X15427201Y-81213495D01*
X15282047Y-81236485D01*
X15072396Y-81304603D01*
X15072393Y-81304604D01*
X14875974Y-81404687D01*
X14697641Y-81534252D01*
X14697636Y-81534256D01*
X14666212Y-81565681D01*
X14604889Y-81599166D01*
X14578531Y-81602000D01*
X13052265Y-81602000D01*
X12985226Y-81582315D01*
X12939471Y-81529511D01*
X12929527Y-81460353D01*
X12958552Y-81396797D01*
X13013947Y-81360069D01*
X13197603Y-81300396D01*
X13197606Y-81300395D01*
X13218364Y-81289818D01*
X13394022Y-81200315D01*
X13572365Y-81070742D01*
X13728242Y-80914865D01*
X13857815Y-80736522D01*
X13957895Y-80540106D01*
X14026015Y-80330451D01*
X14060500Y-80112722D01*
X14060500Y-80068282D01*
X14080185Y-80001243D01*
X14096819Y-79980601D01*
X14808943Y-79268478D01*
X15537139Y-78540282D01*
X15574129Y-78484921D01*
X15646631Y-78376416D01*
X15646636Y-78376406D01*
X15708862Y-78226177D01*
X15722051Y-78194335D01*
X15760500Y-78001041D01*
X15760500Y-76833969D01*
X15780185Y-76766930D01*
X15796819Y-76746288D01*
X15828245Y-76714862D01*
X15828247Y-76714858D01*
X15957815Y-76536522D01*
X16057895Y-76340106D01*
X16126015Y-76130451D01*
X16160500Y-75912722D01*
X16160500Y-75692278D01*
X16126015Y-75474549D01*
X16057895Y-75264894D01*
X16057895Y-75264893D01*
X15981963Y-75115871D01*
X15957815Y-75068478D01*
X15931216Y-75031868D01*
X15828247Y-74890141D01*
X15828243Y-74890136D01*
X15672363Y-74734256D01*
X15672358Y-74734252D01*
X15494025Y-74604687D01*
X15494024Y-74604686D01*
X15494022Y-74604685D01*
X15431096Y-74572622D01*
X15297606Y-74504604D01*
X15297603Y-74504603D01*
X15087952Y-74436485D01*
X14979086Y-74419242D01*
X14870222Y-74402000D01*
X14649778Y-74402000D01*
X14577201Y-74413495D01*
X14432047Y-74436485D01*
X14222396Y-74504603D01*
X14222393Y-74504604D01*
X14025974Y-74604687D01*
X13847641Y-74734252D01*
X13847636Y-74734256D01*
X13691756Y-74890136D01*
X13691752Y-74890141D01*
X13624125Y-74983223D01*
X13568795Y-75025889D01*
X13499182Y-75031868D01*
X13437387Y-74999263D01*
X13436126Y-74998019D01*
X13372363Y-74934256D01*
X13372358Y-74934252D01*
X13194025Y-74804687D01*
X13194024Y-74804686D01*
X13194022Y-74804685D01*
X13129975Y-74772051D01*
X12997606Y-74704604D01*
X12997603Y-74704603D01*
X12787952Y-74636485D01*
X12679086Y-74619242D01*
X12570222Y-74602000D01*
X12349778Y-74602000D01*
X12277201Y-74613495D01*
X12132047Y-74636485D01*
X11922396Y-74704603D01*
X11922393Y-74704604D01*
X11725974Y-74804687D01*
X11547641Y-74934252D01*
X11547636Y-74934256D01*
X11516212Y-74965681D01*
X11454889Y-74999166D01*
X11428531Y-75002000D01*
X8481455Y-75002000D01*
X8384812Y-75021224D01*
X8288167Y-75040447D01*
X8288161Y-75040449D01*
X8234834Y-75062537D01*
X8234834Y-75062538D01*
X8220494Y-75068478D01*
X8106089Y-75115866D01*
X8106079Y-75115871D01*
X7942219Y-75225359D01*
X7902686Y-75264893D01*
X7802861Y-75364718D01*
X7802858Y-75364721D01*
X6922221Y-76245358D01*
X6922218Y-76245361D01*
X6852538Y-76315040D01*
X6782859Y-76384719D01*
X6673371Y-76548579D01*
X6673364Y-76548591D01*
X6635387Y-76640281D01*
X6604495Y-76714862D01*
X6604493Y-76714868D01*
X6597949Y-76730663D01*
X6597947Y-76730670D01*
X6559500Y-76923954D01*
X6559500Y-77616538D01*
X6539815Y-77683577D01*
X6487011Y-77729332D01*
X6417853Y-77739276D01*
X6354297Y-77710251D01*
X6336234Y-77690850D01*
X6280603Y-77616538D01*
X6277546Y-77612454D01*
X6277544Y-77612453D01*
X6277544Y-77612452D01*
X6162335Y-77526206D01*
X6162328Y-77526202D01*
X6027482Y-77475908D01*
X6027483Y-77475908D01*
X5967883Y-77469501D01*
X5967881Y-77469500D01*
X5967873Y-77469500D01*
X5967864Y-77469500D01*
X4072129Y-77469500D01*
X4072123Y-77469501D01*
X4012516Y-77475908D01*
X3877671Y-77526202D01*
X3877664Y-77526206D01*
X3762455Y-77612452D01*
X3762452Y-77612455D01*
X3676206Y-77727664D01*
X3676202Y-77727671D01*
X3625908Y-77862517D01*
X3619501Y-77922116D01*
X3619500Y-77922135D01*
X3619500Y-79797870D01*
X3619501Y-79797876D01*
X3625908Y-79857483D01*
X3676202Y-79992328D01*
X3676206Y-79992335D01*
X3762452Y-80107544D01*
X3762455Y-80107547D01*
X3877664Y-80193793D01*
X3877671Y-80193797D01*
X3922618Y-80210561D01*
X4012517Y-80244091D01*
X4072127Y-80250500D01*
X4172693Y-80250499D01*
X4239729Y-80270183D01*
X4260372Y-80286818D01*
X4849756Y-80876202D01*
X4807703Y-80887470D01*
X4682285Y-80959881D01*
X4579881Y-81062285D01*
X4507470Y-81187703D01*
X4496202Y-81229755D01*
X3868932Y-80602485D01*
X3868931Y-80602485D01*
X3822616Y-80666233D01*
X3722567Y-80862589D01*
X3654473Y-81072164D01*
X3620000Y-81289818D01*
X3620000Y-81510181D01*
X3654473Y-81727835D01*
X3722567Y-81937410D01*
X3822611Y-82133756D01*
X3868932Y-82197513D01*
X4496202Y-81570243D01*
X4507470Y-81612297D01*
X4579881Y-81737715D01*
X4682285Y-81840119D01*
X4807703Y-81912530D01*
X4849754Y-81923797D01*
X4244534Y-82529016D01*
X4286728Y-82615760D01*
X4287593Y-82620889D01*
X4290771Y-82625010D01*
X4293345Y-82654986D01*
X4298351Y-82684656D01*
X4296304Y-82689441D01*
X4296750Y-82694624D01*
X4282710Y-82721232D01*
X4270880Y-82748899D01*
X4266573Y-82751817D01*
X4264145Y-82756419D01*
X4248105Y-82770317D01*
X4222485Y-82788930D01*
X4222485Y-82788932D01*
X4849755Y-83416202D01*
X4807703Y-83427470D01*
X4682285Y-83499881D01*
X4579881Y-83602285D01*
X4507470Y-83727703D01*
X4496202Y-83769755D01*
X3868932Y-83142485D01*
X3868931Y-83142485D01*
X3822616Y-83206233D01*
X3722567Y-83402589D01*
X3654473Y-83612164D01*
X3620000Y-83829818D01*
X3620000Y-84050181D01*
X3654473Y-84267835D01*
X3722567Y-84477410D01*
X3822611Y-84673756D01*
X3868932Y-84737513D01*
X4496202Y-84110243D01*
X4507470Y-84152297D01*
X4579881Y-84277715D01*
X4682285Y-84380119D01*
X4807703Y-84452530D01*
X4849754Y-84463797D01*
X4244534Y-85069016D01*
X4286728Y-85155760D01*
X4287593Y-85160889D01*
X4290771Y-85165010D01*
X4293345Y-85194986D01*
X4298351Y-85224656D01*
X4296304Y-85229441D01*
X4296750Y-85234624D01*
X4282710Y-85261232D01*
X4270880Y-85288899D01*
X4266573Y-85291817D01*
X4264145Y-85296419D01*
X4248105Y-85310317D01*
X4222485Y-85328930D01*
X4222485Y-85328932D01*
X4849755Y-85956202D01*
X4807703Y-85967470D01*
X4682285Y-86039881D01*
X4579881Y-86142285D01*
X4507470Y-86267703D01*
X4496202Y-86309755D01*
X3868932Y-85682485D01*
X3868931Y-85682485D01*
X3822616Y-85746233D01*
X3722567Y-85942589D01*
X3654473Y-86152164D01*
X3620000Y-86369818D01*
X3620000Y-86590181D01*
X3654473Y-86807835D01*
X3722567Y-87017410D01*
X3822611Y-87213756D01*
X3868932Y-87277513D01*
X4496202Y-86650243D01*
X4507470Y-86692297D01*
X4579881Y-86817715D01*
X4682285Y-86920119D01*
X4807703Y-86992530D01*
X4849754Y-87003797D01*
X4222485Y-87631065D01*
X4222485Y-87631066D01*
X4247680Y-87649371D01*
X4290346Y-87704701D01*
X4296325Y-87774314D01*
X4263720Y-87836110D01*
X4247681Y-87850008D01*
X4107636Y-87951756D01*
X3951756Y-88107636D01*
X3951752Y-88107641D01*
X3822187Y-88285974D01*
X3722104Y-88482393D01*
X3722103Y-88482396D01*
X3653985Y-88692047D01*
X3640488Y-88777263D01*
X3619500Y-88909778D01*
X3619500Y-89130222D01*
X3630218Y-89197895D01*
X3653985Y-89347952D01*
X3722103Y-89557603D01*
X3722104Y-89557606D01*
X3763177Y-89638214D01*
X3817129Y-89744100D01*
X3822187Y-89754025D01*
X3951752Y-89932358D01*
X3951756Y-89932363D01*
X4107636Y-90088243D01*
X4107641Y-90088247D01*
X4247254Y-90189682D01*
X4289920Y-90245012D01*
X4295899Y-90314625D01*
X4263293Y-90376420D01*
X4247254Y-90390318D01*
X4107641Y-90491752D01*
X4107636Y-90491756D01*
X3951756Y-90647636D01*
X3951752Y-90647641D01*
X3822187Y-90825974D01*
X3722104Y-91022393D01*
X3722103Y-91022396D01*
X3653985Y-91232047D01*
X3653985Y-91232049D01*
X3619500Y-91449778D01*
X3619500Y-91670222D01*
X3636742Y-91779086D01*
X3653985Y-91887952D01*
X3722103Y-92097603D01*
X3722104Y-92097606D01*
X3790122Y-92231096D01*
X3817129Y-92284100D01*
X3822187Y-92294025D01*
X3951752Y-92472358D01*
X3951756Y-92472363D01*
X4107636Y-92628243D01*
X4107641Y-92628247D01*
X4247254Y-92729682D01*
X4289920Y-92785012D01*
X4295899Y-92854625D01*
X4263293Y-92916420D01*
X4247254Y-92930318D01*
X4107641Y-93031752D01*
X4107636Y-93031756D01*
X3951756Y-93187636D01*
X3951752Y-93187641D01*
X3822187Y-93365974D01*
X3722104Y-93562393D01*
X3722103Y-93562396D01*
X3653985Y-93772047D01*
X3620865Y-93981161D01*
X3619500Y-93989778D01*
X3619500Y-94210222D01*
X3627078Y-94258067D01*
X3653985Y-94427952D01*
X3722103Y-94637603D01*
X3722104Y-94637606D01*
X3789414Y-94769706D01*
X3817129Y-94824100D01*
X3822187Y-94834025D01*
X3951752Y-95012358D01*
X3951756Y-95012363D01*
X4107636Y-95168243D01*
X4107641Y-95168247D01*
X4247254Y-95269682D01*
X4289920Y-95325012D01*
X4295899Y-95394625D01*
X4263293Y-95456420D01*
X4247254Y-95470318D01*
X4107641Y-95571752D01*
X4107636Y-95571756D01*
X3951756Y-95727636D01*
X3951752Y-95727641D01*
X3854689Y-95861238D01*
X3799359Y-95903904D01*
X3729746Y-95909883D01*
X3667951Y-95877277D01*
X3666690Y-95876034D01*
X2896819Y-95106162D01*
X2863334Y-95044839D01*
X2860500Y-95018481D01*
X2860500Y-73714500D01*
X2880185Y-73647461D01*
X2932989Y-73601706D01*
X2984500Y-73590500D01*
X3844649Y-73590500D01*
X3911688Y-73610185D01*
X3944964Y-73641611D01*
X3997921Y-73714500D01*
X4061758Y-73802365D01*
X4217636Y-73958243D01*
X4217641Y-73958247D01*
X4373192Y-74071260D01*
X4395978Y-74087815D01*
X4524375Y-74153237D01*
X4592393Y-74187895D01*
X4592396Y-74187896D01*
X4697221Y-74221955D01*
X4802049Y-74256015D01*
X5019778Y-74290500D01*
X5019779Y-74290500D01*
X5240221Y-74290500D01*
X5240222Y-74290500D01*
X5457951Y-74256015D01*
X5667606Y-74187895D01*
X5864022Y-74087815D01*
X6042365Y-73958242D01*
X6198242Y-73802365D01*
X6208804Y-73787826D01*
X6299682Y-73662745D01*
X6355011Y-73620079D01*
X6424625Y-73614100D01*
X6486420Y-73646705D01*
X6500318Y-73662745D01*
X6601752Y-73802358D01*
X6601756Y-73802363D01*
X6757636Y-73958243D01*
X6757641Y-73958247D01*
X6913192Y-74071260D01*
X6935978Y-74087815D01*
X7064375Y-74153237D01*
X7132393Y-74187895D01*
X7132396Y-74187896D01*
X7237221Y-74221955D01*
X7342049Y-74256015D01*
X7559778Y-74290500D01*
X7559779Y-74290500D01*
X7780221Y-74290500D01*
X7780222Y-74290500D01*
X7997951Y-74256015D01*
X8207606Y-74187895D01*
X8404022Y-74087815D01*
X8582365Y-73958242D01*
X8738242Y-73802365D01*
X8867815Y-73624022D01*
X8967895Y-73427606D01*
X9036015Y-73217951D01*
X9070500Y-73000222D01*
X9070500Y-72779778D01*
X9036015Y-72562049D01*
X8967895Y-72352394D01*
X8967895Y-72352393D01*
X8874865Y-72169815D01*
X8867815Y-72155978D01*
X8839504Y-72117011D01*
X8738247Y-71977641D01*
X8738243Y-71977636D01*
X8582363Y-71821756D01*
X8582358Y-71821752D01*
X8442745Y-71720318D01*
X8400079Y-71664989D01*
X8394100Y-71595375D01*
X8426705Y-71533580D01*
X8442745Y-71519682D01*
X8582358Y-71418247D01*
X8582356Y-71418247D01*
X8582365Y-71418242D01*
X8738242Y-71262365D01*
X8867815Y-71084022D01*
X8967895Y-70887606D01*
X9036015Y-70677951D01*
X9070500Y-70460222D01*
X9070500Y-70375782D01*
X9090185Y-70308743D01*
X9106819Y-70288101D01*
X9673102Y-69721819D01*
X9734425Y-69688334D01*
X9760783Y-69685500D01*
X13711031Y-69685500D01*
X13778070Y-69705185D01*
X13798712Y-69721819D01*
X13847636Y-69770743D01*
X13847641Y-69770747D01*
X13986865Y-69871898D01*
X14025978Y-69900315D01*
X14154375Y-69965737D01*
X14222393Y-70000395D01*
X14222396Y-70000396D01*
X14289033Y-70022047D01*
X14432049Y-70068515D01*
X14649778Y-70103000D01*
X14649779Y-70103000D01*
X14870221Y-70103000D01*
X14870222Y-70103000D01*
X15087951Y-70068515D01*
X15297606Y-70000395D01*
X15494022Y-69900315D01*
X15672365Y-69770742D01*
X15828242Y-69614865D01*
X15957815Y-69436522D01*
X16057895Y-69240106D01*
X16126015Y-69030451D01*
X16160500Y-68812722D01*
X16160500Y-68592278D01*
X16152857Y-68544022D01*
X16129104Y-68394051D01*
X16126674Y-68378711D01*
X17899500Y-68378711D01*
X17899500Y-68621288D01*
X17931161Y-68861785D01*
X17993947Y-69096104D01*
X17997477Y-69104625D01*
X18086776Y-69320212D01*
X18208064Y-69530289D01*
X18208066Y-69530292D01*
X18208067Y-69530293D01*
X18355733Y-69722736D01*
X18355739Y-69722743D01*
X18527256Y-69894260D01*
X18527263Y-69894266D01*
X18640321Y-69981018D01*
X18719711Y-70041936D01*
X18929788Y-70163224D01*
X19153900Y-70256054D01*
X19388211Y-70318838D01*
X19568586Y-70342584D01*
X19628711Y-70350500D01*
X19628712Y-70350500D01*
X19871289Y-70350500D01*
X19919388Y-70344167D01*
X20111789Y-70318838D01*
X20346100Y-70256054D01*
X20570212Y-70163224D01*
X20780289Y-70041936D01*
X20972738Y-69894265D01*
X21144265Y-69722738D01*
X21291936Y-69530289D01*
X21413224Y-69320212D01*
X21506054Y-69096100D01*
X21568838Y-68861789D01*
X21600500Y-68621288D01*
X21600500Y-68378712D01*
X21596404Y-68347603D01*
X21572351Y-68164896D01*
X21568838Y-68138211D01*
X21506054Y-67903900D01*
X21413224Y-67679788D01*
X21291936Y-67469711D01*
X21144265Y-67277262D01*
X21144260Y-67277256D01*
X20972743Y-67105739D01*
X20972736Y-67105733D01*
X20780293Y-66958067D01*
X20780292Y-66958066D01*
X20780289Y-66958064D01*
X20570212Y-66836776D01*
X20570205Y-66836773D01*
X20346104Y-66743947D01*
X20111785Y-66681161D01*
X19871289Y-66649500D01*
X19871288Y-66649500D01*
X19628712Y-66649500D01*
X19628711Y-66649500D01*
X19388214Y-66681161D01*
X19153895Y-66743947D01*
X18929794Y-66836773D01*
X18929785Y-66836777D01*
X18719706Y-66958067D01*
X18527263Y-67105733D01*
X18527256Y-67105739D01*
X18355739Y-67277256D01*
X18355733Y-67277263D01*
X18208067Y-67469706D01*
X18086777Y-67679785D01*
X18086773Y-67679794D01*
X17993947Y-67903895D01*
X17931161Y-68138214D01*
X17899500Y-68378711D01*
X16126674Y-68378711D01*
X16126015Y-68374549D01*
X16057895Y-68164894D01*
X16057895Y-68164893D01*
X16023237Y-68096875D01*
X15957815Y-67968478D01*
X15922755Y-67920222D01*
X15828247Y-67790141D01*
X15828243Y-67790136D01*
X15672363Y-67634256D01*
X15672358Y-67634252D01*
X15494025Y-67504687D01*
X15494024Y-67504686D01*
X15494022Y-67504685D01*
X15425373Y-67469706D01*
X15297606Y-67404604D01*
X15297603Y-67404603D01*
X15087952Y-67336485D01*
X14979086Y-67319242D01*
X14870222Y-67302000D01*
X14649778Y-67302000D01*
X14577201Y-67313495D01*
X14432047Y-67336485D01*
X14222396Y-67404603D01*
X14222393Y-67404604D01*
X14025974Y-67504687D01*
X13847641Y-67634252D01*
X13847636Y-67634256D01*
X13833712Y-67648181D01*
X13772389Y-67681666D01*
X13746031Y-67684500D01*
X9393546Y-67684500D01*
X9393541Y-67684499D01*
X9196460Y-67684499D01*
X9187055Y-67686369D01*
X9175387Y-67686472D01*
X9152540Y-67679980D01*
X9128884Y-67677861D01*
X9119548Y-67670606D01*
X9108177Y-67667376D01*
X9092467Y-67649564D01*
X9073712Y-67634991D01*
X9068537Y-67622432D01*
X9061961Y-67614976D01*
X9059896Y-67601462D01*
X9051826Y-67581875D01*
X9050500Y-67573507D01*
X9036015Y-67482049D01*
X8988719Y-67336485D01*
X8967896Y-67272396D01*
X8967895Y-67272393D01*
X8933237Y-67204375D01*
X8867815Y-67075978D01*
X8839681Y-67037254D01*
X8738247Y-66897641D01*
X8738243Y-66897636D01*
X8582363Y-66741756D01*
X8582358Y-66741752D01*
X8442745Y-66640318D01*
X8400079Y-66584989D01*
X8394100Y-66515375D01*
X8426705Y-66453580D01*
X8442745Y-66439682D01*
X8582358Y-66338247D01*
X8582356Y-66338247D01*
X8582365Y-66338242D01*
X8738242Y-66182365D01*
X8867815Y-66004022D01*
X8967895Y-65807606D01*
X9036015Y-65597951D01*
X9070500Y-65380222D01*
X9070500Y-65159778D01*
X9036015Y-64942049D01*
X8969442Y-64737155D01*
X8967896Y-64732396D01*
X8967895Y-64732393D01*
X8933237Y-64664375D01*
X8867815Y-64535978D01*
X8839681Y-64497254D01*
X8738247Y-64357641D01*
X8738243Y-64357636D01*
X8582363Y-64201756D01*
X8582358Y-64201752D01*
X8442319Y-64100008D01*
X8399653Y-64044678D01*
X8393674Y-63975065D01*
X8426279Y-63913270D01*
X8442319Y-63899372D01*
X8467513Y-63881066D01*
X8467514Y-63881066D01*
X7840244Y-63253797D01*
X7882297Y-63242530D01*
X8007715Y-63170119D01*
X8110119Y-63067715D01*
X8182530Y-62942297D01*
X8193797Y-62900244D01*
X8821066Y-63527514D01*
X8821066Y-63527513D01*
X8867386Y-63463760D01*
X8967432Y-63267410D01*
X9035526Y-63057835D01*
X9070000Y-62840181D01*
X9070000Y-62619818D01*
X9035526Y-62402164D01*
X8967432Y-62192589D01*
X8867388Y-61996243D01*
X8821066Y-61932485D01*
X8821065Y-61932485D01*
X8193797Y-62559754D01*
X8182530Y-62517703D01*
X8110119Y-62392285D01*
X8007715Y-62289881D01*
X7882297Y-62217470D01*
X7840243Y-62206201D01*
X8467513Y-61578932D01*
X8467513Y-61578931D01*
X8441893Y-61560317D01*
X8399227Y-61504987D01*
X8393248Y-61435374D01*
X8425854Y-61373579D01*
X8441893Y-61359680D01*
X8467513Y-61341065D01*
X7840244Y-60713797D01*
X7882297Y-60702530D01*
X8007715Y-60630119D01*
X8110119Y-60527715D01*
X8182530Y-60402297D01*
X8193797Y-60360244D01*
X8821066Y-60987514D01*
X8821066Y-60987513D01*
X8867386Y-60923760D01*
X8967432Y-60727410D01*
X9035526Y-60517835D01*
X9070000Y-60300181D01*
X9070000Y-60079818D01*
X9035526Y-59862164D01*
X8967432Y-59652589D01*
X8867388Y-59456243D01*
X8821066Y-59392485D01*
X8821065Y-59392485D01*
X8193797Y-60019754D01*
X8182530Y-59977703D01*
X8110119Y-59852285D01*
X8007715Y-59749881D01*
X7882297Y-59677470D01*
X7840243Y-59666201D01*
X8467513Y-59038932D01*
X8467513Y-59038931D01*
X8441893Y-59020317D01*
X8399227Y-58964987D01*
X8393248Y-58895374D01*
X8425854Y-58833579D01*
X8441893Y-58819680D01*
X8467513Y-58801065D01*
X7840244Y-58173797D01*
X7882297Y-58162530D01*
X8007715Y-58090119D01*
X8110119Y-57987715D01*
X8182530Y-57862297D01*
X8193797Y-57820244D01*
X8821066Y-58447514D01*
X8821066Y-58447513D01*
X8867386Y-58383760D01*
X8967432Y-58187410D01*
X9035526Y-57977835D01*
X9070000Y-57760181D01*
X9070000Y-57539818D01*
X9035526Y-57322164D01*
X8967432Y-57112589D01*
X8867388Y-56916243D01*
X8821066Y-56852485D01*
X8821065Y-56852485D01*
X8193797Y-57479754D01*
X8182530Y-57437703D01*
X8110119Y-57312285D01*
X8007715Y-57209881D01*
X7882297Y-57137470D01*
X7840243Y-57126201D01*
X8467513Y-56498932D01*
X8442319Y-56480628D01*
X8399653Y-56425298D01*
X8393674Y-56355685D01*
X8426279Y-56293889D01*
X8442313Y-56279994D01*
X8582365Y-56178242D01*
X8738242Y-56022365D01*
X8867815Y-55844022D01*
X8967895Y-55647606D01*
X9036015Y-55437951D01*
X9070500Y-55220222D01*
X9070500Y-54999778D01*
X9036015Y-54782049D01*
X9000169Y-54671725D01*
X8966390Y-54567761D01*
X8967973Y-54567246D01*
X8961279Y-54504987D01*
X8992552Y-54442507D01*
X9052640Y-54406853D01*
X9083309Y-54403000D01*
X11428531Y-54403000D01*
X11495570Y-54422685D01*
X11516212Y-54439319D01*
X11547636Y-54470743D01*
X11547641Y-54470747D01*
X11680462Y-54567246D01*
X11725978Y-54600315D01*
X11854375Y-54665737D01*
X11922393Y-54700395D01*
X11922396Y-54700396D01*
X12027221Y-54734455D01*
X12132049Y-54768515D01*
X12349778Y-54803000D01*
X12349779Y-54803000D01*
X12570221Y-54803000D01*
X12570222Y-54803000D01*
X12787951Y-54768515D01*
X12997606Y-54700395D01*
X13194022Y-54600315D01*
X13372365Y-54470742D01*
X13528242Y-54314865D01*
X13657815Y-54136522D01*
X13757895Y-53940106D01*
X13826015Y-53730451D01*
X13860500Y-53512722D01*
X13860500Y-53292278D01*
X13826015Y-53074549D01*
X13757895Y-52864894D01*
X13757895Y-52864893D01*
X13709478Y-52769871D01*
X13657815Y-52668478D01*
X13600370Y-52589411D01*
X13528247Y-52490141D01*
X13528243Y-52490136D01*
X13372363Y-52334256D01*
X13372358Y-52334252D01*
X13194025Y-52204687D01*
X13194024Y-52204686D01*
X13194022Y-52204685D01*
X13130748Y-52172445D01*
X12997606Y-52104604D01*
X12997603Y-52104603D01*
X12787952Y-52036485D01*
X12653848Y-52015245D01*
X12590713Y-51985316D01*
X12553782Y-51926004D01*
X12554780Y-51856142D01*
X12585563Y-51805093D01*
X13144114Y-51246543D01*
X13220775Y-51131811D01*
X13273580Y-51004328D01*
X13295957Y-50891835D01*
X13300500Y-50868996D01*
X13300500Y-20852155D01*
X13640000Y-20852155D01*
X13640000Y-21750000D01*
X14585880Y-21750000D01*
X14566902Y-21795818D01*
X14540001Y-21931056D01*
X14540001Y-22068944D01*
X14566902Y-22204182D01*
X14585880Y-22250000D01*
X13640000Y-22250000D01*
X13640000Y-23147844D01*
X13646401Y-23207372D01*
X13646403Y-23207379D01*
X13696645Y-23342086D01*
X13696649Y-23342093D01*
X13782809Y-23457187D01*
X13782812Y-23457190D01*
X13897906Y-23543350D01*
X13897913Y-23543354D01*
X14032620Y-23593596D01*
X14032627Y-23593598D01*
X14092155Y-23599999D01*
X14092172Y-23600000D01*
X14990000Y-23600000D01*
X14990000Y-22654119D01*
X15035818Y-22673098D01*
X15171056Y-22699999D01*
X15308944Y-22699999D01*
X15444182Y-22673098D01*
X15490000Y-22654119D01*
X15490000Y-23600000D01*
X16387828Y-23600000D01*
X16387844Y-23599999D01*
X16447372Y-23593598D01*
X16447379Y-23593596D01*
X16582086Y-23543354D01*
X16582093Y-23543350D01*
X16697187Y-23457190D01*
X16697190Y-23457187D01*
X16783350Y-23342093D01*
X16783354Y-23342086D01*
X16833596Y-23207379D01*
X16833598Y-23207372D01*
X16839999Y-23147844D01*
X16840000Y-23147827D01*
X16840000Y-22250000D01*
X15894120Y-22250000D01*
X15913098Y-22204182D01*
X15939999Y-22068944D01*
X15939999Y-21931056D01*
X15913098Y-21795818D01*
X15894120Y-21750000D01*
X16840000Y-21750000D01*
X16840000Y-20852172D01*
X16839999Y-20852155D01*
X16833598Y-20792627D01*
X16833596Y-20792620D01*
X16783354Y-20657913D01*
X16783350Y-20657906D01*
X16697190Y-20542812D01*
X16697187Y-20542809D01*
X16582093Y-20456649D01*
X16582086Y-20456645D01*
X16447379Y-20406403D01*
X16447372Y-20406401D01*
X16387844Y-20400000D01*
X15490000Y-20400000D01*
X15490000Y-21345880D01*
X15444182Y-21326902D01*
X15308944Y-21300001D01*
X15171056Y-21300001D01*
X15035818Y-21326902D01*
X14990000Y-21345880D01*
X14990000Y-20400000D01*
X14092155Y-20400000D01*
X14032627Y-20406401D01*
X14032620Y-20406403D01*
X13897913Y-20456645D01*
X13897906Y-20456649D01*
X13782812Y-20542809D01*
X13782809Y-20542812D01*
X13696649Y-20657906D01*
X13696645Y-20657913D01*
X13646403Y-20792620D01*
X13646401Y-20792627D01*
X13640000Y-20852155D01*
X13300500Y-20852155D01*
X13300500Y-19824500D01*
X13320185Y-19757461D01*
X13372989Y-19711706D01*
X13424500Y-19700500D01*
X16832658Y-19700500D01*
X16923702Y-19682389D01*
X16967990Y-19673580D01*
X17031731Y-19647177D01*
X17095469Y-19620777D01*
X17095470Y-19620776D01*
X17095473Y-19620775D01*
X17210205Y-19544114D01*
X17859540Y-18894779D01*
X17869429Y-18889378D01*
X17876500Y-18880605D01*
X17899545Y-18872934D01*
X17920863Y-18861294D01*
X17932101Y-18862097D01*
X17942793Y-18858539D01*
X17966327Y-18864545D01*
X17990554Y-18866278D01*
X17999574Y-18873030D01*
X18010493Y-18875817D01*
X18027043Y-18893593D01*
X18046488Y-18908149D01*
X18050426Y-18918707D01*
X18058104Y-18926954D01*
X18062417Y-18950856D01*
X18070905Y-18973614D01*
X18068831Y-18986407D01*
X18070511Y-18995713D01*
X18061783Y-19029911D01*
X18042609Y-19076203D01*
X18042608Y-19076204D01*
X17989115Y-19205349D01*
X17989111Y-19205361D01*
X17987948Y-19208166D01*
X17949500Y-19401456D01*
X17949500Y-34234218D01*
X17929815Y-34301257D01*
X17913181Y-34321899D01*
X17271899Y-34963181D01*
X17251196Y-34974485D01*
X17233003Y-34989500D01*
X17218108Y-34992553D01*
X17210576Y-34996666D01*
X17198909Y-34998627D01*
X17191592Y-34999500D01*
X17139778Y-34999500D01*
X16981537Y-35024562D01*
X16979190Y-35024843D01*
X16946979Y-35019418D01*
X16914603Y-35015234D01*
X16912718Y-35013647D01*
X16910291Y-35013239D01*
X16886140Y-34991274D01*
X16861151Y-34970238D01*
X16860423Y-34967884D01*
X16858602Y-34966228D01*
X16850158Y-34934683D01*
X16840512Y-34903486D01*
X16840499Y-34901716D01*
X16840499Y-32852129D01*
X16840498Y-32852123D01*
X16840497Y-32852116D01*
X16834091Y-32792517D01*
X16829124Y-32779201D01*
X16783797Y-32657671D01*
X16783793Y-32657664D01*
X16697547Y-32542455D01*
X16697544Y-32542452D01*
X16582335Y-32456206D01*
X16582328Y-32456202D01*
X16447482Y-32405908D01*
X16447483Y-32405908D01*
X16387883Y-32399501D01*
X16387881Y-32399500D01*
X16387873Y-32399500D01*
X16387864Y-32399500D01*
X14092129Y-32399500D01*
X14092123Y-32399501D01*
X14032516Y-32405908D01*
X13897671Y-32456202D01*
X13897664Y-32456206D01*
X13782455Y-32542452D01*
X13782452Y-32542455D01*
X13696206Y-32657664D01*
X13696202Y-32657671D01*
X13645908Y-32792517D01*
X13639501Y-32852116D01*
X13639501Y-32852123D01*
X13639500Y-32852135D01*
X13639500Y-35147870D01*
X13639501Y-35147876D01*
X13645908Y-35207483D01*
X13696202Y-35342328D01*
X13696206Y-35342335D01*
X13782452Y-35457544D01*
X13782455Y-35457547D01*
X13897664Y-35543793D01*
X13897671Y-35543797D01*
X13963212Y-35568242D01*
X14018833Y-35588987D01*
X14074766Y-35630858D01*
X14099184Y-35696322D01*
X14099500Y-35705169D01*
X14099500Y-40798541D01*
X14099500Y-40798543D01*
X14099499Y-40798543D01*
X14137947Y-40991829D01*
X14137950Y-40991839D01*
X14213364Y-41173907D01*
X14213371Y-41173920D01*
X14322860Y-41337781D01*
X14322863Y-41337785D01*
X14462214Y-41477136D01*
X14462218Y-41477139D01*
X14626079Y-41586628D01*
X14626092Y-41586635D01*
X14808160Y-41662049D01*
X14808165Y-41662051D01*
X14808169Y-41662051D01*
X14808170Y-41662052D01*
X15001456Y-41700500D01*
X16211010Y-41700500D01*
X16278049Y-41720185D01*
X16323804Y-41772989D01*
X16333748Y-41842147D01*
X16304723Y-41905703D01*
X16298691Y-41912181D01*
X16230375Y-41980496D01*
X16230372Y-41980500D01*
X16137299Y-42119792D01*
X16137292Y-42119805D01*
X16091962Y-42229245D01*
X16073185Y-42274575D01*
X16073182Y-42274587D01*
X16040500Y-42438890D01*
X16040500Y-44275500D01*
X16020815Y-44342539D01*
X15968011Y-44388294D01*
X15916500Y-44399500D01*
X14092129Y-44399500D01*
X14092123Y-44399501D01*
X14032516Y-44405908D01*
X13897671Y-44456202D01*
X13897664Y-44456206D01*
X13782455Y-44542452D01*
X13782452Y-44542455D01*
X13696206Y-44657664D01*
X13696202Y-44657671D01*
X13645908Y-44792517D01*
X13639501Y-44852116D01*
X13639500Y-44852127D01*
X13639500Y-47147870D01*
X13639501Y-47147876D01*
X13645908Y-47207483D01*
X13696202Y-47342328D01*
X13696206Y-47342335D01*
X13782452Y-47457544D01*
X13782455Y-47457547D01*
X13897664Y-47543793D01*
X13897671Y-47543797D01*
X14032517Y-47594091D01*
X14032516Y-47594091D01*
X14039444Y-47594835D01*
X14092127Y-47600500D01*
X15916500Y-47600499D01*
X15983539Y-47620184D01*
X16029294Y-47672987D01*
X16040500Y-47724499D01*
X16040500Y-53867848D01*
X16020815Y-53934887D01*
X16004181Y-53955529D01*
X14099375Y-55860334D01*
X14099372Y-55860338D01*
X14006297Y-55999633D01*
X13979266Y-56064894D01*
X13942185Y-56154413D01*
X13942182Y-56154425D01*
X13909500Y-56318728D01*
X13909500Y-60726129D01*
X13889815Y-60793168D01*
X13858388Y-60826445D01*
X13847638Y-60834255D01*
X13847632Y-60834260D01*
X13691756Y-60990136D01*
X13691752Y-60990141D01*
X13562187Y-61168474D01*
X13462104Y-61364893D01*
X13462103Y-61364896D01*
X13393985Y-61574547D01*
X13370495Y-61722860D01*
X13359500Y-61792278D01*
X13359500Y-62012722D01*
X13376742Y-62121586D01*
X13393985Y-62230452D01*
X13462103Y-62440103D01*
X13462104Y-62440106D01*
X13562187Y-62636525D01*
X13691752Y-62814858D01*
X13691756Y-62814863D01*
X13847636Y-62970743D01*
X13847641Y-62970747D01*
X13978308Y-63065681D01*
X14025978Y-63100315D01*
X14154375Y-63165737D01*
X14222393Y-63200395D01*
X14222396Y-63200396D01*
X14327221Y-63234455D01*
X14432049Y-63268515D01*
X14649778Y-63303000D01*
X14649779Y-63303000D01*
X14870221Y-63303000D01*
X14870222Y-63303000D01*
X15087951Y-63268515D01*
X15297606Y-63200395D01*
X15494022Y-63100315D01*
X15672365Y-62970742D01*
X15828242Y-62814865D01*
X15957815Y-62636522D01*
X16057895Y-62440106D01*
X16126015Y-62230451D01*
X16160500Y-62012722D01*
X16160500Y-61792278D01*
X16126015Y-61574549D01*
X16078078Y-61427011D01*
X16057896Y-61364896D01*
X16057895Y-61364893D01*
X16008766Y-61268474D01*
X15957815Y-61168478D01*
X15900896Y-61090135D01*
X15828247Y-60990141D01*
X15828243Y-60990136D01*
X15672367Y-60834260D01*
X15672361Y-60834255D01*
X15661612Y-60826445D01*
X15618948Y-60771114D01*
X15610500Y-60726129D01*
X15610500Y-56806150D01*
X15630185Y-56739111D01*
X15646819Y-56718469D01*
X17551620Y-54813668D01*
X17551626Y-54813662D01*
X17644704Y-54674363D01*
X17708816Y-54519581D01*
X17716787Y-54479511D01*
X17741499Y-54355271D01*
X17741500Y-54355268D01*
X17741500Y-42926312D01*
X17761185Y-42859273D01*
X17777819Y-42838631D01*
X18287819Y-42328631D01*
X18349142Y-42295146D01*
X18418834Y-42300130D01*
X18474767Y-42342002D01*
X18499184Y-42407466D01*
X18499500Y-42416312D01*
X18499500Y-62401459D01*
X18499500Y-62598541D01*
X18499500Y-62598543D01*
X18499499Y-62598543D01*
X18537947Y-62791829D01*
X18537950Y-62791839D01*
X18613364Y-62973907D01*
X18613371Y-62973920D01*
X18722860Y-63137781D01*
X18722863Y-63137785D01*
X18862214Y-63277136D01*
X18862218Y-63277139D01*
X19026079Y-63386628D01*
X19026092Y-63386635D01*
X19201347Y-63459227D01*
X19208165Y-63462051D01*
X19208169Y-63462051D01*
X19208170Y-63462052D01*
X19401456Y-63500500D01*
X19401459Y-63500500D01*
X21034218Y-63500500D01*
X21101257Y-63520185D01*
X21121899Y-63536819D01*
X23713181Y-66128101D01*
X23746666Y-66189424D01*
X23749500Y-66215782D01*
X23749500Y-69784217D01*
X23729815Y-69851256D01*
X23713181Y-69871898D01*
X20811899Y-72773181D01*
X20750576Y-72806666D01*
X20724218Y-72809500D01*
X18901457Y-72809500D01*
X18708170Y-72847947D01*
X18708160Y-72847950D01*
X18526092Y-72923364D01*
X18526079Y-72923371D01*
X18362218Y-73032860D01*
X18362214Y-73032863D01*
X18222863Y-73172214D01*
X18222860Y-73172218D01*
X18113371Y-73336079D01*
X18113364Y-73336092D01*
X18037950Y-73518160D01*
X18037947Y-73518170D01*
X17999500Y-73711456D01*
X17999500Y-92234217D01*
X17979815Y-92301256D01*
X17963181Y-92321898D01*
X16622863Y-93662215D01*
X16622860Y-93662219D01*
X16513372Y-93826079D01*
X16513367Y-93826089D01*
X16437949Y-94008163D01*
X16437947Y-94008171D01*
X16399500Y-94201455D01*
X16399500Y-94398544D01*
X16437947Y-94591828D01*
X16437949Y-94591836D01*
X16513367Y-94773910D01*
X16513372Y-94773920D01*
X16622860Y-94937780D01*
X16622863Y-94937784D01*
X16762215Y-95077136D01*
X16762219Y-95077139D01*
X16926079Y-95186627D01*
X16926083Y-95186629D01*
X16926086Y-95186631D01*
X17108164Y-95262051D01*
X17287962Y-95297815D01*
X17301455Y-95300499D01*
X17301458Y-95300500D01*
X17301460Y-95300500D01*
X17498542Y-95300500D01*
X17498543Y-95300499D01*
X17691836Y-95262051D01*
X17873914Y-95186631D01*
X18037781Y-95077139D01*
X19777140Y-93337781D01*
X19886632Y-93173914D01*
X19962052Y-92991835D01*
X20000500Y-92798540D01*
X20000500Y-92601460D01*
X20000500Y-89878711D01*
X64899500Y-89878711D01*
X64899500Y-90121288D01*
X64931161Y-90361785D01*
X64993947Y-90596104D01*
X65073124Y-90787254D01*
X65086776Y-90820212D01*
X65208064Y-91030289D01*
X65208066Y-91030292D01*
X65208067Y-91030293D01*
X65355733Y-91222736D01*
X65355739Y-91222743D01*
X65527256Y-91394260D01*
X65527262Y-91394265D01*
X65719711Y-91541936D01*
X65929788Y-91663224D01*
X66153900Y-91756054D01*
X66388211Y-91818838D01*
X66568586Y-91842584D01*
X66628711Y-91850500D01*
X66628712Y-91850500D01*
X66871289Y-91850500D01*
X66919388Y-91844167D01*
X67111789Y-91818838D01*
X67346100Y-91756054D01*
X67570212Y-91663224D01*
X67780289Y-91541936D01*
X67972738Y-91394265D01*
X68144265Y-91222738D01*
X68291936Y-91030289D01*
X68413224Y-90820212D01*
X68506054Y-90596100D01*
X68568838Y-90361789D01*
X68600500Y-90121288D01*
X68600500Y-89878712D01*
X68568838Y-89638211D01*
X68506054Y-89403900D01*
X68413224Y-89179788D01*
X68291936Y-88969711D01*
X68231018Y-88890321D01*
X68144266Y-88777263D01*
X68144260Y-88777256D01*
X67972743Y-88605739D01*
X67972736Y-88605733D01*
X67780293Y-88458067D01*
X67780292Y-88458066D01*
X67780289Y-88458064D01*
X67570212Y-88336776D01*
X67570205Y-88336773D01*
X67346104Y-88243947D01*
X67111785Y-88181161D01*
X66871289Y-88149500D01*
X66871288Y-88149500D01*
X66628712Y-88149500D01*
X66628711Y-88149500D01*
X66388214Y-88181161D01*
X66153895Y-88243947D01*
X65929794Y-88336773D01*
X65929785Y-88336777D01*
X65719706Y-88458067D01*
X65527263Y-88605733D01*
X65527256Y-88605739D01*
X65355739Y-88777256D01*
X65355733Y-88777263D01*
X65208067Y-88969706D01*
X65086777Y-89179785D01*
X65086773Y-89179794D01*
X64993947Y-89403895D01*
X64931161Y-89638214D01*
X64899500Y-89878711D01*
X20000500Y-89878711D01*
X20000500Y-74934500D01*
X20020185Y-74867461D01*
X20072989Y-74821706D01*
X20124500Y-74810500D01*
X21288542Y-74810500D01*
X21319566Y-74804328D01*
X21385188Y-74791275D01*
X21481836Y-74772051D01*
X21535165Y-74749961D01*
X21663914Y-74696632D01*
X21827782Y-74587139D01*
X21967139Y-74447782D01*
X21967139Y-74447780D01*
X21977347Y-74437573D01*
X21977348Y-74437570D01*
X25527139Y-70887782D01*
X25569814Y-70823914D01*
X25636632Y-70723914D01*
X25712051Y-70541835D01*
X25712052Y-70541830D01*
X25713629Y-70533909D01*
X25750499Y-70348544D01*
X25750500Y-70348541D01*
X25750500Y-65651456D01*
X25712052Y-65458170D01*
X25712051Y-65458169D01*
X25712051Y-65458165D01*
X25679766Y-65380221D01*
X25636635Y-65276092D01*
X25636628Y-65276079D01*
X25527139Y-65112218D01*
X25527136Y-65112214D01*
X25384686Y-64969764D01*
X25384655Y-64969735D01*
X24565963Y-64151043D01*
X30309499Y-64151043D01*
X30347947Y-64344329D01*
X30347950Y-64344339D01*
X30423364Y-64526407D01*
X30423371Y-64526420D01*
X30532860Y-64690281D01*
X30532863Y-64690285D01*
X30672214Y-64829636D01*
X30672218Y-64829639D01*
X30836079Y-64939128D01*
X30836092Y-64939135D01*
X31018160Y-65014549D01*
X31018165Y-65014551D01*
X31018169Y-65014551D01*
X31018170Y-65014552D01*
X31211456Y-65053000D01*
X31211459Y-65053000D01*
X31408541Y-65053000D01*
X32435500Y-65053000D01*
X32502539Y-65072685D01*
X32548294Y-65125489D01*
X32559500Y-65177000D01*
X32559500Y-87308541D01*
X32559500Y-87308543D01*
X32559499Y-87308543D01*
X32597947Y-87501829D01*
X32597950Y-87501839D01*
X32673364Y-87683907D01*
X32673371Y-87683920D01*
X32782859Y-87847780D01*
X32782860Y-87847781D01*
X32782861Y-87847782D01*
X32813181Y-87878102D01*
X32846666Y-87939423D01*
X32849500Y-87965783D01*
X32849500Y-88010221D01*
X32883985Y-88227952D01*
X32952103Y-88437603D01*
X32952104Y-88437606D01*
X33052187Y-88634025D01*
X33181752Y-88812358D01*
X33181756Y-88812363D01*
X33337636Y-88968243D01*
X33337641Y-88968247D01*
X33493192Y-89081260D01*
X33515978Y-89097815D01*
X33644375Y-89163237D01*
X33712393Y-89197895D01*
X33712396Y-89197896D01*
X33817221Y-89231955D01*
X33922049Y-89266015D01*
X34139778Y-89300500D01*
X34139779Y-89300500D01*
X34360221Y-89300500D01*
X34360222Y-89300500D01*
X34577951Y-89266015D01*
X34787606Y-89197895D01*
X34984022Y-89097815D01*
X35162365Y-88968242D01*
X35318242Y-88812365D01*
X35447815Y-88634022D01*
X35547895Y-88437606D01*
X35616015Y-88227951D01*
X35650500Y-88010222D01*
X35650500Y-87789778D01*
X35616015Y-87572049D01*
X35547895Y-87362394D01*
X35547895Y-87362393D01*
X35504646Y-87277514D01*
X35447815Y-87165978D01*
X35339875Y-87017410D01*
X35318247Y-86987641D01*
X35318243Y-86987636D01*
X35162363Y-86831756D01*
X35162358Y-86831752D01*
X34984025Y-86702187D01*
X34984024Y-86702186D01*
X34984022Y-86702185D01*
X34921096Y-86670122D01*
X34787606Y-86602104D01*
X34787603Y-86602103D01*
X34646182Y-86556153D01*
X34588506Y-86516715D01*
X34561308Y-86452357D01*
X34560500Y-86438222D01*
X34560500Y-63953956D01*
X34522052Y-63760670D01*
X34522051Y-63760669D01*
X34522051Y-63760665D01*
X34484010Y-63668824D01*
X34446635Y-63578592D01*
X34446628Y-63578579D01*
X34337139Y-63414718D01*
X34337136Y-63414714D01*
X34197785Y-63275363D01*
X34197781Y-63275360D01*
X34033920Y-63165871D01*
X34033907Y-63165864D01*
X33851839Y-63090450D01*
X33851829Y-63090447D01*
X33658543Y-63052000D01*
X33658541Y-63052000D01*
X32434500Y-63052000D01*
X32367461Y-63032315D01*
X32321706Y-62979511D01*
X32310500Y-62928000D01*
X32310500Y-61892278D01*
X45059500Y-61892278D01*
X45059500Y-62112721D01*
X45093985Y-62330452D01*
X45162103Y-62540103D01*
X45162104Y-62540106D01*
X45206930Y-62628080D01*
X45258861Y-62729999D01*
X45262187Y-62736525D01*
X45391752Y-62914858D01*
X45391756Y-62914863D01*
X45499401Y-63022508D01*
X45526281Y-63062736D01*
X45573366Y-63176411D01*
X45573371Y-63176420D01*
X45682860Y-63340281D01*
X45682863Y-63340285D01*
X45826537Y-63483959D01*
X45826559Y-63483979D01*
X47079735Y-64737155D01*
X47079764Y-64737186D01*
X47222214Y-64879636D01*
X47222218Y-64879639D01*
X47386079Y-64989128D01*
X47386092Y-64989135D01*
X47514833Y-65042461D01*
X47540277Y-65053000D01*
X47568164Y-65064551D01*
X47664812Y-65083775D01*
X47713135Y-65093387D01*
X47761458Y-65103000D01*
X47761459Y-65103000D01*
X64996042Y-65103000D01*
X65027066Y-65096828D01*
X65092688Y-65083775D01*
X65189336Y-65064551D01*
X65242665Y-65042461D01*
X65371414Y-64989132D01*
X65535282Y-64879639D01*
X65674639Y-64740282D01*
X65674640Y-64740279D01*
X65681706Y-64733214D01*
X65681709Y-64733210D01*
X66030595Y-64384323D01*
X66091916Y-64350840D01*
X66159228Y-64354964D01*
X66166879Y-64357641D01*
X66306682Y-64406560D01*
X66580491Y-64469055D01*
X66580497Y-64469055D01*
X66580505Y-64469057D01*
X66766547Y-64490018D01*
X66859569Y-64500499D01*
X66859572Y-64500500D01*
X66859575Y-64500500D01*
X67140428Y-64500500D01*
X67140429Y-64500499D01*
X67283055Y-64484429D01*
X67419494Y-64469057D01*
X67419499Y-64469056D01*
X67419509Y-64469055D01*
X67693318Y-64406560D01*
X67958408Y-64313801D01*
X68211445Y-64191945D01*
X68449248Y-64042523D01*
X68668825Y-63867416D01*
X68867416Y-63668825D01*
X69042523Y-63449248D01*
X69191945Y-63211445D01*
X69313801Y-62958408D01*
X69406560Y-62693318D01*
X69469055Y-62419509D01*
X69471010Y-62402164D01*
X69490356Y-62230452D01*
X69500500Y-62140425D01*
X69500500Y-61859575D01*
X69479653Y-61674549D01*
X69469057Y-61580505D01*
X69469054Y-61580487D01*
X69430344Y-61410889D01*
X69406560Y-61306682D01*
X69393190Y-61268474D01*
X69330787Y-61090136D01*
X69313801Y-61041592D01*
X69191945Y-60788555D01*
X69042523Y-60550752D01*
X68867416Y-60331175D01*
X68668825Y-60132584D01*
X68449248Y-59957477D01*
X68281836Y-59852285D01*
X68211442Y-59808053D01*
X67958411Y-59686200D01*
X67693329Y-59593443D01*
X67693317Y-59593439D01*
X67419512Y-59530945D01*
X67419494Y-59530942D01*
X67140431Y-59499500D01*
X67140425Y-59499500D01*
X66859575Y-59499500D01*
X66859568Y-59499500D01*
X66580505Y-59530942D01*
X66580487Y-59530945D01*
X66306682Y-59593439D01*
X66306670Y-59593443D01*
X66041588Y-59686200D01*
X65788557Y-59808053D01*
X65550753Y-59957476D01*
X65331175Y-60132583D01*
X65132583Y-60331175D01*
X64957476Y-60550753D01*
X64808053Y-60788557D01*
X64686200Y-61041588D01*
X64593443Y-61306670D01*
X64593439Y-61306682D01*
X64530945Y-61580487D01*
X64530942Y-61580505D01*
X64499500Y-61859568D01*
X64499500Y-62140431D01*
X64530942Y-62419494D01*
X64530945Y-62419512D01*
X64593438Y-62693312D01*
X64593440Y-62693318D01*
X64645035Y-62840770D01*
X64645880Y-62857335D01*
X64651677Y-62872877D01*
X64647624Y-62891508D01*
X64648596Y-62910549D01*
X64640228Y-62925508D01*
X64636826Y-62941150D01*
X64615677Y-62969402D01*
X64519397Y-63065682D01*
X64458077Y-63099166D01*
X64431718Y-63102000D01*
X48325782Y-63102000D01*
X48258743Y-63082315D01*
X48238101Y-63065681D01*
X47800500Y-62628080D01*
X47767015Y-62566757D01*
X47770250Y-62502081D01*
X47797078Y-62419512D01*
X47826015Y-62330451D01*
X47860500Y-62112722D01*
X47860500Y-61892278D01*
X47826015Y-61674549D01*
X47784384Y-61546419D01*
X47757896Y-61464896D01*
X47757895Y-61464893D01*
X47706941Y-61364893D01*
X47657815Y-61268478D01*
X47585161Y-61168478D01*
X47528247Y-61090141D01*
X47528243Y-61090136D01*
X47372363Y-60934256D01*
X47372358Y-60934252D01*
X47194025Y-60804687D01*
X47194024Y-60804686D01*
X47194022Y-60804685D01*
X47128136Y-60771114D01*
X46997606Y-60704604D01*
X46997603Y-60704603D01*
X46787952Y-60636485D01*
X46679086Y-60619242D01*
X46570222Y-60602000D01*
X46349778Y-60602000D01*
X46277201Y-60613495D01*
X46132047Y-60636485D01*
X45922396Y-60704603D01*
X45922393Y-60704604D01*
X45725974Y-60804687D01*
X45547641Y-60934252D01*
X45547636Y-60934256D01*
X45391756Y-61090136D01*
X45391752Y-61090141D01*
X45262187Y-61268474D01*
X45162104Y-61464893D01*
X45162103Y-61464896D01*
X45093985Y-61674547D01*
X45059500Y-61892278D01*
X32310500Y-61892278D01*
X32310500Y-60677000D01*
X32330185Y-60609961D01*
X32382989Y-60564206D01*
X32434500Y-60553000D01*
X33658543Y-60553000D01*
X33835325Y-60517835D01*
X33851835Y-60514551D01*
X34033914Y-60439132D01*
X34197782Y-60329639D01*
X34337139Y-60190282D01*
X34446632Y-60026414D01*
X34522051Y-59844335D01*
X34540839Y-59749881D01*
X34560500Y-59651043D01*
X34560500Y-57668282D01*
X34580185Y-57601243D01*
X34596819Y-57580601D01*
X36253134Y-55924286D01*
X37920811Y-54256608D01*
X37970173Y-54226360D01*
X37982445Y-54222373D01*
X38136788Y-54143732D01*
X38276928Y-54041914D01*
X38399414Y-53919428D01*
X38501232Y-53779288D01*
X38579873Y-53624945D01*
X38633402Y-53460201D01*
X38660500Y-53289111D01*
X38660500Y-53115889D01*
X38633402Y-52944799D01*
X38579873Y-52780055D01*
X38501232Y-52625712D01*
X38399414Y-52485572D01*
X38276928Y-52363086D01*
X38136788Y-52261268D01*
X37982445Y-52182627D01*
X37817701Y-52129098D01*
X37817699Y-52129097D01*
X37817698Y-52129097D01*
X37663058Y-52104605D01*
X37646611Y-52102000D01*
X37473389Y-52102000D01*
X37456942Y-52104605D01*
X37302302Y-52129097D01*
X37137552Y-52182628D01*
X36983211Y-52261268D01*
X36929214Y-52300500D01*
X36843072Y-52363086D01*
X36843070Y-52363088D01*
X36843069Y-52363088D01*
X36720588Y-52485569D01*
X36720588Y-52485570D01*
X36720586Y-52485572D01*
X36705960Y-52505703D01*
X36618768Y-52625711D01*
X36540128Y-52780051D01*
X36540127Y-52780054D01*
X36536139Y-52792328D01*
X36505890Y-52841687D01*
X33818068Y-55529511D01*
X32922220Y-56425359D01*
X32922218Y-56425361D01*
X32880851Y-56466728D01*
X32782859Y-56564719D01*
X32673371Y-56728579D01*
X32673364Y-56728592D01*
X32627337Y-56839712D01*
X32627332Y-56839725D01*
X32625288Y-56844662D01*
X32597949Y-56910664D01*
X32587514Y-56963126D01*
X32586183Y-56969813D01*
X32586181Y-56969822D01*
X32559500Y-57103956D01*
X32559500Y-58428000D01*
X32539815Y-58495039D01*
X32487011Y-58540794D01*
X32435500Y-58552000D01*
X31211457Y-58552000D01*
X31018170Y-58590447D01*
X31018160Y-58590450D01*
X30836092Y-58665864D01*
X30836079Y-58665871D01*
X30672218Y-58775360D01*
X30672214Y-58775363D01*
X30532863Y-58914714D01*
X30532860Y-58914718D01*
X30423371Y-59078579D01*
X30423364Y-59078592D01*
X30347950Y-59260660D01*
X30347947Y-59260670D01*
X30309500Y-59453956D01*
X30309500Y-59453959D01*
X30309500Y-64151041D01*
X30309500Y-64151043D01*
X30309499Y-64151043D01*
X24565963Y-64151043D01*
X22281479Y-61866559D01*
X22281459Y-61866537D01*
X22137785Y-61722863D01*
X22137781Y-61722860D01*
X21973920Y-61613371D01*
X21973911Y-61613366D01*
X21894576Y-61580505D01*
X21845165Y-61560038D01*
X21791836Y-61537949D01*
X21791832Y-61537948D01*
X21791828Y-61537946D01*
X21695188Y-61518724D01*
X21598544Y-61499500D01*
X21598541Y-61499500D01*
X20624500Y-61499500D01*
X20557461Y-61479815D01*
X20511706Y-61427011D01*
X20500500Y-61375500D01*
X20500500Y-47392278D01*
X35059500Y-47392278D01*
X35059500Y-47612721D01*
X35093985Y-47830452D01*
X35162103Y-48040103D01*
X35162104Y-48040106D01*
X35262187Y-48236525D01*
X35391752Y-48414858D01*
X35391756Y-48414863D01*
X35547636Y-48570743D01*
X35547641Y-48570747D01*
X35687307Y-48672219D01*
X35725978Y-48700315D01*
X35854375Y-48765737D01*
X35922393Y-48800395D01*
X35922396Y-48800396D01*
X36027221Y-48834455D01*
X36132049Y-48868515D01*
X36349778Y-48903000D01*
X36349779Y-48903000D01*
X36570221Y-48903000D01*
X36570222Y-48903000D01*
X36787951Y-48868515D01*
X36945894Y-48817196D01*
X37015733Y-48815202D01*
X37075566Y-48851282D01*
X37084524Y-48862239D01*
X37160586Y-48966928D01*
X37283072Y-49089414D01*
X37388177Y-49165777D01*
X37423213Y-49191233D01*
X37462904Y-49211456D01*
X37577555Y-49269873D01*
X37589824Y-49273859D01*
X37639190Y-49304110D01*
X38023181Y-49688101D01*
X38056666Y-49749424D01*
X38059500Y-49775782D01*
X38059500Y-50698544D01*
X38093404Y-50868991D01*
X38097948Y-50891831D01*
X38097950Y-50891839D01*
X38173364Y-51073907D01*
X38173371Y-51073920D01*
X38282859Y-51237780D01*
X38282860Y-51237781D01*
X38282861Y-51237782D01*
X38422218Y-51377139D01*
X38422219Y-51377139D01*
X38429286Y-51384206D01*
X38429285Y-51384206D01*
X38429289Y-51384209D01*
X39155889Y-52110810D01*
X39186137Y-52160167D01*
X39190127Y-52172445D01*
X39268768Y-52326788D01*
X39370586Y-52466928D01*
X39493072Y-52589414D01*
X39633212Y-52691232D01*
X39787555Y-52769873D01*
X39952299Y-52823402D01*
X40123389Y-52850500D01*
X40123390Y-52850500D01*
X40296609Y-52850500D01*
X40296611Y-52850500D01*
X40366103Y-52839493D01*
X40435395Y-52848447D01*
X40488847Y-52893443D01*
X40509487Y-52960194D01*
X40509500Y-52961966D01*
X40509500Y-55486271D01*
X40542182Y-55650574D01*
X40542184Y-55650582D01*
X40606295Y-55805360D01*
X40699373Y-55944662D01*
X40817837Y-56063126D01*
X40893630Y-56113769D01*
X40957137Y-56156203D01*
X41111918Y-56220316D01*
X41276228Y-56252999D01*
X41276232Y-56253000D01*
X41276233Y-56253000D01*
X41443767Y-56253000D01*
X44835500Y-56253000D01*
X44902539Y-56272685D01*
X44948294Y-56325489D01*
X44959500Y-56377000D01*
X44959500Y-56401044D01*
X44997947Y-56594328D01*
X44997949Y-56594336D01*
X45073367Y-56776410D01*
X45073372Y-56776420D01*
X45182860Y-56940280D01*
X45182863Y-56940284D01*
X45479735Y-57237156D01*
X45479749Y-57237171D01*
X45622214Y-57379636D01*
X45622218Y-57379639D01*
X45786079Y-57489128D01*
X45786092Y-57489135D01*
X45914833Y-57542461D01*
X45957744Y-57560235D01*
X45968164Y-57564551D01*
X46064812Y-57583775D01*
X46113135Y-57593387D01*
X46161458Y-57603000D01*
X46161459Y-57603000D01*
X46161460Y-57603000D01*
X46358540Y-57603000D01*
X48468531Y-57603000D01*
X48535570Y-57622685D01*
X48556212Y-57639319D01*
X48587636Y-57670743D01*
X48587641Y-57670747D01*
X48658750Y-57722410D01*
X48765978Y-57800315D01*
X48887623Y-57862297D01*
X48962393Y-57900395D01*
X48962396Y-57900396D01*
X49067221Y-57934455D01*
X49172049Y-57968515D01*
X49389778Y-58003000D01*
X49389779Y-58003000D01*
X49610221Y-58003000D01*
X49610222Y-58003000D01*
X49827951Y-57968515D01*
X50037606Y-57900395D01*
X50234022Y-57800315D01*
X50412365Y-57670742D01*
X50568242Y-57514865D01*
X50697815Y-57336522D01*
X50797895Y-57140106D01*
X50866015Y-56930451D01*
X50900500Y-56712722D01*
X50900500Y-56492278D01*
X50866015Y-56274549D01*
X50810667Y-56104202D01*
X50797895Y-56064893D01*
X50736633Y-55944662D01*
X50697815Y-55868478D01*
X50651960Y-55805363D01*
X50568247Y-55690141D01*
X50568243Y-55690136D01*
X50412363Y-55534256D01*
X50412358Y-55534252D01*
X50234025Y-55404687D01*
X50234024Y-55404686D01*
X50234022Y-55404685D01*
X50171096Y-55372622D01*
X50037606Y-55304604D01*
X50037603Y-55304603D01*
X49827952Y-55236485D01*
X49719086Y-55219242D01*
X49610222Y-55202000D01*
X49389778Y-55202000D01*
X49317201Y-55213495D01*
X49172047Y-55236485D01*
X48962396Y-55304603D01*
X48962393Y-55304604D01*
X48765974Y-55404687D01*
X48587641Y-55534252D01*
X48587636Y-55534256D01*
X48556212Y-55565681D01*
X48494889Y-55599166D01*
X48468531Y-55602000D01*
X46934500Y-55602000D01*
X46867461Y-55582315D01*
X46821706Y-55529511D01*
X46810500Y-55478000D01*
X46810500Y-55318732D01*
X46810499Y-55318728D01*
X46790905Y-55220221D01*
X46777816Y-55154418D01*
X46728227Y-55034701D01*
X46713704Y-54999639D01*
X46620626Y-54860337D01*
X46502162Y-54741873D01*
X46362860Y-54648795D01*
X46208082Y-54584684D01*
X46208074Y-54584682D01*
X46043771Y-54552000D01*
X46043767Y-54552000D01*
X42334500Y-54552000D01*
X42267461Y-54532315D01*
X42221706Y-54479511D01*
X42210500Y-54428000D01*
X42210500Y-44318732D01*
X42210499Y-44318728D01*
X42177818Y-44154425D01*
X42177815Y-44154416D01*
X42156104Y-44102000D01*
X42113707Y-43999643D01*
X42113700Y-43999630D01*
X42020627Y-43860338D01*
X42020624Y-43860334D01*
X39746819Y-41586529D01*
X39713334Y-41525206D01*
X39710500Y-41498848D01*
X39710500Y-40306150D01*
X39730185Y-40239111D01*
X39746819Y-40218469D01*
X40875969Y-39089319D01*
X40937292Y-39055834D01*
X40963650Y-39053000D01*
X42643768Y-39053000D01*
X42643769Y-39052999D01*
X42808082Y-39020316D01*
X42962863Y-38956203D01*
X43102162Y-38863126D01*
X43220626Y-38744662D01*
X43313703Y-38605363D01*
X43377816Y-38450582D01*
X43410500Y-38286267D01*
X43410500Y-27177000D01*
X43430185Y-27109961D01*
X43482989Y-27064206D01*
X43534500Y-27053000D01*
X44485500Y-27053000D01*
X44552539Y-27072685D01*
X44598294Y-27125489D01*
X44609500Y-27177000D01*
X44609500Y-32043771D01*
X44642181Y-32208073D01*
X44642184Y-32208082D01*
X44706296Y-32362863D01*
X44706297Y-32362866D01*
X44799372Y-32502161D01*
X44799375Y-32502165D01*
X46566786Y-34269574D01*
X46600271Y-34330897D01*
X46601578Y-34376652D01*
X46599500Y-34389772D01*
X46599500Y-34389778D01*
X46599500Y-34610222D01*
X46600159Y-34614381D01*
X46633985Y-34827952D01*
X46702103Y-35037603D01*
X46702104Y-35037606D01*
X46758288Y-35147870D01*
X46795444Y-35220793D01*
X46802187Y-35234025D01*
X46931752Y-35412358D01*
X46931756Y-35412363D01*
X47087636Y-35568243D01*
X47087641Y-35568247D01*
X47229747Y-35671492D01*
X47265978Y-35697815D01*
X47374415Y-35753067D01*
X47462393Y-35797895D01*
X47462396Y-35797896D01*
X47567221Y-35831955D01*
X47672049Y-35866015D01*
X47889778Y-35900500D01*
X47889779Y-35900500D01*
X48110221Y-35900500D01*
X48110222Y-35900500D01*
X48327951Y-35866015D01*
X48537606Y-35797895D01*
X48734022Y-35697815D01*
X48912365Y-35568242D01*
X49068242Y-35412365D01*
X49197815Y-35234022D01*
X49297895Y-35037606D01*
X49366015Y-34827951D01*
X49400500Y-34610222D01*
X49400500Y-34389778D01*
X49366015Y-34172049D01*
X49297895Y-33962394D01*
X49297895Y-33962393D01*
X49226798Y-33822860D01*
X49197815Y-33765978D01*
X49141775Y-33688845D01*
X49068247Y-33587641D01*
X49068243Y-33587636D01*
X48912363Y-33431756D01*
X48912358Y-33431752D01*
X48734025Y-33302187D01*
X48734024Y-33302186D01*
X48734022Y-33302185D01*
X48671096Y-33270122D01*
X48537606Y-33202104D01*
X48537603Y-33202103D01*
X48327952Y-33133985D01*
X48185747Y-33111462D01*
X48110222Y-33099500D01*
X47889778Y-33099500D01*
X47889772Y-33099500D01*
X47876652Y-33101578D01*
X47807359Y-33092623D01*
X47769574Y-33066786D01*
X46346819Y-31644030D01*
X46313334Y-31582707D01*
X46310500Y-31556349D01*
X46310500Y-23315889D01*
X46559500Y-23315889D01*
X46559500Y-23489111D01*
X46586598Y-23660201D01*
X46640127Y-23824945D01*
X46718768Y-23979288D01*
X46820586Y-24119428D01*
X46943072Y-24241914D01*
X47083212Y-24343732D01*
X47237555Y-24422373D01*
X47402299Y-24475902D01*
X47573389Y-24503000D01*
X47573390Y-24503000D01*
X47746610Y-24503000D01*
X47746611Y-24503000D01*
X47917701Y-24475902D01*
X48082445Y-24422373D01*
X48236788Y-24343732D01*
X48376928Y-24241914D01*
X48499414Y-24119428D01*
X48601232Y-23979288D01*
X48679873Y-23824945D01*
X48733402Y-23660201D01*
X48760500Y-23489111D01*
X48760500Y-23315889D01*
X48733402Y-23144799D01*
X48679873Y-22980055D01*
X48679871Y-22980052D01*
X48679871Y-22980050D01*
X48674016Y-22968559D01*
X48660500Y-22912263D01*
X48660500Y-20827000D01*
X48680185Y-20759961D01*
X48732989Y-20714206D01*
X48784500Y-20703000D01*
X51478542Y-20703000D01*
X51491595Y-20700403D01*
X51575188Y-20683775D01*
X51671836Y-20664551D01*
X51738890Y-20636776D01*
X51853914Y-20589132D01*
X52017782Y-20479639D01*
X52157139Y-20340282D01*
X52157140Y-20340279D01*
X52164206Y-20333214D01*
X52164208Y-20333210D01*
X53908101Y-18589319D01*
X53969424Y-18555834D01*
X53995782Y-18553000D01*
X61064218Y-18553000D01*
X61131257Y-18572685D01*
X61151899Y-18589319D01*
X68842215Y-26279636D01*
X68842219Y-26279639D01*
X69006079Y-26389127D01*
X69006083Y-26389129D01*
X69006086Y-26389131D01*
X69188164Y-26464551D01*
X69221892Y-26471259D01*
X69253995Y-26482392D01*
X69327550Y-26519871D01*
X69327552Y-26519871D01*
X69327555Y-26519873D01*
X69492299Y-26573402D01*
X69663389Y-26600500D01*
X69663390Y-26600500D01*
X69836610Y-26600500D01*
X69836611Y-26600500D01*
X70007701Y-26573402D01*
X70172445Y-26519873D01*
X70326788Y-26441232D01*
X70466928Y-26339414D01*
X70589414Y-26216928D01*
X70691232Y-26076788D01*
X70769873Y-25922445D01*
X70823402Y-25757701D01*
X70850500Y-25586611D01*
X70850500Y-25413389D01*
X70823402Y-25242299D01*
X70769873Y-25077555D01*
X70691232Y-24923212D01*
X70589414Y-24783072D01*
X70466928Y-24660586D01*
X70326788Y-24558768D01*
X70172445Y-24480127D01*
X70007701Y-24426598D01*
X70007699Y-24426597D01*
X70007698Y-24426597D01*
X69836602Y-24399498D01*
X69833688Y-24399269D01*
X69832648Y-24398872D01*
X69831799Y-24398738D01*
X69831827Y-24398559D01*
X69768404Y-24374376D01*
X69755754Y-24363334D01*
X62311479Y-16919059D01*
X62311459Y-16919037D01*
X62167785Y-16775363D01*
X62167781Y-16775360D01*
X62003920Y-16665871D01*
X62003911Y-16665866D01*
X61931315Y-16635796D01*
X61875165Y-16612538D01*
X61821836Y-16590449D01*
X61821832Y-16590448D01*
X61821828Y-16590446D01*
X61725188Y-16571224D01*
X61628544Y-16552000D01*
X61628541Y-16552000D01*
X53431459Y-16552000D01*
X53431455Y-16552000D01*
X53334812Y-16571224D01*
X53238167Y-16590447D01*
X53238161Y-16590449D01*
X53184834Y-16612537D01*
X53184834Y-16612538D01*
X53139315Y-16631392D01*
X53056089Y-16665866D01*
X53056079Y-16665871D01*
X52892219Y-16775359D01*
X52854858Y-16812721D01*
X52752861Y-16914718D01*
X52752858Y-16914721D01*
X51001899Y-18665681D01*
X50940576Y-18699166D01*
X50914218Y-18702000D01*
X47561457Y-18702000D01*
X47368170Y-18740447D01*
X47368160Y-18740450D01*
X47186092Y-18815864D01*
X47186079Y-18815871D01*
X47022218Y-18925360D01*
X47022214Y-18925363D01*
X46882863Y-19064714D01*
X46882860Y-19064718D01*
X46773371Y-19228579D01*
X46773364Y-19228592D01*
X46697950Y-19410660D01*
X46697947Y-19410670D01*
X46659500Y-19603956D01*
X46659500Y-22912263D01*
X46645984Y-22968559D01*
X46640128Y-22980050D01*
X46586597Y-23144802D01*
X46576687Y-23207372D01*
X46559500Y-23315889D01*
X46310500Y-23315889D01*
X46310500Y-18726150D01*
X46330185Y-18659111D01*
X46346815Y-18638473D01*
X46849576Y-18135711D01*
X46910897Y-18102228D01*
X46956652Y-18100921D01*
X46969778Y-18103000D01*
X46969779Y-18103000D01*
X47190221Y-18103000D01*
X47190222Y-18103000D01*
X47407951Y-18068515D01*
X47617606Y-18000395D01*
X47814022Y-17900315D01*
X47992365Y-17770742D01*
X48148242Y-17614865D01*
X48277815Y-17436522D01*
X48377895Y-17240106D01*
X48446015Y-17030451D01*
X48480500Y-16812722D01*
X48480500Y-16592278D01*
X48446015Y-16374549D01*
X48401246Y-16236762D01*
X48377896Y-16164896D01*
X48377895Y-16164893D01*
X48343237Y-16096875D01*
X48277815Y-15968478D01*
X48261260Y-15945692D01*
X48148247Y-15790141D01*
X48148243Y-15790136D01*
X47992363Y-15634256D01*
X47992358Y-15634252D01*
X47814025Y-15504687D01*
X47814024Y-15504686D01*
X47814022Y-15504685D01*
X47751096Y-15472622D01*
X47617606Y-15404604D01*
X47617603Y-15404603D01*
X47407952Y-15336485D01*
X47299086Y-15319242D01*
X47190222Y-15302000D01*
X46969778Y-15302000D01*
X46897201Y-15313495D01*
X46752047Y-15336485D01*
X46542396Y-15404603D01*
X46542393Y-15404604D01*
X46345974Y-15504687D01*
X46167641Y-15634252D01*
X46167636Y-15634256D01*
X46011756Y-15790136D01*
X46011752Y-15790141D01*
X45882187Y-15968474D01*
X45782104Y-16164893D01*
X45782103Y-16164896D01*
X45713985Y-16374547D01*
X45679500Y-16592278D01*
X45679500Y-16812726D01*
X45681578Y-16825849D01*
X45672621Y-16895142D01*
X45646785Y-16932924D01*
X44799375Y-17780334D01*
X44799372Y-17780338D01*
X44706299Y-17919630D01*
X44706292Y-17919643D01*
X44662068Y-18026413D01*
X44662068Y-18026414D01*
X44642184Y-18074417D01*
X44642182Y-18074425D01*
X44609500Y-18238728D01*
X44609500Y-25228000D01*
X44589815Y-25295039D01*
X44537011Y-25340794D01*
X44485500Y-25352000D01*
X42476228Y-25352000D01*
X42311925Y-25384682D01*
X42311917Y-25384684D01*
X42157139Y-25448795D01*
X42017837Y-25541873D01*
X41899373Y-25660337D01*
X41806295Y-25799639D01*
X41742184Y-25954417D01*
X41742182Y-25954425D01*
X41709500Y-26118728D01*
X41709500Y-37228000D01*
X41689815Y-37295039D01*
X41637011Y-37340794D01*
X41585500Y-37352000D01*
X40476228Y-37352000D01*
X40311925Y-37384682D01*
X40311913Y-37384685D01*
X40273734Y-37400500D01*
X40157143Y-37448792D01*
X40157137Y-37448795D01*
X40157137Y-37448796D01*
X40128035Y-37468242D01*
X40017831Y-37541879D01*
X40017830Y-37541880D01*
X38199375Y-39360334D01*
X38199372Y-39360338D01*
X38106296Y-39499636D01*
X38106293Y-39499641D01*
X38093230Y-39531182D01*
X38093229Y-39531185D01*
X38042184Y-39654417D01*
X38042182Y-39654425D01*
X38009500Y-39818728D01*
X38009500Y-41986271D01*
X38042182Y-42150574D01*
X38042185Y-42150586D01*
X38059350Y-42192025D01*
X38059354Y-42192033D01*
X38060962Y-42195915D01*
X38106296Y-42305363D01*
X38142144Y-42359013D01*
X38145697Y-42366179D01*
X38150435Y-42393030D01*
X38158582Y-42419048D01*
X38156418Y-42426933D01*
X38157840Y-42434986D01*
X38147310Y-42460135D01*
X38140097Y-42486428D01*
X38134013Y-42491892D01*
X38130856Y-42499434D01*
X38108401Y-42514898D01*
X38088118Y-42533118D01*
X38080047Y-42534425D01*
X38073313Y-42539064D01*
X38046057Y-42539933D01*
X38019148Y-42544294D01*
X38005416Y-42541230D01*
X38003479Y-42541292D01*
X38002162Y-42540504D01*
X37996286Y-42539193D01*
X37987950Y-42536484D01*
X37804706Y-42507461D01*
X37770222Y-42502000D01*
X37549778Y-42502000D01*
X37477201Y-42513495D01*
X37332047Y-42536485D01*
X37122396Y-42604603D01*
X37122393Y-42604604D01*
X36925974Y-42704687D01*
X36747641Y-42834252D01*
X36747636Y-42834256D01*
X36591756Y-42990136D01*
X36591752Y-42990141D01*
X36462187Y-43168474D01*
X36362104Y-43364893D01*
X36362103Y-43364896D01*
X36293985Y-43574547D01*
X36259500Y-43792278D01*
X36259500Y-43836717D01*
X36239815Y-43903756D01*
X36223181Y-43924398D01*
X35822220Y-44325359D01*
X35822218Y-44325361D01*
X35759285Y-44388294D01*
X35682859Y-44464719D01*
X35573371Y-44628579D01*
X35573366Y-44628589D01*
X35561323Y-44657664D01*
X35521093Y-44754789D01*
X35520038Y-44757335D01*
X35497949Y-44810661D01*
X35497947Y-44810667D01*
X35489701Y-44852127D01*
X35459500Y-45003955D01*
X35459500Y-46471031D01*
X35439815Y-46538070D01*
X35423181Y-46558712D01*
X35391756Y-46590136D01*
X35391752Y-46590141D01*
X35262187Y-46768474D01*
X35162104Y-46964893D01*
X35162103Y-46964896D01*
X35093985Y-47174547D01*
X35059500Y-47392278D01*
X20500500Y-47392278D01*
X20500500Y-42524500D01*
X20520185Y-42457461D01*
X20572989Y-42411706D01*
X20624500Y-42400500D01*
X24498542Y-42400500D01*
X24536094Y-42393030D01*
X24595188Y-42381275D01*
X24691836Y-42362051D01*
X24745165Y-42339961D01*
X24873914Y-42286632D01*
X25037782Y-42177139D01*
X25177139Y-42037782D01*
X25177139Y-42037780D01*
X25187347Y-42027573D01*
X25187348Y-42027570D01*
X28177140Y-39037781D01*
X28286632Y-38873914D01*
X28362052Y-38691835D01*
X28400500Y-38498540D01*
X28400500Y-38301459D01*
X28400500Y-36245991D01*
X28420185Y-36178952D01*
X28436819Y-36158310D01*
X28958311Y-35636819D01*
X29019634Y-35603334D01*
X29045992Y-35600500D01*
X30709763Y-35600500D01*
X30766059Y-35614016D01*
X30777550Y-35619871D01*
X30777552Y-35619871D01*
X30777555Y-35619873D01*
X30942299Y-35673402D01*
X31113389Y-35700500D01*
X31113390Y-35700500D01*
X31286610Y-35700500D01*
X31286611Y-35700500D01*
X31457701Y-35673402D01*
X31622445Y-35619873D01*
X31776788Y-35541232D01*
X31916928Y-35439414D01*
X32039414Y-35316928D01*
X32141232Y-35176788D01*
X32219873Y-35022445D01*
X32273402Y-34857701D01*
X32300500Y-34686611D01*
X32300500Y-34513389D01*
X32273402Y-34342299D01*
X32219873Y-34177555D01*
X32141232Y-34023212D01*
X32039414Y-33883072D01*
X31916928Y-33760586D01*
X31776788Y-33658768D01*
X31660465Y-33599499D01*
X31622447Y-33580128D01*
X31622446Y-33580127D01*
X31622445Y-33580127D01*
X31457701Y-33526598D01*
X31457699Y-33526597D01*
X31457698Y-33526597D01*
X31326271Y-33505781D01*
X31286611Y-33499500D01*
X31113389Y-33499500D01*
X31073728Y-33505781D01*
X30942302Y-33526597D01*
X30777550Y-33580128D01*
X30766059Y-33585984D01*
X30709763Y-33599500D01*
X28684884Y-33599500D01*
X28684864Y-33599499D01*
X28678750Y-33599499D01*
X28481669Y-33599499D01*
X28481666Y-33599499D01*
X28288381Y-33637946D01*
X28288369Y-33637949D01*
X28183527Y-33681376D01*
X28114058Y-33688845D01*
X28051579Y-33657569D01*
X28015927Y-33597480D01*
X28018421Y-33527655D01*
X28048392Y-33479135D01*
X31361639Y-30165889D01*
X34661640Y-26865889D01*
X35399500Y-26865889D01*
X35399500Y-27039110D01*
X35410721Y-27109961D01*
X35426598Y-27210201D01*
X35480127Y-27374945D01*
X35485983Y-27386439D01*
X35499500Y-27442735D01*
X35499500Y-29762263D01*
X35485984Y-29818559D01*
X35480128Y-29830050D01*
X35426597Y-29994802D01*
X35399500Y-30165889D01*
X35399500Y-30339111D01*
X35426598Y-30510201D01*
X35480127Y-30674945D01*
X35558768Y-30829288D01*
X35660586Y-30969428D01*
X35783072Y-31091914D01*
X35923212Y-31193732D01*
X36077555Y-31272373D01*
X36242299Y-31325902D01*
X36413389Y-31353000D01*
X36413390Y-31353000D01*
X36586610Y-31353000D01*
X36586611Y-31353000D01*
X36757701Y-31325902D01*
X36922445Y-31272373D01*
X37076788Y-31193732D01*
X37216928Y-31091914D01*
X37339414Y-30969428D01*
X37441232Y-30829288D01*
X37519873Y-30674945D01*
X37573402Y-30510201D01*
X37600500Y-30339111D01*
X37600500Y-30165889D01*
X37573402Y-29994799D01*
X37519873Y-29830055D01*
X37519871Y-29830052D01*
X37519871Y-29830050D01*
X37514016Y-29818559D01*
X37500500Y-29762263D01*
X37500500Y-27442735D01*
X37514016Y-27386439D01*
X37519873Y-27374945D01*
X37573402Y-27210201D01*
X37600500Y-27039111D01*
X37600500Y-26865889D01*
X37573402Y-26694799D01*
X37519873Y-26530055D01*
X37441232Y-26375712D01*
X37339414Y-26235572D01*
X37216928Y-26113086D01*
X37076788Y-26011268D01*
X36922445Y-25932627D01*
X36757701Y-25879098D01*
X36757699Y-25879097D01*
X36757698Y-25879097D01*
X36626271Y-25858281D01*
X36586611Y-25852000D01*
X36413389Y-25852000D01*
X36373728Y-25858281D01*
X36242302Y-25879097D01*
X36077552Y-25932628D01*
X35923211Y-26011268D01*
X35847559Y-26066233D01*
X35783072Y-26113086D01*
X35783070Y-26113088D01*
X35783069Y-26113088D01*
X35660588Y-26235569D01*
X35660588Y-26235570D01*
X35660586Y-26235572D01*
X35628572Y-26279636D01*
X35558768Y-26375711D01*
X35480128Y-26530052D01*
X35426597Y-26694802D01*
X35399500Y-26865889D01*
X34661640Y-26865889D01*
X34754193Y-26773336D01*
X40351620Y-21175909D01*
X40351620Y-21175908D01*
X40351619Y-21175908D01*
X40351626Y-21175902D01*
X40444704Y-21036603D01*
X40508816Y-20881821D01*
X40541500Y-20717507D01*
X40541500Y-11839637D01*
X40561185Y-11772598D01*
X40613989Y-11726843D01*
X40641307Y-11718020D01*
X40783497Y-11689737D01*
X40929179Y-11629394D01*
X41060289Y-11541789D01*
X41171789Y-11430289D01*
X41259394Y-11299179D01*
X41319737Y-11153497D01*
X41350500Y-10998842D01*
X41350500Y-10970600D01*
X41370185Y-10903561D01*
X41386819Y-10882919D01*
X42867919Y-9401819D01*
X42929242Y-9368334D01*
X42955600Y-9365500D01*
X43847900Y-9365500D01*
X43914939Y-9385185D01*
X43960694Y-9437989D01*
X43970638Y-9507147D01*
X43941613Y-9570703D01*
X43935581Y-9577181D01*
X42917081Y-10595681D01*
X42855758Y-10629166D01*
X42829400Y-10632000D01*
X42801155Y-10632000D01*
X42646510Y-10662761D01*
X42646498Y-10662764D01*
X42500827Y-10723102D01*
X42500814Y-10723109D01*
X42369711Y-10810710D01*
X42369707Y-10810713D01*
X42258213Y-10922207D01*
X42258210Y-10922211D01*
X42170609Y-11053314D01*
X42170602Y-11053327D01*
X42110264Y-11198998D01*
X42110261Y-11199010D01*
X42079500Y-11353653D01*
X42079500Y-11511346D01*
X42110261Y-11665989D01*
X42110264Y-11666001D01*
X42170602Y-11811672D01*
X42170609Y-11811685D01*
X42258210Y-11942788D01*
X42258213Y-11942792D01*
X42369707Y-12054286D01*
X42369711Y-12054289D01*
X42500814Y-12141890D01*
X42500827Y-12141897D01*
X42598817Y-12182485D01*
X42646503Y-12202237D01*
X42801153Y-12232999D01*
X42801156Y-12233000D01*
X42801158Y-12233000D01*
X42958844Y-12233000D01*
X42958845Y-12232999D01*
X43113497Y-12202237D01*
X43259179Y-12141894D01*
X43390289Y-12054289D01*
X43501789Y-11942789D01*
X43589394Y-11811679D01*
X43649737Y-11665997D01*
X43680500Y-11511342D01*
X43680500Y-11483100D01*
X43700185Y-11416061D01*
X43716819Y-11395419D01*
X44950419Y-10161819D01*
X45011742Y-10128334D01*
X45038100Y-10125500D01*
X47499078Y-10125500D01*
X47566117Y-10145185D01*
X47611872Y-10197989D01*
X47621816Y-10267147D01*
X47592791Y-10330703D01*
X47567969Y-10352602D01*
X47499711Y-10398210D01*
X47499707Y-10398213D01*
X47388213Y-10509707D01*
X47388210Y-10509711D01*
X47300609Y-10640814D01*
X47300602Y-10640827D01*
X47240264Y-10786498D01*
X47240261Y-10786510D01*
X47209500Y-10941153D01*
X47209500Y-10969399D01*
X47189815Y-11036438D01*
X47173181Y-11057080D01*
X46422042Y-11808218D01*
X46360719Y-11841703D01*
X46310171Y-11842155D01*
X46208842Y-11822000D01*
X46051158Y-11822000D01*
X46051155Y-11822000D01*
X45896510Y-11852761D01*
X45896498Y-11852764D01*
X45750827Y-11913102D01*
X45750814Y-11913109D01*
X45619711Y-12000710D01*
X45619707Y-12000713D01*
X45508213Y-12112207D01*
X45508210Y-12112211D01*
X45420609Y-12243314D01*
X45420602Y-12243327D01*
X45360264Y-12388998D01*
X45360261Y-12389010D01*
X45329500Y-12543653D01*
X45329500Y-12701346D01*
X45360261Y-12855989D01*
X45360264Y-12856001D01*
X45420602Y-13001672D01*
X45420609Y-13001685D01*
X45508210Y-13132788D01*
X45508213Y-13132792D01*
X45619707Y-13244286D01*
X45619711Y-13244289D01*
X45750814Y-13331890D01*
X45750827Y-13331897D01*
X45896498Y-13392235D01*
X45896503Y-13392237D01*
X46051153Y-13422999D01*
X46051156Y-13423000D01*
X46051158Y-13423000D01*
X46208844Y-13423000D01*
X46208845Y-13422999D01*
X46363497Y-13392237D01*
X46509179Y-13331894D01*
X46640289Y-13244289D01*
X46751789Y-13132789D01*
X46839394Y-13001679D01*
X46839397Y-13001669D01*
X46842270Y-12996298D01*
X46843450Y-12996928D01*
X46864848Y-12964888D01*
X47972919Y-11856819D01*
X48034242Y-11823334D01*
X48060600Y-11820500D01*
X48088844Y-11820500D01*
X48088845Y-11820499D01*
X48243497Y-11789737D01*
X48389179Y-11729394D01*
X48520289Y-11641789D01*
X48631789Y-11530289D01*
X48719394Y-11399179D01*
X48720952Y-11395419D01*
X48742942Y-11342328D01*
X48779737Y-11253497D01*
X48810500Y-11098842D01*
X48810500Y-10941158D01*
X48810500Y-10941155D01*
X48810499Y-10941153D01*
X48798915Y-10882919D01*
X48779737Y-10786503D01*
X48753479Y-10723109D01*
X48719397Y-10640827D01*
X48719390Y-10640814D01*
X48631789Y-10509711D01*
X48631786Y-10509707D01*
X48520292Y-10398213D01*
X48520288Y-10398210D01*
X48452031Y-10352602D01*
X48407226Y-10298990D01*
X48398519Y-10229665D01*
X48428673Y-10166637D01*
X48488117Y-10129918D01*
X48520922Y-10125500D01*
X50784071Y-10125500D01*
X50851110Y-10145185D01*
X50891458Y-10187501D01*
X50937482Y-10267218D01*
X50937486Y-10267223D01*
X50937487Y-10267225D01*
X52577487Y-11907225D01*
X52682775Y-12012513D01*
X52682776Y-12012514D01*
X52682778Y-12012515D01*
X52706502Y-12026212D01*
X52811725Y-12086962D01*
X52955550Y-12125500D01*
X52955553Y-12125500D01*
X53614447Y-12125500D01*
X53614450Y-12125500D01*
X53758275Y-12086962D01*
X53887225Y-12012513D01*
X54227919Y-11671819D01*
X54289242Y-11638334D01*
X54315600Y-11635500D01*
X54854447Y-11635500D01*
X54854450Y-11635500D01*
X54998275Y-11596962D01*
X55127225Y-11522513D01*
X55232513Y-11417225D01*
X55306962Y-11288275D01*
X55345500Y-11144450D01*
X55345500Y-9467940D01*
X55365185Y-9400901D01*
X55381814Y-9380263D01*
X55441789Y-9320289D01*
X55529394Y-9189179D01*
X55541004Y-9161151D01*
X55543067Y-9156166D01*
X55589737Y-9043497D01*
X55620500Y-8888842D01*
X55620500Y-8731158D01*
X55620500Y-8731155D01*
X55620499Y-8731153D01*
X55599944Y-8627816D01*
X55589737Y-8576503D01*
X55564991Y-8516760D01*
X55529397Y-8430827D01*
X55529390Y-8430814D01*
X55441789Y-8299711D01*
X55441786Y-8299707D01*
X55330292Y-8188213D01*
X55330288Y-8188210D01*
X55199185Y-8100609D01*
X55199172Y-8100602D01*
X55053501Y-8040264D01*
X55053489Y-8040261D01*
X54898845Y-8009500D01*
X54898842Y-8009500D01*
X54741158Y-8009500D01*
X54741155Y-8009500D01*
X54586510Y-8040261D01*
X54586498Y-8040264D01*
X54440827Y-8100602D01*
X54440816Y-8100608D01*
X54396372Y-8130305D01*
X54329694Y-8151182D01*
X54262314Y-8132697D01*
X54258622Y-8130324D01*
X54199179Y-8090606D01*
X54199172Y-8090602D01*
X54053501Y-8030264D01*
X54053489Y-8030261D01*
X53898845Y-7999500D01*
X53898842Y-7999500D01*
X53741158Y-7999500D01*
X53741155Y-7999500D01*
X53586510Y-8030261D01*
X53586498Y-8030264D01*
X53440827Y-8090602D01*
X53440814Y-8090609D01*
X53309711Y-8178210D01*
X53309707Y-8178213D01*
X53289740Y-8198181D01*
X53228417Y-8231666D01*
X53202059Y-8234500D01*
X50943900Y-8234500D01*
X50876861Y-8214815D01*
X50831106Y-8162011D01*
X50821162Y-8092853D01*
X50840798Y-8041609D01*
X50930494Y-7907368D01*
X50930499Y-7907358D01*
X51009649Y-7716274D01*
X51009651Y-7716266D01*
X51049999Y-7513420D01*
X51050000Y-7513417D01*
X51050000Y-7260000D01*
X50350012Y-7260000D01*
X50350012Y-6760000D01*
X51050000Y-6760000D01*
X51050000Y-6506583D01*
X51049999Y-6506579D01*
X51009651Y-6303733D01*
X51009649Y-6303725D01*
X50930499Y-6112641D01*
X50930494Y-6112631D01*
X50815589Y-5940664D01*
X50815586Y-5940660D01*
X50669339Y-5794413D01*
X50669335Y-5794410D01*
X50497368Y-5679505D01*
X50497358Y-5679500D01*
X50306272Y-5600349D01*
X50306267Y-5600347D01*
X50250000Y-5589155D01*
X50250000Y-6365010D01*
X50214912Y-6329922D01*
X50135099Y-6283842D01*
X50046080Y-6259989D01*
X49953920Y-6259989D01*
X49864901Y-6283842D01*
X49785088Y-6329922D01*
X49750000Y-6365010D01*
X49750000Y-5589156D01*
X49749999Y-5589155D01*
X49693732Y-5600347D01*
X49693727Y-5600349D01*
X49502641Y-5679500D01*
X49502631Y-5679505D01*
X49330664Y-5794410D01*
X49330660Y-5794413D01*
X49184413Y-5940660D01*
X49184410Y-5940664D01*
X49069505Y-6112631D01*
X49069500Y-6112641D01*
X48990350Y-6303725D01*
X48990348Y-6303733D01*
X48950000Y-6506579D01*
X48950000Y-6760000D01*
X49649988Y-6760000D01*
X49649988Y-7260000D01*
X48950000Y-7260000D01*
X48950000Y-7513420D01*
X48990348Y-7716266D01*
X48990350Y-7716274D01*
X49069500Y-7907358D01*
X49069505Y-7907368D01*
X49159202Y-8041609D01*
X49180080Y-8108287D01*
X49161595Y-8175667D01*
X49109616Y-8222357D01*
X49056100Y-8234500D01*
X42595550Y-8234500D01*
X42463515Y-8269878D01*
X42451721Y-8273039D01*
X42369885Y-8320288D01*
X42369884Y-8320288D01*
X42322781Y-8347482D01*
X42322773Y-8347488D01*
X40753181Y-9917081D01*
X40691858Y-9950566D01*
X40622166Y-9945582D01*
X40566233Y-9903710D01*
X40541816Y-9838246D01*
X40541500Y-9829400D01*
X40541500Y-8915232D01*
X40541499Y-8915228D01*
X40528948Y-8852128D01*
X40508816Y-8750918D01*
X40490037Y-8705584D01*
X40444704Y-8596137D01*
X40351626Y-8456838D01*
X40351623Y-8456834D01*
X40223159Y-8328370D01*
X40083869Y-8235299D01*
X40083856Y-8235292D01*
X39961227Y-8184499D01*
X39929082Y-8171184D01*
X39929074Y-8171182D01*
X39764771Y-8138500D01*
X39764767Y-8138500D01*
X24367233Y-8138500D01*
X24367228Y-8138500D01*
X24202925Y-8171182D01*
X24202917Y-8171184D01*
X24170773Y-8184499D01*
X24170772Y-8184499D01*
X24048143Y-8235292D01*
X24048130Y-8235299D01*
X23908838Y-8328372D01*
X23908834Y-8328375D01*
X23230424Y-9006785D01*
X23169101Y-9040270D01*
X23123349Y-9041578D01*
X23110226Y-9039500D01*
X23110222Y-9039500D01*
X22889778Y-9039500D01*
X22864517Y-9043501D01*
X22672047Y-9073985D01*
X22462396Y-9142103D01*
X22462393Y-9142104D01*
X22265974Y-9242187D01*
X22087641Y-9371752D01*
X22087636Y-9371756D01*
X21931756Y-9527636D01*
X21931752Y-9527641D01*
X21830318Y-9667254D01*
X21774988Y-9709920D01*
X21705375Y-9715899D01*
X21643580Y-9683293D01*
X21629682Y-9667254D01*
X21528247Y-9527641D01*
X21528243Y-9527636D01*
X21372363Y-9371756D01*
X21372358Y-9371752D01*
X21194025Y-9242187D01*
X21194024Y-9242186D01*
X21194022Y-9242185D01*
X21090005Y-9189185D01*
X20997606Y-9142104D01*
X20997603Y-9142103D01*
X20787952Y-9073985D01*
X20645747Y-9051462D01*
X20570222Y-9039500D01*
X20349778Y-9039500D01*
X20324517Y-9043501D01*
X20132047Y-9073985D01*
X19922396Y-9142103D01*
X19922393Y-9142104D01*
X19725974Y-9242187D01*
X19547641Y-9371752D01*
X19547636Y-9371756D01*
X19391756Y-9527636D01*
X19391752Y-9527641D01*
X19262187Y-9705974D01*
X19162104Y-9902393D01*
X19162103Y-9902396D01*
X19093985Y-10112047D01*
X19059500Y-10329778D01*
X19059500Y-10550221D01*
X19093985Y-10767952D01*
X19162103Y-10977603D01*
X19162104Y-10977606D01*
X19230122Y-11111096D01*
X19257129Y-11164100D01*
X19262187Y-11174025D01*
X19391752Y-11352358D01*
X19391756Y-11352363D01*
X19391758Y-11352365D01*
X19547635Y-11508242D01*
X19687257Y-11609682D01*
X19729921Y-11665010D01*
X19735900Y-11734623D01*
X19703295Y-11796418D01*
X19687255Y-11810317D01*
X19547641Y-11911752D01*
X19547636Y-11911756D01*
X19391756Y-12067636D01*
X19391752Y-12067641D01*
X19262187Y-12245974D01*
X19162104Y-12442393D01*
X19162103Y-12442396D01*
X19093985Y-12652047D01*
X19086177Y-12701346D01*
X19059500Y-12869778D01*
X19059500Y-13090222D01*
X19075667Y-13192297D01*
X19093985Y-13307952D01*
X19162103Y-13517603D01*
X19162104Y-13517606D01*
X19230122Y-13651096D01*
X19257129Y-13704100D01*
X19262187Y-13714025D01*
X19391752Y-13892358D01*
X19391756Y-13892363D01*
X19547636Y-14048243D01*
X19547641Y-14048247D01*
X19725973Y-14177812D01*
X19725975Y-14177813D01*
X19725978Y-14177815D01*
X19781795Y-14206255D01*
X19832591Y-14254229D01*
X19849500Y-14316740D01*
X19849500Y-14872143D01*
X19829815Y-14939182D01*
X19813181Y-14959824D01*
X16509824Y-18263181D01*
X16448501Y-18296666D01*
X16422143Y-18299500D01*
X12531005Y-18299500D01*
X12395677Y-18326418D01*
X12395667Y-18326421D01*
X12268195Y-18379221D01*
X12268182Y-18379228D01*
X12153458Y-18455885D01*
X12153454Y-18455888D01*
X12055888Y-18553454D01*
X12055885Y-18553458D01*
X11979228Y-18668182D01*
X11979221Y-18668195D01*
X11926421Y-18795667D01*
X11926418Y-18795677D01*
X11899500Y-18931004D01*
X11899500Y-21393012D01*
X11879815Y-21460051D01*
X11827011Y-21505806D01*
X11757853Y-21515750D01*
X11694297Y-21486725D01*
X11657569Y-21431330D01*
X11642780Y-21385815D01*
X11528442Y-21161416D01*
X11454250Y-21059301D01*
X11454250Y-21059300D01*
X10799308Y-21714242D01*
X10780331Y-21668426D01*
X10703725Y-21553777D01*
X10606223Y-21456275D01*
X10491574Y-21379669D01*
X10445754Y-21360690D01*
X11100698Y-20705748D01*
X10998583Y-20631557D01*
X10774184Y-20517219D01*
X10534669Y-20439397D01*
X10285928Y-20400000D01*
X10034072Y-20400000D01*
X9785330Y-20439397D01*
X9545815Y-20517219D01*
X9321413Y-20631559D01*
X9219301Y-20705747D01*
X9219300Y-20705748D01*
X9874243Y-21360690D01*
X9828426Y-21379669D01*
X9713777Y-21456275D01*
X9616275Y-21553777D01*
X9539669Y-21668426D01*
X9520690Y-21714243D01*
X8865748Y-21059300D01*
X8865747Y-21059301D01*
X8791559Y-21161413D01*
X8677219Y-21385815D01*
X8599397Y-21625330D01*
X8560000Y-21874071D01*
X8560000Y-22125928D01*
X8599397Y-22374669D01*
X8677219Y-22614184D01*
X8791557Y-22838583D01*
X8865748Y-22940697D01*
X8865748Y-22940698D01*
X9520690Y-22285755D01*
X9539669Y-22331574D01*
X9616275Y-22446223D01*
X9713777Y-22543725D01*
X9828426Y-22620331D01*
X9874243Y-22639308D01*
X9219300Y-23294250D01*
X9321416Y-23368442D01*
X9545815Y-23482780D01*
X9785330Y-23560602D01*
X10034072Y-23600000D01*
X10285928Y-23600000D01*
X10534669Y-23560602D01*
X10774184Y-23482780D01*
X10998575Y-23368446D01*
X10998581Y-23368442D01*
X11100697Y-23294250D01*
X11100698Y-23294250D01*
X10445756Y-22639309D01*
X10491574Y-22620331D01*
X10606223Y-22543725D01*
X10703725Y-22446223D01*
X10780331Y-22331574D01*
X10799309Y-22285756D01*
X11454250Y-22940698D01*
X11454250Y-22940697D01*
X11528442Y-22838581D01*
X11528446Y-22838575D01*
X11642781Y-22614182D01*
X11657569Y-22568670D01*
X11697006Y-22510994D01*
X11761364Y-22483795D01*
X11830211Y-22495709D01*
X11881687Y-22542953D01*
X11899500Y-22606987D01*
X11899500Y-33391400D01*
X11879815Y-33458439D01*
X11827011Y-33504194D01*
X11757853Y-33514138D01*
X11694297Y-33485113D01*
X11657569Y-33429719D01*
X11643241Y-33385621D01*
X11643239Y-33385618D01*
X11643239Y-33385616D01*
X11600728Y-33302185D01*
X11528870Y-33161155D01*
X11460307Y-33066786D01*
X11380798Y-32957350D01*
X11380794Y-32957345D01*
X11202654Y-32779205D01*
X11202649Y-32779201D01*
X10998848Y-32631132D01*
X10998847Y-32631131D01*
X10998845Y-32631130D01*
X10928747Y-32595413D01*
X10774383Y-32516760D01*
X10534785Y-32438910D01*
X10285962Y-32399500D01*
X10034038Y-32399500D01*
X9909626Y-32419205D01*
X9785214Y-32438910D01*
X9545616Y-32516760D01*
X9321151Y-32631132D01*
X9117350Y-32779201D01*
X9117345Y-32779205D01*
X8939205Y-32957345D01*
X8939201Y-32957350D01*
X8791132Y-33161151D01*
X8676760Y-33385616D01*
X8598910Y-33625214D01*
X8559500Y-33874038D01*
X8559500Y-34125961D01*
X8598910Y-34374785D01*
X8676760Y-34614383D01*
X8721498Y-34702185D01*
X8785579Y-34827951D01*
X8791132Y-34838848D01*
X8939201Y-35042649D01*
X8939205Y-35042654D01*
X9117345Y-35220794D01*
X9117350Y-35220798D01*
X9263838Y-35327227D01*
X9321155Y-35368870D01*
X9459600Y-35439411D01*
X9545616Y-35483239D01*
X9545618Y-35483239D01*
X9545621Y-35483241D01*
X9785215Y-35561090D01*
X10034038Y-35600500D01*
X10034039Y-35600500D01*
X10285961Y-35600500D01*
X10285962Y-35600500D01*
X10534785Y-35561090D01*
X10774379Y-35483241D01*
X10998845Y-35368870D01*
X11202656Y-35220793D01*
X11380793Y-35042656D01*
X11528870Y-34838845D01*
X11643241Y-34614379D01*
X11657569Y-34570280D01*
X11697006Y-34512605D01*
X11761365Y-34485407D01*
X11830211Y-34497322D01*
X11881687Y-34544566D01*
X11899500Y-34608599D01*
X11899500Y-45391400D01*
X11879815Y-45458439D01*
X11827011Y-45504194D01*
X11757853Y-45514138D01*
X11694297Y-45485113D01*
X11657569Y-45429719D01*
X11643241Y-45385621D01*
X11643239Y-45385618D01*
X11643239Y-45385616D01*
X11601144Y-45303000D01*
X11528870Y-45161155D01*
X11390531Y-44970747D01*
X11380798Y-44957350D01*
X11380794Y-44957345D01*
X11202654Y-44779205D01*
X11202649Y-44779201D01*
X10998848Y-44631132D01*
X10998847Y-44631131D01*
X10998845Y-44631130D01*
X10928747Y-44595413D01*
X10774383Y-44516760D01*
X10534785Y-44438910D01*
X10285962Y-44399500D01*
X10034038Y-44399500D01*
X9909626Y-44419205D01*
X9785214Y-44438910D01*
X9545616Y-44516760D01*
X9321151Y-44631132D01*
X9117350Y-44779201D01*
X9117345Y-44779205D01*
X8939205Y-44957345D01*
X8939201Y-44957350D01*
X8791132Y-45161151D01*
X8676760Y-45385616D01*
X8598910Y-45625214D01*
X8559500Y-45874038D01*
X8559500Y-46125961D01*
X8598910Y-46374785D01*
X8676760Y-46614383D01*
X8791132Y-46838848D01*
X8939201Y-47042649D01*
X8939205Y-47042654D01*
X9117345Y-47220794D01*
X9117350Y-47220798D01*
X9238431Y-47308768D01*
X9321155Y-47368870D01*
X9464184Y-47441747D01*
X9545616Y-47483239D01*
X9545618Y-47483239D01*
X9545621Y-47483241D01*
X9785215Y-47561090D01*
X10034038Y-47600500D01*
X10034039Y-47600500D01*
X10285961Y-47600500D01*
X10285962Y-47600500D01*
X10534785Y-47561090D01*
X10774379Y-47483241D01*
X10998845Y-47368870D01*
X11202656Y-47220793D01*
X11380793Y-47042656D01*
X11528870Y-46838845D01*
X11643241Y-46614379D01*
X11657569Y-46570280D01*
X11697006Y-46512605D01*
X11761365Y-46485407D01*
X11830211Y-46497322D01*
X11881687Y-46544566D01*
X11899500Y-46608599D01*
X11899500Y-50458481D01*
X11879815Y-50525520D01*
X11863181Y-50546162D01*
X11546162Y-50863181D01*
X11484839Y-50896666D01*
X11458481Y-50899500D01*
X2381003Y-50899500D01*
X2272590Y-50921065D01*
X2272589Y-50921065D01*
X2259131Y-50923742D01*
X2245673Y-50926419D01*
X2245671Y-50926420D01*
X2192866Y-50948292D01*
X2192864Y-50948293D01*
X2192863Y-50948292D01*
X2118191Y-50979223D01*
X2026328Y-51040605D01*
X2003460Y-51055884D01*
X2003454Y-51055889D01*
X1655887Y-51403455D01*
X1655884Y-51403458D01*
X1644313Y-51420777D01*
X1579228Y-51518182D01*
X1579221Y-51518195D01*
X1526421Y-51645667D01*
X1526418Y-51645677D01*
X1499500Y-51781004D01*
X1499500Y-70941927D01*
X1490062Y-70989377D01*
X1486423Y-70998161D01*
X1486418Y-70998177D01*
X1461354Y-71124183D01*
X1461351Y-71124202D01*
X1460767Y-71127139D01*
X1459500Y-71133507D01*
X1459500Y-72831006D01*
X1459500Y-72831007D01*
X1459500Y-95291006D01*
X1459500Y-95428994D01*
X1459500Y-95428996D01*
X1459499Y-95428996D01*
X-5499500Y-95428996D01*
X-5499500Y-9874038D01*
X8559500Y-9874038D01*
X8559500Y-10125962D01*
X8581862Y-10267147D01*
X8598910Y-10374785D01*
X8676760Y-10614383D01*
X8755008Y-10767951D01*
X8764460Y-10786503D01*
X8791132Y-10838848D01*
X8939201Y-11042649D01*
X8939205Y-11042654D01*
X9117345Y-11220794D01*
X9117350Y-11220798D01*
X9284623Y-11342328D01*
X9321155Y-11368870D01*
X9441340Y-11430107D01*
X9545616Y-11483239D01*
X9545618Y-11483239D01*
X9545621Y-11483241D01*
X9785215Y-11561090D01*
X10034038Y-11600500D01*
X10034039Y-11600500D01*
X10285961Y-11600500D01*
X10285962Y-11600500D01*
X10534785Y-11561090D01*
X10774379Y-11483241D01*
X10998845Y-11368870D01*
X11202656Y-11220793D01*
X11380793Y-11042656D01*
X11528870Y-10838845D01*
X11643241Y-10614379D01*
X11721090Y-10374785D01*
X11760500Y-10125962D01*
X11760500Y-9874038D01*
X11721090Y-9625215D01*
X11643241Y-9385621D01*
X11643239Y-9385618D01*
X11643239Y-9385616D01*
X11601747Y-9304184D01*
X11528870Y-9161155D01*
X11509952Y-9135117D01*
X11380798Y-8957350D01*
X11380794Y-8957345D01*
X11275584Y-8852135D01*
X13639500Y-8852135D01*
X13639501Y-11147870D01*
X13645908Y-11207483D01*
X13696202Y-11342328D01*
X13696206Y-11342335D01*
X13782452Y-11457544D01*
X13782455Y-11457547D01*
X13897664Y-11543793D01*
X13897671Y-11543797D01*
X14032517Y-11594091D01*
X14032516Y-11594091D01*
X14039444Y-11594835D01*
X14092127Y-11600500D01*
X16387872Y-11600499D01*
X16447483Y-11594091D01*
X16582331Y-11543796D01*
X16697546Y-11457546D01*
X16783796Y-11342331D01*
X16834091Y-11207483D01*
X16840500Y-11147873D01*
X16840499Y-8852128D01*
X16834091Y-8792517D01*
X16829124Y-8779201D01*
X16783797Y-8657671D01*
X16783793Y-8657664D01*
X16697547Y-8542455D01*
X16697544Y-8542452D01*
X16582335Y-8456206D01*
X16582328Y-8456202D01*
X16447482Y-8405908D01*
X16447483Y-8405908D01*
X16387883Y-8399501D01*
X16387881Y-8399500D01*
X16387873Y-8399500D01*
X16387864Y-8399500D01*
X14092129Y-8399500D01*
X14092123Y-8399501D01*
X14032516Y-8405908D01*
X13897671Y-8456202D01*
X13897664Y-8456206D01*
X13782455Y-8542452D01*
X13782452Y-8542455D01*
X13696206Y-8657664D01*
X13696202Y-8657671D01*
X13645908Y-8792517D01*
X13639501Y-8852116D01*
X13639501Y-8852123D01*
X13639500Y-8852135D01*
X11275584Y-8852135D01*
X11202654Y-8779205D01*
X11202649Y-8779201D01*
X10998848Y-8631132D01*
X10998847Y-8631131D01*
X10998845Y-8631130D01*
X10928747Y-8595413D01*
X10774383Y-8516760D01*
X10534785Y-8438910D01*
X10483669Y-8430814D01*
X10285962Y-8399500D01*
X10034038Y-8399500D01*
X9909626Y-8419205D01*
X9785214Y-8438910D01*
X9545616Y-8516760D01*
X9321151Y-8631132D01*
X9117350Y-8779201D01*
X9117345Y-8779205D01*
X8939205Y-8957345D01*
X8939201Y-8957350D01*
X8791132Y-9161151D01*
X8676760Y-9385616D01*
X8598910Y-9625214D01*
X8591922Y-9669333D01*
X8559500Y-9874038D01*
X-5499500Y-9874038D01*
X-5499500Y-5056228D01*
X56189500Y-5056228D01*
X56189500Y-5223771D01*
X56222182Y-5388074D01*
X56222184Y-5388082D01*
X56286295Y-5542860D01*
X56379373Y-5682162D01*
X56497837Y-5800626D01*
X56590494Y-5862537D01*
X56637137Y-5893703D01*
X56791918Y-5957816D01*
X56956228Y-5990499D01*
X56956232Y-5990500D01*
X56956233Y-5990500D01*
X57574514Y-5990500D01*
X57641553Y-6010185D01*
X57687308Y-6062989D01*
X57697252Y-6132147D01*
X57689075Y-6161953D01*
X57630350Y-6303725D01*
X57630348Y-6303733D01*
X57590000Y-6506579D01*
X57590000Y-6760000D01*
X58289988Y-6760000D01*
X58289988Y-7260000D01*
X57590000Y-7260000D01*
X57590000Y-7513420D01*
X57630348Y-7716266D01*
X57630350Y-7716274D01*
X57709500Y-7907358D01*
X57709505Y-7907368D01*
X57824410Y-8079335D01*
X57824413Y-8079339D01*
X57970660Y-8225586D01*
X57970664Y-8225589D01*
X58142631Y-8340494D01*
X58142641Y-8340499D01*
X58333723Y-8419648D01*
X58333725Y-8419649D01*
X58390000Y-8430842D01*
X58390000Y-7654990D01*
X58425088Y-7690078D01*
X58504901Y-7736158D01*
X58593920Y-7760011D01*
X58686080Y-7760011D01*
X58775099Y-7736158D01*
X58854912Y-7690078D01*
X58890000Y-7654990D01*
X58890000Y-8430842D01*
X58946274Y-8419649D01*
X58946276Y-8419648D01*
X59137358Y-8340499D01*
X59137362Y-8340497D01*
X59203096Y-8296575D01*
X59269774Y-8275697D01*
X59337154Y-8294181D01*
X59375089Y-8330784D01*
X59389374Y-8352163D01*
X59507837Y-8470626D01*
X59576882Y-8516760D01*
X59647137Y-8563703D01*
X59647138Y-8563703D01*
X59647139Y-8563704D01*
X59682201Y-8578227D01*
X59801918Y-8627816D01*
X59952011Y-8657671D01*
X59966228Y-8660499D01*
X59966232Y-8660500D01*
X59966233Y-8660500D01*
X60133768Y-8660500D01*
X60133769Y-8660499D01*
X60298082Y-8627816D01*
X60452863Y-8563703D01*
X60592162Y-8470626D01*
X60710626Y-8352162D01*
X60803703Y-8212863D01*
X60867816Y-8058082D01*
X60900500Y-7893767D01*
X60900500Y-5566233D01*
X60867816Y-5401918D01*
X60838821Y-5331919D01*
X60803704Y-5247137D01*
X60803702Y-5247135D01*
X60803702Y-5247133D01*
X60710627Y-5107838D01*
X60710624Y-5107834D01*
X60522162Y-4919373D01*
X60082165Y-4479375D01*
X60082161Y-4479372D01*
X59942866Y-4386297D01*
X59942863Y-4386296D01*
X59838148Y-4342922D01*
X59838146Y-4342921D01*
X59829886Y-4339500D01*
X59788082Y-4322184D01*
X59642274Y-4293181D01*
X59639111Y-4292378D01*
X59611722Y-4276172D01*
X59583529Y-4261425D01*
X59581868Y-4258508D01*
X59578979Y-4256799D01*
X59564698Y-4228356D01*
X59548955Y-4200709D01*
X59549134Y-4197357D01*
X59547628Y-4194357D01*
X59550990Y-4162718D01*
X59552694Y-4130940D01*
X59554820Y-4126692D01*
X59555013Y-4124879D01*
X59556908Y-4122520D01*
X59566532Y-4103298D01*
X59570494Y-4097368D01*
X59570499Y-4097358D01*
X59649649Y-3906274D01*
X59649651Y-3906266D01*
X59689999Y-3703420D01*
X59690000Y-3703417D01*
X59690000Y-3450000D01*
X58990012Y-3450000D01*
X58990012Y-3078711D01*
X70649500Y-3078711D01*
X70649500Y-3321288D01*
X70681161Y-3561785D01*
X70743947Y-3796104D01*
X70807698Y-3950011D01*
X70836776Y-4020212D01*
X70958064Y-4230289D01*
X70958066Y-4230292D01*
X70958067Y-4230293D01*
X71105733Y-4422736D01*
X71105739Y-4422743D01*
X71277256Y-4594260D01*
X71277263Y-4594266D01*
X71297311Y-4609649D01*
X71469711Y-4741936D01*
X71679788Y-4863224D01*
X71903900Y-4956054D01*
X72138211Y-5018838D01*
X72318586Y-5042584D01*
X72378711Y-5050500D01*
X72378712Y-5050500D01*
X72621289Y-5050500D01*
X72669388Y-5044167D01*
X72861789Y-5018838D01*
X73096100Y-4956054D01*
X73320212Y-4863224D01*
X73530289Y-4741936D01*
X73722738Y-4594265D01*
X73894265Y-4422738D01*
X74041936Y-4230289D01*
X74163224Y-4020212D01*
X74256054Y-3796100D01*
X74318838Y-3561789D01*
X74350500Y-3321288D01*
X74350500Y-3078712D01*
X74318838Y-2838211D01*
X74256054Y-2603900D01*
X74163224Y-2379788D01*
X74041936Y-2169711D01*
X73894265Y-1977262D01*
X73894260Y-1977256D01*
X73722743Y-1805739D01*
X73722736Y-1805733D01*
X73530293Y-1658067D01*
X73530292Y-1658066D01*
X73530289Y-1658064D01*
X73320212Y-1536776D01*
X73320205Y-1536773D01*
X73096104Y-1443947D01*
X72861785Y-1381161D01*
X72621289Y-1349500D01*
X72621288Y-1349500D01*
X72378712Y-1349500D01*
X72378711Y-1349500D01*
X72138214Y-1381161D01*
X71903895Y-1443947D01*
X71679794Y-1536773D01*
X71679785Y-1536777D01*
X71469706Y-1658067D01*
X71277263Y-1805733D01*
X71277256Y-1805739D01*
X71105739Y-1977256D01*
X71105733Y-1977263D01*
X70958067Y-2169706D01*
X70836777Y-2379785D01*
X70836773Y-2379794D01*
X70743947Y-2603895D01*
X70681161Y-2838214D01*
X70649500Y-3078711D01*
X58990012Y-3078711D01*
X58990012Y-2950000D01*
X59690000Y-2950000D01*
X59690000Y-2696583D01*
X59689999Y-2696579D01*
X59649651Y-2493733D01*
X59649649Y-2493725D01*
X59570499Y-2302641D01*
X59570494Y-2302631D01*
X59455589Y-2130664D01*
X59455586Y-2130660D01*
X59309339Y-1984413D01*
X59309335Y-1984410D01*
X59137368Y-1869505D01*
X59137358Y-1869500D01*
X58946272Y-1790349D01*
X58946267Y-1790347D01*
X58890000Y-1779155D01*
X58890000Y-2555010D01*
X58854912Y-2519922D01*
X58775099Y-2473842D01*
X58686080Y-2449989D01*
X58593920Y-2449989D01*
X58504901Y-2473842D01*
X58425088Y-2519922D01*
X58390000Y-2555010D01*
X58390000Y-1779156D01*
X58389999Y-1779155D01*
X58333732Y-1790347D01*
X58333727Y-1790349D01*
X58142641Y-1869500D01*
X58142631Y-1869505D01*
X57970664Y-1984410D01*
X57970660Y-1984413D01*
X57824413Y-2130660D01*
X57824410Y-2130664D01*
X57709505Y-2302631D01*
X57709500Y-2302641D01*
X57630350Y-2493725D01*
X57630348Y-2493733D01*
X57590000Y-2696579D01*
X57590000Y-2950000D01*
X58289988Y-2950000D01*
X58289988Y-3450000D01*
X57590000Y-3450000D01*
X57590000Y-3703420D01*
X57630348Y-3906266D01*
X57630350Y-3906274D01*
X57709500Y-4097358D01*
X57712375Y-4102737D01*
X57711126Y-4103404D01*
X57729876Y-4163290D01*
X57711389Y-4230670D01*
X57659409Y-4277359D01*
X57605896Y-4289500D01*
X56956228Y-4289500D01*
X56791925Y-4322182D01*
X56791917Y-4322184D01*
X56637139Y-4386295D01*
X56497837Y-4479373D01*
X56379373Y-4597837D01*
X56286295Y-4737139D01*
X56222184Y-4891917D01*
X56222182Y-4891925D01*
X56189500Y-5056228D01*
X-5499500Y-5056228D01*
X-5499500Y-3078712D01*
X-4450500Y-3078712D01*
X-4450500Y-3321288D01*
X-4418838Y-3561789D01*
X-4356054Y-3796100D01*
X-4263224Y-4020212D01*
X-4141936Y-4230289D01*
X-3994265Y-4422738D01*
X-3822738Y-4594265D01*
X-3630289Y-4741936D01*
X-3420212Y-4863224D01*
X-3196100Y-4956054D01*
X-2961789Y-5018838D01*
X-2769388Y-5044167D01*
X-2721289Y-5050500D01*
X-2721288Y-5050500D01*
X-2478711Y-5050500D01*
X-2418586Y-5042584D01*
X-2238211Y-5018838D01*
X-2003900Y-4956054D01*
X-1779788Y-4863224D01*
X-1569711Y-4741936D01*
X-1397311Y-4609649D01*
X-1377263Y-4594266D01*
X-1377256Y-4594260D01*
X-1205739Y-4422743D01*
X-1205733Y-4422736D01*
X-1058067Y-4230293D01*
X-1058066Y-4230292D01*
X-1058064Y-4230289D01*
X-936776Y-4020212D01*
X-907698Y-3950011D01*
X-843947Y-3796104D01*
X-781161Y-3561785D01*
X-757552Y-3382453D01*
X-757551Y-3382452D01*
X-749500Y-3321289D01*
X-749500Y-3078711D01*
X-781161Y-2838212D01*
X-812144Y-2722585D01*
X-819112Y-2696579D01*
X48950000Y-2696579D01*
X48950000Y-2950000D01*
X49649988Y-2950000D01*
X49649988Y-3450000D01*
X48950000Y-3450000D01*
X48950000Y-3703420D01*
X48990348Y-3906266D01*
X48990350Y-3906274D01*
X49069500Y-4097358D01*
X49069505Y-4097368D01*
X49184410Y-4269335D01*
X49184413Y-4269339D01*
X49330660Y-4415586D01*
X49330664Y-4415589D01*
X49502631Y-4530494D01*
X49502641Y-4530499D01*
X49693723Y-4609648D01*
X49693725Y-4609649D01*
X49750000Y-4620842D01*
X49750000Y-3844990D01*
X49785088Y-3880078D01*
X49864901Y-3926158D01*
X49953920Y-3950011D01*
X50046080Y-3950011D01*
X50135099Y-3926158D01*
X50214912Y-3880078D01*
X50250000Y-3844990D01*
X50250000Y-4620842D01*
X50306274Y-4609649D01*
X50306276Y-4609648D01*
X50497358Y-4530499D01*
X50497368Y-4530494D01*
X50669335Y-4415589D01*
X50669339Y-4415586D01*
X50815586Y-4269339D01*
X50815589Y-4269335D01*
X50930494Y-4097368D01*
X50930499Y-4097358D01*
X51009649Y-3906274D01*
X51009651Y-3906266D01*
X51049999Y-3703420D01*
X51050000Y-3703417D01*
X51050000Y-3450000D01*
X50350012Y-3450000D01*
X50350012Y-2950000D01*
X51050000Y-2950000D01*
X51050000Y-2696583D01*
X51049999Y-2696579D01*
X51009651Y-2493733D01*
X51009649Y-2493725D01*
X50930499Y-2302641D01*
X50930494Y-2302631D01*
X50815589Y-2130664D01*
X50815586Y-2130660D01*
X50669339Y-1984413D01*
X50669335Y-1984410D01*
X50497368Y-1869505D01*
X50497358Y-1869500D01*
X50306272Y-1790349D01*
X50306267Y-1790347D01*
X50250000Y-1779155D01*
X50250000Y-2555010D01*
X50214912Y-2519922D01*
X50135099Y-2473842D01*
X50046080Y-2449989D01*
X49953920Y-2449989D01*
X49864901Y-2473842D01*
X49785088Y-2519922D01*
X49750000Y-2555010D01*
X49750000Y-1779156D01*
X49749999Y-1779155D01*
X49693732Y-1790347D01*
X49693727Y-1790349D01*
X49502641Y-1869500D01*
X49502631Y-1869505D01*
X49330664Y-1984410D01*
X49330660Y-1984413D01*
X49184413Y-2130660D01*
X49184410Y-2130664D01*
X49069505Y-2302631D01*
X49069500Y-2302641D01*
X48990350Y-2493725D01*
X48990348Y-2493733D01*
X48950000Y-2696579D01*
X-819112Y-2696579D01*
X-843947Y-2603895D01*
X-936773Y-2379794D01*
X-936777Y-2379785D01*
X-1058067Y-2169706D01*
X-1205733Y-1977263D01*
X-1205739Y-1977256D01*
X-1377256Y-1805739D01*
X-1377263Y-1805733D01*
X-1569706Y-1658067D01*
X-1779785Y-1536777D01*
X-1779794Y-1536773D01*
X-2003895Y-1443947D01*
X-2238214Y-1381161D01*
X-2478711Y-1349500D01*
X-2478712Y-1349500D01*
X-2721288Y-1349500D01*
X-2721289Y-1349500D01*
X-2961785Y-1381161D01*
X-3196104Y-1443947D01*
X-3420205Y-1536773D01*
X-3420212Y-1536776D01*
X-3630289Y-1658064D01*
X-3630292Y-1658066D01*
X-3630293Y-1658067D01*
X-3822736Y-1805733D01*
X-3822743Y-1805739D01*
X-3994260Y-1977256D01*
X-3994265Y-1977262D01*
X-4141936Y-2169711D01*
X-4263224Y-2379788D01*
X-4356054Y-2603900D01*
X-4418838Y-2838211D01*
X-4450500Y-3078712D01*
X-5499500Y-3078712D01*
X-5499500Y-624500D01*
X-5479815Y-557461D01*
X-5427011Y-511706D01*
X-5375500Y-500500D01*
X75375500Y-500500D01*
X75442539Y-520185D01*
G37*
%TD.AperFunction*%
%TD*%
M02*
