<svg xmlns="http://www.w3.org/2000/svg" viewBox="0.0000 0.0000 3.0226 1.6510" width="100%" height="100%" preserveAspectRatio="xMidYMid meet">
<g style="fill:#000000; fill-opacity:1.0000;stroke:#000000; stroke-opacity:1.0000;
stroke-linecap:round; stroke-linejoin:round;"
 transform="translate(0 0) scale(1 1)">
<path style="fill:#000000; fill-opacity:1.0000; stroke:none;fill-rule:evenodd;"
d="M 1.8150,1.2850
1.8150,0.3850
2.6150,0.3850
2.6150,1.2850
Z" />
<path style="fill:#000000; fill-opacity:1.0000; stroke:none;fill-rule:evenodd;"
d="M 0.4150,1.2850
0.4150,0.3850
1.2150,0.3850
1.2150,1.2850
Z" />
</g>
<g style="fill:none;
stroke:#000000; stroke-width:0.2500; stroke-opacity:1;
stroke-linecap:round; stroke-linejoin:round;">
<path d="M1.2350 1.5450
L0.4350 1.5450
" />
<path d="M1.7950 1.5450
L2.5950 1.5450
" />
<path d="M1.2350 0.1250
L0.4350 0.1250
" />
<path d="M1.7950 0.1250
L2.5950 0.1250
" />
<path d="M0.1250 1.2350
L0.1250 0.4350
" />
<path d="M2.9050 0.4350
L2.9050 1.2350
" />
<path d="M2.9050 0.4350 A0.3100 0.3100 0.0 0 0 2.5950 0.1250" />
<path d="M2.5950 1.5450 A0.3100 0.3100 0.0 0 0 2.9050 1.2350" />
<path d="M0.1250 1.2350 A0.3100 0.3100 0.0 0 0 0.4350 1.5450" />
<path d="M0.4350 0.1250 A0.3100 0.3100 0.0 0 0 0.1250 0.4350" />
</g>
</svg>
