<svg xmlns="http://www.w3.org/2000/svg" viewBox="0.0000 0.0000 4.0640 2.3876" width="100%" height="100%" preserveAspectRatio="xMidYMid meet">
<g style="fill:#000000; fill-opacity:1.0000;stroke:#000000; stroke-opacity:1.0000;
stroke-linecap:round; stroke-linejoin:round;"
 transform="translate(0 0) scale(1 1)">
<path style="fill:#000000; fill-opacity:1.0000; stroke:none;fill-rule:evenodd;"
d="M 2.4700,1.8850
2.4700,0.5050
3.6000,0.5050
3.6000,1.8850
Z" />
<path style="fill:#000000; fill-opacity:1.0000; stroke:none;fill-rule:evenodd;"
d="M 0.4700,1.8850
0.4700,0.5050
1.6000,0.5050
1.6000,1.8850
Z" />
</g>
<g style="fill:none;
stroke:#000000; stroke-width:0.1500; stroke-opacity:1;
stroke-linecap:round; stroke-linejoin:round;">
<path d="M2.5150 2.1150
L3.7950 2.1150
" />
<path d="M3.7950 2.1150
L3.7950 0.2750
" />
<path d="M3.7950 0.2750
L2.5150 0.2750
" />
<path d="M1.5550 2.1150
L0.2750 2.1150
" />
<path d="M0.2750 2.1150
L0.2750 0.2750
" />
<path d="M0.2750 0.2750
L1.5550 0.2750
" />
</g>
<g style="fill:none;
stroke:#000000; stroke-width:0.0500; stroke-opacity:1;
stroke-linecap:round; stroke-linejoin:round;">
<path d="M0.0250 0.0250
L4.0450 0.0250
" />
<path d="M4.0450 0.0250
L4.0450 2.3650
" />
<path d="M4.0450 2.3650
L0.0250 2.3650
" />
<path d="M0.0250 2.3650
L0.0250 0.0250
" />
</g>
</svg>
