<svg xmlns="http://www.w3.org/2000/svg" viewBox="0.0000 0.0000 16.9164 11.1252" width="100%" height="100%" preserveAspectRatio="xMidYMid meet">
<g style="fill:#000000; fill-opacity:1.0000;stroke:#000000; stroke-opacity:1.0000;
stroke-linecap:round; stroke-linejoin:round;"
 transform="translate(0 0) scale(1 1)">
<path style="fill:#000000; fill-opacity:1.0000; stroke:none;fill-rule:evenodd;"
d="M 0.2750,3.6750
0.2750,2.3750
4.2750,2.3750
4.2750,3.6750
Z" />
<path style="fill:#000000; fill-opacity:1.0000; stroke:none;fill-rule:evenodd;"
d="M 0.2750,8.7550
0.2750,7.4550
4.2750,7.4550
4.2750,8.7550
Z" />
<path style="fill:#000000; fill-opacity:1.0000; stroke:none;fill-rule:evenodd;"
d="M 8.2550,10.8500
8.2550,0.2800
16.6550,0.2800
16.6550,10.8500
Z" />
</g>
<g style="fill:none;
stroke:#000000; stroke-width:0.2500; stroke-opacity:1;
stroke-linecap:round; stroke-linejoin:round;">
<path d="M8.0250 0.4750
L6.1750 0.4750
" />
<path d="M6.1750 0.4750
L6.1750 10.6450
" />
<path d="M6.1750 10.6450
L8.0750 10.6450
" />
<circle cx="1.1550" cy="1.8050" r="0.1300" />
</g>
<g style="fill:none;
stroke:#000000; stroke-width:0.0500; stroke-opacity:1;
stroke-linecap:round; stroke-linejoin:round;">
<path d="M0.0250 0.0250
L16.9050 0.0250
" />
<path d="M16.9050 0.0250
L16.9050 11.1050
" />
<path d="M16.9050 11.1050
L0.0250 11.1050
" />
<path d="M0.0250 11.1050
L0.0250 0.0250
" />
</g>
</svg>
