#VRML V2.0 utf8
# 3D model generated by easyeda2kicad.py (https://github.com/uPesy/easyeda2kicad.py)

Shape{
    appearance Appearance {
        material  Material 	{
            diffuseColor 0.14901960784313725 0.14901960784313725 0.14901960784313725
            specularColor 0.07450980392156863 0.07450980392156863 0.07450980392156863
            ambientIntensity 0.149
            transparency 0.0
            shininess 0.5
        }
    }
    geometry IndexedFaceSet {
        ccw TRUE
        solid FALSE
        coord DEF co Coordinate {
            point [
                0.498 -1.804 0.0, 0.5144 -1.834 0.0, 0.5039 -1.8509 0.0, 0.498 -2.0866 0.0, 0.5 -2.0664 0.0, 0.6575 -2.0664 0.0, 0.6424 -1.8677 0.0, 0.6451 -1.8833 0.0, 0.513 -1.9011 0.0, 0.6575 -2.0523 0.0, 0.8031 -1.804 0.0, 0.8031 -2.0866 0.0, 0.5384 -1.8325 0.0, 0.529 -1.8201 0.0, 0.6286 -1.8201 0.0, 0.6546 -1.8528 0.0, 0.6444 -1.8354 0.0, 0.4988 -1.9132 0.0, 0.506 -1.9321 0.0, 0.5 -1.9917 0.0, 0.6314 -1.8223 0.0, 0.498 -1.9063 0.0, 0.6454 -1.8897 0.0, 0.6431 -1.9083 0.0, 0.6368 -1.9244 0.0, 0.6191 -1.8325 0.0, 0.6316 -1.8455 0.0, 0.5296 -1.8412 0.0, 0.6396 -1.8596 0.0, 0.52 -1.8551 0.0, 0.5143 -1.8703 0.0, 0.6267 -1.9389 0.0, 0.6153 -1.9486 0.0, 0.6013 -1.9557 0.0, 0.5612 -1.9573 0.0, 0.5481 -1.9524 0.0, 0.5786 -1.9594 0.0, 0.5359 -1.944 0.0, 0.5253 -1.9324 0.0, 0.5121 -1.8887 0.0, 0.5862 -1.959 0.0, 0.5171 -1.9171 0.0, 0.5162 -1.9917 0.0, 0.5589 -1.9713 0.0, 0.5162 -2.0523 0.0, 0.5797 -1.9736 0.0, 0.6012 -1.9709 0.0, 0.6179 -1.9645 0.0, 0.5169 -1.9473 0.0, 0.5235 -1.9536 0.0, 0.5407 -1.965 0.0, 0.6608 -1.9014 0.0, 0.6615 -1.8888 0.0, 0.6588 -1.8654 0.0, 0.6334 -1.9537 0.0, 0.6477 -1.9373 0.0, 0.6562 -1.9206 0.0, 0.496 -1.8863 0.0, 0.1969 -1.804 0.0, 0.498 -1.8703 0.0, 0.4985 -1.8664 0.0, 0.1969 -2.0866 0.0, 0.496 -1.8886 0.0, 0.5 -1.6707 0.0, 0.6575 -1.699 0.0, 0.6413 -1.699 0.0, 0.5767 -1.699 0.0, 0.5767 -1.7737 0.0, 0.5162 -1.7737 0.0, 0.6413 -1.7737 0.0, 0.5929 -1.7737 0.0, 0.5929 -1.699 0.0, 0.5162 -1.699 0.0, 0.6565 -1.6137 0.0, 0.6575 -1.6389 0.0, 0.6575 -1.6707 0.0, 0.5381 -1.5499 0.0, 0.5219 -1.5606 0.0, 0.5 -1.5213 0.0, 0.5119 -1.5719 0.0, 0.5052 -1.5851 0.0, 0.6575 -1.4466 0.0, 0.6518 -1.5889 0.0, 0.6438 -1.573 0.0, 0.8031 -1.1024 0.0, 0.6575 -1.4446 0.0, 0.498 -1.1024 0.0, 0.5 -1.3719 0.0, 0.5 -1.3873 0.0, 0.6575 -1.7878 0.0, 0.5 -1.7878 0.0, 0.5 -1.699 0.0, 0.5 -1.5059 0.0, 0.5 -1.6219 0.0, 0.5009 -1.605 0.0, 0.6336 -1.5613 0.0, 0.6192 -1.5513 0.0, 0.6026 -1.5447 0.0, 0.5834 -1.5417 0.0, 0.5768 -1.5415 0.0, 0.5557 -1.5437 0.0, 0.1969 -1.1024 0.0, 0.5505 -1.4819 0.0, 0.5505 -1.4105 0.0, 0.9524 -2.0866 0.1791, 0.626 -2.0866 0.3583, 0.374 -2.0866 0.3583, 0.0476 -2.0866 0.1791, 1.626 -2.0866 0.3583, 1.374 -2.0866 0.3583, 1.0476 -2.0866 0.1791, 2.626 -2.0866 0.3583, 2.374 -2.0866 0.3583, 2.0476 -2.0866 0.1791, 3.626 -2.0866 0.3583, 3.374 -2.0866 0.3583, 3.0476 -2.0866 0.1791, -3.813 -2.0866 0.0118, -3.813 -2.0866 0.1791, -3.9524 -2.0866 0.1791, -2.374 -2.0866 0.3583, -2.626 -2.0866 0.3583, -2.9524 -2.0866 0.1791, -1.374 -2.0866 0.3583, -1.626 -2.0866 0.3583, -1.9524 -2.0866 0.1791, -0.374 -2.0866 0.3583, -0.626 -2.0866 0.3583, -0.9524 -2.0866 0.1791, -0.8031 -2.0866 0.0, -0.1969 -2.0866 0.0, -0.0476 -2.0866 0.1791, -1.0 -2.0866 0.2362, -1.0 -2.0866 0.9843, -0.626 -2.0866 0.6102, 0.0 -2.0866 0.9843, -0.374 -2.0866 0.6102, 0.0 -2.0866 0.2362, -2.0 -2.0866 0.2362, -2.0 -2.0866 0.9843, -1.626 -2.0866 0.6102, -1.374 -2.0866 0.6102, -1.0476 -2.0866 0.1791, -1.8031 -2.0866 0.0, -1.1969 -2.0866 0.0, -3.0 -2.0866 0.2362, -3.0 -2.0866 0.9843, -2.626 -2.0866 0.6102, -2.374 -2.0866 0.6102, -2.0476 -2.0866 0.1791, -2.8031 -2.0866 0.0, -2.1969 -2.0866 0.0, -3.626 -2.0866 0.3583, -3.626 -2.0866 0.6102, -3.813 -2.0866 0.9843, -3.374 -2.0866 0.6102, -3.374 -2.0866 0.3583, -3.0476 -2.0866 0.1791, -3.8031 -2.0866 0.0, -3.1969 -2.0866 0.0, -4.0 -2.0866 0.2362, -3.813 -2.0866 1.9567, -4.0 -2.0866 1.7323, -4.0 -2.0866 0.9843, -3.0 -2.0866 1.7323, -3.1969 -2.0866 1.9685, -3.374 -2.0866 1.6102, -3.8031 -2.0866 1.9685, -3.626 -2.0866 1.6102, -3.626 -2.0866 1.3583, -3.374 -2.0866 1.3583, -2.626 -2.0866 1.6102, -2.374 -2.0866 1.6102, -2.1969 -2.0866 1.9685, -2.8031 -2.0866 1.9685, -2.626 -2.0866 1.3583, -2.374 -2.0866 1.3583, -2.0 -2.0866 1.7323, -1.626 -2.0866 1.6102, -1.374 -2.0866 1.6102, -1.1969 -2.0866 1.9685, -1.8031 -2.0866 1.9685, -1.626 -2.0866 1.3583, -1.374 -2.0866 1.3583, -1.0 -2.0866 1.7323, -0.626 -2.0866 1.6102, -0.374 -2.0866 1.6102, -0.1969 -2.0866 1.9685, -0.8031 -2.0866 1.9685, -0.626 -2.0866 1.3583, -0.374 -2.0866 1.3583, 0.0 -2.0866 1.7323, 0.374 -2.0866 1.6102, 0.626 -2.0866 1.6102, 0.8031 -2.0866 1.9685, 0.1969 -2.0866 1.9685, 0.374 -2.0866 1.3583, 0.626 -2.0866 1.3583, 1.0 -2.0866 0.9843, 1.0 -2.0866 1.7323, 1.374 -2.0866 1.6102, 1.626 -2.0866 1.6102, 1.8031 -2.0866 1.9685, 1.1969 -2.0866 1.9685, 1.374 -2.0866 1.3583, 1.626 -2.0866 1.3583, 2.0 -2.0866 0.9843, 2.0 -2.0866 1.7323, 2.374 -2.0866 1.6102, 2.626 -2.0866 1.6102, 2.8031 -2.0866 1.9685, 2.1969 -2.0866 1.9685, 2.374 -2.0866 1.3583, 2.626 -2.0866 1.3583, 3.0 -2.0866 0.9843, 3.0 -2.0866 1.7323, 3.374 -2.0866 1.6102, 3.626 -2.0866 1.6102, 3.8031 -2.0866 1.9685, 3.1969 -2.0866 1.9685, 3.374 -2.0866 1.3583, 3.626 -2.0866 1.3583, 4.0 -2.0866 0.9843, 4.0 -2.0866 1.7323, 3.0 -2.0866 0.2362, 3.374 -2.0866 0.6102, 3.626 -2.0866 0.6102, 4.0 -2.0866 0.2362, 3.9524 -2.0866 0.1791, 3.1969 -2.0866 0.0, 3.8031 -2.0866 0.0, 2.0 -2.0866 0.2362, 2.374 -2.0866 0.6102, 2.626 -2.0866 0.6102, 2.9524 -2.0866 0.1791, 2.1969 -2.0866 0.0, 2.8031 -2.0866 0.0, 1.0 -2.0866 0.2362, 1.374 -2.0866 0.6102, 1.626 -2.0866 0.6102, 1.9524 -2.0866 0.1791, 1.1969 -2.0866 0.0, 1.8031 -2.0866 0.0, 0.626 -2.0866 0.6102, 0.374 -2.0866 0.6102, 0.374 -1.3386 0.3583, 0.626 -1.3386 0.3583, 0.9344 -1.3386 0.1575, 0.0656 -1.3386 0.1575, 0.0 -1.3386 0.2362, 0.374 -1.3386 0.6102, 0.0 -1.3386 0.9843, 0.626 -1.3386 0.6102, 1.0 -1.3386 0.9843, 1.0 -1.3386 0.2362, 1.374 -1.3386 0.3583, 1.626 -1.3386 0.3583, 1.9344 -1.3386 0.1575, 1.0656 -1.3386 0.1575, 1.374 -1.3386 0.6102, 1.626 -1.3386 0.6102, 2.0 -1.3386 0.9843, 2.0 -1.3386 0.2362, 2.374 -1.3386 0.3583, 2.626 -1.3386 0.3583, 2.9344 -1.3386 0.1575, 2.0656 -1.3386 0.1575, 2.374 -1.3386 0.6102, 2.626 -1.3386 0.6102, 3.0 -1.3386 0.9843, 3.0 -1.3386 0.2362, 3.374 -1.3386 0.3583, 3.626 -1.3386 0.3583, 3.9344 -1.3386 0.1575, 3.0656 -1.3386 0.1575, 3.374 -1.3386 0.6102, 3.626 -1.3386 0.6102, 4.0 -1.3386 0.9843, 4.0 -1.3386 0.2362, 3.0656 -1.3386 1.811, 3.9344 -1.3386 1.811, 3.0 -1.3386 1.7323, 4.0 -1.3386 1.7323, 3.0 -1.3386 1.7106, 2.0 -1.3386 1.7106, 2.0 -1.3386 1.7323, 2.0656 -1.3386 1.811, 2.9344 -1.3386 1.811, 1.0 -1.3386 1.7323, 1.0656 -1.3386 1.811, 1.9344 -1.3386 1.811, 0.0656 -1.3386 1.811, 0.9344 -1.3386 1.811, 0.0 -1.3386 1.7323, 1.0 -1.3386 1.7106, -0.9344 -1.3386 1.811, -0.0656 -1.3386 1.811, -1.0 -1.3386 1.7323, 0.0 -1.3386 1.7106, -1.9344 -1.3386 1.811, -1.0656 -1.3386 1.811, -2.0 -1.3386 1.7323, -2.9344 -1.3386 1.811, -2.0656 -1.3386 1.811, -3.0 -1.3386 1.7323, -1.0 -1.3386 1.7106, -2.0 -1.3386 1.7106, -3.0 -1.3386 1.7106, -3.813 -1.3386 1.7106, -3.0656 -1.3386 1.811, -4.0 -1.3386 1.7106, -4.0 -1.3386 1.7323, -3.813 -1.3386 1.811, -3.9344 -1.3386 1.811, -3.374 -1.3386 0.3583, -3.0656 -1.3386 0.1575, -3.626 -1.3386 0.3583, -3.813 -1.3386 0.1575, -3.626 -1.3386 0.6102, -3.813 -1.3386 0.9843, -3.374 -1.3386 0.6102, -3.0 -1.3386 0.9843, -3.0 -1.3386 0.2362, -2.626 -1.3386 0.3583, -2.374 -1.3386 0.3583, -2.0656 -1.3386 0.1575, -2.9344 -1.3386 0.1575, -2.626 -1.3386 0.6102, -2.374 -1.3386 0.6102, -2.0 -1.3386 0.9843, -2.0 -1.3386 0.2362, -1.626 -1.3386 0.3583, -1.374 -1.3386 0.3583, -1.0656 -1.3386 0.1575, -1.9344 -1.3386 0.1575, -1.626 -1.3386 0.6102, -1.374 -1.3386 0.6102, -1.0 -1.3386 0.9843, -1.0 -1.3386 0.2362, -0.626 -1.3386 0.3583, -0.374 -1.3386 0.3583, -0.0656 -1.3386 0.1575, -0.9344 -1.3386 0.1575, -0.626 -1.3386 0.6102, -0.374 -1.3386 0.6102, -4.0 -1.3386 0.9843, -4.0 -1.3386 0.2362, -3.9344 -1.3386 0.1575, -3.374 -1.3386 1.6102, -3.374 -1.3386 1.3583, -3.626 -1.3386 1.3583, -3.626 -1.3386 1.6102, -2.374 -1.3386 1.6102, -2.374 -1.3386 1.3583, -2.626 -1.3386 1.3583, -2.626 -1.3386 1.6102, -1.374 -1.3386 1.6102, -1.374 -1.3386 1.3583, -1.626 -1.3386 1.3583, -1.626 -1.3386 1.6102, -0.374 -1.3386 1.6102, -0.374 -1.3386 1.3583, -0.626 -1.3386 1.3583, -0.626 -1.3386 1.6102, 0.626 -1.3386 1.6102, 0.626 -1.3386 1.3583, 0.374 -1.3386 1.3583, 0.374 -1.3386 1.6102, 1.374 -1.3386 1.6102, 1.374 -1.3386 1.3583, 1.626 -1.3386 1.3583, 1.626 -1.3386 1.6102, 2.626 -1.3386 1.6102, 2.626 -1.3386 1.3583, 2.374 -1.3386 1.3583, 2.374 -1.3386 1.6102, 4.0 -1.3386 1.7106, 3.374 -1.3386 1.6102, 3.374 -1.3386 1.3583, 3.626 -1.3386 1.3583, 3.626 -1.3386 1.6102, -0.1969 -1.1024 0.0, -0.8031 -1.1024 0.0, -0.0656 -1.1024 0.1575, -0.9344 -1.1024 0.1575, 0.9344 -1.1024 0.1575, 0.0656 -1.1024 0.1575, -2.9344 -1.1024 0.1575, -2.0656 -1.1024 0.1575, -2.8031 -1.1024 0.0, -2.1969 -1.1024 0.0, -1.9344 -1.1024 0.1575, -1.0656 -1.1024 0.1575, -1.8031 -1.1024 0.0, -1.1969 -1.1024 0.0, 1.0656 -1.1024 0.1575, 1.9344 -1.1024 0.1575, 1.1969 -1.1024 0.0, 1.8031 -1.1024 0.0, 2.0656 -1.1024 0.1575, 2.9344 -1.1024 0.1575, 2.1969 -1.1024 0.0, 2.8031 -1.1024 0.0, -0.0656 -1.1024 1.811, -0.9344 -1.1024 1.811, -0.1969 -1.1024 1.9685, -0.8031 -1.1024 1.9685, 0.1969 -1.1024 1.9685, 0.8031 -1.1024 1.9685, 0.0656 -1.1024 1.811, 0.9344 -1.1024 1.811, -2.0656 -1.1024 1.811, -2.9344 -1.1024 1.811, -2.1969 -1.1024 1.9685, -2.8031 -1.1024 1.9685, -1.8031 -1.1024 1.9685, -1.1969 -1.1024 1.9685, -1.9344 -1.1024 1.811, -1.0656 -1.1024 1.811, 1.1969 -1.1024 1.9685, 1.8031 -1.1024 1.9685, 1.0656 -1.1024 1.811, 1.9344 -1.1024 1.811, 2.1969 -1.1024 1.9685, 2.8031 -1.1024 1.9685, 2.0656 -1.1024 1.811, 2.9344 -1.1024 1.811, 3.8031 -1.1024 0.0, 3.1969 -1.1024 0.0, 3.9344 -1.1024 0.1575, 3.0656 -1.1024 0.1575, -3.0656 -1.1024 1.811, -3.9344 -1.1024 1.811, -3.1969 -1.1024 1.9685, -3.8031 -1.1024 1.9685, -3.9344 -1.1024 0.1575, -3.0656 -1.1024 0.1575, -3.8031 -1.1024 0.0, -3.1969 -1.1024 0.0, 3.9344 -1.1024 1.811, 3.0656 -1.1024 1.811, 3.8031 -1.1024 1.9685, 3.1969 -1.1024 1.9685
            ]
        }
        coordIndex [
            0,1,2,-1,3,4,5,-1,6,7,8,-1,9,10,5,-1,5,10,11,-1,5,11,3,-1,12,13,14,-1,15,16,10,-1,17,18,19,-1,16,20,10,-1,10,20,14,-1,10,14,0,-1,0,14,13,-1,0,13,1,-1,4,3,19,-1,19,3,21,-1,19,21,17,-1,7,22,8,-1,8,22,23,-1,8,23,24,-1,14,25,12,-1,12,25,26,-1,12,26,27,-1,27,26,28,-1,27,28,29,-1,29,28,30,-1,24,31,8,-1,8,31,32,-1,8,32,33,-1,34,35,36,-1,36,35,37,-1,36,37,38,-1,6,8,28,-1,28,8,39,-1,28,39,30,-1,33,40,8,-1,8,40,36,-1,8,36,41,-1,41,36,38,-1,42,43,44,-1,44,43,45,-1,44,45,9,-1,9,45,46,-1,9,46,47,-1,18,48,19,-1,19,48,49,-1,19,49,42,-1,42,49,50,-1,42,50,43,-1,51,52,10,-1,10,52,53,-1,10,53,15,-1,47,54,9,-1,9,54,55,-1,9,55,10,-1,10,55,56,-1,10,56,51,-1,57,58,59,-1,59,58,0,-1,59,0,60,-1,60,0,2,-1,3,61,21,-1,21,61,58,-1,21,58,62,-1,62,58,57,-1,63,64,65,-1,66,67,68,-1,69,70,65,-1,65,70,71,-1,65,71,63,-1,63,71,66,-1,63,66,72,-1,72,66,68,-1,73,10,74,-1,74,10,75,-1,76,77,78,-1,78,77,79,-1,78,79,80,-1,81,82,83,-1,73,82,10,-1,10,82,81,-1,10,81,84,-1,84,81,85,-1,84,85,86,-1,86,85,87,-1,86,87,88,-1,63,75,64,-1,64,75,10,-1,64,10,89,-1,89,10,0,-1,89,0,90,-1,90,0,91,-1,0,92,78,-1,72,91,63,-1,63,91,0,-1,63,0,93,-1,93,0,78,-1,93,78,94,-1,94,78,80,-1,83,95,81,-1,81,95,96,-1,81,96,97,-1,97,98,81,-1,81,98,99,-1,81,99,78,-1,78,99,100,-1,78,100,76,-1,58,101,0,-1,0,101,86,-1,0,86,92,-1,92,86,88,-1,92,88,102,-1,102,88,103,-1,3,11,104,-1,105,106,107,-1,108,109,110,-1,111,112,113,-1,114,115,116,-1,117,118,119,-1,120,121,122,-1,123,124,125,-1,126,127,128,-1,129,130,131,-1,128,127,132,-1,132,127,133,-1,133,127,134,-1,133,134,135,-1,135,134,136,-1,135,136,137,-1,137,136,126,-1,137,126,131,-1,131,126,128,-1,131,128,129,-1,125,124,138,-1,138,124,139,-1,139,124,140,-1,139,140,133,-1,133,140,141,-1,133,141,132,-1,132,141,123,-1,132,123,142,-1,123,125,142,-1,142,125,143,-1,142,143,144,-1,122,121,145,-1,145,121,146,-1,146,121,147,-1,146,147,139,-1,139,147,148,-1,139,148,138,-1,138,148,120,-1,138,120,149,-1,120,122,149,-1,149,122,150,-1,149,150,151,-1,152,153,154,-1,154,153,146,-1,146,153,155,-1,146,155,145,-1,145,155,156,-1,145,156,157,-1,158,159,117,-1,117,159,157,-1,117,157,118,-1,118,157,156,-1,118,156,152,-1,152,154,118,-1,118,154,160,-1,118,160,119,-1,161,162,154,-1,154,162,163,-1,154,163,160,-1,164,165,166,-1,166,165,167,-1,166,167,168,-1,168,167,161,-1,168,161,169,-1,169,161,154,-1,169,154,170,-1,170,154,146,-1,170,146,166,-1,166,146,164,-1,171,172,173,-1,173,174,171,-1,171,174,164,-1,171,164,175,-1,175,164,146,-1,175,146,176,-1,176,146,139,-1,176,139,172,-1,172,139,177,-1,172,177,173,-1,178,179,180,-1,180,181,178,-1,178,181,177,-1,178,177,182,-1,182,177,139,-1,182,139,183,-1,183,139,133,-1,183,133,179,-1,179,133,184,-1,179,184,180,-1,185,186,187,-1,187,188,185,-1,185,188,184,-1,185,184,189,-1,189,184,133,-1,189,133,190,-1,190,133,135,-1,190,135,186,-1,186,135,191,-1,186,191,187,-1,192,193,194,-1,194,195,192,-1,192,195,191,-1,192,191,196,-1,196,191,135,-1,196,135,197,-1,197,135,198,-1,197,198,193,-1,193,198,199,-1,193,199,194,-1,200,201,202,-1,202,203,200,-1,200,203,199,-1,200,199,204,-1,204,199,198,-1,204,198,205,-1,205,198,206,-1,205,206,201,-1,201,206,207,-1,201,207,202,-1,208,209,210,-1,210,211,208,-1,208,211,207,-1,208,207,212,-1,212,207,206,-1,212,206,213,-1,213,206,214,-1,213,214,209,-1,209,214,215,-1,209,215,210,-1,216,217,218,-1,218,219,216,-1,216,219,215,-1,216,215,220,-1,220,215,214,-1,220,214,221,-1,221,214,222,-1,221,222,217,-1,217,222,223,-1,217,223,218,-1,116,115,224,-1,224,115,214,-1,214,115,225,-1,214,225,222,-1,222,225,226,-1,222,226,227,-1,227,226,114,-1,227,114,228,-1,114,116,228,-1,228,116,229,-1,228,229,230,-1,113,112,231,-1,231,112,206,-1,206,112,232,-1,206,232,214,-1,214,232,233,-1,214,233,224,-1,224,233,111,-1,224,111,234,-1,111,113,234,-1,234,113,235,-1,234,235,236,-1,110,109,237,-1,237,109,198,-1,198,109,238,-1,198,238,206,-1,206,238,239,-1,206,239,231,-1,231,239,108,-1,231,108,240,-1,108,110,240,-1,240,110,241,-1,240,241,242,-1,61,3,107,-1,107,3,104,-1,107,104,105,-1,105,104,237,-1,105,237,243,-1,243,237,198,-1,243,198,244,-1,244,198,135,-1,244,135,106,-1,106,135,137,-1,106,137,107,-1,245,246,247,-1,247,248,245,-1,245,248,249,-1,245,249,250,-1,250,249,251,-1,250,251,252,-1,252,251,253,-1,252,253,246,-1,246,253,254,-1,246,254,247,-1,255,256,257,-1,257,258,255,-1,255,258,254,-1,255,254,259,-1,259,254,253,-1,259,253,260,-1,260,253,261,-1,260,261,256,-1,256,261,262,-1,256,262,257,-1,263,264,265,-1,265,266,263,-1,263,266,262,-1,263,262,267,-1,267,262,261,-1,267,261,268,-1,268,261,269,-1,268,269,264,-1,264,269,270,-1,264,270,265,-1,271,272,273,-1,273,274,271,-1,271,274,270,-1,271,270,275,-1,275,270,269,-1,275,269,276,-1,276,269,277,-1,276,277,272,-1,272,277,278,-1,272,278,273,-1,279,280,281,-1,281,280,282,-1,283,284,285,-1,286,287,285,-1,285,287,281,-1,285,281,283,-1,283,281,282,-1,288,289,290,-1,291,292,293,-1,293,292,288,-1,293,288,294,-1,295,296,297,-1,297,296,293,-1,297,293,298,-1,298,293,294,-1,299,300,301,-1,301,300,297,-1,302,303,304,-1,304,303,301,-1,298,305,297,-1,297,305,306,-1,297,306,301,-1,301,306,307,-1,301,307,304,-1,304,307,308,-1,304,308,309,-1,308,310,311,-1,309,308,312,-1,312,308,311,-1,312,311,313,-1,314,315,316,-1,316,315,317,-1,316,317,318,-1,318,317,319,-1,318,319,320,-1,320,319,321,-1,320,321,314,-1,314,321,322,-1,314,322,315,-1,323,324,325,-1,325,326,323,-1,323,326,322,-1,323,322,327,-1,327,322,321,-1,327,321,328,-1,328,321,329,-1,328,329,324,-1,324,329,330,-1,324,330,325,-1,331,332,333,-1,333,334,331,-1,331,334,330,-1,331,330,335,-1,335,330,329,-1,335,329,336,-1,336,329,337,-1,336,337,332,-1,332,337,338,-1,332,338,333,-1,339,340,341,-1,341,342,339,-1,339,342,338,-1,339,338,343,-1,343,338,337,-1,343,337,344,-1,344,337,251,-1,344,251,340,-1,340,251,249,-1,340,249,341,-1,310,308,345,-1,345,308,319,-1,345,319,346,-1,346,319,317,-1,346,317,347,-1,348,307,349,-1,349,307,321,-1,349,321,350,-1,350,321,319,-1,350,319,351,-1,351,319,308,-1,351,308,348,-1,348,308,307,-1,352,306,353,-1,353,306,329,-1,353,329,354,-1,354,329,321,-1,354,321,355,-1,355,321,307,-1,355,307,352,-1,352,307,306,-1,356,305,357,-1,357,305,337,-1,357,337,358,-1,358,337,329,-1,358,329,359,-1,359,329,306,-1,359,306,356,-1,356,306,305,-1,360,298,361,-1,361,298,251,-1,361,251,362,-1,362,251,337,-1,362,337,363,-1,363,337,305,-1,363,305,360,-1,360,305,298,-1,364,294,365,-1,365,294,253,-1,365,253,366,-1,366,253,251,-1,366,251,367,-1,367,251,298,-1,367,298,364,-1,364,298,294,-1,290,285,288,-1,288,285,284,-1,288,284,294,-1,294,284,368,-1,294,368,253,-1,253,368,369,-1,253,369,261,-1,261,369,370,-1,261,370,284,-1,284,370,371,-1,284,371,368,-1,372,283,373,-1,373,283,269,-1,373,269,374,-1,374,269,261,-1,374,261,375,-1,375,261,284,-1,375,284,372,-1,372,284,283,-1,282,376,283,-1,283,376,377,-1,283,377,269,-1,269,377,378,-1,269,378,277,-1,277,378,379,-1,277,379,376,-1,376,379,380,-1,376,380,377,-1,381,382,383,-1,383,382,384,-1,385,84,386,-1,386,84,86,-1,386,86,101,-1,387,388,389,-1,389,388,390,-1,391,392,393,-1,393,392,394,-1,395,396,397,-1,397,396,398,-1,399,400,401,-1,401,400,402,-1,130,129,381,-1,381,129,382,-1,389,390,150,-1,150,390,151,-1,393,394,143,-1,143,394,144,-1,397,398,241,-1,241,398,242,-1,401,402,235,-1,235,402,236,-1,383,384,341,-1,341,384,342,-1,248,247,386,-1,386,247,385,-1,326,325,387,-1,387,325,388,-1,334,333,391,-1,391,333,392,-1,258,257,395,-1,395,257,396,-1,266,265,399,-1,399,265,400,-1,403,404,405,-1,405,404,406,-1,407,408,409,-1,409,408,410,-1,411,412,413,-1,413,412,414,-1,415,416,417,-1,417,416,418,-1,419,420,421,-1,421,420,422,-1,423,424,425,-1,425,424,426,-1,406,188,405,-1,405,188,187,-1,194,408,195,-1,195,408,407,-1,414,174,413,-1,413,174,173,-1,180,416,181,-1,181,416,415,-1,202,420,203,-1,203,420,419,-1,210,424,211,-1,211,424,423,-1,296,295,403,-1,403,295,404,-1,409,410,291,-1,291,410,292,-1,303,302,411,-1,411,302,412,-1,417,418,299,-1,299,418,300,-1,421,422,289,-1,289,422,290,-1,425,426,286,-1,286,426,287,-1,427,428,429,-1,429,428,430,-1,431,432,433,-1,433,432,434,-1,434,167,433,-1,433,167,165,-1,230,229,427,-1,427,229,428,-1,429,430,273,-1,273,430,274,-1,309,313,431,-1,431,313,432,-1,435,436,437,-1,437,436,438,-1,227,278,222,-1,222,278,277,-1,222,277,223,-1,223,277,376,-1,223,376,282,-1,439,440,441,-1,441,440,442,-1,160,162,346,-1,346,162,311,-1,442,219,441,-1,441,219,218,-1,437,438,158,-1,158,438,159,-1,347,315,435,-1,435,315,436,-1,280,279,439,-1,439,279,440,-1,434,432,313,-1,311,162,313,-1,313,162,167,-1,313,167,434,-1,431,433,309,-1,309,433,165,-1,309,165,304,-1,304,165,164,-1,159,438,315,-1,315,438,436,-1,159,315,157,-1,157,315,322,-1,157,322,145,-1,435,437,347,-1,347,437,158,-1,347,158,346,-1,346,158,160,-1,
        ]
    }
}
Shape{
    appearance Appearance {
        material  Material 	{
            diffuseColor 0.7529411764705882 0.7529411764705882 0.7529411764705882
            specularColor 0.3764705882352941 0.3764705882352941 0.3764705882352941
            ambientIntensity 0.7529
            transparency 0.0
            shininess 0.5
        }
    }
    geometry IndexedFaceSet {
        ccw TRUE
        solid FALSE
        coord DEF co Coordinate {
            point [
                -3.626 -0.4488 0.6102, -3.374 -0.4488 0.6102, -3.374 -0.4187 0.6042, -3.626 -0.4187 0.6042, -3.374 -0.3931 0.5872, -3.626 -0.3931 0.5872, -3.374 -0.3761 0.5616, -3.626 -0.3761 0.5616, -3.374 -0.3701 0.5315, -3.626 -0.3701 0.5315, -3.626 -0.3701 -1.1024, -3.374 -0.3701 -1.1024, -3.626 -0.4488 -1.1811, -3.374 -0.4488 -1.1811, -3.626 -0.5433 -1.1811, -3.374 -0.5433 -1.1811, -3.626 -0.622 -1.1024, -3.374 -0.622 -1.1024, -3.626 -0.622 0.2795, -3.374 -0.622 0.2795, -3.626 -0.628 0.3097, -3.374 -0.628 0.3097, -3.626 -0.6451 0.3352, -3.374 -0.6451 0.3352, -3.626 -0.6707 0.3523, -3.374 -0.6707 0.3523, -3.626 -0.7008 0.3583, -3.374 -0.7008 0.3583, -3.374 -1.3386 0.6102, -3.374 -1.3386 0.3583, -3.626 -1.3386 0.3583, -3.626 -1.3386 0.6102, -3.374 -2.0866 0.3583, -3.374 -4.3701 0.3583, -3.626 -2.0866 0.3583, -3.626 -4.3701 0.3583, -3.626 -2.0866 0.6102, -3.626 -4.3701 0.6102, -3.374 -2.0866 0.6102, -3.374 -4.3701 0.6102, -3.626 -4.4488 0.437, -3.626 -4.4488 0.5315, -3.374 -4.4488 0.5315, -3.374 -4.4488 0.437, -3.626 0.5512 1.6102, -3.374 0.5512 1.6102, -3.374 0.5813 1.6042, -3.626 0.5813 1.6042, -3.374 0.6069 1.5872, -3.626 0.6069 1.5872, -3.374 0.6239 1.5616, -3.626 0.6239 1.5616, -3.374 0.6299 1.5315, -3.626 0.6299 1.5315, -3.626 0.6299 -1.1024, -3.374 0.6299 -1.1024, -3.626 0.5512 -1.1811, -3.374 0.5512 -1.1811, -3.626 0.4567 -1.1811, -3.374 0.4567 -1.1811, -3.626 0.378 -1.1024, -3.374 0.378 -1.1024, -3.626 0.378 1.2795, -3.374 0.378 1.2795, -3.626 0.372 1.3097, -3.374 0.372 1.3097, -3.626 0.3549 1.3352, -3.374 0.3549 1.3352, -3.626 0.3293 1.3523, -3.374 0.3293 1.3523, -3.626 0.2992 1.3583, -3.374 0.2992 1.3583, -3.374 -1.3386 1.6102, -3.374 -1.3386 1.3583, -3.626 -1.3386 1.3583, -3.626 -1.3386 1.6102, -3.374 -2.0866 1.3583, -3.374 -4.3701 1.3583, -3.626 -2.0866 1.3583, -3.626 -4.3701 1.3583, -3.626 -2.0866 1.6102, -3.626 -4.3701 1.6102, -3.374 -2.0866 1.6102, -3.374 -4.3701 1.6102, -3.626 -4.4488 1.5315, -3.626 -4.4488 1.437, -3.374 -4.4488 1.5315, -3.374 -4.4488 1.437
            ]
        }
        coordIndex [
            0,1,2,-1,0,2,3,-1,3,2,4,-1,3,4,5,-1,5,4,6,-1,5,6,7,-1,7,6,8,-1,7,8,9,-1,10,9,11,-1,11,9,8,-1,12,10,13,-1,13,10,11,-1,14,12,15,-1,15,12,13,-1,16,14,17,-1,17,14,15,-1,18,16,19,-1,19,16,17,-1,18,19,20,-1,20,19,21,-1,20,21,22,-1,22,21,23,-1,22,23,24,-1,24,23,25,-1,24,25,26,-1,26,25,27,-1,1,28,29,-1,29,27,1,-1,1,27,25,-1,1,25,2,-1,2,25,23,-1,15,13,17,-1,17,13,11,-1,17,11,19,-1,19,11,8,-1,19,8,21,-1,21,8,6,-1,21,6,23,-1,23,6,4,-1,23,4,2,-1,22,7,20,-1,20,7,9,-1,20,9,18,-1,30,31,26,-1,26,31,0,-1,26,0,24,-1,24,0,3,-1,24,3,22,-1,22,3,5,-1,22,5,7,-1,14,16,12,-1,12,16,18,-1,12,18,10,-1,10,18,9,-1,28,1,31,-1,31,1,0,-1,30,26,29,-1,29,26,27,-1,32,33,34,-1,34,33,35,-1,36,37,38,-1,38,37,39,-1,40,41,35,-1,35,41,37,-1,35,37,34,-1,34,37,36,-1,42,43,39,-1,39,43,33,-1,39,33,38,-1,38,33,32,-1,40,35,43,-1,43,35,33,-1,41,40,42,-1,42,40,43,-1,37,41,39,-1,39,41,42,-1,44,45,46,-1,44,46,47,-1,47,46,48,-1,47,48,49,-1,49,48,50,-1,49,50,51,-1,51,50,52,-1,51,52,53,-1,54,53,55,-1,55,53,52,-1,56,54,57,-1,57,54,55,-1,58,56,59,-1,59,56,57,-1,60,58,61,-1,61,58,59,-1,62,60,63,-1,63,60,61,-1,62,63,64,-1,64,63,65,-1,64,65,66,-1,66,65,67,-1,66,67,68,-1,68,67,69,-1,68,69,70,-1,70,69,71,-1,45,72,73,-1,59,57,61,-1,61,57,55,-1,61,55,63,-1,63,55,52,-1,63,52,65,-1,65,52,50,-1,65,50,67,-1,73,71,45,-1,45,71,69,-1,45,69,46,-1,46,69,67,-1,46,67,48,-1,48,67,50,-1,56,58,54,-1,54,58,60,-1,54,60,53,-1,74,75,70,-1,70,75,44,-1,70,44,68,-1,68,44,47,-1,68,47,66,-1,60,62,53,-1,53,62,64,-1,53,64,51,-1,51,64,66,-1,51,66,49,-1,49,66,47,-1,72,45,75,-1,75,45,44,-1,74,70,73,-1,73,70,71,-1,76,77,78,-1,78,77,79,-1,80,81,82,-1,82,81,83,-1,80,78,81,-1,81,78,79,-1,81,79,84,-1,84,79,85,-1,86,87,83,-1,83,87,77,-1,83,77,82,-1,82,77,76,-1,85,79,87,-1,87,79,77,-1,84,85,86,-1,86,85,87,-1,81,84,83,-1,83,84,86,-1,
        ]
    }
}
Shape{
    appearance Appearance {
        material  Material 	{
            diffuseColor 0.14901960784313725 0.14901960784313725 0.14901960784313725
            specularColor 0.07450980392156863 0.07450980392156863 0.07450980392156863
            ambientIntensity 0.149
            transparency 0.0
            shininess 0.5
        }
    }
    geometry IndexedFaceSet {
        ccw TRUE
        solid FALSE
        coord DEF co Coordinate {
            point [
                -2.9344 -1.3386 0.1575, -2.9344 -1.1024 0.1575, -2.8031 -1.1024 0.0, -3.0 -2.0866 0.2362, -3.0 -1.3386 0.2362, -2.9524 -2.0866 0.1791, -2.8031 -2.0866 0.0, -2.8031 -1.1024 1.9685, -2.9344 -1.1024 1.811, -2.9344 -1.3386 1.811, -3.0 -1.3386 1.7323, -3.0 -2.0866 1.7323, -2.8031 -2.0866 1.9685, 2.9344 -1.1024 1.811, 2.8031 -1.1024 1.9685, 2.9344 -1.3386 1.811, 2.8031 -2.0866 1.9685, 3.0 -1.3386 1.7323, 3.0 -2.0866 1.7323, 3.1969 -1.1024 1.9685, 3.0656 -1.1024 1.811, 3.0656 -1.3386 1.811, 3.1969 -2.0866 1.9685, 1.9344 -1.1024 1.811, 1.8031 -1.1024 1.9685, 1.9344 -1.3386 1.811, 1.8031 -2.0866 1.9685, 2.0 -1.3386 1.7323, 2.0 -2.0866 1.7323, 2.1969 -1.1024 1.9685, 2.0656 -1.1024 1.811, 2.0656 -1.3386 1.811, 2.1969 -2.0866 1.9685, 3.9344 -1.1024 1.811, 3.8031 -1.1024 1.9685, 3.9344 -1.3386 1.811, 3.8031 -2.0866 1.9685, 4.0 -1.3386 1.7323, 4.0 -2.0866 1.7323, -1.0656 -1.1024 1.811, -1.1969 -1.1024 1.9685, -1.0656 -1.3386 1.811, -1.1969 -2.0866 1.9685, -1.0 -1.3386 1.7323, -1.0 -2.0866 1.7323, -0.8031 -1.1024 1.9685, -0.9344 -1.1024 1.811, -0.9344 -1.3386 1.811, -0.8031 -2.0866 1.9685, -2.0656 -1.1024 1.811, -2.1969 -1.1024 1.9685, -2.0656 -1.3386 1.811, -2.1969 -2.0866 1.9685, -2.0 -1.3386 1.7323, -2.0 -2.0866 1.7323, -1.8031 -1.1024 1.9685, -1.9344 -1.1024 1.811, -1.9344 -1.3386 1.811, -1.8031 -2.0866 1.9685, 0.9344 -1.1024 1.811, 0.8031 -1.1024 1.9685, 0.9344 -1.3386 1.811, 0.8031 -2.0866 1.9685, 1.0 -1.3386 1.7323, 1.0 -2.0866 1.7323, 1.1969 -1.1024 1.9685, 1.0656 -1.1024 1.811, 1.0656 -1.3386 1.811, 1.1969 -2.0866 1.9685, -0.0656 -1.1024 1.811, -0.1969 -1.1024 1.9685, -0.0656 -1.3386 1.811, -0.1969 -2.0866 1.9685, 0.0 -1.3386 1.7323, 0.0 -2.0866 1.7323, 0.1969 -1.1024 1.9685, 0.0656 -1.1024 1.811, 0.0656 -1.3386 1.811, 0.1969 -2.0866 1.9685, 3.8031 -2.0866 0.0, 3.8031 -1.1024 0.0, 3.9344 -1.3386 0.1575, 3.9344 -1.1024 0.1575, 3.9524 -2.0866 0.1791, 4.0 -1.3386 0.2362, 4.0 -2.0866 0.2362, 2.8031 -2.0866 0.0, 2.8031 -1.1024 0.0, 2.9344 -1.3386 0.1575, 2.9344 -1.1024 0.1575, 2.9524 -2.0866 0.1791, 3.0 -1.3386 0.2362, 3.0 -2.0866 0.2362, 3.0656 -1.3386 0.1575, 3.0656 -1.1024 0.1575, 3.1969 -1.1024 0.0, 3.0476 -2.0866 0.1791, 3.1969 -2.0866 0.0, 1.8031 -2.0866 0.0, 1.8031 -1.1024 0.0, 1.9344 -1.3386 0.1575, 1.9344 -1.1024 0.1575, 1.9524 -2.0866 0.1791, 2.0 -1.3386 0.2362, 2.0 -2.0866 0.2362, 2.0656 -1.3386 0.1575, 2.0656 -1.1024 0.1575, 2.1969 -1.1024 0.0, 2.0476 -2.0866 0.1791, 2.1969 -2.0866 0.0, -1.1969 -2.0866 0.0, -1.1969 -1.1024 0.0, -1.0656 -1.3386 0.1575, -1.0656 -1.1024 0.1575, -1.0476 -2.0866 0.1791, -1.0 -1.3386 0.2362, -1.0 -2.0866 0.2362, -0.9344 -1.3386 0.1575, -0.9344 -1.1024 0.1575, -0.8031 -1.1024 0.0, -0.9524 -2.0866 0.1791, -0.8031 -2.0866 0.0, -2.1969 -2.0866 0.0, -2.1969 -1.1024 0.0, -2.0656 -1.3386 0.1575, -2.0656 -1.1024 0.1575, -2.0476 -2.0866 0.1791, -2.0 -1.3386 0.2362, -2.0 -2.0866 0.2362, -1.9344 -1.3386 0.1575, -1.9344 -1.1024 0.1575, -1.8031 -1.1024 0.0, -1.9524 -2.0866 0.1791, -1.8031 -2.0866 0.0, 0.8031 -1.1024 0.0, 0.9344 -1.1024 0.1575, 0.8031 -1.804 0.0, 0.9344 -1.3386 0.1575, 0.8031 -2.0866 0.0, 0.9524 -2.0866 0.1791, 1.0 -2.0866 0.2362, 1.0 -1.3386 0.2362, 1.0656 -1.3386 0.1575, 1.0656 -1.1024 0.1575, 1.1969 -1.1024 0.0, 1.0476 -2.0866 0.1791, 1.1969 -2.0866 0.0, -0.1969 -2.0866 0.0, -0.1969 -1.1024 0.0, -0.0656 -1.3386 0.1575, -0.0656 -1.1024 0.1575, -0.0476 -2.0866 0.1791, 0.0 -1.3386 0.2362, 0.0 -2.0866 0.2362, 0.0656 -1.1024 0.1575, 0.1969 -1.1024 0.0, 0.0656 -1.3386 0.1575, 0.1969 -1.804 0.0, 0.0476 -2.0866 0.1791, 0.1969 -2.0866 0.0
            ]
        }
        coordIndex [
            0,1,2,-1,3,4,5,-1,5,4,0,-1,5,0,6,-1,6,0,2,-1,7,8,9,-1,10,11,9,-1,9,11,12,-1,9,12,7,-1,13,14,15,-1,15,14,16,-1,15,16,17,-1,17,16,18,-1,19,20,21,-1,17,18,21,-1,21,18,22,-1,21,22,19,-1,23,24,25,-1,25,24,26,-1,25,26,27,-1,27,26,28,-1,29,30,31,-1,27,28,31,-1,31,28,32,-1,31,32,29,-1,33,34,35,-1,35,34,36,-1,35,36,37,-1,37,36,38,-1,39,40,41,-1,41,40,42,-1,41,42,43,-1,43,42,44,-1,45,46,47,-1,43,44,47,-1,47,44,48,-1,47,48,45,-1,49,50,51,-1,51,50,52,-1,51,52,53,-1,53,52,54,-1,55,56,57,-1,53,54,57,-1,57,54,58,-1,57,58,55,-1,59,60,61,-1,61,60,62,-1,61,62,63,-1,63,62,64,-1,65,66,67,-1,63,64,67,-1,67,64,68,-1,67,68,65,-1,69,70,71,-1,71,70,72,-1,71,72,73,-1,73,72,74,-1,75,76,77,-1,73,74,77,-1,77,74,78,-1,77,78,75,-1,79,80,81,-1,81,80,82,-1,79,81,83,-1,83,81,84,-1,83,84,85,-1,86,87,88,-1,88,87,89,-1,86,88,90,-1,90,88,91,-1,90,91,92,-1,93,94,95,-1,92,91,96,-1,96,91,93,-1,96,93,97,-1,97,93,95,-1,98,99,100,-1,100,99,101,-1,98,100,102,-1,102,100,103,-1,102,103,104,-1,105,106,107,-1,104,103,108,-1,108,103,105,-1,108,105,109,-1,109,105,107,-1,110,111,112,-1,112,111,113,-1,110,112,114,-1,114,112,115,-1,114,115,116,-1,117,118,119,-1,116,115,120,-1,120,115,117,-1,120,117,121,-1,121,117,119,-1,122,123,124,-1,124,123,125,-1,122,124,126,-1,126,124,127,-1,126,127,128,-1,129,130,131,-1,128,127,132,-1,132,127,129,-1,132,129,133,-1,133,129,131,-1,134,135,136,-1,136,135,137,-1,138,136,139,-1,139,136,137,-1,139,137,140,-1,140,137,141,-1,142,143,144,-1,140,141,145,-1,145,141,142,-1,145,142,146,-1,146,142,144,-1,147,148,149,-1,149,148,150,-1,147,149,151,-1,151,149,152,-1,151,152,153,-1,154,155,156,-1,156,155,157,-1,153,152,158,-1,158,152,156,-1,158,156,159,-1,159,156,157,-1,
        ]
    }
}
Shape{
    appearance Appearance {
        material  Material 	{
            diffuseColor 0.7529411764705882 0.7529411764705882 0.7529411764705882
            specularColor 0.3764705882352941 0.3764705882352941 0.3764705882352941
            ambientIntensity 0.7529
            transparency 0.0
            shininess 0.5
        }
    }
    geometry IndexedFaceSet {
        ccw TRUE
        solid FALSE
        coord DEF co Coordinate {
            point [
                -2.626 -0.4488 0.6102, -2.374 -0.4488 0.6102, -2.374 -0.4313 0.6083, -2.626 -0.4313 0.6083, -2.374 -0.4147 0.6024, -2.626 -0.4147 0.6024, -2.374 -0.3997 0.5931, -2.626 -0.3997 0.5931, -2.374 -0.3873 0.5806, -2.626 -0.3873 0.5806, -2.374 -0.3779 0.5657, -2.626 -0.3779 0.5657, -2.374 -0.3721 0.549, -2.626 -0.3721 0.549, -2.374 -0.3701 0.5315, -2.626 -0.3701 0.5315, -2.626 -0.3701 -1.1024, -2.374 -0.3701 -1.1024, -2.626 -0.4488 -1.1811, -2.374 -0.4488 -1.1811, -2.626 -0.5433 -1.1811, -2.374 -0.5433 -1.1811, -2.626 -0.622 -1.1024, -2.374 -0.622 -1.1024, -2.626 -0.622 0.2795, -2.374 -0.622 0.2795, -2.626 -0.624 0.2971, -2.374 -0.624 0.2971, -2.626 -0.6298 0.3137, -2.374 -0.6298 0.3137, -2.626 -0.6392 0.3286, -2.374 -0.6392 0.3286, -2.626 -0.6517 0.3411, -2.374 -0.6517 0.3411, -2.626 -0.6666 0.3505, -2.374 -0.6666 0.3505, -2.626 -0.6833 0.3563, -2.374 -0.6833 0.3563, -2.626 -0.7008 0.3583, -2.374 -0.7008 0.3583, -2.374 -1.3386 0.6102, -2.374 -1.3386 0.3583, -2.626 -1.3386 0.3583, -2.626 -1.3386 0.6102, -2.374 -2.0866 0.3583, -2.374 -4.3701 0.3583, -2.626 -2.0866 0.3583, -2.626 -4.3701 0.3583, -2.626 -2.0866 0.6102, -2.626 -4.3701 0.6102, -2.374 -2.0866 0.6102, -2.374 -4.3701 0.6102, -2.626 -4.4488 0.437, -2.626 -4.4488 0.5315, -2.374 -4.4488 0.5315, -2.374 -4.4488 0.437, -2.626 0.5512 1.6102, -2.374 0.5512 1.6102, -2.374 0.5687 1.6083, -2.626 0.5687 1.6083, -2.374 0.5853 1.6024, -2.626 0.5853 1.6024, -2.374 0.6003 1.5931, -2.626 0.6003 1.5931, -2.374 0.6127 1.5806, -2.626 0.6127 1.5806, -2.374 0.6221 1.5657, -2.626 0.6221 1.5657, -2.374 0.6279 1.549, -2.626 0.6279 1.549, -2.374 0.6299 1.5315, -2.626 0.6299 1.5315, -2.626 0.6299 -1.1024, -2.374 0.6299 -1.1024, -2.626 0.5512 -1.1811, -2.374 0.5512 -1.1811, -2.626 0.4567 -1.1811, -2.374 0.4567 -1.1811, -2.626 0.378 -1.1024, -2.374 0.378 -1.1024, -2.626 0.378 1.2795, -2.374 0.378 1.2795, -2.626 0.376 1.2971, -2.374 0.376 1.2971, -2.626 0.3702 1.3137, -2.374 0.3702 1.3137, -2.626 0.3608 1.3286, -2.374 0.3608 1.3286, -2.626 0.3483 1.3411, -2.374 0.3483 1.3411, -2.626 0.3334 1.3505, -2.374 0.3334 1.3505, -2.626 0.3167 1.3563, -2.374 0.3167 1.3563, -2.626 0.2992 1.3583, -2.374 0.2992 1.3583, -2.374 -1.3386 1.6102, -2.374 -1.3386 1.3583, -2.626 -1.3386 1.3583, -2.626 -1.3386 1.6102, -2.374 -2.0866 1.3583, -2.374 -4.3701 1.3583, -2.626 -2.0866 1.3583, -2.626 -4.3701 1.3583, -2.626 -2.0866 1.6102, -2.626 -4.3701 1.6102, -2.374 -2.0866 1.6102, -2.374 -4.3701 1.6102, -2.626 -4.4488 1.437, -2.626 -4.4488 1.5315, -2.374 -4.4488 1.5315, -2.374 -4.4488 1.437, -1.626 -0.4488 0.6102, -1.374 -0.4488 0.6102, -1.374 -0.4313 0.6083, -1.626 -0.4313 0.6083, -1.374 -0.4147 0.6024, -1.626 -0.4147 0.6024, -1.374 -0.3997 0.5931, -1.626 -0.3997 0.5931, -1.374 -0.3873 0.5806, -1.626 -0.3873 0.5806, -1.374 -0.3779 0.5657, -1.626 -0.3779 0.5657, -1.374 -0.3721 0.549, -1.626 -0.3721 0.549, -1.374 -0.3701 0.5315, -1.626 -0.3701 0.5315, -1.626 -0.3701 -1.1024, -1.374 -0.3701 -1.1024, -1.626 -0.4488 -1.1811, -1.374 -0.4488 -1.1811, -1.626 -0.5433 -1.1811, -1.374 -0.5433 -1.1811, -1.626 -0.622 -1.1024, -1.374 -0.622 -1.1024, -1.626 -0.622 0.2795, -1.374 -0.622 0.2795, -1.626 -0.624 0.2971, -1.374 -0.624 0.2971, -1.626 -0.6298 0.3137, -1.374 -0.6298 0.3137, -1.626 -0.6392 0.3286, -1.374 -0.6392 0.3286, -1.626 -0.6517 0.3411, -1.374 -0.6517 0.3411, -1.626 -0.6666 0.3505, -1.374 -0.6666 0.3505, -1.626 -0.6833 0.3563, -1.374 -0.6833 0.3563, -1.626 -0.7008 0.3583, -1.374 -0.7008 0.3583, -1.374 -1.3386 0.6102, -1.374 -1.3386 0.3583, -1.626 -1.3386 0.3583, -1.626 -1.3386 0.6102, -1.374 -2.0866 0.3583, -1.374 -4.3701 0.3583, -1.626 -2.0866 0.3583, -1.626 -4.3701 0.3583, -1.626 -2.0866 0.6102, -1.626 -4.3701 0.6102, -1.374 -2.0866 0.6102, -1.374 -4.3701 0.6102, -1.626 -4.4488 0.437, -1.626 -4.4488 0.5315, -1.374 -4.4488 0.5315, -1.374 -4.4488 0.437, -1.626 0.5512 1.6102, -1.374 0.5512 1.6102, -1.374 0.5687 1.6083, -1.626 0.5687 1.6083, -1.374 0.5853 1.6024, -1.626 0.5853 1.6024, -1.374 0.6003 1.5931, -1.626 0.6003 1.5931, -1.374 0.6127 1.5806, -1.626 0.6127 1.5806, -1.374 0.6221 1.5657, -1.626 0.6221 1.5657, -1.374 0.6279 1.549, -1.626 0.6279 1.549, -1.374 0.6299 1.5315, -1.626 0.6299 1.5315, -1.626 0.6299 -1.1024, -1.374 0.6299 -1.1024, -1.626 0.5512 -1.1811, -1.374 0.5512 -1.1811, -1.626 0.4567 -1.1811, -1.374 0.4567 -1.1811, -1.626 0.378 -1.1024, -1.374 0.378 -1.1024, -1.626 0.378 1.2795, -1.374 0.378 1.2795, -1.626 0.376 1.2971, -1.374 0.376 1.2971, -1.626 0.3702 1.3137, -1.374 0.3702 1.3137, -1.626 0.3608 1.3286, -1.374 0.3608 1.3286, -1.626 0.3483 1.3411, -1.374 0.3483 1.3411, -1.626 0.3334 1.3505, -1.374 0.3334 1.3505, -1.626 0.3167 1.3563, -1.374 0.3167 1.3563, -1.626 0.2992 1.3583, -1.374 0.2992 1.3583, -1.374 -1.3386 1.6102, -1.374 -1.3386 1.3583, -1.626 -1.3386 1.3583, -1.626 -1.3386 1.6102, -1.374 -2.0866 1.3583, -1.374 -4.3701 1.3583, -1.626 -2.0866 1.3583, -1.626 -4.3701 1.3583, -1.626 -2.0866 1.6102, -1.626 -4.3701 1.6102, -1.374 -2.0866 1.6102, -1.374 -4.3701 1.6102, -1.626 -4.4488 1.437, -1.626 -4.4488 1.5315, -1.374 -4.4488 1.5315, -1.374 -4.4488 1.437, -0.626 -0.4488 0.6102, -0.374 -0.4488 0.6102, -0.374 -0.4313 0.6083, -0.626 -0.4313 0.6083, -0.374 -0.4147 0.6024, -0.626 -0.4147 0.6024, -0.374 -0.3997 0.5931, -0.626 -0.3997 0.5931, -0.374 -0.3873 0.5806, -0.626 -0.3873 0.5806, -0.374 -0.3779 0.5657, -0.626 -0.3779 0.5657, -0.374 -0.3721 0.549, -0.626 -0.3721 0.549, -0.374 -0.3701 0.5315, -0.626 -0.3701 0.5315, -0.626 -0.3701 -1.1024, -0.374 -0.3701 -1.1024, -0.626 -0.4488 -1.1811, -0.374 -0.4488 -1.1811, -0.626 -0.5433 -1.1811, -0.374 -0.5433 -1.1811, -0.626 -0.622 -1.1024, -0.374 -0.622 -1.1024, -0.626 -0.622 0.2795, -0.374 -0.622 0.2795, -0.626 -0.624 0.2971, -0.374 -0.624 0.2971, -0.626 -0.6298 0.3137, -0.374 -0.6298 0.3137, -0.626 -0.6392 0.3286, -0.374 -0.6392 0.3286, -0.626 -0.6517 0.3411, -0.374 -0.6517 0.3411, -0.626 -0.6666 0.3505, -0.374 -0.6666 0.3505, -0.626 -0.6833 0.3563, -0.374 -0.6833 0.3563, -0.626 -0.7008 0.3583, -0.374 -0.7008 0.3583, -0.374 -1.3386 0.6102, -0.374 -1.3386 0.3583, -0.626 -1.3386 0.3583, -0.626 -1.3386 0.6102, -0.374 -2.0866 0.3583, -0.374 -4.3701 0.3583, -0.626 -2.0866 0.3583, -0.626 -4.3701 0.3583, -0.626 -2.0866 0.6102, -0.626 -4.3701 0.6102, -0.374 -2.0866 0.6102, -0.374 -4.3701 0.6102, -0.626 -4.4488 0.437, -0.626 -4.4488 0.5315, -0.374 -4.4488 0.5315, -0.374 -4.4488 0.437, -0.626 0.5512 1.6102, -0.374 0.5512 1.6102, -0.374 0.5687 1.6083, -0.626 0.5687 1.6083, -0.374 0.5853 1.6024, -0.626 0.5853 1.6024, -0.374 0.6003 1.5931, -0.626 0.6003 1.5931, -0.374 0.6127 1.5806, -0.626 0.6127 1.5806, -0.374 0.6221 1.5657, -0.626 0.6221 1.5657, -0.374 0.6279 1.549, -0.626 0.6279 1.549, -0.374 0.6299 1.5315, -0.626 0.6299 1.5315, -0.626 0.6299 -1.1024, -0.374 0.6299 -1.1024, -0.626 0.5512 -1.1811, -0.374 0.5512 -1.1811, -0.626 0.4567 -1.1811, -0.374 0.4567 -1.1811, -0.626 0.378 -1.1024, -0.374 0.378 -1.1024, -0.626 0.378 1.2795, -0.374 0.378 1.2795, -0.626 0.376 1.2971, -0.374 0.376 1.2971, -0.626 0.3702 1.3137, -0.374 0.3702 1.3137, -0.626 0.3608 1.3286, -0.374 0.3608 1.3286, -0.626 0.3483 1.3411, -0.374 0.3483 1.3411, -0.626 0.3334 1.3505, -0.374 0.3334 1.3505, -0.626 0.3167 1.3563, -0.374 0.3167 1.3563, -0.626 0.2992 1.3583, -0.374 0.2992 1.3583, -0.374 -1.3386 1.6102, -0.374 -1.3386 1.3583, -0.626 -1.3386 1.3583, -0.626 -1.3386 1.6102, -0.374 -2.0866 1.3583, -0.374 -4.3701 1.3583, -0.626 -2.0866 1.3583, -0.626 -4.3701 1.3583, -0.626 -2.0866 1.6102, -0.626 -4.3701 1.6102, -0.374 -2.0866 1.6102, -0.374 -4.3701 1.6102, -0.626 -4.4488 1.437, -0.626 -4.4488 1.5315, -0.374 -4.4488 1.5315, -0.374 -4.4488 1.437, 0.374 -0.4488 0.6102, 0.626 -0.4488 0.6102, 0.626 -0.4313 0.6083, 0.374 -0.4313 0.6083, 0.626 -0.4147 0.6024, 0.374 -0.4147 0.6024, 0.626 -0.3997 0.5931, 0.374 -0.3997 0.5931, 0.626 -0.3873 0.5806, 0.374 -0.3873 0.5806, 0.626 -0.3779 0.5657, 0.374 -0.3779 0.5657, 0.626 -0.3721 0.549, 0.374 -0.3721 0.549, 0.626 -0.3701 0.5315, 0.374 -0.3701 0.5315, 0.374 -0.3701 -1.1024, 0.626 -0.3701 -1.1024, 0.374 -0.4488 -1.1811, 0.626 -0.4488 -1.1811, 0.374 -0.5433 -1.1811, 0.626 -0.5433 -1.1811, 0.374 -0.622 -1.1024, 0.626 -0.622 -1.1024, 0.374 -0.622 0.2795, 0.626 -0.622 0.2795, 0.374 -0.624 0.2971, 0.626 -0.624 0.2971, 0.374 -0.6298 0.3137, 0.626 -0.6298 0.3137, 0.374 -0.6392 0.3286, 0.626 -0.6392 0.3286, 0.374 -0.6517 0.3411, 0.626 -0.6517 0.3411, 0.374 -0.6666 0.3505, 0.626 -0.6666 0.3505, 0.374 -0.6833 0.3563, 0.626 -0.6833 0.3563, 0.374 -0.7008 0.3583, 0.626 -0.7008 0.3583, 0.626 -1.3386 0.6102, 0.626 -1.3386 0.3583, 0.374 -1.3386 0.3583, 0.374 -1.3386 0.6102, 0.626 -2.0866 0.3583, 0.626 -4.3701 0.3583, 0.374 -2.0866 0.3583, 0.374 -4.3701 0.3583, 0.374 -2.0866 0.6102, 0.374 -4.3701 0.6102, 0.626 -2.0866 0.6102, 0.626 -4.3701 0.6102, 0.374 -4.4488 0.437, 0.374 -4.4488 0.5315, 0.626 -4.4488 0.5315, 0.626 -4.4488 0.437, 0.374 0.5512 1.6102, 0.626 0.5512 1.6102, 0.626 0.5687 1.6083, 0.374 0.5687 1.6083, 0.626 0.5853 1.6024, 0.374 0.5853 1.6024, 0.626 0.6003 1.5931, 0.374 0.6003 1.5931, 0.626 0.6127 1.5806, 0.374 0.6127 1.5806, 0.626 0.6221 1.5657, 0.374 0.6221 1.5657, 0.626 0.6279 1.549, 0.374 0.6279 1.549, 0.626 0.6299 1.5315, 0.374 0.6299 1.5315, 0.374 0.6299 -1.1024, 0.626 0.6299 -1.1024, 0.374 0.5512 -1.1811, 0.626 0.5512 -1.1811, 0.374 0.4567 -1.1811, 0.626 0.4567 -1.1811, 0.374 0.378 -1.1024, 0.626 0.378 -1.1024, 0.374 0.378 1.2795, 0.626 0.378 1.2795, 0.374 0.376 1.2971, 0.626 0.376 1.2971, 0.374 0.3702 1.3137, 0.626 0.3702 1.3137, 0.374 0.3608 1.3286, 0.626 0.3608 1.3286, 0.374 0.3483 1.3411, 0.626 0.3483 1.3411, 0.374 0.3334 1.3505, 0.626 0.3334 1.3505, 0.374 0.3167 1.3563, 0.626 0.3167 1.3563, 0.374 0.2992 1.3583, 0.626 0.2992 1.3583, 0.626 -1.3386 1.6102, 0.626 -1.3386 1.3583, 0.374 -1.3386 1.3583, 0.374 -1.3386 1.6102, 0.626 -2.0866 1.3583, 0.626 -4.3701 1.3583, 0.374 -2.0866 1.3583, 0.374 -4.3701 1.3583, 0.374 -2.0866 1.6102, 0.374 -4.3701 1.6102, 0.626 -2.0866 1.6102, 0.626 -4.3701 1.6102, 0.374 -4.4488 1.437, 0.374 -4.4488 1.5315, 0.626 -4.4488 1.5315, 0.626 -4.4488 1.437, 1.374 -0.4488 0.6102, 1.626 -0.4488 0.6102, 1.626 -0.4313 0.6083, 1.374 -0.4313 0.6083, 1.626 -0.4147 0.6024, 1.374 -0.4147 0.6024, 1.626 -0.3997 0.5931, 1.374 -0.3997 0.5931, 1.626 -0.3873 0.5806, 1.374 -0.3873 0.5806, 1.626 -0.3779 0.5657, 1.374 -0.3779 0.5657, 1.626 -0.3721 0.549, 1.374 -0.3721 0.549, 1.626 -0.3701 0.5315, 1.374 -0.3701 0.5315, 1.374 -0.3701 -1.1024, 1.626 -0.3701 -1.1024, 1.374 -0.4488 -1.1811, 1.626 -0.4488 -1.1811, 1.374 -0.5433 -1.1811, 1.626 -0.5433 -1.1811, 1.374 -0.622 -1.1024, 1.626 -0.622 -1.1024, 1.374 -0.622 0.2795, 1.626 -0.622 0.2795, 1.374 -0.624 0.2971, 1.626 -0.624 0.2971, 1.374 -0.6298 0.3137, 1.626 -0.6298 0.3137, 1.374 -0.6392 0.3286, 1.626 -0.6392 0.3286, 1.374 -0.6517 0.3411, 1.626 -0.6517 0.3411, 1.374 -0.6666 0.3505, 1.626 -0.6666 0.3505, 1.374 -0.6833 0.3563, 1.626 -0.6833 0.3563, 1.374 -0.7008 0.3583, 1.626 -0.7008 0.3583, 1.626 -1.3386 0.6102, 1.626 -1.3386 0.3583, 1.374 -1.3386 0.3583, 1.374 -1.3386 0.6102, 1.626 -2.0866 0.3583, 1.626 -4.3701 0.3583, 1.374 -2.0866 0.3583, 1.374 -4.3701 0.3583, 1.374 -2.0866 0.6102, 1.374 -4.3701 0.6102, 1.626 -2.0866 0.6102, 1.626 -4.3701 0.6102, 1.374 -4.4488 0.437, 1.374 -4.4488 0.5315, 1.626 -4.4488 0.5315, 1.626 -4.4488 0.437, 1.374 0.5512 1.6102, 1.626 0.5512 1.6102, 1.626 0.5687 1.6083, 1.374 0.5687 1.6083, 1.626 0.5853 1.6024, 1.374 0.5853 1.6024, 1.626 0.6003 1.5931, 1.374 0.6003 1.5931, 1.626 0.6127 1.5806, 1.374 0.6127 1.5806, 1.626 0.6221 1.5657, 1.374 0.6221 1.5657, 1.626 0.6279 1.549, 1.374 0.6279 1.549, 1.626 0.6299 1.5315, 1.374 0.6299 1.5315, 1.374 0.6299 -1.1024, 1.626 0.6299 -1.1024, 1.374 0.5512 -1.1811, 1.626 0.5512 -1.1811, 1.374 0.4567 -1.1811, 1.626 0.4567 -1.1811, 1.374 0.378 -1.1024, 1.626 0.378 -1.1024, 1.374 0.378 1.2795, 1.626 0.378 1.2795, 1.374 0.376 1.2971, 1.626 0.376 1.2971, 1.374 0.3702 1.3137, 1.626 0.3702 1.3137, 1.374 0.3608 1.3286, 1.626 0.3608 1.3286, 1.374 0.3483 1.3411, 1.626 0.3483 1.3411, 1.374 0.3334 1.3505, 1.626 0.3334 1.3505, 1.374 0.3167 1.3563, 1.626 0.3167 1.3563, 1.374 0.2992 1.3583, 1.626 0.2992 1.3583, 1.626 -1.3386 1.6102, 1.626 -1.3386 1.3583, 1.374 -1.3386 1.3583, 1.374 -1.3386 1.6102, 1.626 -2.0866 1.3583, 1.626 -4.3701 1.3583, 1.374 -2.0866 1.3583, 1.374 -4.3701 1.3583, 1.374 -2.0866 1.6102, 1.374 -4.3701 1.6102, 1.626 -2.0866 1.6102, 1.626 -4.3701 1.6102, 1.374 -4.4488 1.437, 1.374 -4.4488 1.5315, 1.626 -4.4488 1.5315, 1.626 -4.4488 1.437, 2.374 -0.4488 0.6102, 2.626 -0.4488 0.6102, 2.626 -0.4313 0.6083, 2.374 -0.4313 0.6083, 2.626 -0.4147 0.6024, 2.374 -0.4147 0.6024, 2.626 -0.3997 0.5931, 2.374 -0.3997 0.5931, 2.626 -0.3873 0.5806, 2.374 -0.3873 0.5806, 2.626 -0.3779 0.5657, 2.374 -0.3779 0.5657, 2.626 -0.3721 0.549, 2.374 -0.3721 0.549, 2.626 -0.3701 0.5315, 2.374 -0.3701 0.5315, 2.374 -0.3701 -1.1024, 2.626 -0.3701 -1.1024, 2.374 -0.4488 -1.1811, 2.626 -0.4488 -1.1811, 2.374 -0.5433 -1.1811, 2.626 -0.5433 -1.1811, 2.374 -0.622 -1.1024, 2.626 -0.622 -1.1024, 2.374 -0.622 0.2795, 2.626 -0.622 0.2795, 2.374 -0.624 0.2971, 2.626 -0.624 0.2971, 2.374 -0.6298 0.3137, 2.626 -0.6298 0.3137, 2.374 -0.6392 0.3286, 2.626 -0.6392 0.3286, 2.374 -0.6517 0.3411, 2.626 -0.6517 0.3411, 2.374 -0.6666 0.3505, 2.626 -0.6666 0.3505, 2.374 -0.6833 0.3563, 2.626 -0.6833 0.3563, 2.374 -0.7008 0.3583, 2.626 -0.7008 0.3583, 2.626 -1.3386 0.6102, 2.626 -1.3386 0.3583, 2.374 -1.3386 0.3583, 2.374 -1.3386 0.6102, 2.626 -2.0866 0.3583, 2.626 -4.3701 0.3583, 2.374 -2.0866 0.3583, 2.374 -4.3701 0.3583, 2.374 -2.0866 0.6102, 2.374 -4.3701 0.6102, 2.626 -2.0866 0.6102, 2.626 -4.3701 0.6102, 2.374 -4.4488 0.437, 2.374 -4.4488 0.5315, 2.626 -4.4488 0.5315, 2.626 -4.4488 0.437, 2.374 0.5512 1.6102, 2.626 0.5512 1.6102, 2.626 0.5687 1.6083, 2.374 0.5687 1.6083, 2.626 0.5853 1.6024, 2.374 0.5853 1.6024, 2.626 0.6003 1.5931, 2.374 0.6003 1.5931, 2.626 0.6127 1.5806, 2.374 0.6127 1.5806, 2.626 0.6221 1.5657, 2.374 0.6221 1.5657, 2.626 0.6279 1.549, 2.374 0.6279 1.549, 2.626 0.6299 1.5315, 2.374 0.6299 1.5315, 2.374 0.6299 -1.1024, 2.626 0.6299 -1.1024, 2.374 0.5512 -1.1811, 2.626 0.5512 -1.1811, 2.374 0.4567 -1.1811, 2.626 0.4567 -1.1811, 2.374 0.378 -1.1024, 2.626 0.378 -1.1024, 2.374 0.378 1.2795, 2.626 0.378 1.2795, 2.374 0.376 1.2971, 2.626 0.376 1.2971, 2.374 0.3702 1.3137, 2.626 0.3702 1.3137, 2.374 0.3608 1.3286, 2.626 0.3608 1.3286, 2.374 0.3483 1.3411, 2.626 0.3483 1.3411, 2.374 0.3334 1.3505, 2.626 0.3334 1.3505, 2.374 0.3167 1.3563, 2.626 0.3167 1.3563, 2.374 0.2992 1.3583, 2.626 0.2992 1.3583, 2.626 -1.3386 1.6102, 2.626 -1.3386 1.3583, 2.374 -1.3386 1.3583, 2.374 -1.3386 1.6102, 2.626 -2.0866 1.3583, 2.626 -4.3701 1.3583, 2.374 -2.0866 1.3583, 2.374 -4.3701 1.3583, 2.374 -2.0866 1.6102, 2.374 -4.3701 1.6102, 2.626 -2.0866 1.6102, 2.626 -4.3701 1.6102, 2.374 -4.4488 1.437, 2.374 -4.4488 1.5315, 2.626 -4.4488 1.5315, 2.626 -4.4488 1.437, 3.374 -0.4488 0.6102, 3.626 -0.4488 0.6102, 3.626 -0.4313 0.6083, 3.374 -0.4313 0.6083, 3.626 -0.4147 0.6024, 3.374 -0.4147 0.6024, 3.626 -0.3997 0.5931, 3.374 -0.3997 0.5931, 3.626 -0.3873 0.5806, 3.374 -0.3873 0.5806, 3.626 -0.3779 0.5657, 3.374 -0.3779 0.5657, 3.626 -0.3721 0.549, 3.374 -0.3721 0.549, 3.626 -0.3701 0.5315, 3.374 -0.3701 0.5315, 3.374 -0.3701 -1.1024, 3.626 -0.3701 -1.1024, 3.374 -0.4488 -1.1811, 3.626 -0.4488 -1.1811, 3.374 -0.5433 -1.1811, 3.626 -0.5433 -1.1811, 3.374 -0.622 -1.1024, 3.626 -0.622 -1.1024, 3.374 -0.622 0.2795, 3.626 -0.622 0.2795, 3.374 -0.624 0.2971, 3.626 -0.624 0.2971, 3.374 -0.6298 0.3137, 3.626 -0.6298 0.3137, 3.374 -0.6392 0.3286, 3.626 -0.6392 0.3286, 3.374 -0.6517 0.3411, 3.626 -0.6517 0.3411, 3.374 -0.6666 0.3505, 3.626 -0.6666 0.3505, 3.374 -0.6833 0.3563, 3.626 -0.6833 0.3563, 3.374 -0.7008 0.3583, 3.626 -0.7008 0.3583, 3.626 -1.3386 0.6102, 3.626 -1.3386 0.3583, 3.374 -1.3386 0.3583, 3.374 -1.3386 0.6102, 3.626 -2.0866 0.3583, 3.626 -4.3701 0.3583, 3.374 -2.0866 0.3583, 3.374 -4.3701 0.3583, 3.374 -2.0866 0.6102, 3.374 -4.3701 0.6102, 3.626 -2.0866 0.6102, 3.626 -4.3701 0.6102, 3.374 -4.4488 0.437, 3.374 -4.4488 0.5315, 3.626 -4.4488 0.5315, 3.626 -4.4488 0.437, 3.374 0.5512 1.6102, 3.626 0.5512 1.6102, 3.626 0.5687 1.6083, 3.374 0.5687 1.6083, 3.626 0.5853 1.6024, 3.374 0.5853 1.6024, 3.626 0.6003 1.5931, 3.374 0.6003 1.5931, 3.626 0.6127 1.5806, 3.374 0.6127 1.5806, 3.626 0.6221 1.5657, 3.374 0.6221 1.5657, 3.626 0.6279 1.549, 3.374 0.6279 1.549, 3.626 0.6299 1.5315, 3.374 0.6299 1.5315, 3.374 0.6299 -1.1024, 3.626 0.6299 -1.1024, 3.374 0.5512 -1.1811, 3.626 0.5512 -1.1811, 3.374 0.4567 -1.1811, 3.626 0.4567 -1.1811, 3.374 0.378 -1.1024, 3.626 0.378 -1.1024, 3.374 0.378 1.2795, 3.626 0.378 1.2795, 3.374 0.376 1.2971, 3.626 0.376 1.2971, 3.374 0.3702 1.3137, 3.626 0.3702 1.3137, 3.374 0.3608 1.3286, 3.626 0.3608 1.3286, 3.374 0.3483 1.3411, 3.626 0.3483 1.3411, 3.374 0.3334 1.3505, 3.626 0.3334 1.3505, 3.374 0.3167 1.3563, 3.626 0.3167 1.3563, 3.374 0.2992 1.3583, 3.626 0.2992 1.3583, 3.626 -1.3386 1.6102, 3.626 -1.3386 1.3583, 3.374 -1.3386 1.3583, 3.374 -1.3386 1.6102, 3.626 -2.0866 1.3583, 3.626 -4.3701 1.3583, 3.374 -2.0866 1.3583, 3.374 -4.3701 1.3583, 3.374 -2.0866 1.6102, 3.374 -4.3701 1.6102, 3.626 -2.0866 1.6102, 3.626 -4.3701 1.6102, 3.374 -4.4488 1.437, 3.374 -4.4488 1.5315, 3.626 -4.4488 1.5315, 3.626 -4.4488 1.437, 0.6575 -1.4466 0.0394, 0.6575 -1.4446 0.0394, 0.6575 -1.4466 0.0, 0.6575 -1.4446 0.0, 0.5 -1.3719 0.0394, 0.5 -1.3719 0.0, 0.5 -1.3873 0.0394, 0.5 -1.3873 0.0, 0.5505 -1.4105 0.0394, 0.5505 -1.4105 0.0, 0.5505 -1.4819 0.0394, 0.5505 -1.4819 0.0, 0.5 -1.5059 0.0394, 0.5 -1.5059 0.0, 0.5 -1.5213 0.0394, 0.5 -1.5213 0.0, 0.5666 -1.4743 0.0394, 0.6268 -1.4457 0.0394, 0.5666 -1.418 0.0394, 0.5666 -1.418 0.0, 0.6268 -1.4457 0.0, 0.5666 -1.4743 0.0, 0.5 -1.6219 0.0394, 0.5 -1.6707 0.0394, 0.5 -1.6219 0.0, 0.5 -1.6707 0.0, 0.6575 -1.6707 0.0394, 0.6575 -1.6707 0.0, 0.6575 -1.6389 0.0394, 0.6575 -1.6389 0.0, 0.6518 -1.5889 0.0394, 0.6518 -1.5889 0.0, 0.6565 -1.6137 0.0, 0.6565 -1.6137 0.0394, 0.5768 -1.5415 0.0394, 0.5768 -1.5415 0.0, 0.5834 -1.5417 0.0, 0.5834 -1.5417 0.0394, 0.6026 -1.5447 0.0, 0.6026 -1.5447 0.0394, 0.6192 -1.5513 0.0, 0.6192 -1.5513 0.0394, 0.6336 -1.5613 0.0, 0.6336 -1.5613 0.0394, 0.6438 -1.573 0.0, 0.6438 -1.573 0.0394, 0.5009 -1.605 0.0, 0.5009 -1.605 0.0394, 0.5052 -1.5851 0.0, 0.5052 -1.5851 0.0394, 0.5119 -1.5719 0.0, 0.5119 -1.5719 0.0394, 0.5219 -1.5606 0.0, 0.5219 -1.5606 0.0394, 0.5381 -1.5499 0.0, 0.5381 -1.5499 0.0394, 0.5557 -1.5437 0.0, 0.5557 -1.5437 0.0394, 0.6406 -1.6212 0.0394, 0.6369 -1.5971 0.0394, 0.6343 -1.59 0.0394, 0.6275 -1.5783 0.0394, 0.6186 -1.5692 0.0394, 0.607 -1.5619 0.0394, 0.5935 -1.5573 0.0394, 0.5768 -1.5556 0.0394, 0.5728 -1.5557 0.0394, 0.5562 -1.5584 0.0394, 0.5441 -1.5636 0.0394, 0.5336 -1.5715 0.0394, 0.526 -1.5809 0.0394, 0.5202 -1.5935 0.0394, 0.5168 -1.6158 0.0394, 0.5162 -1.6385 0.0394, 0.5162 -1.6566 0.0394, 0.6413 -1.6566 0.0394, 0.6413 -1.6455 0.0394, 0.6413 -1.6566 0.0, 0.5162 -1.6566 0.0, 0.6413 -1.6455 0.0, 0.6406 -1.6212 0.0, 0.6369 -1.5971 0.0, 0.6343 -1.59 0.0, 0.6275 -1.5783 0.0, 0.6186 -1.5692 0.0, 0.607 -1.5619 0.0, 0.5935 -1.5573 0.0, 0.5768 -1.5556 0.0, 0.5728 -1.5557 0.0, 0.5562 -1.5584 0.0, 0.5441 -1.5636 0.0, 0.5336 -1.5715 0.0, 0.526 -1.5809 0.0, 0.5202 -1.5935 0.0, 0.5168 -1.6158 0.0, 0.5162 -1.6385 0.0, 0.5 -1.7878 0.0394, 0.6575 -1.7878 0.0394, 0.5 -1.7878 0.0, 0.6575 -1.7878 0.0, 0.6575 -1.699 0.0394, 0.6575 -1.699 0.0, 0.6413 -1.699 0.0394, 0.6413 -1.699 0.0, 0.6413 -1.7737 0.0394, 0.6413 -1.7737 0.0, 0.5929 -1.7737 0.0394, 0.5929 -1.7737 0.0, 0.5929 -1.699 0.0394, 0.5929 -1.699 0.0, 0.5767 -1.699 0.0394, 0.5767 -1.699 0.0, 0.5767 -1.7737 0.0394, 0.5767 -1.7737 0.0, 0.5162 -1.7737 0.0394, 0.5162 -1.7737 0.0, 0.5162 -1.699 0.0394, 0.5162 -1.699 0.0, 0.5 -1.699 0.0394, 0.5 -1.699 0.0, 0.6286 -1.8201 0.0394, 0.6286 -1.8201 0.0, 0.6314 -1.8223 0.0, 0.6314 -1.8223 0.0394, 0.6444 -1.8354 0.0, 0.6444 -1.8354 0.0394, 0.6546 -1.8528 0.0, 0.6546 -1.8528 0.0394, 0.6588 -1.8654 0.0, 0.6588 -1.8654 0.0394, 0.6615 -1.8888 0.0, 0.6615 -1.8888 0.0394, 0.6191 -1.8325 0.0394, 0.6191 -1.8325 0.0, 0.6454 -1.8897 0.0394, 0.6454 -1.8897 0.0, 0.6451 -1.8833 0.0, 0.6451 -1.8833 0.0394, 0.6424 -1.8677 0.0, 0.6424 -1.8677 0.0394, 0.6396 -1.8596 0.0, 0.6396 -1.8596 0.0394, 0.6316 -1.8455 0.0, 0.6316 -1.8455 0.0394, 0.5786 -1.9594 0.0394, 0.5786 -1.9594 0.0, 0.5862 -1.959 0.0, 0.5862 -1.959 0.0394, 0.6013 -1.9557 0.0, 0.6013 -1.9557 0.0394, 0.6153 -1.9486 0.0, 0.6153 -1.9486 0.0394, 0.6267 -1.9389 0.0, 0.6267 -1.9389 0.0394, 0.6368 -1.9244 0.0, 0.6368 -1.9244 0.0394, 0.6431 -1.9083 0.0, 0.6431 -1.9083 0.0394, 0.5121 -1.8887 0.0394, 0.5121 -1.8887 0.0, 0.513 -1.9011 0.0, 0.513 -1.9011 0.0394, 0.5171 -1.9171 0.0, 0.5171 -1.9171 0.0394, 0.5253 -1.9324 0.0, 0.5253 -1.9324 0.0394, 0.5359 -1.944 0.0, 0.5359 -1.944 0.0394, 0.5481 -1.9524 0.0, 0.5481 -1.9524 0.0394, 0.5612 -1.9573 0.0, 0.5612 -1.9573 0.0394, 0.5384 -1.8325 0.0394, 0.5384 -1.8325 0.0, 0.5296 -1.8412 0.0, 0.5296 -1.8412 0.0394, 0.52 -1.8551 0.0, 0.52 -1.8551 0.0394, 0.5143 -1.8703 0.0, 0.5143 -1.8703 0.0394, 0.529 -1.8201 0.0394, 0.529 -1.8201 0.0, 0.496 -1.8886 0.0394, 0.496 -1.8886 0.0, 0.496 -1.8863 0.0, 0.496 -1.8863 0.0394, 0.498 -1.8703 0.0, 0.4985 -1.8664 0.0394, 0.4985 -1.8664 0.0, 0.5039 -1.8509 0.0, 0.5039 -1.8509 0.0394, 0.5144 -1.834 0.0, 0.5144 -1.834 0.0394, 0.498 -1.9063 0.0, 0.4988 -1.9132 0.0394, 0.4988 -1.9132 0.0, 0.506 -1.9321 0.0394, 0.506 -1.9321 0.0, 0.5169 -1.9473 0.0394, 0.5169 -1.9473 0.0, 0.5235 -1.9536 0.0394, 0.5235 -1.9536 0.0, 0.5797 -1.9736 0.0394, 0.5797 -1.9736 0.0, 0.5589 -1.9713 0.0, 0.5589 -1.9713 0.0394, 0.5407 -1.965 0.0, 0.5407 -1.965 0.0394, 0.6608 -1.9014 0.0, 0.6608 -1.9014 0.0394, 0.6562 -1.9206 0.0, 0.6562 -1.9206 0.0394, 0.6477 -1.9373 0.0, 0.6477 -1.9373 0.0394, 0.6334 -1.9537 0.0, 0.6334 -1.9537 0.0394, 0.6179 -1.9645 0.0, 0.6179 -1.9645 0.0394, 0.6012 -1.9709 0.0, 0.6012 -1.9709 0.0394, 0.5 -2.0664 0.0394, 0.6575 -2.0664 0.0394, 0.5 -2.0664 0.0, 0.6575 -2.0664 0.0, 0.6575 -2.0523 0.0394, 0.6575 -2.0523 0.0, 0.5162 -2.0523 0.0394, 0.5162 -2.0523 0.0, 0.5162 -1.9917 0.0394, 0.5162 -1.9917 0.0, 0.5 -1.9917 0.0394, 0.5 -1.9917 0.0
            ]
        }
        coordIndex [
            0,1,2,-1,0,2,3,-1,3,2,4,-1,3,4,5,-1,5,4,6,-1,5,6,7,-1,7,6,8,-1,7,8,9,-1,9,8,10,-1,9,10,11,-1,11,10,12,-1,11,12,13,-1,13,12,14,-1,13,14,15,-1,16,15,17,-1,17,15,14,-1,18,16,19,-1,19,16,17,-1,20,18,21,-1,21,18,19,-1,22,20,23,-1,23,20,21,-1,24,22,25,-1,25,22,23,-1,24,25,26,-1,26,25,27,-1,26,27,28,-1,28,27,29,-1,28,29,30,-1,30,29,31,-1,30,31,32,-1,32,31,33,-1,32,33,34,-1,34,33,35,-1,34,35,36,-1,36,35,37,-1,36,37,38,-1,38,37,39,-1,31,29,14,-1,40,41,1,-1,1,41,39,-1,14,12,31,-1,31,12,10,-1,31,10,33,-1,33,10,8,-1,33,8,6,-1,39,37,1,-1,1,37,35,-1,1,35,2,-1,2,35,33,-1,2,33,4,-1,4,33,6,-1,21,19,23,-1,23,19,17,-1,23,17,25,-1,25,17,14,-1,25,14,27,-1,27,14,29,-1,5,7,32,-1,42,43,38,-1,38,43,0,-1,38,0,36,-1,36,0,34,-1,20,22,18,-1,18,22,24,-1,18,24,16,-1,16,24,15,-1,34,0,32,-1,32,0,3,-1,32,3,5,-1,24,26,15,-1,15,26,28,-1,15,28,13,-1,13,28,30,-1,13,30,11,-1,11,30,32,-1,11,32,9,-1,9,32,7,-1,40,1,43,-1,43,1,0,-1,42,38,41,-1,41,38,39,-1,44,45,46,-1,46,45,47,-1,48,49,50,-1,50,49,51,-1,52,53,47,-1,47,53,49,-1,47,49,46,-1,46,49,48,-1,54,55,51,-1,51,55,45,-1,51,45,50,-1,50,45,44,-1,52,47,55,-1,55,47,45,-1,53,52,54,-1,54,52,55,-1,49,53,51,-1,51,53,54,-1,56,57,58,-1,56,58,59,-1,59,58,60,-1,59,60,61,-1,61,60,62,-1,61,62,63,-1,63,62,64,-1,63,64,65,-1,65,64,66,-1,65,66,67,-1,67,66,68,-1,67,68,69,-1,69,68,70,-1,69,70,71,-1,72,71,73,-1,73,71,70,-1,74,72,75,-1,75,72,73,-1,76,74,77,-1,77,74,75,-1,78,76,79,-1,79,76,77,-1,80,78,81,-1,81,78,79,-1,80,81,82,-1,82,81,83,-1,82,83,84,-1,84,83,85,-1,84,85,86,-1,86,85,87,-1,86,87,88,-1,88,87,89,-1,88,89,90,-1,90,89,91,-1,90,91,92,-1,92,91,93,-1,92,93,94,-1,94,93,95,-1,87,85,70,-1,96,97,57,-1,57,97,95,-1,70,68,87,-1,87,68,66,-1,87,66,89,-1,89,66,64,-1,89,64,62,-1,85,83,70,-1,70,83,81,-1,70,81,73,-1,73,81,79,-1,73,79,75,-1,75,79,77,-1,95,93,57,-1,57,93,91,-1,57,91,58,-1,58,91,89,-1,58,89,60,-1,60,89,62,-1,88,90,56,-1,98,99,94,-1,94,99,56,-1,94,56,92,-1,92,56,90,-1,74,76,72,-1,72,76,78,-1,72,78,71,-1,71,78,80,-1,56,59,88,-1,88,59,61,-1,88,61,86,-1,86,61,63,-1,86,63,65,-1,80,82,71,-1,71,82,84,-1,71,84,69,-1,69,84,86,-1,69,86,67,-1,67,86,65,-1,96,57,99,-1,99,57,56,-1,98,94,97,-1,97,94,95,-1,100,101,102,-1,102,101,103,-1,104,105,106,-1,106,105,107,-1,108,109,103,-1,103,109,105,-1,103,105,102,-1,102,105,104,-1,110,111,107,-1,107,111,101,-1,107,101,106,-1,106,101,100,-1,108,103,111,-1,111,103,101,-1,109,108,110,-1,110,108,111,-1,105,109,107,-1,107,109,110,-1,112,113,114,-1,112,114,115,-1,115,114,116,-1,115,116,117,-1,117,116,118,-1,117,118,119,-1,119,118,120,-1,119,120,121,-1,121,120,122,-1,121,122,123,-1,123,122,124,-1,123,124,125,-1,125,124,126,-1,125,126,127,-1,128,127,129,-1,129,127,126,-1,130,128,131,-1,131,128,129,-1,132,130,133,-1,133,130,131,-1,134,132,135,-1,135,132,133,-1,136,134,137,-1,137,134,135,-1,136,137,138,-1,138,137,139,-1,138,139,140,-1,140,139,141,-1,140,141,142,-1,142,141,143,-1,142,143,144,-1,144,143,145,-1,144,145,146,-1,146,145,147,-1,146,147,148,-1,148,147,149,-1,148,149,150,-1,150,149,151,-1,143,141,126,-1,152,153,113,-1,113,153,151,-1,126,124,143,-1,143,124,122,-1,143,122,145,-1,145,122,120,-1,145,120,118,-1,151,149,113,-1,113,149,147,-1,113,147,114,-1,114,147,145,-1,114,145,116,-1,116,145,118,-1,133,131,135,-1,135,131,129,-1,135,129,137,-1,137,129,126,-1,137,126,139,-1,139,126,141,-1,117,119,144,-1,154,155,150,-1,150,155,112,-1,150,112,148,-1,148,112,146,-1,132,134,130,-1,130,134,136,-1,130,136,128,-1,128,136,127,-1,146,112,144,-1,144,112,115,-1,144,115,117,-1,136,138,127,-1,127,138,140,-1,127,140,125,-1,125,140,142,-1,125,142,123,-1,123,142,144,-1,123,144,121,-1,121,144,119,-1,152,113,155,-1,155,113,112,-1,154,150,153,-1,153,150,151,-1,156,157,158,-1,158,157,159,-1,160,161,162,-1,162,161,163,-1,164,165,159,-1,159,165,161,-1,159,161,158,-1,158,161,160,-1,166,167,163,-1,163,167,157,-1,163,157,162,-1,162,157,156,-1,164,159,167,-1,167,159,157,-1,165,164,166,-1,166,164,167,-1,161,165,163,-1,163,165,166,-1,168,169,170,-1,168,170,171,-1,171,170,172,-1,171,172,173,-1,173,172,174,-1,173,174,175,-1,175,174,176,-1,175,176,177,-1,177,176,178,-1,177,178,179,-1,179,178,180,-1,179,180,181,-1,181,180,182,-1,181,182,183,-1,184,183,185,-1,185,183,182,-1,186,184,187,-1,187,184,185,-1,188,186,189,-1,189,186,187,-1,190,188,191,-1,191,188,189,-1,192,190,193,-1,193,190,191,-1,192,193,194,-1,194,193,195,-1,194,195,196,-1,196,195,197,-1,196,197,198,-1,198,197,199,-1,198,199,200,-1,200,199,201,-1,200,201,202,-1,202,201,203,-1,202,203,204,-1,204,203,205,-1,204,205,206,-1,206,205,207,-1,199,197,182,-1,208,209,169,-1,169,209,207,-1,182,180,199,-1,199,180,178,-1,199,178,201,-1,201,178,176,-1,201,176,174,-1,197,195,182,-1,182,195,193,-1,182,193,185,-1,185,193,191,-1,185,191,187,-1,187,191,189,-1,207,205,169,-1,169,205,203,-1,169,203,170,-1,170,203,201,-1,170,201,172,-1,172,201,174,-1,200,202,168,-1,210,211,206,-1,206,211,168,-1,206,168,204,-1,204,168,202,-1,186,188,184,-1,184,188,190,-1,184,190,183,-1,183,190,192,-1,168,171,200,-1,200,171,173,-1,200,173,198,-1,198,173,175,-1,198,175,177,-1,192,194,183,-1,183,194,196,-1,183,196,181,-1,181,196,198,-1,181,198,179,-1,179,198,177,-1,208,169,211,-1,211,169,168,-1,210,206,209,-1,209,206,207,-1,212,213,214,-1,214,213,215,-1,216,217,218,-1,218,217,219,-1,220,221,215,-1,215,221,217,-1,215,217,214,-1,214,217,216,-1,222,223,219,-1,219,223,213,-1,219,213,218,-1,218,213,212,-1,220,215,223,-1,223,215,213,-1,221,220,222,-1,222,220,223,-1,217,221,219,-1,219,221,222,-1,224,225,226,-1,224,226,227,-1,227,226,228,-1,227,228,229,-1,229,228,230,-1,229,230,231,-1,231,230,232,-1,231,232,233,-1,233,232,234,-1,233,234,235,-1,235,234,236,-1,235,236,237,-1,237,236,238,-1,237,238,239,-1,240,239,241,-1,241,239,238,-1,242,240,243,-1,243,240,241,-1,244,242,245,-1,245,242,243,-1,246,244,247,-1,247,244,245,-1,248,246,249,-1,249,246,247,-1,248,249,250,-1,250,249,251,-1,250,251,252,-1,252,251,253,-1,252,253,254,-1,254,253,255,-1,254,255,256,-1,256,255,257,-1,256,257,258,-1,258,257,259,-1,258,259,260,-1,260,259,261,-1,260,261,262,-1,262,261,263,-1,255,253,238,-1,264,265,225,-1,225,265,263,-1,238,236,255,-1,255,236,234,-1,255,234,257,-1,257,234,232,-1,257,232,230,-1,263,261,225,-1,225,261,259,-1,225,259,226,-1,226,259,257,-1,226,257,228,-1,228,257,230,-1,245,243,247,-1,247,243,241,-1,247,241,249,-1,249,241,238,-1,249,238,251,-1,251,238,253,-1,229,231,256,-1,266,267,262,-1,262,267,224,-1,262,224,260,-1,260,224,258,-1,244,246,242,-1,242,246,248,-1,242,248,240,-1,240,248,239,-1,258,224,256,-1,256,224,227,-1,256,227,229,-1,248,250,239,-1,239,250,252,-1,239,252,237,-1,237,252,254,-1,237,254,235,-1,235,254,256,-1,235,256,233,-1,233,256,231,-1,264,225,267,-1,267,225,224,-1,266,262,265,-1,265,262,263,-1,268,269,270,-1,270,269,271,-1,272,273,274,-1,274,273,275,-1,276,277,271,-1,271,277,273,-1,271,273,270,-1,270,273,272,-1,278,279,275,-1,275,279,269,-1,275,269,274,-1,274,269,268,-1,276,271,279,-1,279,271,269,-1,277,276,278,-1,278,276,279,-1,273,277,275,-1,275,277,278,-1,280,281,282,-1,280,282,283,-1,283,282,284,-1,283,284,285,-1,285,284,286,-1,285,286,287,-1,287,286,288,-1,287,288,289,-1,289,288,290,-1,289,290,291,-1,291,290,292,-1,291,292,293,-1,293,292,294,-1,293,294,295,-1,296,295,297,-1,297,295,294,-1,298,296,299,-1,299,296,297,-1,300,298,301,-1,301,298,299,-1,302,300,303,-1,303,300,301,-1,304,302,305,-1,305,302,303,-1,304,305,306,-1,306,305,307,-1,306,307,308,-1,308,307,309,-1,308,309,310,-1,310,309,311,-1,310,311,312,-1,312,311,313,-1,312,313,314,-1,314,313,315,-1,314,315,316,-1,316,315,317,-1,316,317,318,-1,318,317,319,-1,311,309,294,-1,320,321,281,-1,281,321,319,-1,294,292,311,-1,311,292,290,-1,311,290,313,-1,313,290,288,-1,313,288,286,-1,309,307,294,-1,294,307,305,-1,294,305,297,-1,297,305,303,-1,297,303,299,-1,299,303,301,-1,319,317,281,-1,281,317,315,-1,281,315,282,-1,282,315,313,-1,282,313,284,-1,284,313,286,-1,312,314,280,-1,322,323,318,-1,318,323,280,-1,318,280,316,-1,316,280,314,-1,298,300,296,-1,296,300,302,-1,296,302,295,-1,295,302,304,-1,280,283,312,-1,312,283,285,-1,312,285,310,-1,310,285,287,-1,310,287,289,-1,304,306,295,-1,295,306,308,-1,295,308,293,-1,293,308,310,-1,293,310,291,-1,291,310,289,-1,320,281,323,-1,323,281,280,-1,322,318,321,-1,321,318,319,-1,324,325,326,-1,326,325,327,-1,328,329,330,-1,330,329,331,-1,332,333,327,-1,327,333,329,-1,327,329,326,-1,326,329,328,-1,334,335,331,-1,331,335,325,-1,331,325,330,-1,330,325,324,-1,332,327,335,-1,335,327,325,-1,333,332,334,-1,334,332,335,-1,329,333,331,-1,331,333,334,-1,336,337,338,-1,336,338,339,-1,339,338,340,-1,339,340,341,-1,341,340,342,-1,341,342,343,-1,343,342,344,-1,343,344,345,-1,345,344,346,-1,345,346,347,-1,347,346,348,-1,347,348,349,-1,349,348,350,-1,349,350,351,-1,352,351,353,-1,353,351,350,-1,354,352,355,-1,355,352,353,-1,356,354,357,-1,357,354,355,-1,358,356,359,-1,359,356,357,-1,360,358,361,-1,361,358,359,-1,360,361,362,-1,362,361,363,-1,362,363,364,-1,364,363,365,-1,364,365,366,-1,366,365,367,-1,366,367,368,-1,368,367,369,-1,368,369,370,-1,370,369,371,-1,370,371,372,-1,372,371,373,-1,372,373,374,-1,374,373,375,-1,367,365,350,-1,376,377,337,-1,337,377,375,-1,350,348,367,-1,367,348,346,-1,367,346,369,-1,369,346,344,-1,369,344,342,-1,375,373,337,-1,337,373,371,-1,337,371,338,-1,338,371,369,-1,338,369,340,-1,340,369,342,-1,357,355,359,-1,359,355,353,-1,359,353,361,-1,361,353,350,-1,361,350,363,-1,363,350,365,-1,341,343,368,-1,378,379,374,-1,374,379,336,-1,374,336,372,-1,372,336,370,-1,356,358,354,-1,354,358,360,-1,354,360,352,-1,352,360,351,-1,370,336,368,-1,368,336,339,-1,368,339,341,-1,360,362,351,-1,351,362,364,-1,351,364,349,-1,349,364,366,-1,349,366,347,-1,347,366,368,-1,347,368,345,-1,345,368,343,-1,376,337,379,-1,379,337,336,-1,378,374,377,-1,377,374,375,-1,380,381,382,-1,382,381,383,-1,384,385,386,-1,386,385,387,-1,388,389,383,-1,383,389,385,-1,383,385,382,-1,382,385,384,-1,390,391,387,-1,387,391,381,-1,387,381,386,-1,386,381,380,-1,388,383,391,-1,391,383,381,-1,389,388,390,-1,390,388,391,-1,385,389,387,-1,387,389,390,-1,392,393,394,-1,392,394,395,-1,395,394,396,-1,395,396,397,-1,397,396,398,-1,397,398,399,-1,399,398,400,-1,399,400,401,-1,401,400,402,-1,401,402,403,-1,403,402,404,-1,403,404,405,-1,405,404,406,-1,405,406,407,-1,408,407,409,-1,409,407,406,-1,410,408,411,-1,411,408,409,-1,412,410,413,-1,413,410,411,-1,414,412,415,-1,415,412,413,-1,416,414,417,-1,417,414,415,-1,416,417,418,-1,418,417,419,-1,418,419,420,-1,420,419,421,-1,420,421,422,-1,422,421,423,-1,422,423,424,-1,424,423,425,-1,424,425,426,-1,426,425,427,-1,426,427,428,-1,428,427,429,-1,428,429,430,-1,430,429,431,-1,423,421,406,-1,432,433,393,-1,393,433,431,-1,406,404,423,-1,423,404,402,-1,423,402,425,-1,425,402,400,-1,425,400,398,-1,421,419,406,-1,406,419,417,-1,406,417,409,-1,409,417,415,-1,409,415,411,-1,411,415,413,-1,431,429,393,-1,393,429,427,-1,393,427,394,-1,394,427,425,-1,394,425,396,-1,396,425,398,-1,424,426,392,-1,434,435,430,-1,430,435,392,-1,430,392,428,-1,428,392,426,-1,410,412,408,-1,408,412,414,-1,408,414,407,-1,407,414,416,-1,392,395,424,-1,424,395,397,-1,424,397,422,-1,422,397,399,-1,422,399,401,-1,416,418,407,-1,407,418,420,-1,407,420,405,-1,405,420,422,-1,405,422,403,-1,403,422,401,-1,432,393,435,-1,435,393,392,-1,434,430,433,-1,433,430,431,-1,436,437,438,-1,438,437,439,-1,440,441,442,-1,442,441,443,-1,444,445,439,-1,439,445,441,-1,439,441,438,-1,438,441,440,-1,446,447,443,-1,443,447,437,-1,443,437,442,-1,442,437,436,-1,444,439,447,-1,447,439,437,-1,445,444,446,-1,446,444,447,-1,441,445,443,-1,443,445,446,-1,448,449,450,-1,448,450,451,-1,451,450,452,-1,451,452,453,-1,453,452,454,-1,453,454,455,-1,455,454,456,-1,455,456,457,-1,457,456,458,-1,457,458,459,-1,459,458,460,-1,459,460,461,-1,461,460,462,-1,461,462,463,-1,464,463,465,-1,465,463,462,-1,466,464,467,-1,467,464,465,-1,468,466,469,-1,469,466,467,-1,470,468,471,-1,471,468,469,-1,472,470,473,-1,473,470,471,-1,472,473,474,-1,474,473,475,-1,474,475,476,-1,476,475,477,-1,476,477,478,-1,478,477,479,-1,478,479,480,-1,480,479,481,-1,480,481,482,-1,482,481,483,-1,482,483,484,-1,484,483,485,-1,484,485,486,-1,486,485,487,-1,479,477,462,-1,488,489,449,-1,449,489,487,-1,462,460,479,-1,479,460,458,-1,479,458,481,-1,481,458,456,-1,481,456,454,-1,487,485,449,-1,449,485,483,-1,449,483,450,-1,450,483,481,-1,450,481,452,-1,452,481,454,-1,469,467,471,-1,471,467,465,-1,471,465,473,-1,473,465,462,-1,473,462,475,-1,475,462,477,-1,453,455,480,-1,490,491,486,-1,486,491,448,-1,486,448,484,-1,484,448,482,-1,468,470,466,-1,466,470,472,-1,466,472,464,-1,464,472,463,-1,482,448,480,-1,480,448,451,-1,480,451,453,-1,472,474,463,-1,463,474,476,-1,463,476,461,-1,461,476,478,-1,461,478,459,-1,459,478,480,-1,459,480,457,-1,457,480,455,-1,488,449,491,-1,491,449,448,-1,490,486,489,-1,489,486,487,-1,492,493,494,-1,494,493,495,-1,496,497,498,-1,498,497,499,-1,500,501,495,-1,495,501,497,-1,495,497,494,-1,494,497,496,-1,502,503,499,-1,499,503,493,-1,499,493,498,-1,498,493,492,-1,500,495,503,-1,503,495,493,-1,501,500,502,-1,502,500,503,-1,497,501,499,-1,499,501,502,-1,504,505,506,-1,504,506,507,-1,507,506,508,-1,507,508,509,-1,509,508,510,-1,509,510,511,-1,511,510,512,-1,511,512,513,-1,513,512,514,-1,513,514,515,-1,515,514,516,-1,515,516,517,-1,517,516,518,-1,517,518,519,-1,520,519,521,-1,521,519,518,-1,522,520,523,-1,523,520,521,-1,524,522,525,-1,525,522,523,-1,526,524,527,-1,527,524,525,-1,528,526,529,-1,529,526,527,-1,528,529,530,-1,530,529,531,-1,530,531,532,-1,532,531,533,-1,532,533,534,-1,534,533,535,-1,534,535,536,-1,536,535,537,-1,536,537,538,-1,538,537,539,-1,538,539,540,-1,540,539,541,-1,540,541,542,-1,542,541,543,-1,535,533,518,-1,544,545,505,-1,505,545,543,-1,518,516,535,-1,535,516,514,-1,535,514,537,-1,537,514,512,-1,537,512,510,-1,533,531,518,-1,518,531,529,-1,518,529,521,-1,521,529,527,-1,521,527,523,-1,523,527,525,-1,543,541,505,-1,505,541,539,-1,505,539,506,-1,506,539,537,-1,506,537,508,-1,508,537,510,-1,536,538,504,-1,546,547,542,-1,542,547,504,-1,542,504,540,-1,540,504,538,-1,522,524,520,-1,520,524,526,-1,520,526,519,-1,519,526,528,-1,504,507,536,-1,536,507,509,-1,536,509,534,-1,534,509,511,-1,534,511,513,-1,528,530,519,-1,519,530,532,-1,519,532,517,-1,517,532,534,-1,517,534,515,-1,515,534,513,-1,544,505,547,-1,547,505,504,-1,546,542,545,-1,545,542,543,-1,548,549,550,-1,550,549,551,-1,552,553,554,-1,554,553,555,-1,556,557,551,-1,551,557,553,-1,551,553,550,-1,550,553,552,-1,558,559,555,-1,555,559,549,-1,555,549,554,-1,554,549,548,-1,556,551,559,-1,559,551,549,-1,557,556,558,-1,558,556,559,-1,553,557,555,-1,555,557,558,-1,560,561,562,-1,560,562,563,-1,563,562,564,-1,563,564,565,-1,565,564,566,-1,565,566,567,-1,567,566,568,-1,567,568,569,-1,569,568,570,-1,569,570,571,-1,571,570,572,-1,571,572,573,-1,573,572,574,-1,573,574,575,-1,576,575,577,-1,577,575,574,-1,578,576,579,-1,579,576,577,-1,580,578,581,-1,581,578,579,-1,582,580,583,-1,583,580,581,-1,584,582,585,-1,585,582,583,-1,584,585,586,-1,586,585,587,-1,586,587,588,-1,588,587,589,-1,588,589,590,-1,590,589,591,-1,590,591,592,-1,592,591,593,-1,592,593,594,-1,594,593,595,-1,594,595,596,-1,596,595,597,-1,596,597,598,-1,598,597,599,-1,591,589,574,-1,600,601,561,-1,561,601,599,-1,574,572,591,-1,591,572,570,-1,591,570,593,-1,593,570,568,-1,593,568,566,-1,599,597,561,-1,561,597,595,-1,561,595,562,-1,562,595,593,-1,562,593,564,-1,564,593,566,-1,581,579,583,-1,583,579,577,-1,583,577,585,-1,585,577,574,-1,585,574,587,-1,587,574,589,-1,565,567,592,-1,602,603,598,-1,598,603,560,-1,598,560,596,-1,596,560,594,-1,580,582,578,-1,578,582,584,-1,578,584,576,-1,576,584,575,-1,594,560,592,-1,592,560,563,-1,592,563,565,-1,584,586,575,-1,575,586,588,-1,575,588,573,-1,573,588,590,-1,573,590,571,-1,571,590,592,-1,571,592,569,-1,569,592,567,-1,600,561,603,-1,603,561,560,-1,602,598,601,-1,601,598,599,-1,604,605,606,-1,606,605,607,-1,608,609,610,-1,610,609,611,-1,612,613,607,-1,607,613,609,-1,607,609,606,-1,606,609,608,-1,614,615,611,-1,611,615,605,-1,611,605,610,-1,610,605,604,-1,612,607,615,-1,615,607,605,-1,613,612,614,-1,614,612,615,-1,609,613,611,-1,611,613,614,-1,616,617,618,-1,616,618,619,-1,619,618,620,-1,619,620,621,-1,621,620,622,-1,621,622,623,-1,623,622,624,-1,623,624,625,-1,625,624,626,-1,625,626,627,-1,627,626,628,-1,627,628,629,-1,629,628,630,-1,629,630,631,-1,632,631,633,-1,633,631,630,-1,634,632,635,-1,635,632,633,-1,636,634,637,-1,637,634,635,-1,638,636,639,-1,639,636,637,-1,640,638,641,-1,641,638,639,-1,640,641,642,-1,642,641,643,-1,642,643,644,-1,644,643,645,-1,644,645,646,-1,646,645,647,-1,646,647,648,-1,648,647,649,-1,648,649,650,-1,650,649,651,-1,650,651,652,-1,652,651,653,-1,652,653,654,-1,654,653,655,-1,647,645,630,-1,656,657,617,-1,617,657,655,-1,630,628,647,-1,647,628,626,-1,647,626,649,-1,649,626,624,-1,649,624,622,-1,645,643,630,-1,630,643,641,-1,630,641,633,-1,633,641,639,-1,633,639,635,-1,635,639,637,-1,655,653,617,-1,617,653,651,-1,617,651,618,-1,618,651,649,-1,618,649,620,-1,620,649,622,-1,648,650,616,-1,658,659,654,-1,654,659,616,-1,654,616,652,-1,652,616,650,-1,634,636,632,-1,632,636,638,-1,632,638,631,-1,631,638,640,-1,616,619,648,-1,648,619,621,-1,648,621,646,-1,646,621,623,-1,646,623,625,-1,640,642,631,-1,631,642,644,-1,631,644,629,-1,629,644,646,-1,629,646,627,-1,627,646,625,-1,656,617,659,-1,659,617,616,-1,658,654,657,-1,657,654,655,-1,660,661,662,-1,662,661,663,-1,664,665,666,-1,666,665,667,-1,668,669,663,-1,663,669,665,-1,663,665,662,-1,662,665,664,-1,670,671,667,-1,667,671,661,-1,667,661,666,-1,666,661,660,-1,668,663,671,-1,671,663,661,-1,669,668,670,-1,670,668,671,-1,665,669,667,-1,667,669,670,-1,672,673,674,-1,672,674,675,-1,675,674,676,-1,675,676,677,-1,677,676,678,-1,677,678,679,-1,679,678,680,-1,679,680,681,-1,681,680,682,-1,681,682,683,-1,683,682,684,-1,683,684,685,-1,685,684,686,-1,685,686,687,-1,688,687,689,-1,689,687,686,-1,690,688,691,-1,691,688,689,-1,692,690,693,-1,693,690,691,-1,694,692,695,-1,695,692,693,-1,696,694,697,-1,697,694,695,-1,696,697,698,-1,698,697,699,-1,698,699,700,-1,700,699,701,-1,700,701,702,-1,702,701,703,-1,702,703,704,-1,704,703,705,-1,704,705,706,-1,706,705,707,-1,706,707,708,-1,708,707,709,-1,708,709,710,-1,710,709,711,-1,703,701,686,-1,712,713,673,-1,673,713,711,-1,686,684,703,-1,703,684,682,-1,703,682,705,-1,705,682,680,-1,705,680,678,-1,711,709,673,-1,673,709,707,-1,673,707,674,-1,674,707,705,-1,674,705,676,-1,676,705,678,-1,693,691,695,-1,695,691,689,-1,695,689,697,-1,697,689,686,-1,697,686,699,-1,699,686,701,-1,677,679,704,-1,714,715,710,-1,710,715,672,-1,710,672,708,-1,708,672,706,-1,692,694,690,-1,690,694,696,-1,690,696,688,-1,688,696,687,-1,706,672,704,-1,704,672,675,-1,704,675,677,-1,696,698,687,-1,687,698,700,-1,687,700,685,-1,685,700,702,-1,685,702,683,-1,683,702,704,-1,683,704,681,-1,681,704,679,-1,712,673,715,-1,715,673,672,-1,714,710,713,-1,713,710,711,-1,716,717,718,-1,718,717,719,-1,720,721,722,-1,722,721,723,-1,724,725,719,-1,719,725,721,-1,719,721,718,-1,718,721,720,-1,726,727,723,-1,723,727,717,-1,723,717,722,-1,722,717,716,-1,724,719,727,-1,727,719,717,-1,725,724,726,-1,726,724,727,-1,721,725,723,-1,723,725,726,-1,728,729,730,-1,728,730,731,-1,731,730,732,-1,731,732,733,-1,733,732,734,-1,733,734,735,-1,735,734,736,-1,735,736,737,-1,737,736,738,-1,737,738,739,-1,739,738,740,-1,739,740,741,-1,741,740,742,-1,741,742,743,-1,744,743,745,-1,745,743,742,-1,746,744,747,-1,747,744,745,-1,748,746,749,-1,749,746,747,-1,750,748,751,-1,751,748,749,-1,752,750,753,-1,753,750,751,-1,752,753,754,-1,754,753,755,-1,754,755,756,-1,756,755,757,-1,756,757,758,-1,758,757,759,-1,758,759,760,-1,760,759,761,-1,760,761,762,-1,762,761,763,-1,762,763,764,-1,764,763,765,-1,764,765,766,-1,766,765,767,-1,759,757,742,-1,768,769,729,-1,729,769,767,-1,742,740,759,-1,759,740,738,-1,759,738,761,-1,761,738,736,-1,761,736,734,-1,757,755,742,-1,742,755,753,-1,742,753,745,-1,745,753,751,-1,745,751,747,-1,747,751,749,-1,767,765,729,-1,729,765,763,-1,729,763,730,-1,730,763,761,-1,730,761,732,-1,732,761,734,-1,760,762,728,-1,770,771,766,-1,766,771,728,-1,766,728,764,-1,764,728,762,-1,746,748,744,-1,744,748,750,-1,744,750,743,-1,743,750,752,-1,728,731,760,-1,760,731,733,-1,760,733,758,-1,758,733,735,-1,758,735,737,-1,752,754,743,-1,743,754,756,-1,743,756,741,-1,741,756,758,-1,741,758,739,-1,739,758,737,-1,768,729,771,-1,771,729,728,-1,770,766,769,-1,769,766,767,-1,772,773,774,-1,774,773,775,-1,776,777,778,-1,778,777,779,-1,780,781,775,-1,775,781,777,-1,775,777,774,-1,774,777,776,-1,782,783,779,-1,779,783,773,-1,779,773,778,-1,778,773,772,-1,780,775,783,-1,783,775,773,-1,781,780,782,-1,782,780,783,-1,777,781,779,-1,779,781,782,-1,784,785,786,-1,786,785,787,-1,785,788,787,-1,787,788,789,-1,788,790,789,-1,789,790,791,-1,790,792,791,-1,791,792,793,-1,792,794,793,-1,793,794,795,-1,794,796,795,-1,795,796,797,-1,796,798,797,-1,797,798,799,-1,798,784,799,-1,799,784,786,-1,785,784,800,-1,800,801,785,-1,785,801,802,-1,785,802,788,-1,798,796,794,-1,790,788,792,-1,792,788,802,-1,792,802,794,-1,794,802,800,-1,794,800,798,-1,798,800,784,-1,802,801,803,-1,803,801,804,-1,800,802,805,-1,805,802,803,-1,801,800,804,-1,804,800,805,-1,806,807,808,-1,808,807,809,-1,807,810,809,-1,809,810,811,-1,810,812,811,-1,811,812,813,-1,814,815,816,-1,814,816,817,-1,817,816,813,-1,817,813,812,-1,818,819,820,-1,818,820,821,-1,821,820,822,-1,821,822,823,-1,823,822,824,-1,823,824,825,-1,825,824,826,-1,825,826,827,-1,827,826,828,-1,827,828,829,-1,829,828,815,-1,829,815,814,-1,806,808,830,-1,806,830,831,-1,831,830,832,-1,831,832,833,-1,833,832,834,-1,833,834,835,-1,835,834,836,-1,835,836,837,-1,837,836,838,-1,837,838,839,-1,839,838,840,-1,839,840,841,-1,841,840,819,-1,841,819,818,-1,842,843,814,-1,814,843,844,-1,814,844,829,-1,829,844,845,-1,829,845,827,-1,827,845,846,-1,827,846,825,-1,825,846,847,-1,825,847,823,-1,823,847,848,-1,823,848,821,-1,821,848,849,-1,821,849,818,-1,818,849,850,-1,818,850,841,-1,841,850,851,-1,841,851,839,-1,839,851,852,-1,839,852,837,-1,837,852,853,-1,837,853,835,-1,835,853,854,-1,835,854,833,-1,833,854,855,-1,833,855,831,-1,831,855,856,-1,831,856,806,-1,806,856,857,-1,806,857,807,-1,807,857,858,-1,807,858,810,-1,810,858,859,-1,810,859,812,-1,812,859,860,-1,812,860,817,-1,817,860,842,-1,817,842,814,-1,859,858,861,-1,861,858,862,-1,860,859,863,-1,863,859,861,-1,860,863,864,-1,860,864,842,-1,842,864,865,-1,842,865,843,-1,843,865,866,-1,843,866,844,-1,844,866,867,-1,844,867,845,-1,845,867,868,-1,845,868,846,-1,846,868,869,-1,846,869,847,-1,847,869,870,-1,847,870,848,-1,848,870,871,-1,848,871,849,-1,849,871,872,-1,849,872,850,-1,850,872,873,-1,850,873,851,-1,851,873,874,-1,851,874,852,-1,852,874,875,-1,852,875,853,-1,853,875,876,-1,853,876,854,-1,854,876,877,-1,854,877,855,-1,855,877,878,-1,855,878,856,-1,856,878,879,-1,856,879,857,-1,858,857,862,-1,862,857,879,-1,880,881,882,-1,882,881,883,-1,881,884,883,-1,883,884,885,-1,884,886,885,-1,885,886,887,-1,886,888,887,-1,887,888,889,-1,888,890,889,-1,889,890,891,-1,890,892,891,-1,891,892,893,-1,892,894,893,-1,893,894,895,-1,894,896,895,-1,895,896,897,-1,896,898,897,-1,897,898,899,-1,898,900,899,-1,899,900,901,-1,900,902,901,-1,901,902,903,-1,902,880,903,-1,903,880,882,-1,880,902,900,-1,900,898,880,-1,880,898,896,-1,880,896,881,-1,886,884,888,-1,888,884,881,-1,888,881,890,-1,890,881,896,-1,890,896,892,-1,892,896,894,-1,904,905,906,-1,904,906,907,-1,907,906,908,-1,907,908,909,-1,909,908,910,-1,909,910,911,-1,911,910,912,-1,911,912,913,-1,913,912,914,-1,913,914,915,-1,904,916,905,-1,905,916,917,-1,918,919,920,-1,918,920,921,-1,921,920,922,-1,921,922,923,-1,923,922,924,-1,923,924,925,-1,925,924,926,-1,925,926,927,-1,927,926,917,-1,927,917,916,-1,928,929,930,-1,928,930,931,-1,931,930,932,-1,931,932,933,-1,933,932,934,-1,933,934,935,-1,935,934,936,-1,935,936,937,-1,937,936,938,-1,937,938,939,-1,939,938,940,-1,939,940,941,-1,941,940,919,-1,941,919,918,-1,942,943,944,-1,942,944,945,-1,945,944,946,-1,945,946,947,-1,947,946,948,-1,947,948,949,-1,949,948,950,-1,949,950,951,-1,951,950,952,-1,951,952,953,-1,953,952,954,-1,953,954,955,-1,955,954,929,-1,955,929,928,-1,956,957,958,-1,956,958,959,-1,959,958,960,-1,959,960,961,-1,961,960,962,-1,961,962,963,-1,963,962,943,-1,963,943,942,-1,956,964,957,-1,957,964,965,-1,966,967,968,-1,966,968,969,-1,969,968,970,-1,969,970,971,-1,970,972,971,-1,971,972,973,-1,971,973,974,-1,974,973,975,-1,974,975,976,-1,976,975,965,-1,976,965,964,-1,967,966,977,-1,977,966,978,-1,977,978,979,-1,979,978,980,-1,979,980,981,-1,981,980,982,-1,981,982,983,-1,983,982,984,-1,983,984,985,-1,986,987,988,-1,986,988,989,-1,989,988,990,-1,989,990,991,-1,991,990,985,-1,991,985,984,-1,915,914,992,-1,915,992,993,-1,993,992,994,-1,993,994,995,-1,995,994,996,-1,995,996,997,-1,997,996,998,-1,997,998,999,-1,999,998,1000,-1,999,1000,1001,-1,1001,1000,1002,-1,1001,1002,1003,-1,1003,1002,987,-1,1003,987,986,-1,916,904,907,-1,964,956,976,-1,976,956,959,-1,976,959,974,-1,974,959,961,-1,974,961,971,-1,971,961,963,-1,971,963,969,-1,969,963,942,-1,916,907,927,-1,927,907,909,-1,927,909,925,-1,925,909,911,-1,925,911,923,-1,923,911,913,-1,923,913,921,-1,921,913,915,-1,921,915,918,-1,918,915,993,-1,918,993,941,-1,941,993,995,-1,941,995,939,-1,939,995,997,-1,939,997,937,-1,937,997,999,-1,937,999,935,-1,935,999,1001,-1,935,1001,933,-1,933,1001,1003,-1,933,1003,931,-1,931,1003,986,-1,931,986,928,-1,928,986,955,-1,955,986,989,-1,955,989,953,-1,953,989,991,-1,953,991,951,-1,951,991,984,-1,951,984,949,-1,949,984,982,-1,949,982,947,-1,947,982,980,-1,947,980,945,-1,945,980,978,-1,945,978,942,-1,942,978,966,-1,942,966,969,-1,1004,1005,1006,-1,1006,1005,1007,-1,1005,1008,1007,-1,1007,1008,1009,-1,1008,1010,1009,-1,1009,1010,1011,-1,1010,1012,1011,-1,1011,1012,1013,-1,1012,1014,1013,-1,1013,1014,1015,-1,1014,1004,1015,-1,1015,1004,1006,-1,1008,1005,1010,-1,1010,1005,1004,-1,1010,1004,1012,-1,1012,1004,1014,-1,
        ]
    }
}
Shape{
    appearance Appearance {
        material  Material 	{
            diffuseColor 0.14901960784313725 0.14901960784313725 0.14901960784313725
            specularColor 0.07450980392156863 0.07450980392156863 0.07450980392156863
            ambientIntensity 0.149
            transparency 0.0
            shininess 0.5
        }
    }
    geometry IndexedFaceSet {
        ccw TRUE
        solid FALSE
        coord DEF co Coordinate {
            point [
                0.6268 -1.4457 0.0, 0.5666 -1.4743 0.0, 0.5666 -1.418 0.0, 0.6413 -1.6566 0.0, 0.5162 -1.6566 0.0, 0.6413 -1.6455 0.0, 0.5162 -1.6385 0.0, 0.6406 -1.6212 0.0, 0.5168 -1.6158 0.0, 0.6369 -1.5971 0.0, 0.5441 -1.5636 0.0, 0.5562 -1.5584 0.0, 0.5728 -1.5557 0.0, 0.5768 -1.5556 0.0, 0.5202 -1.5935 0.0, 0.526 -1.5809 0.0, 0.5336 -1.5715 0.0, 0.5935 -1.5573 0.0, 0.607 -1.5619 0.0, 0.6186 -1.5692 0.0, 0.6275 -1.5783 0.0, 0.6343 -1.59 0.0
            ]
        }
        coordIndex [
            0,1,2,-1,3,4,5,-1,5,4,6,-1,5,6,7,-1,7,6,8,-1,7,8,9,-1,10,11,8,-1,8,11,12,-1,8,12,13,-1,14,15,8,-1,8,15,16,-1,8,16,10,-1,13,17,8,-1,8,17,18,-1,8,18,19,-1,19,20,8,-1,8,20,21,-1,8,21,9,-1,
        ]
    }
}