#VRML V2.0 utf8
# 3D model generated by easyeda2kicad.py (https://github.com/uPesy/easyeda2kicad.py)

Shape{
    appearance Appearance {
        material  Material 	{
            diffuseColor 0.20784313725490197 0.20784313725490197 0.20784313725490197
            specularColor 0.01568627450980392 0.01568627450980392 0.01568627450980392
            ambientIntensity 0.298
            transparency 0.0
            shininess 0.5
        }
    }
    geometry IndexedFaceSet {
        ccw TRUE
        solid FALSE
        coord DEF co Coordinate {
            point [
                -2.4305 -2.5041 0.0591, -2.4604 -2.4853 0.0591, -2.5197 -2.3622 0.0591, -1.7323 -0.1022 0.0591, -0.0634 -0.1022 0.0591, -1.7323 -1.1811 0.0591, -0.0634 -2.5197 0.0591, -2.5197 -1.1811 0.0591, -2.3622 -2.5197 0.0591, -2.3972 -2.5157 0.0591, -2.4853 -2.4604 0.0591, -2.5041 -2.4305 0.0591, -2.5157 -2.3972 0.0591, 1.7323 -1.1811 0.0591, 2.5197 -1.1811 0.0591, 2.5197 -2.3622 0.0591, 2.3622 -2.5197 0.0591, 2.3972 -2.5157 0.0591, 0.1408 -0.1022 0.0591, 0.1487 -0.1033 0.0591, 0.154 -0.1034 0.0591, 1.7323 -0.1022 0.0591, 0.1656 -0.1022 0.0591, 2.5041 -2.4305 0.0591, 2.4853 -2.4604 0.0591, 2.5157 -2.3972 0.0591, 2.4604 -2.4853 0.0591, 2.4305 -2.5041 0.0591, 0.364 0.0958 0.0591, 0.3375 0.0958 0.0591, -0.0634 2.5197 0.0591, 0.0615 0.0958 0.0591, 0.0999 -0.0692 0.0591, 0.0615 -0.101 0.0591, 0.0999 -0.0908 0.0591, 0.1209 -0.0994 0.0591, 2.5197 2.3622 0.0591, 2.5197 1.1811 0.0591, 1.7323 1.1811 0.0591, -0.0442 -0.101 0.0591, -0.0442 -0.0794 0.0591, -0.0393 0.0742 0.0591, -0.0393 0.0958 0.0591, 2.3972 2.5157 0.0591, 2.4305 2.5041 0.0591, 2.4604 2.4853 0.0591, 0.364 -0.101 0.0591, 2.3622 2.5197 0.0591, 2.5157 2.3972 0.0591, 2.5041 2.4305 0.0591, 0.2631 -0.101 0.0591, 0.1783 -0.1009 0.0591, 0.1974 -0.0944 0.0591, 0.1654 0.0744 0.0591, 0.1801 0.0691 0.0591, 0.1034 -0.0712 0.0591, 0.1937 0.06 0.0591, 0.2056 0.0469 0.0591, 0.2199 -0.0047 0.0591, 0.2179 -0.026 0.0591, 0.2126 -0.043 0.0591, 0.1688 -0.0798 0.0591, 0.1504 -0.0818 0.0591, 0.1831 -0.0745 0.0591, 0.1952 -0.0663 0.0591, 0.2044 -0.0566 0.0591, 0.1243 -0.0789 0.0591, 2.4853 2.4604 0.0591, 0.2066 0.0795 0.0591, 0.2244 0.0624 0.0591, 0.2359 0.044 0.0591, -0.0345 -0.0122 0.0591, 0.0351 -0.0122 0.0591, 0.0351 -0.0794 0.0591, 0.2137 0.0317 0.0591, 0.219 0.0106 0.0591, 0.2132 -0.0842 0.0591, 0.228 -0.0687 0.0591, 0.2631 -0.0794 0.0591, 0.2385 -0.05 0.0591, 0.3375 -0.0794 0.0591, -0.0345 0.0094 0.0591, 0.0351 0.0094 0.0591, 0.0351 0.0742 0.0591, 0.2444 -0.0291 0.0591, 0.2463 -0.0063 0.0591, 0.2435 0.0217 0.0591, 0.1879 0.0902 0.0591, 0.166 0.0966 0.0591, 0.1462 0.0982 0.0591, 0.1226 0.0966 0.0591, 0.0999 0.0904 0.0591, 0.0999 0.064 0.0591, 0.1221 0.0735 0.0591, 0.146 0.0766 0.0591, -0.2554 -0.101 0.0591, -0.2312 -0.0471 0.0591, -0.2199 -0.0647 0.0591, -1.7323 1.1811 0.0591, -2.3622 2.5197 0.0591, -2.5197 1.1811 0.0591, -0.2037 -0.0802 0.0591, -0.1831 -0.0921 0.0591, -0.1604 -0.0989 0.0591, -0.4042 -0.101 0.0591, -0.4331 -0.101 0.0591, -0.3562 0.0958 0.0591, -0.3298 0.0958 0.0591, -0.1361 -0.101 0.0591, -0.0826 -0.101 0.0591, -0.0826 0.0958 0.0591, -0.1381 0.0958 0.0591, -0.2112 0.0701 0.0591, -0.2251 0.0547 0.0591, -0.2343 0.0378 0.0591, -0.2842 -0.101 0.0591, -0.303 -0.0458 0.0591, -0.3843 -0.0458 0.0591, -0.1666 0.0928 0.0591, -0.1896 0.0847 0.0591, -0.211 0.0703 0.0591, -2.5041 2.4305 0.0591, -2.4853 2.4604 0.0591, -2.5157 2.3972 0.0591, -2.4604 2.4853 0.0591, -2.4305 2.5041 0.0591, -0.2396 0.0184 0.0591, -0.241 -0.0001 0.0591, -0.2382 -0.0265 0.0591, -2.5197 2.3622 0.0591, -2.3972 2.5157 0.0591, -2.5197 -1.1811 0.1772, -2.5197 -2.3622 2.4213, -2.5197 1.1811 0.1772, -2.5197 0.748 1.2992, -2.5197 2.3622 2.4213, -2.5197 0.748 1.437, -2.5197 -0.748 1.437, -2.5197 -0.748 1.2992, 2.5197 1.1811 0.1772, 2.5197 0.748 1.2992, 2.5197 -0.748 1.2992, 2.5197 -1.1811 0.1772, 2.5197 0.748 1.437, 2.5197 2.3622 2.4213, 2.5197 -0.748 1.437, 2.5197 -2.3622 2.4213, 2.5157 2.3972 2.4213, 2.5041 2.4305 2.4213, 2.4853 2.4604 2.4213, 2.4604 2.4853 2.4213, 2.4305 2.5041 2.4213, 2.3972 2.5157 2.4213, 2.3622 2.5197 2.4213, -2.3622 2.5197 2.4213, -2.3972 2.5157 2.4213, -2.4305 2.5041 2.4213, -2.4604 2.4853 2.4213, -2.4853 2.4604 2.4213, -2.5041 2.4305 2.4213, -2.5157 2.3972 2.4213, -2.5157 -2.3972 2.4213, -2.5041 -2.4305 2.4213, -2.4853 -2.4604 2.4213, -2.4604 -2.4853 2.4213, -2.4305 -2.5041 2.4213, -2.3972 -2.5157 2.4213, -2.3622 -2.5197 2.4213, 2.3622 -2.5197 2.4213, 2.3972 -2.5157 2.4213, 2.4305 -2.5041 2.4213, 2.4604 -2.4853 2.4213, 2.4853 -2.4604 2.4213, 2.5041 -2.4305 2.4213, 2.5157 -2.3972 2.4213, 1.7323 -1.1811 0.1772, 1.7323 1.1811 0.1772, -1.7323 -1.1811 0.1772, -1.7323 1.1811 0.1772
            ]
        }
        coordIndex [
            0,1,2,-1,3,4,5,-1,5,4,6,-1,5,6,7,-1,7,6,8,-1,7,8,2,-1,2,8,9,-1,2,9,0,-1,10,11,1,-1,1,11,12,-1,1,12,2,-1,13,14,6,-1,6,14,15,-1,6,15,16,-1,16,15,17,-1,4,18,6,-1,6,18,19,-1,6,19,13,-1,13,19,20,-1,13,20,21,-1,21,20,22,-1,23,24,25,-1,25,24,26,-1,25,26,15,-1,15,26,27,-1,15,27,17,-1,28,29,30,-1,31,32,33,-1,33,32,34,-1,33,34,35,-1,36,37,38,-1,35,18,33,-1,33,18,4,-1,33,4,39,-1,39,4,40,-1,41,4,42,-1,42,4,30,-1,42,30,31,-1,43,44,45,-1,46,28,38,-1,38,28,30,-1,38,30,36,-1,36,30,47,-1,36,47,48,-1,48,47,49,-1,38,21,46,-1,46,21,22,-1,46,22,50,-1,50,22,51,-1,50,51,52,-1,53,54,55,-1,55,54,56,-1,55,56,57,-1,58,59,55,-1,55,59,60,-1,61,62,63,-1,63,62,64,-1,60,65,55,-1,55,65,64,-1,55,64,66,-1,66,64,62,-1,43,45,47,-1,47,45,67,-1,47,67,49,-1,68,30,69,-1,69,30,29,-1,69,29,70,-1,71,72,73,-1,57,74,55,-1,55,74,75,-1,55,75,58,-1,52,76,50,-1,50,76,77,-1,50,77,78,-1,78,77,79,-1,78,79,80,-1,73,40,71,-1,71,40,4,-1,71,4,81,-1,81,4,41,-1,81,41,82,-1,82,41,83,-1,79,84,80,-1,80,84,85,-1,80,85,29,-1,29,85,86,-1,29,86,70,-1,68,87,30,-1,30,87,88,-1,30,88,89,-1,89,90,30,-1,30,90,91,-1,30,91,31,-1,31,91,92,-1,31,92,32,-1,32,92,93,-1,32,93,55,-1,55,93,94,-1,55,94,53,-1,95,96,97,-1,30,98,99,-1,99,98,100,-1,97,101,95,-1,95,101,102,-1,95,102,103,-1,104,4,105,-1,105,4,3,-1,105,3,106,-1,106,3,98,-1,106,98,107,-1,107,98,30,-1,108,109,4,-1,4,109,110,-1,4,110,30,-1,30,110,111,-1,112,113,107,-1,107,113,114,-1,103,108,95,-1,95,108,4,-1,95,4,115,-1,115,4,104,-1,115,104,116,-1,116,104,117,-1,111,118,30,-1,30,118,119,-1,30,119,107,-1,107,119,120,-1,107,120,112,-1,121,122,123,-1,123,122,124,-1,123,124,125,-1,114,126,107,-1,107,126,127,-1,107,127,95,-1,95,127,128,-1,95,128,96,-1,100,129,99,-1,99,129,123,-1,99,123,130,-1,130,123,125,-1,7,2,131,-1,131,2,132,-1,100,133,129,-1,129,133,134,-1,129,134,135,-1,135,134,136,-1,135,136,132,-1,132,136,137,-1,132,137,131,-1,131,137,138,-1,131,138,133,-1,133,138,134,-1,139,37,36,-1,140,141,142,-1,142,139,140,-1,140,139,36,-1,140,36,143,-1,143,36,144,-1,143,144,145,-1,145,144,146,-1,145,146,141,-1,141,146,15,-1,141,15,142,-1,142,15,14,-1,144,36,48,-1,144,48,147,-1,147,48,49,-1,147,49,148,-1,148,49,67,-1,148,67,149,-1,149,67,45,-1,149,45,150,-1,150,45,44,-1,150,44,151,-1,151,44,43,-1,151,43,152,-1,152,43,47,-1,152,47,153,-1,153,47,154,-1,154,47,30,-1,154,30,99,-1,154,99,130,-1,154,130,155,-1,155,130,125,-1,155,125,156,-1,156,125,124,-1,156,124,157,-1,157,124,122,-1,157,122,158,-1,158,122,121,-1,158,121,159,-1,159,121,123,-1,159,123,160,-1,160,123,129,-1,160,129,135,-1,132,2,12,-1,132,12,161,-1,161,12,11,-1,161,11,162,-1,162,11,10,-1,162,10,163,-1,163,10,1,-1,163,1,164,-1,164,1,0,-1,164,0,165,-1,165,0,9,-1,165,9,166,-1,166,9,8,-1,166,8,167,-1,16,168,6,-1,6,168,167,-1,6,167,8,-1,168,16,17,-1,168,17,169,-1,169,17,27,-1,169,27,170,-1,170,27,26,-1,170,26,171,-1,171,26,24,-1,171,24,172,-1,172,24,23,-1,172,23,173,-1,173,23,25,-1,173,25,174,-1,174,25,15,-1,174,15,146,-1,167,168,146,-1,146,168,169,-1,167,146,154,-1,154,146,144,-1,154,144,153,-1,132,164,165,-1,156,157,160,-1,160,157,158,-1,160,158,159,-1,132,161,164,-1,164,161,162,-1,164,162,163,-1,169,170,146,-1,146,170,171,-1,146,171,174,-1,174,171,172,-1,174,172,173,-1,144,147,153,-1,153,147,148,-1,153,148,149,-1,149,150,153,-1,153,150,151,-1,153,151,152,-1,165,166,132,-1,132,166,167,-1,132,167,135,-1,135,167,154,-1,135,154,160,-1,160,154,155,-1,160,155,156,-1,142,175,139,-1,139,175,176,-1,38,176,21,-1,21,176,175,-1,21,175,13,-1,175,142,13,-1,13,142,14,-1,139,176,37,-1,37,176,38,-1,5,177,3,-1,3,177,178,-1,3,178,98,-1,177,131,178,-1,178,131,133,-1,177,5,131,-1,131,5,7,-1,98,178,100,-1,100,178,133,-1,
        ]
    }
}
Shape{
    appearance Appearance {
        material  Material 	{
            diffuseColor 0.8313725490196079 0.8313725490196079 0.8196078431372549
            specularColor 0.6666666666666666 0.6666666666666666 0.6549019607843137
            ambientIntensity 0.83
            transparency 0.0
            shininess 0.5
        }
    }
    geometry IndexedFaceSet {
        ccw TRUE
        solid FALSE
        coord DEF co Coordinate {
            point [
                -2.7165 0.748 1.2402, -2.7165 -0.748 1.2402, -2.7116 -0.748 1.284, -2.7116 0.748 1.284, -2.697 -0.748 1.3256, -2.697 0.748 1.3256, -2.6736 -0.748 1.3629, -2.6736 0.748 1.3629, -2.6424 -0.748 1.3941, -2.6424 0.748 1.3941, -2.6051 -0.748 1.4175, -2.6051 0.748 1.4175, -2.5635 -0.748 1.4321, -2.5635 0.748 1.4321, -2.5197 -0.748 1.437, -2.5197 0.748 1.437, -2.5394 0.748 1.2992, -2.5197 0.748 1.2992, -2.5394 -0.748 1.2992, -2.5197 -0.748 1.2992, -2.5481 0.748 1.2982, -2.5481 -0.748 1.2982, -2.5565 0.748 1.2953, -2.5565 -0.748 1.2953, -2.5639 0.748 1.2906, -2.5639 -0.748 1.2906, -2.5702 0.748 1.2844, -2.5702 -0.748 1.2844, -2.5748 0.748 1.2769, -2.5748 -0.748 1.2769, -2.5778 0.748 1.2686, -2.5778 -0.748 1.2686, -2.5787 0.748 1.2598, -2.5787 -0.748 1.2598, -2.5787 0.748 0.1772, -2.5787 -0.748 0.1772, -2.5778 0.748 0.1684, -2.5778 -0.748 0.1684, -2.5748 0.748 0.1601, -2.5748 -0.748 0.1601, -2.5702 0.748 0.1526, -2.5702 -0.748 0.1526, -2.5639 0.748 0.1464, -2.5639 -0.748 0.1464, -2.5565 0.748 0.1417, -2.5565 -0.748 0.1417, -2.5481 0.748 0.1388, -2.5481 -0.748 0.1388, -2.5394 0.748 0.1378, -2.5394 -0.748 0.1378, -1.9291 0.748 0.1378, -1.9291 -0.748 0.1378, -1.9291 0.748 0.0, -1.9291 -0.748 0.0, -2.6181 0.748 0.0, -2.6181 -0.748 0.0, -2.6436 -0.748 0.0034, -2.6436 0.748 0.0034, -2.6673 -0.748 0.0132, -2.6673 0.748 0.0132, -2.6877 -0.748 0.0288, -2.6877 0.748 0.0288, -2.7033 -0.748 0.0492, -2.7033 0.748 0.0492, -2.7132 -0.748 0.073, -2.7132 0.748 0.073, -2.7165 -0.748 0.0984, -2.7165 0.748 0.0984, 2.5394 0.748 0.1378, 2.5394 -0.748 0.1378, 2.5481 0.748 0.1388, 2.5481 -0.748 0.1388, 2.5565 0.748 0.1417, 2.5565 -0.748 0.1417, 2.5639 0.748 0.1464, 2.5639 -0.748 0.1464, 2.5702 0.748 0.1526, 2.5702 -0.748 0.1526, 2.5748 0.748 0.1601, 2.5748 -0.748 0.1601, 2.5778 0.748 0.1684, 2.5778 -0.748 0.1684, 2.5787 0.748 0.1772, 2.5787 -0.748 0.1772, 2.5787 0.748 1.2598, 2.5787 -0.748 1.2598, 2.5778 0.748 1.2686, 2.5778 -0.748 1.2686, 2.5748 0.748 1.2769, 2.5748 -0.748 1.2769, 2.5702 0.748 1.2844, 2.5702 -0.748 1.2844, 2.5639 0.748 1.2906, 2.5639 -0.748 1.2906, 2.5565 0.748 1.2953, 2.5565 -0.748 1.2953, 2.5481 0.748 1.2982, 2.5481 -0.748 1.2982, 2.5394 0.748 1.2992, 2.5394 -0.748 1.2992, 2.5197 0.748 1.2992, 2.5197 -0.748 1.2992, 2.5197 0.748 1.437, 2.5197 -0.748 1.437, 2.5635 -0.748 1.4321, 2.5635 0.748 1.4321, 2.6051 -0.748 1.4175, 2.6051 0.748 1.4175, 2.6424 -0.748 1.3941, 2.6424 0.748 1.3941, 2.6736 -0.748 1.3629, 2.6736 0.748 1.3629, 2.697 -0.748 1.3256, 2.697 0.748 1.3256, 2.7116 -0.748 1.284, 2.7116 0.748 1.284, 2.7165 -0.748 1.2402, 2.7165 0.748 1.2402, 2.7165 0.748 0.0984, 2.7165 -0.748 0.0984, 2.7132 -0.748 0.073, 2.7132 0.748 0.073, 2.7033 -0.748 0.0492, 2.7033 0.748 0.0492, 2.6877 -0.748 0.0288, 2.6877 0.748 0.0288, 2.6673 -0.748 0.0132, 2.6673 0.748 0.0132, 2.6436 -0.748 0.0034, 2.6436 0.748 0.0034, 2.6181 -0.748 0.0, 2.6181 0.748 0.0, 1.9291 0.748 0.0, 1.9291 -0.748 0.0, 1.9291 0.748 0.1378, 1.9291 -0.748 0.1378, -0.3096 -0.0242 0.063, -0.303 -0.0458 0.063, -0.3755 -0.0242 0.063, -0.3843 -0.0458 0.063, -0.339 0.058 0.063, -0.3298 0.0958 0.063, -0.2554 -0.101 0.063, -0.2842 -0.101 0.063, -0.3409 0.0648 0.063, -0.3422 0.0718 0.063, -0.3562 0.0958 0.063, -0.3428 0.0718 0.063, -0.3441 0.0649 0.063, -0.3458 0.058 0.063, -0.4331 -0.101 0.063, -0.4042 -0.101 0.063, -0.3843 -0.0458 0.0591, -0.4042 -0.101 0.0591, -0.303 -0.0458 0.0591, -0.2842 -0.101 0.0591, -0.2554 -0.101 0.0591, -0.3298 0.0958 0.0591, -0.3562 0.0958 0.0591, -0.4331 -0.101 0.0591, -0.3458 0.058 0.0591, -0.3441 0.0649 0.0591, -0.3428 0.0718 0.0591, -0.3422 0.0718 0.0591, -0.3409 0.0648 0.0591, -0.339 0.058 0.0591, -0.3096 -0.0242 0.0591, -0.3755 -0.0242 0.0591, -0.1381 0.0958 0.063, -0.1381 0.0958 0.0591, -0.0826 0.0958 0.063, -0.0826 0.0958 0.0591, -0.1666 0.0928 0.063, -0.1666 0.0928 0.0591, -0.1896 0.0847 0.063, -0.1896 0.0847 0.0591, -0.211 0.0703 0.063, -0.211 0.0703 0.0591, -0.2112 0.0701 0.063, -0.2112 0.0701 0.0591, -0.2251 0.0547 0.063, -0.2251 0.0547 0.0591, -0.2343 0.0378 0.063, -0.2343 0.0378 0.0591, -0.2396 0.0184 0.063, -0.2396 0.0184 0.0591, -0.241 -0.0001 0.063, -0.241 -0.0001 0.0591, -0.2382 -0.0265 0.063, -0.2382 -0.0265 0.0591, -0.2312 -0.0471 0.063, -0.2312 -0.0471 0.0591, -0.2199 -0.0647 0.063, -0.2199 -0.0647 0.0591, -0.2037 -0.0802 0.063, -0.2037 -0.0802 0.0591, -0.1831 -0.0921 0.063, -0.1831 -0.0921 0.0591, -0.1604 -0.0989 0.063, -0.1604 -0.0989 0.0591, -0.1361 -0.101 0.063, -0.1361 -0.101 0.0591, -0.0826 -0.101 0.063, -0.0826 -0.101 0.0591, -0.2015 0.0466 0.063, -0.1919 0.0568 0.063, -0.1775 0.066 0.063, -0.1613 0.0717 0.063, -0.138 0.0742 0.063, -0.109 0.0742 0.063, -0.109 -0.0794 0.063, -0.1369 -0.0794 0.063, -0.1577 -0.0775 0.063, -0.1742 -0.0723 0.063, -0.1877 -0.0644 0.063, -0.1987 -0.0534 0.063, -0.207 -0.0399 0.063, -0.2128 -0.0214 0.063, -0.2146 -0.0007 0.063, -0.2129 0.0189 0.063, -0.2083 0.0345 0.063, -0.1369 -0.0794 0.0591, -0.109 -0.0794 0.0591, -0.1577 -0.0775 0.0591, -0.1742 -0.0723 0.0591, -0.1877 -0.0644 0.0591, -0.1987 -0.0534 0.0591, -0.207 -0.0399 0.0591, -0.2128 -0.0214 0.0591, -0.2146 -0.0007 0.0591, -0.2129 0.0189 0.0591, -0.2083 0.0345 0.0591, -0.2015 0.0466 0.0591, -0.1919 0.0568 0.0591, -0.1775 0.066 0.0591, -0.1613 0.0717 0.0591, -0.138 0.0742 0.0591, -0.109 0.0742 0.0591, 0.0615 0.0958 0.063, 0.0615 0.0958 0.0591, 0.0615 -0.101 0.063, 0.0615 -0.101 0.0591, -0.0393 0.0958 0.063, -0.0393 0.0958 0.0591, -0.0393 0.0742 0.063, -0.0393 0.0742 0.0591, 0.0351 0.0742 0.063, 0.0351 0.0742 0.0591, 0.0351 0.0094 0.063, 0.0351 0.0094 0.0591, -0.0345 0.0094 0.063, -0.0345 0.0094 0.0591, -0.0345 -0.0122 0.063, -0.0345 -0.0122 0.0591, 0.0351 -0.0122 0.063, 0.0351 -0.0122 0.0591, 0.0351 -0.0794 0.063, 0.0351 -0.0794 0.0591, -0.0442 -0.0794 0.063, -0.0442 -0.0794 0.0591, -0.0442 -0.101 0.063, -0.0442 -0.101 0.0591, 0.1656 -0.1022 0.0591, 0.154 -0.1034 0.0591, 0.154 -0.1034 0.063, 0.1783 -0.1009 0.0591, 0.1783 -0.1009 0.063, 0.1974 -0.0944 0.063, 0.1974 -0.0944 0.0591, 0.2132 -0.0842 0.063, 0.2132 -0.0842 0.0591, 0.228 -0.0687 0.063, 0.228 -0.0687 0.0591, 0.2385 -0.05 0.063, 0.2385 -0.05 0.0591, 0.2444 -0.0291 0.063, 0.2444 -0.0291 0.0591, 0.2463 -0.0063 0.063, 0.2463 -0.0063 0.0591, 0.2435 0.0217 0.063, 0.2435 0.0217 0.0591, 0.2359 0.044 0.063, 0.2359 0.044 0.0591, 0.2244 0.0624 0.063, 0.2244 0.0624 0.0591, 0.2066 0.0795 0.063, 0.2066 0.0795 0.0591, 0.1879 0.0902 0.063, 0.1879 0.0902 0.0591, 0.166 0.0966 0.063, 0.166 0.0966 0.0591, 0.1462 0.0982 0.063, 0.1462 0.0982 0.0591, 0.1226 0.0966 0.063, 0.1226 0.0966 0.0591, 0.0999 0.0904 0.063, 0.0999 0.0904 0.0591, 0.0999 0.064 0.063, 0.0999 0.064 0.0591, 0.1221 0.0735 0.063, 0.1221 0.0735 0.0591, 0.146 0.0766 0.063, 0.146 0.0766 0.0591, 0.1654 0.0744 0.063, 0.1654 0.0744 0.0591, 0.1801 0.0691 0.063, 0.1801 0.0691 0.0591, 0.1937 0.06 0.063, 0.1937 0.06 0.0591, 0.2056 0.0469 0.063, 0.2056 0.0469 0.0591, 0.2137 0.0317 0.063, 0.2137 0.0317 0.0591, 0.219 0.0106 0.063, 0.219 0.0106 0.0591, 0.2199 -0.0047 0.063, 0.2199 -0.0047 0.0591, 0.2179 -0.026 0.063, 0.2179 -0.026 0.0591, 0.2126 -0.043 0.063, 0.2126 -0.043 0.0591, 0.2044 -0.0566 0.063, 0.2044 -0.0566 0.0591, 0.1952 -0.0663 0.063, 0.1952 -0.0663 0.0591, 0.1831 -0.0745 0.063, 0.1831 -0.0745 0.0591, 0.1688 -0.0798 0.063, 0.1688 -0.0798 0.0591, 0.1504 -0.0818 0.063, 0.1504 -0.0818 0.0591, 0.1243 -0.0789 0.063, 0.1243 -0.0789 0.0591, 0.1034 -0.0712 0.063, 0.1034 -0.0712 0.0591, 0.0999 -0.0692 0.063, 0.0999 -0.0692 0.0591, 0.0999 -0.0908 0.063, 0.0999 -0.0908 0.0591, 0.1209 -0.0994 0.0591, 0.1209 -0.0994 0.063, 0.1408 -0.1022 0.0591, 0.1487 -0.1033 0.063, 0.1487 -0.1033 0.0591, 0.364 0.0958 0.063, 0.364 0.0958 0.0591, 0.364 -0.101 0.063, 0.364 -0.101 0.0591, 0.3375 0.0958 0.063, 0.3375 0.0958 0.0591, 0.3375 -0.0794 0.063, 0.3375 -0.0794 0.0591, 0.2631 -0.0794 0.063, 0.2631 -0.0794 0.0591, 0.2631 -0.101 0.063, 0.2631 -0.101 0.0591
            ]
        }
        coordIndex [
            0,1,2,-1,0,2,3,-1,3,2,4,-1,3,4,5,-1,5,4,6,-1,5,6,7,-1,7,6,8,-1,7,8,9,-1,9,8,10,-1,9,10,11,-1,11,10,12,-1,11,12,13,-1,13,12,14,-1,13,14,15,-1,16,17,18,-1,18,17,19,-1,16,18,20,-1,20,18,21,-1,20,21,22,-1,22,21,23,-1,22,23,24,-1,24,23,25,-1,24,25,26,-1,26,25,27,-1,26,27,28,-1,28,27,29,-1,28,29,30,-1,30,29,31,-1,30,31,32,-1,32,31,33,-1,34,32,35,-1,35,32,33,-1,34,35,36,-1,36,35,37,-1,36,37,38,-1,38,37,39,-1,38,39,40,-1,40,39,41,-1,40,41,42,-1,42,41,43,-1,42,43,44,-1,44,43,45,-1,44,45,46,-1,46,45,47,-1,46,47,48,-1,48,47,49,-1,50,48,51,-1,51,48,49,-1,52,50,53,-1,53,50,51,-1,54,52,55,-1,55,52,53,-1,54,55,56,-1,54,56,57,-1,57,56,58,-1,57,58,59,-1,59,58,60,-1,59,60,61,-1,61,60,62,-1,61,62,63,-1,63,62,64,-1,63,64,65,-1,65,64,66,-1,65,66,67,-1,0,67,1,-1,1,67,66,-1,13,15,17,-1,67,38,65,-1,65,38,40,-1,65,40,63,-1,17,16,13,-1,13,16,20,-1,13,20,11,-1,11,20,22,-1,11,22,9,-1,9,22,24,-1,9,24,7,-1,7,24,26,-1,7,26,5,-1,5,26,28,-1,5,28,3,-1,63,40,61,-1,61,40,42,-1,61,42,59,-1,59,42,57,-1,57,42,44,-1,57,44,54,-1,28,30,3,-1,3,30,32,-1,3,32,0,-1,0,32,34,-1,0,34,67,-1,67,34,36,-1,67,36,38,-1,50,52,48,-1,48,52,54,-1,48,54,46,-1,46,54,44,-1,66,64,39,-1,39,64,41,-1,64,62,41,-1,41,62,60,-1,41,60,43,-1,19,14,18,-1,18,14,12,-1,60,58,43,-1,43,58,56,-1,43,56,45,-1,45,56,55,-1,45,55,47,-1,53,51,55,-1,55,51,49,-1,55,49,47,-1,39,37,66,-1,66,37,35,-1,66,35,1,-1,1,35,33,-1,1,33,2,-1,2,33,31,-1,2,31,4,-1,4,31,29,-1,4,29,6,-1,6,29,27,-1,6,27,8,-1,8,27,25,-1,8,25,10,-1,10,25,23,-1,10,23,12,-1,12,23,21,-1,12,21,18,-1,68,69,70,-1,70,69,71,-1,70,71,72,-1,72,71,73,-1,72,73,74,-1,74,73,75,-1,74,75,76,-1,76,75,77,-1,76,77,78,-1,78,77,79,-1,78,79,80,-1,80,79,81,-1,80,81,82,-1,82,81,83,-1,84,82,85,-1,85,82,83,-1,84,85,86,-1,86,85,87,-1,86,87,88,-1,88,87,89,-1,88,89,90,-1,90,89,91,-1,90,91,92,-1,92,91,93,-1,92,93,94,-1,94,93,95,-1,94,95,96,-1,96,95,97,-1,96,97,98,-1,98,97,99,-1,100,98,101,-1,101,98,99,-1,102,103,104,-1,102,104,105,-1,105,104,106,-1,105,106,107,-1,107,106,108,-1,107,108,109,-1,109,108,110,-1,109,110,111,-1,111,110,112,-1,111,112,113,-1,113,112,114,-1,113,114,115,-1,115,114,116,-1,115,116,117,-1,118,117,119,-1,119,117,116,-1,118,119,120,-1,118,120,121,-1,121,120,122,-1,121,122,123,-1,123,122,124,-1,123,124,125,-1,125,124,126,-1,125,126,127,-1,127,126,128,-1,127,128,129,-1,129,128,130,-1,129,130,131,-1,132,131,133,-1,133,131,130,-1,134,132,135,-1,135,132,133,-1,68,134,69,-1,69,134,135,-1,132,134,131,-1,131,134,68,-1,100,102,98,-1,98,102,105,-1,68,70,131,-1,131,70,72,-1,131,72,129,-1,129,72,74,-1,118,121,78,-1,78,121,76,-1,121,123,76,-1,76,123,125,-1,76,125,74,-1,74,125,127,-1,74,127,129,-1,78,80,118,-1,118,80,82,-1,118,82,117,-1,117,82,84,-1,117,84,115,-1,115,84,86,-1,115,86,113,-1,113,86,88,-1,113,88,111,-1,111,88,90,-1,111,90,109,-1,109,90,92,-1,109,92,107,-1,107,92,94,-1,107,94,105,-1,105,94,96,-1,105,96,98,-1,104,103,101,-1,135,133,69,-1,69,133,130,-1,69,130,71,-1,101,99,104,-1,104,99,97,-1,104,97,106,-1,106,97,95,-1,106,95,108,-1,108,95,93,-1,108,93,110,-1,110,93,91,-1,110,91,112,-1,112,91,89,-1,112,89,114,-1,71,130,73,-1,73,130,128,-1,73,128,75,-1,89,87,114,-1,114,87,85,-1,114,85,116,-1,116,85,83,-1,116,83,119,-1,128,126,75,-1,75,126,124,-1,75,124,77,-1,83,81,119,-1,119,81,79,-1,119,79,120,-1,120,79,77,-1,120,77,122,-1,122,77,124,-1,136,137,138,-1,138,137,139,-1,140,141,136,-1,136,141,142,-1,136,142,137,-1,137,142,143,-1,140,144,141,-1,141,144,145,-1,141,145,146,-1,146,145,147,-1,146,147,148,-1,148,149,146,-1,146,149,138,-1,146,138,150,-1,150,138,139,-1,150,139,151,-1,139,152,151,-1,151,152,153,-1,137,154,139,-1,139,154,152,-1,143,155,137,-1,137,155,154,-1,142,156,143,-1,143,156,155,-1,141,157,142,-1,142,157,156,-1,146,158,141,-1,141,158,157,-1,150,159,146,-1,146,159,158,-1,150,151,159,-1,159,151,153,-1,160,149,148,-1,160,148,161,-1,161,148,147,-1,161,147,162,-1,145,163,147,-1,147,163,162,-1,163,145,144,-1,163,144,164,-1,164,144,140,-1,164,140,165,-1,136,166,140,-1,140,166,165,-1,138,167,136,-1,136,167,166,-1,160,167,149,-1,149,167,138,-1,168,169,170,-1,170,169,171,-1,169,168,172,-1,169,172,173,-1,173,172,174,-1,173,174,175,-1,175,174,176,-1,175,176,177,-1,177,176,178,-1,177,178,179,-1,179,178,180,-1,179,180,181,-1,181,180,182,-1,181,182,183,-1,183,182,184,-1,183,184,185,-1,185,184,186,-1,185,186,187,-1,187,186,188,-1,187,188,189,-1,189,188,190,-1,189,190,191,-1,191,190,192,-1,191,192,193,-1,193,192,194,-1,193,194,195,-1,195,194,196,-1,195,196,197,-1,197,196,198,-1,197,198,199,-1,199,198,200,-1,199,200,201,-1,202,203,200,-1,200,203,201,-1,202,170,203,-1,203,170,171,-1,182,180,204,-1,204,180,178,-1,204,178,205,-1,205,178,176,-1,205,176,206,-1,206,176,174,-1,206,174,207,-1,207,174,172,-1,207,172,208,-1,208,172,168,-1,208,168,209,-1,209,168,170,-1,209,170,210,-1,210,170,202,-1,210,202,211,-1,211,202,200,-1,211,200,212,-1,212,200,198,-1,212,198,213,-1,213,198,196,-1,213,196,214,-1,214,196,194,-1,214,194,215,-1,215,194,192,-1,215,192,216,-1,216,192,190,-1,216,190,217,-1,217,190,188,-1,217,188,218,-1,218,188,186,-1,218,186,219,-1,219,186,184,-1,219,184,220,-1,220,184,182,-1,220,182,204,-1,211,221,210,-1,210,221,222,-1,221,211,212,-1,221,212,223,-1,223,212,213,-1,223,213,224,-1,224,213,214,-1,224,214,225,-1,225,214,215,-1,225,215,226,-1,226,215,216,-1,226,216,227,-1,227,216,217,-1,227,217,228,-1,228,217,218,-1,228,218,229,-1,229,218,219,-1,229,219,230,-1,230,219,220,-1,230,220,231,-1,231,220,204,-1,231,204,232,-1,232,204,205,-1,232,205,233,-1,233,205,206,-1,233,206,234,-1,234,206,207,-1,234,207,235,-1,235,207,208,-1,235,208,236,-1,209,237,208,-1,208,237,236,-1,222,237,210,-1,210,237,209,-1,238,239,240,-1,240,239,241,-1,242,243,238,-1,238,243,239,-1,244,245,242,-1,242,245,243,-1,246,247,244,-1,244,247,245,-1,248,249,246,-1,246,249,247,-1,250,251,248,-1,248,251,249,-1,252,253,250,-1,250,253,251,-1,254,255,252,-1,252,255,253,-1,256,257,254,-1,254,257,255,-1,258,259,256,-1,256,259,257,-1,260,261,258,-1,258,261,259,-1,260,240,261,-1,261,240,241,-1,240,260,258,-1,258,256,240,-1,240,256,254,-1,240,254,238,-1,244,242,246,-1,246,242,238,-1,246,238,248,-1,248,238,254,-1,248,254,250,-1,250,254,252,-1,262,263,264,-1,262,264,265,-1,264,266,265,-1,265,266,267,-1,265,267,268,-1,268,267,269,-1,268,269,270,-1,270,269,271,-1,270,271,272,-1,272,271,273,-1,272,273,274,-1,274,273,275,-1,274,275,276,-1,276,275,277,-1,276,277,278,-1,278,277,279,-1,278,279,280,-1,280,279,281,-1,280,281,282,-1,282,281,283,-1,282,283,284,-1,284,283,285,-1,284,285,286,-1,286,285,287,-1,286,287,288,-1,288,287,289,-1,288,289,290,-1,290,289,291,-1,290,291,292,-1,292,291,293,-1,292,293,294,-1,294,293,295,-1,294,295,296,-1,297,298,295,-1,295,298,296,-1,298,297,299,-1,298,299,300,-1,300,299,301,-1,300,301,302,-1,302,301,303,-1,302,303,304,-1,304,303,305,-1,304,305,306,-1,306,305,307,-1,306,307,308,-1,308,307,309,-1,308,309,310,-1,310,309,311,-1,310,311,312,-1,312,311,313,-1,312,313,314,-1,314,313,315,-1,314,315,316,-1,316,315,317,-1,316,317,318,-1,318,317,319,-1,318,319,320,-1,320,319,321,-1,320,321,322,-1,322,321,323,-1,322,323,324,-1,324,323,325,-1,324,325,326,-1,326,325,327,-1,326,327,328,-1,328,327,329,-1,328,329,330,-1,330,329,331,-1,330,331,332,-1,332,331,333,-1,332,333,334,-1,334,333,335,-1,334,335,336,-1,337,338,335,-1,335,338,336,-1,339,338,340,-1,340,338,337,-1,339,340,341,-1,341,340,342,-1,341,342,343,-1,343,342,264,-1,343,264,263,-1,327,264,329,-1,329,264,342,-1,329,342,331,-1,331,342,340,-1,331,340,333,-1,333,340,337,-1,333,337,335,-1,297,295,299,-1,299,295,293,-1,299,293,301,-1,301,293,291,-1,301,291,303,-1,303,291,289,-1,303,289,305,-1,305,289,287,-1,305,287,307,-1,307,287,285,-1,307,285,309,-1,309,285,283,-1,309,283,311,-1,311,283,281,-1,311,281,313,-1,313,281,279,-1,313,279,315,-1,315,279,277,-1,315,277,317,-1,317,277,275,-1,317,275,319,-1,319,275,273,-1,319,273,321,-1,321,273,271,-1,321,271,323,-1,323,271,269,-1,323,269,325,-1,325,269,267,-1,325,267,327,-1,327,267,266,-1,327,266,264,-1,344,345,346,-1,346,345,347,-1,348,349,344,-1,344,349,345,-1,350,351,348,-1,348,351,349,-1,352,353,350,-1,350,353,351,-1,354,355,352,-1,352,355,353,-1,354,346,355,-1,355,346,347,-1,348,344,350,-1,350,344,346,-1,350,346,352,-1,352,346,354,-1,
        ]
    }
}
Shape{
    appearance Appearance {
        material  Material 	{
            diffuseColor 0.20784313725490197 0.20784313725490197 0.20784313725490197
            specularColor 0.01568627450980392 0.01568627450980392 0.01568627450980392
            ambientIntensity 0.298
            transparency 0.0
            shininess 0.5
        }
    }
    geometry IndexedFaceSet {
        ccw TRUE
        solid FALSE
        coord DEF co Coordinate {
            point [
                -0.3096 -0.0242 0.0591, -0.3755 -0.0242 0.0591, -0.339 0.058 0.0591, -0.3458 0.058 0.0591, -0.3409 0.0648 0.0591, -0.3441 0.0649 0.0591, -0.3422 0.0718 0.0591, -0.3428 0.0718 0.0591, -0.109 0.0742 0.0591, -0.109 -0.0794 0.0591, -0.138 0.0742 0.0591, -0.1369 -0.0794 0.0591, -0.1577 -0.0775 0.0591, -0.2146 -0.0007 0.0591, -0.2129 0.0189 0.0591, -0.2083 0.0345 0.0591, -0.1613 0.0717 0.0591, -0.1742 -0.0723 0.0591, -0.1877 -0.0644 0.0591, -0.1987 -0.0534 0.0591, -0.207 -0.0399 0.0591, -0.2128 -0.0214 0.0591, -0.2015 0.0466 0.0591, -0.1919 0.0568 0.0591, -0.1775 0.066 0.0591
            ]
        }
        coordIndex [
            0,1,2,-1,2,1,3,-1,2,3,4,-1,4,3,5,-1,4,5,6,-1,6,5,7,-1,8,9,10,-1,10,9,11,-1,10,11,12,-1,13,14,10,-1,10,14,15,-1,10,15,16,-1,12,17,10,-1,10,17,18,-1,10,18,19,-1,19,20,10,-1,10,20,21,-1,10,21,13,-1,22,23,15,-1,15,23,24,-1,15,24,16,-1,
        ]
    }
}