#VRML V2.0 utf8
# 3D model generated by easyeda2kicad.py (https://github.com/uPesy/easyeda2kicad.py)

Shape{
    appearance Appearance {
        material  Material 	{
            diffuseColor 0.20784313725490197 0.20784313725490197 0.20784313725490197
            specularColor 0.01568627450980392 0.01568627450980392 0.01568627450980392
            ambientIntensity 0.298
            transparency 0.0
            shininess 0.5
        }
    }
    geometry IndexedFaceSet {
        ccw TRUE
        solid FALSE
        coord DEF co Coordinate {
            point [
                -0.0437 1.9026 0.9094, -0.0373 1.9026 0.9094, -0.0373 1.9179 0.7353, 0.0235 1.9422 0.4569, 0.0227 1.9328 0.5647, 0.0674 1.9302 0.5948, 0.1384 1.9268 0.6338, 0.1329 1.9275 0.6257, 0.0674 1.9275 0.6257, -0.1616 1.9424 0.4552, -0.1495 1.9425 0.4539, -0.1844 1.9425 0.4539, -0.0797 1.9179 0.735, -0.0818 1.9179 0.7353, -0.0437 1.9179 0.7353, -0.1157 1.918 0.7339, -0.1157 1.9179 0.7353, -0.1109 1.9179 0.7353, -1.0669 1.9026 0.9094, -0.8245 1.9026 0.9094, -0.8245 1.9179 0.7353, -0.2772 1.933 0.5626, -0.3121 1.933 0.5624, -0.3121 1.9302 0.5948, -0.4493 1.9425 0.4535, -0.4494 1.9425 0.4539, -0.4465 1.9425 0.4539, -0.4465 1.9302 0.5948, -0.4913 1.9331 0.5611, -0.5062 1.9331 0.561, -0.4649 1.9425 0.4539, -0.4647 1.9425 0.4534, -0.5312 1.9426 0.453, -0.5467 1.9426 0.4528, -0.8245 1.9441 0.4359, -0.4465 1.9441 0.4359, -0.5309 1.9425 0.4539, -0.5204 1.94 0.4825, -0.4753 1.94 0.4829, -0.3121 1.9371 0.5154, -0.3295 1.9371 0.5153, -0.3329 1.9341 0.5498, -0.3329 1.933 0.5622, -0.3449 1.9302 0.5948, -0.3295 1.9382 0.503, -0.3449 1.9425 0.4539, -0.3121 1.9382 0.5031, -0.2907 1.9382 0.5032, -0.3121 1.9414 0.4668, -0.2905 1.9414 0.467, -0.3121 1.9341 0.55, -0.2911 1.9341 0.5501, -0.2908 1.9371 0.5156, -0.3347 1.9414 0.4666, -0.3346 1.9425 0.4543, -0.3121 1.9425 0.4539, -0.3121 1.9425 0.4545, -0.2764 1.9424 0.4548, -0.2231 1.9407 0.4743, -0.2247 1.9413 0.4679, -0.225 1.9413 0.4679, -0.2623 1.9357 0.5319, -0.2105 1.9302 0.5948, -0.2483 1.9357 0.532, -0.2105 1.9375 0.511, -0.2267 1.9407 0.4741, -0.2257 1.941 0.4705, 0.0082 1.9262 0.6402, -0.0349 1.9262 0.6399, -0.0373 1.9275 0.6257, 0.0222 1.9273 0.628, 0.0215 1.9179 0.7353, 0.0674 1.9179 0.7353, 0.0215 1.9178 0.7359, 1.0997 1.9504 0.3638, 0.4755 1.9455 0.4194, 0.4905 1.9445 0.4308, 1.0953 1.9441 0.4359, 0.3781 1.9441 0.4359, 0.3854 1.9448 0.4279, 0.0674 1.9504 0.3638, 0.4008 1.9457 0.4174, 0.418 1.9463 0.4109, 0.4366 1.9465 0.4088, 0.4396 1.9464 0.4089, 0.4578 1.9462 0.4118, 0.4945 1.9441 0.4359, 0.5018 1.9433 0.445, 1.0943 1.9425 0.4539, 0.5059 1.9425 0.4539, 0.5094 1.9418 0.4615, 0.5235 1.9414 0.466, 0.5506 1.9402 0.4808, 0.5707 1.9386 0.4987, 0.5741 1.9382 0.5027, 0.59 1.936 0.5277, 0.5998 1.9335 0.5565, 1.0858 1.9302 0.5948, 0.6024 1.9313 0.5825, 0.602 1.9304 0.5924, 0.6015 1.9302 0.5948, 1.084 1.9275 0.6257, 0.558 1.923 0.6766, 0.5319 1.9215 0.6935, 1.0774 1.9179 0.7353, 0.5656 1.9236 0.6697, 0.5031 1.9207 0.7033, 0.4768 1.9205 0.7059, 0.428 1.9179 0.7353, 0.5955 1.9277 0.6226, 0.594 1.9275 0.6257, 0.5822 1.9254 0.6496, 0.4432 1.919 0.7224, 0.468 1.9205 0.7054, 0.4591 1.9206 0.7042, 0.3007 1.9154 0.7635, 0.2622 1.9166 0.7496, 0.0674 1.9026 0.9094, 0.0075 1.9178 0.7358, 0.0075 1.9179 0.7353, 1.0669 1.9026 0.9094, 0.425 1.9177 0.7377, 0.4063 1.9167 0.7492, 0.3707 1.9155 0.7626, 0.3324 1.9151 0.767, -1.0774 1.9179 0.7353, -0.8245 1.9275 0.6257, -1.084 1.9275 0.6257, -0.8245 1.9302 0.5948, -1.0858 1.9302 0.5948, -0.8245 1.9425 0.4539, -1.0943 1.9425 0.4539, -1.0953 1.9441 0.4359, -0.1352 1.9179 0.7353, -0.1211 1.9182 0.7323, -0.121 1.9194 0.7177, -0.0976 1.9264 0.6379, -0.1098 1.9262 0.6401, -0.1157 1.9192 0.7199, -0.1157 1.926 0.6427, -0.1198 1.9194 0.7184, -0.1205 1.9258 0.6448, -0.1352 1.9275 0.6257, -0.0595 1.9248 0.6567, -0.0647 1.9254 0.6493, -0.0668 1.9256 0.6472, -0.0739 1.926 0.6422, -0.0659 1.9199 0.7125, -0.06 1.9206 0.7044, -0.0734 1.9194 0.7185, -0.0819 1.919 0.7224, -0.1088 1.919 0.7226, -0.0955 1.9189 0.7243, -0.0544 1.9231 0.6762, -0.0913 1.9189 0.7241, -0.0543 1.9227 0.6802, -0.0563 1.9214 0.6952, -0.0816 1.9263 0.6392, -0.0925 1.9264 0.6378, -0.0561 1.924 0.6654, -0.0957 1.9178 0.7368, -0.1098 1.9179 0.7356, -0.1157 1.9026 0.9094, -0.0424 1.921 0.6991, -0.0437 1.9208 0.7021, -0.0477 1.92 0.7111, -0.0556 1.9191 0.7212, -0.0582 1.9189 0.7237, -0.0684 1.9183 0.7307, -0.0437 1.9275 0.6257, -0.0437 1.9248 0.6564, -0.0399 1.9223 0.6851, -0.0397 1.9228 0.6794, -0.0413 1.9242 0.6633, -0.0838 1.9275 0.6257, -0.0721 1.9273 0.6282, -0.0619 1.9268 0.6331, -0.0533 1.9262 0.6404, -0.0516 1.926 0.6423, -0.0454 1.9252 0.6517, -0.0938 1.9275 0.6257, -0.0904 1.9275 0.6254, -0.1157 1.9302 0.5948, -0.0848 1.9275 0.6257, -0.1204 1.927 0.6314, -0.1185 1.9271 0.6305, -0.1157 1.9275 0.6257, -0.1157 1.9271 0.6296, -0.1069 1.9274 0.6268, -0.1951 1.9232 0.675, -0.2105 1.9275 0.6257, -0.1952 1.9221 0.6874, -0.2105 1.9179 0.7353, -0.1844 1.9221 0.6875, -0.1985 1.9191 0.7219, -0.1986 1.918 0.7343, -0.1844 1.9179 0.7353, -0.1844 1.918 0.7344, -0.1844 1.9232 0.6751, -0.1564 1.9231 0.6753, -0.1844 1.9263 0.6388, -0.1561 1.9263 0.639, -0.1844 1.9191 0.722, -0.1567 1.919 0.7222, -0.1564 1.9221 0.6877, -0.2004 1.9263 0.6387, -0.2003 1.9274 0.6264, -0.1844 1.9275 0.6257, -0.1844 1.9274 0.6265, -0.142 1.9274 0.6268, -0.1428 1.9179 0.7347, -0.3449 1.9179 0.7353, -0.3569 1.9181 0.7332, -0.3718 1.9181 0.7331, -0.3121 1.9275 0.6257, -0.3149 1.9275 0.6257, -0.3449 1.9208 0.7025, -0.3304 1.9275 0.6257, -0.3303 1.9275 0.6255, -0.3149 1.9275 0.6256, -0.3449 1.9275 0.6257, -0.3449 1.9249 0.6549, -0.3409 1.9249 0.6549, -0.386 1.9249 0.6546, -0.3966 1.9275 0.6257, -0.3969 1.9275 0.625, -0.4123 1.9275 0.6249, -0.412 1.9275 0.6257, -0.4465 1.9275 0.6257, -0.4465 1.9179 0.7353, -0.1309 1.9383 0.5023, -0.1294 1.9379 0.5064, -0.1284 1.9409 0.4725, -0.1288 1.9374 0.512, -0.1293 1.937 0.5166, -0.1352 1.9412 0.4686, -0.1352 1.9387 0.4972, -0.1332 1.9412 0.4694, -0.1347 1.9387 0.4975, -0.1325 1.9385 0.4998, -0.1308 1.9366 0.5209, -0.1333 1.9363 0.5246, -0.1352 1.9302 0.5948, -0.1489 1.9425 0.4539, -0.1378 1.9424 0.4551, -0.1352 1.9425 0.4539, -0.1352 1.9423 0.456, -0.1157 1.9425 0.4539, -0.1283 1.9421 0.4585, -0.1844 1.9441 0.4359, -0.1352 1.9441 0.4359, -0.1492 1.9425 0.4538, -0.1773 1.9358 0.5308, -0.1772 1.9369 0.5177, -0.1785 1.9414 0.467, -0.176 1.9417 0.4635, -0.1352 1.9362 0.5263, -0.1376 1.936 0.5284, -0.1409 1.9358 0.5304, -0.1801 1.941 0.4713, -0.1481 1.9356 0.5332, -0.159 1.9355 0.5344, -0.1844 1.9302 0.5948, -0.1685 1.9355 0.5335, -0.1718 1.942 0.4598, -0.1687 1.9422 0.4579, -0.1762 1.9394 0.4892, -0.1785 1.9397 0.4858, -0.18 1.9401 0.4819, -0.1807 1.9405 0.4764, -0.1576 1.9364 0.5234, -0.1536 1.9364 0.5232, -0.1427 1.9373 0.5132, -0.15 1.9365 0.5222, -0.1469 1.9367 0.5206, -0.1429 1.9375 0.5114, -0.1434 1.9377 0.5093, -0.1443 1.9378 0.5074, -0.1457 1.9379 0.506, -0.1504 1.9382 0.503, -0.1671 1.9365 0.5222, -0.1588 1.9385 0.4993, -0.1748 1.9368 0.5192, -0.164 1.9387 0.4971, -0.173 1.9392 0.4921, -0.1449 1.9368 0.5188, -0.1437 1.937 0.5171, -0.143 1.9371 0.5153, -0.1417 1.9414 0.466, -0.1491 1.9394 0.4895, -0.1411 1.9391 0.4933, -0.1506 1.9415 0.4649, -0.1512 1.9415 0.4648, -0.158 1.9397 0.4857, -0.1582 1.9415 0.4656, -0.1667 1.9406 0.4752, -0.1666 1.9405 0.4768, -0.1617 1.9414 0.4668, -0.163 1.9413 0.4676, -0.1645 1.9412 0.4689, -0.1657 1.941 0.4707, -0.1664 1.9409 0.4726, -0.166 1.9403 0.479, -0.165 1.9402 0.4808, -0.1633 1.94 0.4825, -0.2105 1.9425 0.4539, -0.2105 1.9407 0.4744, -0.1881 1.9356 0.5324, -0.2033 1.9356 0.5323, -0.2179 1.9424 0.4553, -0.2173 1.9425 0.4539, -0.2118 1.9436 0.4414, -0.2087 1.9441 0.4359, -0.2088 1.9441 0.4361, -0.2105 1.9438 0.4391, -0.1901 1.9455 0.4202, -0.1902 1.9444 0.4322, -0.2105 1.9504 0.3638, -0.2105 1.9453 0.4222, -0.2099 1.9453 0.4217, -0.193 1.9445 0.4313, -0.1979 1.9445 0.4306, -0.2005 1.9445 0.4308, -0.2035 1.9444 0.4317, -0.206 1.9443 0.4332, -0.2045 1.9455 0.4196, -0.1988 1.9456 0.419, -0.1844 1.9504 0.3638, -0.1958 1.9455 0.4191, -0.2226 1.9441 0.4359, -0.2199 1.9445 0.4309, -0.3121 1.9504 0.3638, -0.2149 1.945 0.4253, -0.2146 1.945 0.425, -0.2266 1.9434 0.4435, -0.2265 1.9434 0.4433, -0.3121 1.9441 0.4359, -0.2308 1.9425 0.4539, 0.1589 1.9252 0.6518, -0.0349 1.9273 0.6276, 0.2411 1.9179 0.7353, 0.228 1.9187 0.7264, 0.203 1.9212 0.6973, 0.1869 1.924 0.6655, 0.1816 1.9242 0.6636, 0.3665 1.9425 0.4539, 0.3733 1.9436 0.4411, 0.0674 1.9441 0.4359, 0.378 1.9353 0.5365, 0.2744 1.9306 0.5894, 0.3913 1.9342 0.5487, 0.4076 1.9334 0.5576, 0.0674 1.9425 0.4539, 0.1631 1.9408 0.4733, 0.1868 1.9418 0.4625, 0.1594 1.9323 0.5707, 0.1629 1.931 0.5854, 0.1679 1.9302 0.5948, 0.5525 1.9302 0.5948, 0.1115 1.9332 0.5603, 0.1156 1.9354 0.5352, 0.1259 1.9375 0.5113, 0.2699 1.9385 0.4999, 0.2651 1.9382 0.5031, 0.2508 1.9342 0.5486, 0.2597 1.938 0.5051, 0.1232 1.9287 0.6116, 0.1169 1.9302 0.5948, 0.1143 1.9308 0.588, 0.1114 1.9328 0.5645, 0.2645 1.9419 0.4604, 0.2696 1.9416 0.4637, 0.3641 1.9421 0.4582, 0.2725 1.9414 0.4666, 0.5478 1.9338 0.5532, 0.5386 1.9352 0.5374, 0.4996 1.9359 0.5293, 0.5249 1.9364 0.5232, 0.5082 1.9373 0.5128, 0.4709 1.9337 0.5545, 0.4867 1.9346 0.5437, 0.5539 1.9311 0.5837, 0.5531 1.9322 0.572, 0.1404 1.9392 0.4918, 0.1427 1.9394 0.4894, 0.4539 1.9331 0.5608, 0.4355 1.933 0.5629, 0.4261 1.933 0.5623, 0.2107 1.9422 0.4578, 0.2561 1.9421 0.4581, 0.2594 1.9421 0.4586, 0.2783 1.94 0.4821, 0.2781 1.9398 0.4843, 0.359 1.9391 0.4926, 0.2767 1.9393 0.4902, 0.2739 1.9389 0.4955, 0.2542 1.938 0.5057, 0.2535 1.938 0.5056, 0.2512 1.938 0.5051, 0.2757 1.941 0.4715, 0.2777 1.9405 0.4767, 0.3595 1.9405 0.4771, 0.3591 1.9398 0.4849, 0.175 1.9364 0.5236, 0.1665 1.9354 0.5355, 0.1611 1.9342 0.5492, 0.1591 1.9329 0.5641, 0.2496 1.938 0.5049, 0.215 1.9381 0.5046, 0.2012 1.9378 0.5071, 0.1876 1.9373 0.5133, 0.1761 1.9365 0.5225, 0.2251 1.9275 0.6257, 0.5403 1.9275 0.6257, 0.2249 1.9276 0.6243, 0.5448 1.928 0.6193, 0.5515 1.9295 0.6022, 0.2187 1.9276 0.6243, 0.17 1.9298 0.5987, 0.1789 1.929 0.6088, 0.1907 1.9282 0.6172, 0.2041 1.9278 0.6224, 0.4413 1.9252 0.6512, 0.4357 1.9255 0.6481, 0.425 1.9236 0.6703, 0.2276 1.9263 0.6395, 0.2378 1.924 0.6649, 0.2538 1.9221 0.6868, 0.2837 1.9202 0.7092, 0.3079 1.9194 0.7181, 0.2619 1.9215 0.6945, 0.332 1.9191 0.721, 0.3359 1.9191 0.7209, 0.3616 1.9195 0.7172, 0.4586 1.9247 0.6576, 0.4764 1.9245 0.6599, 0.4843 1.9245 0.6595, 0.3867 1.9204 0.7069, 0.4081 1.9218 0.6911, 0.5033 1.9249 0.6552, 0.5206 1.9257 0.6463, 0.534 1.9267 0.6345, -0.0297 1.9369 0.5174, -0.0296 1.938 0.5051, -0.0373 1.9425 0.4539, -0.0373 1.9302 0.5948, -0.0331 1.9328 0.5643, -0.033 1.9339 0.5519, 0.0091 1.938 0.5054, 0.0094 1.9412 0.4691, -0.0349 1.9412 0.4688, -0.0348 1.9423 0.4565, -0.0955 1.9178 0.7368, -0.0437 1.9302 0.5948, 0.0088 1.9339 0.5522, 0.0091 1.9369 0.5177, -0.0437 1.9425 0.4539, -0.0535 1.9391 0.493, -0.0557 1.9372 0.5148, -0.0507 1.9394 0.4892, -0.0488 1.9398 0.4844, -0.1008 1.9359 0.5298, -0.1044 1.9362 0.5264, -0.0894 1.942 0.4601, -0.0845 1.9422 0.4569, -0.0963 1.9423 0.456, -0.0789 1.9424 0.455, -0.0723 1.9425 0.4544, -0.0858 1.9364 0.5234, -0.0811 1.9364 0.524, -0.0737 1.9383 0.502, -0.0825 1.9354 0.5349, -0.0905 1.9355 0.5342, -0.0963 1.9356 0.5324, -0.1071 1.9365 0.522, -0.1092 1.9371 0.5159, -0.1102 1.938 0.5055, -0.0639 1.9424 0.4554, -0.0588 1.9422 0.4575, -0.0502 1.9414 0.4662, -0.0485 1.941 0.4708, -0.0686 1.9356 0.5333, -0.0585 1.9359 0.5295, -0.0558 1.936 0.5279, -0.0576 1.9388 0.4966, -0.0634 1.9385 0.4995, -0.0652 1.9367 0.5206, -0.0737 1.9364 0.5233, -0.1099 1.9423 0.4559, -0.0964 1.9413 0.4679, -0.0961 1.9413 0.4679, -0.0938 1.9416 0.4646, -0.0544 1.9419 0.4606, -0.053 1.9418 0.4621, -0.0967 1.938 0.505, -0.0963 1.9375 0.5109, -0.0949 1.9371 0.5157, -0.0933 1.9369 0.5185, -0.0703 1.9425 0.4544, -0.0479 1.9405 0.477, -0.0479 1.9403 0.4786, -0.0913 1.9367 0.5207, -0.0889 1.9365 0.5223, -0.0373 1.9441 0.4359, -0.0437 1.9441 0.4359, -0.1157 1.9441 0.4359, -0.0373 1.9504 0.3638, -0.0437 1.9504 0.3638, -0.1157 1.9504 0.3638, -0.1352 1.9504 0.3638, -0.3089 1.9232 0.6741, -0.3062 1.9243 0.6615, -0.3036 1.9204 0.7063, -0.3075 1.9213 0.696, -0.3121 1.9179 0.7353, -0.3093 1.9226 0.681, -0.3008 1.9253 0.6504, -0.2927 1.9261 0.6409, -0.2814 1.9268 0.633, -0.2524 1.918 0.7339, -0.2689 1.9182 0.732, -0.2819 1.9186 0.7271, -0.2691 1.9273 0.6282, -0.2505 1.9274 0.6261, -0.2207 1.9274 0.6263, -0.2215 1.918 0.7341, -0.2932 1.9193 0.7193, -0.2969 1.9196 0.7157, -0.1352 1.9026 0.9094, -0.1844 1.9026 0.9094, -0.2105 1.9026 0.9094, -0.3121 1.9026 0.9094, -0.3449 1.9026 0.9094, -0.4465 1.9026 0.9094, -0.4406 1.9394 0.4894, -0.4352 1.9404 0.4783, -0.427 1.9412 0.4688, -0.4158 1.9419 0.4609, -0.4035 1.9423 0.4561, -0.3849 1.9425 0.454, -0.3551 1.9425 0.4542, -0.3559 1.933 0.5621, -0.3868 1.9331 0.5618, -0.4033 1.9332 0.5599, -0.4163 1.9337 0.5551, -0.4276 1.9343 0.5473, -0.4313 1.9347 0.5436, -0.438 1.9355 0.5342, -0.4419 1.9364 0.5239, -0.4436 1.9377 0.5089, -0.4433 1.9383 0.502, -0.3449 1.9441 0.4359, -0.5463 1.9425 0.4539, -0.3449 1.9504 0.3638, -0.4465 1.9504 0.3638, -0.8245 1.9504 0.3638, -1.0997 1.9504 0.3638, 1.1024 1.9543 0.3189, 0.0674 1.9543 0.3189, -0.0373 1.9543 0.3189, -0.0437 1.9543 0.3189, -0.1157 1.9543 0.3189, -0.1352 1.9543 0.3189, -0.1844 1.9543 0.3189, -0.2105 1.9543 0.3189, -0.3121 1.9543 0.3189, -0.3449 1.9543 0.3189, -0.4465 1.9543 0.3189, -0.8245 1.9543 0.3189, -1.1024 1.9543 0.3189, -0.7776 -0.3909 0.3777, -1.0256 -0.3909 0.3777, -1.25 -0.3961 0.3189, 1.25 -0.3961 0.3189, 1.0256 -0.3909 0.3777, 0.7776 -0.3909 0.3777, -0.7776 -0.3734 0.5785, 1.1983 -0.3444 0.9094, -1.1983 -0.3444 0.9094, -1.0256 -0.3734 0.5785, 1.0256 -0.3734 0.5785, 0.7776 -0.3734 0.5785, -0.124 -0.3909 0.3777, 0.124 -0.3909 0.3777, 0.124 -0.3734 0.5785, -0.124 -0.3734 0.5785, -1.1983 1.5628 0.9094, -1.25 1.5724 0.3189, 1.1983 1.5628 0.9094, 1.25 1.5724 0.3189, -0.9258 -0.188 0.9094, -0.9543 -0.1762 0.9094, -0.8117 -0.1574 0.9094, -0.7929 -0.133 0.9094, -0.7811 -0.1045 0.9094, -0.9787 -0.1574 0.9094, -0.9975 -0.133 0.9094, -1.0093 -0.1045 0.9094, 0.0764 1.649 0.9094, 0.1476 1.6195 0.9094, 0.2088 1.5726 0.9094, 0.2557 1.5114 0.9094, 0.2852 1.4402 0.9094, -0.8361 -0.1762 0.9094, -0.8646 -0.188 0.9094, -0.8952 -0.192 0.9094, -1.0133 -0.0739 0.9094, -1.0093 -0.0434 0.9094, -0.9975 -0.0149 0.9094, -0.9787 0.0096 0.9094, 0.2953 1.3638 0.9094, 0.2852 1.2873 0.9094, 0.2557 1.2161 0.9094, 0.2088 1.155 0.9094, -0.8952 0.0442 0.9094, -0.2088 1.155 0.9094, -0.2557 1.2161 0.9094, -0.8117 0.0096 0.9094, -0.7929 -0.0149 0.9094, -0.7811 -0.0434 0.9094, -0.7771 -0.0739 0.9094, 0.0 1.659 0.9094, -0.0764 1.649 0.9094, 0.1476 1.108 0.9094, 0.0764 1.0786 0.9094, 0.0 1.0685 0.9094, -0.8646 0.0402 0.9094, -0.8361 0.0284 0.9094, -0.1476 1.108 0.9094, -0.0764 1.0786 0.9094, -0.2852 1.2873 0.9094, -0.2953 1.3638 0.9094, -0.2852 1.4402 0.9094, -0.2557 1.5114 0.9094, -0.2088 1.5726 0.9094, -0.1476 1.6195 0.9094, -0.9258 0.0402 0.9094, -0.9543 0.0284 0.9094, -1.236 1.5698 0.0512, -1.236 -0.382 0.0512, -1.0927 1.9403 0.0512, -0.8996 1.9403 0.0512, -0.8996 1.9498 0.2323, 0.8996 1.9498 0.2323, 0.8996 1.9403 0.0512, 1.0927 1.9403 0.0512, 1.236 1.5698 0.0512, 1.236 -0.382 0.0512, 0.8996 1.6787 0.0512, 0.7421 1.6787 0.0512, 0.7421 1.9149 0.0512, 0.8996 1.9149 0.0512, -0.7421 1.9149 0.0512, -0.7421 1.6787 0.0512, -0.8996 1.9149 0.0512, -0.8996 1.6787 0.0512, -0.8996 0.393 0.0512, 0.8996 0.393 0.0512
            ]
        }
        coordIndex [
            0,1,2,-1,3,4,5,-1,6,7,8,-1,9,10,11,-1,12,13,14,-1,15,16,17,-1,18,19,20,-1,21,22,23,-1,24,25,26,-1,26,25,27,-1,27,25,28,-1,27,28,29,-1,30,31,32,-1,33,32,34,-1,34,32,31,-1,34,31,35,-1,32,36,30,-1,30,36,37,-1,30,37,38,-1,39,40,41,-1,22,42,43,-1,44,45,40,-1,40,45,43,-1,40,43,41,-1,41,43,42,-1,46,47,48,-1,48,47,49,-1,41,50,39,-1,39,50,51,-1,39,51,52,-1,46,48,44,-1,44,48,53,-1,44,53,45,-1,45,53,54,-1,45,54,55,-1,55,54,56,-1,55,56,57,-1,58,59,60,-1,61,62,63,-1,63,62,64,-1,63,64,65,-1,65,64,58,-1,65,58,66,-1,66,58,60,-1,67,68,2,-1,2,68,69,-1,70,71,72,-1,72,71,73,-1,74,75,76,-1,74,76,77,-1,78,79,80,-1,80,79,81,-1,80,81,82,-1,82,83,80,-1,80,83,84,-1,80,84,74,-1,74,84,85,-1,74,85,75,-1,76,86,77,-1,77,86,87,-1,77,87,88,-1,87,89,88,-1,88,89,90,-1,88,90,91,-1,91,92,88,-1,88,92,93,-1,88,93,94,-1,94,95,88,-1,88,95,96,-1,88,96,97,-1,97,96,98,-1,98,99,97,-1,97,99,100,-1,97,100,101,-1,102,103,104,-1,102,104,105,-1,106,107,108,-1,100,109,101,-1,101,109,110,-1,101,110,104,-1,104,110,111,-1,104,111,105,-1,108,107,112,-1,112,107,113,-1,112,113,114,-1,115,116,117,-1,116,72,117,-1,117,72,73,-1,117,73,1,-1,1,73,118,-1,1,118,2,-1,2,118,119,-1,2,119,67,-1,103,106,104,-1,104,106,108,-1,104,108,120,-1,120,108,121,-1,121,122,120,-1,120,122,123,-1,120,123,117,-1,117,123,124,-1,117,124,115,-1,18,20,125,-1,125,20,126,-1,125,126,127,-1,127,126,128,-1,127,128,129,-1,129,128,130,-1,129,130,131,-1,131,130,34,-1,131,34,132,-1,16,15,133,-1,133,15,134,-1,133,134,135,-1,136,137,138,-1,138,137,139,-1,138,139,140,-1,140,139,141,-1,140,141,135,-1,135,141,142,-1,135,142,133,-1,143,144,138,-1,138,144,145,-1,138,145,146,-1,147,148,149,-1,149,148,150,-1,151,152,153,-1,153,152,154,-1,153,154,155,-1,155,154,150,-1,155,150,156,-1,156,150,148,-1,146,157,138,-1,138,157,158,-1,138,158,136,-1,151,153,138,-1,138,153,159,-1,138,159,143,-1,160,161,162,-1,163,164,14,-1,14,164,165,-1,14,165,166,-1,166,167,14,-1,14,167,168,-1,14,168,12,-1,69,169,170,-1,171,2,172,-1,172,2,69,-1,172,69,173,-1,173,69,170,-1,174,175,169,-1,169,175,176,-1,169,176,177,-1,177,178,169,-1,169,178,179,-1,169,179,170,-1,180,181,182,-1,182,181,183,-1,141,184,142,-1,142,184,185,-1,142,185,186,-1,186,185,187,-1,186,187,188,-1,189,190,191,-1,191,190,192,-1,193,191,194,-1,194,191,192,-1,194,192,195,-1,195,192,196,-1,195,196,197,-1,198,199,200,-1,200,199,201,-1,194,202,193,-1,193,202,203,-1,193,203,204,-1,198,200,189,-1,189,200,205,-1,189,205,190,-1,190,205,206,-1,190,206,207,-1,207,206,208,-1,207,208,209,-1,197,196,210,-1,210,196,133,-1,210,133,209,-1,209,133,142,-1,209,142,207,-1,211,212,213,-1,214,215,216,-1,217,218,43,-1,22,43,23,-1,23,43,218,-1,23,218,219,-1,43,220,217,-1,217,220,221,-1,217,221,222,-1,223,221,224,-1,224,221,220,-1,224,220,225,-1,225,220,43,-1,225,43,226,-1,226,43,27,-1,226,27,227,-1,227,27,228,-1,227,228,213,-1,213,228,229,-1,213,229,211,-1,230,231,232,-1,233,234,182,-1,235,236,237,-1,237,236,238,-1,237,238,232,-1,232,238,239,-1,232,239,230,-1,234,240,182,-1,182,240,241,-1,182,241,242,-1,243,244,245,-1,245,244,246,-1,245,246,247,-1,247,246,248,-1,247,248,232,-1,249,11,250,-1,250,11,10,-1,250,10,251,-1,252,253,11,-1,254,255,11,-1,241,256,242,-1,242,256,257,-1,242,257,258,-1,254,11,259,-1,258,260,242,-1,242,260,261,-1,242,261,262,-1,262,261,263,-1,262,263,252,-1,255,264,11,-1,11,264,265,-1,11,265,9,-1,266,267,253,-1,253,267,268,-1,253,268,11,-1,11,268,269,-1,11,269,259,-1,270,271,272,-1,272,271,273,-1,272,273,274,-1,272,275,270,-1,270,275,276,-1,270,276,277,-1,277,278,270,-1,270,278,279,-1,270,279,280,-1,280,279,281,-1,280,281,282,-1,282,281,283,-1,282,283,253,-1,253,283,284,-1,253,284,266,-1,285,286,274,-1,274,286,287,-1,274,287,272,-1,288,289,235,-1,235,289,290,-1,235,290,236,-1,288,291,289,-1,289,291,292,-1,289,292,293,-1,293,292,294,-1,293,295,296,-1,294,297,293,-1,293,297,298,-1,293,298,299,-1,299,300,293,-1,293,300,301,-1,293,301,295,-1,296,302,293,-1,293,302,303,-1,293,303,304,-1,305,306,11,-1,11,306,307,-1,252,11,262,-1,262,11,307,-1,262,307,62,-1,62,307,308,-1,62,308,64,-1,309,306,310,-1,310,306,305,-1,310,305,311,-1,249,312,11,-1,11,312,313,-1,11,313,305,-1,305,313,314,-1,305,314,311,-1,315,316,249,-1,317,318,319,-1,249,316,312,-1,312,316,320,-1,312,320,321,-1,321,322,312,-1,312,322,323,-1,312,323,324,-1,319,325,317,-1,317,325,326,-1,317,326,327,-1,327,326,328,-1,329,330,331,-1,331,330,332,-1,331,332,317,-1,317,332,333,-1,317,333,318,-1,334,335,336,-1,334,336,337,-1,338,6,72,-1,72,6,8,-1,72,8,70,-1,70,8,69,-1,70,69,339,-1,339,69,68,-1,116,340,72,-1,72,340,341,-1,72,341,342,-1,342,343,72,-1,72,343,344,-1,72,344,338,-1,345,346,347,-1,348,349,350,-1,350,349,351,-1,352,353,354,-1,355,356,349,-1,349,356,357,-1,349,357,358,-1,359,360,352,-1,352,360,361,-1,362,363,364,-1,364,363,365,-1,366,367,5,-1,5,367,368,-1,5,368,369,-1,370,371,372,-1,372,371,373,-1,374,375,376,-1,376,375,377,-1,376,377,378,-1,379,358,380,-1,380,358,381,-1,380,381,376,-1,376,381,382,-1,376,382,374,-1,361,383,352,-1,352,383,384,-1,352,384,353,-1,379,385,358,-1,358,385,386,-1,358,386,349,-1,349,386,387,-1,349,387,351,-1,354,388,352,-1,352,388,389,-1,352,389,372,-1,372,389,390,-1,372,390,370,-1,391,392,393,-1,393,392,394,-1,393,394,364,-1,364,394,395,-1,364,395,362,-1,365,396,364,-1,364,396,397,-1,364,397,398,-1,373,399,372,-1,372,399,400,-1,372,400,401,-1,401,400,391,-1,401,391,402,-1,402,391,393,-1,403,404,364,-1,364,404,405,-1,364,405,349,-1,349,405,406,-1,349,406,355,-1,398,407,364,-1,364,407,408,-1,364,408,409,-1,409,410,364,-1,364,410,411,-1,364,411,403,-1,412,413,414,-1,414,413,415,-1,414,415,416,-1,416,358,414,-1,414,358,357,-1,414,357,417,-1,417,357,418,-1,418,419,417,-1,417,419,420,-1,417,420,421,-1,422,413,423,-1,423,413,412,-1,423,412,424,-1,425,426,427,-1,428,429,412,-1,425,427,412,-1,412,427,430,-1,412,430,428,-1,429,431,412,-1,412,431,432,-1,412,432,433,-1,422,434,413,-1,413,434,435,-1,413,435,436,-1,433,437,412,-1,412,437,438,-1,412,438,424,-1,439,440,436,-1,436,440,441,-1,436,441,413,-1,442,443,444,-1,5,4,445,-1,445,4,446,-1,445,446,447,-1,448,449,443,-1,443,449,450,-1,443,450,444,-1,450,451,444,-1,444,451,3,-1,444,3,352,-1,352,3,5,-1,352,5,359,-1,359,5,369,-1,171,163,2,-1,2,163,14,-1,2,14,0,-1,0,14,13,-1,0,13,162,-1,162,13,452,-1,162,452,160,-1,7,366,8,-1,8,366,5,-1,8,5,69,-1,69,5,445,-1,69,445,169,-1,169,445,453,-1,454,455,447,-1,447,455,442,-1,447,442,445,-1,445,442,444,-1,445,444,453,-1,453,444,456,-1,457,458,459,-1,459,458,460,-1,461,462,182,-1,463,464,465,-1,465,464,466,-1,465,466,467,-1,468,469,470,-1,471,472,182,-1,182,472,473,-1,182,473,461,-1,462,474,182,-1,182,474,475,-1,182,475,476,-1,477,478,456,-1,456,479,480,-1,481,453,482,-1,482,453,483,-1,174,169,183,-1,183,169,453,-1,183,453,182,-1,182,453,481,-1,182,481,471,-1,457,484,458,-1,458,484,485,-1,458,485,486,-1,486,485,470,-1,486,470,487,-1,487,470,469,-1,231,233,232,-1,232,233,182,-1,232,182,247,-1,247,182,476,-1,247,476,488,-1,489,490,465,-1,465,490,491,-1,465,491,463,-1,478,492,456,-1,456,492,493,-1,456,493,479,-1,494,495,470,-1,470,495,496,-1,470,496,497,-1,488,465,247,-1,247,465,467,-1,247,467,456,-1,456,467,498,-1,456,498,477,-1,480,499,456,-1,456,499,500,-1,456,500,453,-1,453,500,460,-1,453,460,483,-1,483,460,458,-1,497,501,470,-1,470,501,502,-1,470,502,468,-1,372,345,352,-1,352,345,347,-1,352,347,444,-1,444,347,503,-1,444,503,456,-1,456,503,504,-1,456,504,247,-1,247,504,505,-1,247,505,245,-1,245,505,250,-1,245,250,243,-1,243,250,251,-1,346,78,347,-1,347,78,80,-1,347,80,503,-1,503,80,506,-1,503,506,504,-1,504,506,507,-1,504,507,505,-1,505,507,508,-1,505,508,250,-1,250,508,509,-1,250,509,249,-1,249,509,327,-1,249,327,315,-1,315,327,328,-1,188,180,186,-1,186,180,182,-1,186,182,142,-1,142,182,242,-1,142,242,207,-1,207,242,262,-1,207,262,190,-1,190,262,62,-1,190,62,214,-1,510,511,214,-1,512,513,514,-1,514,513,515,-1,511,516,214,-1,214,516,517,-1,214,517,518,-1,192,519,514,-1,514,519,520,-1,514,520,521,-1,518,522,214,-1,214,522,523,-1,214,523,190,-1,190,523,524,-1,190,524,192,-1,192,524,525,-1,192,525,519,-1,521,526,514,-1,514,526,527,-1,514,527,512,-1,212,211,216,-1,216,211,514,-1,216,514,214,-1,214,514,515,-1,214,515,510,-1,161,17,162,-1,162,17,16,-1,162,16,528,-1,528,16,133,-1,528,133,529,-1,529,133,196,-1,529,196,530,-1,530,196,192,-1,530,192,531,-1,531,192,514,-1,531,514,532,-1,532,514,211,-1,532,211,533,-1,533,211,229,-1,534,535,26,-1,26,535,536,-1,26,536,537,-1,537,538,26,-1,26,538,539,-1,26,539,45,-1,45,539,540,-1,45,540,43,-1,540,541,43,-1,43,541,542,-1,43,542,27,-1,27,542,543,-1,27,543,544,-1,544,545,27,-1,27,545,546,-1,27,546,547,-1,547,548,27,-1,27,548,549,-1,27,549,26,-1,26,549,550,-1,26,550,534,-1,31,24,35,-1,35,24,26,-1,35,26,551,-1,551,26,45,-1,551,45,336,-1,336,45,55,-1,336,55,337,-1,337,55,57,-1,337,57,61,-1,61,57,21,-1,61,21,62,-1,62,21,23,-1,62,23,214,-1,214,23,219,-1,214,219,215,-1,33,34,552,-1,552,34,130,-1,552,130,29,-1,29,130,128,-1,29,128,27,-1,27,128,126,-1,27,126,228,-1,228,126,20,-1,228,20,229,-1,229,20,19,-1,229,19,533,-1,335,329,336,-1,336,329,331,-1,336,331,551,-1,551,331,553,-1,551,553,35,-1,35,553,554,-1,35,554,34,-1,34,554,555,-1,34,555,132,-1,132,555,556,-1,74,557,80,-1,80,557,558,-1,80,558,506,-1,506,558,559,-1,506,559,507,-1,507,559,560,-1,507,560,508,-1,508,560,561,-1,508,561,509,-1,509,561,562,-1,509,562,327,-1,327,562,563,-1,327,563,317,-1,317,563,564,-1,317,564,331,-1,331,564,565,-1,331,565,553,-1,553,565,566,-1,553,566,554,-1,554,566,567,-1,554,567,555,-1,555,567,568,-1,555,568,556,-1,556,568,569,-1,570,571,572,-1,573,574,575,-1,576,577,578,-1,572,571,578,-1,578,571,579,-1,578,579,576,-1,574,573,580,-1,580,573,577,-1,580,577,581,-1,582,573,583,-1,583,573,575,-1,583,575,584,-1,575,581,584,-1,584,581,577,-1,584,577,585,-1,585,577,576,-1,585,576,582,-1,582,576,570,-1,582,570,573,-1,573,570,572,-1,586,18,587,-1,587,18,569,-1,578,586,572,-1,572,586,587,-1,588,577,589,-1,589,577,573,-1,120,588,557,-1,557,588,589,-1,590,591,578,-1,592,577,593,-1,593,577,594,-1,591,595,578,-1,578,595,596,-1,578,596,597,-1,598,599,120,-1,599,600,120,-1,120,600,601,-1,120,601,588,-1,588,601,602,-1,592,603,577,-1,577,603,604,-1,577,604,578,-1,578,604,605,-1,578,605,590,-1,597,606,578,-1,578,606,607,-1,578,607,586,-1,586,607,608,-1,586,608,609,-1,602,610,588,-1,588,610,611,-1,588,611,577,-1,577,611,612,-1,577,612,613,-1,614,615,616,-1,617,618,613,-1,613,618,619,-1,613,619,577,-1,577,619,620,-1,577,620,594,-1,598,120,621,-1,621,120,18,-1,621,18,622,-1,613,623,617,-1,617,623,624,-1,617,624,625,-1,614,626,615,-1,615,626,627,-1,615,627,628,-1,628,627,617,-1,628,617,629,-1,629,617,625,-1,630,631,18,-1,18,631,632,-1,18,632,633,-1,633,634,18,-1,18,634,635,-1,18,635,622,-1,616,630,614,-1,614,630,18,-1,614,18,636,-1,636,18,586,-1,636,586,637,-1,637,586,609,-1,638,639,587,-1,587,639,572,-1,640,638,569,-1,569,638,587,-1,641,640,642,-1,642,640,569,-1,642,569,643,-1,643,569,557,-1,643,557,644,-1,644,557,645,-1,646,645,589,-1,589,645,557,-1,647,646,573,-1,573,646,589,-1,639,647,572,-1,572,647,573,-1,648,649,650,-1,638,640,641,-1,644,645,651,-1,651,645,646,-1,652,653,654,-1,654,653,655,-1,641,654,638,-1,638,654,655,-1,638,655,639,-1,639,655,656,-1,639,656,647,-1,647,656,657,-1,647,657,646,-1,646,657,648,-1,646,648,651,-1,651,648,650,-1,
        ]
    }
}
Shape{
    appearance Appearance {
        material  Material 	{
            diffuseColor 0.8313725490196079 0.8313725490196079 0.8196078431372549
            specularColor 0.6666666666666666 0.6666666666666666 0.6549019607843137
            ambientIntensity 0.83
            transparency 0.0
            shininess 0.5
        }
    }
    geometry IndexedFaceSet {
        ccw TRUE
        solid FALSE
        coord DEF co Coordinate {
            point [
                0.8996 0.393 0.0472, 0.8996 1.6787 0.0472, 0.8996 0.393 0.0512, 0.8996 1.6787 0.0512, 0.7421 1.6787 0.0472, 0.7421 1.6787 0.0512, 0.7421 1.9149 0.0472, 0.7421 1.9149 0.0512, 0.8996 1.9149 0.0472, 0.8996 1.9149 0.0512, -0.8996 1.9149 0.0472, -0.7421 1.9149 0.0472, -0.8996 1.9149 0.0512, -0.7421 1.9149 0.0512, -0.7421 1.6787 0.0472, -0.7421 1.6787 0.0512, -0.8996 1.6787 0.0472, -0.8996 1.6787 0.0512, -0.8996 0.393 0.0472, -0.8996 0.393 0.0512, -0.2559 1.8559 0.0512, -0.2559 1.8559 0.0472, -0.2544 1.869 0.0512, -0.2544 1.869 0.0472, -0.2501 1.8815 0.0512, -0.2501 1.8815 0.0472, -0.243 1.8927 0.0512, -0.243 1.8927 0.0472, -0.2337 1.9021 0.0512, -0.2337 1.9021 0.0472, -0.2225 1.9091 0.0512, -0.2225 1.9091 0.0472, -0.21 1.9135 0.0512, -0.21 1.9135 0.0472, -0.1969 1.9149 0.0512, -0.1969 1.9149 0.0472, -0.2559 1.7378 0.0512, -0.2559 1.7378 0.0472, -0.1969 1.6787 0.0512, -0.1969 1.6787 0.0472, -0.21 1.6802 0.0512, -0.21 1.6802 0.0472, -0.2225 1.6846 0.0512, -0.2225 1.6846 0.0472, -0.2337 1.6916 0.0512, -0.2337 1.6916 0.0472, -0.243 1.701 0.0512, -0.243 1.701 0.0472, -0.2501 1.7122 0.0512, -0.2501 1.7122 0.0472, -0.2544 1.7246 0.0512, -0.2544 1.7246 0.0472, 0.1969 1.6787 0.0512, 0.1969 1.6787 0.0472, 0.2559 1.7378 0.0512, 0.2559 1.7378 0.0472, 0.2544 1.7246 0.0512, 0.2544 1.7246 0.0472, 0.2501 1.7122 0.0512, 0.2501 1.7122 0.0472, 0.243 1.701 0.0512, 0.243 1.701 0.0472, 0.2337 1.6916 0.0512, 0.2337 1.6916 0.0472, 0.2225 1.6846 0.0512, 0.2225 1.6846 0.0472, 0.21 1.6802 0.0512, 0.21 1.6802 0.0472, 0.2559 1.8559 0.0512, 0.2559 1.8559 0.0472, 0.1969 1.9149 0.0512, 0.1969 1.9149 0.0472, 0.21 1.9135 0.0512, 0.21 1.9135 0.0472, 0.2225 1.9091 0.0512, 0.2225 1.9091 0.0472, 0.2337 1.9021 0.0512, 0.2337 1.9021 0.0472, 0.243 1.8927 0.0512, 0.243 1.8927 0.0472, 0.2501 1.8815 0.0512, 0.2501 1.8815 0.0472, 0.2544 1.869 0.0512, 0.2544 1.869 0.0472, 0.8996 1.9403 0.0512, 0.8996 2.2907 0.0472, 0.8996 1.9498 0.2323, 0.8996 2.2907 0.2323, -0.8996 2.2907 0.0472, -0.8996 2.2907 0.2323, -0.8996 1.9403 0.0512, -0.8996 1.9498 0.2323
            ]
        }
        coordIndex [
            0,1,2,-1,2,1,3,-1,1,4,3,-1,3,4,5,-1,4,6,5,-1,5,6,7,-1,6,8,7,-1,7,8,9,-1,10,11,12,-1,12,11,13,-1,11,14,13,-1,13,14,15,-1,14,16,15,-1,15,16,17,-1,16,18,17,-1,17,18,19,-1,18,0,19,-1,19,0,2,-1,20,21,22,-1,22,21,23,-1,22,23,24,-1,24,23,25,-1,24,25,26,-1,26,25,27,-1,26,27,28,-1,28,27,29,-1,28,29,30,-1,30,29,31,-1,30,31,32,-1,32,31,33,-1,32,33,34,-1,34,33,35,-1,36,37,20,-1,20,37,21,-1,38,39,40,-1,40,39,41,-1,40,41,42,-1,42,41,43,-1,42,43,44,-1,44,43,45,-1,44,45,46,-1,46,45,47,-1,46,47,48,-1,48,47,49,-1,48,49,50,-1,50,49,51,-1,50,51,36,-1,36,51,37,-1,52,53,38,-1,38,53,39,-1,54,55,56,-1,56,55,57,-1,56,57,58,-1,58,57,59,-1,58,59,60,-1,60,59,61,-1,60,61,62,-1,62,61,63,-1,62,63,64,-1,64,63,65,-1,64,65,66,-1,66,65,67,-1,66,67,52,-1,52,67,53,-1,68,69,54,-1,54,69,55,-1,70,71,72,-1,72,71,73,-1,72,73,74,-1,74,73,75,-1,74,75,76,-1,76,75,77,-1,76,77,78,-1,78,77,79,-1,78,79,80,-1,80,79,81,-1,80,81,82,-1,82,81,83,-1,82,83,68,-1,68,83,69,-1,34,35,70,-1,70,35,71,-1,9,8,84,-1,84,8,85,-1,84,85,86,-1,86,85,87,-1,88,89,85,-1,85,89,87,-1,10,12,90,-1,91,89,90,-1,90,89,88,-1,90,88,10,-1,86,87,91,-1,91,87,89,-1,18,16,0,-1,0,16,14,-1,4,1,0,-1,88,85,6,-1,6,85,8,-1,33,31,88,-1,47,14,49,-1,49,14,51,-1,33,88,35,-1,21,88,23,-1,23,88,25,-1,10,88,11,-1,11,88,21,-1,11,21,14,-1,14,21,37,-1,14,37,51,-1,65,63,4,-1,4,63,61,-1,4,61,59,-1,83,81,6,-1,6,81,79,-1,6,79,77,-1,31,29,88,-1,88,29,27,-1,88,27,25,-1,47,45,14,-1,14,45,43,-1,14,43,0,-1,0,43,41,-1,77,75,6,-1,6,75,73,-1,6,73,88,-1,88,73,71,-1,88,71,35,-1,41,39,0,-1,0,39,53,-1,0,53,4,-1,4,53,67,-1,4,67,65,-1,59,57,4,-1,4,57,55,-1,4,55,6,-1,6,55,69,-1,6,69,83,-1,
        ]
    }
}
Shape{
    appearance Appearance {
        material  Material 	{
            diffuseColor 0.20784313725490197 0.20784313725490197 0.20784313725490197
            specularColor 0.01568627450980392 0.01568627450980392 0.01568627450980392
            ambientIntensity 0.298
            transparency 0.0
            shininess 0.5
        }
    }
    geometry IndexedFaceSet {
        ccw TRUE
        solid FALSE
        coord DEF co Coordinate {
            point [
                -0.2544 1.7246 0.0512, -0.2559 1.7378 0.0512, -0.21 1.6802 0.0512, -0.2559 1.8559 0.0512, 0.2559 1.8559 0.0512, 0.2559 1.7378 0.0512, -0.2544 1.869 0.0512, -0.2501 1.8815 0.0512, -0.243 1.8927 0.0512, -0.2225 1.9091 0.0512, -0.21 1.9135 0.0512, -0.1969 1.9149 0.0512, 0.1969 1.9149 0.0512, 0.2544 1.869 0.0512, 0.2544 1.7246 0.0512, 0.2501 1.7122 0.0512, 0.243 1.701 0.0512, 0.2225 1.6846 0.0512, 0.21 1.6802 0.0512, 0.1969 1.6787 0.0512, -0.1969 1.6787 0.0512, -0.2337 1.9021 0.0512, 0.2337 1.6916 0.0512, -0.2337 1.6916 0.0512, -0.243 1.701 0.0512, -0.2501 1.7122 0.0512, 0.2337 1.9021 0.0512, 0.243 1.8927 0.0512, 0.2225 1.9091 0.0512, 0.21 1.9135 0.0512, 0.2501 1.8815 0.0512, -0.2225 1.6846 0.0512
            ]
        }
        coordIndex [
            0,1,2,-1,3,4,1,-1,1,4,5,-1,6,7,8,-1,9,10,3,-1,3,10,11,-1,3,11,4,-1,4,11,12,-1,4,12,13,-1,14,15,16,-1,17,18,5,-1,5,18,19,-1,5,19,1,-1,1,19,20,-1,1,20,2,-1,6,8,3,-1,3,8,21,-1,3,21,9,-1,14,16,5,-1,5,16,22,-1,5,22,17,-1,23,24,25,-1,26,27,28,-1,28,27,29,-1,29,27,12,-1,12,27,30,-1,12,30,13,-1,0,2,25,-1,25,2,31,-1,25,31,23,-1,
        ]
    }
}
Shape{
    appearance Appearance {
        material  Material 	{
            diffuseColor 0.8313725490196079 0.8313725490196079 0.8196078431372549
            specularColor 0.6666666666666666 0.6666666666666666 0.6549019607843137
            ambientIntensity 0.83
            transparency 0.0
            shininess 0.5
        }
    }
    geometry IndexedFaceSet {
        ccw TRUE
        solid FALSE
        coord DEF co Coordinate {
            point [
                1.0256 -0.3909 0.3777, 1.0256 -0.6512 0.3777, 0.7776 -0.3909 0.3777, 0.7776 -0.6512 0.3777, 1.0256 -0.3734 0.5785, 1.0256 -0.6512 0.5785, 1.0256 -0.6786 0.3744, 1.0256 -0.7266 0.5693, 1.0256 -0.7043 0.3646, 1.0256 -0.7977 0.5424, 1.0256 -0.727 0.349, 1.0256 -0.8602 0.4992, 1.0256 -0.7452 0.3283, 1.0256 -0.9105 0.4423, 1.0256 -0.758 0.3039, 1.0256 -0.9458 0.375, 1.0256 -0.7646 0.2772, 1.0256 -0.9639 0.3013, 1.0256 -0.7827 0.2034, 1.0256 -0.9705 0.2745, 1.0256 -0.818 0.1362, 1.0256 -0.9833 0.2501, 1.0256 -0.8683 0.0793, 1.0256 -1.0015 0.2295, 1.0256 -0.9308 0.0361, 1.0256 -1.0242 0.2139, 1.0256 -1.0019 0.0092, 1.0256 -1.0499 0.2041, 1.0256 -1.0773 0.0, 1.0256 -1.0773 0.2008, 1.0256 -1.5151 0.0, 1.0256 -1.5151 0.2008, 0.7776 -0.3734 0.5785, 0.7776 -0.6512 0.5785, 0.7776 -0.7266 0.5693, 0.7776 -0.6786 0.3744, 0.7776 -0.7977 0.5424, 0.7776 -0.7043 0.3646, 0.7776 -0.8602 0.4992, 0.7776 -0.727 0.349, 0.7776 -0.9105 0.4423, 0.7776 -0.7452 0.3283, 0.7776 -0.9458 0.375, 0.7776 -0.758 0.3039, 0.7776 -0.9639 0.3013, 0.7776 -0.7646 0.2772, 0.7776 -0.9705 0.2745, 0.7776 -0.7827 0.2034, 0.7776 -0.9833 0.2501, 0.7776 -0.818 0.1362, 0.7776 -1.0015 0.2295, 0.7776 -0.8683 0.0793, 0.7776 -1.0242 0.2139, 0.7776 -0.9308 0.0361, 0.7776 -1.0499 0.2041, 0.7776 -1.0019 0.0092, 0.7776 -1.0773 0.2008, 0.7776 -1.0773 0.0, 0.7776 -1.5151 0.2008, 0.7776 -1.5151 0.0, -0.7776 -0.6512 0.3777, -1.0256 -0.6512 0.3777, -0.7776 -0.3909 0.3777, -1.0256 -0.3909 0.3777, -1.0256 -0.3734 0.5785, -1.0256 -0.6512 0.5785, -1.0256 -0.7266 0.5693, -1.0256 -0.6786 0.3744, -1.0256 -0.7977 0.5424, -1.0256 -0.7043 0.3646, -1.0256 -0.8602 0.4992, -1.0256 -0.727 0.349, -1.0256 -0.9105 0.4423, -1.0256 -0.7452 0.3283, -1.0256 -0.9458 0.375, -1.0256 -0.758 0.3039, -1.0256 -0.9639 0.3013, -1.0256 -0.7646 0.2772, -1.0256 -0.9705 0.2745, -1.0256 -0.7827 0.2034, -1.0256 -0.9833 0.2501, -1.0256 -0.818 0.1362, -1.0256 -1.0015 0.2295, -1.0256 -0.8683 0.0793, -1.0256 -1.0242 0.2139, -1.0256 -0.9308 0.0361, -1.0256 -1.0499 0.2041, -1.0256 -1.0019 0.0092, -1.0256 -1.0773 0.2008, -1.0256 -1.0773 0.0, -1.0256 -1.5151 0.2008, -1.0256 -1.5151 0.0, -0.7776 -1.5151 0.2008, -0.7776 -1.5151 0.0, -0.7776 -1.0773 0.2008, -0.7776 -1.0773 0.0, -0.7776 -1.0499 0.2041, -0.7776 -1.0019 0.0092, -0.7776 -1.0242 0.2139, -0.7776 -0.9308 0.0361, -0.7776 -1.0015 0.2295, -0.7776 -0.8683 0.0793, -0.7776 -0.9833 0.2501, -0.7776 -0.818 0.1362, -0.7776 -0.9705 0.2745, -0.7776 -0.7827 0.2034, -0.7776 -0.9639 0.3013, -0.7776 -0.7646 0.2772, -0.7776 -0.9458 0.375, -0.7776 -0.758 0.3039, -0.7776 -0.9105 0.4423, -0.7776 -0.7452 0.3283, -0.7776 -0.8602 0.4992, -0.7776 -0.727 0.349, -0.7776 -0.7977 0.5424, -0.7776 -0.7043 0.3646, -0.7776 -0.7266 0.5693, -0.7776 -0.6786 0.3744, -0.7776 -0.6512 0.5785, -0.7776 -0.3734 0.5785, -0.124 -0.3734 0.5785, -0.124 -0.5211 0.5785, 0.124 -0.3734 0.5785, 0.124 -0.5211 0.5785, 0.124 -0.3909 0.3777, 0.124 -0.5211 0.3777, -0.124 -0.3909 0.3777, -0.124 -0.5211 0.3777
            ]
        }
        coordIndex [
            0,1,2,-1,2,1,3,-1,0,4,1,-1,1,4,5,-1,1,5,6,-1,6,5,7,-1,6,7,8,-1,8,7,9,-1,8,9,10,-1,10,9,11,-1,10,11,12,-1,12,11,13,-1,12,13,14,-1,14,13,15,-1,14,15,16,-1,16,15,17,-1,16,17,18,-1,18,17,19,-1,18,19,20,-1,20,19,21,-1,20,21,22,-1,22,21,23,-1,22,23,24,-1,24,23,25,-1,24,25,26,-1,26,25,27,-1,26,27,28,-1,28,27,29,-1,28,29,30,-1,30,29,31,-1,32,2,33,-1,33,2,3,-1,33,3,34,-1,34,3,35,-1,34,35,36,-1,36,35,37,-1,36,37,38,-1,38,37,39,-1,38,39,40,-1,40,39,41,-1,40,41,42,-1,42,41,43,-1,42,43,44,-1,44,43,45,-1,44,45,46,-1,46,45,47,-1,46,47,48,-1,48,47,49,-1,48,49,50,-1,50,49,51,-1,50,51,52,-1,52,51,53,-1,52,53,54,-1,54,53,55,-1,54,55,56,-1,56,55,57,-1,56,57,58,-1,58,57,59,-1,5,4,33,-1,33,4,32,-1,5,33,34,-1,5,34,7,-1,7,34,36,-1,7,36,9,-1,9,36,38,-1,9,38,11,-1,11,38,40,-1,11,40,13,-1,13,40,42,-1,13,42,15,-1,15,42,44,-1,15,44,17,-1,17,44,19,-1,19,44,46,-1,19,46,21,-1,21,46,48,-1,21,48,23,-1,23,48,50,-1,23,50,25,-1,25,50,52,-1,25,52,27,-1,27,52,54,-1,27,54,29,-1,29,54,56,-1,31,29,58,-1,58,29,56,-1,30,31,59,-1,59,31,58,-1,28,30,57,-1,57,30,59,-1,28,57,55,-1,28,55,26,-1,26,55,53,-1,26,53,24,-1,24,53,51,-1,24,51,22,-1,22,51,49,-1,22,49,20,-1,20,49,47,-1,20,47,18,-1,18,47,45,-1,18,45,16,-1,16,45,14,-1,14,45,43,-1,14,43,12,-1,12,43,41,-1,12,41,10,-1,10,41,39,-1,10,39,8,-1,8,39,37,-1,8,37,6,-1,6,37,35,-1,6,35,1,-1,1,35,3,-1,60,61,62,-1,62,61,63,-1,64,63,65,-1,65,63,61,-1,65,61,66,-1,66,61,67,-1,66,67,68,-1,68,67,69,-1,68,69,70,-1,70,69,71,-1,70,71,72,-1,72,71,73,-1,72,73,74,-1,74,73,75,-1,74,75,76,-1,76,75,77,-1,76,77,78,-1,78,77,79,-1,78,79,80,-1,80,79,81,-1,80,81,82,-1,82,81,83,-1,82,83,84,-1,84,83,85,-1,84,85,86,-1,86,85,87,-1,86,87,88,-1,88,87,89,-1,88,89,90,-1,90,89,91,-1,92,93,94,-1,94,93,95,-1,94,95,96,-1,96,95,97,-1,96,97,98,-1,98,97,99,-1,98,99,100,-1,100,99,101,-1,100,101,102,-1,102,101,103,-1,102,103,104,-1,104,103,105,-1,104,105,106,-1,106,105,107,-1,106,107,108,-1,108,107,109,-1,108,109,110,-1,110,109,111,-1,110,111,112,-1,112,111,113,-1,112,113,114,-1,114,113,115,-1,114,115,116,-1,116,115,117,-1,116,117,118,-1,118,117,60,-1,118,60,119,-1,119,60,62,-1,61,60,67,-1,67,60,117,-1,67,117,69,-1,69,117,115,-1,69,115,71,-1,71,115,113,-1,71,113,73,-1,73,113,111,-1,73,111,75,-1,75,111,109,-1,75,109,77,-1,77,109,107,-1,77,107,105,-1,77,105,79,-1,79,105,103,-1,79,103,81,-1,81,103,101,-1,81,101,83,-1,83,101,99,-1,83,99,85,-1,85,99,97,-1,85,97,87,-1,87,97,95,-1,87,95,89,-1,91,89,93,-1,93,89,95,-1,90,91,92,-1,92,91,93,-1,88,90,94,-1,94,90,92,-1,88,94,86,-1,86,94,96,-1,86,96,84,-1,84,96,98,-1,84,98,82,-1,82,98,100,-1,82,100,80,-1,80,100,102,-1,80,102,78,-1,78,102,104,-1,78,104,76,-1,76,104,106,-1,76,106,108,-1,76,108,74,-1,74,108,110,-1,74,110,72,-1,72,110,112,-1,72,112,70,-1,70,112,114,-1,70,114,68,-1,68,114,116,-1,68,116,66,-1,66,116,118,-1,66,118,65,-1,64,65,119,-1,119,65,118,-1,120,121,122,-1,122,121,123,-1,124,125,126,-1,126,125,127,-1,123,125,122,-1,122,125,124,-1,126,127,120,-1,120,127,121,-1,125,123,127,-1,127,123,121,-1,
        ]
    }
}
Shape{
    appearance Appearance {
        material  Material 	{
            diffuseColor 0.20784313725490197 0.20784313725490197 0.20784313725490197
            specularColor 0.01568627450980392 0.01568627450980392 0.01568627450980392
            ambientIntensity 0.298
            transparency 0.0
            shininess 0.5
        }
    }
    geometry IndexedFaceSet {
        ccw TRUE
        solid FALSE
        coord DEF co Coordinate {
            point [
                0.2953 1.3638 0.8307, 0.2953 1.3638 0.9094, 0.2852 1.4402 0.8307, 0.2852 1.4402 0.9094, 0.2557 1.5114 0.8307, 0.2557 1.5114 0.9094, 0.2088 1.5726 0.8307, 0.2088 1.5726 0.9094, 0.1476 1.6195 0.8307, 0.1476 1.6195 0.9094, 0.0764 1.649 0.8307, 0.0764 1.649 0.9094, 0.0 1.659 0.8307, 0.0 1.659 0.9094, -0.0764 1.649 0.8307, -0.0764 1.649 0.9094, -0.1476 1.6195 0.8307, -0.1476 1.6195 0.9094, -0.2088 1.5726 0.8307, -0.2088 1.5726 0.9094, -0.2557 1.5114 0.8307, -0.2557 1.5114 0.9094, -0.2852 1.4402 0.8307, -0.2852 1.4402 0.9094, -0.2953 1.3638 0.8307, -0.2953 1.3638 0.9094, -0.2852 1.2873 0.8307, -0.2852 1.2873 0.9094, -0.2557 1.2161 0.8307, -0.2557 1.2161 0.9094, -0.2088 1.155 0.8307, -0.2088 1.155 0.9094, -0.1476 1.108 0.8307, -0.1476 1.108 0.9094, -0.0764 1.0786 0.8307, -0.0764 1.0786 0.9094, 0.0 1.0685 0.8307, 0.0 1.0685 0.9094, 0.0764 1.0786 0.8307, 0.0764 1.0786 0.9094, 0.1476 1.108 0.8307, 0.1476 1.108 0.9094, 0.2088 1.155 0.8307, 0.2088 1.155 0.9094, 0.2557 1.2161 0.8307, 0.2557 1.2161 0.9094, 0.2852 1.2873 0.8307, 0.2852 1.2873 0.9094, 0.0 1.3638 0.8307
            ]
        }
        coordIndex [
            0,1,2,-1,2,1,3,-1,2,3,4,-1,4,3,5,-1,4,5,6,-1,6,5,7,-1,6,7,8,-1,8,7,9,-1,8,9,10,-1,10,9,11,-1,10,11,12,-1,12,11,13,-1,12,13,14,-1,14,13,15,-1,14,15,16,-1,16,15,17,-1,16,17,18,-1,18,17,19,-1,18,19,20,-1,20,19,21,-1,20,21,22,-1,22,21,23,-1,22,23,24,-1,24,23,25,-1,24,25,26,-1,26,25,27,-1,26,27,28,-1,28,27,29,-1,28,29,30,-1,30,29,31,-1,30,31,32,-1,32,31,33,-1,32,33,34,-1,34,33,35,-1,34,35,36,-1,36,35,37,-1,36,37,38,-1,38,37,39,-1,38,39,40,-1,40,39,41,-1,40,41,42,-1,42,41,43,-1,42,43,44,-1,44,43,45,-1,44,45,46,-1,46,45,47,-1,46,47,0,-1,0,47,1,-1,44,46,48,-1,48,46,0,-1,48,0,2,-1,38,40,48,-1,48,40,42,-1,48,42,44,-1,32,34,48,-1,48,34,36,-1,48,36,38,-1,26,28,48,-1,48,28,30,-1,48,30,32,-1,20,22,48,-1,48,22,24,-1,48,24,26,-1,14,16,48,-1,48,16,18,-1,48,18,20,-1,8,10,48,-1,48,10,12,-1,48,12,14,-1,2,4,48,-1,48,4,6,-1,48,6,8,-1,
        ]
    }
}
Shape{
    appearance Appearance {
        material  Material 	{
            diffuseColor 0.8313725490196079 0.8313725490196079 0.8196078431372549
            specularColor 0.6666666666666666 0.6666666666666666 0.6549019607843137
            ambientIntensity 0.83
            transparency 0.0
            shininess 0.5
        }
    }
    geometry IndexedFaceSet {
        ccw TRUE
        solid FALSE
        coord DEF co Coordinate {
            point [
                -0.7771 -0.0739 0.9055, -0.7771 -0.0739 0.9094, -0.7811 -0.0434 0.9055, -0.7811 -0.0434 0.9094, -0.7929 -0.0149 0.9055, -0.7929 -0.0149 0.9094, -0.8117 0.0096 0.9055, -0.8117 0.0096 0.9094, -0.8361 0.0284 0.9055, -0.8361 0.0284 0.9094, -0.8646 0.0402 0.9055, -0.8646 0.0402 0.9094, -0.8952 0.0442 0.9055, -0.8952 0.0442 0.9094, -0.9258 0.0402 0.9055, -0.9258 0.0402 0.9094, -0.9543 0.0284 0.9055, -0.9543 0.0284 0.9094, -0.9787 0.0096 0.9055, -0.9787 0.0096 0.9094, -0.9975 -0.0149 0.9055, -0.9975 -0.0149 0.9094, -1.0093 -0.0434 0.9055, -1.0093 -0.0434 0.9094, -1.0133 -0.0739 0.9055, -1.0133 -0.0739 0.9094, -1.0093 -0.1045 0.9055, -1.0093 -0.1045 0.9094, -0.9975 -0.133 0.9055, -0.9975 -0.133 0.9094, -0.9787 -0.1574 0.9055, -0.9787 -0.1574 0.9094, -0.9543 -0.1762 0.9055, -0.9543 -0.1762 0.9094, -0.9258 -0.188 0.9055, -0.9258 -0.188 0.9094, -0.8952 -0.192 0.9055, -0.8952 -0.192 0.9094, -0.8646 -0.188 0.9055, -0.8646 -0.188 0.9094, -0.8361 -0.1762 0.9055, -0.8361 -0.1762 0.9094, -0.8117 -0.1574 0.9055, -0.8117 -0.1574 0.9094, -0.7929 -0.133 0.9055, -0.7929 -0.133 0.9094, -0.7811 -0.1045 0.9055, -0.7811 -0.1045 0.9094, -0.8952 -0.0739 0.9055
            ]
        }
        coordIndex [
            0,1,2,-1,2,1,3,-1,2,3,4,-1,4,3,5,-1,4,5,6,-1,6,5,7,-1,6,7,8,-1,8,7,9,-1,8,9,10,-1,10,9,11,-1,10,11,12,-1,12,11,13,-1,12,13,14,-1,14,13,15,-1,14,15,16,-1,16,15,17,-1,16,17,18,-1,18,17,19,-1,18,19,20,-1,20,19,21,-1,20,21,22,-1,22,21,23,-1,22,23,24,-1,24,23,25,-1,24,25,26,-1,26,25,27,-1,26,27,28,-1,28,27,29,-1,28,29,30,-1,30,29,31,-1,30,31,32,-1,32,31,33,-1,32,33,34,-1,34,33,35,-1,34,35,36,-1,36,35,37,-1,36,37,38,-1,38,37,39,-1,38,39,40,-1,40,39,41,-1,40,41,42,-1,42,41,43,-1,42,43,44,-1,44,43,45,-1,44,45,46,-1,46,45,47,-1,46,47,0,-1,0,47,1,-1,44,46,48,-1,48,46,0,-1,48,0,2,-1,38,40,48,-1,48,40,42,-1,48,42,44,-1,32,34,48,-1,48,34,36,-1,48,36,38,-1,26,28,48,-1,48,28,30,-1,48,30,32,-1,20,22,48,-1,48,22,24,-1,48,24,26,-1,14,16,48,-1,48,16,18,-1,48,18,20,-1,8,10,48,-1,48,10,12,-1,48,12,14,-1,2,4,48,-1,48,4,6,-1,48,6,8,-1,
        ]
    }
}
Shape{
    appearance Appearance {
        material  Material 	{
            diffuseColor 1.0 1.0 1.0
            specularColor 0.5019607843137255 0.5019607843137255 0.5019607843137255
            ambientIntensity 1.0
            transparency 0.0
            shininess 0.5
        }
    }
    geometry IndexedFaceSet {
        ccw TRUE
        solid FALSE
        coord DEF co Coordinate {
            point [
                -0.0349 1.9266 0.6399, -0.0349 1.9277 0.6276, -0.0349 1.9262 0.6399, -0.0349 1.9273 0.6276, 0.0082 1.9266 0.6402, 0.0082 1.9262 0.6402, 0.0075 1.9182 0.7358, 0.0075 1.9179 0.7353, 0.0075 1.9178 0.7358, 0.0215 1.9182 0.7359, 0.0215 1.9178 0.7359, 0.0222 1.9273 0.628, 0.0222 1.9277 0.628, 0.0215 1.9179 0.7353, -0.1204 1.927 0.6314, -0.1204 1.9274 0.6315, -0.1185 1.9274 0.6306, -0.0904 1.9279 0.6254, -0.0904 1.9275 0.6254, -0.0938 1.9275 0.6257, -0.1069 1.9278 0.6269, -0.1069 1.9274 0.6268, -0.1157 1.9271 0.6296, -0.1185 1.9271 0.6305, -0.1205 1.9262 0.6448, -0.1205 1.9258 0.6448, -0.1157 1.926 0.6427, -0.1098 1.9266 0.6402, -0.1098 1.9262 0.6401, -0.0976 1.9264 0.6379, -0.0976 1.9268 0.638, -0.0925 1.9264 0.6378, -0.0925 1.9268 0.6378, -0.0816 1.9263 0.6392, -0.0816 1.9267 0.6392, -0.0739 1.926 0.6422, -0.0739 1.9264 0.6422, -0.0668 1.9256 0.6472, -0.0668 1.926 0.6473, -0.0647 1.9254 0.6493, -0.0647 1.9258 0.6494, -0.0595 1.9248 0.6567, -0.0595 1.9252 0.6567, -0.0561 1.924 0.6654, -0.0561 1.9244 0.6654, -0.0544 1.9231 0.6762, -0.0544 1.9234 0.6762, -0.0543 1.9227 0.6802, -0.0543 1.9231 0.6802, -0.0563 1.9214 0.6952, -0.0563 1.9218 0.6952, -0.06 1.9206 0.7044, -0.06 1.921 0.7044, -0.0659 1.9199 0.7125, -0.0659 1.9203 0.7126, -0.0734 1.9194 0.7185, -0.0734 1.9197 0.7186, -0.0819 1.919 0.7224, -0.0819 1.9194 0.7224, -0.0913 1.9189 0.7241, -0.0913 1.9193 0.7242, -0.0955 1.9189 0.7243, -0.0955 1.9192 0.7243, -0.121 1.9194 0.7177, -0.121 1.9198 0.7177, -0.1198 1.9198 0.7184, -0.1088 1.919 0.7226, -0.1088 1.9194 0.7226, -0.1157 1.9192 0.7199, -0.1198 1.9194 0.7184, -0.1211 1.9185 0.7323, -0.1211 1.9182 0.7323, -0.1109 1.9179 0.7353, -0.1098 1.9183 0.7356, -0.1157 1.918 0.7339, -0.1098 1.9179 0.7356, -0.0957 1.9178 0.7368, -0.0957 1.9181 0.7369, -0.0955 1.9178 0.7368, -0.0955 1.9181 0.7369, -0.0797 1.9183 0.7351, -0.0818 1.9179 0.7353, -0.0797 1.9179 0.735, -0.0684 1.9183 0.7307, -0.0684 1.9187 0.7307, -0.0582 1.9189 0.7237, -0.0582 1.9193 0.7237, -0.0556 1.9191 0.7212, -0.0556 1.9195 0.7213, -0.0477 1.92 0.7111, -0.0477 1.9204 0.7111, -0.0437 1.9208 0.7021, -0.0424 1.9214 0.6992, -0.0424 1.921 0.6991, -0.0399 1.9223 0.6851, -0.0399 1.9227 0.6851, -0.0397 1.9228 0.6794, -0.0397 1.9232 0.6795, -0.0413 1.9242 0.6633, -0.0413 1.9246 0.6634, -0.0437 1.9248 0.6564, -0.0454 1.9256 0.6518, -0.0454 1.9252 0.6517, -0.0516 1.926 0.6423, -0.0516 1.9264 0.6423, -0.0533 1.9262 0.6404, -0.0533 1.9266 0.6404, -0.0848 1.9275 0.6257, -0.0838 1.9279 0.6258, -0.0838 1.9275 0.6257, -0.0721 1.9276 0.6282, -0.0721 1.9273 0.6282, -0.0619 1.9272 0.6331, -0.0619 1.9268 0.6331, -0.2004 1.9267 0.6387, -0.2003 1.9278 0.6265, -0.2004 1.9263 0.6387, -0.2003 1.9274 0.6264, -0.1561 1.9263 0.639, -0.1561 1.9267 0.6391, -0.1844 1.9263 0.6388, -0.1564 1.9235 0.6753, -0.1564 1.9231 0.6753, -0.1951 1.9232 0.675, -0.1951 1.9235 0.6751, -0.1844 1.9232 0.6751, -0.1952 1.9225 0.6874, -0.1952 1.9221 0.6874, -0.1564 1.9221 0.6877, -0.1564 1.9224 0.6877, -0.1844 1.9221 0.6875, -0.1567 1.9194 0.7222, -0.1567 1.919 0.7222, -0.1985 1.9191 0.7219, -0.1985 1.9195 0.7219, -0.1844 1.9191 0.722, -0.1986 1.9184 0.7343, -0.1986 1.918 0.7343, -0.1428 1.9179 0.7347, -0.1428 1.9183 0.7347, -0.1844 1.918 0.7344, -0.142 1.9278 0.6269, -0.142 1.9274 0.6268, -0.1844 1.9274 0.6265, -0.2882 1.9252 0.656, -0.2828 1.9258 0.6494, -0.2927 1.9265 0.6409, -0.2808 1.926 0.6476, -0.2814 1.9272 0.633, -0.2736 1.9264 0.643, -0.2691 1.9276 0.6282, -0.2643 1.9266 0.6398, -0.2505 1.9278 0.6261, -0.2505 1.9268 0.6384, -0.2207 1.9278 0.6263, -0.2348 1.9267 0.6385, -0.2215 1.9184 0.7342, -0.2354 1.9195 0.7217, -0.2524 1.9184 0.734, -0.2517 1.9195 0.7216, -0.2689 1.9186 0.732, -0.2657 1.9196 0.7199, -0.2819 1.919 0.7272, -0.275 1.9199 0.7165, -0.2932 1.9197 0.7194, -0.2829 1.9204 0.7112, -0.2969 1.92 0.7157, -0.2864 1.9207 0.7076, -0.3036 1.9208 0.7063, -0.2905 1.9213 0.7013, -0.3075 1.9217 0.696, -0.2933 1.922 0.6932, -0.3093 1.923 0.681, -0.2946 1.9231 0.6807, -0.3089 1.9236 0.6742, -0.2942 1.9237 0.6739, -0.3062 1.9247 0.6615, -0.292 1.9245 0.664, -0.3008 1.9257 0.6504, -0.2505 1.9274 0.6261, -0.2207 1.9274 0.6263, -0.2691 1.9273 0.6282, -0.2814 1.9268 0.633, -0.2927 1.9261 0.6409, -0.3008 1.9253 0.6504, -0.3062 1.9243 0.6615, -0.3089 1.9232 0.6741, -0.3093 1.9226 0.681, -0.3075 1.9213 0.696, -0.3036 1.9204 0.7063, -0.2969 1.9196 0.7157, -0.2932 1.9193 0.7193, -0.2819 1.9186 0.7271, -0.2689 1.9182 0.732, -0.2524 1.918 0.7339, -0.2215 1.918 0.7341, -0.2517 1.9191 0.7215, -0.2354 1.9191 0.7216, -0.2348 1.9264 0.6385, -0.2505 1.9264 0.6384, -0.2828 1.9254 0.6494, -0.2808 1.9256 0.6476, -0.2736 1.926 0.643, -0.2643 1.9262 0.6397, -0.2946 1.9227 0.6807, -0.2942 1.9233 0.6739, -0.292 1.9241 0.664, -0.2882 1.9248 0.656, -0.2829 1.92 0.7111, -0.2864 1.9203 0.7075, -0.2905 1.9209 0.7013, -0.2933 1.9216 0.6931, -0.2657 1.9192 0.7199, -0.275 1.9195 0.7164
            ]
        }
        coordIndex [
            0,1,2,-1,2,1,3,-1,4,0,5,-1,5,0,2,-1,4,5,6,-1,6,5,7,-1,6,7,8,-1,9,6,10,-1,10,6,8,-1,11,12,13,-1,13,12,9,-1,13,9,10,-1,1,12,3,-1,3,12,11,-1,6,9,4,-1,4,9,12,-1,4,12,0,-1,0,12,1,-1,14,15,16,-1,17,18,19,-1,17,19,20,-1,19,21,20,-1,20,21,22,-1,20,22,16,-1,16,22,23,-1,16,23,14,-1,24,15,25,-1,25,15,14,-1,24,25,26,-1,24,26,27,-1,26,28,27,-1,27,28,29,-1,27,29,30,-1,30,29,31,-1,30,31,32,-1,32,31,33,-1,32,33,34,-1,34,33,35,-1,34,35,36,-1,36,35,37,-1,36,37,38,-1,38,37,39,-1,38,39,40,-1,40,39,41,-1,40,41,42,-1,42,41,43,-1,42,43,44,-1,44,43,45,-1,44,45,46,-1,46,45,47,-1,46,47,48,-1,48,47,49,-1,48,49,50,-1,50,49,51,-1,50,51,52,-1,52,51,53,-1,52,53,54,-1,54,53,55,-1,54,55,56,-1,56,55,57,-1,56,57,58,-1,58,57,59,-1,58,59,60,-1,60,59,61,-1,60,61,62,-1,63,64,65,-1,62,61,66,-1,62,66,67,-1,67,66,68,-1,67,68,65,-1,65,68,69,-1,65,69,63,-1,70,64,71,-1,71,64,63,-1,72,73,74,-1,74,73,70,-1,74,70,71,-1,72,75,73,-1,73,75,76,-1,73,76,77,-1,77,76,78,-1,77,78,79,-1,80,79,81,-1,81,79,78,-1,81,82,80,-1,80,82,83,-1,80,83,84,-1,84,83,85,-1,84,85,86,-1,86,85,87,-1,86,87,88,-1,88,87,89,-1,88,89,90,-1,90,89,91,-1,90,91,92,-1,91,93,92,-1,92,93,94,-1,92,94,95,-1,95,94,96,-1,95,96,97,-1,97,96,98,-1,97,98,99,-1,99,98,100,-1,99,100,101,-1,100,102,101,-1,101,102,103,-1,101,103,104,-1,104,103,105,-1,104,105,106,-1,18,17,107,-1,107,17,108,-1,107,108,109,-1,109,108,110,-1,109,110,111,-1,111,110,112,-1,111,112,113,-1,113,112,106,-1,113,106,105,-1,65,64,70,-1,56,86,54,-1,54,86,88,-1,54,88,52,-1,52,88,90,-1,52,90,50,-1,65,70,67,-1,67,70,73,-1,67,73,62,-1,62,73,77,-1,62,77,60,-1,60,77,79,-1,60,79,58,-1,58,79,80,-1,58,80,56,-1,56,80,84,-1,56,84,86,-1,15,24,16,-1,16,24,27,-1,16,27,20,-1,20,27,30,-1,20,30,17,-1,17,30,32,-1,17,32,108,-1,108,32,34,-1,108,34,110,-1,110,34,36,-1,110,36,112,-1,112,36,38,-1,112,38,106,-1,106,38,40,-1,106,40,104,-1,104,40,42,-1,104,42,101,-1,97,48,95,-1,95,48,50,-1,95,50,92,-1,92,50,90,-1,101,42,99,-1,99,42,44,-1,99,44,97,-1,97,44,46,-1,97,46,48,-1,114,115,116,-1,116,115,117,-1,118,119,120,-1,120,119,114,-1,120,114,116,-1,121,119,122,-1,122,119,118,-1,123,124,125,-1,125,124,121,-1,125,121,122,-1,126,124,127,-1,127,124,123,-1,128,129,130,-1,130,129,126,-1,130,126,127,-1,131,129,132,-1,132,129,128,-1,133,134,135,-1,135,134,131,-1,135,131,132,-1,136,134,137,-1,137,134,133,-1,138,139,140,-1,140,139,136,-1,140,136,137,-1,141,139,142,-1,142,139,138,-1,117,115,143,-1,143,115,141,-1,143,141,142,-1,115,114,141,-1,141,114,119,-1,124,126,121,-1,121,126,129,-1,134,136,131,-1,131,136,139,-1,131,139,129,-1,129,139,141,-1,129,141,121,-1,121,141,119,-1,144,145,146,-1,146,145,147,-1,146,147,148,-1,148,147,149,-1,148,149,150,-1,150,149,151,-1,150,151,152,-1,152,151,153,-1,152,153,154,-1,154,153,155,-1,154,155,156,-1,156,155,157,-1,156,157,158,-1,158,157,159,-1,158,159,160,-1,160,159,161,-1,160,161,162,-1,162,161,163,-1,162,163,164,-1,164,163,165,-1,164,165,166,-1,166,165,167,-1,166,167,168,-1,168,167,169,-1,168,169,170,-1,170,169,171,-1,170,171,172,-1,172,171,173,-1,172,173,174,-1,174,173,175,-1,174,175,176,-1,176,175,177,-1,176,177,178,-1,178,177,144,-1,178,144,146,-1,152,154,179,-1,179,154,180,-1,152,179,181,-1,152,181,150,-1,150,181,182,-1,150,182,148,-1,148,182,183,-1,148,183,146,-1,146,183,184,-1,146,184,178,-1,178,184,185,-1,178,185,176,-1,176,185,186,-1,176,186,174,-1,174,186,187,-1,174,187,172,-1,172,187,188,-1,172,188,170,-1,170,188,189,-1,170,189,168,-1,168,189,190,-1,168,190,166,-1,166,190,191,-1,166,191,164,-1,164,191,192,-1,164,192,162,-1,162,192,193,-1,162,193,160,-1,160,193,194,-1,160,194,158,-1,156,158,195,-1,195,158,194,-1,154,156,180,-1,180,156,195,-1,159,157,196,-1,196,157,197,-1,157,155,197,-1,197,155,198,-1,155,153,198,-1,198,153,199,-1,145,200,201,-1,145,201,147,-1,147,201,202,-1,147,202,149,-1,149,202,203,-1,149,203,151,-1,151,203,199,-1,151,199,153,-1,173,204,205,-1,173,205,175,-1,175,205,206,-1,175,206,177,-1,177,206,207,-1,177,207,144,-1,144,207,200,-1,144,200,145,-1,165,208,209,-1,165,209,167,-1,167,209,210,-1,167,210,169,-1,169,210,211,-1,169,211,171,-1,171,211,204,-1,171,204,173,-1,159,196,212,-1,159,212,161,-1,161,212,213,-1,161,213,163,-1,163,213,208,-1,163,208,165,-1,
        ]
    }
}
Shape{
    appearance Appearance {
        material  Material 	{
            diffuseColor 0.20784313725490197 0.20784313725490197 0.20784313725490197
            specularColor 0.01568627450980392 0.01568627450980392 0.01568627450980392
            ambientIntensity 0.298
            transparency 0.0
            shininess 0.5
        }
    }
    geometry IndexedFaceSet {
        ccw TRUE
        solid FALSE
        coord DEF co Coordinate {
            point [
                -0.2354 1.9191 0.7216, -0.2348 1.9264 0.6385, -0.2517 1.9191 0.7215, -0.2505 1.9264 0.6384, -0.2643 1.9262 0.6397, -0.2736 1.926 0.643, -0.2808 1.9256 0.6476, -0.2828 1.9254 0.6494, -0.2882 1.9248 0.656, -0.292 1.9241 0.664, -0.2942 1.9233 0.6739, -0.2946 1.9227 0.6807, -0.2933 1.9216 0.6931, -0.2905 1.9209 0.7013, -0.2864 1.9203 0.7075, -0.2829 1.92 0.7111, -0.2657 1.9192 0.7199, -0.275 1.9195 0.7164
            ]
        }
        coordIndex [
            0,1,2,-1,2,1,3,-1,2,3,4,-1,4,5,2,-1,2,5,6,-1,2,6,7,-1,7,8,2,-1,2,8,9,-1,2,9,10,-1,10,11,2,-1,2,11,12,-1,2,12,13,-1,13,14,2,-1,2,14,15,-1,2,15,16,-1,16,15,17,-1,
        ]
    }
}
Shape{
    appearance Appearance {
        material  Material 	{
            diffuseColor 1.0 1.0 1.0
            specularColor 0.5019607843137255 0.5019607843137255 0.5019607843137255
            ambientIntensity 1.0
            transparency 0.0
            shininess 0.5
        }
    }
    geometry IndexedFaceSet {
        ccw TRUE
        solid FALSE
        coord DEF co Coordinate {
            point [
                -0.3455 1.9242 0.6671, -0.362 1.9203 0.7118, -0.3569 1.9185 0.7332, -0.3149 1.9279 0.6256, -0.3303 1.9279 0.6255, -0.3409 1.9253 0.655, -0.3629 1.9201 0.7151, -0.3638 1.9197 0.7194, -0.3718 1.9185 0.7331, -0.3641 1.9197 0.7194, -0.365 1.9201 0.7148, -0.3658 1.9203 0.7118, -0.3818 1.9243 0.6669, -0.4123 1.9279 0.625, -0.3969 1.9279 0.6251, -0.386 1.9253 0.6546, -0.3718 1.9181 0.7331, -0.412 1.9275 0.6257, -0.4123 1.9275 0.6249, -0.3569 1.9181 0.7332, -0.3149 1.9275 0.6257, -0.3149 1.9275 0.6256, -0.3449 1.9208 0.7025, -0.3303 1.9275 0.6255, -0.3409 1.9249 0.6549, -0.3304 1.9275 0.6257, -0.386 1.9249 0.6546, -0.3449 1.9249 0.6549, -0.3966 1.9275 0.6257, -0.3969 1.9275 0.625, -0.3455 1.9239 0.6671, -0.3818 1.9239 0.6668, -0.3658 1.9199 0.7118, -0.3641 1.9193 0.7193, -0.365 1.9197 0.7148, -0.3638 1.9193 0.7193, -0.362 1.9199 0.7118, -0.3629 1.9197 0.715
            ]
        }
        coordIndex [
            0,1,2,-1,3,4,5,-1,1,6,2,-1,2,6,7,-1,2,7,8,-1,8,7,9,-1,8,9,10,-1,10,11,8,-1,8,11,12,-1,8,12,13,-1,14,13,15,-1,15,13,12,-1,15,12,5,-1,5,12,0,-1,5,0,3,-1,3,0,2,-1,16,8,17,-1,17,8,13,-1,17,13,18,-1,2,8,19,-1,19,8,16,-1,20,21,3,-1,20,3,22,-1,22,3,2,-1,22,2,19,-1,4,3,23,-1,23,3,21,-1,24,5,25,-1,25,5,4,-1,25,4,23,-1,26,15,27,-1,27,15,5,-1,27,5,24,-1,15,26,14,-1,14,26,28,-1,14,28,29,-1,13,14,18,-1,18,14,29,-1,0,12,30,-1,30,12,31,-1,12,11,31,-1,31,11,32,-1,9,33,34,-1,9,34,10,-1,10,34,32,-1,10,32,11,-1,9,7,33,-1,33,7,35,-1,1,36,37,-1,1,37,6,-1,6,37,35,-1,6,35,7,-1,1,0,36,-1,36,0,30,-1,
        ]
    }
}
Shape{
    appearance Appearance {
        material  Material 	{
            diffuseColor 0.20784313725490197 0.20784313725490197 0.20784313725490197
            specularColor 0.01568627450980392 0.01568627450980392 0.01568627450980392
            ambientIntensity 0.298
            transparency 0.0
            shininess 0.5
        }
    }
    geometry IndexedFaceSet {
        ccw TRUE
        solid FALSE
        coord DEF co Coordinate {
            point [
                -0.3641 1.9193 0.7193, -0.3638 1.9193 0.7193, -0.365 1.9197 0.7148, -0.3629 1.9197 0.715, -0.3658 1.9199 0.7118, -0.362 1.9199 0.7118, -0.3818 1.9239 0.6668, -0.3455 1.9239 0.6671
            ]
        }
        coordIndex [
            0,1,2,-1,2,1,3,-1,2,3,4,-1,4,3,5,-1,4,5,6,-1,6,5,7,-1,
        ]
    }
}
Shape{
    appearance Appearance {
        material  Material 	{
            diffuseColor 1.0 1.0 1.0
            specularColor 0.5019607843137255 0.5019607843137255 0.5019607843137255
            ambientIntensity 1.0
            transparency 0.0
            shininess 0.5
        }
    }
    geometry IndexedFaceSet {
        ccw TRUE
        solid FALSE
        coord DEF co Coordinate {
            point [
                -0.0349 1.9416 0.4688, -0.0348 1.9427 0.4565, -0.0349 1.9412 0.4688, -0.0348 1.9423 0.4565, 0.0094 1.9416 0.4691, 0.0094 1.9412 0.4691, 0.0091 1.9384 0.5054, 0.0091 1.938 0.5054, -0.0296 1.9384 0.5051, -0.0296 1.938 0.5051, -0.0297 1.9373 0.5175, -0.0297 1.9369 0.5174, 0.0091 1.9373 0.5177, 0.0091 1.9369 0.5177, 0.0088 1.9343 0.5523, 0.0088 1.9339 0.5522, -0.033 1.9343 0.552, -0.033 1.9339 0.5519, -0.0331 1.9332 0.5644, -0.0331 1.9328 0.5643, 0.0227 1.9332 0.5648, 0.0227 1.9328 0.5647, 0.0235 1.9426 0.4569, 0.0235 1.9422 0.4569, -0.0785 1.9395 0.4924, -0.0966 1.9393 0.4947, -0.1102 1.9384 0.5055, -0.0963 1.9427 0.4561, -0.1099 1.9427 0.456, -0.0964 1.9417 0.468, -0.0967 1.9384 0.505, -0.0672 1.9398 0.4891, -0.0704 1.9397 0.4906, -0.0961 1.9417 0.468, -0.0892 1.9415 0.4703, -0.0938 1.942 0.4646, -0.0854 1.9417 0.4676, -0.0966 1.94 0.4873, -0.0957 1.9405 0.4808, -0.0938 1.941 0.4759, -0.0906 1.9413 0.4717, -0.0713 1.9418 0.466, -0.0723 1.9429 0.4544, -0.0759 1.9419 0.4655, -0.0789 1.9428 0.455, -0.0814 1.9418 0.4661, -0.0845 1.9426 0.4569, -0.0894 1.9424 0.4601, -0.0963 1.9379 0.5109, -0.1092 1.9375 0.516, -0.0949 1.9375 0.5158, -0.1071 1.9369 0.5221, -0.0933 1.9372 0.5186, -0.1044 1.9366 0.5264, -0.0913 1.937 0.5208, -0.1008 1.9363 0.5299, -0.0889 1.9369 0.5223, -0.0963 1.936 0.5324, -0.0858 1.9368 0.5235, -0.0905 1.9359 0.5342, -0.0811 1.9368 0.524, -0.0825 1.9358 0.535, -0.0737 1.9368 0.5233, -0.0686 1.9359 0.5334, -0.0652 1.9371 0.5207, -0.0585 1.9363 0.5295, -0.0557 1.9376 0.5149, -0.0558 1.9364 0.528, -0.0644 1.9415 0.4702, -0.0544 1.9423 0.4606, -0.0655 1.9416 0.469, -0.0588 1.9426 0.4575, -0.0682 1.9417 0.4672, -0.0639 1.9428 0.4555, -0.0703 1.9429 0.4545, -0.0618 1.9406 0.4802, -0.0479 1.9407 0.4786, -0.0617 1.9408 0.478, -0.0479 1.9409 0.477, -0.062 1.9411 0.4749, -0.0485 1.9414 0.4708, -0.0629 1.9413 0.4725, -0.0502 1.9418 0.4663, -0.053 1.9422 0.4621, -0.0737 1.9387 0.502, -0.0634 1.9389 0.4995, -0.0653 1.9399 0.4878, -0.0576 1.9392 0.4966, -0.0637 1.9401 0.4858, -0.0535 1.9395 0.4931, -0.0625 1.9403 0.4833, -0.0507 1.9398 0.4892, -0.0488 1.9402 0.4845, -0.0825 1.9354 0.5349, -0.0686 1.9356 0.5333, -0.0585 1.9359 0.5295, -0.0558 1.936 0.5279, -0.0557 1.9372 0.5148, -0.0652 1.9367 0.5206, -0.0737 1.9364 0.5233, -0.0811 1.9364 0.524, -0.0858 1.9364 0.5234, -0.0889 1.9365 0.5223, -0.0913 1.9367 0.5207, -0.0933 1.9369 0.5185, -0.0949 1.9371 0.5157, -0.0963 1.9375 0.5109, -0.0967 1.938 0.505, -0.0737 1.9383 0.502, -0.0634 1.9385 0.4995, -0.0576 1.9388 0.4966, -0.0535 1.9391 0.493, -0.0507 1.9394 0.4892, -0.0488 1.9398 0.4844, -0.0479 1.9403 0.4786, -0.0479 1.9405 0.477, -0.0485 1.941 0.4708, -0.0502 1.9414 0.4662, -0.053 1.9418 0.4621, -0.0544 1.9419 0.4606, -0.0588 1.9422 0.4575, -0.0639 1.9424 0.4554, -0.0703 1.9425 0.4544, -0.0723 1.9425 0.4544, -0.0789 1.9424 0.455, -0.0845 1.9422 0.4569, -0.0894 1.942 0.4601, -0.0938 1.9416 0.4646, -0.0961 1.9413 0.4679, -0.0964 1.9413 0.4679, -0.0963 1.9423 0.456, -0.1099 1.9423 0.4559, -0.1102 1.938 0.5055, -0.1092 1.9371 0.5159, -0.1071 1.9365 0.522, -0.1044 1.9362 0.5264, -0.1008 1.9359 0.5298, -0.0963 1.9356 0.5324, -0.0905 1.9355 0.5342, -0.0653 1.9395 0.4877, -0.0672 1.9394 0.4891, -0.0704 1.9393 0.4906, -0.0785 1.9391 0.4924, -0.0617 1.9404 0.478, -0.0618 1.9402 0.4801, -0.0625 1.9399 0.4832, -0.0637 1.9397 0.4857, -0.0655 1.9412 0.469, -0.0644 1.9411 0.4701, -0.0629 1.9409 0.4724, -0.062 1.9407 0.4749, -0.0759 1.9415 0.4654, -0.0713 1.9414 0.466, -0.0682 1.9413 0.4671, -0.0906 1.941 0.4716, -0.0892 1.9411 0.4702, -0.0854 1.9413 0.4676, -0.0814 1.9414 0.4661, -0.0966 1.9396 0.4873, -0.0957 1.9402 0.4808, -0.0938 1.9406 0.4759, -0.0966 1.9389 0.4947
            ]
        }
        coordIndex [
            0,1,2,-1,2,1,3,-1,4,0,5,-1,5,0,2,-1,6,4,7,-1,7,4,5,-1,8,6,9,-1,9,6,7,-1,10,8,11,-1,11,8,9,-1,12,10,13,-1,13,10,11,-1,14,12,15,-1,15,12,13,-1,16,14,17,-1,17,14,15,-1,18,16,19,-1,19,16,17,-1,20,18,21,-1,21,18,19,-1,22,20,23,-1,23,20,21,-1,1,22,3,-1,3,22,23,-1,22,1,0,-1,0,4,22,-1,22,4,6,-1,22,6,20,-1,16,18,14,-1,14,18,20,-1,14,20,12,-1,12,20,6,-1,12,6,10,-1,10,6,8,-1,24,25,26,-1,27,28,29,-1,29,28,26,-1,30,31,32,-1,33,34,35,-1,35,34,36,-1,25,37,26,-1,26,37,38,-1,26,38,29,-1,29,38,39,-1,29,39,33,-1,33,39,40,-1,33,40,34,-1,41,42,43,-1,43,42,44,-1,43,44,45,-1,45,44,46,-1,45,46,36,-1,36,46,47,-1,36,47,35,-1,32,24,30,-1,30,24,26,-1,30,26,48,-1,48,26,49,-1,48,49,50,-1,50,49,51,-1,50,51,52,-1,52,51,53,-1,52,53,54,-1,54,53,55,-1,54,55,56,-1,56,55,57,-1,56,57,58,-1,58,57,59,-1,58,59,60,-1,60,59,61,-1,60,61,62,-1,62,61,63,-1,62,63,64,-1,64,63,65,-1,64,65,66,-1,66,65,67,-1,68,69,70,-1,70,69,71,-1,70,71,72,-1,72,71,73,-1,72,73,41,-1,41,73,74,-1,41,74,42,-1,75,76,77,-1,77,76,78,-1,77,78,79,-1,79,78,80,-1,79,80,81,-1,81,80,82,-1,81,82,68,-1,68,82,83,-1,68,83,69,-1,30,84,31,-1,31,84,85,-1,31,85,86,-1,86,85,87,-1,86,87,88,-1,88,87,89,-1,88,89,90,-1,90,89,91,-1,90,91,75,-1,75,91,92,-1,75,92,76,-1,61,93,94,-1,61,94,63,-1,63,94,95,-1,63,95,65,-1,65,95,96,-1,65,96,67,-1,66,67,97,-1,97,67,96,-1,66,97,98,-1,66,98,64,-1,64,98,99,-1,64,99,62,-1,62,99,100,-1,62,100,60,-1,60,100,101,-1,60,101,58,-1,58,101,102,-1,58,102,56,-1,56,102,103,-1,56,103,54,-1,54,103,104,-1,54,104,52,-1,52,104,105,-1,52,105,50,-1,50,105,106,-1,50,106,48,-1,48,106,107,-1,48,107,30,-1,84,30,108,-1,108,30,107,-1,84,108,109,-1,84,109,85,-1,85,109,110,-1,85,110,87,-1,87,110,111,-1,87,111,89,-1,89,111,112,-1,89,112,91,-1,91,112,113,-1,91,113,92,-1,92,113,114,-1,92,114,76,-1,76,114,115,-1,76,115,78,-1,78,115,116,-1,78,116,80,-1,80,116,117,-1,80,117,82,-1,82,117,118,-1,82,118,83,-1,83,118,119,-1,83,119,69,-1,69,119,120,-1,69,120,71,-1,71,120,121,-1,71,121,73,-1,73,121,122,-1,73,122,74,-1,74,122,123,-1,74,123,42,-1,42,123,124,-1,42,124,44,-1,44,124,125,-1,44,125,46,-1,46,125,126,-1,46,126,47,-1,47,126,127,-1,47,127,35,-1,35,127,128,-1,35,128,33,-1,29,33,129,-1,129,33,128,-1,27,29,130,-1,130,29,129,-1,28,27,131,-1,131,27,130,-1,26,28,132,-1,132,28,131,-1,26,132,133,-1,26,133,49,-1,49,133,134,-1,49,134,51,-1,51,134,135,-1,51,135,53,-1,53,135,136,-1,53,136,55,-1,55,136,137,-1,55,137,57,-1,57,137,138,-1,57,138,59,-1,59,138,93,-1,59,93,61,-1,86,139,140,-1,86,140,31,-1,31,140,141,-1,31,141,32,-1,32,141,142,-1,32,142,24,-1,77,143,144,-1,77,144,75,-1,75,144,145,-1,75,145,90,-1,90,145,146,-1,90,146,88,-1,88,146,139,-1,88,139,86,-1,70,147,148,-1,70,148,68,-1,68,148,149,-1,68,149,81,-1,81,149,150,-1,81,150,79,-1,79,150,143,-1,79,143,77,-1,43,151,152,-1,43,152,41,-1,41,152,153,-1,41,153,72,-1,72,153,147,-1,72,147,70,-1,40,154,155,-1,40,155,34,-1,34,155,156,-1,34,156,36,-1,36,156,157,-1,36,157,45,-1,45,157,151,-1,45,151,43,-1,37,158,159,-1,37,159,38,-1,38,159,160,-1,38,160,39,-1,39,160,154,-1,39,154,40,-1,37,25,158,-1,158,25,161,-1,25,24,161,-1,161,24,142,-1,
        ]
    }
}
Shape{
    appearance Appearance {
        material  Material 	{
            diffuseColor 0.20784313725490197 0.20784313725490197 0.20784313725490197
            specularColor 0.01568627450980392 0.01568627450980392 0.01568627450980392
            ambientIntensity 0.298
            transparency 0.0
            shininess 0.5
        }
    }
    geometry IndexedFaceSet {
        ccw TRUE
        solid FALSE
        coord DEF co Coordinate {
            point [
                -0.0966 1.9396 0.4873, -0.0966 1.9389 0.4947, -0.0785 1.9391 0.4924, -0.0892 1.9411 0.4702, -0.0906 1.941 0.4716, -0.0814 1.9414 0.4661, -0.0704 1.9393 0.4906, -0.0672 1.9394 0.4891, -0.0854 1.9413 0.4676, -0.0938 1.9406 0.4759, -0.0957 1.9402 0.4808, -0.0625 1.9399 0.4832, -0.0618 1.9402 0.4801, -0.0617 1.9404 0.478, -0.062 1.9407 0.4749, -0.0682 1.9413 0.4671, -0.0713 1.9414 0.466, -0.0655 1.9412 0.469, -0.0759 1.9415 0.4654, -0.0653 1.9395 0.4877, -0.0637 1.9397 0.4857, -0.0629 1.9409 0.4724, -0.0644 1.9411 0.4701
            ]
        }
        coordIndex [
            0,1,2,-1,3,4,2,-1,5,6,7,-1,6,5,2,-1,2,5,8,-1,2,8,3,-1,4,9,2,-1,2,9,10,-1,2,10,0,-1,11,12,5,-1,5,12,13,-1,5,13,14,-1,15,16,17,-1,17,16,18,-1,17,18,5,-1,7,19,5,-1,5,19,20,-1,5,20,11,-1,14,21,5,-1,5,21,22,-1,5,22,17,-1,
        ]
    }
}
Shape{
    appearance Appearance {
        material  Material 	{
            diffuseColor 1.0 1.0 1.0
            specularColor 0.5019607843137255 0.5019607843137255 0.5019607843137255
            ambientIntensity 1.0
            transparency 0.0
            shininess 0.5
        }
    }
    geometry IndexedFaceSet {
        ccw TRUE
        solid FALSE
        coord DEF co Coordinate {
            point [
                -0.1284 1.9409 0.4725, -0.1284 1.9413 0.4725, -0.1332 1.9415 0.4694, -0.1506 1.9419 0.4649, -0.1506 1.9415 0.4649, -0.1417 1.9414 0.466, -0.1417 1.9418 0.466, -0.1352 1.9412 0.4686, -0.1332 1.9412 0.4694, -0.1283 1.9425 0.4585, -0.1283 1.9421 0.4585, -0.1352 1.9423 0.456, -0.1378 1.9428 0.4551, -0.1378 1.9424 0.4551, -0.1492 1.9429 0.4539, -0.1489 1.9425 0.4539, -0.1492 1.9425 0.4538, -0.1495 1.9425 0.4539, -0.1616 1.9428 0.4553, -0.1616 1.9424 0.4552, -0.1687 1.9422 0.4579, -0.1687 1.9425 0.458, -0.1718 1.942 0.4598, -0.1718 1.9424 0.4598, -0.176 1.9417 0.4635, -0.176 1.9421 0.4635, -0.1785 1.9414 0.467, -0.1785 1.9417 0.4671, -0.1801 1.941 0.4713, -0.1801 1.9414 0.4714, -0.1807 1.9405 0.4764, -0.1807 1.9409 0.4764, -0.18 1.9401 0.4819, -0.18 1.9404 0.4819, -0.1785 1.9397 0.4858, -0.1785 1.9401 0.4858, -0.1762 1.9394 0.4892, -0.1762 1.9398 0.4892, -0.173 1.9392 0.4921, -0.173 1.9396 0.4921, -0.164 1.9387 0.4971, -0.164 1.9391 0.4971, -0.1588 1.9385 0.4993, -0.1588 1.9389 0.4993, -0.1504 1.9382 0.503, -0.1504 1.9386 0.503, -0.1457 1.9379 0.506, -0.1457 1.9383 0.506, -0.1443 1.9378 0.5074, -0.1443 1.9382 0.5075, -0.1434 1.9377 0.5093, -0.1434 1.9381 0.5093, -0.1429 1.9375 0.5114, -0.1429 1.9379 0.5114, -0.1427 1.9373 0.5132, -0.1427 1.9377 0.5132, -0.143 1.9371 0.5153, -0.143 1.9375 0.5153, -0.1437 1.937 0.5171, -0.1437 1.9374 0.5172, -0.1449 1.9368 0.5188, -0.1449 1.9372 0.5189, -0.1469 1.9367 0.5206, -0.1469 1.9371 0.5207, -0.15 1.9365 0.5222, -0.15 1.9369 0.5223, -0.1536 1.9364 0.5232, -0.1536 1.9368 0.5232, -0.1576 1.9364 0.5234, -0.1576 1.9368 0.5235, -0.1671 1.9365 0.5222, -0.1671 1.9369 0.5222, -0.1748 1.9368 0.5192, -0.1748 1.9372 0.5192, -0.1772 1.9369 0.5177, -0.1772 1.9373 0.5178, -0.1773 1.9362 0.5309, -0.1773 1.9358 0.5308, -0.1685 1.9355 0.5335, -0.1685 1.9359 0.5335, -0.159 1.9355 0.5344, -0.159 1.9359 0.5344, -0.1481 1.9356 0.5332, -0.1481 1.936 0.5332, -0.1409 1.9358 0.5304, -0.1409 1.9362 0.5304, -0.1376 1.936 0.5284, -0.1376 1.9364 0.5285, -0.1333 1.9367 0.5246, -0.1352 1.9362 0.5263, -0.1333 1.9363 0.5246, -0.1308 1.9366 0.5209, -0.1308 1.937 0.5209, -0.1293 1.937 0.5166, -0.1293 1.9374 0.5166, -0.1288 1.9374 0.512, -0.1288 1.9378 0.5121, -0.1294 1.9379 0.5064, -0.1294 1.9383 0.5064, -0.1309 1.9383 0.5023, -0.1309 1.9387 0.5024, -0.1325 1.9385 0.4998, -0.1325 1.9389 0.4999, -0.1491 1.9394 0.4895, -0.1491 1.9398 0.4895, -0.1411 1.9395 0.4933, -0.1347 1.9387 0.4975, -0.1347 1.9391 0.4975, -0.1352 1.9387 0.4972, -0.1411 1.9391 0.4933, -0.158 1.9397 0.4857, -0.158 1.9401 0.4858, -0.1633 1.94 0.4825, -0.1633 1.9404 0.4826, -0.165 1.9402 0.4808, -0.165 1.9405 0.4808, -0.166 1.9403 0.479, -0.166 1.9407 0.479, -0.1666 1.9405 0.4768, -0.1666 1.9409 0.4769, -0.1667 1.9406 0.4752, -0.1667 1.941 0.4752, -0.1664 1.9409 0.4726, -0.1664 1.9413 0.4726, -0.1657 1.941 0.4707, -0.1657 1.9414 0.4707, -0.1645 1.9412 0.4689, -0.1645 1.9416 0.469, -0.163 1.9413 0.4676, -0.163 1.9417 0.4676, -0.1617 1.9414 0.4668, -0.1617 1.9418 0.4669, -0.1582 1.9415 0.4656, -0.1582 1.9419 0.4656, -0.1512 1.9415 0.4648, -0.1512 1.9419 0.4649, -0.2483 1.9361 0.532, -0.2623 1.9361 0.5319, -0.2483 1.9357 0.532, -0.2623 1.9357 0.5319, -0.2267 1.9411 0.4742, -0.2267 1.9407 0.4741, -0.2257 1.941 0.4705, -0.2257 1.9414 0.4706, -0.225 1.9413 0.4679, -0.225 1.9417 0.4679, -0.2247 1.9417 0.4679, -0.2247 1.9413 0.4679, -0.2231 1.9411 0.4743, -0.2231 1.9407 0.4743, -0.2033 1.9356 0.5323, -0.2033 1.936 0.5323, -0.2105 1.9375 0.511, -0.1881 1.936 0.5325, -0.1881 1.9356 0.5324, -0.2179 1.9424 0.4553, -0.2179 1.9428 0.4554, -0.2105 1.9407 0.4744, -0.2118 1.9436 0.4414, -0.2118 1.944 0.4414, -0.2173 1.9425 0.4539, -0.2105 1.9438 0.4391, -0.2088 1.9445 0.4361, -0.2088 1.9441 0.4361, -0.2087 1.9441 0.4359, -0.206 1.9447 0.4333, -0.206 1.9443 0.4332, -0.2035 1.9444 0.4317, -0.2035 1.9448 0.4317, -0.2005 1.9445 0.4308, -0.2005 1.9449 0.4308, -0.1979 1.9445 0.4306, -0.1979 1.9449 0.4306, -0.193 1.9445 0.4313, -0.193 1.9449 0.4313, -0.1902 1.9444 0.4322, -0.1902 1.9448 0.4322, -0.1901 1.9458 0.4202, -0.1901 1.9455 0.4202, -0.1958 1.9455 0.4191, -0.1958 1.9459 0.4192, -0.1988 1.9456 0.419, -0.1988 1.9459 0.419, -0.2266 1.9434 0.4435, -0.2266 1.9438 0.4435, -0.2265 1.9438 0.4433, -0.2045 1.9455 0.4196, -0.2045 1.9459 0.4197, -0.2099 1.9453 0.4217, -0.2099 1.9457 0.4217, -0.2105 1.9453 0.4222, -0.2146 1.9454 0.425, -0.2146 1.945 0.425, -0.2149 1.945 0.4253, -0.2149 1.9454 0.4253, -0.2199 1.9445 0.4309, -0.2199 1.9449 0.431, -0.2226 1.9441 0.4359, -0.2265 1.9434 0.4433, -0.2308 1.9425 0.4539, -0.3347 1.9418 0.4667, -0.3346 1.9429 0.4544, -0.3347 1.9414 0.4666, -0.3346 1.9425 0.4543, -0.2905 1.9414 0.467, -0.2905 1.9418 0.467, -0.3121 1.9414 0.4668, -0.2907 1.9386 0.5033, -0.2907 1.9382 0.5032, -0.3295 1.9382 0.503, -0.3295 1.9386 0.503, -0.3121 1.9382 0.5031, -0.3295 1.9375 0.5154, -0.3295 1.9371 0.5153, -0.2908 1.9371 0.5156, -0.2908 1.9375 0.5156, -0.3121 1.9371 0.5154, -0.2911 1.9345 0.5501, -0.2911 1.9341 0.5501, -0.3329 1.9341 0.5498, -0.3329 1.9345 0.5499, -0.3121 1.9341 0.55, -0.3329 1.9334 0.5623, -0.3329 1.933 0.5622, -0.2772 1.933 0.5626, -0.2772 1.9334 0.5627, -0.3121 1.933 0.5624, -0.2764 1.9428 0.4548, -0.2764 1.9424 0.4548, -0.3121 1.9425 0.4545, -0.4226 1.9403 0.484, -0.4172 1.9408 0.4773, -0.427 1.9416 0.4688, -0.4151 1.941 0.4756, -0.4158 1.9423 0.4609, -0.4079 1.9414 0.4709, -0.4035 1.9427 0.4562, -0.3987 1.9417 0.4677, -0.3849 1.9429 0.454, -0.3849 1.9418 0.4663, -0.3551 1.9429 0.4542, -0.3692 1.9418 0.4664, -0.3559 1.9334 0.5621, -0.3698 1.9345 0.5496, -0.3868 1.9335 0.5619, -0.3861 1.9345 0.5495, -0.4033 1.9336 0.5599, -0.4 1.9347 0.5478, -0.4163 1.934 0.5551, -0.4094 1.935 0.5444, -0.4276 1.9347 0.5473, -0.4173 1.9354 0.5391, -0.4313 1.935 0.5437, -0.4208 1.9358 0.5355, -0.438 1.9359 0.5342, -0.4248 1.9363 0.5293, -0.4419 1.9368 0.5239, -0.4277 1.937 0.5211, -0.4436 1.9381 0.5089, -0.4289 1.9381 0.5086, -0.4433 1.9387 0.5021, -0.4285 1.9387 0.5018, -0.4406 1.9398 0.4895, -0.4264 1.9396 0.492, -0.4352 1.9408 0.4783, -0.3849 1.9425 0.454, -0.3551 1.9425 0.4542, -0.4035 1.9423 0.4561, -0.4158 1.9419 0.4609, -0.427 1.9412 0.4688, -0.4352 1.9404 0.4783, -0.4406 1.9394 0.4894, -0.4433 1.9383 0.502, -0.4436 1.9377 0.5089, -0.4419 1.9364 0.5239, -0.438 1.9355 0.5342, -0.4313 1.9347 0.5436, -0.4276 1.9343 0.5473, -0.4163 1.9337 0.5551, -0.4033 1.9332 0.5599, -0.3868 1.9331 0.5618, -0.3559 1.933 0.5621, -0.3861 1.9341 0.5494, -0.3698 1.9341 0.5496, -0.3692 1.9414 0.4664, -0.3849 1.9414 0.4663, -0.4172 1.9405 0.4773, -0.4151 1.9406 0.4755, -0.4079 1.941 0.4709, -0.3987 1.9413 0.4677, -0.4289 1.9377 0.5086, -0.4285 1.9383 0.5018, -0.4264 1.9392 0.4919, -0.4226 1.9399 0.4839, -0.4173 1.9351 0.5391, -0.4208 1.9354 0.5355, -0.4248 1.9359 0.5292, -0.4277 1.9366 0.521, -0.4 1.9343 0.5478, -0.4094 1.9346 0.5444
            ]
        }
        coordIndex [
            0,1,2,-1,3,4,5,-1,3,5,6,-1,6,5,7,-1,6,7,2,-1,2,7,8,-1,2,8,0,-1,9,1,10,-1,10,1,0,-1,9,10,11,-1,9,11,12,-1,12,11,13,-1,12,13,14,-1,14,13,15,-1,14,15,16,-1,14,16,17,-1,14,17,18,-1,17,19,18,-1,18,19,20,-1,18,20,21,-1,21,20,22,-1,21,22,23,-1,23,22,24,-1,23,24,25,-1,25,24,26,-1,25,26,27,-1,27,26,28,-1,27,28,29,-1,29,28,30,-1,29,30,31,-1,31,30,32,-1,31,32,33,-1,33,32,34,-1,33,34,35,-1,35,34,36,-1,35,36,37,-1,37,36,38,-1,37,38,39,-1,39,38,40,-1,39,40,41,-1,41,40,42,-1,41,42,43,-1,43,42,44,-1,43,44,45,-1,45,44,46,-1,45,46,47,-1,47,46,48,-1,47,48,49,-1,49,48,50,-1,49,50,51,-1,51,50,52,-1,51,52,53,-1,53,52,54,-1,53,54,55,-1,55,54,56,-1,55,56,57,-1,57,56,58,-1,57,58,59,-1,59,58,60,-1,59,60,61,-1,61,60,62,-1,61,62,63,-1,63,62,64,-1,63,64,65,-1,65,64,66,-1,65,66,67,-1,67,66,68,-1,67,68,69,-1,69,68,70,-1,69,70,71,-1,71,70,72,-1,71,72,73,-1,73,72,74,-1,73,74,75,-1,76,75,77,-1,77,75,74,-1,76,77,78,-1,76,78,79,-1,79,78,80,-1,79,80,81,-1,81,80,82,-1,81,82,83,-1,83,82,84,-1,83,84,85,-1,85,84,86,-1,85,86,87,-1,88,87,89,-1,89,87,86,-1,89,90,88,-1,88,90,91,-1,88,91,92,-1,92,91,93,-1,92,93,94,-1,94,93,95,-1,94,95,96,-1,96,95,97,-1,96,97,98,-1,98,97,99,-1,98,99,100,-1,100,99,101,-1,100,101,102,-1,103,104,105,-1,102,101,106,-1,102,106,107,-1,107,106,108,-1,107,108,105,-1,105,108,109,-1,105,109,103,-1,104,103,110,-1,104,110,111,-1,111,110,112,-1,111,112,113,-1,113,112,114,-1,113,114,115,-1,115,114,116,-1,115,116,117,-1,117,116,118,-1,117,118,119,-1,119,118,120,-1,119,120,121,-1,121,120,122,-1,121,122,123,-1,123,122,124,-1,123,124,125,-1,125,124,126,-1,125,126,127,-1,127,126,128,-1,127,128,129,-1,129,128,130,-1,129,130,131,-1,131,130,132,-1,131,132,133,-1,133,132,134,-1,133,134,135,-1,135,134,4,-1,135,4,3,-1,59,61,87,-1,87,61,85,-1,85,61,63,-1,85,63,83,-1,125,25,27,-1,111,43,104,-1,104,43,45,-1,125,27,123,-1,123,27,29,-1,123,29,121,-1,121,29,31,-1,121,31,119,-1,119,31,33,-1,119,33,117,-1,117,33,35,-1,117,35,115,-1,115,35,37,-1,115,37,113,-1,113,37,39,-1,113,39,111,-1,111,39,41,-1,111,41,43,-1,25,125,23,-1,23,125,127,-1,23,127,21,-1,14,3,12,-1,12,3,6,-1,12,6,9,-1,9,6,2,-1,9,2,1,-1,63,65,83,-1,83,65,67,-1,83,67,81,-1,81,67,69,-1,81,69,79,-1,79,69,71,-1,79,71,76,-1,76,71,73,-1,76,73,75,-1,127,129,21,-1,21,129,131,-1,21,131,18,-1,18,131,133,-1,18,133,14,-1,14,133,135,-1,14,135,3,-1,87,88,59,-1,59,88,92,-1,59,92,57,-1,57,92,94,-1,57,94,55,-1,55,94,96,-1,55,96,53,-1,53,96,98,-1,53,98,51,-1,51,98,100,-1,51,100,49,-1,49,100,102,-1,49,102,47,-1,47,102,107,-1,47,107,45,-1,45,107,105,-1,45,105,104,-1,136,137,138,-1,138,137,139,-1,140,136,141,-1,141,136,138,-1,140,141,142,-1,140,142,143,-1,143,142,144,-1,143,144,145,-1,146,145,147,-1,147,145,144,-1,148,146,149,-1,149,146,147,-1,150,151,152,-1,152,151,148,-1,152,148,149,-1,153,151,154,-1,154,151,150,-1,155,156,157,-1,157,156,153,-1,157,153,154,-1,158,159,160,-1,160,159,156,-1,160,156,155,-1,159,158,161,-1,159,161,162,-1,161,163,162,-1,162,163,164,-1,162,164,165,-1,164,166,165,-1,165,166,167,-1,165,167,168,-1,168,167,169,-1,168,169,170,-1,170,169,171,-1,170,171,172,-1,172,171,173,-1,172,173,174,-1,174,173,175,-1,174,175,176,-1,177,176,178,-1,178,176,175,-1,177,178,179,-1,177,179,180,-1,180,179,181,-1,180,181,182,-1,183,184,185,-1,182,181,186,-1,182,186,187,-1,187,186,188,-1,187,188,189,-1,189,188,190,-1,189,190,191,-1,190,192,191,-1,191,192,193,-1,191,193,194,-1,194,193,195,-1,194,195,196,-1,196,195,197,-1,196,197,185,-1,185,197,198,-1,185,198,183,-1,139,137,199,-1,199,137,184,-1,199,184,183,-1,143,145,184,-1,137,136,184,-1,184,136,140,-1,184,140,143,-1,151,153,148,-1,148,153,156,-1,148,156,146,-1,145,146,184,-1,184,146,156,-1,184,156,185,-1,185,156,159,-1,185,159,196,-1,196,159,162,-1,196,162,194,-1,194,162,165,-1,176,177,174,-1,174,177,180,-1,174,180,172,-1,172,180,182,-1,172,182,170,-1,170,182,187,-1,170,187,168,-1,168,187,189,-1,168,189,165,-1,165,189,191,-1,165,191,194,-1,200,201,202,-1,202,201,203,-1,204,205,206,-1,206,205,200,-1,206,200,202,-1,207,205,208,-1,208,205,204,-1,209,210,211,-1,211,210,207,-1,211,207,208,-1,212,210,213,-1,213,210,209,-1,214,215,216,-1,216,215,212,-1,216,212,213,-1,217,215,218,-1,218,215,214,-1,219,220,221,-1,221,220,217,-1,221,217,218,-1,222,220,223,-1,223,220,219,-1,224,225,226,-1,226,225,222,-1,226,222,223,-1,227,225,228,-1,228,225,224,-1,203,201,229,-1,229,201,227,-1,229,227,228,-1,227,201,200,-1,200,205,227,-1,227,205,207,-1,227,207,225,-1,220,222,217,-1,217,222,225,-1,217,225,215,-1,215,225,207,-1,215,207,212,-1,212,207,210,-1,230,231,232,-1,232,231,233,-1,232,233,234,-1,234,233,235,-1,234,235,236,-1,236,235,237,-1,236,237,238,-1,238,237,239,-1,238,239,240,-1,240,239,241,-1,240,241,242,-1,242,241,243,-1,242,243,244,-1,244,243,245,-1,244,245,246,-1,246,245,247,-1,246,247,248,-1,248,247,249,-1,248,249,250,-1,250,249,251,-1,250,251,252,-1,252,251,253,-1,252,253,254,-1,254,253,255,-1,254,255,256,-1,256,255,257,-1,256,257,258,-1,258,257,259,-1,258,259,260,-1,260,259,261,-1,260,261,262,-1,262,261,263,-1,262,263,264,-1,264,263,230,-1,264,230,232,-1,238,240,265,-1,265,240,266,-1,238,265,267,-1,238,267,236,-1,236,267,268,-1,236,268,234,-1,234,268,269,-1,234,269,232,-1,232,269,270,-1,232,270,264,-1,264,270,271,-1,264,271,262,-1,262,271,272,-1,262,272,260,-1,260,272,273,-1,260,273,258,-1,258,273,274,-1,258,274,256,-1,256,274,275,-1,256,275,254,-1,254,275,276,-1,254,276,252,-1,252,276,277,-1,252,277,250,-1,250,277,278,-1,250,278,248,-1,248,278,279,-1,248,279,246,-1,246,279,280,-1,246,280,244,-1,242,244,281,-1,281,244,280,-1,240,242,266,-1,266,242,281,-1,245,243,282,-1,282,243,283,-1,243,241,283,-1,283,241,284,-1,241,239,284,-1,284,239,285,-1,231,286,287,-1,231,287,233,-1,233,287,288,-1,233,288,235,-1,235,288,289,-1,235,289,237,-1,237,289,285,-1,237,285,239,-1,259,290,291,-1,259,291,261,-1,261,291,292,-1,261,292,263,-1,263,292,293,-1,263,293,230,-1,230,293,286,-1,230,286,231,-1,251,294,295,-1,251,295,253,-1,253,295,296,-1,253,296,255,-1,255,296,297,-1,255,297,257,-1,257,297,290,-1,257,290,259,-1,245,282,298,-1,245,298,247,-1,247,298,299,-1,247,299,249,-1,249,299,294,-1,249,294,251,-1,
        ]
    }
}
Shape{
    appearance Appearance {
        material  Material 	{
            diffuseColor 0.20784313725490197 0.20784313725490197 0.20784313725490197
            specularColor 0.01568627450980392 0.01568627450980392 0.01568627450980392
            ambientIntensity 0.298
            transparency 0.0
            shininess 0.5
        }
    }
    geometry IndexedFaceSet {
        ccw TRUE
        solid FALSE
        coord DEF co Coordinate {
            point [
                -0.3698 1.9341 0.5496, -0.3692 1.9414 0.4664, -0.3861 1.9341 0.5494, -0.3849 1.9414 0.4663, -0.3987 1.9413 0.4677, -0.4079 1.941 0.4709, -0.4151 1.9406 0.4755, -0.4172 1.9405 0.4773, -0.4226 1.9399 0.4839, -0.4264 1.9392 0.4919, -0.4285 1.9383 0.5018, -0.4289 1.9377 0.5086, -0.4277 1.9366 0.521, -0.4248 1.9359 0.5292, -0.4208 1.9354 0.5355, -0.4173 1.9351 0.5391, -0.4 1.9343 0.5478, -0.4094 1.9346 0.5444
            ]
        }
        coordIndex [
            0,1,2,-1,2,1,3,-1,2,3,4,-1,4,5,2,-1,2,5,6,-1,2,6,7,-1,7,8,2,-1,2,8,9,-1,2,9,10,-1,10,11,2,-1,2,11,12,-1,2,12,13,-1,13,14,2,-1,2,14,15,-1,2,15,16,-1,16,15,17,-1,
        ]
    }
}
Shape{
    appearance Appearance {
        material  Material 	{
            diffuseColor 1.0 1.0 1.0
            specularColor 0.5019607843137255 0.5019607843137255 0.5019607843137255
            ambientIntensity 1.0
            transparency 0.0
            shininess 0.5
        }
    }
    geometry IndexedFaceSet {
        ccw TRUE
        solid FALSE
        coord DEF co Coordinate {
            point [
                -0.4798 1.9393 0.495, -0.4963 1.9354 0.5398, -0.4913 1.9335 0.5611, -0.4493 1.9429 0.4536, -0.4647 1.9429 0.4535, -0.4753 1.9404 0.4829, -0.4973 1.9351 0.543, -0.4982 1.9347 0.5473, -0.5062 1.9335 0.561, -0.4985 1.9347 0.5473, -0.4993 1.9351 0.5427, -0.5001 1.9354 0.5397, -0.5162 1.9393 0.4948, -0.5467 1.943 0.4529, -0.5312 1.943 0.453, -0.5204 1.9404 0.4826, -0.5062 1.9331 0.561, -0.5463 1.9425 0.4539, -0.5467 1.9426 0.4528, -0.4913 1.9331 0.5611, -0.4494 1.9425 0.4539, -0.4493 1.9425 0.4535, -0.4647 1.9425 0.4534, -0.4753 1.94 0.4829, -0.4649 1.9425 0.4539, -0.5204 1.94 0.4825, -0.5309 1.9425 0.4539, -0.5312 1.9426 0.453, -0.4798 1.9389 0.495, -0.5162 1.9389 0.4948, -0.5001 1.935 0.5397, -0.4985 1.9343 0.5473, -0.4993 1.9347 0.5427, -0.4982 1.9343 0.5473, -0.4963 1.935 0.5397, -0.4973 1.9347 0.5429
            ]
        }
        coordIndex [
            0,1,2,-1,3,4,5,-1,1,6,2,-1,2,6,7,-1,2,7,8,-1,8,7,9,-1,8,9,10,-1,10,11,8,-1,8,11,12,-1,8,12,13,-1,14,13,15,-1,15,13,12,-1,15,12,5,-1,5,12,0,-1,5,0,3,-1,3,0,2,-1,16,8,17,-1,17,8,13,-1,17,13,18,-1,2,8,19,-1,19,8,16,-1,2,19,3,-1,3,19,20,-1,3,20,21,-1,4,3,22,-1,22,3,21,-1,23,5,24,-1,24,5,4,-1,24,4,22,-1,15,5,25,-1,25,5,23,-1,15,25,14,-1,14,25,26,-1,14,26,27,-1,13,14,18,-1,18,14,27,-1,0,12,28,-1,28,12,29,-1,12,11,29,-1,29,11,30,-1,9,31,32,-1,9,32,10,-1,10,32,30,-1,10,30,11,-1,9,7,31,-1,31,7,33,-1,1,34,35,-1,1,35,6,-1,6,35,33,-1,6,33,7,-1,1,0,34,-1,34,0,28,-1,
        ]
    }
}
Shape{
    appearance Appearance {
        material  Material 	{
            diffuseColor 0.20784313725490197 0.20784313725490197 0.20784313725490197
            specularColor 0.01568627450980392 0.01568627450980392 0.01568627450980392
            ambientIntensity 0.298
            transparency 0.0
            shininess 0.5
        }
    }
    geometry IndexedFaceSet {
        ccw TRUE
        solid FALSE
        coord DEF co Coordinate {
            point [
                -0.4985 1.9343 0.5473, -0.4982 1.9343 0.5473, -0.4993 1.9347 0.5427, -0.4973 1.9347 0.5429, -0.5001 1.935 0.5397, -0.4963 1.935 0.5397, -0.5162 1.9389 0.4948, -0.4798 1.9389 0.495
            ]
        }
        coordIndex [
            0,1,2,-1,2,1,3,-1,2,3,4,-1,4,3,5,-1,4,5,6,-1,6,5,7,-1,
        ]
    }
}
Shape{
    appearance Appearance {
        material  Material 	{
            diffuseColor 1.0 1.0 1.0
            specularColor 0.5019607843137255 0.5019607843137255 0.5019607843137255
            ambientIntensity 1.0
            transparency 0.0
            shininess 0.5
        }
    }
    geometry IndexedFaceSet {
        ccw TRUE
        solid FALSE
        coord DEF co Coordinate {
            point [
                0.5018 1.9437 0.445, 0.4905 1.9449 0.4309, 0.5082 1.9377 0.5129, 0.2508 1.9346 0.5486, 0.2744 1.931 0.5895, 0.378 1.9357 0.5365, 0.4233 1.9379 0.5114, 0.4304 1.9376 0.514, 0.4366 1.9376 0.5147, 0.359 1.9395 0.4926, 0.407 1.9399 0.4883, 0.3591 1.9402 0.485, 0.4071 1.9405 0.4808, 0.4171 1.9382 0.5072, 0.4121 1.9387 0.5017, 0.4088 1.9393 0.4954, 0.5249 1.9368 0.5233, 0.5235 1.9418 0.4661, 0.5094 1.9422 0.4615, 0.4261 1.9334 0.5624, 0.4355 1.9334 0.563, 0.4497 1.9378 0.5118, 0.2249 1.928 0.6244, 0.2187 1.928 0.6243, 0.1869 1.9244 0.6655, 0.2041 1.9282 0.6224, 0.1816 1.9245 0.6637, 0.1907 1.9286 0.6172, 0.1589 1.9256 0.6518, 0.1384 1.9272 0.6338, 0.4413 1.9256 0.6512, 0.4357 1.9259 0.6481, 0.4591 1.921 0.7043, 0.425 1.924 0.6703, 0.4432 1.9194 0.7225, 0.4081 1.9221 0.6911, 0.425 1.9181 0.7378, 0.3867 1.9208 0.707, 0.4063 1.9171 0.7492, 0.4568 1.9422 0.4625, 0.4507 1.9425 0.4582, 0.4755 1.9459 0.4194, 0.4436 1.9428 0.4556, 0.4076 1.9338 0.5576, 0.4539 1.9335 0.5609, 0.4709 1.9341 0.5545, 0.4559 1.9382 0.5078, 0.4867 1.935 0.5437, 0.4611 1.9387 0.5024, 0.4996 1.9363 0.5294, 0.4647 1.9392 0.4958, 0.4666 1.9399 0.4885, 0.2594 1.9425 0.4586, 0.2561 1.9425 0.4582, 0.2496 1.9384 0.5049, 0.3707 1.9159 0.7626, 0.3616 1.9199 0.7172, 0.3324 1.9155 0.767, 0.228 1.9191 0.7264, 0.2538 1.9225 0.6868, 0.203 1.9216 0.6973, 0.2378 1.9244 0.665, 0.2276 1.9267 0.6395, 0.5386 1.9356 0.5375, 0.5707 1.939 0.4987, 0.5506 1.9405 0.4808, 0.5515 1.9299 0.6023, 0.602 1.9308 0.5925, 0.5539 1.9315 0.5838, 0.6024 1.9316 0.5826, 0.5531 1.9326 0.5721, 0.5998 1.9339 0.5566, 0.5478 1.9342 0.5533, 0.59 1.9364 0.5277, 0.5741 1.9386 0.5028, 0.1789 1.9293 0.6088, 0.17 1.9302 0.5988, 0.1232 1.9291 0.6116, 0.1629 1.9314 0.5855, 0.1143 1.9312 0.5881, 0.1594 1.9327 0.5707, 0.1114 1.9332 0.5645, 0.1591 1.9333 0.5641, 0.215 1.9385 0.5047, 0.2107 1.9426 0.4579, 0.2012 1.9382 0.5072, 0.1868 1.9421 0.4625, 0.1876 1.9377 0.5133, 0.1631 1.9412 0.4733, 0.1761 1.9369 0.5225, 0.1427 1.9398 0.4895, 0.175 1.9368 0.5237, 0.1404 1.9396 0.4919, 0.1665 1.9358 0.5356, 0.1259 1.9379 0.5113, 0.1611 1.9346 0.5492, 0.1156 1.9358 0.5353, 0.1115 1.9336 0.5604, 0.4586 1.9251 0.6576, 0.468 1.9209 0.7054, 0.4764 1.9249 0.6599, 0.4768 1.9209 0.7059, 0.4843 1.9249 0.6596, 0.5031 1.9211 0.7033, 0.5033 1.9253 0.6552, 0.5319 1.9219 0.6935, 0.5206 1.9261 0.6463, 0.558 1.9234 0.6767, 0.534 1.9271 0.6345, 0.5656 1.924 0.6697, 0.5448 1.9284 0.6193, 0.5822 1.9258 0.6496, 0.5955 1.9281 0.6226, 0.4429 1.9376 0.5141, 0.3913 1.9346 0.5488, 0.2781 1.9402 0.4844, 0.2783 1.9404 0.4821, 0.2535 1.9384 0.5057, 0.3359 1.9195 0.721, 0.332 1.9195 0.721, 0.3007 1.9158 0.7635, 0.3079 1.9198 0.7181, 0.2622 1.917 0.7497, 0.2837 1.9206 0.7092, 0.2619 1.9218 0.6946, 0.4617 1.9417 0.468, 0.465 1.9411 0.4744, 0.4667 1.9405 0.4814, 0.2725 1.9418 0.4666, 0.2696 1.942 0.4637, 0.4578 1.9466 0.4119, 0.4396 1.9468 0.4089, 0.4371 1.9428 0.4549, 0.4366 1.9468 0.4088, 0.4307 1.9428 0.4555, 0.418 1.9467 0.411, 0.4239 1.9426 0.4577, 0.4008 1.9461 0.4174, 0.4179 1.9422 0.4616, 0.3854 1.9452 0.4279, 0.4127 1.9418 0.467, 0.3733 1.944 0.4412, 0.409 1.9412 0.4735, 0.3641 1.9425 0.4582, 0.3595 1.9409 0.4771, 0.2777 1.9409 0.4767, 0.2757 1.9414 0.4715, 0.2512 1.9384 0.5051, 0.2645 1.9423 0.4604, 0.2542 1.9384 0.5057, 0.2597 1.9384 0.5051, 0.2651 1.9386 0.5032, 0.2699 1.9389 0.5, 0.2739 1.9393 0.4956, 0.2767 1.9397 0.4902, 0.1114 1.9328 0.5645, 0.1143 1.9308 0.588, 0.1329 1.9275 0.6257, 0.1169 1.9302 0.5948, 0.1232 1.9287 0.6116, 0.1384 1.9268 0.6338, 0.1589 1.9252 0.6518, 0.1816 1.9242 0.6636, 0.1869 1.924 0.6655, 0.203 1.9212 0.6973, 0.228 1.9187 0.7264, 0.2411 1.9179 0.7353, 0.2622 1.9166 0.7496, 0.3007 1.9154 0.7635, 0.3324 1.9151 0.767, 0.3707 1.9155 0.7626, 0.4063 1.9167 0.7492, 0.425 1.9177 0.7377, 0.4591 1.9206 0.7042, 0.428 1.9179 0.7353, 0.4432 1.919 0.7224, 0.468 1.9205 0.7054, 0.4768 1.9205 0.7059, 0.5031 1.9207 0.7033, 0.5319 1.9215 0.6935, 0.558 1.923 0.6766, 0.5656 1.9236 0.6697, 0.6024 1.9313 0.5825, 0.5822 1.9254 0.6496, 0.594 1.9275 0.6257, 0.5955 1.9277 0.6226, 0.6015 1.9302 0.5948, 0.602 1.9304 0.5924, 0.5998 1.9335 0.5565, 0.59 1.936 0.5277, 0.5741 1.9382 0.5027, 0.5707 1.9386 0.4987, 0.5506 1.9402 0.4808, 0.5235 1.9414 0.466, 0.5094 1.9418 0.4615, 0.5059 1.9425 0.4539, 0.4945 1.9441 0.4359, 0.5018 1.9433 0.445, 0.4905 1.9445 0.4308, 0.4755 1.9455 0.4194, 0.4578 1.9462 0.4118, 0.4396 1.9464 0.4089, 0.4366 1.9465 0.4088, 0.418 1.9463 0.4109, 0.3665 1.9425 0.4539, 0.4008 1.9457 0.4174, 0.3854 1.9448 0.4279, 0.3781 1.9441 0.4359, 0.3733 1.9436 0.4411, 0.3641 1.9421 0.4582, 0.3595 1.9405 0.4771, 0.3591 1.9398 0.4849, 0.359 1.9391 0.4926, 0.2508 1.9342 0.5486, 0.2744 1.9306 0.5894, 0.378 1.9353 0.5365, 0.3913 1.9342 0.5487, 0.4076 1.9334 0.5576, 0.4261 1.933 0.5623, 0.4355 1.933 0.5629, 0.4539 1.9331 0.5608, 0.4709 1.9337 0.5545, 0.4867 1.9346 0.5437, 0.4996 1.9359 0.5293, 0.5082 1.9373 0.5128, 0.5249 1.9364 0.5232, 0.5386 1.9352 0.5374, 0.5478 1.9338 0.5532, 0.5531 1.9322 0.572, 0.5539 1.9311 0.5837, 0.5525 1.9302 0.5948, 0.5515 1.9295 0.6022, 0.5448 1.928 0.6193, 0.5403 1.9275 0.6257, 0.534 1.9267 0.6345, 0.5206 1.9257 0.6463, 0.5033 1.9249 0.6552, 0.4843 1.9245 0.6595, 0.4764 1.9245 0.6599, 0.4586 1.9247 0.6576, 0.4413 1.9252 0.6512, 0.4357 1.9255 0.6481, 0.425 1.9236 0.6703, 0.4081 1.9218 0.6911, 0.3867 1.9204 0.7069, 0.3616 1.9195 0.7172, 0.3359 1.9191 0.7209, 0.332 1.9191 0.721, 0.2249 1.9276 0.6243, 0.2251 1.9275 0.6257, 0.2276 1.9263 0.6395, 0.2378 1.924 0.6649, 0.2538 1.9221 0.6868, 0.2619 1.9215 0.6945, 0.2837 1.9202 0.7092, 0.3079 1.9194 0.7181, 0.2187 1.9276 0.6243, 0.2041 1.9278 0.6224, 0.1907 1.9282 0.6172, 0.1789 1.929 0.6088, 0.17 1.9298 0.5987, 0.1679 1.9302 0.5948, 0.1629 1.931 0.5854, 0.1594 1.9323 0.5707, 0.1591 1.9329 0.5641, 0.1611 1.9342 0.5492, 0.1665 1.9354 0.5355, 0.175 1.9364 0.5236, 0.1761 1.9365 0.5225, 0.1876 1.9373 0.5133, 0.2012 1.9378 0.5071, 0.215 1.9381 0.5046, 0.2496 1.938 0.5049, 0.2512 1.938 0.5051, 0.2535 1.938 0.5056, 0.2542 1.938 0.5057, 0.2597 1.938 0.5051, 0.2651 1.9382 0.5031, 0.2699 1.9385 0.4999, 0.2739 1.9389 0.4955, 0.2767 1.9393 0.4902, 0.2781 1.9398 0.4843, 0.2783 1.94 0.4821, 0.2777 1.9405 0.4767, 0.2757 1.941 0.4715, 0.2725 1.9414 0.4666, 0.2696 1.9416 0.4637, 0.2645 1.9419 0.4604, 0.2594 1.9421 0.4586, 0.2561 1.9421 0.4581, 0.2107 1.9422 0.4578, 0.1868 1.9418 0.4625, 0.1631 1.9408 0.4733, 0.1427 1.9394 0.4894, 0.1404 1.9392 0.4918, 0.1259 1.9375 0.5113, 0.1156 1.9354 0.5352, 0.1115 1.9332 0.5603, 0.4366 1.9372 0.5146, 0.4304 1.9373 0.5139, 0.4233 1.9375 0.5114, 0.4171 1.9378 0.5072, 0.4121 1.9383 0.5017, 0.4088 1.9389 0.4954, 0.407 1.9395 0.4883, 0.4071 1.9402 0.4808, 0.409 1.9408 0.4735, 0.4127 1.9414 0.4669, 0.4179 1.9418 0.4615, 0.4239 1.9422 0.4577, 0.4307 1.9424 0.4554, 0.4371 1.9424 0.4548, 0.4436 1.9424 0.4556, 0.4507 1.9421 0.4582, 0.4568 1.9418 0.4624, 0.4617 1.9413 0.468, 0.465 1.9407 0.4743, 0.4667 1.9401 0.4814, 0.4666 1.9395 0.4885, 0.4647 1.9388 0.4958, 0.4611 1.9383 0.5024, 0.4559 1.9378 0.5078, 0.4497 1.9374 0.5117, 0.4429 1.9372 0.514
            ]
        }
        coordIndex [
            0,1,2,-1,3,4,5,-1,6,3,7,-1,7,3,8,-1,9,10,11,-1,11,10,12,-1,6,13,3,-1,3,13,14,-1,3,14,9,-1,9,14,15,-1,9,15,10,-1,16,17,2,-1,2,17,18,-1,2,18,0,-1,19,20,21,-1,22,23,24,-1,24,23,25,-1,24,25,26,-1,26,25,27,-1,26,27,28,-1,28,27,29,-1,30,31,32,-1,32,31,33,-1,32,33,34,-1,34,33,35,-1,34,35,36,-1,36,35,37,-1,36,37,38,-1,39,1,40,-1,40,1,41,-1,40,41,42,-1,19,21,43,-1,20,44,21,-1,21,44,45,-1,21,45,46,-1,46,45,47,-1,46,47,48,-1,48,47,49,-1,48,49,50,-1,50,49,2,-1,50,2,51,-1,52,53,54,-1,38,37,55,-1,55,37,56,-1,55,56,57,-1,58,59,60,-1,60,59,61,-1,60,61,24,-1,24,61,62,-1,24,62,22,-1,63,64,16,-1,16,64,65,-1,16,65,17,-1,66,67,68,-1,68,67,69,-1,68,69,70,-1,70,69,71,-1,70,71,72,-1,72,71,73,-1,72,73,63,-1,63,73,74,-1,63,74,64,-1,27,75,29,-1,29,75,76,-1,29,76,77,-1,77,76,78,-1,77,78,79,-1,79,78,80,-1,79,80,81,-1,81,80,82,-1,54,53,83,-1,83,53,84,-1,83,84,85,-1,85,84,86,-1,85,86,87,-1,87,86,88,-1,87,88,89,-1,89,88,90,-1,89,90,91,-1,91,90,92,-1,91,92,93,-1,93,92,94,-1,93,94,95,-1,95,94,96,-1,95,96,82,-1,82,96,97,-1,82,97,81,-1,30,32,98,-1,98,32,99,-1,98,99,100,-1,100,99,101,-1,100,101,102,-1,102,101,103,-1,102,103,104,-1,104,103,105,-1,104,105,106,-1,106,105,107,-1,106,107,108,-1,108,107,109,-1,108,109,110,-1,110,109,111,-1,110,111,66,-1,66,111,112,-1,66,112,67,-1,8,3,113,-1,113,3,5,-1,113,5,21,-1,21,5,114,-1,21,114,43,-1,115,116,117,-1,56,118,57,-1,57,118,119,-1,57,119,120,-1,120,119,121,-1,120,121,122,-1,122,121,123,-1,122,123,58,-1,58,123,124,-1,58,124,59,-1,39,125,1,-1,1,125,126,-1,1,126,2,-1,2,126,127,-1,2,127,51,-1,117,128,129,-1,41,130,42,-1,42,130,131,-1,42,131,132,-1,132,131,133,-1,132,133,134,-1,134,133,135,-1,134,135,136,-1,136,135,137,-1,136,137,138,-1,138,137,139,-1,138,139,140,-1,140,139,141,-1,140,141,142,-1,142,141,143,-1,142,143,12,-1,12,143,144,-1,12,144,11,-1,116,145,117,-1,117,145,146,-1,117,146,128,-1,54,147,52,-1,52,147,117,-1,52,117,148,-1,148,117,129,-1,117,149,115,-1,115,149,150,-1,115,150,151,-1,151,152,115,-1,115,152,153,-1,115,153,154,-1,81,155,156,-1,157,29,77,-1,81,156,79,-1,79,156,158,-1,79,158,77,-1,77,158,159,-1,77,159,157,-1,157,160,29,-1,29,160,161,-1,29,161,28,-1,28,161,162,-1,28,162,26,-1,26,162,163,-1,26,163,24,-1,24,163,164,-1,24,164,60,-1,60,164,165,-1,60,165,58,-1,58,165,166,-1,58,166,122,-1,166,167,122,-1,122,167,168,-1,122,168,120,-1,120,168,169,-1,120,169,57,-1,57,169,170,-1,57,170,55,-1,55,170,171,-1,55,171,38,-1,38,171,172,-1,38,172,36,-1,173,32,34,-1,36,172,174,-1,36,174,34,-1,34,174,175,-1,34,175,173,-1,32,173,176,-1,32,176,99,-1,99,176,177,-1,99,177,101,-1,101,177,178,-1,101,178,103,-1,103,178,179,-1,103,179,105,-1,105,179,180,-1,105,180,107,-1,107,180,181,-1,107,181,109,-1,182,69,67,-1,109,181,183,-1,109,183,111,-1,111,183,184,-1,111,184,112,-1,184,185,112,-1,112,185,186,-1,112,186,67,-1,67,186,187,-1,67,187,182,-1,69,182,188,-1,69,188,71,-1,71,188,189,-1,71,189,73,-1,73,189,190,-1,73,190,74,-1,74,190,191,-1,74,191,64,-1,64,191,192,-1,64,192,65,-1,65,192,193,-1,65,193,17,-1,17,193,194,-1,17,194,18,-1,18,194,195,-1,196,1,0,-1,18,195,0,-1,0,195,197,-1,0,197,196,-1,196,198,1,-1,1,198,199,-1,1,199,41,-1,41,199,200,-1,41,200,130,-1,130,200,201,-1,130,201,131,-1,131,201,202,-1,131,202,133,-1,133,202,203,-1,204,143,141,-1,133,203,135,-1,135,203,205,-1,135,205,137,-1,137,205,206,-1,137,206,139,-1,139,206,207,-1,139,207,141,-1,141,207,208,-1,141,208,204,-1,204,209,143,-1,143,209,210,-1,143,210,144,-1,144,210,211,-1,144,211,11,-1,9,11,212,-1,212,11,211,-1,3,9,213,-1,213,9,212,-1,4,3,214,-1,214,3,213,-1,5,4,215,-1,215,4,214,-1,5,215,216,-1,5,216,114,-1,114,216,217,-1,114,217,43,-1,43,217,218,-1,43,218,19,-1,19,218,219,-1,19,219,20,-1,20,219,220,-1,20,220,44,-1,44,220,221,-1,44,221,45,-1,45,221,222,-1,45,222,47,-1,47,222,223,-1,47,223,49,-1,49,223,224,-1,49,224,2,-1,2,224,225,-1,2,225,16,-1,16,225,226,-1,16,226,63,-1,63,226,227,-1,63,227,72,-1,72,227,228,-1,72,228,70,-1,70,228,229,-1,70,229,68,-1,66,68,230,-1,230,68,229,-1,230,231,66,-1,66,231,232,-1,66,232,110,-1,110,232,233,-1,110,233,108,-1,233,234,108,-1,108,234,235,-1,108,235,106,-1,106,235,236,-1,106,236,104,-1,104,236,237,-1,104,237,102,-1,102,237,238,-1,102,238,100,-1,100,238,239,-1,100,239,98,-1,98,239,240,-1,98,240,30,-1,30,240,241,-1,30,241,31,-1,31,241,242,-1,31,242,33,-1,33,242,243,-1,33,243,35,-1,35,243,244,-1,35,244,37,-1,37,244,245,-1,37,245,56,-1,56,245,246,-1,56,246,118,-1,118,246,247,-1,118,247,119,-1,248,22,249,-1,249,22,62,-1,249,62,250,-1,250,62,61,-1,250,61,251,-1,251,61,59,-1,251,59,252,-1,252,59,124,-1,252,124,253,-1,253,124,123,-1,253,123,254,-1,254,123,121,-1,254,121,255,-1,255,121,119,-1,255,119,247,-1,23,22,256,-1,256,22,248,-1,23,256,257,-1,23,257,25,-1,25,257,258,-1,25,258,27,-1,27,258,259,-1,27,259,75,-1,75,259,260,-1,75,260,76,-1,76,260,261,-1,76,261,78,-1,261,262,78,-1,78,262,263,-1,78,263,80,-1,80,263,264,-1,80,264,82,-1,82,264,265,-1,82,265,95,-1,95,265,266,-1,95,266,93,-1,93,266,267,-1,93,267,91,-1,91,267,268,-1,91,268,89,-1,89,268,269,-1,89,269,87,-1,87,269,270,-1,87,270,85,-1,85,270,271,-1,85,271,83,-1,54,83,272,-1,272,83,271,-1,54,272,273,-1,54,273,147,-1,147,273,274,-1,147,274,117,-1,117,274,275,-1,117,275,149,-1,149,275,276,-1,149,276,150,-1,150,276,277,-1,150,277,151,-1,151,277,278,-1,151,278,152,-1,152,278,279,-1,152,279,153,-1,153,279,280,-1,153,280,154,-1,154,280,281,-1,154,281,115,-1,115,281,282,-1,115,282,116,-1,116,282,283,-1,116,283,145,-1,145,283,284,-1,145,284,146,-1,146,284,285,-1,146,285,128,-1,128,285,286,-1,128,286,129,-1,129,286,287,-1,129,287,148,-1,148,287,288,-1,148,288,52,-1,52,288,289,-1,52,289,53,-1,84,53,290,-1,290,53,289,-1,84,290,291,-1,84,291,86,-1,86,291,292,-1,86,292,88,-1,88,292,293,-1,88,293,90,-1,90,293,294,-1,90,294,92,-1,92,294,295,-1,92,295,94,-1,94,295,296,-1,94,296,96,-1,96,296,297,-1,96,297,97,-1,97,297,155,-1,97,155,81,-1,8,298,299,-1,8,299,7,-1,7,299,300,-1,7,300,6,-1,6,300,301,-1,6,301,13,-1,13,301,302,-1,13,302,14,-1,14,302,303,-1,14,303,15,-1,15,303,304,-1,15,304,10,-1,10,304,305,-1,10,305,12,-1,12,305,306,-1,12,306,142,-1,142,306,307,-1,142,307,140,-1,140,307,308,-1,140,308,138,-1,138,308,309,-1,138,309,136,-1,136,309,310,-1,136,310,134,-1,134,310,311,-1,134,311,132,-1,132,311,312,-1,132,312,42,-1,42,312,313,-1,42,313,40,-1,40,313,314,-1,40,314,39,-1,39,314,315,-1,39,315,125,-1,125,315,316,-1,125,316,126,-1,126,316,317,-1,126,317,127,-1,127,317,318,-1,127,318,51,-1,51,318,319,-1,51,319,50,-1,50,319,320,-1,50,320,48,-1,48,320,321,-1,48,321,46,-1,46,321,322,-1,46,322,21,-1,21,322,323,-1,21,323,113,-1,113,323,298,-1,113,298,8,-1,
        ]
    }
}
Shape{
    appearance Appearance {
        material  Material 	{
            diffuseColor 0.20784313725490197 0.20784313725490197 0.20784313725490197
            specularColor 0.01568627450980392 0.01568627450980392 0.01568627450980392
            ambientIntensity 0.298
            transparency 0.0
            shininess 0.5
        }
    }
    geometry IndexedFaceSet {
        ccw TRUE
        solid FALSE
        coord DEF co Coordinate {
            point [
                0.4429 1.9372 0.514, 0.4371 1.9424 0.4548, 0.4366 1.9372 0.5146, 0.4307 1.9424 0.4554, 0.4304 1.9373 0.5139, 0.4611 1.9383 0.5024, 0.4647 1.9388 0.4958, 0.4666 1.9395 0.4885, 0.465 1.9407 0.4743, 0.4617 1.9413 0.468, 0.4568 1.9418 0.4624, 0.4088 1.9389 0.4954, 0.4121 1.9383 0.5017, 0.4179 1.9418 0.4615, 0.4171 1.9378 0.5072, 0.4507 1.9421 0.4582, 0.4436 1.9424 0.4556, 0.409 1.9408 0.4735, 0.4071 1.9402 0.4808, 0.407 1.9395 0.4883, 0.4239 1.9422 0.4577, 0.4233 1.9375 0.5114, 0.4667 1.9401 0.4814, 0.4497 1.9374 0.5117, 0.4559 1.9378 0.5078, 0.4127 1.9414 0.4669
            ]
        }
        coordIndex [
            0,1,2,-1,2,1,3,-1,2,3,4,-1,5,6,7,-1,8,9,0,-1,0,9,10,-1,11,12,13,-1,13,12,14,-1,10,15,0,-1,0,15,16,-1,0,16,1,-1,17,18,19,-1,3,20,4,-1,4,20,13,-1,4,13,21,-1,21,13,14,-1,8,0,22,-1,22,0,23,-1,22,23,7,-1,7,23,24,-1,7,24,5,-1,11,13,19,-1,19,13,25,-1,19,25,17,-1,
        ]
    }
}