<svg xmlns="http://www.w3.org/2000/svg" xmlns:xlink="http://www.w3.org/1999/xlink" xml:lang="en" height="362.04pt" width="689.504pt" viewBox="-271.102 -309.2 689.504 362.04"><path d="M 243.0 -46.8 a 4.5 4.5 0 1 1 9.0 0.0" style="stroke:black;fill:none;stroke-width:2.0;stroke-dasharray:-;" /><path d="M 252.0 -46.8 a 4.5 4.5 0 1 1 9.0 0.0" style="stroke:black;fill:none;stroke-width:2.0;stroke-dasharray:-;" /><path d="M 261.0 -46.8 a 4.5 4.5 0 1 1 9.0 0.0" style="stroke:black;fill:none;stroke-width:2.0;stroke-dasharray:-;" /><path d="M 270.0 -46.8 a 4.5 4.5 0 1 1 9.0 0.0" style="stroke:black;fill:none;stroke-width:2.0;stroke-dasharray:-;" /><polygon points="207.0,-4.500000000000008 216.0,-17.1 225.0,-4.500000000000008 " style="stroke:black;fill:none;stroke-width:2.0;stroke-dasharray:-;stroke-linecap:round;stroke-linejoin:round;" /><path d="M 0.0,-0.0 L 162.0,-0.0 L 162.0,-129.6 L 0.0,-129.6 L 0.0,-0.0" style="stroke:black;fill:none;stroke-width:2.0;stroke-dasharray:-;stroke-linecap:round;stroke-linejoin:round;" /><path d="M 0.0,-28.8 L -36.0,-28.8" style="stroke:black;fill:none;stroke-width:2.0;stroke-dasharray:-;stroke-linecap:round;stroke-linejoin:round;" /><path d="M 0.0,-64.8 L -36.0,-64.8" style="stroke:black;fill:none;stroke-width:2.0;stroke-dasharray:-;stroke-linecap:round;stroke-linejoin:round;" /><path d="M 0.0,-100.8 L -36.0,-100.8" style="stroke:black;fill:none;stroke-width:2.0;stroke-dasharray:-;stroke-linecap:round;stroke-linejoin:round;" /><path d="M 162.0,-46.800000000000004 L 198.0,-46.800000000000004" style="stroke:black;fill:none;stroke-width:2.0;stroke-dasharray:-;stroke-linecap:round;stroke-linejoin:round;" /><path d="M 162.0,-82.8 L 198.0,-82.8" style="stroke:black;fill:none;stroke-width:2.0;stroke-dasharray:-;stroke-linecap:round;stroke-linejoin:round;" /><path d="M -36.0,-28.8 L -36.0,-10.8 L -36.00000000000001,7.199999999999998" style="stroke:black;fill:none;stroke-width:2.0;stroke-dasharray:-;stroke-linecap:round;stroke-linejoin:round;" /><path d="M -36.00000000000001,7.199999999999998 L -36.00000000000001,21.599999999999998 L -45.00000000000001,21.599999999999998 L -27.000000000000007,21.599999999999998 M -42.30000000000001,25.919999999999998 L -29.700000000000006,25.919999999999998 M -37.80000000000001,30.24 L -34.2,30.24" style="stroke:black;fill:none;stroke-width:2.0;stroke-dasharray:-;stroke-linecap:round;stroke-linejoin:round;" /><path d="M -234.0,-100.8 L -225.0,-100.8 L -216.0,-100.8" style="stroke:black;fill:none;stroke-width:2.0;stroke-dasharray:-;stroke-linecap:round;stroke-linejoin:round;" /><path d="M -216.0,-100.8 L -180.0,-100.8 L -144.0,-100.8" style="stroke:black;fill:none;stroke-width:2.0;stroke-dasharray:-;stroke-linecap:round;stroke-linejoin:round;" /><path d="M -144.0,-100.8 L -108.0,-100.8 L -72.0,-100.8" style="stroke:black;fill:none;stroke-width:2.0;stroke-dasharray:-;stroke-linecap:round;stroke-linejoin:round;" /><path d="M -72.0,-100.8 L -54.0,-100.8 L -36.0,-100.8" style="stroke:black;fill:none;stroke-width:2.0;stroke-dasharray:-;stroke-linecap:round;stroke-linejoin:round;" /><path d="M -36.0,-64.8 L -54.0,-64.8 L -72.0,-64.80000000000001" style="stroke:black;fill:none;stroke-width:2.0;stroke-dasharray:-;stroke-linecap:round;stroke-linejoin:round;" /><path d="M -72.0,-64.80000000000001 L -72.0,-46.80000000000001 L -72.0,-28.80000000000001" style="stroke:black;fill:none;stroke-width:2.0;stroke-dasharray:-;stroke-linecap:round;stroke-linejoin:round;" /><path d="M -72.0,-28.80000000000001 L -72.0,-14.40000000000001 L -81.0,-14.40000000000001 L -63.0,-14.40000000000001 M -78.3,-10.080000000000009 L -65.7,-10.080000000000009 M -73.8,-5.760000000000009 L -70.2,-5.760000000000009" style="stroke:black;fill:none;stroke-width:2.0;stroke-dasharray:-;stroke-linecap:round;stroke-linejoin:round;" /><path d="M -144.0,-100.8 L -144.0,-68.03999999999999 M -135.0,-68.03999999999999 L -153.0,-68.03999999999999 M -135.0,-61.55999999999999 L -153.0,-61.55999999999999 M -144.0,-61.55999999999999 L -144.0,-28.799999999999994" style="stroke:black;fill:none;stroke-width:2.0;stroke-dasharray:-;stroke-linecap:round;stroke-linejoin:round;" /><path d="M -144.0,-28.799999999999994 L -144.0,-14.399999999999993 L -153.0,-14.399999999999993 L -135.0,-14.399999999999993 M -150.29999999999998,-10.079999999999993 L -137.70000000000002,-10.079999999999993 M -145.79999999999998,-5.759999999999993 L -142.20000000000002,-5.759999999999993" style="stroke:black;fill:none;stroke-width:2.0;stroke-dasharray:-;stroke-linecap:round;stroke-linejoin:round;" /><path d="M -216.0,-100.8 L -216.0,-68.03999999999999 M -207.0,-68.03999999999999 L -225.0,-68.03999999999999 M -207.0,-61.55999999999999 L -225.0,-61.55999999999999 M -216.0,-61.55999999999999 L -216.0,-28.799999999999994" style="stroke:black;fill:none;stroke-width:2.0;stroke-dasharray:-;stroke-linecap:round;stroke-linejoin:round;" /><path d="M -216.0,-28.799999999999994 L -216.0,-14.399999999999993 L -225.0,-14.399999999999993 L -207.0,-14.399999999999993 M -222.29999999999998,-10.079999999999993 L -209.70000000000002,-10.079999999999993 M -217.79999999999998,-5.759999999999993 L -214.20000000000002,-5.759999999999993" style="stroke:black;fill:none;stroke-width:2.0;stroke-dasharray:-;stroke-linecap:round;stroke-linejoin:round;" /><path d="M 198.0,-46.800000000000004 L 207.0,-46.800000000000004 L 216.0,-46.800000000000004" style="stroke:black;fill:none;stroke-width:2.0;stroke-dasharray:-;stroke-linecap:round;stroke-linejoin:round;" /><path d="M 216.0,-46.800000000000004 L 243.0,-46.800000000000004 M 279.0,-46.800000000000004 L 306.0,-46.800000000000004" style="stroke:black;fill:none;stroke-width:2.0;stroke-dasharray:-;stroke-linecap:round;stroke-linejoin:round;" /><path d="M 306.0,-46.800000000000004 L 324.0,-46.800000000000004 L 342.0,-46.800000000000004" style="stroke:black;fill:none;stroke-width:2.0;stroke-dasharray:-;stroke-linecap:round;stroke-linejoin:round;" /><path d="M 342.0,-46.800000000000004 L 360.0,-46.800000000000004 L 378.0,-46.800000000000004" style="stroke:black;fill:none;stroke-width:2.0;stroke-dasharray:-;stroke-linecap:round;stroke-linejoin:round;" /><path d="M 342.0,-46.800000000000004 L 342.0,-118.8 L 342.0,-190.79999999999998" style="stroke:black;fill:none;stroke-width:2.0;stroke-dasharray:-;stroke-linecap:round;stroke-linejoin:round;" /><path d="M 342.0,-190.79999999999998 L 300.59999999999997,-190.79999999999998 L 298.5,-184.5 L 294.3,-197.1 L 290.1,-184.5 L 285.9,-197.1 L 281.7,-184.5 L 277.5,-197.1 L 275.40000000000003,-190.79999999999998 L 234.0,-190.79999999999998" style="stroke:black;fill:none;stroke-width:2.0;stroke-dasharray:-;stroke-linecap:round;stroke-linejoin:round;" /><path d="M 234.0,-190.79999999999998 L 192.6,-190.79999999999998 L 190.5,-184.5 L 186.29999999999998,-197.1 L 182.10000000000002,-184.5 L 177.89999999999998,-197.1 L 173.70000000000002,-184.5 L 169.50000000000003,-197.1 L 167.4,-190.79999999999998 L 126.00000000000001,-190.79999999999998" style="stroke:black;fill:none;stroke-width:2.0;stroke-dasharray:-;stroke-linecap:round;stroke-linejoin:round;" /><path d="M 126.00000000000001,-190.79999999999998 L 122.4,-190.79999999999998 L 118.80000000000001,-190.79999999999998" style="stroke:black;fill:none;stroke-width:2.0;stroke-dasharray:-;stroke-linecap:round;stroke-linejoin:round;" /><path d="M 118.80000000000001,-190.79999999999998 L 118.80000000000001,-187.20000000000002 L 118.80000000000001,-183.6" style="stroke:black;fill:none;stroke-width:2.0;stroke-dasharray:-;stroke-linecap:round;stroke-linejoin:round;" /><path d="M 118.80000000000001,-183.6 L 118.80000000000001,-169.2 L 109.80000000000001,-169.2 L 127.80000000000001,-169.2 M 112.50000000000001,-164.88 L 125.10000000000001,-164.88 M 117.00000000000001,-160.56 L 120.60000000000001,-160.56" style="stroke:black;fill:none;stroke-width:2.0;stroke-dasharray:-;stroke-linecap:round;stroke-linejoin:round;" /><path d="M 234.0,-190.79999999999998 L 216.0,-136.79999999999998 L 198.0,-82.8" style="stroke:black;fill:none;stroke-width:2.0;stroke-dasharray:-;stroke-linecap:round;stroke-linejoin:round;" /><path d="M 342.0,-190.79999999999998 L 342.0,-226.79999999999998 L 342.0,-262.8" style="stroke:black;fill:none;stroke-width:2.0;stroke-dasharray:-;stroke-linecap:round;stroke-linejoin:round;" /><path d="M 342.0,-262.8 L 291.24,-262.8 M 291.24,-253.79999999999998 L 291.24,-271.8 M 284.76,-253.79999999999998 L 284.76,-271.8 M 284.76,-262.8 L 234.0,-262.8" style="stroke:black;fill:none;stroke-width:2.0;stroke-dasharray:-;stroke-linecap:round;stroke-linejoin:round;" /><path d="M 234.0,-262.8 L 234.0,-226.79999999999998 L 234.0,-190.79999999999998" style="stroke:black;fill:none;stroke-width:2.0;stroke-dasharray:-;stroke-linecap:round;stroke-linejoin:round;" /><path d="M 306.0,-46.800000000000004 L 306.0,-14.040000000000001 M 315.0,-14.040000000000001 L 297.0,-14.040000000000001 M 315.0,-7.559999999999999 L 297.0,-7.559999999999999 M 306.0,-7.559999999999999 L 306.0,25.2" style="stroke:black;fill:none;stroke-width:2.0;stroke-dasharray:-;stroke-linecap:round;stroke-linejoin:round;" /><path d="M 306.0,25.2 L 306.0,39.6 L 297.0,39.6 L 315.0,39.6 M 299.7,43.92 L 312.3,43.92 M 304.2,48.239999999999995 L 307.8,48.239999999999995" style="stroke:black;fill:none;stroke-width:2.0;stroke-dasharray:-;stroke-linecap:round;stroke-linejoin:round;" /><path d="M 216.0,-46.800000000000004 L 216.0,-17.1 M 207.0,-17.1 L 225.0,-17.1 M 216.0,-4.500000000000008 L 216.0,25.19999999999999" style="stroke:black;fill:none;stroke-width:2.0;stroke-dasharray:-;stroke-linecap:round;stroke-linejoin:round;" /><path d="M 216.0,25.19999999999999 L 216.0,39.59999999999999 L 207.0,39.59999999999999 L 225.0,39.59999999999999 M 209.70000000000002,43.91999999999999 L 222.29999999999998,43.91999999999999 M 214.20000000000002,48.239999999999995 L 217.79999999999998,48.239999999999995" style="stroke:black;fill:none;stroke-width:2.0;stroke-dasharray:-;stroke-linecap:round;stroke-linejoin:round;" /><text x="-2.6999999999999997" y="-42.5" dominant-baseline="ideographic" fill="black" font-size="11" font-family="Arial" text-anchor="end"><tspan x="-2.6999999999999997" dy="11">3</tspan></text><text x="5.3999999999999995" y="-42.8" dominant-baseline="central" fill="black" font-size="14" font-family="Arial" text-anchor="start"><tspan x="5.3999999999999995" dy="14">GND</tspan></text><text x="-2.6999999999999997" y="-78.5" dominant-baseline="ideographic" fill="black" font-size="11" font-family="Arial" text-anchor="end"><tspan x="-2.6999999999999997" dy="11">5</tspan></text><text x="5.3999999999999995" y="-78.8" dominant-baseline="central" fill="black" font-size="14" font-family="Arial" text-anchor="start"><tspan x="5.3999999999999995" dy="14">ON</tspan></text><text x="-2.6999999999999997" y="-114.5" dominant-baseline="ideographic" fill="black" font-size="11" font-family="Arial" text-anchor="end"><tspan x="-2.6999999999999997" dy="11">1</tspan></text><text x="5.3999999999999995" y="-114.8" dominant-baseline="central" fill="black" font-size="14" font-family="Arial" text-anchor="start"><tspan x="5.3999999999999995" dy="14">VIN</tspan></text><text x="164.70000000000002" y="-60.5" dominant-baseline="ideographic" fill="black" font-size="11" font-family="Arial" text-anchor="start"><tspan x="164.70000000000002" dy="11">2</tspan></text><text x="156.6" y="-60.800000000000004" dominant-baseline="central" fill="black" font-size="14" font-family="Arial" text-anchor="end"><tspan x="156.6" dy="14">VOUT</tspan></text><text x="164.70000000000002" y="-96.5" dominant-baseline="ideographic" fill="black" font-size="11" font-family="Arial" text-anchor="start"><tspan x="164.70000000000002" dy="11">4</tspan></text><text x="156.6" y="-96.8" dominant-baseline="central" fill="black" font-size="14" font-family="Arial" text-anchor="end"><tspan x="156.6" dy="14">FB</tspan></text><text x="84.60000000000001" y="-83.4" dominant-baseline="central" fill="black" font-size="10" font-family="Arial" text-anchor="middle"><tspan x="84.60000000000001" dy="10">U3</tspan><tspan x="84.60000000000001" dy="10">LM2596S</tspan></text><text x="-131.4" y="-81.3" dominant-baseline="central" fill="black" font-size="11" font-family="Arial" text-anchor="start"><tspan x="-131.4" dy="11">C8</tspan><tspan x="-131.4" dy="11">100nF</tspan></text><text x="-209.52" y="-89.816" dominant-baseline="central" fill="black" font-size="14" font-family="Arial" text-anchor="middle"><tspan x="-209.52" dy="14">+</tspan></text><text x="-203.4" y="-81.3" dominant-baseline="central" fill="black" font-size="11" font-family="Arial" text-anchor="start"><tspan x="-203.4" dy="11">C7</tspan><tspan x="-203.4" dy="11">100µF</tspan></text><text x="261.0" y="-91.49997770431489" dominant-baseline="ideographic" fill="black" font-size="11" font-family="Arial" text-anchor="middle"><tspan x="261.0" dy="11">L2</tspan><tspan x="261.0" dy="11">100µH</tspan><tspan x="261.0" dy="11">4.5A</tspan></text><text x="288.0" y="-182.9" dominant-baseline="hanging" fill="black" font-size="11" font-family="Arial" text-anchor="middle"><tspan x="288.0" dy="11">R3</tspan><tspan x="288.0" dy="11">5.1kΩ</tspan></text><text x="180.0" y="-182.9" dominant-baseline="hanging" fill="black" font-size="11" font-family="Arial" text-anchor="middle"><tspan x="180.0" dy="11">R4</tspan><tspan x="180.0" dy="11">1kΩ</tspan></text><text x="288.0" y="-304.59999999999997" dominant-baseline="ideographic" fill="black" font-size="11" font-family="Arial" text-anchor="middle"><tspan x="288.0" dy="11">C32</tspan><tspan x="288.0" dy="11">22nF</tspan></text><text x="312.48" y="-35.816" dominant-baseline="central" fill="black" font-size="14" font-family="Arial" text-anchor="middle"><tspan x="312.48" dy="14">+</tspan></text><text x="333.0" y="-32.8" dominant-baseline="central" fill="black" font-size="11" font-family="Arial" text-anchor="start"><tspan x="333.0" dy="11">C4</tspan><tspan x="333.0" dy="11">470µF</tspan><tspan x="333.0" dy="11">16V</tspan></text><text x="203.39999999999998" y="-27.30000000000001" dominant-baseline="central" fill="black" font-size="11" font-family="Arial" text-anchor="end"><tspan x="203.39999999999998" dy="11">D2</tspan><tspan x="203.39999999999998" dy="11">SS34</tspan></text><circle cx="-234.0" cy="-100.8" r="2.6999999999999997" style="stroke:black;fill:white;stroke-width:2.0;stroke-dasharray:-;" /><text x="-240.29999999999998" y="-111.8" dominant-baseline="central" fill="black" font-size="11" font-family="Arial" text-anchor="end"><tspan x="-240.29999999999998" dy="11">+15V</tspan></text><circle cx="-216.0" cy="-100.8" r="2.6999999999999997" style="stroke:black;fill:black;stroke-width:2.0;stroke-dasharray:-;" /><circle cx="-144.0" cy="-100.8" r="2.6999999999999997" style="stroke:black;fill:black;stroke-width:2.0;stroke-dasharray:-;" /><circle cx="216.0" cy="-46.800000000000004" r="2.6999999999999997" style="stroke:black;fill:black;stroke-width:2.0;stroke-dasharray:-;" /><circle cx="306.0" cy="-46.800000000000004" r="2.6999999999999997" style="stroke:black;fill:black;stroke-width:2.0;stroke-dasharray:-;" /><circle cx="342.0" cy="-46.800000000000004" r="2.6999999999999997" style="stroke:black;fill:black;stroke-width:2.0;stroke-dasharray:-;" /><circle cx="378.0" cy="-46.800000000000004" r="2.6999999999999997" style="stroke:black;fill:white;stroke-width:2.0;stroke-dasharray:-;" /><text x="384.3" y="-57.800000000000004" dominant-baseline="central" fill="black" font-size="11" font-family="Arial" text-anchor="start"><tspan x="384.3" dy="11">+7.5V</tspan></text><circle cx="342.0" cy="-190.79999999999998" r="2.6999999999999997" style="stroke:black;fill:black;stroke-width:2.0;stroke-dasharray:-;" /><circle cx="234.0" cy="-190.79999999999998" r="2.6999999999999997" style="stroke:black;fill:black;stroke-width:2.0;stroke-dasharray:-;" /></svg>