<svg xmlns="http://www.w3.org/2000/svg" xmlns:xlink="http://www.w3.org/1999/xlink" xml:lang="en" height="372.08pt" width="767.774pt" viewBox="-325.10200000000003 -182.44 767.774 372.08"><path d="M 261.0 -82.8 a 4.5 4.5 0 1 1 9.0 0.0" style="stroke:black;fill:none;stroke-width:2.0;stroke-dasharray:-;" /><path d="M 270.0 -82.8 a 4.5 4.5 0 1 1 9.0 0.0" style="stroke:black;fill:none;stroke-width:2.0;stroke-dasharray:-;" /><path d="M 279.0 -82.8 a 4.5 4.5 0 1 1 9.0 0.0" style="stroke:black;fill:none;stroke-width:2.0;stroke-dasharray:-;" /><path d="M 288.0 -82.8 a 4.5 4.5 0 1 1 9.0 0.0" style="stroke:black;fill:none;stroke-width:2.0;stroke-dasharray:-;" /><polygon points="243.0,-125.1 234.0,-112.5 225.0,-125.1 " style="stroke:black;fill:none;stroke-width:2.0;stroke-dasharray:-;stroke-linecap:round;stroke-linejoin:round;" /><path d="M 0.0,-0.0 L 162.0,-0.0 L 162.0,-129.6 L 0.0,-129.6 L 0.0,-0.0" style="stroke:black;fill:none;stroke-width:2.0;stroke-dasharray:-;stroke-linecap:round;stroke-linejoin:round;" /><path d="M 0.0,-28.8 L -36.0,-28.8" style="stroke:black;fill:none;stroke-width:2.0;stroke-dasharray:-;stroke-linecap:round;stroke-linejoin:round;" /><path d="M 0.0,-64.8 L -36.0,-64.8" style="stroke:black;fill:none;stroke-width:2.0;stroke-dasharray:-;stroke-linecap:round;stroke-linejoin:round;" /><path d="M 0.0,-100.8 L -36.0,-100.8" style="stroke:black;fill:none;stroke-width:2.0;stroke-dasharray:-;stroke-linecap:round;stroke-linejoin:round;" /><path d="M 162.0,-46.800000000000004 L 198.0,-46.800000000000004" style="stroke:black;fill:none;stroke-width:2.0;stroke-dasharray:-;stroke-linecap:round;stroke-linejoin:round;" /><path d="M 162.0,-82.8 L 198.0,-82.8" style="stroke:black;fill:none;stroke-width:2.0;stroke-dasharray:-;stroke-linecap:round;stroke-linejoin:round;" /><path d="M -36.0,-28.8 L -36.0,-10.8 L -36.00000000000001,7.199999999999998" style="stroke:black;fill:none;stroke-width:2.0;stroke-dasharray:-;stroke-linecap:round;stroke-linejoin:round;" /><path d="M -36.00000000000001,7.199999999999998 L -36.00000000000001,21.599999999999998 L -45.00000000000001,21.599999999999998 L -27.000000000000007,21.599999999999998 M -42.30000000000001,25.919999999999998 L -29.700000000000006,25.919999999999998 M -37.80000000000001,30.24 L -34.2,30.24" style="stroke:black;fill:none;stroke-width:2.0;stroke-dasharray:-;stroke-linecap:round;stroke-linejoin:round;" /><path d="M -288.0,-100.8 L -252.0,-100.8 L -216.0,-100.8" style="stroke:black;fill:none;stroke-width:2.0;stroke-dasharray:-;stroke-linecap:round;stroke-linejoin:round;" /><path d="M -216.0,-100.8 L -180.0,-100.8 L -144.0,-100.8" style="stroke:black;fill:none;stroke-width:2.0;stroke-dasharray:-;stroke-linecap:round;stroke-linejoin:round;" /><path d="M -144.0,-100.8 L -108.0,-100.8 L -72.0,-100.8" style="stroke:black;fill:none;stroke-width:2.0;stroke-dasharray:-;stroke-linecap:round;stroke-linejoin:round;" /><path d="M -72.0,-100.8 L -54.0,-100.8 L -36.0,-100.8" style="stroke:black;fill:none;stroke-width:2.0;stroke-dasharray:-;stroke-linecap:round;stroke-linejoin:round;" /><path d="M -36.0,-64.8 L -54.0,-64.8 L -72.0,-64.80000000000001" style="stroke:black;fill:none;stroke-width:2.0;stroke-dasharray:-;stroke-linecap:round;stroke-linejoin:round;" /><path d="M -72.0,-64.80000000000001 L -72.0,-46.80000000000001 L -72.0,-28.80000000000001" style="stroke:black;fill:none;stroke-width:2.0;stroke-dasharray:-;stroke-linecap:round;stroke-linejoin:round;" /><path d="M -72.0,-28.80000000000001 L -72.0,-14.40000000000001 L -81.0,-14.40000000000001 L -63.0,-14.40000000000001 M -78.3,-10.080000000000009 L -65.7,-10.080000000000009 M -73.8,-5.760000000000009 L -70.2,-5.760000000000009" style="stroke:black;fill:none;stroke-width:2.0;stroke-dasharray:-;stroke-linecap:round;stroke-linejoin:round;" /><path d="M -144.0,-100.8 L -144.0,-68.03999999999999 M -135.0,-68.03999999999999 L -153.0,-68.03999999999999 M -135.0,-61.55999999999999 L -153.0,-61.55999999999999 M -144.0,-61.55999999999999 L -144.0,-28.799999999999994" style="stroke:black;fill:none;stroke-width:2.0;stroke-dasharray:-;stroke-linecap:round;stroke-linejoin:round;" /><path d="M -144.0,-28.799999999999994 L -144.0,-14.399999999999993 L -153.0,-14.399999999999993 L -135.0,-14.399999999999993 M -150.29999999999998,-10.079999999999993 L -137.70000000000002,-10.079999999999993 M -145.79999999999998,-5.759999999999993 L -142.20000000000002,-5.759999999999993" style="stroke:black;fill:none;stroke-width:2.0;stroke-dasharray:-;stroke-linecap:round;stroke-linejoin:round;" /><path d="M -216.0,-100.8 L -216.0,-68.03999999999999 M -207.0,-68.03999999999999 L -225.0,-68.03999999999999 M -207.0,-61.55999999999999 L -225.0,-61.55999999999999 M -216.0,-61.55999999999999 L -216.0,-28.799999999999994" style="stroke:black;fill:none;stroke-width:2.0;stroke-dasharray:-;stroke-linecap:round;stroke-linejoin:round;" /><path d="M -216.0,-28.799999999999994 L -216.0,-14.399999999999993 L -225.0,-14.399999999999993 L -207.0,-14.399999999999993 M -222.29999999999998,-10.079999999999993 L -209.70000000000002,-10.079999999999993 M -217.79999999999998,-5.759999999999993 L -214.20000000000002,-5.759999999999993" style="stroke:black;fill:none;stroke-width:2.0;stroke-dasharray:-;stroke-linecap:round;stroke-linejoin:round;" /><path d="M 198.0,-82.8 L 216.0,-82.8 L 234.0,-82.8" style="stroke:black;fill:none;stroke-width:2.0;stroke-dasharray:-;stroke-linecap:round;stroke-linejoin:round;" /><path d="M 234.0,-82.8 L 261.0,-82.8 M 297.0,-82.8 L 324.0,-82.8" style="stroke:black;fill:none;stroke-width:2.0;stroke-dasharray:-;stroke-linecap:round;stroke-linejoin:round;" /><path d="M 324.0,-82.8 L 342.0,-82.8 L 360.0,-82.8" style="stroke:black;fill:none;stroke-width:2.0;stroke-dasharray:-;stroke-linecap:round;stroke-linejoin:round;" /><path d="M 360.0,-82.8 L 378.0,-82.8 L 396.0,-82.8" style="stroke:black;fill:none;stroke-width:2.0;stroke-dasharray:-;stroke-linecap:round;stroke-linejoin:round;" /><path d="M 360.0,-82.8 L 360.0,-79.19999999999999 L 360.0,-75.6" style="stroke:black;fill:none;stroke-width:2.0;stroke-dasharray:-;stroke-linecap:round;stroke-linejoin:round;" /><path d="M 360.0,-75.6 L 360.0,-34.19999999999999 L 366.29999999999995,-32.09999999999999 L 353.7,-27.899999999999988 L 366.29999999999995,-23.699999999999996 L 353.7,-19.499999999999986 L 366.29999999999995,-15.299999999999994 L 353.7,-11.100000000000001 L 360.0,-8.999999999999993 L 360.0,32.4" style="stroke:black;fill:none;stroke-width:2.0;stroke-dasharray:-;stroke-linecap:round;stroke-linejoin:round;" /><path d="M 360.0,32.4 L 360.0,35.99999999999999 L 360.0,39.599999999999994" style="stroke:black;fill:none;stroke-width:2.0;stroke-dasharray:-;stroke-linecap:round;stroke-linejoin:round;" /><path d="M 360.0,39.599999999999994 L 360.0,43.199999999999996 L 360.0,46.8" style="stroke:black;fill:none;stroke-width:2.0;stroke-dasharray:-;stroke-linecap:round;stroke-linejoin:round;" /><path d="M 360.0,46.8 L 360.0,88.19999999999999 L 366.29999999999995,90.29999999999998 L 353.7,94.5 L 366.29999999999995,98.69999999999999 L 353.7,102.9 L 366.29999999999995,107.1 L 353.7,111.29999999999997 L 360.0,113.39999999999998 L 360.0,154.79999999999995" style="stroke:black;fill:none;stroke-width:2.0;stroke-dasharray:-;stroke-linecap:round;stroke-linejoin:round;" /><path d="M 360.0,154.79999999999995 L 360.0,158.39999999999995 L 360.0,161.99999999999997" style="stroke:black;fill:none;stroke-width:2.0;stroke-dasharray:-;stroke-linecap:round;stroke-linejoin:round;" /><path d="M 360.0,161.99999999999997 L 360.0,176.39999999999998 L 351.0,176.39999999999998 L 369.0,176.39999999999998 M 353.7,180.71999999999997 L 366.3,180.71999999999997 M 358.2,185.03999999999996 L 361.8,185.03999999999996" style="stroke:black;fill:none;stroke-width:2.0;stroke-dasharray:-;stroke-linecap:round;stroke-linejoin:round;" /><path d="M 360.0,39.599999999999994 L 279.0,-3.599999999999987 L 198.0,-46.79999999999997" style="stroke:black;fill:none;stroke-width:2.0;stroke-dasharray:-;stroke-linecap:round;stroke-linejoin:round;" /><path d="M 324.0,-82.8 L 324.0,-115.56 M 315.0,-115.56 L 333.0,-115.56 M 315.0,-122.03999999999999 L 333.0,-122.03999999999999 M 324.0,-122.03999999999999 L 324.0,-154.79999999999998" style="stroke:black;fill:none;stroke-width:2.0;stroke-dasharray:-;stroke-linecap:round;stroke-linejoin:round;" /><path d="M 324.0,-154.79999999999998 L 324.0,-169.20000000000002 L 315.0,-169.20000000000002 L 333.0,-169.20000000000002 M 317.7,-173.52 L 330.3,-173.52 M 322.2,-177.83999999999997 L 325.8,-177.83999999999997" style="stroke:black;fill:none;stroke-width:2.0;stroke-dasharray:-;stroke-linecap:round;stroke-linejoin:round;" /><path d="M 234.0,-82.8 L 234.0,-112.5 M 243.0,-112.5 L 225.0,-112.5 M 234.0,-125.1 L 234.0,-154.79999999999998" style="stroke:black;fill:none;stroke-width:2.0;stroke-dasharray:-;stroke-linecap:round;stroke-linejoin:round;" /><path d="M 234.0,-154.79999999999998 L 234.0,-169.20000000000002 L 225.0,-169.20000000000002 L 243.0,-169.20000000000002 M 227.70000000000002,-173.52 L 240.29999999999998,-173.52 M 232.20000000000002,-177.83999999999997 L 235.79999999999998,-177.83999999999997" style="stroke:black;fill:none;stroke-width:2.0;stroke-dasharray:-;stroke-linecap:round;stroke-linejoin:round;" /><text x="-2.6999999999999997" y="-42.5" dominant-baseline="ideographic" fill="black" font-size="11" font-family="Arial" text-anchor="end"><tspan x="-2.6999999999999997" dy="11">3</tspan></text><text x="5.3999999999999995" y="-42.8" dominant-baseline="central" fill="black" font-size="14" font-family="Arial" text-anchor="start"><tspan x="5.3999999999999995" dy="14">GND</tspan></text><text x="-2.6999999999999997" y="-78.5" dominant-baseline="ideographic" fill="black" font-size="11" font-family="Arial" text-anchor="end"><tspan x="-2.6999999999999997" dy="11">5</tspan></text><text x="5.3999999999999995" y="-78.8" dominant-baseline="central" fill="black" font-size="14" font-family="Arial" text-anchor="start"><tspan x="5.3999999999999995" dy="14">ON</tspan></text><text x="-2.6999999999999997" y="-114.5" dominant-baseline="ideographic" fill="black" font-size="11" font-family="Arial" text-anchor="end"><tspan x="-2.6999999999999997" dy="11">1</tspan></text><text x="5.3999999999999995" y="-114.8" dominant-baseline="central" fill="black" font-size="14" font-family="Arial" text-anchor="start"><tspan x="5.3999999999999995" dy="14">VIN</tspan></text><text x="164.70000000000002" y="-60.5" dominant-baseline="ideographic" fill="black" font-size="11" font-family="Arial" text-anchor="start"><tspan x="164.70000000000002" dy="11">4</tspan></text><text x="156.6" y="-60.800000000000004" dominant-baseline="central" fill="black" font-size="14" font-family="Arial" text-anchor="end"><tspan x="156.6" dy="14">FB</tspan></text><text x="164.70000000000002" y="-96.5" dominant-baseline="ideographic" fill="black" font-size="11" font-family="Arial" text-anchor="start"><tspan x="164.70000000000002" dy="11">2</tspan></text><text x="156.6" y="-96.8" dominant-baseline="central" fill="black" font-size="14" font-family="Arial" text-anchor="end"><tspan x="156.6" dy="14">VOUT</tspan></text><text x="84.60000000000001" y="-83.4" dominant-baseline="central" fill="black" font-size="10" font-family="Arial" text-anchor="middle"><tspan x="84.60000000000001" dy="10">U2</tspan><tspan x="84.60000000000001" dy="10">LM2596S</tspan></text><text x="-131.4" y="-81.3" dominant-baseline="central" fill="black" font-size="11" font-family="Arial" text-anchor="start"><tspan x="-131.4" dy="11">C6</tspan><tspan x="-131.4" dy="11">100nF</tspan></text><text x="-203.4" y="-81.3" dominant-baseline="central" fill="black" font-size="11" font-family="Arial" text-anchor="start"><tspan x="-203.4" dy="11">C5</tspan><tspan x="-203.4" dy="11">100µF</tspan></text><text x="279.0" y="-127.49997770431487" dominant-baseline="ideographic" fill="black" font-size="11" font-family="Arial" text-anchor="middle"><tspan x="279.0" dy="11">L1</tspan><tspan x="279.0" dy="11">100µH</tspan><tspan x="279.0" dy="11">4.5A</tspan></text><text x="378.90000000000003" y="-38.099999999999994" dominant-baseline="central" fill="black" font-size="11" font-family="Arial" text-anchor="start"><tspan x="378.90000000000003" dy="11">R1</tspan><tspan x="378.90000000000003" dy="11">10kΩ</tspan></text><text x="378.90000000000003" y="84.3" dominant-baseline="central" fill="black" font-size="11" font-family="Arial" text-anchor="start"><tspan x="378.90000000000003" dy="11">R2</tspan><tspan x="378.90000000000003" dy="11">1kΩ</tspan></text><text x="351.0" y="-140.8" dominant-baseline="central" fill="black" font-size="11" font-family="Arial" text-anchor="start"><tspan x="351.0" dy="11">C3</tspan><tspan x="351.0" dy="11">470µF</tspan><tspan x="351.0" dy="11">25V</tspan></text><text x="221.4" y="-135.3" dominant-baseline="central" fill="black" font-size="11" font-family="Arial" text-anchor="end"><tspan x="221.4" dy="11">D1</tspan><tspan x="221.4" dy="11">SS34</tspan></text><circle cx="-288.0" cy="-100.8" r="2.6999999999999997" style="stroke:black;fill:white;stroke-width:2.0;stroke-dasharray:-;" /><text x="-294.3" y="-111.8" dominant-baseline="central" fill="black" font-size="11" font-family="Arial" text-anchor="end"><tspan x="-294.3" dy="11">+15V</tspan></text><circle cx="-216.0" cy="-100.8" r="2.6999999999999997" style="stroke:black;fill:black;stroke-width:2.0;stroke-dasharray:-;" /><circle cx="-144.0" cy="-100.8" r="2.6999999999999997" style="stroke:black;fill:black;stroke-width:2.0;stroke-dasharray:-;" /><circle cx="234.0" cy="-82.8" r="2.6999999999999997" style="stroke:black;fill:black;stroke-width:2.0;stroke-dasharray:-;" /><circle cx="324.0" cy="-82.8" r="2.6999999999999997" style="stroke:black;fill:black;stroke-width:2.0;stroke-dasharray:-;" /><circle cx="360.0" cy="-82.8" r="2.6999999999999997" style="stroke:black;fill:black;stroke-width:2.0;stroke-dasharray:-;" /><circle cx="396.0" cy="-82.8" r="2.6999999999999997" style="stroke:black;fill:white;stroke-width:2.0;stroke-dasharray:-;" /><text x="402.3" y="-93.8" dominant-baseline="central" fill="black" font-size="11" font-family="Arial" text-anchor="start"><tspan x="402.3" dy="11">+13.5V</tspan></text><circle cx="360.0" cy="39.599999999999994" r="2.6999999999999997" style="stroke:black;fill:black;stroke-width:2.0;stroke-dasharray:-;" /></svg>