<svg xmlns="http://www.w3.org/2000/svg" xmlns:xlink="http://www.w3.org/1999/xlink" xml:lang="en" height="592.94pt" width="756.1999999999999pt" viewBox="-4.6 -511.3 756.1999999999999 592.94"><path d="M 0.0,-0.0 L 108.0,-0.0 L 108.0,-432.0 L 0.0,-432.0 L 0.0,-0.0" style="stroke:black;fill:none;stroke-width:2.0;stroke-dasharray:-;stroke-linecap:round;stroke-linejoin:round;" /><path d="M 108.0,-18.0 L 144.0,-18.0" style="stroke:black;fill:none;stroke-width:2.0;stroke-dasharray:-;stroke-linecap:round;stroke-linejoin:round;" /><path d="M 108.0,-46.28571428571428 L 144.0,-46.28571428571428" style="stroke:black;fill:none;stroke-width:2.0;stroke-dasharray:-;stroke-linecap:round;stroke-linejoin:round;" /><path d="M 108.0,-216.0 L 144.0,-216.0" style="stroke:black;fill:none;stroke-width:2.0;stroke-dasharray:-;stroke-linecap:round;stroke-linejoin:round;" /><path d="M 108.0,-244.28571428571428 L 144.0,-244.28571428571428" style="stroke:black;fill:none;stroke-width:2.0;stroke-dasharray:-;stroke-linecap:round;stroke-linejoin:round;" /><path d="M 108.0,-385.71428571428567 L 144.0,-385.71428571428567" style="stroke:black;fill:none;stroke-width:2.0;stroke-dasharray:-;stroke-linecap:round;stroke-linejoin:round;" /><path d="M 108.0,-414.0 L 144.0,-414.0" style="stroke:black;fill:none;stroke-width:2.0;stroke-dasharray:-;stroke-linecap:round;stroke-linejoin:round;" /><path d="M 432.0,-0.0 L 576.0,-0.0 L 576.0,-432.0 L 432.0,-432.0 L 432.0,-0.0" style="stroke:black;fill:none;stroke-width:2.0;stroke-dasharray:-;stroke-linecap:round;stroke-linejoin:round;" /><path d="M 432.0,-46.28571428571428 L 396.0,-46.28571428571428" style="stroke:black;fill:none;stroke-width:2.0;stroke-dasharray:-;stroke-linecap:round;stroke-linejoin:round;" /><path d="M 432.0,-216.0 L 396.0,-216.0" style="stroke:black;fill:none;stroke-width:2.0;stroke-dasharray:-;stroke-linecap:round;stroke-linejoin:round;" /><path d="M 432.0,-244.28571428571428 L 396.0,-244.28571428571428" style="stroke:black;fill:none;stroke-width:2.0;stroke-dasharray:-;stroke-linecap:round;stroke-linejoin:round;" /><path d="M 432.0,-414.0 L 396.0,-414.0" style="stroke:black;fill:none;stroke-width:2.0;stroke-dasharray:-;stroke-linecap:round;stroke-linejoin:round;" /><path d="M 576.0,-414.0 L 612.0,-414.0" style="stroke:black;fill:none;stroke-width:2.0;stroke-dasharray:-;stroke-linecap:round;stroke-linejoin:round;" /><path d="M 576.0,-378.0 L 612.0,-378.0" style="stroke:black;fill:none;stroke-width:2.0;stroke-dasharray:-;stroke-linecap:round;stroke-linejoin:round;" /><path d="M 576.0,-342.0 L 612.0,-342.0" style="stroke:black;fill:none;stroke-width:2.0;stroke-dasharray:-;stroke-linecap:round;stroke-linejoin:round;" /><path d="M 576.0,-306.0 L 612.0,-306.0" style="stroke:black;fill:none;stroke-width:2.0;stroke-dasharray:-;stroke-linecap:round;stroke-linejoin:round;" /><path d="M 576.0,-270.0 L 612.0,-270.0" style="stroke:black;fill:none;stroke-width:2.0;stroke-dasharray:-;stroke-linecap:round;stroke-linejoin:round;" /><path d="M 576.0,-234.0 L 612.0,-234.0" style="stroke:black;fill:none;stroke-width:2.0;stroke-dasharray:-;stroke-linecap:round;stroke-linejoin:round;" /><path d="M 576.0,-198.0 L 612.0,-198.0" style="stroke:black;fill:none;stroke-width:2.0;stroke-dasharray:-;stroke-linecap:round;stroke-linejoin:round;" /><path d="M 576.0,-162.0 L 612.0,-162.0" style="stroke:black;fill:none;stroke-width:2.0;stroke-dasharray:-;stroke-linecap:round;stroke-linejoin:round;" /><path d="M 576.0,-126.0 L 612.0,-126.0" style="stroke:black;fill:none;stroke-width:2.0;stroke-dasharray:-;stroke-linecap:round;stroke-linejoin:round;" /><path d="M 576.0,-90.0 L 612.0,-90.0" style="stroke:black;fill:none;stroke-width:2.0;stroke-dasharray:-;stroke-linecap:round;stroke-linejoin:round;" /><path d="M 576.0,-18.0 L 612.0,-18.0" style="stroke:black;fill:none;stroke-width:2.0;stroke-dasharray:-;stroke-linecap:round;stroke-linejoin:round;" /><path d="M 144.0,-414.0 L 180.0,-414.0 L 216.0,-414.0" style="stroke:black;fill:none;stroke-width:2.0;stroke-dasharray:-;stroke-linecap:round;stroke-linejoin:round;" /><path d="M 216.0,-414.0 L 216.0,-412.2 L 216.0,-410.40000000000003" style="stroke:black;fill:none;stroke-width:2.0;stroke-dasharray:-;stroke-linecap:round;stroke-linejoin:round;" /><path d="M 216.0,-410.40000000000003 L 216.0,-359.64 M 225.0,-359.64 L 207.0,-359.64 M 225.0,-353.16 L 207.0,-353.16 M 216.0,-353.16 L 215.99999999999997,-302.40000000000003" style="stroke:black;fill:none;stroke-width:2.0;stroke-dasharray:-;stroke-linecap:round;stroke-linejoin:round;" /><path d="M 215.99999999999997,-302.40000000000003 L 215.99999999999997,-288.0 L 206.99999999999997,-288.0 L 224.99999999999997,-288.0 M 209.7,-283.68 L 222.29999999999995,-283.68 M 214.2,-279.36 L 217.79999999999995,-279.36" style="stroke:black;fill:none;stroke-width:2.0;stroke-dasharray:-;stroke-linecap:round;stroke-linejoin:round;" /><path d="M 216.0,-414.0 L 252.0,-414.0 L 288.0,-414.0" style="stroke:black;fill:none;stroke-width:2.0;stroke-dasharray:-;stroke-linecap:round;stroke-linejoin:round;" /><path d="M 288.0,-414.0 L 288.0,-412.2 L 288.0,-410.40000000000003" style="stroke:black;fill:none;stroke-width:2.0;stroke-dasharray:-;stroke-linecap:round;stroke-linejoin:round;" /><path d="M 288.0,-410.40000000000003 L 288.0,-359.64 M 297.0,-359.64 L 279.0,-359.64 M 297.0,-353.16 L 279.0,-353.16 M 288.0,-353.16 L 287.99999999999994,-302.40000000000003" style="stroke:black;fill:none;stroke-width:2.0;stroke-dasharray:-;stroke-linecap:round;stroke-linejoin:round;" /><path d="M 287.99999999999994,-302.40000000000003 L 287.99999999999994,-288.0 L 278.99999999999994,-288.0 L 297.0,-288.0 M 281.7,-283.68 L 294.29999999999995,-283.68 M 286.2,-279.36 L 289.79999999999995,-279.36" style="stroke:black;fill:none;stroke-width:2.0;stroke-dasharray:-;stroke-linecap:round;stroke-linejoin:round;" /><path d="M 288.0,-414.0 L 324.0,-414.0 L 360.0,-414.0" style="stroke:black;fill:none;stroke-width:2.0;stroke-dasharray:-;stroke-linecap:round;stroke-linejoin:round;" /><path d="M 360.0,-414.0 L 360.0,-459.0 L 360.0,-504.0" style="stroke:black;fill:none;stroke-width:2.0;stroke-dasharray:-;stroke-linecap:round;stroke-linejoin:round;" /><path d="M 360.0,-414.0 L 378.0,-414.0 L 396.0,-414.0" style="stroke:black;fill:none;stroke-width:2.0;stroke-dasharray:-;stroke-linecap:round;stroke-linejoin:round;" /><path d="M 144.0,-385.71428571428567 L 144.0,-399.8571428571429 L 144.0,-414.0" style="stroke:black;fill:none;stroke-width:2.0;stroke-dasharray:-;stroke-linecap:round;stroke-linejoin:round;" /><path d="M 144.0,-46.28571428571428 L 252.0,-46.28571428571428 L 360.0,-46.28571428571428" style="stroke:black;fill:none;stroke-width:2.0;stroke-dasharray:-;stroke-linecap:round;stroke-linejoin:round;" /><path d="M 360.0,-46.28571428571428 L 378.0,-46.28571428571428 L 396.0,-46.28571428571428" style="stroke:black;fill:none;stroke-width:2.0;stroke-dasharray:-;stroke-linecap:round;stroke-linejoin:round;" /><path d="M 360.0,-46.28571428571428 L 360.0,-28.28571428571428 L 360.0,-10.285714285714281" style="stroke:black;fill:none;stroke-width:2.0;stroke-dasharray:-;stroke-linecap:round;stroke-linejoin:round;" /><path d="M 360.0,-10.285714285714281 L 360.0,4.114285714285719 L 351.0,4.114285714285719 L 369.0,4.114285714285719 M 353.7,8.43428571428572 L 366.3,8.43428571428572 M 358.2,12.75428571428572 L 361.8,12.75428571428572" style="stroke:black;fill:none;stroke-width:2.0;stroke-dasharray:-;stroke-linecap:round;stroke-linejoin:round;" /><path d="M 144.0,-18.0 L 144.0,-32.14285714285714 L 144.0,-46.28571428571428" style="stroke:black;fill:none;stroke-width:2.0;stroke-dasharray:-;stroke-linecap:round;stroke-linejoin:round;" /><path d="M 144.0,-244.28571428571428 L 216.0,-244.28571428571428 L 288.0,-244.28571428571428" style="stroke:black;fill:none;stroke-width:2.0;stroke-dasharray:-;stroke-linecap:round;stroke-linejoin:round;" /><path d="M 288.0,-244.28571428571428 L 288.0,-237.0857142857143 L 288.0,-229.88571428571427" style="stroke:black;fill:none;stroke-width:2.0;stroke-dasharray:-;stroke-linecap:round;stroke-linejoin:round;" /><path d="M 288.0,-229.88571428571427 L 288.0,-188.4857142857143 L 294.29999999999995,-186.38571428571427 L 281.7,-182.18571428571425 L 294.29999999999995,-177.98571428571427 L 281.7,-173.78571428571425 L 294.29999999999995,-169.5857142857143 L 281.7,-165.3857142857143 L 288.0,-163.28571428571428 L 287.99999999999994,-121.88571428571429" style="stroke:black;fill:none;stroke-width:2.0;stroke-dasharray:-;stroke-linecap:round;stroke-linejoin:round;" /><path d="M 287.99999999999994,-121.88571428571429 L 287.99999999999994,-120.08571428571429 L 287.99999999999994,-118.28571428571428" style="stroke:black;fill:none;stroke-width:2.0;stroke-dasharray:-;stroke-linecap:round;stroke-linejoin:round;" /><path d="M 287.99999999999994,-118.28571428571428 L 287.99999999999994,-103.88571428571429 L 278.99999999999994,-103.88571428571429 L 297.0,-103.88571428571429 M 281.7,-99.56571428571428 L 294.29999999999995,-99.56571428571428 M 286.2,-95.24571428571427 L 289.79999999999995,-95.24571428571427" style="stroke:black;fill:none;stroke-width:2.0;stroke-dasharray:-;stroke-linecap:round;stroke-linejoin:round;" /><path d="M 288.0,-244.28571428571428 L 342.0,-244.28571428571428 L 396.0,-244.28571428571428" style="stroke:black;fill:none;stroke-width:2.0;stroke-dasharray:-;stroke-linecap:round;stroke-linejoin:round;" /><path d="M 144.0,-216.0 L 180.0,-216.0 L 216.0,-216.0" style="stroke:black;fill:none;stroke-width:2.0;stroke-dasharray:-;stroke-linecap:round;stroke-linejoin:round;" /><path d="M 216.0,-216.0 L 216.0,-214.20000000000002 L 216.0,-212.4" style="stroke:black;fill:none;stroke-width:2.0;stroke-dasharray:-;stroke-linecap:round;stroke-linejoin:round;" /><path d="M 216.0,-212.4 L 216.0,-171.0 L 222.29999999999998,-168.90000000000003 L 209.70000000000002,-164.70000000000002 L 222.29999999999998,-160.50000000000003 L 209.7,-156.3 L 222.29999999999998,-152.10000000000002 L 209.7,-147.90000000000003 L 216.0,-145.8 L 215.99999999999997,-104.40000000000003" style="stroke:black;fill:none;stroke-width:2.0;stroke-dasharray:-;stroke-linecap:round;stroke-linejoin:round;" /><path d="M 215.99999999999997,-104.40000000000003 L 215.99999999999997,-102.60000000000004 L 215.99999999999997,-100.80000000000003" style="stroke:black;fill:none;stroke-width:2.0;stroke-dasharray:-;stroke-linecap:round;stroke-linejoin:round;" /><path d="M 215.99999999999997,-100.80000000000003 L 215.99999999999997,-86.40000000000003 L 206.99999999999997,-86.40000000000003 L 224.99999999999997,-86.40000000000003 M 209.7,-82.08000000000003 L 222.29999999999995,-82.08000000000003 M 214.2,-77.76000000000002 L 217.79999999999995,-77.76000000000002" style="stroke:black;fill:none;stroke-width:2.0;stroke-dasharray:-;stroke-linecap:round;stroke-linejoin:round;" /><path d="M 216.0,-216.0 L 306.0,-216.0 L 396.0,-216.0" style="stroke:black;fill:none;stroke-width:2.0;stroke-dasharray:-;stroke-linecap:round;stroke-linejoin:round;" /><path d="M 612.0,-126.0 L 612.0,-108.0 L 612.0,-90.0" style="stroke:black;fill:none;stroke-width:2.0;stroke-dasharray:-;stroke-linecap:round;stroke-linejoin:round;" /><path d="M 612.0,-378.0 L 630.0,-378.0 L 648.0,-378.0" style="stroke:black;fill:none;stroke-width:2.0;stroke-dasharray:-;stroke-linecap:round;stroke-linejoin:round;" /><path d="M 648.0,-378.0 L 648.0,-369.0 L 648.0,-360.0" style="stroke:black;fill:none;stroke-width:2.0;stroke-dasharray:-;stroke-linecap:round;stroke-linejoin:round;" /><path d="M 648.0,-360.0 L 648.0,-345.59999999999997 L 639.0,-345.59999999999997 L 657.0,-345.59999999999997 M 641.6999999999999,-341.28000000000003 L 654.3000000000001,-341.28000000000003 M 646.1999999999999,-336.96 L 649.8000000000001,-336.96" style="stroke:black;fill:none;stroke-width:2.0;stroke-dasharray:-;stroke-linecap:round;stroke-linejoin:round;" /><path d="M 612.0,-306.0 L 612.0,-324.0 L 612.0,-342.0" style="stroke:black;fill:none;stroke-width:2.0;stroke-dasharray:-;stroke-linecap:round;stroke-linejoin:round;" /><path d="M 612.0,-306.0 L 648.0,-306.0 L 684.0,-306.0" style="stroke:black;fill:none;stroke-width:2.0;stroke-dasharray:-;stroke-linecap:round;stroke-linejoin:round;" /><path d="M 684.0,-306.0 L 684.0,-297.0 L 684.0,-288.0" style="stroke:black;fill:none;stroke-width:2.0;stroke-dasharray:-;stroke-linecap:round;stroke-linejoin:round;" /><path d="M 684.0,-288.0 L 684.0,-273.59999999999997 L 675.0,-273.59999999999997 L 693.0,-273.59999999999997 M 677.6999999999999,-269.28000000000003 L 690.3000000000001,-269.28000000000003 M 682.1999999999999,-264.96000000000004 L 685.8000000000001,-264.96000000000004" style="stroke:black;fill:none;stroke-width:2.0;stroke-dasharray:-;stroke-linecap:round;stroke-linejoin:round;" /><path d="M 612.0,-234.0 L 612.0,-252.0 L 612.0,-270.0" style="stroke:black;fill:none;stroke-width:2.0;stroke-dasharray:-;stroke-linecap:round;stroke-linejoin:round;" /><path d="M 612.0,-234.0 L 675.0,-234.0 L 738.0,-234.0" style="stroke:black;fill:none;stroke-width:2.0;stroke-dasharray:-;stroke-linecap:round;stroke-linejoin:round;" /><path d="M 738.0,-234.0 L 738.0,-192.6 L 744.3000000000001,-190.5 L 731.6999999999999,-186.29999999999998 L 744.3000000000001,-182.10000000000002 L 731.6999999999999,-177.89999999999998 L 744.3000000000001,-173.70000000000002 L 731.6999999999999,-169.50000000000003 L 738.0,-167.4 L 738.0,-126.00000000000001" style="stroke:black;fill:none;stroke-width:2.0;stroke-dasharray:-;stroke-linecap:round;stroke-linejoin:round;" /><path d="M 738.0,-126.00000000000001 L 738.0,-111.60000000000002 L 729.0,-111.60000000000002 L 747.0,-111.60000000000002 M 731.6999999999999,-107.28000000000002 L 744.3000000000001,-107.28000000000002 M 736.1999999999999,-102.96000000000001 L 739.8000000000001,-102.96000000000001" style="stroke:black;fill:none;stroke-width:2.0;stroke-dasharray:-;stroke-linecap:round;stroke-linejoin:round;" /><path d="M 612.0,-18.0 L 630.0,-18.0 L 648.0,-18.0" style="stroke:black;fill:none;stroke-width:2.0;stroke-dasharray:-;stroke-linecap:round;stroke-linejoin:round;" /><path d="M 648.0,-18.0 L 648.0,14.760000000000002 M 657.0,14.760000000000002 L 639.0,14.760000000000002 M 657.0,21.240000000000002 L 639.0,21.240000000000002 M 648.0,21.240000000000002 L 648.0,54.0" style="stroke:black;fill:none;stroke-width:2.0;stroke-dasharray:-;stroke-linecap:round;stroke-linejoin:round;" /><path d="M 648.0,54.0 L 648.0,68.39999999999999 L 639.0,68.39999999999999 L 657.0,68.39999999999999 M 641.6999999999999,72.72 L 654.3000000000001,72.72 M 646.1999999999999,77.04 L 649.8000000000001,77.04" style="stroke:black;fill:none;stroke-width:2.0;stroke-dasharray:-;stroke-linecap:round;stroke-linejoin:round;" /><text x="110.7" y="-31.7" dominant-baseline="ideographic" fill="black" font-size="11" font-family="Arial" text-anchor="start"><tspan x="110.7" dy="11">6</tspan></text><text x="102.60000000000001" y="-32.0" dominant-baseline="central" fill="black" font-size="14" font-family="Arial" text-anchor="end"><tspan x="102.60000000000001" dy="14">GND2</tspan></text><text x="110.7" y="-59.98571428571428" dominant-baseline="ideographic" fill="black" font-size="11" font-family="Arial" text-anchor="start"><tspan x="110.7" dy="11">5</tspan></text><text x="102.60000000000001" y="-60.28571428571428" dominant-baseline="central" fill="black" font-size="14" font-family="Arial" text-anchor="end"><tspan x="102.60000000000001" dy="14">GND1</tspan></text><text x="110.7" y="-229.70000000000002" dominant-baseline="ideographic" fill="black" font-size="11" font-family="Arial" text-anchor="start"><tspan x="110.7" dy="11">4</tspan></text><text x="102.60000000000001" y="-230.0" dominant-baseline="central" fill="black" font-size="14" font-family="Arial" text-anchor="end"><tspan x="102.60000000000001" dy="14">CC2</tspan></text><text x="110.7" y="-257.98571428571427" dominant-baseline="ideographic" fill="black" font-size="11" font-family="Arial" text-anchor="start"><tspan x="110.7" dy="11">3</tspan></text><text x="102.60000000000001" y="-258.2857142857143" dominant-baseline="central" fill="black" font-size="14" font-family="Arial" text-anchor="end"><tspan x="102.60000000000001" dy="14">CC1</tspan></text><text x="110.7" y="-399.41428571428565" dominant-baseline="ideographic" fill="black" font-size="11" font-family="Arial" text-anchor="start"><tspan x="110.7" dy="11">2</tspan></text><text x="102.60000000000001" y="-399.71428571428567" dominant-baseline="central" fill="black" font-size="14" font-family="Arial" text-anchor="end"><tspan x="102.60000000000001" dy="14">VBUS2</tspan></text><text x="110.7" y="-427.7" dominant-baseline="ideographic" fill="black" font-size="11" font-family="Arial" text-anchor="start"><tspan x="110.7" dy="11">1</tspan></text><text x="102.60000000000001" y="-428.0" dominant-baseline="central" fill="black" font-size="14" font-family="Arial" text-anchor="end"><tspan x="102.60000000000001" dy="14">VBUS1</tspan></text><text x="36.0" y="-273.0" dominant-baseline="central" fill="black" font-size="14" font-family="Arial" text-anchor="middle"><tspan x="36.0" dy="14">J1</tspan><tspan x="36.0" dy="14">USB-C</tspan></text><text x="429.3" y="-59.98571428571429" dominant-baseline="ideographic" fill="black" font-size="11" font-family="Arial" text-anchor="end"><tspan x="429.3" dy="11">0</tspan></text><text x="437.40000000000003" y="-60.28571428571428" dominant-baseline="central" fill="black" font-size="14" font-family="Arial" text-anchor="start"><tspan x="437.40000000000003" dy="14">GND</tspan></text><text x="429.3" y="-229.70000000000002" dominant-baseline="ideographic" fill="black" font-size="11" font-family="Arial" text-anchor="end"><tspan x="429.3" dy="11">10</tspan></text><text x="437.40000000000003" y="-230.0" dominant-baseline="central" fill="black" font-size="14" font-family="Arial" text-anchor="start"><tspan x="437.40000000000003" dy="14">CC2</tspan></text><text x="429.3" y="-257.98571428571427" dominant-baseline="ideographic" fill="black" font-size="11" font-family="Arial" text-anchor="end"><tspan x="429.3" dy="11">11</tspan></text><text x="437.40000000000003" y="-258.2857142857143" dominant-baseline="central" fill="black" font-size="14" font-family="Arial" text-anchor="start"><tspan x="437.40000000000003" dy="14">CC1</tspan></text><text x="429.3" y="-427.7" dominant-baseline="ideographic" fill="black" font-size="11" font-family="Arial" text-anchor="end"><tspan x="429.3" dy="11">2</tspan></text><text x="437.40000000000003" y="-428.0" dominant-baseline="central" fill="black" font-size="14" font-family="Arial" text-anchor="start"><tspan x="437.40000000000003" dy="14">VBUS</tspan></text><text x="578.6999999999999" y="-427.7" dominant-baseline="ideographic" fill="black" font-size="11" font-family="Arial" text-anchor="start"><tspan x="578.6999999999999" dy="11">5</tspan></text><text x="570.6" y="-428.0" dominant-baseline="central" fill="black" font-size="14" font-family="Arial" text-anchor="end"><tspan x="570.6" dy="14">GATE</tspan></text><text x="578.6999999999999" y="-391.7" dominant-baseline="ideographic" fill="black" font-size="11" font-family="Arial" text-anchor="start"><tspan x="578.6999999999999" dy="11">6</tspan></text><text x="570.6" y="-392.0" dominant-baseline="central" fill="black" font-size="14" font-family="Arial" text-anchor="end"><tspan x="570.6" dy="14">NMOS#</tspan></text><text x="578.6999999999999" y="-355.7" dominant-baseline="ideographic" fill="black" font-size="11" font-family="Arial" text-anchor="start"><tspan x="578.6999999999999" dy="11">14</tspan></text><text x="570.6" y="-356.0" dominant-baseline="central" fill="black" font-size="14" font-family="Arial" text-anchor="end"><tspan x="570.6" dy="14">ISP</tspan></text><text x="578.6999999999999" y="-319.7" dominant-baseline="ideographic" fill="black" font-size="11" font-family="Arial" text-anchor="start"><tspan x="578.6999999999999" dy="11">15</tspan></text><text x="570.6" y="-320.0" dominant-baseline="central" fill="black" font-size="14" font-family="Arial" text-anchor="end"><tspan x="570.6" dy="14">ISN</tspan></text><text x="578.6999999999999" y="-283.7" dominant-baseline="ideographic" fill="black" font-size="11" font-family="Arial" text-anchor="start"><tspan x="578.6999999999999" dy="11">1</tspan></text><text x="570.6" y="-284.0" dominant-baseline="central" fill="black" font-size="14" font-family="Arial" text-anchor="end"><tspan x="570.6" dy="14">DRV</tspan></text><text x="578.6999999999999" y="-247.70000000000002" dominant-baseline="ideographic" fill="black" font-size="11" font-family="Arial" text-anchor="start"><tspan x="578.6999999999999" dy="11">19</tspan></text><text x="570.6" y="-248.0" dominant-baseline="central" fill="black" font-size="14" font-family="Arial" text-anchor="end"><tspan x="570.6" dy="14">CFG1</tspan></text><text x="578.6999999999999" y="-211.70000000000002" dominant-baseline="ideographic" fill="black" font-size="11" font-family="Arial" text-anchor="start"><tspan x="578.6999999999999" dy="11">13</tspan></text><text x="570.6" y="-212.0" dominant-baseline="central" fill="black" font-size="14" font-family="Arial" text-anchor="end"><tspan x="570.6" dy="14">CFG2</tspan></text><text x="578.6999999999999" y="-175.70000000000002" dominant-baseline="ideographic" fill="black" font-size="11" font-family="Arial" text-anchor="start"><tspan x="578.6999999999999" dy="11">12</tspan></text><text x="570.6" y="-176.0" dominant-baseline="central" fill="black" font-size="14" font-family="Arial" text-anchor="end"><tspan x="570.6" dy="14">CFG3</tspan></text><text x="578.6999999999999" y="-139.70000000000002" dominant-baseline="ideographic" fill="black" font-size="11" font-family="Arial" text-anchor="start"><tspan x="578.6999999999999" dy="11">8</tspan></text><text x="570.6" y="-140.0" dominant-baseline="central" fill="black" font-size="14" font-family="Arial" text-anchor="end"><tspan x="570.6" dy="14">DP</tspan></text><text x="578.6999999999999" y="-103.7" dominant-baseline="ideographic" fill="black" font-size="11" font-family="Arial" text-anchor="start"><tspan x="578.6999999999999" dy="11">9</tspan></text><text x="570.6" y="-104.0" dominant-baseline="central" fill="black" font-size="14" font-family="Arial" text-anchor="end"><tspan x="570.6" dy="14">DM</tspan></text><text x="578.6999999999999" y="-31.700000000000006" dominant-baseline="ideographic" fill="black" font-size="11" font-family="Arial" text-anchor="start"><tspan x="578.6999999999999" dy="11">7</tspan></text><text x="570.6" y="-32.0" dominant-baseline="central" fill="black" font-size="14" font-family="Arial" text-anchor="end"><tspan x="570.6" dy="14">VDD</tspan></text><text x="486.0" y="-273.0" dominant-baseline="central" fill="black" font-size="14" font-family="Arial" text-anchor="middle"><tspan x="486.0" dy="14">U1</tspan><tspan x="486.0" dy="14">CH224D</tspan></text><text x="163.79999999999998" y="-378.40000000000003" dominant-baseline="central" fill="black" font-size="11" font-family="Arial" text-anchor="start"><tspan x="163.79999999999998" dy="11">C1</tspan><tspan x="163.79999999999998" dy="11">10µF</tspan><tspan x="163.79999999999998" dy="11">50V</tspan></text><text x="304.2" y="-378.40000000000003" dominant-baseline="central" fill="black" font-size="11" font-family="Arial" text-anchor="start"><tspan x="304.2" dy="11">C2</tspan><tspan x="304.2" dy="11">100nF</tspan><tspan x="304.2" dy="11">50V</tspan></text><text x="306.90000000000003" y="-192.38571428571427" dominant-baseline="central" fill="black" font-size="11" font-family="Arial" text-anchor="start"><tspan x="306.90000000000003" dy="11">R12</tspan><tspan x="306.90000000000003" dy="11">5.1kΩ</tspan></text><text x="166.85999999999999" y="-174.9" dominant-baseline="central" fill="black" font-size="11" font-family="Arial" text-anchor="start"><tspan x="166.85999999999999" dy="11">R13</tspan><tspan x="166.85999999999999" dy="11">5.1kΩ</tspan></text><text x="691.3799999999999" y="-196.5" dominant-baseline="central" fill="black" font-size="11" font-family="Arial" text-anchor="start"><tspan x="691.3799999999999" dy="11">R11</tspan><tspan x="691.3799999999999" dy="11">56kΩ</tspan></text><text x="675.0" y="1.500000000000007" dominant-baseline="central" fill="black" font-size="11" font-family="Arial" text-anchor="start"><tspan x="675.0" dy="11">C30</tspan><tspan x="675.0" dy="11">1µF</tspan></text><circle cx="144.0" cy="-414.0" r="2.6999999999999997" style="stroke:black;fill:black;stroke-width:2.0;stroke-dasharray:-;" /><circle cx="216.0" cy="-414.0" r="2.6999999999999997" style="stroke:black;fill:black;stroke-width:2.0;stroke-dasharray:-;" /><circle cx="288.0" cy="-414.0" r="2.6999999999999997" style="stroke:black;fill:black;stroke-width:2.0;stroke-dasharray:-;" /><circle cx="360.0" cy="-414.0" r="2.6999999999999997" style="stroke:black;fill:black;stroke-width:2.0;stroke-dasharray:-;" /><circle cx="360.0" cy="-504.0" r="2.6999999999999997" style="stroke:black;fill:white;stroke-width:2.0;stroke-dasharray:-;" /><text x="369.90000000000003" y="-495.5" dominant-baseline="central" fill="black" font-size="11" font-family="Arial" text-anchor="start"><tspan x="369.90000000000003" dy="11">OUT</tspan><tspan x="369.90000000000003" dy="11">+5V first</tspan><tspan x="369.90000000000003" dy="11">+15V</tspan><tspan x="369.90000000000003" dy="11">after init</tspan></text><circle cx="144.0" cy="-46.28571428571428" r="2.6999999999999997" style="stroke:black;fill:black;stroke-width:2.0;stroke-dasharray:-;" /><circle cx="360.0" cy="-46.28571428571428" r="2.6999999999999997" style="stroke:black;fill:black;stroke-width:2.0;stroke-dasharray:-;" /><circle cx="288.0" cy="-244.28571428571428" r="2.6999999999999997" style="stroke:black;fill:black;stroke-width:2.0;stroke-dasharray:-;" /><circle cx="216.0" cy="-216.0" r="2.6999999999999997" style="stroke:black;fill:black;stroke-width:2.0;stroke-dasharray:-;" /><circle cx="612.0" cy="-126.0" r="2.6999999999999997" style="stroke:black;fill:black;stroke-width:2.0;stroke-dasharray:-;" /><circle cx="612.0" cy="-306.0" r="2.6999999999999997" style="stroke:black;fill:black;stroke-width:2.0;stroke-dasharray:-;" /><circle cx="612.0" cy="-234.0" r="2.6999999999999997" style="stroke:black;fill:black;stroke-width:2.0;stroke-dasharray:-;" /></svg>