<svg xmlns="http://www.w3.org/2000/svg" xmlns:xlink="http://www.w3.org/1999/xlink" xml:lang="en" height="605.8999999999999pt" width="828.1999999999999pt" viewBox="-4.6 -601.3 828.1999999999999 605.8999999999999"><path d="M 0.0,-0.0 L 108.0,-0.0 L 108.0,-432.0 L 0.0,-432.0 L 0.0,-0.0" style="stroke:black;fill:none;stroke-width:2.0;stroke-dasharray:-;stroke-linecap:round;stroke-linejoin:round;" /><path d="M 108.0,-18.0 L 144.0,-18.0" style="stroke:black;fill:none;stroke-width:2.0;stroke-dasharray:-;stroke-linecap:round;stroke-linejoin:round;" /><path d="M 108.0,-74.57142857142856 L 144.0,-74.57142857142856" style="stroke:black;fill:none;stroke-width:2.0;stroke-dasharray:-;stroke-linecap:round;stroke-linejoin:round;" /><path d="M 108.0,-131.14285714285714 L 144.0,-131.14285714285714" style="stroke:black;fill:none;stroke-width:2.0;stroke-dasharray:-;stroke-linecap:round;stroke-linejoin:round;" /><path d="M 108.0,-187.71428571428572 L 144.0,-187.71428571428572" style="stroke:black;fill:none;stroke-width:2.0;stroke-dasharray:-;stroke-linecap:round;stroke-linejoin:round;" /><path d="M 108.0,-357.42857142857144 L 144.0,-357.42857142857144" style="stroke:black;fill:none;stroke-width:2.0;stroke-dasharray:-;stroke-linecap:round;stroke-linejoin:round;" /><path d="M 108.0,-414.0 L 144.0,-414.0" style="stroke:black;fill:none;stroke-width:2.0;stroke-dasharray:-;stroke-linecap:round;stroke-linejoin:round;" /><path d="M 504.0,-0.0 L 648.0,-0.0 L 648.0,-432.0 L 504.0,-432.0 L 504.0,-0.0" style="stroke:black;fill:none;stroke-width:2.0;stroke-dasharray:-;stroke-linecap:round;stroke-linejoin:round;" /><path d="M 504.0,-74.57142857142856 L 468.0,-74.57142857142856" style="stroke:black;fill:none;stroke-width:2.0;stroke-dasharray:-;stroke-linecap:round;stroke-linejoin:round;" /><path d="M 504.0,-131.14285714285714 L 468.0,-131.14285714285714" style="stroke:black;fill:none;stroke-width:2.0;stroke-dasharray:-;stroke-linecap:round;stroke-linejoin:round;" /><path d="M 504.0,-187.71428571428572 L 468.0,-187.71428571428572" style="stroke:black;fill:none;stroke-width:2.0;stroke-dasharray:-;stroke-linecap:round;stroke-linejoin:round;" /><path d="M 504.0,-414.0 L 468.0,-414.0" style="stroke:black;fill:none;stroke-width:2.0;stroke-dasharray:-;stroke-linecap:round;stroke-linejoin:round;" /><path d="M 648.0,-414.0 L 684.0,-414.0" style="stroke:black;fill:none;stroke-width:2.0;stroke-dasharray:-;stroke-linecap:round;stroke-linejoin:round;" /><path d="M 648.0,-374.40000000000003 L 684.0,-374.40000000000003" style="stroke:black;fill:none;stroke-width:2.0;stroke-dasharray:-;stroke-linecap:round;stroke-linejoin:round;" /><path d="M 648.0,-334.8 L 684.0,-334.8" style="stroke:black;fill:none;stroke-width:2.0;stroke-dasharray:-;stroke-linecap:round;stroke-linejoin:round;" /><path d="M 648.0,-295.20000000000005 L 684.0,-295.20000000000005" style="stroke:black;fill:none;stroke-width:2.0;stroke-dasharray:-;stroke-linecap:round;stroke-linejoin:round;" /><path d="M 648.0,-255.60000000000002 L 684.0,-255.60000000000002" style="stroke:black;fill:none;stroke-width:2.0;stroke-dasharray:-;stroke-linecap:round;stroke-linejoin:round;" /><path d="M 648.0,-216.0 L 684.0,-216.0" style="stroke:black;fill:none;stroke-width:2.0;stroke-dasharray:-;stroke-linecap:round;stroke-linejoin:round;" /><path d="M 648.0,-176.4 L 684.0,-176.4" style="stroke:black;fill:none;stroke-width:2.0;stroke-dasharray:-;stroke-linecap:round;stroke-linejoin:round;" /><path d="M 648.0,-136.8 L 684.0,-136.8" style="stroke:black;fill:none;stroke-width:2.0;stroke-dasharray:-;stroke-linecap:round;stroke-linejoin:round;" /><path d="M 648.0,-97.2 L 684.0,-97.2" style="stroke:black;fill:none;stroke-width:2.0;stroke-dasharray:-;stroke-linecap:round;stroke-linejoin:round;" /><path d="M 648.0,-57.59999999999999 L 684.0,-57.59999999999999" style="stroke:black;fill:none;stroke-width:2.0;stroke-dasharray:-;stroke-linecap:round;stroke-linejoin:round;" /><path d="M 648.0,-18.0 L 684.0,-18.0" style="stroke:black;fill:none;stroke-width:2.0;stroke-dasharray:-;stroke-linecap:round;stroke-linejoin:round;" /><path d="M 144.0,-414.0 L 180.0,-414.0 L 216.0,-414.0" style="stroke:black;fill:none;stroke-width:2.0;stroke-dasharray:-;stroke-linecap:round;stroke-linejoin:round;" /><path d="M 216.0,-414.0 L 216.0,-415.8 L 216.0,-417.59999999999997" style="stroke:black;fill:none;stroke-width:2.0;stroke-dasharray:-;stroke-linecap:round;stroke-linejoin:round;" /><path d="M 216.0,-417.59999999999997 L 216.0,-468.36 M 207.0,-468.36 L 225.0,-468.36 M 207.0,-474.84 L 225.0,-474.84 M 216.0,-474.84 L 216.0,-525.6" style="stroke:black;fill:none;stroke-width:2.0;stroke-dasharray:-;stroke-linecap:round;stroke-linejoin:round;" /><path d="M 216.0,-525.6 L 216.0,-540.0 L 207.0,-540.0 L 225.0,-540.0 M 209.70000000000002,-544.3199999999999 L 222.29999999999998,-544.3199999999999 M 214.20000000000002,-548.64 L 217.79999999999998,-548.64" style="stroke:black;fill:none;stroke-width:2.0;stroke-dasharray:-;stroke-linecap:round;stroke-linejoin:round;" /><path d="M 216.0,-414.0 L 252.0,-414.0 L 288.0,-414.0" style="stroke:black;fill:none;stroke-width:2.0;stroke-dasharray:-;stroke-linecap:round;stroke-linejoin:round;" /><path d="M 288.0,-414.0 L 288.0,-415.8 L 288.0,-417.59999999999997" style="stroke:black;fill:none;stroke-width:2.0;stroke-dasharray:-;stroke-linecap:round;stroke-linejoin:round;" /><path d="M 288.0,-417.59999999999997 L 288.0,-468.36 M 279.0,-468.36 L 297.0,-468.36 M 279.0,-474.84 L 297.0,-474.84 M 288.0,-474.84 L 288.0,-525.6" style="stroke:black;fill:none;stroke-width:2.0;stroke-dasharray:-;stroke-linecap:round;stroke-linejoin:round;" /><path d="M 288.0,-525.6 L 288.0,-540.0 L 279.0,-540.0 L 297.0,-540.0 M 281.7,-544.3199999999999 L 294.3,-544.3199999999999 M 286.2,-548.64 L 289.8,-548.64" style="stroke:black;fill:none;stroke-width:2.0;stroke-dasharray:-;stroke-linecap:round;stroke-linejoin:round;" /><path d="M 288.0,-414.0 L 324.0,-414.0 L 360.0,-414.0" style="stroke:black;fill:none;stroke-width:2.0;stroke-dasharray:-;stroke-linecap:round;stroke-linejoin:round;" /><path d="M 360.0,-414.0 L 360.0,-504.0 L 360.0,-594.0" style="stroke:black;fill:none;stroke-width:2.0;stroke-dasharray:-;stroke-linecap:round;stroke-linejoin:round;" /><path d="M 360.0,-414.0 L 414.0,-414.0 L 468.0,-414.0" style="stroke:black;fill:none;stroke-width:2.0;stroke-dasharray:-;stroke-linecap:round;stroke-linejoin:round;" /><path d="M 144.0,-357.42857142857144 L 144.0,-385.7142857142858 L 144.0,-414.0" style="stroke:black;fill:none;stroke-width:2.0;stroke-dasharray:-;stroke-linecap:round;stroke-linejoin:round;" /><path d="M 144.0,-74.57142857142856 L 252.0,-74.57142857142856 L 360.0,-74.57142857142856" style="stroke:black;fill:none;stroke-width:2.0;stroke-dasharray:-;stroke-linecap:round;stroke-linejoin:round;" /><path d="M 360.0,-74.57142857142856 L 414.0,-74.57142857142856 L 468.0,-74.57142857142856" style="stroke:black;fill:none;stroke-width:2.0;stroke-dasharray:-;stroke-linecap:round;stroke-linejoin:round;" /><path d="M 360.0,-74.57142857142856 L 360.0,-56.57142857142856 L 360.0,-38.57142857142856" style="stroke:black;fill:none;stroke-width:2.0;stroke-dasharray:-;stroke-linecap:round;stroke-linejoin:round;" /><path d="M 360.0,-38.57142857142856 L 360.0,-24.17142857142856 L 351.0,-24.17142857142856 L 369.0,-24.17142857142856 M 353.7,-19.851428571428563 L 366.3,-19.851428571428563 M 358.2,-15.531428571428561 L 361.8,-15.531428571428561" style="stroke:black;fill:none;stroke-width:2.0;stroke-dasharray:-;stroke-linecap:round;stroke-linejoin:round;" /><path d="M 144.0,-18.0 L 144.0,-46.28571428571428 L 144.0,-74.57142857142856" style="stroke:black;fill:none;stroke-width:2.0;stroke-dasharray:-;stroke-linecap:round;stroke-linejoin:round;" /><path d="M 144.0,-187.71428571428572 L 216.0,-187.71428571428572 L 288.0,-187.71428571428572" style="stroke:black;fill:none;stroke-width:2.0;stroke-dasharray:-;stroke-linecap:round;stroke-linejoin:round;" /><path d="M 288.0,-187.71428571428572 L 288.0,-196.71428571428572 L 288.0,-205.71428571428572" style="stroke:black;fill:none;stroke-width:2.0;stroke-dasharray:-;stroke-linecap:round;stroke-linejoin:round;" /><path d="M 288.0,-205.71428571428572 L 288.0,-247.1142857142857 L 281.7,-249.21428571428572 L 294.3,-253.4142857142857 L 281.7,-257.6142857142857 L 294.3,-261.81428571428575 L 281.7,-266.01428571428573 L 294.3,-270.2142857142857 L 288.0,-272.3142857142857 L 288.0,-313.71428571428567" style="stroke:black;fill:none;stroke-width:2.0;stroke-dasharray:-;stroke-linecap:round;stroke-linejoin:round;" /><path d="M 288.0,-313.71428571428567 L 288.0,-315.51428571428573 L 288.0,-317.3142857142857" style="stroke:black;fill:none;stroke-width:2.0;stroke-dasharray:-;stroke-linecap:round;stroke-linejoin:round;" /><path d="M 288.0,-317.3142857142857 L 288.0,-331.71428571428567 L 279.0,-331.71428571428567 L 297.0,-331.71428571428567 M 281.7,-336.03428571428566 L 294.3,-336.03428571428566 M 286.2,-340.3542857142857 L 289.8,-340.3542857142857" style="stroke:black;fill:none;stroke-width:2.0;stroke-dasharray:-;stroke-linecap:round;stroke-linejoin:round;" /><path d="M 288.0,-187.71428571428572 L 378.0,-187.71428571428572 L 468.0,-187.71428571428572" style="stroke:black;fill:none;stroke-width:2.0;stroke-dasharray:-;stroke-linecap:round;stroke-linejoin:round;" /><path d="M 144.0,-131.14285714285714 L 180.0,-131.14285714285714 L 216.0,-131.14285714285714" style="stroke:black;fill:none;stroke-width:2.0;stroke-dasharray:-;stroke-linecap:round;stroke-linejoin:round;" /><path d="M 216.0,-131.14285714285714 L 216.0,-158.1428571428571 L 216.0,-185.1428571428571" style="stroke:black;fill:none;stroke-width:2.0;stroke-dasharray:-;stroke-linecap:round;stroke-linejoin:round;" /><path d="M 216.0,-185.1428571428571 L 216.0,-226.54285714285714 L 209.70000000000002,-228.6428571428571 L 222.29999999999998,-232.84285714285713 L 209.70000000000002,-237.04285714285712 L 222.29999999999998,-241.24285714285713 L 209.70000000000002,-245.44285714285712 L 222.29999999999998,-249.6428571428571 L 216.0,-251.7428571428571 L 216.0,-293.1428571428571" style="stroke:black;fill:none;stroke-width:2.0;stroke-dasharray:-;stroke-linecap:round;stroke-linejoin:round;" /><path d="M 216.0,-293.1428571428571 L 216.0,-294.9428571428572 L 216.0,-296.74285714285713" style="stroke:black;fill:none;stroke-width:2.0;stroke-dasharray:-;stroke-linecap:round;stroke-linejoin:round;" /><path d="M 216.0,-296.74285714285713 L 216.0,-311.1428571428571 L 207.0,-311.1428571428571 L 225.0,-311.1428571428571 M 209.70000000000002,-315.4628571428571 L 222.29999999999998,-315.4628571428571 M 214.20000000000002,-319.78285714285715 L 217.79999999999998,-319.78285714285715" style="stroke:black;fill:none;stroke-width:2.0;stroke-dasharray:-;stroke-linecap:round;stroke-linejoin:round;" /><path d="M 216.0,-131.14285714285714 L 342.0,-131.14285714285714 L 468.0,-131.14285714285714" style="stroke:black;fill:none;stroke-width:2.0;stroke-dasharray:-;stroke-linecap:round;stroke-linejoin:round;" /><path d="M 684.0,-57.59999999999999 L 684.0,-37.8 L 684.0,-18.0" style="stroke:black;fill:none;stroke-width:2.0;stroke-dasharray:-;stroke-linecap:round;stroke-linejoin:round;" /><path d="M 684.0,-374.40000000000003 L 702.0,-374.40000000000003 L 720.0,-374.40000000000003" style="stroke:black;fill:none;stroke-width:2.0;stroke-dasharray:-;stroke-linecap:round;stroke-linejoin:round;" /><path d="M 720.0,-374.40000000000003 L 720.0,-392.40000000000003 L 720.0,-410.40000000000003" style="stroke:black;fill:none;stroke-width:2.0;stroke-dasharray:-;stroke-linecap:round;stroke-linejoin:round;" /><path d="M 720.0,-410.40000000000003 L 720.0,-424.8 L 711.0,-424.8 L 729.0,-424.8 M 713.6999999999999,-429.12 L 726.3000000000001,-429.12 M 718.1999999999999,-433.44000000000005 L 721.8000000000001,-433.44000000000005" style="stroke:black;fill:none;stroke-width:2.0;stroke-dasharray:-;stroke-linecap:round;stroke-linejoin:round;" /><path d="M 684.0,-295.20000000000005 L 684.0,-315.0 L 684.0,-334.8" style="stroke:black;fill:none;stroke-width:2.0;stroke-dasharray:-;stroke-linecap:round;stroke-linejoin:round;" /><path d="M 684.0,-295.20000000000005 L 720.0,-295.20000000000005 L 756.0,-295.20000000000005" style="stroke:black;fill:none;stroke-width:2.0;stroke-dasharray:-;stroke-linecap:round;stroke-linejoin:round;" /><path d="M 756.0,-295.20000000000005 L 756.0,-331.20000000000005 L 756.0,-367.20000000000005" style="stroke:black;fill:none;stroke-width:2.0;stroke-dasharray:-;stroke-linecap:round;stroke-linejoin:round;" /><path d="M 756.0,-367.20000000000005 L 756.0,-381.6 L 747.0,-381.6 L 765.0,-381.6 M 749.6999999999999,-385.92 L 762.3000000000001,-385.92 M 754.1999999999999,-390.24000000000007 L 757.8000000000001,-390.24000000000007" style="stroke:black;fill:none;stroke-width:2.0;stroke-dasharray:-;stroke-linecap:round;stroke-linejoin:round;" /><path d="M 684.0,-216.0 L 684.0,-235.8 L 684.0,-255.60000000000002" style="stroke:black;fill:none;stroke-width:2.0;stroke-dasharray:-;stroke-linecap:round;stroke-linejoin:round;" /><path d="M 684.0,-216.0 L 747.0,-216.0 L 810.0,-216.0" style="stroke:black;fill:none;stroke-width:2.0;stroke-dasharray:-;stroke-linecap:round;stroke-linejoin:round;" /><path d="M 810.0,-216.0 L 810.0,-257.40000000000003 L 803.6999999999999,-259.5 L 816.3000000000001,-263.7 L 803.6999999999999,-267.9 L 816.3000000000001,-272.1 L 803.6999999999999,-276.3 L 816.3000000000001,-280.5 L 810.0,-282.59999999999997 L 810.0,-324.0" style="stroke:black;fill:none;stroke-width:2.0;stroke-dasharray:-;stroke-linecap:round;stroke-linejoin:round;" /><path d="M 810.0,-324.0 L 810.0,-338.40000000000003 L 801.0,-338.40000000000003 L 819.0,-338.40000000000003 M 803.6999999999999,-342.71999999999997 L 816.3000000000001,-342.71999999999997 M 808.1999999999999,-347.04 L 811.8000000000001,-347.04" style="stroke:black;fill:none;stroke-width:2.0;stroke-dasharray:-;stroke-linecap:round;stroke-linejoin:round;" /><text x="110.7" y="-31.7" dominant-baseline="ideographic" fill="black" font-size="11" font-family="Arial" text-anchor="start"><tspan x="110.7" dy="11">6</tspan></text><text x="102.60000000000001" y="-32.0" dominant-baseline="central" fill="black" font-size="14" font-family="Arial" text-anchor="end"><tspan x="102.60000000000001" dy="14">GND2</tspan></text><text x="110.7" y="-88.27142857142857" dominant-baseline="ideographic" fill="black" font-size="11" font-family="Arial" text-anchor="start"><tspan x="110.7" dy="11">5</tspan></text><text x="102.60000000000001" y="-88.57142857142856" dominant-baseline="central" fill="black" font-size="14" font-family="Arial" text-anchor="end"><tspan x="102.60000000000001" dy="14">GND1</tspan></text><text x="110.7" y="-144.84285714285716" dominant-baseline="ideographic" fill="black" font-size="11" font-family="Arial" text-anchor="start"><tspan x="110.7" dy="11">4</tspan></text><text x="102.60000000000001" y="-145.14285714285714" dominant-baseline="central" fill="black" font-size="14" font-family="Arial" text-anchor="end"><tspan x="102.60000000000001" dy="14">CC2</tspan></text><text x="110.7" y="-201.4142857142857" dominant-baseline="ideographic" fill="black" font-size="11" font-family="Arial" text-anchor="start"><tspan x="110.7" dy="11">3</tspan></text><text x="102.60000000000001" y="-201.71428571428572" dominant-baseline="central" fill="black" font-size="14" font-family="Arial" text-anchor="end"><tspan x="102.60000000000001" dy="14">CC1</tspan></text><text x="110.7" y="-371.12857142857143" dominant-baseline="ideographic" fill="black" font-size="11" font-family="Arial" text-anchor="start"><tspan x="110.7" dy="11">2</tspan></text><text x="102.60000000000001" y="-371.42857142857144" dominant-baseline="central" fill="black" font-size="14" font-family="Arial" text-anchor="end"><tspan x="102.60000000000001" dy="14">VBUS2</tspan></text><text x="110.7" y="-427.7" dominant-baseline="ideographic" fill="black" font-size="11" font-family="Arial" text-anchor="start"><tspan x="110.7" dy="11">1</tspan></text><text x="102.60000000000001" y="-428.0" dominant-baseline="central" fill="black" font-size="14" font-family="Arial" text-anchor="end"><tspan x="102.60000000000001" dy="14">VBUS1</tspan></text><text x="36.0" y="-249.0" dominant-baseline="central" fill="black" font-size="10" font-family="Arial" text-anchor="middle"><tspan x="36.0" dy="10">J1</tspan><tspan x="36.0" dy="10">USB-C</tspan></text><text x="501.3" y="-88.27142857142857" dominant-baseline="ideographic" fill="black" font-size="11" font-family="Arial" text-anchor="end"><tspan x="501.3" dy="11">0</tspan></text><text x="509.40000000000003" y="-88.57142857142856" dominant-baseline="central" fill="black" font-size="14" font-family="Arial" text-anchor="start"><tspan x="509.40000000000003" dy="14">GND</tspan></text><text x="501.3" y="-144.84285714285716" dominant-baseline="ideographic" fill="black" font-size="11" font-family="Arial" text-anchor="end"><tspan x="501.3" dy="11">10</tspan></text><text x="509.40000000000003" y="-145.14285714285714" dominant-baseline="central" fill="black" font-size="14" font-family="Arial" text-anchor="start"><tspan x="509.40000000000003" dy="14">CC2</tspan></text><text x="501.3" y="-201.4142857142857" dominant-baseline="ideographic" fill="black" font-size="11" font-family="Arial" text-anchor="end"><tspan x="501.3" dy="11">11</tspan></text><text x="509.40000000000003" y="-201.71428571428572" dominant-baseline="central" fill="black" font-size="14" font-family="Arial" text-anchor="start"><tspan x="509.40000000000003" dy="14">CC1</tspan></text><text x="501.3" y="-427.7" dominant-baseline="ideographic" fill="black" font-size="11" font-family="Arial" text-anchor="end"><tspan x="501.3" dy="11">2</tspan></text><text x="509.40000000000003" y="-428.0" dominant-baseline="central" fill="black" font-size="14" font-family="Arial" text-anchor="start"><tspan x="509.40000000000003" dy="14">VBUS</tspan></text><text x="650.6999999999999" y="-427.7" dominant-baseline="ideographic" fill="black" font-size="11" font-family="Arial" text-anchor="start"><tspan x="650.6999999999999" dy="11">5</tspan></text><text x="642.6" y="-428.0" dominant-baseline="central" fill="black" font-size="14" font-family="Arial" text-anchor="end"><tspan x="642.6" dy="14">GATE</tspan></text><text x="650.6999999999999" y="-388.09999999999997" dominant-baseline="ideographic" fill="black" font-size="11" font-family="Arial" text-anchor="start"><tspan x="650.6999999999999" dy="11">6</tspan></text><text x="642.6" y="-388.40000000000003" dominant-baseline="central" fill="black" font-size="14" font-family="Arial" text-anchor="end"><tspan x="642.6" dy="14">NMOS#</tspan></text><text x="650.6999999999999" y="-348.5" dominant-baseline="ideographic" fill="black" font-size="11" font-family="Arial" text-anchor="start"><tspan x="650.6999999999999" dy="11">14</tspan></text><text x="642.6" y="-348.8" dominant-baseline="central" fill="black" font-size="14" font-family="Arial" text-anchor="end"><tspan x="642.6" dy="14">ISP</tspan></text><text x="650.6999999999999" y="-308.90000000000003" dominant-baseline="ideographic" fill="black" font-size="11" font-family="Arial" text-anchor="start"><tspan x="650.6999999999999" dy="11">15</tspan></text><text x="642.6" y="-309.20000000000005" dominant-baseline="central" fill="black" font-size="14" font-family="Arial" text-anchor="end"><tspan x="642.6" dy="14">ISN</tspan></text><text x="650.6999999999999" y="-269.3" dominant-baseline="ideographic" fill="black" font-size="11" font-family="Arial" text-anchor="start"><tspan x="650.6999999999999" dy="11">1</tspan></text><text x="642.6" y="-269.6" dominant-baseline="central" fill="black" font-size="14" font-family="Arial" text-anchor="end"><tspan x="642.6" dy="14">DRV</tspan></text><text x="650.6999999999999" y="-229.70000000000002" dominant-baseline="ideographic" fill="black" font-size="11" font-family="Arial" text-anchor="start"><tspan x="650.6999999999999" dy="11">19</tspan></text><text x="642.6" y="-230.0" dominant-baseline="central" fill="black" font-size="14" font-family="Arial" text-anchor="end"><tspan x="642.6" dy="14">CFG1</tspan></text><text x="650.6999999999999" y="-190.10000000000002" dominant-baseline="ideographic" fill="black" font-size="11" font-family="Arial" text-anchor="start"><tspan x="650.6999999999999" dy="11">13</tspan></text><text x="642.6" y="-190.4" dominant-baseline="central" fill="black" font-size="14" font-family="Arial" text-anchor="end"><tspan x="642.6" dy="14">CFG2</tspan></text><text x="650.6999999999999" y="-150.50000000000003" dominant-baseline="ideographic" fill="black" font-size="11" font-family="Arial" text-anchor="start"><tspan x="650.6999999999999" dy="11">12</tspan></text><text x="642.6" y="-150.8" dominant-baseline="central" fill="black" font-size="14" font-family="Arial" text-anchor="end"><tspan x="642.6" dy="14">CFG3</tspan></text><text x="650.6999999999999" y="-110.9" dominant-baseline="ideographic" fill="black" font-size="11" font-family="Arial" text-anchor="start"><tspan x="650.6999999999999" dy="11">3</tspan></text><text x="642.6" y="-111.2" dominant-baseline="central" fill="black" font-size="14" font-family="Arial" text-anchor="end"><tspan x="642.6" dy="14">PG</tspan></text><text x="650.6999999999999" y="-71.3" dominant-baseline="ideographic" fill="black" font-size="11" font-family="Arial" text-anchor="start"><tspan x="650.6999999999999" dy="11">8</tspan></text><text x="642.6" y="-71.6" dominant-baseline="central" fill="black" font-size="14" font-family="Arial" text-anchor="end"><tspan x="642.6" dy="14">DP</tspan></text><text x="650.6999999999999" y="-31.700000000000006" dominant-baseline="ideographic" fill="black" font-size="11" font-family="Arial" text-anchor="start"><tspan x="650.6999999999999" dy="11">9</tspan></text><text x="642.6" y="-32.0" dominant-baseline="central" fill="black" font-size="14" font-family="Arial" text-anchor="end"><tspan x="642.6" dy="14">DM</tspan></text><text x="579.6" y="-234.6" dominant-baseline="central" fill="black" font-size="10" font-family="Arial" text-anchor="middle"><tspan x="579.6" dy="10">U1</tspan><tspan x="579.6" dy="10">CH224D</tspan></text><text x="163.79999999999998" y="-493.59999999999997" dominant-baseline="central" fill="black" font-size="11" font-family="Arial" text-anchor="start"><tspan x="163.79999999999998" dy="11">C1</tspan><tspan x="163.79999999999998" dy="11">10µF</tspan><tspan x="163.79999999999998" dy="11">25V</tspan></text><text x="304.2" y="-493.59999999999997" dominant-baseline="central" fill="black" font-size="11" font-family="Arial" text-anchor="start"><tspan x="304.2" dy="11">C2</tspan><tspan x="304.2" dy="11">100nF</tspan><tspan x="304.2" dy="11">25V</tspan></text><text x="306.90000000000003" y="-276.2142857142857" dominant-baseline="central" fill="black" font-size="11" font-family="Arial" text-anchor="start"><tspan x="306.90000000000003" dy="11">R12</tspan><tspan x="306.90000000000003" dy="11">5.1kΩ</tspan></text><text x="166.85999999999999" y="-255.6428571428571" dominant-baseline="central" fill="black" font-size="11" font-family="Arial" text-anchor="start"><tspan x="166.85999999999999" dy="11">R13</tspan><tspan x="166.85999999999999" dy="11">5.1kΩ</tspan></text><text x="760.86" y="-286.5" dominant-baseline="central" fill="black" font-size="11" font-family="Arial" text-anchor="start"><tspan x="760.86" dy="11">R11</tspan><tspan x="760.86" dy="11">56kΩ</tspan></text><circle cx="144.0" cy="-414.0" r="2.6999999999999997" style="stroke:black;fill:black;stroke-width:2.0;stroke-dasharray:-;" /><circle cx="216.0" cy="-414.0" r="2.6999999999999997" style="stroke:black;fill:black;stroke-width:2.0;stroke-dasharray:-;" /><circle cx="288.0" cy="-414.0" r="2.6999999999999997" style="stroke:black;fill:black;stroke-width:2.0;stroke-dasharray:-;" /><circle cx="360.0" cy="-414.0" r="2.6999999999999997" style="stroke:black;fill:black;stroke-width:2.0;stroke-dasharray:-;" /><circle cx="360.0" cy="-594.0" r="2.6999999999999997" style="stroke:black;fill:white;stroke-width:2.0;stroke-dasharray:-;" /><text x="369.90000000000003" y="-580.0" dominant-baseline="central" fill="black" font-size="11" font-family="Arial" text-anchor="start"><tspan x="369.90000000000003" dy="11">+5V first</tspan><tspan x="369.90000000000003" dy="11">+13.5V</tspan><tspan x="369.90000000000003" dy="11">after init</tspan></text><circle cx="144.0" cy="-74.57142857142856" r="2.6999999999999997" style="stroke:black;fill:black;stroke-width:2.0;stroke-dasharray:-;" /><circle cx="360.0" cy="-74.57142857142856" r="2.6999999999999997" style="stroke:black;fill:black;stroke-width:2.0;stroke-dasharray:-;" /><circle cx="288.0" cy="-187.71428571428572" r="2.6999999999999997" style="stroke:black;fill:black;stroke-width:2.0;stroke-dasharray:-;" /><circle cx="216.0" cy="-131.14285714285714" r="2.6999999999999997" style="stroke:black;fill:black;stroke-width:2.0;stroke-dasharray:-;" /><circle cx="684.0" cy="-57.59999999999999" r="2.6999999999999997" style="stroke:black;fill:black;stroke-width:2.0;stroke-dasharray:-;" /><circle cx="684.0" cy="-295.20000000000005" r="2.6999999999999997" style="stroke:black;fill:black;stroke-width:2.0;stroke-dasharray:-;" /><circle cx="684.0" cy="-216.0" r="2.6999999999999997" style="stroke:black;fill:black;stroke-width:2.0;stroke-dasharray:-;" /></svg>