<svg xmlns="http://www.w3.org/2000/svg" xmlns:xlink="http://www.w3.org/1999/xlink" xml:lang="en" height="291.44000000000005pt" width="670.4119999999999pt" viewBox="-53.812 -148.60000000000002 670.4119999999999 291.44000000000005"><path d="M 0.0,-0.0 L 18.0,-0.0 L 36.0,-0.0" style="stroke:black;fill:none;stroke-width:2.0;stroke-dasharray:-;stroke-linecap:round;stroke-linejoin:round;" /><path d="M 36.0,-0.0 L 36.00000000000001,-72.0 L 36.00000000000001,-144.0" style="stroke:black;fill:none;stroke-width:2.0;stroke-dasharray:-;stroke-linecap:round;stroke-linejoin:round;" /><path d="M 0.0,-0.0 L 36.0,-0.0 L 72.0,-0.0" style="stroke:black;fill:none;stroke-width:2.0;stroke-dasharray:-;stroke-linecap:round;stroke-linejoin:round;" /><path d="M 72.0,-0.0 L 71.99999999999999,41.76 M 81.0,41.76 L 62.99999999999999,41.76 M 80.99999999999999,48.239999999999995 L 62.99999999999999,48.239999999999995 M 71.99999999999999,48.239999999999995 L 71.99999999999999,90.0" style="stroke:black;fill:none;stroke-width:2.0;stroke-dasharray:-;stroke-linecap:round;stroke-linejoin:round;" /><path d="M 71.99999999999999,90.0 L 71.99999999999999,104.39999999999999 L 62.999999999999986,104.39999999999999 L 80.99999999999999,104.39999999999999 M 65.69999999999999,108.72 L 78.29999999999998,108.72 M 70.19999999999999,113.04 L 73.79999999999998,113.04" style="stroke:black;fill:none;stroke-width:2.0;stroke-dasharray:-;stroke-linecap:round;stroke-linejoin:round;" /><path d="M 72.0,-0.0 L 108.0,-0.0 L 144.0,-0.0" style="stroke:black;fill:none;stroke-width:2.0;stroke-dasharray:-;stroke-linecap:round;stroke-linejoin:round;" /><path d="M 144.0,-0.0 L 144.0,41.76 M 153.0,41.76 L 135.0,41.76 M 153.0,48.239999999999995 L 135.0,48.239999999999995 M 143.99999999999997,48.239999999999995 L 143.99999999999997,90.0" style="stroke:black;fill:none;stroke-width:2.0;stroke-dasharray:-;stroke-linecap:round;stroke-linejoin:round;" /><path d="M 143.99999999999997,90.0 L 143.99999999999997,104.39999999999999 L 134.99999999999997,104.39999999999999 L 153.0,104.39999999999999 M 137.7,108.72 L 150.29999999999998,108.72 M 142.2,113.04 L 145.79999999999998,113.04" style="stroke:black;fill:none;stroke-width:2.0;stroke-dasharray:-;stroke-linecap:round;stroke-linejoin:round;" /><path d="M 144.0,-0.0 L 216.0,-0.0 L 288.0,-0.0" style="stroke:black;fill:none;stroke-width:2.0;stroke-dasharray:-;stroke-linecap:round;stroke-linejoin:round;" /><path d="M 324.0,129.60000000000002 L 576.0,129.60000000000002 L 576.0,-43.2 L 324.0,-43.2 L 324.0,129.60000000000002" style="stroke:black;fill:none;stroke-width:2.0;stroke-dasharray:-;stroke-linecap:round;stroke-linejoin:round;" /><path d="M 324.0,-0.0 L 288.0,-0.0" style="stroke:black;fill:none;stroke-width:2.0;stroke-dasharray:-;stroke-linecap:round;stroke-linejoin:round;" /><path d="M 324.0,28.80000000000001 L 288.0,28.80000000000001" style="stroke:black;fill:none;stroke-width:2.0;stroke-dasharray:-;stroke-linecap:round;stroke-linejoin:round;" /><path d="M 324.0,57.60000000000002 L 288.0,57.60000000000002" style="stroke:black;fill:none;stroke-width:2.0;stroke-dasharray:-;stroke-linecap:round;stroke-linejoin:round;" /><path d="M 324.0,86.4 L 288.0,86.4" style="stroke:black;fill:none;stroke-width:2.0;stroke-dasharray:-;stroke-linecap:round;stroke-linejoin:round;" /><path d="M 576.0,-0.0 L 612.0,-0.0" style="stroke:black;fill:none;stroke-width:2.0;stroke-dasharray:-;stroke-linecap:round;stroke-linejoin:round;" /><path d="M 576.0,28.80000000000001 L 612.0,28.80000000000001" style="stroke:black;fill:none;stroke-width:2.0;stroke-dasharray:-;stroke-linecap:round;stroke-linejoin:round;" /><path d="M 576.0,57.60000000000002 L 612.0,57.60000000000002" style="stroke:black;fill:none;stroke-width:2.0;stroke-dasharray:-;stroke-linecap:round;stroke-linejoin:round;" /><path d="M 288.0,86.4 L 273.59999999999997,86.4 L 259.2,86.4" style="stroke:black;fill:none;stroke-width:2.0;stroke-dasharray:-;stroke-linecap:round;stroke-linejoin:round;" /><path d="M 259.2,86.4 L 259.2,100.80000000000001 L 259.2,115.2" style="stroke:black;fill:none;stroke-width:2.0;stroke-dasharray:-;stroke-linecap:round;stroke-linejoin:round;" /><path d="M 259.2,115.2 L 259.2,129.6 L 250.20000000000002,129.6 L 268.2,129.6 M 252.9,133.92000000000002 L 265.5,133.92000000000002 M 257.40000000000003,138.24 L 261.0,138.24" style="stroke:black;fill:none;stroke-width:2.0;stroke-dasharray:-;stroke-linecap:round;stroke-linejoin:round;" /><text x="84.6" y="28.5" dominant-baseline="central" fill="black" font-size="11" font-family="Arial" text-anchor="start"><tspan x="84.6" dy="11">C13</tspan><tspan x="84.6" dy="11">100µF</tspan></text><text x="156.6" y="28.5" dominant-baseline="central" fill="black" font-size="11" font-family="Arial" text-anchor="start"><tspan x="156.6" dy="11">C16</tspan><tspan x="156.6" dy="11">100nF</tspan></text><text x="321.3" y="-13.700000000000006" dominant-baseline="ideographic" fill="black" font-size="11" font-family="Arial" text-anchor="end"><tspan x="321.3" dy="11">7</tspan></text><text x="329.40000000000003" y="-14.0" dominant-baseline="central" fill="black" font-size="14" font-family="Arial" text-anchor="start"><tspan x="329.40000000000003" dy="14">VIN</tspan></text><text x="321.3" y="15.100000000000001" dominant-baseline="ideographic" fill="black" font-size="11" font-family="Arial" text-anchor="end"><tspan x="321.3" dy="11">2</tspan></text><text x="329.40000000000003" y="14.800000000000011" dominant-baseline="central" fill="black" font-size="14" font-family="Arial" text-anchor="start"><tspan x="329.40000000000003" dy="14">COMP</tspan></text><text x="321.3" y="43.90000000000001" dominant-baseline="ideographic" fill="black" font-size="11" font-family="Arial" text-anchor="end"><tspan x="321.3" dy="11">6</tspan></text><text x="329.40000000000003" y="43.60000000000002" dominant-baseline="central" fill="black" font-size="14" font-family="Arial" text-anchor="start"><tspan x="329.40000000000003" dy="14">Freq.Sync.</tspan></text><text x="321.3" y="72.7" dominant-baseline="ideographic" fill="black" font-size="11" font-family="Arial" text-anchor="end"><tspan x="321.3" dy="11">4</tspan></text><text x="329.40000000000003" y="72.4" dominant-baseline="central" fill="black" font-size="14" font-family="Arial" text-anchor="start"><tspan x="329.40000000000003" dy="14">GND</tspan></text><text x="578.6999999999999" y="-13.700000000000006" dominant-baseline="ideographic" fill="black" font-size="11" font-family="Arial" text-anchor="start"><tspan x="578.6999999999999" dy="11">5</tspan></text><text x="570.6" y="-14.0" dominant-baseline="central" fill="black" font-size="14" font-family="Arial" text-anchor="end"><tspan x="570.6" dy="14">SW</tspan></text><text x="578.6999999999999" y="15.100000000000001" dominant-baseline="ideographic" fill="black" font-size="11" font-family="Arial" text-anchor="start"><tspan x="578.6999999999999" dy="11">1</tspan></text><text x="570.6" y="14.800000000000011" dominant-baseline="central" fill="black" font-size="14" font-family="Arial" text-anchor="end"><tspan x="570.6" dy="14">Freq.Adj.</tspan></text><text x="578.6999999999999" y="43.90000000000001" dominant-baseline="ideographic" fill="black" font-size="11" font-family="Arial" text-anchor="start"><tspan x="578.6999999999999" dy="11">3</tspan></text><text x="570.6" y="43.60000000000002" dominant-baseline="central" fill="black" font-size="14" font-family="Arial" text-anchor="end"><tspan x="570.6" dy="14">FB</tspan></text><text x="453.59999999999997" y="18.6" dominant-baseline="central" fill="black" font-size="14" font-family="Arial" text-anchor="middle"><tspan x="453.59999999999997" dy="14">U5</tspan><tspan x="453.59999999999997" dy="14">LM2586SX-ADJ</tspan></text><circle cx="0.0" cy="-0.0" r="2.6999999999999997" style="stroke:black;fill:white;stroke-width:2.0;stroke-dasharray:-;" /><text x="-6.3" y="-12.0" dominant-baseline="central" fill="black" font-size="12" font-family="Arial" text-anchor="end"><tspan x="-6.3" dy="12">+15V IN</tspan></text><circle cx="36.0" cy="-0.0" r="2.6999999999999997" style="stroke:black;fill:black;stroke-width:2.0;stroke-dasharray:-;" /><circle cx="72.0" cy="-0.0" r="2.6999999999999997" style="stroke:black;fill:black;stroke-width:2.0;stroke-dasharray:-;" /><circle cx="144.0" cy="-0.0" r="2.6999999999999997" style="stroke:black;fill:black;stroke-width:2.0;stroke-dasharray:-;" /></svg>