<svg xmlns="http://www.w3.org/2000/svg" xmlns:xlink="http://www.w3.org/1999/xlink" xml:lang="en" height="302.24000000000007pt" width="768.1279999999999pt" viewBox="-68.16399999999999 -166.60000000000002 768.1279999999999 302.24000000000007"><polygon points="504.9,-66.60000000000001 517.5,-57.60000000000001 504.9,-48.60000000000001 " style="stroke:black;fill:white;stroke-width:2.0;stroke-dasharray:-;stroke-linecap:round;stroke-linejoin:round;" /><path d="M 0.0,-0.0 L 36.0,-0.0 L 72.0,-0.0" style="stroke:black;fill:none;stroke-width:2.0;stroke-dasharray:-;stroke-linecap:round;stroke-linejoin:round;" /><path d="M 72.0,-0.0 L 72.0,9.0 L 72.0,18.0" style="stroke:black;fill:none;stroke-width:2.0;stroke-dasharray:-;stroke-linecap:round;stroke-linejoin:round;" /><path d="M 72.0,18.0 L 71.99999999999999,41.760000000000005 M 81.0,41.760000000000005 L 63.0,41.760000000000005 M 81.0,48.24 L 62.99999999999999,48.24 M 71.99999999999999,48.24 L 71.99999999999999,72.0" style="stroke:black;fill:none;stroke-width:2.0;stroke-dasharray:-;stroke-linecap:round;stroke-linejoin:round;" /><path d="M 71.99999999999999,72.0 L 71.99999999999999,86.39999999999999 L 62.99999999999999,86.39999999999999 L 81.0,86.39999999999999 M 65.69999999999999,90.72 L 78.3,90.72 M 70.19999999999999,95.04 L 73.8,95.04" style="stroke:black;fill:none;stroke-width:2.0;stroke-dasharray:-;stroke-linecap:round;stroke-linejoin:round;" /><path d="M 72.0,18.0 L 90.0,18.0 L 108.0,18.0" style="stroke:black;fill:none;stroke-width:2.0;stroke-dasharray:-;stroke-linecap:round;stroke-linejoin:round;" /><path d="M 108.0,18.0 L 108.0,41.760000000000005 M 117.0,41.760000000000005 L 99.0,41.760000000000005 M 117.0,48.24 L 99.0,48.24 M 108.0,48.24 L 107.99999999999999,72.0" style="stroke:black;fill:none;stroke-width:2.0;stroke-dasharray:-;stroke-linecap:round;stroke-linejoin:round;" /><path d="M 107.99999999999999,72.0 L 107.99999999999999,86.39999999999999 L 98.99999999999999,86.39999999999999 L 116.99999999999999,86.39999999999999 M 101.69999999999999,90.72 L 114.29999999999998,90.72 M 106.19999999999999,95.04 L 109.79999999999998,95.04" style="stroke:black;fill:none;stroke-width:2.0;stroke-dasharray:-;stroke-linecap:round;stroke-linejoin:round;" /><path d="M 72.0,-0.0 L 117.0,-0.0 L 162.0,-0.0" style="stroke:black;fill:none;stroke-width:2.0;stroke-dasharray:-;stroke-linecap:round;stroke-linejoin:round;" /><path d="M 234.0,126.0 L 378.324,126.0 L 378.324,-46.800000000000026 L 234.0,-46.800000000000026 L 234.0,126.0" style="stroke:black;fill:none;stroke-width:2.0;stroke-dasharray:-;stroke-linecap:round;stroke-linejoin:round;" /><path d="M 234.0,82.8 L 198.0,82.8" style="stroke:black;fill:none;stroke-width:2.0;stroke-dasharray:-;stroke-linecap:round;stroke-linejoin:round;" /><path d="M 234.0,54.0 L 198.0,54.0" style="stroke:black;fill:none;stroke-width:2.0;stroke-dasharray:-;stroke-linecap:round;stroke-linejoin:round;" /><path d="M 234.0,25.19999999999999 L 198.0,25.19999999999999" style="stroke:black;fill:none;stroke-width:2.0;stroke-dasharray:-;stroke-linecap:round;stroke-linejoin:round;" /><path d="M 234.0,-3.600000000000019 L 198.0,-3.600000000000019" style="stroke:black;fill:none;stroke-width:2.0;stroke-dasharray:-;stroke-linecap:round;stroke-linejoin:round;" /><path d="M 378.324,82.8 L 414.324,82.8" style="stroke:black;fill:none;stroke-width:2.0;stroke-dasharray:-;stroke-linecap:round;stroke-linejoin:round;" /><path d="M 378.324,54.0 L 414.324,54.0" style="stroke:black;fill:none;stroke-width:2.0;stroke-dasharray:-;stroke-linecap:round;stroke-linejoin:round;" /><path d="M 378.324,25.19999999999999 L 414.324,25.19999999999999" style="stroke:black;fill:none;stroke-width:2.0;stroke-dasharray:-;stroke-linecap:round;stroke-linejoin:round;" /><path d="M 162.0,-0.0 L 180.0,41.4 L 198.0,82.8" style="stroke:black;fill:none;stroke-width:2.0;stroke-dasharray:-;stroke-linecap:round;stroke-linejoin:round;" /><path d="M 198.0,-3.600000000000019 L 189.0,-3.60000000000002 L 180.0,-3.600000000000021" style="stroke:black;fill:none;stroke-width:2.0;stroke-dasharray:-;stroke-linecap:round;stroke-linejoin:round;" /><path d="M 180.0,-3.600000000000021 L 180.0,10.79999999999998 L 180.0,25.19999999999998" style="stroke:black;fill:none;stroke-width:2.0;stroke-dasharray:-;stroke-linecap:round;stroke-linejoin:round;" /><path d="M 180.0,25.19999999999998 L 180.0,39.59999999999999 L 171.0,39.59999999999999 L 189.0,39.59999999999999 M 173.70000000000002,43.91999999999998 L 186.29999999999998,43.91999999999998 M 178.20000000000002,48.23999999999998 L 181.79999999999998,48.23999999999998" style="stroke:black;fill:none;stroke-width:2.0;stroke-dasharray:-;stroke-linecap:round;stroke-linejoin:round;" /><path d="M 198.0,54.0 L 183.6,54.0 L 169.20000000000002,54.0" style="stroke:black;fill:none;stroke-width:2.0;stroke-dasharray:-;stroke-linecap:round;stroke-linejoin:round;" /><path d="M 169.20000000000002,54.0 L 169.20000000000002,63.0 L 178.20000000000002,66.0 L 160.20000000000002,72.0 L 178.20000000000002,78.0 L 160.20000000000002,83.99999999999999 L 178.20000000000002,90.0 L 160.20000000000002,96.0 L 169.20000000000002,99.0 L 169.20000000000002,108.0" style="stroke:black;fill:none;stroke-width:2.0;stroke-dasharray:-;stroke-linecap:round;stroke-linejoin:round;" /><path d="M 169.20000000000002,108.0 L 169.20000000000002,122.39999999999999 L 160.20000000000002,122.39999999999999 L 178.20000000000002,122.39999999999999 M 162.9,126.72 L 175.5,126.72 M 167.4,131.04 L 171.0,131.04" style="stroke:black;fill:none;stroke-width:2.0;stroke-dasharray:-;stroke-linecap:round;stroke-linejoin:round;" /><path d="M 169.20000000000002,108.0 L 190.79999999999998,108.0 L 212.4,108.0" style="stroke:black;fill:none;stroke-width:2.0;stroke-dasharray:-;stroke-linecap:round;stroke-linejoin:round;" /><path d="M 212.4,108.0 L 212.4,84.24 M 203.4,84.24 L 221.4,84.24 M 203.4,77.76 L 221.4,77.76 M 212.4,77.76 L 212.4,54.0" style="stroke:black;fill:none;stroke-width:2.0;stroke-dasharray:-;stroke-linecap:round;stroke-linejoin:round;" /><path d="M 212.4,54.0 L 190.8,54.0 L 169.20000000000002,53.99999999999999" style="stroke:black;fill:none;stroke-width:2.0;stroke-dasharray:-;stroke-linecap:round;stroke-linejoin:round;" /><path d="M 414.324,82.8 L 441.324,82.8 L 468.324,82.8" style="stroke:black;fill:none;stroke-width:2.0;stroke-dasharray:-;stroke-linecap:round;stroke-linejoin:round;" /><path d="M 162.0,-0.0 L 162.0,-72.0 L 162.0,-144.0" style="stroke:black;fill:none;stroke-width:2.0;stroke-dasharray:-;stroke-linecap:round;stroke-linejoin:round;" /><path d="M 162.0,-144.0 L 261.0,-144.0 L 360.0,-144.0" style="stroke:black;fill:none;stroke-width:2.0;stroke-dasharray:-;stroke-linecap:round;stroke-linejoin:round;" /><path d="M 360.0,-144.0 L 360.0,-138.6 L 360.0,-133.20000000000002" style="stroke:black;fill:none;stroke-width:2.0;stroke-dasharray:-;stroke-linecap:round;stroke-linejoin:round;" /><path d="M 360.0,-133.20000000000002 L 360.0,-118.80000000000001 L 361.53009669853583,-118.75578063936824 L 363.10054576629966,-118.62121073546206 L 364.67517889887336,-118.39499248740572 L 366.2177314305286,-118.07793880601648 L 367.69267752939305,-117.67295459202214 L 369.06604837686626,-117.18496983460203 L 370.3062144881659,-116.62082607102904 L 371.3846141567309,-115.9891188223093 L 372.2764112460081,-115.29999963361328 L 372.961067179315,-114.56494227861593 L 373.4228139545395,-113.79647851218843 L 373.6510172898872,-113.00790945720175 L 373.64042153723074,-112.21299927236285 L 373.3912707225723,-111.4256581560814 L 372.9093029259907,-110.6596219869617 L 372.2056181305063,-109.9281359789756 L 371.29642258337657,-109.24364963691147 L 370.2026555573223,-108.61753003744231 L 368.9495071075786,-108.05980003910794 L 367.56583793108985,-107.57890745037905 L 366.0835146888107,-107.18153047198898 L 364.5366760990055,-106.87242389430376 L 362.9609467038195,-106.65430959188882 L 361.392616416511,-106.52781383724316 L 359.86780474482043,-106.49145287739975 L 358.42162893887354,-106.54166710557121 L 357.0873952216258,-106.6729030408487 L 355.895831728259,-106.87774122791693 L 354.8743808203538,-107.14706711118444 L 354.0465670732329,-107.47028094800382 L 353.43145549207344,-107.83554192656564 L 353.0432124343685,-108.23004086629662 L 352.89077935093445,-108.64029522032223 L 352.9776668593891,-109.05245958592481 L 353.3018738926998,-109.4526445717713 L 353.85593378485623,-109.82723667822268 L 354.62708623228866,-110.16321182370636 L 355.5975711706666,-110.44843529646668 L 356.74503779893246,-110.67194122364033 L 358.04305933052416,-110.82418512133007 L 359.4617416167809,-110.8972637093101 L 360.96841162560304,-110.88509692790959 L 362.5283699193234,-110.78356796512575 L 364.10568980181085,-110.59061806906486 L 365.66404473001126,-110.30629396212895 L 367.16754493418205,-109.93274676497319 L 368.5815639789976,-109.47418245501599 L 369.8735362293696,-108.93676500046942 L 371.01370685490554,-108.32847440076637 L 371.9758170999925,-107.65892290279157 L 372.73770903735857,-106.93913362555742 L 373.2818358773051,-106.18128669171992 L 373.59566607990945,-105.39843871266544 L 373.6719719632706,-104.60422208758062 L 373.50899616099275,-103.81253104181309 L 373.11049209529773,-103.03720163523191 L 372.485637533651,-102.29169311017097 L 371.6488232197362,-101.58877791768704 L 370.61932144672625,-100.94024756099824 L 369.4208422057883,-100.35664103068969 L 368.08098713196733,-99.8470020859731 L 366.6306138233736,-99.41867097194584 L 365.103125173754,-99.07711536971564 L 363.5337000855055,-98.82580447270205 L 361.9584832802356,-98.66612908920709 L 360.41375286597537,-98.59736961133619 L 358.93508483242965,-98.61671258796326 L 357.55653371639835,-98.71931552005503 L 356.30984830709326,-98.89841838608298 L 355.2237404540885,-99.14549932903127 L 354.32322381765783,-99.45047091944352 L 353.6290377904428,-99.80191247446251 L 353.1571698578515,-100.1873330824279 L 352.9184873974904,-100.59345927543089 L 352.9184873974904,-101.00654072456912 L 353.1571698578515,-101.4126669175721 L 353.62903779044274,-101.79808752553748 L 354.3232238176578,-102.14952908055649 L 355.2237404540885,-102.45450067096874 L 356.3098483070932,-102.70158161391703 L 357.5565337163983,-102.88068447994496 L 358.93508483242965,-102.98328741203674 L 360.41375286597537,-103.00263038866383 L 361.9584832802356,-102.93387091079293 L 363.5337000855054,-102.77419552729798 L 365.10312517375394,-102.5228846302844 L 366.63061382337355,-102.1813290280542 L 368.0809871319673,-101.75299791402693 L 369.4208422057883,-101.24335896931035 L 370.6193214467262,-100.65975243900178 L 371.6488232197362,-100.01122208231297 L 372.48563753365096,-99.30830688982905 L 373.11049209529773,-98.56279836476813 L 373.50899616099275,-97.78746895818693 L 373.6719719632706,-96.99577791241943 L 373.59566607990945,-96.2015612873346 L 373.2818358773051,-95.4187133082801 L 372.73770903735857,-94.6608663744426 L 371.9758170999925,-93.94107709720844 L 371.01370685490554,-93.27152559923364 L 369.8735362293696,-92.66323499953059 L 368.5815639789977,-92.12581754498403 L 367.1675449341821,-91.66725323502685 L 365.66404473001126,-91.29370603787109 L 364.10568980181085,-91.00938193093516 L 362.52836991932344,-90.81643203487427 L 360.9684116256031,-90.71490307209044 L 359.4617416167809,-90.70273629068991 L 358.0430593305242,-90.77581487866993 L 356.7450377989325,-90.92805877635968 L 355.5975711706666,-91.15156470353332 L 354.62708623228866,-91.43678817629365 L 353.85593378485623,-91.7727633217773 L 353.3018738926998,-92.1473554282287 L 352.9776668593891,-92.5475404140752 L 352.89077935093445,-92.95970477967778 L 353.04321243436846,-93.36995913370338 L 353.43145549207344,-93.76445807343435 L 354.04656707323284,-94.12971905199618 L 354.8743808203538,-94.45293288881557 L 355.895831728259,-94.72225877208308 L 357.08739522162574,-94.92709695915133 L 358.42162893887354,-95.05833289442882 L 359.8678047448204,-95.10854712260026 L 361.3926164165109,-95.07218616275686 L 362.9609467038195,-94.9456904081112 L 364.53667609900543,-94.72757610569627 L 366.0835146888107,-94.41846952801103 L 367.5658379310898,-94.02109254962099 L 368.9495071075786,-93.54019996089208 L 370.2026555573223,-92.98246996255773 L 371.2964225833765,-92.35635036308857 L 372.20561813050625,-91.67186402102442 L 372.9093029259907,-90.94037801303836 L 373.39127072257224,-90.17434184391865 L 373.64042153723074,-89.38700072763716 L 373.6510172898872,-88.59209054279829 L 373.4228139545395,-87.80352148781157 L 372.961067179315,-87.03505772138409 L 372.2764112460081,-86.30000036638677 L 371.38461415673095,-85.61088117769071 L 370.3062144881659,-84.979173928971 L 369.0660483768663,-84.41503016539801 L 367.6926775293931,-83.92704540797789 L 366.21773143052866,-83.52206119398353 L 364.67517889887336,-83.20500751259428 L 363.1005457662997,-82.97878926453797 L 361.5300966985359,-82.84421936063178 L 360.0,-82.80000000000001 L 360.0,-68.4" style="stroke:black;fill:none;stroke-width:2.0;stroke-dasharray:-;stroke-linecap:round;stroke-linejoin:round;" /><path d="M 360.0,-68.4 L 360.0,-63.000000000000014 L 360.0,-57.60000000000001" style="stroke:black;fill:none;stroke-width:2.0;stroke-dasharray:-;stroke-linecap:round;stroke-linejoin:round;" /><path d="M 360.0,-57.60000000000001" style="stroke:black;fill:none;stroke-width:2.0;stroke-dasharray:-;stroke-linecap:round;stroke-linejoin:round;" /><path d="M 403.2,-144.0 L 403.2,-138.6 L 403.2,-133.20000000000002" style="stroke:black;fill:none;stroke-width:2.0;stroke-dasharray:-;stroke-linecap:round;stroke-linejoin:round;" /><path d="M 403.2,-133.20000000000002 L 403.2,-118.80000000000001 L 404.7300966985358,-118.75578063936824 L 406.3005457662996,-118.62121073546206 L 407.8751788988733,-118.39499248740572 L 409.4177314305286,-118.07793880601648 L 410.89267752939304,-117.67295459202214 L 412.2660483768662,-117.18496983460203 L 413.5062144881658,-116.62082607102904 L 414.5846141567308,-115.9891188223093 L 415.47641124600807,-115.29999963361328 L 416.16106717931495,-114.56494227861593 L 416.6228139545395,-113.79647851218843 L 416.8510172898872,-113.00790945720175 L 416.8404215372307,-112.21299927236285 L 416.5912707225723,-111.4256581560814 L 416.1093029259906,-110.6596219869617 L 415.4056181305063,-109.9281359789756 L 414.49642258337656,-109.24364963691147 L 413.4026555573223,-108.61753003744231 L 412.1495071075786,-108.05980003910794 L 410.76583793108983,-107.57890745037905 L 409.28351468881067,-107.18153047198898 L 407.7366760990055,-106.87242389430376 L 406.16094670381943,-106.65430959188882 L 404.59261641651096,-106.52781383724316 L 403.0678047448204,-106.49145287739975 L 401.6216289388735,-106.54166710557121 L 400.28739522162573,-106.6729030408487 L 399.095831728259,-106.87774122791693 L 398.0743808203537,-107.14706711118444 L 397.2465670732329,-107.47028094800382 L 396.6314554920734,-107.83554192656564 L 396.2432124343685,-108.23004086629662 L 396.09077935093444,-108.64029522032223 L 396.1776668593891,-109.05245958592481 L 396.5018738926998,-109.4526445717713 L 397.05593378485617,-109.82723667822268 L 397.82708623228865,-110.16321182370636 L 398.7975711706666,-110.44843529646668 L 399.94503779893245,-110.67194122364033 L 401.24305933052415,-110.82418512133007 L 402.6617416167809,-110.8972637093101 L 404.168411625603,-110.88509692790959 L 405.72836991932337,-110.78356796512575 L 407.3056898018108,-110.59061806906486 L 408.86404473001124,-110.30629396212895 L 410.367544934182,-109.93274676497319 L 411.7815639789976,-109.47418245501599 L 413.07353622936955,-108.93676500046942 L 414.2137068549055,-108.32847440076637 L 415.1758170999925,-107.65892290279157 L 415.93770903735856,-106.93913362555742 L 416.4818358773051,-106.18128669171992 L 416.79566607990944,-105.39843871266544 L 416.8719719632706,-104.60422208758062 L 416.7089961609927,-103.81253104181309 L 416.3104920952977,-103.03720163523191 L 415.685637533651,-102.29169311017097 L 414.8488232197361,-101.58877791768704 L 413.81932144672624,-100.94024756099824 L 412.6208422057883,-100.35664103068969 L 411.2809871319673,-99.8470020859731 L 409.8306138233736,-99.41867097194584 L 408.303125173754,-99.07711536971564 L 406.7337000855054,-98.82580447270205 L 405.1584832802356,-98.66612908920709 L 403.61375286597536,-98.59736961133619 L 402.13508483242964,-98.61671258796326 L 400.75653371639834,-98.71931552005503 L 399.50984830709325,-98.89841838608298 L 398.4237404540885,-99.14549932903127 L 397.5232238176578,-99.45047091944352 L 396.8290377904427,-99.80191247446251 L 396.35716985785143,-100.1873330824279 L 396.1184873974904,-100.59345927543089 L 396.1184873974904,-101.00654072456912 L 396.35716985785143,-101.4126669175721 L 396.82903779044267,-101.79808752553748 L 397.5232238176577,-102.14952908055649 L 398.4237404540885,-102.45450067096874 L 399.5098483070932,-102.70158161391703 L 400.7565337163983,-102.88068447994496 L 402.13508483242964,-102.98328741203674 L 403.61375286597536,-103.00263038866383 L 405.1584832802356,-102.93387091079293 L 406.73370008550535,-102.77419552729798 L 408.30312517375387,-102.5228846302844 L 409.83061382337354,-102.1813290280542 L 411.2809871319672,-101.75299791402693 L 412.6208422057883,-101.24335896931035 L 413.8193214467262,-100.65975243900178 L 414.8488232197361,-100.01122208231297 L 415.68563753365095,-99.30830688982905 L 416.3104920952977,-98.56279836476813 L 416.7089961609927,-97.78746895818693 L 416.8719719632706,-96.99577791241943 L 416.79566607990944,-96.2015612873346 L 416.4818358773051,-95.4187133082801 L 415.93770903735856,-94.6608663744426 L 415.1758170999925,-93.94107709720844 L 414.2137068549055,-93.27152559923364 L 413.07353622936955,-92.66323499953059 L 411.78156397899767,-92.12581754498403 L 410.3675449341821,-91.66725323502685 L 408.86404473001124,-91.29370603787109 L 407.3056898018108,-91.00938193093516 L 405.7283699193234,-90.81643203487427 L 404.1684116256031,-90.71490307209044 L 402.6617416167809,-90.70273629068991 L 401.2430593305242,-90.77581487866993 L 399.9450377989325,-90.92805877635968 L 398.7975711706666,-91.15156470353332 L 397.82708623228865,-91.43678817629365 L 397.05593378485617,-91.7727633217773 L 396.5018738926998,-92.1473554282287 L 396.1776668593891,-92.5475404140752 L 396.09077935093444,-92.95970477967778 L 396.2432124343684,-93.36995913370338 L 396.6314554920734,-93.76445807343435 L 397.24656707323277,-94.12971905199618 L 398.0743808203537,-94.45293288881557 L 399.095831728259,-94.72225877208308 L 400.2873952216257,-94.92709695915133 L 401.6216289388735,-95.05833289442882 L 403.06780474482036,-95.10854712260026 L 404.59261641651085,-95.07218616275686 L 406.16094670381943,-94.9456904081112 L 407.7366760990054,-94.72757610569627 L 409.28351468881067,-94.41846952801103 L 410.7658379310898,-94.02109254962099 L 412.1495071075786,-93.54019996089208 L 413.4026555573223,-92.98246996255773 L 414.49642258337644,-92.35635036308857 L 415.40561813050624,-91.67186402102442 L 416.1093029259906,-90.94037801303836 L 416.59127072257223,-90.17434184391865 L 416.8404215372307,-89.38700072763716 L 416.8510172898872,-88.59209054279829 L 416.6228139545395,-87.80352148781157 L 416.16106717931495,-87.03505772138409 L 415.47641124600807,-86.30000036638677 L 414.5846141567309,-85.61088117769071 L 413.5062144881658,-84.979173928971 L 412.26604837686625,-84.41503016539801 L 410.8926775293931,-83.92704540797789 L 409.41773143052865,-83.52206119398353 L 407.8751788988733,-83.20500751259428 L 406.3005457662997,-82.97878926453797 L 404.7300966985359,-82.84421936063178 L 403.2,-82.80000000000001 L 403.2,-68.4" style="stroke:black;fill:none;stroke-width:2.0;stroke-dasharray:-;stroke-linecap:round;stroke-linejoin:round;" /><path d="M 403.2,-68.4 L 403.2,-63.000000000000014 L 403.2,-57.60000000000001" style="stroke:black;fill:none;stroke-width:2.0;stroke-dasharray:-;stroke-linecap:round;stroke-linejoin:round;" /><path d="M 403.2,-144.0 L 403.2,-153.0 L 403.2,-162.0" style="stroke:black;fill:none;stroke-width:2.0;stroke-dasharray:-;stroke-linecap:round;stroke-linejoin:round;" /><path d="M 403.2,-162.0 L 403.2,-162.0 L 394.2,-162.0 L 412.2,-162.0 M 396.9,-157.68 L 409.5,-157.68 M 401.4,-153.35999999999999 L 405.0,-153.35999999999999" style="stroke:black;fill:none;stroke-width:2.0;stroke-dasharray:-;stroke-linecap:round;stroke-linejoin:round;" /><path d="M 403.2,-57.60000000000001 L 430.2,-57.60000000000001 L 457.2,-57.60000000000001" style="stroke:black;fill:none;stroke-width:2.0;stroke-dasharray:-;stroke-linecap:round;stroke-linejoin:round;" /><path d="M 457.2,-57.60000000000001 L 504.9,-57.60000000000001 M 517.5,-66.60000000000001 L 517.5,-48.60000000000001 M 517.5,-57.60000000000001 L 565.1999999999999,-57.60000000000001" style="stroke:black;fill:none;stroke-width:2.0;stroke-dasharray:-;stroke-linecap:round;stroke-linejoin:round;" /><path d="M 565.1999999999999,-57.60000000000001 L 565.1999999999999,-15.840000000000014 M 574.1999999999999,-15.840000000000014 L 556.1999999999999,-15.840000000000014 M 574.1999999999999,-9.360000000000017 L 556.1999999999999,-9.360000000000017 M 565.1999999999999,-9.360000000000017 L 565.1999999999999,32.39999999999999" style="stroke:black;fill:none;stroke-width:2.0;stroke-dasharray:-;stroke-linecap:round;stroke-linejoin:round;" /><path d="M 565.1999999999999,32.39999999999999 L 565.1999999999999,46.8 L 556.1999999999999,46.8 L 574.1999999999999,46.8 M 558.9,51.11999999999999 L 571.5,51.11999999999999 M 563.4,55.43999999999998 L 567.0,55.43999999999998" style="stroke:black;fill:none;stroke-width:2.0;stroke-dasharray:-;stroke-linecap:round;stroke-linejoin:round;" /><path d="M 565.1999999999999,-57.60000000000001 L 592.1999999999999,-57.60000000000001 L 619.1999999999999,-57.60000000000001" style="stroke:black;fill:none;stroke-width:2.0;stroke-dasharray:-;stroke-linecap:round;stroke-linejoin:round;" /><path d="M 565.1999999999999,-57.60000000000001 L 565.1999999999999,-43.2 L 565.1999999999999,-28.80000000000001" style="stroke:black;fill:none;stroke-width:2.0;stroke-dasharray:-;stroke-linecap:round;stroke-linejoin:round;" /><path d="M 565.1999999999999,-28.80000000000001 L 565.1999999999999,-19.80000000000001 L 574.1999999999999,-16.800000000000008 L 556.1999999999999,-10.800000000000011 L 574.1999999999999,-4.800000000000011 L 556.1999999999999,1.1999999999999877 L 574.1999999999999,7.19999999999999 L 556.1999999999999,13.199999999999985 L 565.1999999999999,16.19999999999999 L 565.1999999999999,25.19999999999999" style="stroke:black;fill:none;stroke-width:2.0;stroke-dasharray:-;stroke-linecap:round;stroke-linejoin:round;" /><path d="M 565.1999999999999,25.19999999999999 L 480.762,25.199999999999978 L 396.324,25.19999999999997" style="stroke:black;fill:none;stroke-width:2.0;stroke-dasharray:-;stroke-linecap:round;stroke-linejoin:round;" /><path d="M 396.324,25.19999999999997 L 396.324,-28.80000000000003 L 396.324,-82.80000000000003" style="stroke:black;fill:none;stroke-width:2.0;stroke-dasharray:-;stroke-linecap:round;stroke-linejoin:round;" /><path d="M 396.324,-82.80000000000003 L 405.324,-28.80000000000002 L 414.324,25.19999999999999" style="stroke:black;fill:none;stroke-width:2.0;stroke-dasharray:-;stroke-linecap:round;stroke-linejoin:round;" /><path d="M 565.1999999999999,25.19999999999999 L 565.1999999999999,34.19999999999999 L 574.1999999999999,37.199999999999996 L 556.1999999999999,43.19999999999999 L 574.1999999999999,49.19999999999999 L 556.1999999999999,55.19999999999999 L 574.1999999999999,61.19999999999999 L 556.1999999999999,67.19999999999999 L 565.1999999999999,70.19999999999999 L 565.1999999999999,79.19999999999999" style="stroke:black;fill:none;stroke-width:2.0;stroke-dasharray:-;stroke-linecap:round;stroke-linejoin:round;" /><path d="M 565.1999999999999,79.19999999999999 L 565.1999999999999,93.6 L 556.1999999999999,93.6 L 574.1999999999999,93.6 M 558.9,97.91999999999999 L 571.5,97.91999999999999 M 563.4,102.24 L 567.0,102.24" style="stroke:black;fill:none;stroke-width:2.0;stroke-dasharray:-;stroke-linecap:round;stroke-linejoin:round;" /><text x="72.0" y="-11.200000000000003" dominant-baseline="ideographic" fill="black" font-size="11" font-family="Arial" text-anchor="middle"><tspan x="72.0" dy="11">C13</tspan><tspan x="72.0" dy="11">100µF</tspan></text><text x="108.0" y="-11.200000000000003" dominant-baseline="ideographic" fill="black" font-size="11" font-family="Arial" text-anchor="middle"><tspan x="108.0" dy="11">C16</tspan><tspan x="108.0" dy="11">100nF</tspan></text><text x="231.29999999999998" y="69.1" dominant-baseline="ideographic" fill="black" font-size="11" font-family="Arial" text-anchor="end"><tspan x="231.29999999999998" dy="11">7</tspan></text><text x="239.4" y="68.8" dominant-baseline="central" fill="black" font-size="14" font-family="Arial" text-anchor="start"><tspan x="239.4" dy="14">VIN</tspan></text><text x="231.29999999999998" y="40.3" dominant-baseline="ideographic" fill="black" font-size="11" font-family="Arial" text-anchor="end"><tspan x="231.29999999999998" dy="11">2</tspan></text><text x="239.4" y="40.0" dominant-baseline="central" fill="black" font-size="14" font-family="Arial" text-anchor="start"><tspan x="239.4" dy="14">COMP</tspan></text><text x="231.29999999999998" y="11.499999999999986" dominant-baseline="ideographic" fill="black" font-size="11" font-family="Arial" text-anchor="end"><tspan x="231.29999999999998" dy="11">6</tspan></text><text x="239.4" y="11.199999999999989" dominant-baseline="central" fill="black" font-size="14" font-family="Arial" text-anchor="start"><tspan x="239.4" dy="14">Freq.Sync.</tspan></text><text x="231.29999999999998" y="-17.300000000000026" dominant-baseline="ideographic" fill="black" font-size="11" font-family="Arial" text-anchor="end"><tspan x="231.29999999999998" dy="11">4</tspan></text><text x="239.4" y="-17.60000000000002" dominant-baseline="central" fill="black" font-size="14" font-family="Arial" text-anchor="start"><tspan x="239.4" dy="14">GND</tspan></text><text x="381.024" y="69.1" dominant-baseline="ideographic" fill="black" font-size="11" font-family="Arial" text-anchor="start"><tspan x="381.024" dy="11">5</tspan></text><text x="372.924" y="68.8" dominant-baseline="central" fill="black" font-size="14" font-family="Arial" text-anchor="end"><tspan x="372.924" dy="14">SW</tspan></text><text x="381.024" y="40.3" dominant-baseline="ideographic" fill="black" font-size="11" font-family="Arial" text-anchor="start"><tspan x="381.024" dy="11">1</tspan></text><text x="372.924" y="40.0" dominant-baseline="central" fill="black" font-size="14" font-family="Arial" text-anchor="end"><tspan x="372.924" dy="14">Freq.Adj</tspan></text><text x="381.024" y="11.499999999999986" dominant-baseline="ideographic" fill="black" font-size="11" font-family="Arial" text-anchor="start"><tspan x="381.024" dy="11">3</tspan></text><text x="372.924" y="11.199999999999989" dominant-baseline="central" fill="black" font-size="14" font-family="Arial" text-anchor="end"><tspan x="372.924" dy="14">FB</tspan></text><text x="306.16200000000003" y="-70.60000000000002" dominant-baseline="ideographic" fill="black" font-size="13" font-family="Arial" text-anchor="middle"><tspan x="306.16200000000003" dy="13">U5</tspan></text><text x="309.762" y="22.999999999999986" dominant-baseline="central" fill="black" font-size="13" font-family="Arial" text-anchor="middle"><tspan x="309.762" dy="13">LM2586SX-ADJ</tspan></text><text x="185.4" y="64.5" dominant-baseline="central" fill="black" font-size="11" font-family="Arial" text-anchor="start"><tspan x="185.4" dy="11">R9</tspan><tspan x="185.4" dy="11">3kΩ</tspan></text><text x="228.60000000000002" y="64.5" dominant-baseline="central" fill="black" font-size="11" font-family="Arial" text-anchor="start"><tspan x="228.60000000000002" dy="11">C15</tspan><tspan x="228.60000000000002" dy="11">47nF</tspan></text><text x="352.89077935093445" y="-77.80000000000001" dominant-baseline="central" fill="black" font-size="13" font-family="Arial" text-anchor="end"><tspan x="352.89077935093445" dy="13">T1</tspan></text><text x="511.2" y="-95.80000000000001" dominant-baseline="ideographic" fill="black" font-size="11" font-family="Arial" text-anchor="middle"><tspan x="511.2" dy="11">D4</tspan><tspan x="511.2" dy="11">SS34</tspan></text><text x="565.1999999999999" y="-86.80000000000001" dominant-baseline="ideographic" fill="black" font-size="11" font-family="Arial" text-anchor="middle"><tspan x="565.1999999999999" dy="11">C14</tspan><tspan x="565.1999999999999" dy="11">100µF</tspan></text><text x="565.1999999999999" y="-58.00000000000001" dominant-baseline="ideographic" fill="black" font-size="11" font-family="Arial" text-anchor="middle"><tspan x="565.1999999999999" dy="11">R7</tspan><tspan x="565.1999999999999" dy="11">10kΩ</tspan></text><text x="565.1999999999999" y="-4.000000000000011" dominant-baseline="ideographic" fill="black" font-size="11" font-family="Arial" text-anchor="middle"><tspan x="565.1999999999999" dy="11">R8</tspan><tspan x="565.1999999999999" dy="11">910Ω</tspan></text><circle cx="0.0" cy="-0.0" r="2.6999999999999997" style="stroke:black;fill:white;stroke-width:2.0;stroke-dasharray:-;" /><text x="-13.5" y="-14.0" dominant-baseline="central" fill="black" font-size="14" font-family="Arial" text-anchor="end"><tspan x="-13.5" dy="14">+15V IN</tspan></text><circle cx="72.0" cy="18.0" r="2.6999999999999997" style="stroke:black;fill:black;stroke-width:2.0;stroke-dasharray:-;" /><circle cx="108.0" cy="18.0" r="2.6999999999999997" style="stroke:black;fill:black;stroke-width:2.0;stroke-dasharray:-;" /><circle cx="169.20000000000002" cy="54.0" r="2.6999999999999997" style="stroke:black;fill:black;stroke-width:2.0;stroke-dasharray:-;" /><circle cx="169.20000000000002" cy="108.0" r="2.6999999999999997" style="stroke:black;fill:black;stroke-width:2.0;stroke-dasharray:-;" /><circle cx="212.4" cy="108.0" r="2.6999999999999997" style="stroke:black;fill:black;stroke-width:2.0;stroke-dasharray:-;" /><circle cx="360.0" cy="-57.60000000000001" r="2.6999999999999997" style="stroke:black;fill:black;stroke-width:2.0;stroke-dasharray:-;" /><circle cx="403.2" cy="-57.60000000000001" r="2.6999999999999997" style="stroke:black;fill:black;stroke-width:2.0;stroke-dasharray:-;" /><circle cx="565.1999999999999" cy="-57.60000000000001" r="2.6999999999999997" style="stroke:black;fill:black;stroke-width:2.0;stroke-dasharray:-;" /><circle cx="619.1999999999999" cy="-57.60000000000001" r="2.6999999999999997" style="stroke:black;fill:white;stroke-width:2.0;stroke-dasharray:-;" /><text x="632.6999999999999" y="-71.60000000000001" dominant-baseline="central" fill="black" font-size="14" font-family="Arial" text-anchor="start"><tspan x="632.6999999999999" dy="14">-15V OUT</tspan></text><circle cx="565.1999999999999" cy="-28.80000000000001" r="2.6999999999999997" style="stroke:black;fill:black;stroke-width:2.0;stroke-dasharray:-;" /><circle cx="565.1999999999999" cy="25.19999999999999" r="2.6999999999999997" style="stroke:black;fill:black;stroke-width:2.0;stroke-dasharray:-;" /><circle cx="396.324" cy="25.19999999999997" r="2.6999999999999997" style="stroke:black;fill:black;stroke-width:2.0;stroke-dasharray:-;" /></svg>