<svg xmlns="http://www.w3.org/2000/svg" xmlns:xlink="http://www.w3.org/1999/xlink" xml:lang="en" height="421.04pt" width="769.4359999999998pt" viewBox="-29.631999999999998 -148.60000000000002 769.4359999999998 421.04"><path d="M 468.0 -79.2 a 7.2 7.2 0 1 1 0.0 14.400000000000006" style="stroke:black;fill:none;stroke-width:2.0;stroke-dasharray:-;" /><path d="M 468.0 -93.6 a 7.2 7.2 0 1 1 0.0 14.399999999999991" style="stroke:black;fill:none;stroke-width:2.0;stroke-dasharray:-;" /><path d="M 468.0 -108.0 a 7.2 7.2 0 1 1 0.0 14.400000000000006" style="stroke:black;fill:none;stroke-width:2.0;stroke-dasharray:-;" /><path d="M 504.0 -64.8 a 7.2 7.2 0 1 1 0.0 -14.400000000000006" style="stroke:black;fill:none;stroke-width:2.0;stroke-dasharray:-;" /><path d="M 504.0 -79.2 a 7.2 7.2 0 1 1 0.0 -14.399999999999991" style="stroke:black;fill:none;stroke-width:2.0;stroke-dasharray:-;" /><path d="M 504.0 -93.6 a 7.2 7.2 0 1 1 0.0 -14.400000000000006" style="stroke:black;fill:none;stroke-width:2.0;stroke-dasharray:-;" /><polygon points="564.3000000000001,8.999999999999995 551.6999999999999,-7.38462019885854e-15 564.3000000000001,-9.000000000000005 " style="stroke:black;fill:none;stroke-width:2.0;stroke-dasharray:-;stroke-linecap:round;stroke-linejoin:round;" /><path d="M 252.0,129.60000000000002 L 432.0,129.60000000000002 L 432.0,-43.2 L 252.0,-43.2 L 252.0,129.60000000000002" style="stroke:black;fill:none;stroke-width:2.0;stroke-dasharray:-;stroke-linecap:round;stroke-linejoin:round;" /><path d="M 252.0,-0.0 L 216.0,-0.0" style="stroke:black;fill:none;stroke-width:2.0;stroke-dasharray:-;stroke-linecap:round;stroke-linejoin:round;" /><path d="M 252.0,28.80000000000001 L 216.0,28.80000000000001" style="stroke:black;fill:none;stroke-width:2.0;stroke-dasharray:-;stroke-linecap:round;stroke-linejoin:round;" /><path d="M 252.0,57.60000000000002 L 216.0,57.60000000000002" style="stroke:black;fill:none;stroke-width:2.0;stroke-dasharray:-;stroke-linecap:round;stroke-linejoin:round;" /><path d="M 252.0,86.4 L 216.0,86.4" style="stroke:black;fill:none;stroke-width:2.0;stroke-dasharray:-;stroke-linecap:round;stroke-linejoin:round;" /><path d="M 432.0,-0.0 L 468.0,-0.0" style="stroke:black;fill:none;stroke-width:2.0;stroke-dasharray:-;stroke-linecap:round;stroke-linejoin:round;" /><path d="M 432.0,28.80000000000001 L 468.0,28.80000000000001" style="stroke:black;fill:none;stroke-width:2.0;stroke-dasharray:-;stroke-linecap:round;stroke-linejoin:round;" /><path d="M 432.0,86.4 L 468.0,86.4" style="stroke:black;fill:none;stroke-width:2.0;stroke-dasharray:-;stroke-linecap:round;stroke-linejoin:round;" /><path d="M 0.0,-0.0 L 18.0,-0.0 L 36.0,-0.0" style="stroke:black;fill:none;stroke-width:2.0;stroke-dasharray:-;stroke-linecap:round;stroke-linejoin:round;" /><path d="M 36.0,-0.0 L 45.0,-0.0 L 54.0,-0.0" style="stroke:black;fill:none;stroke-width:2.0;stroke-dasharray:-;stroke-linecap:round;stroke-linejoin:round;" /><path d="M 54.0,-0.0 L 53.99999999999999,41.76 M 62.99999999999999,41.76 L 44.99999999999999,41.76 M 62.99999999999999,48.239999999999995 L 44.99999999999999,48.239999999999995 M 53.99999999999999,48.239999999999995 L 53.999999999999986,90.0" style="stroke:black;fill:none;stroke-width:2.0;stroke-dasharray:-;stroke-linecap:round;stroke-linejoin:round;" /><path d="M 53.999999999999986,90.0 L 53.999999999999986,104.39999999999999 L 44.999999999999986,104.39999999999999 L 62.999999999999986,104.39999999999999 M 47.69999999999998,108.72 L 60.29999999999998,108.72 M 52.19999999999998,113.04 L 55.79999999999998,113.04" style="stroke:black;fill:none;stroke-width:2.0;stroke-dasharray:-;stroke-linecap:round;stroke-linejoin:round;" /><path d="M 36.0,-0.0 L 81.0,-0.0 L 126.0,-0.0" style="stroke:black;fill:none;stroke-width:2.0;stroke-dasharray:-;stroke-linecap:round;stroke-linejoin:round;" /><path d="M 126.0,-0.0 L 126.0,41.76 M 135.0,41.76 L 117.0,41.76 M 134.99999999999997,48.239999999999995 L 117.0,48.239999999999995 M 125.99999999999999,48.239999999999995 L 125.99999999999999,90.0" style="stroke:black;fill:none;stroke-width:2.0;stroke-dasharray:-;stroke-linecap:round;stroke-linejoin:round;" /><path d="M 125.99999999999999,90.0 L 125.99999999999999,104.39999999999999 L 116.99999999999999,104.39999999999999 L 134.99999999999997,104.39999999999999 M 119.69999999999999,108.72 L 132.29999999999998,108.72 M 124.19999999999999,113.04 L 127.79999999999998,113.04" style="stroke:black;fill:none;stroke-width:2.0;stroke-dasharray:-;stroke-linecap:round;stroke-linejoin:round;" /><path d="M 126.0,-0.0 L 171.0,-0.0 L 216.0,-0.0" style="stroke:black;fill:none;stroke-width:2.0;stroke-dasharray:-;stroke-linecap:round;stroke-linejoin:round;" /><path d="M 216.0,86.4 L 216.0,100.80000000000001 L 216.0,115.2" style="stroke:black;fill:none;stroke-width:2.0;stroke-dasharray:-;stroke-linecap:round;stroke-linejoin:round;" /><path d="M 216.0,115.2 L 216.0,129.6 L 207.0,129.6 L 225.0,129.6 M 209.70000000000002,133.92000000000002 L 222.29999999999998,133.92000000000002 M 214.20000000000002,138.24 L 217.79999999999998,138.24" style="stroke:black;fill:none;stroke-width:2.0;stroke-dasharray:-;stroke-linecap:round;stroke-linejoin:round;" /><path d="M 216.0,28.80000000000001 L 198.0,28.800000000000004 L 180.0,28.800000000000004" style="stroke:black;fill:none;stroke-width:2.0;stroke-dasharray:-;stroke-linecap:round;stroke-linejoin:round;" /><path d="M 180.0,28.800000000000004 L 180.0,100.80000000000001 L 179.99999999999997,172.79999999999998" style="stroke:black;fill:none;stroke-width:2.0;stroke-dasharray:-;stroke-linecap:round;stroke-linejoin:round;" /><path d="M 179.99999999999997,172.79999999999998 L 138.59999999999997,172.79999999999998 L 136.49999999999997,179.1 L 132.29999999999995,166.5 L 128.09999999999997,179.1 L 123.89999999999996,166.5 L 119.69999999999997,179.1 L 115.49999999999999,166.5 L 113.39999999999998,172.79999999999998 L 71.99999999999999,172.79999999999998" style="stroke:black;fill:none;stroke-width:2.0;stroke-dasharray:-;stroke-linecap:round;stroke-linejoin:round;" /><path d="M 71.99999999999999,172.79999999999998 L 71.99999999999997,205.56 M 80.99999999999999,205.56 L 62.99999999999998,205.56 M 80.99999999999999,212.04 L 62.99999999999998,212.04 M 71.99999999999997,212.04 L 71.99999999999997,244.79999999999998" style="stroke:black;fill:none;stroke-width:2.0;stroke-dasharray:-;stroke-linecap:round;stroke-linejoin:round;" /><path d="M 71.99999999999997,244.79999999999998 L 71.99999999999997,259.2 L 62.99999999999997,259.2 L 80.99999999999997,259.2 M 65.69999999999996,263.52 L 78.29999999999995,263.52 M 70.19999999999996,267.84 L 73.79999999999995,267.84" style="stroke:black;fill:none;stroke-width:2.0;stroke-dasharray:-;stroke-linecap:round;stroke-linejoin:round;" /><path d="M 71.99999999999999,172.79999999999998 L 35.999999999999986,172.79999999999998 L -1.5987211554602254e-14,172.79999999999998" style="stroke:black;fill:none;stroke-width:2.0;stroke-dasharray:-;stroke-linecap:round;stroke-linejoin:round;" /><path d="M -1.5987211554602254e-14,172.79999999999998 L -1.9293757912300106e-14,190.79999999999998 L -2.260030426999796e-14,208.79999999999998" style="stroke:black;fill:none;stroke-width:2.0;stroke-dasharray:-;stroke-linecap:round;stroke-linejoin:round;" /><path d="M -2.260030426999796e-14,208.79999999999998 L -2.260030426999796e-14,223.20000000000002 L -9.000000000000021,223.20000000000002 L 8.999999999999977,223.20000000000002 M -6.300000000000023,227.52 L 6.299999999999977,227.52 M -1.8000000000000225,231.83999999999997 L 1.7999999999999776,231.83999999999997" style="stroke:black;fill:none;stroke-width:2.0;stroke-dasharray:-;stroke-linecap:round;stroke-linejoin:round;" /><path d="M 36.0,-0.0 L 36.00000000000001,-72.0 L 36.00000000000001,-144.0" style="stroke:black;fill:none;stroke-width:2.0;stroke-dasharray:-;stroke-linecap:round;stroke-linejoin:round;" /><path d="M 36.00000000000001,-144.0 L 252.0,-144.0 L 468.0,-144.0" style="stroke:black;fill:none;stroke-width:2.0;stroke-dasharray:-;stroke-linecap:round;stroke-linejoin:round;" /><path d="M 468.0,-144.0 L 468.0,-126.0 L 468.0,-108.0" style="stroke:black;fill:none;stroke-width:2.0;stroke-dasharray:-;stroke-linecap:round;stroke-linejoin:round;" /><path d="M 482.40000000000003,-108.0 L 482.40000000000003,-64.8" style="stroke:black;fill:none;stroke-width:2.0;stroke-dasharray:-;stroke-linecap:round;stroke-linejoin:round;" /><path d="M 489.59999999999997,-108.0 L 489.59999999999997,-64.8" style="stroke:black;fill:none;stroke-width:2.0;stroke-dasharray:-;stroke-linecap:round;stroke-linejoin:round;" /><path d="M 468.0,-64.8 L 468.0,-32.4 L 468.0,-0.0" style="stroke:black;fill:none;stroke-width:2.0;stroke-dasharray:-;stroke-linecap:round;stroke-linejoin:round;" /><path d="M 468.0,86.4 L 468.0,104.4 L 468.0,122.4" style="stroke:black;fill:none;stroke-width:2.0;stroke-dasharray:-;stroke-linecap:round;stroke-linejoin:round;" /><path d="M 468.0,122.4 L 468.0,163.8 L 474.29999999999995,165.9 L 461.7,170.10000000000002 L 474.29999999999995,174.3 L 461.7,178.50000000000003 L 474.29999999999995,182.70000000000002 L 461.7,186.89999999999998 L 468.0,189.0 L 468.0,230.4" style="stroke:black;fill:none;stroke-width:2.0;stroke-dasharray:-;stroke-linecap:round;stroke-linejoin:round;" /><path d="M 468.0,230.4 L 468.0,244.8 L 459.0,244.8 L 477.0,244.8 M 461.7,249.12 L 474.3,249.12 M 466.2,253.44 L 469.8,253.44" style="stroke:black;fill:none;stroke-width:2.0;stroke-dasharray:-;stroke-linecap:round;stroke-linejoin:round;" /><path d="M 468.0,86.4 L 509.40000000000003,86.4 L 511.5,80.10000000000002 L 515.6999999999999,92.7 L 519.9,80.10000000000002 L 524.1,92.7 L 528.3000000000001,80.10000000000002 L 532.5,92.7 L 534.6,86.4 L 576.0,86.4" style="stroke:black;fill:none;stroke-width:2.0;stroke-dasharray:-;stroke-linecap:round;stroke-linejoin:round;" /><path d="M 576.0,86.4 L 594.0,86.4 L 612.0,86.4" style="stroke:black;fill:none;stroke-width:2.0;stroke-dasharray:-;stroke-linecap:round;stroke-linejoin:round;" /><path d="M 612.0,86.4 L 612.0,43.2 L 612.0,-0.0" style="stroke:black;fill:none;stroke-width:2.0;stroke-dasharray:-;stroke-linecap:round;stroke-linejoin:round;" /><path d="M 612.0,-0.0 L 564.3000000000001,-5.841565231932875e-15 M 551.6999999999999,8.999999999999993 L 551.6999999999999,-9.000000000000007 M 551.6999999999999,-7.38462019885854e-15 L 504.0,-1.3226185430791413e-14" style="stroke:black;fill:none;stroke-width:2.0;stroke-dasharray:-;stroke-linecap:round;stroke-linejoin:round;" /><path d="M 504.0,-1.3226185430791413e-14 L 450.0,-1.9839278146187122e-14 L 396.0,-2.6452370861582827e-14" style="stroke:black;fill:none;stroke-width:2.0;stroke-dasharray:-;stroke-linecap:round;stroke-linejoin:round;" /><path d="M 396.0,-2.6452370861582827e-14 L 342.0,-3.3065463576978534e-14 L 288.0,-3.9678556292374245e-14" style="stroke:black;fill:none;stroke-width:2.0;stroke-dasharray:-;stroke-linecap:round;stroke-linejoin:round;" /><path d="M 288.0,-3.9678556292374245e-14 L 396.0,-32.40000000000001 L 504.0,-64.79999999999998" style="stroke:black;fill:none;stroke-width:2.0;stroke-dasharray:-;stroke-linecap:round;stroke-linejoin:round;" /><path d="M 612.0,-0.0 L 648.0,-0.0 L 684.0,-0.0" style="stroke:black;fill:none;stroke-width:2.0;stroke-dasharray:-;stroke-linecap:round;stroke-linejoin:round;" /><path d="M 684.0,-0.0 L 684.0,18.0 L 684.0,36.0" style="stroke:black;fill:none;stroke-width:2.0;stroke-dasharray:-;stroke-linecap:round;stroke-linejoin:round;" /><path d="M 684.0,36.0 L 684.0,86.76 M 693.0,86.76 L 675.0,86.76 M 693.0,93.24 L 675.0,93.24 M 684.0,93.24 L 684.0,144.0" style="stroke:black;fill:none;stroke-width:2.0;stroke-dasharray:-;stroke-linecap:round;stroke-linejoin:round;" /><path d="M 684.0,144.0 L 684.0,153.0 L 684.0,162.0" style="stroke:black;fill:none;stroke-width:2.0;stroke-dasharray:-;stroke-linecap:round;stroke-linejoin:round;" /><path d="M 684.0,162.0 L 684.0,176.4 L 675.0,176.4 L 693.0,176.4 M 677.6999999999999,180.71999999999997 L 690.3000000000001,180.71999999999997 M 682.1999999999999,185.04 L 685.8000000000001,185.04" style="stroke:black;fill:none;stroke-width:2.0;stroke-dasharray:-;stroke-linecap:round;stroke-linejoin:round;" /><path d="M 684.0,-0.0 L 702.0,-0.0 L 720.0,-0.0" style="stroke:black;fill:none;stroke-width:2.0;stroke-dasharray:-;stroke-linecap:round;stroke-linejoin:round;" /><text x="249.29999999999998" y="-13.700000000000006" dominant-baseline="ideographic" fill="black" font-size="11" font-family="Arial" text-anchor="end"><tspan x="249.29999999999998" dy="11">7</tspan></text><text x="257.40000000000003" y="-14.0" dominant-baseline="central" fill="black" font-size="14" font-family="Arial" text-anchor="start"><tspan x="257.40000000000003" dy="14">VIN</tspan></text><text x="249.29999999999998" y="15.100000000000001" dominant-baseline="ideographic" fill="black" font-size="11" font-family="Arial" text-anchor="end"><tspan x="249.29999999999998" dy="11">2</tspan></text><text x="257.40000000000003" y="14.800000000000011" dominant-baseline="central" fill="black" font-size="14" font-family="Arial" text-anchor="start"><tspan x="257.40000000000003" dy="14">COMP</tspan></text><text x="249.29999999999998" y="43.90000000000001" dominant-baseline="ideographic" fill="black" font-size="11" font-family="Arial" text-anchor="end"><tspan x="249.29999999999998" dy="11">6</tspan></text><text x="257.40000000000003" y="43.60000000000002" dominant-baseline="central" fill="black" font-size="14" font-family="Arial" text-anchor="start"><tspan x="257.40000000000003" dy="14">Freq.Sync.</tspan></text><text x="249.29999999999998" y="72.7" dominant-baseline="ideographic" fill="black" font-size="11" font-family="Arial" text-anchor="end"><tspan x="249.29999999999998" dy="11">4</tspan></text><text x="257.40000000000003" y="72.4" dominant-baseline="central" fill="black" font-size="14" font-family="Arial" text-anchor="start"><tspan x="257.40000000000003" dy="14">GND</tspan></text><text x="434.7" y="-13.700000000000006" dominant-baseline="ideographic" fill="black" font-size="11" font-family="Arial" text-anchor="start"><tspan x="434.7" dy="11">5</tspan></text><text x="426.59999999999997" y="-14.0" dominant-baseline="central" fill="black" font-size="14" font-family="Arial" text-anchor="end"><tspan x="426.59999999999997" dy="14">SW</tspan></text><text x="434.7" y="15.100000000000001" dominant-baseline="ideographic" fill="black" font-size="11" font-family="Arial" text-anchor="start"><tspan x="434.7" dy="11">1</tspan></text><text x="426.59999999999997" y="14.800000000000011" dominant-baseline="central" fill="black" font-size="14" font-family="Arial" text-anchor="end"><tspan x="426.59999999999997" dy="14">Freq.Adj.</tspan></text><text x="434.7" y="72.7" dominant-baseline="ideographic" fill="black" font-size="11" font-family="Arial" text-anchor="start"><tspan x="434.7" dy="11">3</tspan></text><text x="426.59999999999997" y="72.4" dominant-baseline="central" fill="black" font-size="14" font-family="Arial" text-anchor="end"><tspan x="426.59999999999997" dy="14">FB</tspan></text><text x="342.0" y="-78.4" dominant-baseline="ideographic" fill="black" font-size="14" font-family="Arial" text-anchor="middle"><tspan x="342.0" dy="14">U5</tspan><tspan x="342.0" dy="14">LM2586SX-ADJ</tspan></text><text x="66.6" y="28.5" dominant-baseline="central" fill="black" font-size="11" font-family="Arial" text-anchor="start"><tspan x="66.6" dy="11">C13</tspan><tspan x="66.6" dy="11">100µF</tspan></text><text x="138.6" y="28.5" dominant-baseline="central" fill="black" font-size="11" font-family="Arial" text-anchor="start"><tspan x="138.6" dy="11">C16</tspan><tspan x="138.6" dy="11">100nF</tspan></text><text x="125.99999999999997" y="188.25999999999996" dominant-baseline="hanging" fill="black" font-size="11" font-family="Arial" text-anchor="middle"><tspan x="125.99999999999997" dy="11">R9</tspan><tspan x="125.99999999999997" dy="11">3kΩ</tspan></text><text x="43.199999999999974" y="197.79999999999998" dominant-baseline="hanging" fill="black" font-size="11" font-family="Arial" text-anchor="middle"><tspan x="43.199999999999974" dy="11">C15</tspan><tspan x="43.199999999999974" dy="11">47nF</tspan></text><text x="450.0" y="-102.89999999999999" dominant-baseline="central" fill="black" font-size="11" font-family="Arial" text-anchor="end"><tspan x="450.0" dy="11">T1</tspan><tspan x="450.0" dy="11">1:1</tspan></text><text x="449.09999999999997" y="159.9" dominant-baseline="central" fill="black" font-size="11" font-family="Arial" text-anchor="end"><tspan x="449.09999999999997" dy="11">R8</tspan><tspan x="449.09999999999997" dy="11">910Ω</tspan></text><text x="522.0" y="101.86000000000001" dominant-baseline="hanging" fill="black" font-size="11" font-family="Arial" text-anchor="middle"><tspan x="522.0" dy="11">R7</tspan><tspan x="522.0" dy="11">10kΩ</tspan></text><text x="558.0" y="-45.400000000000006" dominant-baseline="ideographic" fill="black" font-size="11" font-family="Arial" text-anchor="middle"><tspan x="558.0" dy="11">D4</tspan><tspan x="558.0" dy="11">SS34</tspan></text><text x="667.8000000000001" y="73.5" dominant-baseline="central" fill="black" font-size="11" font-family="Arial" text-anchor="end"><tspan x="667.8000000000001" dy="11">C14</tspan><tspan x="667.8000000000001" dy="11">100µF</tspan></text><circle cx="0.0" cy="-0.0" r="2.6999999999999997" style="stroke:black;fill:white;stroke-width:2.0;stroke-dasharray:-;" /><text x="0.0" y="-34.7" dominant-baseline="ideographic" fill="black" font-size="14" font-family="Arial" text-anchor="middle"><tspan x="0.0" dy="14">+15V IN</tspan></text><circle cx="36.0" cy="-0.0" r="2.6999999999999997" style="stroke:black;fill:black;stroke-width:2.0;stroke-dasharray:-;" /><circle cx="54.0" cy="-0.0" r="2.6999999999999997" style="stroke:black;fill:black;stroke-width:2.0;stroke-dasharray:-;" /><circle cx="126.0" cy="-0.0" r="2.6999999999999997" style="stroke:black;fill:black;stroke-width:2.0;stroke-dasharray:-;" /><circle cx="71.99999999999999" cy="172.79999999999998" r="2.6999999999999997" style="stroke:black;fill:black;stroke-width:2.0;stroke-dasharray:-;" /><circle cx="468.0" cy="86.4" r="2.6999999999999997" style="stroke:black;fill:black;stroke-width:2.0;stroke-dasharray:-;" /><circle cx="612.0" cy="-0.0" r="2.6999999999999997" style="stroke:black;fill:black;stroke-width:2.0;stroke-dasharray:-;" /><circle cx="684.0" cy="-0.0" r="2.6999999999999997" style="stroke:black;fill:black;stroke-width:2.0;stroke-dasharray:-;" /><circle cx="720.0" cy="-0.0" r="2.6999999999999997" style="stroke:black;fill:white;stroke-width:2.0;stroke-dasharray:-;" /><text x="720.0" y="-48.7" dominant-baseline="ideographic" fill="black" font-size="14" font-family="Arial" text-anchor="middle"><tspan x="720.0" dy="14">-15V</tspan><tspan x="720.0" dy="14">OUT</tspan></text></svg>