<svg xmlns="http://www.w3.org/2000/svg" xmlns:xlink="http://www.w3.org/1999/xlink" xml:lang="en" height="184.7pt" width="716.7019999999999pt" viewBox="-289.102 -134.2 716.7019999999999 184.7"><path d="M 270.0 -46.8 a 4.5 4.5 0 1 1 9.0 0.0" style="stroke:black;fill:none;stroke-width:2.0;stroke-dasharray:-;" /><path d="M 279.0 -46.8 a 4.5 4.5 0 1 1 9.0 0.0" style="stroke:black;fill:none;stroke-width:2.0;stroke-dasharray:-;" /><path d="M 288.0 -46.8 a 4.5 4.5 0 1 1 9.0 0.0" style="stroke:black;fill:none;stroke-width:2.0;stroke-dasharray:-;" /><path d="M 297.0 -46.8 a 4.5 4.5 0 1 1 9.0 0.0" style="stroke:black;fill:none;stroke-width:2.0;stroke-dasharray:-;" /><path d="M 0.0,-0.0 L 162.0,-0.0 L 162.0,-129.6 L 0.0,-129.6 L 0.0,-0.0" style="stroke:black;fill:none;stroke-width:2.0;stroke-dasharray:-;stroke-linecap:round;stroke-linejoin:round;" /><path d="M 0.0,-28.8 L -36.0,-28.8" style="stroke:black;fill:none;stroke-width:2.0;stroke-dasharray:-;stroke-linecap:round;stroke-linejoin:round;" /><path d="M 0.0,-64.8 L -36.0,-64.8" style="stroke:black;fill:none;stroke-width:2.0;stroke-dasharray:-;stroke-linecap:round;stroke-linejoin:round;" /><path d="M 0.0,-100.8 L -36.0,-100.8" style="stroke:black;fill:none;stroke-width:2.0;stroke-dasharray:-;stroke-linecap:round;stroke-linejoin:round;" /><path d="M 162.0,-46.800000000000004 L 198.0,-46.800000000000004" style="stroke:black;fill:none;stroke-width:2.0;stroke-dasharray:-;stroke-linecap:round;stroke-linejoin:round;" /><path d="M 162.0,-82.8 L 198.0,-82.8" style="stroke:black;fill:none;stroke-width:2.0;stroke-dasharray:-;stroke-linecap:round;stroke-linejoin:round;" /><path d="M -36.0,-100.8 L -72.0,-100.8 L -108.0,-100.80000000000001" style="stroke:black;fill:none;stroke-width:2.0;stroke-dasharray:-;stroke-linecap:round;stroke-linejoin:round;" /><path d="M -108.0,-100.80000000000001 L -144.0,-100.80000000000001 L -180.0,-100.80000000000003" style="stroke:black;fill:none;stroke-width:2.0;stroke-dasharray:-;stroke-linecap:round;stroke-linejoin:round;" /><path d="M -180.0,-100.80000000000003 L -216.0,-100.80000000000003 L -252.0,-100.80000000000004" style="stroke:black;fill:none;stroke-width:2.0;stroke-dasharray:-;stroke-linecap:round;stroke-linejoin:round;" /><path d="M -180.0,-100.80000000000003 L -180.0,-91.80000000000003 L -180.0,-82.80000000000003" style="stroke:black;fill:none;stroke-width:2.0;stroke-dasharray:-;stroke-linecap:round;stroke-linejoin:round;" /><path d="M -180.0,-82.80000000000003 L -180.0,-32.04000000000003 M -171.0,-32.04000000000003 L -189.0,-32.04000000000003 M -171.0,-25.56000000000003 L -189.0,-25.56000000000003 M -180.0,-25.56000000000003 L -180.00000000000003,25.199999999999974" style="stroke:black;fill:none;stroke-width:2.0;stroke-dasharray:-;stroke-linecap:round;stroke-linejoin:round;" /><path d="M -180.00000000000003,25.199999999999974 L -180.00000000000003,34.199999999999974 L -180.00000000000003,43.199999999999974" style="stroke:black;fill:none;stroke-width:2.0;stroke-dasharray:-;stroke-linecap:round;stroke-linejoin:round;" /><path d="M -108.0,-100.80000000000001 L -108.0,-91.80000000000001 L -108.0,-82.80000000000001" style="stroke:black;fill:none;stroke-width:2.0;stroke-dasharray:-;stroke-linecap:round;stroke-linejoin:round;" /><path d="M -108.0,-82.80000000000001 L -108.00000000000001,-32.04000000000001 M -99.00000000000001,-32.04000000000001 L -117.00000000000001,-32.04000000000001 M -99.00000000000001,-25.560000000000016 L -117.00000000000001,-25.560000000000016 M -108.00000000000001,-25.560000000000016 L -108.00000000000001,25.19999999999999" style="stroke:black;fill:none;stroke-width:2.0;stroke-dasharray:-;stroke-linecap:round;stroke-linejoin:round;" /><path d="M -108.00000000000001,25.19999999999999 L -108.00000000000001,34.19999999999999 L -108.00000000000001,43.19999999999999" style="stroke:black;fill:none;stroke-width:2.0;stroke-dasharray:-;stroke-linecap:round;stroke-linejoin:round;" /><path d="M -36.0,-28.8 L -35.99999999999999,7.199999999999994 L -35.99999999999999,43.19999999999999" style="stroke:black;fill:none;stroke-width:2.0;stroke-dasharray:-;stroke-linecap:round;stroke-linejoin:round;" /><path d="M 198.0,-46.800000000000004 L 216.0,-46.800000000000004 L 234.0,-46.800000000000004" style="stroke:black;fill:none;stroke-width:2.0;stroke-dasharray:-;stroke-linecap:round;stroke-linejoin:round;" /><path d="M 234.0,-46.800000000000004 L 270.0,-46.800000000000004 M 306.0,-46.800000000000004 L 342.0,-46.800000000000004" style="stroke:black;fill:none;stroke-width:2.0;stroke-dasharray:-;stroke-linecap:round;stroke-linejoin:round;" /><path d="M 342.0,-46.800000000000004 L 378.0,-46.800000000000004 L 414.0,-46.800000000000004" style="stroke:black;fill:none;stroke-width:2.0;stroke-dasharray:-;stroke-linecap:round;stroke-linejoin:round;" /><path d="M 414.0,-46.800000000000004 L 414.0,-28.8 L 414.0,-10.8" style="stroke:black;fill:none;stroke-width:2.0;stroke-dasharray:-;stroke-linecap:round;stroke-linejoin:round;" /><path d="M 414.0,-10.8 L 414.0,3.599999999999999 L 405.0,3.599999999999999 L 423.0,3.599999999999999 M 407.7,7.919999999999999 L 420.3,7.919999999999999 M 412.2,12.239999999999998 L 415.8,12.239999999999998" style="stroke:black;fill:none;stroke-width:2.0;stroke-dasharray:-;stroke-linecap:round;stroke-linejoin:round;" /><text x="-2.6999999999999997" y="-42.5" dominant-baseline="ideographic" fill="black" font-size="11" font-family="Arial" text-anchor="end"><tspan x="-2.6999999999999997" dy="11">3</tspan></text><text x="5.3999999999999995" y="-42.8" dominant-baseline="central" fill="black" font-size="14" font-family="Arial" text-anchor="start"><tspan x="5.3999999999999995" dy="14">GND</tspan></text><text x="-2.6999999999999997" y="-78.5" dominant-baseline="ideographic" fill="black" font-size="11" font-family="Arial" text-anchor="end"><tspan x="-2.6999999999999997" dy="11">5</tspan></text><text x="5.3999999999999995" y="-78.8" dominant-baseline="central" fill="black" font-size="14" font-family="Arial" text-anchor="start"><tspan x="5.3999999999999995" dy="14">ON</tspan></text><text x="-2.6999999999999997" y="-114.5" dominant-baseline="ideographic" fill="black" font-size="11" font-family="Arial" text-anchor="end"><tspan x="-2.6999999999999997" dy="11">1</tspan></text><text x="5.3999999999999995" y="-114.8" dominant-baseline="central" fill="black" font-size="14" font-family="Arial" text-anchor="start"><tspan x="5.3999999999999995" dy="14">VIN</tspan></text><text x="164.70000000000002" y="-60.5" dominant-baseline="ideographic" fill="black" font-size="11" font-family="Arial" text-anchor="start"><tspan x="164.70000000000002" dy="11">2</tspan></text><text x="156.6" y="-60.800000000000004" dominant-baseline="central" fill="black" font-size="14" font-family="Arial" text-anchor="end"><tspan x="156.6" dy="14">OUT</tspan></text><text x="164.70000000000002" y="-96.5" dominant-baseline="ideographic" fill="black" font-size="11" font-family="Arial" text-anchor="start"><tspan x="164.70000000000002" dy="11">4</tspan></text><text x="156.6" y="-96.8" dominant-baseline="central" fill="black" font-size="14" font-family="Arial" text-anchor="end"><tspan x="156.6" dy="14">FB</tspan></text><text x="84.60000000000001" y="-83.4" dominant-baseline="central" fill="black" font-size="10" font-family="Arial" text-anchor="middle"><tspan x="84.60000000000001" dy="10">U4</tspan><tspan x="84.60000000000001" dy="10">LM2596S</tspan></text><text x="-167.4" y="-45.300000000000026" dominant-baseline="central" fill="black" font-size="11" font-family="Arial" text-anchor="start"><tspan x="-167.4" dy="11">C9</tspan><tspan x="-167.4" dy="11">100µF</tspan></text><text x="-95.4" y="-45.30000000000001" dominant-baseline="central" fill="black" font-size="11" font-family="Arial" text-anchor="start"><tspan x="-95.4" dy="11">C10</tspan><tspan x="-95.4" dy="11">100nF</tspan></text><text x="288.0" y="-39.8" dominant-baseline="hanging" fill="black" font-size="11" font-family="Arial" text-anchor="middle"><tspan x="288.0" dy="11">L3</tspan><tspan x="288.0" dy="11">100µH</tspan></text><circle cx="-108.0" cy="-100.80000000000001" r="2.6999999999999997" style="stroke:black;fill:black;stroke-width:2.0;stroke-dasharray:-;" /><circle cx="-180.0" cy="-100.80000000000003" r="2.6999999999999997" style="stroke:black;fill:black;stroke-width:2.0;stroke-dasharray:-;" /><circle cx="-252.0" cy="-100.80000000000004" r="2.6999999999999997" style="stroke:black;fill:white;stroke-width:2.0;stroke-dasharray:-;" /><text x="-258.3" y="-117.30000000000004" dominant-baseline="central" fill="black" font-size="11" font-family="Arial" text-anchor="end"><tspan x="-258.3" dy="11">+15V</tspan><tspan x="-258.3" dy="11">IN</tspan></text><circle cx="-180.00000000000003" cy="43.199999999999974" r="2.6999999999999997" style="stroke:black;fill:black;stroke-width:2.0;stroke-dasharray:-;" /><circle cx="-108.00000000000001" cy="43.19999999999999" r="2.6999999999999997" style="stroke:black;fill:black;stroke-width:2.0;stroke-dasharray:-;" /><circle cx="-35.99999999999999" cy="43.19999999999999" r="2.6999999999999997" style="stroke:black;fill:black;stroke-width:2.0;stroke-dasharray:-;" /><circle cx="234.0" cy="-46.800000000000004" r="2.6999999999999997" style="stroke:black;fill:black;stroke-width:2.0;stroke-dasharray:-;" /><circle cx="342.0" cy="-46.800000000000004" r="2.6999999999999997" style="stroke:black;fill:black;stroke-width:2.0;stroke-dasharray:-;" /></svg>