<svg xmlns="http://www.w3.org/2000/svg" xmlns:xlink="http://www.w3.org/1999/xlink" xml:lang="en" height="234.60000000000002pt" width="841.3009999999999pt" viewBox="-269.701 -148.10000000000002 841.3009999999999 234.60000000000002"><path d="M 252.0 -28.8 a 4.5 4.5 0 1 1 9.0 0.0" style="stroke:black;fill:none;stroke-width:2.0;stroke-dasharray:-;" /><path d="M 261.0 -28.8 a 4.5 4.5 0 1 1 9.0 0.0" style="stroke:black;fill:none;stroke-width:2.0;stroke-dasharray:-;" /><path d="M 270.0 -28.8 a 4.5 4.5 0 1 1 9.0 0.0" style="stroke:black;fill:none;stroke-width:2.0;stroke-dasharray:-;" /><path d="M 279.0 -28.8 a 4.5 4.5 0 1 1 9.0 0.0" style="stroke:black;fill:none;stroke-width:2.0;stroke-dasharray:-;" /><polygon points="207.0,31.499999999999993 216.0,18.9 225.0,31.499999999999993 " style="stroke:black;fill:none;stroke-width:2.0;stroke-dasharray:-;stroke-linecap:round;stroke-linejoin:round;" /><path d="M 0.0,-0.0 L 162.0,-0.0 L 162.0,-129.6 L 0.0,-129.6 L 0.0,-0.0" style="stroke:black;fill:none;stroke-width:2.0;stroke-dasharray:-;stroke-linecap:round;stroke-linejoin:round;" /><path d="M 0.0,-28.8 L -36.0,-28.8" style="stroke:black;fill:none;stroke-width:2.0;stroke-dasharray:-;stroke-linecap:round;stroke-linejoin:round;" /><path d="M 0.0,-64.8 L -36.0,-64.8" style="stroke:black;fill:none;stroke-width:2.0;stroke-dasharray:-;stroke-linecap:round;stroke-linejoin:round;" /><path d="M 0.0,-100.8 L -36.0,-100.8" style="stroke:black;fill:none;stroke-width:2.0;stroke-dasharray:-;stroke-linecap:round;stroke-linejoin:round;" /><path d="M 162.0,-28.8 L 198.0,-28.8" style="stroke:black;fill:none;stroke-width:2.0;stroke-dasharray:-;stroke-linecap:round;stroke-linejoin:round;" /><path d="M 162.0,-100.8 L 198.0,-100.8" style="stroke:black;fill:none;stroke-width:2.0;stroke-dasharray:-;stroke-linecap:round;stroke-linejoin:round;" /><path d="M -36.0,-100.8 L -72.0,-100.8 L -108.0,-100.80000000000001" style="stroke:black;fill:none;stroke-width:2.0;stroke-dasharray:-;stroke-linecap:round;stroke-linejoin:round;" /><path d="M -108.0,-100.80000000000001 L -144.0,-100.80000000000001 L -180.0,-100.80000000000003" style="stroke:black;fill:none;stroke-width:2.0;stroke-dasharray:-;stroke-linecap:round;stroke-linejoin:round;" /><path d="M -180.0,-100.80000000000003 L -216.0,-100.80000000000003 L -252.0,-100.80000000000004" style="stroke:black;fill:none;stroke-width:2.0;stroke-dasharray:-;stroke-linecap:round;stroke-linejoin:round;" /><path d="M -180.0,-100.80000000000003 L -180.0,-32.04000000000003 M -171.0,-32.04000000000003 L -189.0,-32.04000000000003 M -171.0,-25.56000000000003 L -189.0,-25.56000000000003 M -180.0,-25.56000000000003 L -180.00000000000003,43.199999999999974" style="stroke:black;fill:none;stroke-width:2.0;stroke-dasharray:-;stroke-linecap:round;stroke-linejoin:round;" /><path d="M -180.00000000000003,43.199999999999974 L -180.00000000000003,61.199999999999974 L -180.00000000000003,79.19999999999997" style="stroke:black;fill:none;stroke-width:2.0;stroke-dasharray:-;stroke-linecap:round;stroke-linejoin:round;" /><path d="M -108.0,-100.80000000000001 L -108.00000000000001,-32.04000000000001 M -99.00000000000001,-32.04000000000001 L -117.00000000000001,-32.04000000000001 M -99.00000000000001,-25.560000000000016 L -117.00000000000001,-25.560000000000016 M -108.00000000000001,-25.560000000000016 L -108.00000000000003,43.19999999999999" style="stroke:black;fill:none;stroke-width:2.0;stroke-dasharray:-;stroke-linecap:round;stroke-linejoin:round;" /><path d="M -108.00000000000003,43.19999999999999 L -108.00000000000003,61.19999999999998 L -108.00000000000003,79.19999999999997" style="stroke:black;fill:none;stroke-width:2.0;stroke-dasharray:-;stroke-linecap:round;stroke-linejoin:round;" /><path d="M -36.0,-28.8 L -35.99999999999999,25.19999999999998 L -35.99999999999999,79.19999999999997" style="stroke:black;fill:none;stroke-width:2.0;stroke-dasharray:-;stroke-linecap:round;stroke-linejoin:round;" /><path d="M -36.0,-64.8 L -35.99999999999999,7.199999999999982 L -35.99999999999999,79.19999999999997" style="stroke:black;fill:none;stroke-width:2.0;stroke-dasharray:-;stroke-linecap:round;stroke-linejoin:round;" /><path d="M 198.0,-28.8 L 207.0,-28.8 L 216.0,-28.8" style="stroke:black;fill:none;stroke-width:2.0;stroke-dasharray:-;stroke-linecap:round;stroke-linejoin:round;" /><path d="M 216.0,-28.8 L 252.0,-28.8 M 288.0,-28.8 L 324.0,-28.8" style="stroke:black;fill:none;stroke-width:2.0;stroke-dasharray:-;stroke-linecap:round;stroke-linejoin:round;" /><path d="M 324.0,-28.8 L 360.0,-28.8 L 396.0,-28.8" style="stroke:black;fill:none;stroke-width:2.0;stroke-dasharray:-;stroke-linecap:round;stroke-linejoin:round;" /><path d="M 396.0,-28.8 L 396.0,-10.8 L 396.0,7.199999999999998" style="stroke:black;fill:none;stroke-width:2.0;stroke-dasharray:-;stroke-linecap:round;stroke-linejoin:round;" /><path d="M 396.0,7.199999999999998 L 396.0,21.599999999999998 L 387.0,21.599999999999998 L 405.0,21.599999999999998 M 389.7,25.919999999999998 L 402.3,25.919999999999998 M 394.2,30.24 L 397.8,30.24" style="stroke:black;fill:none;stroke-width:2.0;stroke-dasharray:-;stroke-linecap:round;stroke-linejoin:round;" /><path d="M 324.0,-28.8 L 324.0,21.959999999999994 M 333.0,21.959999999999994 L 315.0,21.959999999999994 M 333.0,28.439999999999994 L 315.0,28.439999999999994 M 324.0,28.439999999999994 L 324.0,79.2" style="stroke:black;fill:none;stroke-width:2.0;stroke-dasharray:-;stroke-linecap:round;stroke-linejoin:round;" /><path d="M 324.0,79.2 L 324.0,79.19999999999999 L 324.0,79.19999999999997" style="stroke:black;fill:none;stroke-width:2.0;stroke-dasharray:-;stroke-linecap:round;stroke-linejoin:round;" /><path d="M 216.0,-28.8 L 216.0,18.9 M 207.0,18.9 L 225.0,18.9 M 216.0,31.499999999999993 L 215.99999999999997,79.2" style="stroke:black;fill:none;stroke-width:2.0;stroke-dasharray:-;stroke-linecap:round;stroke-linejoin:round;" /><path d="M 215.99999999999997,79.2 L 215.99999999999997,79.19999999999999 L 215.99999999999997,79.19999999999997" style="stroke:black;fill:none;stroke-width:2.0;stroke-dasharray:-;stroke-linecap:round;stroke-linejoin:round;" /><path d="M -180.00000000000003,79.19999999999997 L 71.99999999999997,79.19999999999997 L 324.0,79.19999999999997" style="stroke:black;fill:none;stroke-width:2.0;stroke-dasharray:-;stroke-linecap:round;stroke-linejoin:round;" /><path d="M 324.0,79.19999999999997 L 387.0,79.19999999999997 L 450.0,79.19999999999997" style="stroke:black;fill:none;stroke-width:2.0;stroke-dasharray:-;stroke-linecap:round;stroke-linejoin:round;" /><path d="M 450.0,79.19999999999997 L 486.0,79.19999999999997 L 522.0,79.19999999999997" style="stroke:black;fill:none;stroke-width:2.0;stroke-dasharray:-;stroke-linecap:round;stroke-linejoin:round;" /><path d="M 450.0,79.19999999999997 L 450.0,37.799999999999976 L 443.7,35.699999999999974 L 456.3,31.499999999999975 L 443.7,27.299999999999983 L 456.3,23.099999999999973 L 443.7,18.89999999999998 L 456.3,14.699999999999989 L 450.0,12.59999999999998 L 450.0,-28.80000000000001" style="stroke:black;fill:none;stroke-width:2.0;stroke-dasharray:-;stroke-linecap:round;stroke-linejoin:round;" /><path d="M 450.0,-28.80000000000001 L 500.76,-28.80000000000001 M 500.76,-37.80000000000001 L 500.76,-19.80000000000001 M 507.24,-37.80000000000001 L 507.24,-19.80000000000001 M 507.24,-28.80000000000001 L 558.0,-28.80000000000001" style="stroke:black;fill:none;stroke-width:2.0;stroke-dasharray:-;stroke-linecap:round;stroke-linejoin:round;" /><path d="M 558.0,-28.80000000000001 L 558.0,-19.80000000000001 L 558.0,-10.80000000000001" style="stroke:black;fill:none;stroke-width:2.0;stroke-dasharray:-;stroke-linecap:round;stroke-linejoin:round;" /><path d="M 558.0,-10.80000000000001 L 558.0,3.599999999999991 L 549.0,3.599999999999991 L 567.0,3.599999999999991 M 551.6999999999999,7.919999999999991 L 564.3000000000001,7.919999999999991 M 556.1999999999999,12.239999999999991 L 559.8000000000001,12.239999999999991" style="stroke:black;fill:none;stroke-width:2.0;stroke-dasharray:-;stroke-linecap:round;stroke-linejoin:round;" /><path d="M 450.0,-28.80000000000001 L 450.0,-64.8 L 450.0,-100.8" style="stroke:black;fill:none;stroke-width:2.0;stroke-dasharray:-;stroke-linecap:round;stroke-linejoin:round;" /><path d="M 450.0,-100.8 L 491.40000000000003,-100.8 L 493.5,-107.1 L 497.7,-94.5 L 501.9,-107.1 L 506.1,-94.5 L 510.3,-107.1 L 514.5,-94.5 L 516.6,-100.8 L 558.0,-100.8" style="stroke:black;fill:none;stroke-width:2.0;stroke-dasharray:-;stroke-linecap:round;stroke-linejoin:round;" /><path d="M 558.0,-100.8 L 558.0,-64.8 L 558.0,-28.80000000000001" style="stroke:black;fill:none;stroke-width:2.0;stroke-dasharray:-;stroke-linecap:round;stroke-linejoin:round;" /><path d="M 450.0,-100.8 L 324.0,-100.80000000000001 L 198.0,-100.80000000000003" style="stroke:black;fill:none;stroke-width:2.0;stroke-dasharray:-;stroke-linecap:round;stroke-linejoin:round;" /><text x="-2.6999999999999997" y="-42.5" dominant-baseline="ideographic" fill="black" font-size="11" font-family="Arial" text-anchor="end"><tspan x="-2.6999999999999997" dy="11">3</tspan></text><text x="5.3999999999999995" y="-42.8" dominant-baseline="central" fill="black" font-size="14" font-family="Arial" text-anchor="start"><tspan x="5.3999999999999995" dy="14">GND</tspan></text><text x="-2.6999999999999997" y="-78.5" dominant-baseline="ideographic" fill="black" font-size="11" font-family="Arial" text-anchor="end"><tspan x="-2.6999999999999997" dy="11">5</tspan></text><text x="5.3999999999999995" y="-78.8" dominant-baseline="central" fill="black" font-size="14" font-family="Arial" text-anchor="start"><tspan x="5.3999999999999995" dy="14">ON</tspan></text><text x="-2.6999999999999997" y="-114.5" dominant-baseline="ideographic" fill="black" font-size="11" font-family="Arial" text-anchor="end"><tspan x="-2.6999999999999997" dy="11">1</tspan></text><text x="5.3999999999999995" y="-114.8" dominant-baseline="central" fill="black" font-size="14" font-family="Arial" text-anchor="start"><tspan x="5.3999999999999995" dy="14">VIN</tspan></text><text x="164.70000000000002" y="-42.5" dominant-baseline="ideographic" fill="black" font-size="11" font-family="Arial" text-anchor="start"><tspan x="164.70000000000002" dy="11">2</tspan></text><text x="156.6" y="-42.8" dominant-baseline="central" fill="black" font-size="14" font-family="Arial" text-anchor="end"><tspan x="156.6" dy="14">OUT</tspan></text><text x="164.70000000000002" y="-114.5" dominant-baseline="ideographic" fill="black" font-size="11" font-family="Arial" text-anchor="start"><tspan x="164.70000000000002" dy="11">4</tspan></text><text x="156.6" y="-114.8" dominant-baseline="central" fill="black" font-size="14" font-family="Arial" text-anchor="end"><tspan x="156.6" dy="14">FB</tspan></text><text x="84.60000000000001" y="-83.4" dominant-baseline="central" fill="black" font-size="10" font-family="Arial" text-anchor="middle"><tspan x="84.60000000000001" dy="10">U4</tspan><tspan x="84.60000000000001" dy="10">LM2596S</tspan></text><text x="-173.52" y="-53.81600000000003" dominant-baseline="central" fill="black" font-size="14" font-family="Arial" text-anchor="middle"><tspan x="-173.52" dy="14">+</tspan></text><text x="-167.4" y="-45.300000000000026" dominant-baseline="central" fill="black" font-size="11" font-family="Arial" text-anchor="start"><tspan x="-167.4" dy="11">C9</tspan><tspan x="-167.4" dy="11">100µF</tspan></text><text x="-95.4" y="-45.30000000000001" dominant-baseline="central" fill="black" font-size="11" font-family="Arial" text-anchor="start"><tspan x="-95.4" dy="11">C10</tspan><tspan x="-95.4" dy="11">100nF</tspan></text><text x="270.0" y="-21.8" dominant-baseline="hanging" fill="black" font-size="11" font-family="Arial" text-anchor="middle"><tspan x="270.0" dy="11">L3</tspan><tspan x="270.0" dy="11">100µH</tspan></text><text x="330.48" y="0.1839999999999975" dominant-baseline="central" fill="black" font-size="14" font-family="Arial" text-anchor="middle"><tspan x="330.48" dy="14">+</tspan></text><text x="336.59999999999997" y="8.7" dominant-baseline="central" fill="black" font-size="11" font-family="Arial" text-anchor="start"><tspan x="336.59999999999997" dy="11">C11</tspan><tspan x="336.59999999999997" dy="11">470µF</tspan></text><text x="228.6" y="8.7" dominant-baseline="central" fill="black" font-size="11" font-family="Arial" text-anchor="start"><tspan x="228.6" dy="11">D3</tspan><tspan x="228.6" dy="11">SS34</tspan></text><text x="438.66" y="8.699999999999982" dominant-baseline="central" fill="black" font-size="11" font-family="Arial" text-anchor="end"><tspan x="438.66" dy="11">R6</tspan><tspan x="438.66" dy="11">1kΩ</tspan></text><text x="504.0" y="-12.80000000000001" dominant-baseline="hanging" fill="black" font-size="11" font-family="Arial" text-anchor="middle"><tspan x="504.0" dy="11">C33</tspan><tspan x="504.0" dy="11">22µF</tspan></text><text x="504.0" y="-141.7" dominant-baseline="ideographic" fill="black" font-size="11" font-family="Arial" text-anchor="middle"><tspan x="504.0" dy="11">R5</tspan><tspan x="504.0" dy="11">10kΩ</tspan></text><circle cx="-108.0" cy="-100.80000000000001" r="2.6999999999999997" style="stroke:black;fill:black;stroke-width:2.0;stroke-dasharray:-;" /><circle cx="-180.0" cy="-100.80000000000003" r="2.6999999999999997" style="stroke:black;fill:black;stroke-width:2.0;stroke-dasharray:-;" /><circle cx="-252.0" cy="-100.80000000000004" r="2.6999999999999997" style="stroke:black;fill:white;stroke-width:2.0;stroke-dasharray:-;" /><text x="-252.0" y="-143.50000000000003" dominant-baseline="ideographic" fill="black" font-size="11" font-family="Arial" text-anchor="middle"><tspan x="-252.0" dy="11">+15V</tspan><tspan x="-252.0" dy="11">IN</tspan></text><circle cx="-180.00000000000003" cy="79.19999999999997" r="2.6999999999999997" style="stroke:black;fill:black;stroke-width:2.0;stroke-dasharray:-;" /><circle cx="-108.00000000000003" cy="79.19999999999997" r="2.6999999999999997" style="stroke:black;fill:black;stroke-width:2.0;stroke-dasharray:-;" /><circle cx="-35.99999999999999" cy="79.19999999999997" r="2.6999999999999997" style="stroke:black;fill:black;stroke-width:2.0;stroke-dasharray:-;" /><circle cx="-35.99999999999999" cy="79.19999999999997" r="2.6999999999999997" style="stroke:black;fill:black;stroke-width:2.0;stroke-dasharray:-;" /><circle cx="216.0" cy="-28.8" r="2.6999999999999997" style="stroke:black;fill:black;stroke-width:2.0;stroke-dasharray:-;" /><circle cx="324.0" cy="-28.8" r="2.6999999999999997" style="stroke:black;fill:black;stroke-width:2.0;stroke-dasharray:-;" /><circle cx="324.0" cy="79.19999999999997" r="2.6999999999999997" style="stroke:black;fill:black;stroke-width:2.0;stroke-dasharray:-;" /><circle cx="215.99999999999997" cy="79.19999999999997" r="2.6999999999999997" style="stroke:black;fill:black;stroke-width:2.0;stroke-dasharray:-;" /><circle cx="450.0" cy="79.19999999999997" r="2.6999999999999997" style="stroke:black;fill:black;stroke-width:2.0;stroke-dasharray:-;" /><circle cx="522.0" cy="79.19999999999997" r="2.6999999999999997" style="stroke:black;fill:white;stroke-width:2.0;stroke-dasharray:-;" /><text x="522.0" y="36.49999999999998" dominant-baseline="ideographic" fill="black" font-size="11" font-family="Arial" text-anchor="middle"><tspan x="522.0" dy="11">-13.5V</tspan><tspan x="522.0" dy="11">OUT</tspan></text><circle cx="450.0" cy="-28.80000000000001" r="2.6999999999999997" style="stroke:black;fill:black;stroke-width:2.0;stroke-dasharray:-;" /><circle cx="558.0" cy="-28.80000000000001" r="2.6999999999999997" style="stroke:black;fill:black;stroke-width:2.0;stroke-dasharray:-;" /><circle cx="450.0" cy="-100.8" r="2.6999999999999997" style="stroke:black;fill:black;stroke-width:2.0;stroke-dasharray:-;" /><circle cx="558.0" cy="-100.8" r="2.6999999999999997" style="stroke:black;fill:black;stroke-width:2.0;stroke-dasharray:-;" /></svg>