<svg xmlns="http://www.w3.org/2000/svg" xmlns:xlink="http://www.w3.org/1999/xlink" xml:lang="en" height="251.84000000000003pt" width="544.412pt" viewBox="-53.812 -134.20000000000002 544.412 251.84000000000003"><path d="M 0.0,-0.0 L 27.0,-0.0 L 54.0,-0.0" style="stroke:black;fill:none;stroke-width:2.0;stroke-dasharray:-;stroke-linecap:round;stroke-linejoin:round;" /><path d="M 54.0,-0.0 L 53.99999999999999,41.76 M 62.99999999999999,41.76 L 44.99999999999999,41.76 M 62.99999999999999,48.239999999999995 L 44.99999999999999,48.239999999999995 M 53.99999999999999,48.239999999999995 L 53.999999999999986,90.0" style="stroke:black;fill:none;stroke-width:2.0;stroke-dasharray:-;stroke-linecap:round;stroke-linejoin:round;" /><path d="M 53.999999999999986,90.0 L 53.999999999999986,104.39999999999999 L 44.999999999999986,104.39999999999999 L 62.999999999999986,104.39999999999999 M 47.69999999999998,108.72 L 60.29999999999998,108.72 M 52.19999999999998,113.04 L 55.79999999999998,113.04" style="stroke:black;fill:none;stroke-width:2.0;stroke-dasharray:-;stroke-linecap:round;stroke-linejoin:round;" /><path d="M 54.0,-0.0 L 81.0,-0.0 L 108.0,-0.0" style="stroke:black;fill:none;stroke-width:2.0;stroke-dasharray:-;stroke-linecap:round;stroke-linejoin:round;" /><path d="M 108.0,-0.0 L 108.0,41.76 M 117.0,41.76 L 99.0,41.76 M 116.99999999999999,48.239999999999995 L 99.0,48.239999999999995 M 107.99999999999999,48.239999999999995 L 107.99999999999999,90.0" style="stroke:black;fill:none;stroke-width:2.0;stroke-dasharray:-;stroke-linecap:round;stroke-linejoin:round;" /><path d="M 107.99999999999999,90.0 L 107.99999999999999,104.39999999999999 L 98.99999999999999,104.39999999999999 L 116.99999999999999,104.39999999999999 M 101.69999999999999,108.72 L 114.29999999999998,108.72 M 106.19999999999999,113.04 L 109.79999999999998,113.04" style="stroke:black;fill:none;stroke-width:2.0;stroke-dasharray:-;stroke-linecap:round;stroke-linejoin:round;" /><path d="M 108.0,-0.0 L 135.0,-0.0 L 162.0,-0.0" style="stroke:black;fill:none;stroke-width:2.0;stroke-dasharray:-;stroke-linecap:round;stroke-linejoin:round;" /><path d="M 198.0,43.2 L 450.0,43.2 L 450.0,-129.60000000000002 L 198.0,-129.60000000000002 L 198.0,43.2" style="stroke:black;fill:none;stroke-width:2.0;stroke-dasharray:-;stroke-linecap:round;stroke-linejoin:round;" /><path d="M 198.0,-0.0 L 162.0,-0.0" style="stroke:black;fill:none;stroke-width:2.0;stroke-dasharray:-;stroke-linecap:round;stroke-linejoin:round;" /><path d="M 198.0,-28.799999999999994 L 162.0,-28.799999999999994" style="stroke:black;fill:none;stroke-width:2.0;stroke-dasharray:-;stroke-linecap:round;stroke-linejoin:round;" /><path d="M 198.0,-57.6 L 162.0,-57.6" style="stroke:black;fill:none;stroke-width:2.0;stroke-dasharray:-;stroke-linecap:round;stroke-linejoin:round;" /><path d="M 198.0,-86.4 L 162.0,-86.4" style="stroke:black;fill:none;stroke-width:2.0;stroke-dasharray:-;stroke-linecap:round;stroke-linejoin:round;" /><path d="M 450.0,-0.0 L 486.0,-0.0" style="stroke:black;fill:none;stroke-width:2.0;stroke-dasharray:-;stroke-linecap:round;stroke-linejoin:round;" /><path d="M 450.0,-28.799999999999994 L 486.0,-28.799999999999994" style="stroke:black;fill:none;stroke-width:2.0;stroke-dasharray:-;stroke-linecap:round;stroke-linejoin:round;" /><path d="M 450.0,-57.6 L 486.0,-57.6" style="stroke:black;fill:none;stroke-width:2.0;stroke-dasharray:-;stroke-linecap:round;stroke-linejoin:round;" /><path d="M 162.0,-86.4 L 147.6,-86.4 L 133.20000000000002,-86.4" style="stroke:black;fill:none;stroke-width:2.0;stroke-dasharray:-;stroke-linecap:round;stroke-linejoin:round;" /><path d="M 133.20000000000002,-86.4 L 133.20000000000002,-72.00000000000001 L 133.20000000000002,-57.60000000000001" style="stroke:black;fill:none;stroke-width:2.0;stroke-dasharray:-;stroke-linecap:round;stroke-linejoin:round;" /><path d="M 133.20000000000002,-57.60000000000001 L 133.20000000000002,-43.2 L 124.2,-43.2 L 142.20000000000002,-43.2 M 126.9,-38.88000000000001 L 139.5,-38.88000000000001 M 131.4,-34.56000000000001 L 135.0,-34.56000000000001" style="stroke:black;fill:none;stroke-width:2.0;stroke-dasharray:-;stroke-linecap:round;stroke-linejoin:round;" /><text x="66.6" y="28.5" dominant-baseline="central" fill="black" font-size="11" font-family="Arial" text-anchor="start"><tspan x="66.6" dy="11">C13</tspan><tspan x="66.6" dy="11">100µF</tspan></text><text x="120.6" y="28.5" dominant-baseline="central" fill="black" font-size="11" font-family="Arial" text-anchor="start"><tspan x="120.6" dy="11">C16</tspan><tspan x="120.6" dy="11">100nF</tspan></text><text x="195.29999999999998" y="-13.7" dominant-baseline="ideographic" fill="black" font-size="11" font-family="Arial" text-anchor="end"><tspan x="195.29999999999998" dy="11">7</tspan></text><text x="203.4" y="-14.0" dominant-baseline="central" fill="black" font-size="14" font-family="Arial" text-anchor="start"><tspan x="203.4" dy="14">VIN</tspan></text><text x="195.29999999999998" y="-42.5" dominant-baseline="ideographic" fill="black" font-size="11" font-family="Arial" text-anchor="end"><tspan x="195.29999999999998" dy="11">2</tspan></text><text x="203.4" y="-42.8" dominant-baseline="central" fill="black" font-size="14" font-family="Arial" text-anchor="start"><tspan x="203.4" dy="14">COMP</tspan></text><text x="195.29999999999998" y="-71.30000000000001" dominant-baseline="ideographic" fill="black" font-size="11" font-family="Arial" text-anchor="end"><tspan x="195.29999999999998" dy="11">6</tspan></text><text x="203.4" y="-71.6" dominant-baseline="central" fill="black" font-size="14" font-family="Arial" text-anchor="start"><tspan x="203.4" dy="14">Freq.Sync.</tspan></text><text x="195.29999999999998" y="-100.10000000000002" dominant-baseline="ideographic" fill="black" font-size="11" font-family="Arial" text-anchor="end"><tspan x="195.29999999999998" dy="11">4</tspan></text><text x="203.4" y="-100.4" dominant-baseline="central" fill="black" font-size="14" font-family="Arial" text-anchor="start"><tspan x="203.4" dy="14">GND</tspan></text><text x="452.7" y="-13.7" dominant-baseline="ideographic" fill="black" font-size="11" font-family="Arial" text-anchor="start"><tspan x="452.7" dy="11">5</tspan></text><text x="444.59999999999997" y="-14.0" dominant-baseline="central" fill="black" font-size="14" font-family="Arial" text-anchor="end"><tspan x="444.59999999999997" dy="14">SW</tspan></text><text x="452.7" y="-42.5" dominant-baseline="ideographic" fill="black" font-size="11" font-family="Arial" text-anchor="start"><tspan x="452.7" dy="11">1</tspan></text><text x="444.59999999999997" y="-42.8" dominant-baseline="central" fill="black" font-size="14" font-family="Arial" text-anchor="end"><tspan x="444.59999999999997" dy="14">Freq.Adj.</tspan></text><text x="452.7" y="-71.30000000000001" dominant-baseline="ideographic" fill="black" font-size="11" font-family="Arial" text-anchor="start"><tspan x="452.7" dy="11">3</tspan></text><text x="444.59999999999997" y="-71.6" dominant-baseline="central" fill="black" font-size="14" font-family="Arial" text-anchor="end"><tspan x="444.59999999999997" dy="14">FB</tspan></text><text x="327.59999999999997" y="-67.80000000000001" dominant-baseline="central" fill="black" font-size="14" font-family="Arial" text-anchor="middle"><tspan x="327.59999999999997" dy="14">U5</tspan><tspan x="327.59999999999997" dy="14">LM2586SX-ADJ</tspan></text><circle cx="0.0" cy="-0.0" r="2.6999999999999997" style="stroke:black;fill:white;stroke-width:2.0;stroke-dasharray:-;" /><text x="-6.3" y="-12.0" dominant-baseline="central" fill="black" font-size="12" font-family="Arial" text-anchor="end"><tspan x="-6.3" dy="12">+15V IN</tspan></text><circle cx="54.0" cy="-0.0" r="2.6999999999999997" style="stroke:black;fill:black;stroke-width:2.0;stroke-dasharray:-;" /><circle cx="108.0" cy="-0.0" r="2.6999999999999997" style="stroke:black;fill:black;stroke-width:2.0;stroke-dasharray:-;" /></svg>