<svg xmlns="http://www.w3.org/2000/svg" xmlns:xlink="http://www.w3.org/1999/xlink" xml:lang="en" height="291.44000000000005pt" width="828.0839719632705pt" viewBox="-53.812 -148.60000000000002 828.0839719632705 291.44000000000005"><path d="M 468.0,129.60000000000002 L 720.0,129.60000000000002 L 720.0,-43.2 L 468.0,-43.2 L 468.0,129.60000000000002" style="stroke:black;fill:none;stroke-width:2.0;stroke-dasharray:-;stroke-linecap:round;stroke-linejoin:round;" /><path d="M 468.0,-0.0 L 432.0,-0.0" style="stroke:black;fill:none;stroke-width:2.0;stroke-dasharray:-;stroke-linecap:round;stroke-linejoin:round;" /><path d="M 468.0,28.80000000000001 L 432.0,28.80000000000001" style="stroke:black;fill:none;stroke-width:2.0;stroke-dasharray:-;stroke-linecap:round;stroke-linejoin:round;" /><path d="M 468.0,57.60000000000002 L 432.0,57.60000000000002" style="stroke:black;fill:none;stroke-width:2.0;stroke-dasharray:-;stroke-linecap:round;stroke-linejoin:round;" /><path d="M 468.0,86.4 L 432.0,86.4" style="stroke:black;fill:none;stroke-width:2.0;stroke-dasharray:-;stroke-linecap:round;stroke-linejoin:round;" /><path d="M 720.0,-0.0 L 756.0,-0.0" style="stroke:black;fill:none;stroke-width:2.0;stroke-dasharray:-;stroke-linecap:round;stroke-linejoin:round;" /><path d="M 720.0,28.80000000000001 L 756.0,28.80000000000001" style="stroke:black;fill:none;stroke-width:2.0;stroke-dasharray:-;stroke-linecap:round;stroke-linejoin:round;" /><path d="M 720.0,57.60000000000002 L 756.0,57.60000000000002" style="stroke:black;fill:none;stroke-width:2.0;stroke-dasharray:-;stroke-linecap:round;stroke-linejoin:round;" /><path d="M 0.0,-0.0 L 27.0,-0.0 L 54.0,-0.0" style="stroke:black;fill:none;stroke-width:2.0;stroke-dasharray:-;stroke-linecap:round;stroke-linejoin:round;" /><path d="M 54.0,-0.0 L 53.99999999999999,41.76 M 62.99999999999999,41.76 L 44.99999999999999,41.76 M 62.99999999999999,48.239999999999995 L 44.99999999999999,48.239999999999995 M 53.99999999999999,48.239999999999995 L 53.999999999999986,90.0" style="stroke:black;fill:none;stroke-width:2.0;stroke-dasharray:-;stroke-linecap:round;stroke-linejoin:round;" /><path d="M 53.999999999999986,90.0 L 53.999999999999986,104.39999999999999 L 44.999999999999986,104.39999999999999 L 62.999999999999986,104.39999999999999 M 47.69999999999998,108.72 L 60.29999999999998,108.72 M 52.19999999999998,113.04 L 55.79999999999998,113.04" style="stroke:black;fill:none;stroke-width:2.0;stroke-dasharray:-;stroke-linecap:round;stroke-linejoin:round;" /><path d="M 54.0,-0.0 L 81.0,-0.0 L 108.0,-0.0" style="stroke:black;fill:none;stroke-width:2.0;stroke-dasharray:-;stroke-linecap:round;stroke-linejoin:round;" /><path d="M 108.0,-0.0 L 108.0,41.76 M 117.0,41.76 L 99.0,41.76 M 116.99999999999999,48.239999999999995 L 99.0,48.239999999999995 M 107.99999999999999,48.239999999999995 L 107.99999999999999,90.0" style="stroke:black;fill:none;stroke-width:2.0;stroke-dasharray:-;stroke-linecap:round;stroke-linejoin:round;" /><path d="M 107.99999999999999,90.0 L 107.99999999999999,104.39999999999999 L 98.99999999999999,104.39999999999999 L 116.99999999999999,104.39999999999999 M 101.69999999999999,108.72 L 114.29999999999998,108.72 M 106.19999999999999,113.04 L 109.79999999999998,113.04" style="stroke:black;fill:none;stroke-width:2.0;stroke-dasharray:-;stroke-linecap:round;stroke-linejoin:round;" /><path d="M 108.0,-0.0 L 270.0,-0.0 L 432.0,-0.0" style="stroke:black;fill:none;stroke-width:2.0;stroke-dasharray:-;stroke-linecap:round;stroke-linejoin:round;" /><path d="M 432.0,86.4 L 417.59999999999997,86.4 L 403.2,86.4" style="stroke:black;fill:none;stroke-width:2.0;stroke-dasharray:-;stroke-linecap:round;stroke-linejoin:round;" /><path d="M 403.2,86.4 L 403.2,100.80000000000001 L 403.2,115.2" style="stroke:black;fill:none;stroke-width:2.0;stroke-dasharray:-;stroke-linecap:round;stroke-linejoin:round;" /><path d="M 403.2,115.2 L 403.2,129.6 L 394.2,129.6 L 412.2,129.6 M 396.9,133.92000000000002 L 409.5,133.92000000000002 M 401.4,138.24 L 405.0,138.24" style="stroke:black;fill:none;stroke-width:2.0;stroke-dasharray:-;stroke-linecap:round;stroke-linejoin:round;" /><path d="M 54.0,-0.0 L 54.00000000000001,-72.0 L 54.00000000000001,-144.0" style="stroke:black;fill:none;stroke-width:2.0;stroke-dasharray:-;stroke-linecap:round;stroke-linejoin:round;" /><path d="M 54.00000000000001,-144.0 L 405.0,-144.0 L 756.0,-144.0" style="stroke:black;fill:none;stroke-width:2.0;stroke-dasharray:-;stroke-linecap:round;stroke-linejoin:round;" /><path d="M 756.0,-144.0 L 756.0,-126.0 L 757.5300966985359,-125.95578063936823 L 759.1005457662997,-125.82121073546207 L 760.6751788988734,-125.59499248740573 L 762.2177314305286,-125.2779388060165 L 763.692677529393,-124.87295459202213 L 765.0660483768662,-124.38496983460203 L 766.3062144881658,-123.82082607102905 L 767.3846141567309,-123.1891188223093 L 768.276411246008,-122.49999963361327 L 768.961067179315,-121.76494227861593 L 769.4228139545395,-120.99647851218842 L 769.6510172898871,-120.20790945720174 L 769.6404215372306,-119.41299927236284 L 769.3912707225722,-118.62565815608139 L 768.9093029259907,-117.85962198696168 L 768.2056181305063,-117.12813597897559 L 767.2964225833766,-116.44364963691146 L 766.2026555573224,-115.8175300374423 L 764.9495071075787,-115.25980003910793 L 763.5658379310898,-114.77890745037904 L 762.0835146888107,-114.38153047198898 L 760.5366760990055,-114.07242389430375 L 758.9609467038196,-113.8543095918888 L 757.3926164165109,-113.72781383724316 L 755.8678047448205,-113.69145287739975 L 754.4216289388735,-113.7416671055712 L 753.0873952216258,-113.87290304084866 L 751.8958317282589,-114.07774122791692 L 750.8743808203537,-114.34706711118444 L 750.0465670732328,-114.67028094800382 L 749.4314554920735,-115.03554192656563 L 749.0432124343685,-115.43004086629662 L 748.8907793509345,-115.84029522032222 L 748.977666859389,-116.2524595859248 L 749.3018738926999,-116.65264457177129 L 749.8559337848562,-117.02723667822269 L 750.6270862322887,-117.36321182370635 L 751.5975711706666,-117.64843529646667 L 752.7450377989326,-117.87194122364033 L 754.0430593305241,-118.02418512133006 L 755.4617416167808,-118.0972637093101 L 756.968411625603,-118.0850969279096 L 758.5283699193234,-117.98356796512574 L 760.1056898018109,-117.79061806906485 L 761.6640447300113,-117.50629396212894 L 763.167544934182,-117.13274676497318 L 764.5815639789977,-116.674182455016 L 765.8735362293696,-116.13676500046944 L 767.0137068549055,-115.52847440076636 L 767.9758170999926,-114.85892290279156 L 768.7377090373586,-114.1391336255574 L 769.2818358773051,-113.38128669171992 L 769.5956660799094,-112.59843871266543 L 769.6719719632706,-111.80422208758061 L 769.5089961609928,-111.01253104181308 L 769.1104920952978,-110.2372016352319 L 768.4856375336509,-109.49169311017097 L 767.6488232197362,-108.78877791768704 L 766.6193214467262,-108.14024756099825 L 765.4208422057884,-107.55664103068969 L 764.0809871319673,-107.0470020859731 L 762.6306138233737,-106.61867097194585 L 761.1031251737539,-106.27711536971563 L 759.5337000855055,-106.02580447270205 L 757.9584832802357,-105.86612908920708 L 756.4137528659754,-105.79736961133618 L 754.9350848324297,-105.81671258796328 L 753.5565337163983,-105.91931552005504 L 752.3098483070933,-106.09841838608297 L 751.2237404540886,-106.34549932903126 L 750.3232238176578,-106.65047091944352 L 749.6290377904428,-107.00191247446251 L 749.1571698578515,-107.38733308242789 L 748.9184873974904,-107.79345927543088 L 748.9184873974904,-108.20654072456911 L 749.1571698578514,-108.61266691757208 L 749.6290377904428,-108.99808752553749 L 750.3232238176578,-109.34952908055648 L 751.2237404540886,-109.65450067096874 L 752.3098483070933,-109.90158161391703 L 753.5565337163983,-110.08068447994495 L 754.9350848324297,-110.18328741203673 L 756.4137528659753,-110.20263038866382 L 757.9584832802357,-110.13387091079294 L 759.5337000855054,-109.97419552729797 L 761.1031251737539,-109.72288463028438 L 762.6306138233736,-109.38132902805415 L 764.0809871319673,-108.95299791402692 L 765.4208422057883,-108.44335896931031 L 766.6193214467262,-107.85975243900178 L 767.6488232197362,-107.21122208231299 L 768.4856375336509,-106.50830688982904 L 769.1104920952978,-105.76279836476812 L 769.5089961609928,-104.98746895818695 L 769.6719719632706,-104.19577791241942 L 769.5956660799094,-103.40156128733459 L 769.2818358773051,-102.61871330828009 L 768.7377090373586,-101.86086637444262 L 767.9758170999926,-101.14107709720844 L 767.0137068549055,-100.47152559923364 L 765.8735362293696,-99.86323499953059 L 764.5815639789977,-99.32581754498402 L 763.167544934182,-98.86725323502685 L 761.6640447300114,-98.49370603787108 L 760.1056898018109,-98.20938193093515 L 758.5283699193234,-98.01643203487426 L 756.968411625603,-97.91490307209042 L 755.4617416167808,-97.9027362906899 L 754.0430593305241,-97.97581487866992 L 752.7450377989326,-98.12805877635967 L 751.5975711706666,-98.35156470353331 L 750.6270862322887,-98.63678817629365 L 749.8559337848562,-98.97276332177731 L 749.3018738926999,-99.3473554282287 L 748.977666859389,-99.7475404140752 L 748.8907793509345,-100.15970477967777 L 749.0432124343685,-100.56995913370338 L 749.4314554920735,-100.96445807343434 L 750.0465670732328,-101.32971905199618 L 750.8743808203537,-101.65293288881556 L 751.8958317282589,-101.92225877208307 L 753.0873952216258,-102.12709695915132 L 754.4216289388735,-102.2583328944288 L 755.8678047448204,-102.30854712260025 L 757.3926164165109,-102.27218616275685 L 758.9609467038194,-102.1456904081112 L 760.5366760990055,-101.92757610569626 L 762.0835146888106,-101.61846952801103 L 763.5658379310897,-101.22109254962098 L 764.9495071075786,-100.74019996089207 L 766.2026555573223,-100.18246996255772 L 767.2964225833765,-99.55635036308855 L 768.2056181305063,-98.87186402102441 L 768.9093029259907,-98.14037801303836 L 769.3912707225722,-97.37434184391864 L 769.6404215372306,-96.58700072763716 L 769.6510172898871,-95.79209054279828 L 769.4228139545395,-95.00352148781158 L 768.961067179315,-94.23505772138408 L 768.2764112460081,-93.50000036638676 L 767.3846141567309,-92.8108811776907 L 766.3062144881659,-92.17917392897098 L 765.0660483768663,-91.615030165398 L 763.692677529393,-91.12704540797787 L 762.2177314305287,-90.72206119398352 L 760.6751788988734,-90.40500751259427 L 759.1005457662997,-90.17878926453795 L 757.5300966985359,-90.04421936063177 L 756.0,-90.0 L 756.0,-72.0" style="stroke:black;fill:none;stroke-width:2.0;stroke-dasharray:-;stroke-linecap:round;stroke-linejoin:round;" /><path d="M 756.0,-72.0 L 756.0,-36.0 L 756.0,-0.0" style="stroke:black;fill:none;stroke-width:2.0;stroke-dasharray:-;stroke-linecap:round;stroke-linejoin:round;" /><path d="M 756.0,-0.0" style="stroke:black;fill:none;stroke-width:2.0;stroke-dasharray:-;stroke-linecap:round;stroke-linejoin:round;" /><text x="465.3" y="-13.700000000000006" dominant-baseline="ideographic" fill="black" font-size="11" font-family="Arial" text-anchor="end"><tspan x="465.3" dy="11">7</tspan></text><text x="473.40000000000003" y="-14.0" dominant-baseline="central" fill="black" font-size="14" font-family="Arial" text-anchor="start"><tspan x="473.40000000000003" dy="14">VIN</tspan></text><text x="465.3" y="15.100000000000001" dominant-baseline="ideographic" fill="black" font-size="11" font-family="Arial" text-anchor="end"><tspan x="465.3" dy="11">2</tspan></text><text x="473.40000000000003" y="14.800000000000011" dominant-baseline="central" fill="black" font-size="14" font-family="Arial" text-anchor="start"><tspan x="473.40000000000003" dy="14">COMP</tspan></text><text x="465.3" y="43.90000000000001" dominant-baseline="ideographic" fill="black" font-size="11" font-family="Arial" text-anchor="end"><tspan x="465.3" dy="11">6</tspan></text><text x="473.40000000000003" y="43.60000000000002" dominant-baseline="central" fill="black" font-size="14" font-family="Arial" text-anchor="start"><tspan x="473.40000000000003" dy="14">Freq.Sync.</tspan></text><text x="465.3" y="72.7" dominant-baseline="ideographic" fill="black" font-size="11" font-family="Arial" text-anchor="end"><tspan x="465.3" dy="11">4</tspan></text><text x="473.40000000000003" y="72.4" dominant-baseline="central" fill="black" font-size="14" font-family="Arial" text-anchor="start"><tspan x="473.40000000000003" dy="14">GND</tspan></text><text x="722.6999999999999" y="-13.700000000000006" dominant-baseline="ideographic" fill="black" font-size="11" font-family="Arial" text-anchor="start"><tspan x="722.6999999999999" dy="11">5</tspan></text><text x="714.6" y="-14.0" dominant-baseline="central" fill="black" font-size="14" font-family="Arial" text-anchor="end"><tspan x="714.6" dy="14">SW</tspan></text><text x="722.6999999999999" y="15.100000000000001" dominant-baseline="ideographic" fill="black" font-size="11" font-family="Arial" text-anchor="start"><tspan x="722.6999999999999" dy="11">1</tspan></text><text x="714.6" y="14.800000000000011" dominant-baseline="central" fill="black" font-size="14" font-family="Arial" text-anchor="end"><tspan x="714.6" dy="14">Freq.Adj.</tspan></text><text x="722.6999999999999" y="43.90000000000001" dominant-baseline="ideographic" fill="black" font-size="11" font-family="Arial" text-anchor="start"><tspan x="722.6999999999999" dy="11">3</tspan></text><text x="714.6" y="43.60000000000002" dominant-baseline="central" fill="black" font-size="14" font-family="Arial" text-anchor="end"><tspan x="714.6" dy="14">FB</tspan></text><text x="597.6" y="18.6" dominant-baseline="central" fill="black" font-size="14" font-family="Arial" text-anchor="middle"><tspan x="597.6" dy="14">U5</tspan><tspan x="597.6" dy="14">LM2586SX-ADJ</tspan></text><text x="66.6" y="28.5" dominant-baseline="central" fill="black" font-size="11" font-family="Arial" text-anchor="start"><tspan x="66.6" dy="11">C13</tspan><tspan x="66.6" dy="11">100µF</tspan></text><text x="120.6" y="28.5" dominant-baseline="central" fill="black" font-size="11" font-family="Arial" text-anchor="start"><tspan x="120.6" dy="11">C16</tspan><tspan x="120.6" dy="11">100nF</tspan></text><text x="759.2813756571024" y="-73.2" dominant-baseline="hanging" fill="black" font-size="12" font-family="Arial" text-anchor="middle"><tspan x="759.2813756571024" dy="12">T1</tspan></text><circle cx="0.0" cy="-0.0" r="2.6999999999999997" style="stroke:black;fill:white;stroke-width:2.0;stroke-dasharray:-;" /><text x="-6.3" y="-12.0" dominant-baseline="central" fill="black" font-size="12" font-family="Arial" text-anchor="end"><tspan x="-6.3" dy="12">+15V IN</tspan></text><circle cx="54.0" cy="-0.0" r="2.6999999999999997" style="stroke:black;fill:black;stroke-width:2.0;stroke-dasharray:-;" /><circle cx="108.0" cy="-0.0" r="2.6999999999999997" style="stroke:black;fill:black;stroke-width:2.0;stroke-dasharray:-;" /></svg>