<svg xmlns="http://www.w3.org/2000/svg" xmlns:xlink="http://www.w3.org/1999/xlink" xml:lang="en" height="277.44pt" width="449.648pt" viewBox="-181.10199999999998 -242.6 449.648 277.44"><path d="M 0.0,-0.0 L 144.0,-0.0 L 144.0,-129.6 L 0.0,-129.6 L 0.0,-0.0" style="stroke:black;fill:none;stroke-width:2.0;stroke-dasharray:-;stroke-linecap:round;stroke-linejoin:round;" /><path d="M 0.0,-28.8 L -36.0,-28.8" style="stroke:black;fill:none;stroke-width:2.0;stroke-dasharray:-;stroke-linecap:round;stroke-linejoin:round;" /><path d="M 0.0,-64.8 L -36.0,-64.8" style="stroke:black;fill:none;stroke-width:2.0;stroke-dasharray:-;stroke-linecap:round;stroke-linejoin:round;" /><path d="M 0.0,-100.8 L -36.0,-100.8" style="stroke:black;fill:none;stroke-width:2.0;stroke-dasharray:-;stroke-linecap:round;stroke-linejoin:round;" /><path d="M 144.0,-28.8 L 180.0,-28.8" style="stroke:black;fill:none;stroke-width:2.0;stroke-dasharray:-;stroke-linecap:round;stroke-linejoin:round;" /><path d="M 144.0,-64.8 L 180.0,-64.8" style="stroke:black;fill:none;stroke-width:2.0;stroke-dasharray:-;stroke-linecap:round;stroke-linejoin:round;" /><path d="M 144.0,-100.8 L 180.0,-100.8" style="stroke:black;fill:none;stroke-width:2.0;stroke-dasharray:-;stroke-linecap:round;stroke-linejoin:round;" /><path d="M 54.0,-129.6 L 54.0,-165.6" style="stroke:black;fill:none;stroke-width:2.0;stroke-dasharray:-;stroke-linecap:round;stroke-linejoin:round;" /><path d="M 90.0,-129.6 L 90.0,-165.6" style="stroke:black;fill:none;stroke-width:2.0;stroke-dasharray:-;stroke-linecap:round;stroke-linejoin:round;" /><path d="M -36.0,-28.8 L -36.0,-10.8 L -36.00000000000001,7.199999999999998" style="stroke:black;fill:none;stroke-width:2.0;stroke-dasharray:-;stroke-linecap:round;stroke-linejoin:round;" /><path d="M -36.00000000000001,7.199999999999998 L -36.00000000000001,21.599999999999998 L -45.00000000000001,21.599999999999998 L -27.000000000000007,21.599999999999998 M -42.30000000000001,25.919999999999998 L -29.700000000000006,25.919999999999998 M -37.80000000000001,30.24 L -34.2,30.24" style="stroke:black;fill:none;stroke-width:2.0;stroke-dasharray:-;stroke-linecap:round;stroke-linejoin:round;" /><path d="M -144.0,-100.8 L -90.0,-100.8 L -36.0,-100.8" style="stroke:black;fill:none;stroke-width:2.0;stroke-dasharray:-;stroke-linecap:round;stroke-linejoin:round;" /><path d="M 54.0,-165.6 L 54.0,-183.6 L 54.0,-201.6" style="stroke:black;fill:none;stroke-width:2.0;stroke-dasharray:-;stroke-linecap:round;stroke-linejoin:round;" /><path d="M 90.0,-165.6 L 90.0,-183.6 L 90.0,-201.6" style="stroke:black;fill:none;stroke-width:2.0;stroke-dasharray:-;stroke-linecap:round;stroke-linejoin:round;" /><path d="M 54.0,-201.6 L 72.0,-201.6 L 90.0,-201.6" style="stroke:black;fill:none;stroke-width:2.0;stroke-dasharray:-;stroke-linecap:round;stroke-linejoin:round;" /><path d="M 180.0,-100.8 L 189.0,-100.8 L 198.0,-100.8" style="stroke:black;fill:none;stroke-width:2.0;stroke-dasharray:-;stroke-linecap:round;stroke-linejoin:round;" /><path d="M 198.0,-100.8 L 198.0,-68.03999999999999 M 207.0,-68.03999999999999 L 189.0,-68.03999999999999 M 207.0,-61.55999999999999 L 189.0,-61.55999999999999 M 198.0,-61.55999999999999 L 198.0,-28.799999999999994" style="stroke:black;fill:none;stroke-width:2.0;stroke-dasharray:-;stroke-linecap:round;stroke-linejoin:round;" /><path d="M 198.0,-28.799999999999994 L 198.0,-14.399999999999993 L 189.0,-14.399999999999993 L 207.0,-14.399999999999993 M 191.70000000000002,-10.079999999999993 L 204.29999999999998,-10.079999999999993 M 196.20000000000002,-5.759999999999993 L 199.79999999999998,-5.759999999999993" style="stroke:black;fill:none;stroke-width:2.0;stroke-dasharray:-;stroke-linecap:round;stroke-linejoin:round;" /><path d="M 198.0,-100.8 L 225.0,-100.8 L 252.0,-100.8" style="stroke:black;fill:none;stroke-width:2.0;stroke-dasharray:-;stroke-linecap:round;stroke-linejoin:round;" /><text x="-2.6999999999999997" y="-42.5" dominant-baseline="ideographic" fill="black" font-size="11" font-family="Arial" text-anchor="end"><tspan x="-2.6999999999999997" dy="11">3</tspan></text><text x="5.3999999999999995" y="-42.8" dominant-baseline="central" fill="black" font-size="14" font-family="Arial" text-anchor="start"><tspan x="5.3999999999999995" dy="14">GND</tspan></text><text x="-2.6999999999999997" y="-78.5" dominant-baseline="ideographic" fill="black" font-size="11" font-family="Arial" text-anchor="end"><tspan x="-2.6999999999999997" dy="11">1</tspan></text><text x="5.3999999999999995" y="-78.8" dominant-baseline="central" fill="black" font-size="14" font-family="Arial" text-anchor="start"><tspan x="5.3999999999999995" dy="14">NC</tspan></text><text x="-2.6999999999999997" y="-114.5" dominant-baseline="ideographic" fill="black" font-size="11" font-family="Arial" text-anchor="end"><tspan x="-2.6999999999999997" dy="11">8</tspan></text><text x="5.3999999999999995" y="-114.8" dominant-baseline="central" fill="black" font-size="14" font-family="Arial" text-anchor="start"><tspan x="5.3999999999999995" dy="14">VIN</tspan></text><text x="146.70000000000002" y="-42.5" dominant-baseline="ideographic" fill="black" font-size="11" font-family="Arial" text-anchor="start"><tspan x="146.70000000000002" dy="11">6</tspan></text><text x="138.6" y="-42.8" dominant-baseline="central" fill="black" font-size="14" font-family="Arial" text-anchor="end"><tspan x="138.6" dy="14">LV</tspan></text><text x="146.70000000000002" y="-78.5" dominant-baseline="ideographic" fill="black" font-size="11" font-family="Arial" text-anchor="start"><tspan x="146.70000000000002" dy="11">7</tspan></text><text x="138.6" y="-78.8" dominant-baseline="central" fill="black" font-size="14" font-family="Arial" text-anchor="end"><tspan x="138.6" dy="14">OSC</tspan></text><text x="146.70000000000002" y="-114.5" dominant-baseline="ideographic" fill="black" font-size="11" font-family="Arial" text-anchor="start"><tspan x="146.70000000000002" dy="11">5</tspan></text><text x="138.6" y="-114.8" dominant-baseline="central" fill="black" font-size="14" font-family="Arial" text-anchor="end"><tspan x="138.6" dy="14">VOUT</tspan></text><text x="56.699999999999996" y="-143.3" dominant-baseline="ideographic" fill="black" font-size="11" font-family="Arial" text-anchor="start"><tspan x="56.699999999999996" dy="11">2</tspan></text><text x="54.0" y="-138.2" dominant-baseline="hanging" fill="black" font-size="14" font-family="Arial" text-anchor="middle"><tspan x="54.0" dy="14">CAPP</tspan></text><text x="92.7" y="-143.3" dominant-baseline="ideographic" fill="black" font-size="11" font-family="Arial" text-anchor="start"><tspan x="92.7" dy="11">4</tspan></text><text x="90.0" y="-138.2" dominant-baseline="hanging" fill="black" font-size="14" font-family="Arial" text-anchor="middle"><tspan x="90.0" dy="14">CAPN</tspan></text><text x="75.60000000000001" y="-89.4" dominant-baseline="central" fill="black" font-size="14" font-family="Arial" text-anchor="middle"><tspan x="75.60000000000001" dy="14">U5</tspan><tspan x="75.60000000000001" dy="14">ICL7660M</tspan></text><text x="75.60000000000001" y="-238.0" dominant-baseline="ideographic" fill="black" font-size="11" font-family="Arial" text-anchor="middle"><tspan x="75.60000000000001" dy="11">C12</tspan><tspan x="75.60000000000001" dy="11">10µF</tspan></text><text x="210.6" y="-81.3" dominant-baseline="central" fill="black" font-size="11" font-family="Arial" text-anchor="start"><tspan x="210.6" dy="11">C13</tspan><tspan x="210.6" dy="11">10µF</tspan></text><circle cx="-144.0" cy="-100.8" r="2.6999999999999997" style="stroke:black;fill:white;stroke-width:2.0;stroke-dasharray:-;" /><text x="-150.29999999999998" y="-111.8" dominant-baseline="central" fill="black" font-size="11" font-family="Arial" text-anchor="end"><tspan x="-150.29999999999998" dy="11">+15V</tspan></text><circle cx="54.0" cy="-201.6" r="2.6999999999999997" style="stroke:black;fill:black;stroke-width:2.0;stroke-dasharray:-;" /><circle cx="90.0" cy="-201.6" r="2.6999999999999997" style="stroke:black;fill:black;stroke-width:2.0;stroke-dasharray:-;" /><circle cx="198.0" cy="-100.8" r="2.6999999999999997" style="stroke:black;fill:black;stroke-width:2.0;stroke-dasharray:-;" /><circle cx="252.0" cy="-100.8" r="2.6999999999999997" style="stroke:black;fill:white;stroke-width:2.0;stroke-dasharray:-;" /><text x="252.0" y="-136.3" dominant-baseline="ideographic" fill="black" font-size="11" font-family="Arial" text-anchor="middle"><tspan x="252.0" dy="11">-15V</tspan><tspan x="252.0" dy="11">OUT</tspan></text></svg>