<svg xmlns="http://www.w3.org/2000/svg" xmlns:xlink="http://www.w3.org/1999/xlink" xml:lang="en" height="136.64pt" width="467.972pt" viewBox="-262.672 -105.39999999999999 467.972 136.64"><path d="M 0.0,-0.0 L 144.0,-0.0 L 144.0,-100.8 L 0.0,-100.8 L 0.0,-0.0" style="stroke:black;fill:none;stroke-width:2.0;stroke-dasharray:-;stroke-linecap:round;stroke-linejoin:round;" /><path d="M 0.0,-32.4 L -36.0,-32.4" style="stroke:black;fill:none;stroke-width:2.0;stroke-dasharray:-;stroke-linecap:round;stroke-linejoin:round;" /><path d="M 0.0,-68.39999999999999 L -36.0,-68.39999999999999" style="stroke:black;fill:none;stroke-width:2.0;stroke-dasharray:-;stroke-linecap:round;stroke-linejoin:round;" /><path d="M 144.0,-50.4 L 180.0,-50.4" style="stroke:black;fill:none;stroke-width:2.0;stroke-dasharray:-;stroke-linecap:round;stroke-linejoin:round;" /><path d="M -36.0,-32.4 L -36.0,-14.399999999999997 L -36.00000000000001,3.600000000000003" style="stroke:black;fill:none;stroke-width:2.0;stroke-dasharray:-;stroke-linecap:round;stroke-linejoin:round;" /><path d="M -36.00000000000001,3.600000000000003 L -36.00000000000001,18.000000000000004 L -45.00000000000001,18.000000000000004 L -27.000000000000007,18.000000000000004 M -42.30000000000001,22.320000000000004 L -29.700000000000006,22.320000000000004 M -37.80000000000001,26.640000000000004 L -34.2,26.640000000000004" style="stroke:black;fill:none;stroke-width:2.0;stroke-dasharray:-;stroke-linecap:round;stroke-linejoin:round;" /><path d="M -216.0,-68.39999999999999 L -198.0,-68.39999999999999 L -180.0,-68.39999999999999" style="stroke:black;fill:none;stroke-width:2.0;stroke-dasharray:-;stroke-linecap:round;stroke-linejoin:round;" /><path d="M -180.0,-68.39999999999999 L -144.0,-68.39999999999999 L -108.0,-68.39999999999999" style="stroke:black;fill:none;stroke-width:2.0;stroke-dasharray:-;stroke-linecap:round;stroke-linejoin:round;" /><path d="M -108.0,-68.39999999999999 L -72.0,-68.39999999999999 L -36.0,-68.39999999999999" style="stroke:black;fill:none;stroke-width:2.0;stroke-dasharray:-;stroke-linecap:round;stroke-linejoin:round;" /><path d="M -36.0,-68.39999999999999" style="stroke:black;fill:none;stroke-width:2.0;stroke-dasharray:-;stroke-linecap:round;stroke-linejoin:round;" /><path d="M -108.0,-68.39999999999999 L -108.0,-35.63999999999999 M -99.0,-35.63999999999999 L -117.0,-35.63999999999999 M -99.0,-29.159999999999993 L -117.0,-29.159999999999993 M -108.0,-29.159999999999993 L -108.00000000000001,3.600000000000003" style="stroke:black;fill:none;stroke-width:2.0;stroke-dasharray:-;stroke-linecap:round;stroke-linejoin:round;" /><path d="M -108.00000000000001,3.600000000000003 L -108.00000000000001,18.000000000000004 L -117.00000000000001,18.000000000000004 L -99.00000000000001,18.000000000000004 M -114.30000000000001,22.320000000000004 L -101.70000000000002,22.320000000000004 M -109.80000000000001,26.640000000000004 L -106.20000000000002,26.640000000000004" style="stroke:black;fill:none;stroke-width:2.0;stroke-dasharray:-;stroke-linecap:round;stroke-linejoin:round;" /><path d="M -180.0,-68.39999999999999 L -180.0,-35.63999999999999 M -171.0,-35.63999999999999 L -189.0,-35.63999999999999 M -171.0,-29.159999999999993 L -189.0,-29.159999999999993 M -180.0,-29.159999999999993 L -180.0,3.600000000000003" style="stroke:black;fill:none;stroke-width:2.0;stroke-dasharray:-;stroke-linecap:round;stroke-linejoin:round;" /><path d="M -180.0,3.600000000000003 L -180.0,18.000000000000004 L -189.0,18.000000000000004 L -171.0,18.000000000000004 M -186.29999999999998,22.320000000000004 L -173.70000000000002,22.320000000000004 M -181.79999999999998,26.640000000000004 L -178.20000000000002,26.640000000000004" style="stroke:black;fill:none;stroke-width:2.0;stroke-dasharray:-;stroke-linecap:round;stroke-linejoin:round;" /><path d="M 180.0,-50.4 L 189.0,-50.4 L 198.0,-50.4" style="stroke:black;fill:none;stroke-width:2.0;stroke-dasharray:-;stroke-linecap:round;stroke-linejoin:round;" /><text x="-2.6999999999999997" y="-46.099999999999994" dominant-baseline="ideographic" fill="black" font-size="11" font-family="Arial" text-anchor="end"><tspan x="-2.6999999999999997" dy="11">2</tspan></text><text x="5.3999999999999995" y="-46.4" dominant-baseline="central" fill="black" font-size="14" font-family="Arial" text-anchor="start"><tspan x="5.3999999999999995" dy="14">GND</tspan></text><text x="-2.6999999999999997" y="-82.1" dominant-baseline="ideographic" fill="black" font-size="11" font-family="Arial" text-anchor="end"><tspan x="-2.6999999999999997" dy="11">1</tspan></text><text x="5.3999999999999995" y="-82.39999999999999" dominant-baseline="central" fill="black" font-size="14" font-family="Arial" text-anchor="start"><tspan x="5.3999999999999995" dy="14">IN</tspan></text><text x="146.70000000000002" y="-64.1" dominant-baseline="ideographic" fill="black" font-size="11" font-family="Arial" text-anchor="start"><tspan x="146.70000000000002" dy="11">3</tspan></text><text x="138.6" y="-64.4" dominant-baseline="central" fill="black" font-size="14" font-family="Arial" text-anchor="end"><tspan x="138.6" dy="14">OUT</tspan></text><text x="75.60000000000001" y="-75.0" dominant-baseline="central" fill="black" font-size="14" font-family="Arial" text-anchor="middle"><tspan x="75.60000000000001" dy="14">U6</tspan><tspan x="75.60000000000001" dy="14">LM7812</tspan></text><text x="-95.4" y="-48.9" dominant-baseline="central" fill="black" font-size="11" font-family="Arial" text-anchor="start"><tspan x="-95.4" dy="11">C14</tspan><tspan x="-95.4" dy="11">470nF</tspan></text><text x="-167.4" y="-48.9" dominant-baseline="central" fill="black" font-size="11" font-family="Arial" text-anchor="start"><tspan x="-167.4" dy="11">C20</tspan><tspan x="-167.4" dy="11">470µF</tspan></text><circle cx="-216.0" cy="-68.39999999999999" r="2.6999999999999997" style="stroke:black;fill:white;stroke-width:2.0;stroke-dasharray:-;" /><text x="-222.29999999999998" y="-79.39999999999999" dominant-baseline="central" fill="black" font-size="11" font-family="Arial" text-anchor="end"><tspan x="-222.29999999999998" dy="11">+13.5V</tspan></text><circle cx="-180.0" cy="-68.39999999999999" r="2.6999999999999997" style="stroke:black;fill:black;stroke-width:2.0;stroke-dasharray:-;" /><circle cx="-108.0" cy="-68.39999999999999" r="2.6999999999999997" style="stroke:black;fill:black;stroke-width:2.0;stroke-dasharray:-;" /><circle cx="198.0" cy="-50.4" r="2.6999999999999997" style="stroke:black;fill:black;stroke-width:2.0;stroke-dasharray:-;" /></svg>