<svg xmlns="http://www.w3.org/2000/svg" xmlns:xlink="http://www.w3.org/1999/xlink" xml:lang="en" height="290.04pt" width="729.6529999999998pt" viewBox="-256.402 -240.79999999999998 729.6529999999998 290.04"><polygon points="412.2,-8.100000000000003 421.2,-20.7 430.2,-8.100000000000003 " style="stroke:black;fill:none;stroke-width:2.0;stroke-dasharray:-;stroke-linecap:round;stroke-linejoin:round;" /><polygon points="175.49999999999997,-185.4 162.89999999999998,-194.4 175.49999999999997,-203.4 " style="stroke:black;fill:none;stroke-width:2.0;stroke-dasharray:-;stroke-linecap:round;stroke-linejoin:round;" /><path d="M 0.0,-0.0 L 144.0,-0.0 L 144.0,-100.8 L 0.0,-100.8 L 0.0,-0.0" style="stroke:black;fill:none;stroke-width:2.0;stroke-dasharray:-;stroke-linecap:round;stroke-linejoin:round;" /><path d="M 0.0,-32.4 L -36.0,-32.4" style="stroke:black;fill:none;stroke-width:2.0;stroke-dasharray:-;stroke-linecap:round;stroke-linejoin:round;" /><path d="M 0.0,-68.39999999999999 L -36.0,-68.39999999999999" style="stroke:black;fill:none;stroke-width:2.0;stroke-dasharray:-;stroke-linecap:round;stroke-linejoin:round;" /><path d="M 144.0,-50.4 L 180.0,-50.4" style="stroke:black;fill:none;stroke-width:2.0;stroke-dasharray:-;stroke-linecap:round;stroke-linejoin:round;" /><path d="M -36.0,-32.4 L -36.0,-14.399999999999997 L -36.00000000000001,3.600000000000003" style="stroke:black;fill:none;stroke-width:2.0;stroke-dasharray:-;stroke-linecap:round;stroke-linejoin:round;" /><path d="M -36.00000000000001,3.600000000000003 L -36.00000000000001,18.000000000000004 L -45.00000000000001,18.000000000000004 L -27.000000000000007,18.000000000000004 M -42.30000000000001,22.320000000000004 L -29.700000000000006,22.320000000000004 M -37.80000000000001,26.640000000000004 L -34.2,26.640000000000004" style="stroke:black;fill:none;stroke-width:2.0;stroke-dasharray:-;stroke-linecap:round;stroke-linejoin:round;" /><path d="M -216.0,-68.39999999999999 L -198.0,-68.39999999999999 L -180.0,-68.39999999999999" style="stroke:black;fill:none;stroke-width:2.0;stroke-dasharray:-;stroke-linecap:round;stroke-linejoin:round;" /><path d="M -180.0,-68.39999999999999 L -144.0,-68.39999999999999 L -108.0,-68.39999999999999" style="stroke:black;fill:none;stroke-width:2.0;stroke-dasharray:-;stroke-linecap:round;stroke-linejoin:round;" /><path d="M -108.0,-68.39999999999999 L -72.0,-68.39999999999999 L -36.0,-68.39999999999999" style="stroke:black;fill:none;stroke-width:2.0;stroke-dasharray:-;stroke-linecap:round;stroke-linejoin:round;" /><path d="M -36.0,-68.39999999999999" style="stroke:black;fill:none;stroke-width:2.0;stroke-dasharray:-;stroke-linecap:round;stroke-linejoin:round;" /><path d="M -108.0,-68.39999999999999 L -108.0,-35.63999999999999 M -99.0,-35.63999999999999 L -117.0,-35.63999999999999 M -99.0,-29.159999999999993 L -117.0,-29.159999999999993 M -108.0,-29.159999999999993 L -108.00000000000001,3.600000000000003" style="stroke:black;fill:none;stroke-width:2.0;stroke-dasharray:-;stroke-linecap:round;stroke-linejoin:round;" /><path d="M -108.00000000000001,3.600000000000003 L -108.00000000000001,18.000000000000004 L -117.00000000000001,18.000000000000004 L -99.00000000000001,18.000000000000004 M -114.30000000000001,22.320000000000004 L -101.70000000000002,22.320000000000004 M -109.80000000000001,26.640000000000004 L -106.20000000000002,26.640000000000004" style="stroke:black;fill:none;stroke-width:2.0;stroke-dasharray:-;stroke-linecap:round;stroke-linejoin:round;" /><path d="M -180.0,-68.39999999999999 L -180.0,-35.63999999999999 M -171.0,-35.63999999999999 L -189.0,-35.63999999999999 M -171.0,-29.159999999999993 L -189.0,-29.159999999999993 M -180.0,-29.159999999999993 L -180.0,3.600000000000003" style="stroke:black;fill:none;stroke-width:2.0;stroke-dasharray:-;stroke-linecap:round;stroke-linejoin:round;" /><path d="M -180.0,3.600000000000003 L -180.0,18.000000000000004 L -189.0,18.000000000000004 L -171.0,18.000000000000004 M -186.29999999999998,22.320000000000004 L -173.70000000000002,22.320000000000004 M -181.79999999999998,26.640000000000004 L -178.20000000000002,26.640000000000004" style="stroke:black;fill:none;stroke-width:2.0;stroke-dasharray:-;stroke-linecap:round;stroke-linejoin:round;" /><path d="M 180.0,-50.4 L 183.6,-50.4 L 187.20000000000002,-50.4" style="stroke:black;fill:none;stroke-width:2.0;stroke-dasharray:-;stroke-linecap:round;stroke-linejoin:round;" /><path d="M 187.20000000000002,-50.4 L 223.20000000000002,-50.4 L 259.2,-50.4" style="stroke:black;fill:none;stroke-width:2.0;stroke-dasharray:-;stroke-linecap:round;stroke-linejoin:round;" /><path d="M 259.2,-50.4 L 259.2,-17.639999999999997 M 268.2,-17.639999999999997 L 250.20000000000002,-17.639999999999997 M 268.2,-11.159999999999993 L 250.20000000000002,-11.159999999999993 M 259.2,-11.159999999999993 L 259.2,21.6" style="stroke:black;fill:none;stroke-width:2.0;stroke-dasharray:-;stroke-linecap:round;stroke-linejoin:round;" /><path d="M 259.2,21.6 L 259.2,36.0 L 250.20000000000002,36.0 L 268.2,36.0 M 252.9,40.32000000000001 L 265.5,40.32000000000001 M 257.40000000000003,44.64000000000001 L 261.0,44.64000000000001" style="stroke:black;fill:none;stroke-width:2.0;stroke-dasharray:-;stroke-linecap:round;stroke-linejoin:round;" /><path d="M 187.20000000000002,-50.4 L 187.20000000000002,-17.639999999999997 M 196.20000000000002,-17.639999999999997 L 178.20000000000002,-17.639999999999997 M 196.20000000000002,-11.159999999999993 L 178.20000000000002,-11.159999999999993 M 187.20000000000002,-11.159999999999993 L 187.20000000000002,21.6" style="stroke:black;fill:none;stroke-width:2.0;stroke-dasharray:-;stroke-linecap:round;stroke-linejoin:round;" /><path d="M 187.20000000000002,21.6 L 187.20000000000002,36.0 L 178.20000000000002,36.0 L 196.20000000000002,36.0 M 180.9,40.32000000000001 L 193.5,40.32000000000001 M 185.4,44.64000000000001 L 189.0,44.64000000000001" style="stroke:black;fill:none;stroke-width:2.0;stroke-dasharray:-;stroke-linecap:round;stroke-linejoin:round;" /><path d="M 259.2,-50.4 L 277.2,-50.4 L 295.2,-50.4" style="stroke:black;fill:none;stroke-width:2.0;stroke-dasharray:-;stroke-linecap:round;stroke-linejoin:round;" /><path d="M 295.2,-50.4 L 313.2,-50.4 L 331.2,-50.4" style="stroke:black;fill:none;stroke-width:2.0;stroke-dasharray:-;stroke-linecap:round;stroke-linejoin:round;" /><path d="M 331.2,-50.4 L 340.2,-50.4 L 340.2,-59.4 L 376.2,-59.4 L 376.2,-41.4 L 340.2,-41.4 L 340.2,-50.4 M 376.2,-50.4 L 385.2,-50.4" style="stroke:black;fill:none;stroke-width:2.0;stroke-dasharray:-;stroke-linecap:round;stroke-linejoin:round;" /><path d="M 340.2,-50.4 L 376.2,-50.4" style="stroke:black;fill:none;stroke-width:2.0;stroke-dasharray:-;stroke-linecap:round;stroke-linejoin:round;" /><path d="M 385.2,-50.4 L 403.2,-50.4 L 421.2,-50.4" style="stroke:black;fill:none;stroke-width:2.0;stroke-dasharray:-;stroke-linecap:round;stroke-linejoin:round;" /><path d="M 421.2,-50.4 L 421.2,-20.7 M 412.2,-20.7 L 430.2,-20.7 M 421.2,-8.100000000000003 L 421.2,21.6" style="stroke:black;fill:none;stroke-width:2.0;stroke-dasharray:-;stroke-linecap:round;stroke-linejoin:round;" /><path d="M 433.79999999999995,-24.299999999999994 L 430.2,-20.7" style="stroke:black;fill:none;stroke-width:2.0;stroke-dasharray:-;stroke-linecap:round;stroke-linejoin:round;" /><path d="M 408.59999999999997,-17.1 L 412.2,-20.7" style="stroke:black;fill:none;stroke-width:2.0;stroke-dasharray:-;stroke-linecap:round;stroke-linejoin:round;" /><path d="M 421.2,21.6 L 421.2,36.0 L 412.2,36.0 L 430.2,36.0 M 414.9,40.32000000000001 L 427.5,40.32000000000001 M 419.4,44.64000000000001 L 423.0,44.64000000000001" style="stroke:black;fill:none;stroke-width:2.0;stroke-dasharray:-;stroke-linecap:round;stroke-linejoin:round;" /><path d="M 421.2,-50.4 L 439.2,-50.4 L 457.2,-50.4" style="stroke:black;fill:none;stroke-width:2.0;stroke-dasharray:-;stroke-linecap:round;stroke-linejoin:round;" /><path d="M 295.2,-50.4 L 295.2,-122.39999999999999 L 295.2,-194.4" style="stroke:black;fill:none;stroke-width:2.0;stroke-dasharray:-;stroke-linecap:round;stroke-linejoin:round;" /><path d="M 295.2,-194.4 L 277.2,-194.4 L 259.2,-194.4" style="stroke:black;fill:none;stroke-width:2.0;stroke-dasharray:-;stroke-linecap:round;stroke-linejoin:round;" /><path d="M 259.2,-194.4 L 253.79999999999995,-194.4 L 251.7,-188.10000000000002 L 247.49999999999997,-200.70000000000002 L 243.29999999999998,-188.10000000000002 L 239.09999999999997,-200.70000000000002 L 234.89999999999998,-188.10000000000002 L 230.69999999999996,-200.70000000000002 L 228.6,-194.4 L 223.2,-194.4" style="stroke:black;fill:none;stroke-width:2.0;stroke-dasharray:-;stroke-linecap:round;stroke-linejoin:round;" /><path d="M 223.2,-194.4 L 205.2,-194.4 L 187.2,-194.4" style="stroke:black;fill:none;stroke-width:2.0;stroke-dasharray:-;stroke-linecap:round;stroke-linejoin:round;" /><path d="M 187.2,-194.4 L 175.49999999999997,-194.4 M 162.89999999999998,-185.4 L 162.89999999999998,-203.4 M 162.89999999999998,-194.4 L 151.2,-194.4" style="stroke:black;fill:none;stroke-width:2.0;stroke-dasharray:-;stroke-linecap:round;stroke-linejoin:round;" /><path d="M 166.49999999999997,-180.9 L 161.0722003561692,-171.4013506232961" style="stroke:black;fill:none;stroke-width:2.0;stroke-dasharray:-;stroke-linecap:round;stroke-linejoin:round;" /><path d="M 158.49227787671364 -166.88648628424892 L 158.57166010685074 -172.8302307657638 L 163.57274060548764 -169.97247048082843 Z" style="stroke:black;fill:black;stroke-linecap:butt;stroke-linejoin:miter;" /><path d="M 174.6,-180.9 L 169.17220035616918,-171.4013506232961" style="stroke:black;fill:none;stroke-width:2.0;stroke-dasharray:-;stroke-linecap:round;stroke-linejoin:round;" /><path d="M 166.59227787671364 -166.88648628424892 L 166.67166010685074 -172.8302307657638 L 171.67274060548763 -169.97247048082843 Z" style="stroke:black;fill:black;stroke-linecap:butt;stroke-linejoin:miter;" /><path d="M 151.2,-194.4 L 133.2,-194.4 L 115.19999999999997,-194.4" style="stroke:black;fill:none;stroke-width:2.0;stroke-dasharray:-;stroke-linecap:round;stroke-linejoin:round;" /><path d="M 115.19999999999997,-194.4 L 115.19999999999997,-185.4 L 115.19999999999997,-176.4" style="stroke:black;fill:none;stroke-width:2.0;stroke-dasharray:-;stroke-linecap:round;stroke-linejoin:round;" /><path d="M 115.19999999999997,-176.4 L 115.19999999999997,-162.0 L 106.19999999999997,-162.0 L 124.19999999999997,-162.0 M 108.89999999999998,-157.68000000000004 L 121.49999999999997,-157.68000000000004 M 113.39999999999998,-153.36 L 116.99999999999997,-153.36" style="stroke:black;fill:none;stroke-width:2.0;stroke-dasharray:-;stroke-linecap:round;stroke-linejoin:round;" /><text x="-2.6999999999999997" y="-46.099999999999994" dominant-baseline="ideographic" fill="black" font-size="11" font-family="Arial" text-anchor="end"><tspan x="-2.6999999999999997" dy="11">2</tspan></text><text x="5.3999999999999995" y="-46.4" dominant-baseline="central" fill="black" font-size="14" font-family="Arial" text-anchor="start"><tspan x="5.3999999999999995" dy="14">GND</tspan></text><text x="-2.6999999999999997" y="-82.1" dominant-baseline="ideographic" fill="black" font-size="11" font-family="Arial" text-anchor="end"><tspan x="-2.6999999999999997" dy="11">1</tspan></text><text x="5.3999999999999995" y="-82.39999999999999" dominant-baseline="central" fill="black" font-size="14" font-family="Arial" text-anchor="start"><tspan x="5.3999999999999995" dy="14">IN</tspan></text><text x="146.70000000000002" y="-64.1" dominant-baseline="ideographic" fill="black" font-size="11" font-family="Arial" text-anchor="start"><tspan x="146.70000000000002" dy="11">3</tspan></text><text x="138.6" y="-64.4" dominant-baseline="central" fill="black" font-size="14" font-family="Arial" text-anchor="end"><tspan x="138.6" dy="14">OUT</tspan></text><text x="75.60000000000001" y="-75.0" dominant-baseline="central" fill="black" font-size="14" font-family="Arial" text-anchor="middle"><tspan x="75.60000000000001" dy="14">U7</tspan><tspan x="75.60000000000001" dy="14">LM7805</tspan></text><text x="-95.4" y="-48.9" dominant-baseline="central" fill="black" font-size="11" font-family="Arial" text-anchor="start"><tspan x="-95.4" dy="11">C15</tspan><tspan x="-95.4" dy="11">470nF</tspan></text><text x="-173.52" y="-57.416" dominant-baseline="central" fill="black" font-size="14" font-family="Arial" text-anchor="middle"><tspan x="-173.52" dy="14">+</tspan></text><text x="-167.4" y="-48.9" dominant-baseline="central" fill="black" font-size="11" font-family="Arial" text-anchor="start"><tspan x="-167.4" dy="11">C22</tspan><tspan x="-167.4" dy="11">470µF</tspan></text><text x="265.68" y="-39.416" dominant-baseline="central" fill="black" font-size="14" font-family="Arial" text-anchor="middle"><tspan x="265.68" dy="14">+</tspan></text><text x="271.8" y="-30.9" dominant-baseline="central" fill="black" font-size="11" font-family="Arial" text-anchor="start"><tspan x="271.8" dy="11">C23</tspan><tspan x="271.8" dy="11">470µF</tspan></text><text x="199.79999999999998" y="-30.9" dominant-baseline="central" fill="black" font-size="11" font-family="Arial" text-anchor="start"><tspan x="199.79999999999998" dy="11">C18</tspan><tspan x="199.79999999999998" dy="11">100nF</tspan></text><text x="358.2" y="-74.0" dominant-baseline="ideographic" fill="black" font-size="11" font-family="Arial" text-anchor="middle"><tspan x="358.2" dy="11">PTC2</tspan></text><text x="385.2" y="-25.400000000000006" dominant-baseline="ideographic" fill="black" font-size="11" font-family="Arial" text-anchor="middle"><tspan x="385.2" dy="11">TVS2</tspan></text><text x="241.2" y="-230.26" dominant-baseline="ideographic" fill="black" font-size="11" font-family="Arial" text-anchor="middle"><tspan x="241.2" dy="11">R8</tspan><tspan x="241.2" dy="11">1kΩ</tspan></text><text x="169.2" y="-236.20000000000002" dominant-baseline="ideographic" fill="black" font-size="11" font-family="Arial" text-anchor="middle"><tspan x="169.2" dy="11">LED3</tspan><tspan x="169.2" dy="11">Blue</tspan></text><circle cx="-216.0" cy="-68.39999999999999" r="2.6999999999999997" style="stroke:black;fill:white;stroke-width:2.0;stroke-dasharray:-;" /><text x="-222.29999999999998" y="-79.39999999999999" dominant-baseline="central" fill="black" font-size="11" font-family="Arial" text-anchor="end"><tspan x="-222.29999999999998" dy="11">+7.5V</tspan></text><circle cx="-180.0" cy="-68.39999999999999" r="2.6999999999999997" style="stroke:black;fill:black;stroke-width:2.0;stroke-dasharray:-;" /><circle cx="-108.0" cy="-68.39999999999999" r="2.6999999999999997" style="stroke:black;fill:black;stroke-width:2.0;stroke-dasharray:-;" /><circle cx="187.20000000000002" cy="-50.4" r="2.6999999999999997" style="stroke:black;fill:black;stroke-width:2.0;stroke-dasharray:-;" /><circle cx="259.2" cy="-50.4" r="2.6999999999999997" style="stroke:black;fill:black;stroke-width:2.0;stroke-dasharray:-;" /><circle cx="295.2" cy="-50.4" r="2.6999999999999997" style="stroke:black;fill:black;stroke-width:2.0;stroke-dasharray:-;" /><circle cx="421.2" cy="-50.4" r="2.6999999999999997" style="stroke:black;fill:black;stroke-width:2.0;stroke-dasharray:-;" /><circle cx="457.2" cy="-50.4" r="2.6999999999999997" style="stroke:black;fill:white;stroke-width:2.0;stroke-dasharray:-;" /><text x="457.2" y="-85.9" dominant-baseline="ideographic" fill="black" font-size="11" font-family="Arial" text-anchor="middle"><tspan x="457.2" dy="11">+5V</tspan><tspan x="457.2" dy="11">OUT</tspan></text></svg>