<svg xmlns="http://www.w3.org/2000/svg" xmlns:xlink="http://www.w3.org/1999/xlink" xml:lang="en" height="298.63999999999993pt" width="641.774pt" viewBox="-280.672 -105.39999999999999 641.774 298.63999999999993"><polygon points="225.0,141.3 216.0,153.9 207.0,141.29999999999998 " style="stroke:black;fill:none;stroke-width:2.0;stroke-dasharray:-;stroke-linecap:round;stroke-linejoin:round;" /><path d="M 0.0,-0.0 L 162.0,-0.0 L 162.0,-100.8 L 0.0,-100.8 L 0.0,-0.0" style="stroke:black;fill:none;stroke-width:2.0;stroke-dasharray:-;stroke-linecap:round;stroke-linejoin:round;" /><path d="M 0.0,-32.4 L -36.0,-32.4" style="stroke:black;fill:none;stroke-width:2.0;stroke-dasharray:-;stroke-linecap:round;stroke-linejoin:round;" /><path d="M 0.0,-68.39999999999999 L -36.0,-68.39999999999999" style="stroke:black;fill:none;stroke-width:2.0;stroke-dasharray:-;stroke-linecap:round;stroke-linejoin:round;" /><path d="M 162.0,-50.4 L 198.0,-50.4" style="stroke:black;fill:none;stroke-width:2.0;stroke-dasharray:-;stroke-linecap:round;stroke-linejoin:round;" /><path d="M -36.0,-32.4 L -36.0,-14.399999999999997 L -36.00000000000001,3.600000000000003" style="stroke:black;fill:none;stroke-width:2.0;stroke-dasharray:-;stroke-linecap:round;stroke-linejoin:round;" /><path d="M -36.00000000000001,3.600000000000003 L -36.00000000000001,18.000000000000004 L -45.00000000000001,18.000000000000004 L -27.000000000000007,18.000000000000004 M -42.30000000000001,22.320000000000004 L -29.700000000000006,22.320000000000004 M -37.80000000000001,26.640000000000004 L -34.2,26.640000000000004" style="stroke:black;fill:none;stroke-width:2.0;stroke-dasharray:-;stroke-linecap:round;stroke-linejoin:round;" /><path d="M -234.0,-68.39999999999999 L -225.0,-68.39999999999999 L -216.0,-68.39999999999999" style="stroke:black;fill:none;stroke-width:2.0;stroke-dasharray:-;stroke-linecap:round;stroke-linejoin:round;" /><path d="M -216.0,-68.39999999999999 L -180.0,-68.39999999999999 L -144.0,-68.39999999999999" style="stroke:black;fill:none;stroke-width:2.0;stroke-dasharray:-;stroke-linecap:round;stroke-linejoin:round;" /><path d="M -144.0,-68.39999999999999 L -108.0,-68.39999999999999 L -72.0,-68.39999999999999" style="stroke:black;fill:none;stroke-width:2.0;stroke-dasharray:-;stroke-linecap:round;stroke-linejoin:round;" /><path d="M -72.0,-68.39999999999999 L -54.0,-68.39999999999999 L -36.0,-68.39999999999999" style="stroke:black;fill:none;stroke-width:2.0;stroke-dasharray:-;stroke-linecap:round;stroke-linejoin:round;" /><path d="M -144.0,-68.39999999999999 L -144.0,-35.63999999999999 M -135.0,-35.63999999999999 L -153.0,-35.63999999999999 M -135.0,-29.159999999999993 L -153.0,-29.159999999999993 M -144.0,-29.159999999999993 L -144.0,3.600000000000003" style="stroke:black;fill:none;stroke-width:2.0;stroke-dasharray:-;stroke-linecap:round;stroke-linejoin:round;" /><path d="M -144.0,3.600000000000003 L -144.0,18.000000000000004 L -153.0,18.000000000000004 L -135.0,18.000000000000004 M -150.29999999999998,22.320000000000004 L -137.70000000000002,22.320000000000004 M -145.79999999999998,26.640000000000004 L -142.20000000000002,26.640000000000004" style="stroke:black;fill:none;stroke-width:2.0;stroke-dasharray:-;stroke-linecap:round;stroke-linejoin:round;" /><path d="M -216.0,-68.39999999999999 L -216.0,-35.63999999999999 M -207.0,-35.63999999999999 L -225.0,-35.63999999999999 M -207.0,-29.159999999999993 L -225.0,-29.159999999999993 M -216.0,-29.159999999999993 L -216.0,3.600000000000003" style="stroke:black;fill:none;stroke-width:2.0;stroke-dasharray:-;stroke-linecap:round;stroke-linejoin:round;" /><path d="M -216.0,3.600000000000003 L -216.0,18.000000000000004 L -225.0,18.000000000000004 L -207.0,18.000000000000004 M -222.29999999999998,22.320000000000004 L -209.70000000000002,22.320000000000004 M -217.79999999999998,26.640000000000004 L -214.20000000000002,26.640000000000004" style="stroke:black;fill:none;stroke-width:2.0;stroke-dasharray:-;stroke-linecap:round;stroke-linejoin:round;" /><path d="M 198.0,-50.4 L 207.0,-50.4 L 216.0,-50.4" style="stroke:black;fill:none;stroke-width:2.0;stroke-dasharray:-;stroke-linecap:round;stroke-linejoin:round;" /><path d="M 216.0,-50.4 L 234.0,-50.4 L 252.0,-50.4" style="stroke:black;fill:none;stroke-width:2.0;stroke-dasharray:-;stroke-linecap:round;stroke-linejoin:round;" /><path d="M 252.0,-50.4 L 270.0,-50.4 L 288.0,-50.4" style="stroke:black;fill:none;stroke-width:2.0;stroke-dasharray:-;stroke-linecap:round;stroke-linejoin:round;" /><path d="M 288.0,-50.4 L 306.0,-50.4 L 324.0,-50.4" style="stroke:black;fill:none;stroke-width:2.0;stroke-dasharray:-;stroke-linecap:round;stroke-linejoin:round;" /><path d="M 216.0,-50.4 L 216.0,-17.639999999999997 M 225.0,-17.639999999999997 L 207.0,-17.639999999999997 M 225.0,-11.159999999999993 L 207.0,-11.159999999999993 M 216.0,-11.159999999999993 L 216.0,21.6" style="stroke:black;fill:none;stroke-width:2.0;stroke-dasharray:-;stroke-linecap:round;stroke-linejoin:round;" /><path d="M 216.0,21.6 L 216.0,36.0 L 207.0,36.0 L 225.0,36.0 M 209.70000000000002,40.32000000000001 L 222.29999999999998,40.32000000000001 M 214.20000000000002,44.64000000000001 L 217.79999999999998,44.64000000000001" style="stroke:black;fill:none;stroke-width:2.0;stroke-dasharray:-;stroke-linecap:round;stroke-linejoin:round;" /><path d="M 216.0,21.6 L 216.0,54.36000000000001 M 225.0,54.36000000000001 L 207.0,54.36000000000001 M 225.0,60.84 L 207.0,60.84 M 216.0,60.84 L 216.0,93.60000000000001" style="stroke:black;fill:none;stroke-width:2.0;stroke-dasharray:-;stroke-linecap:round;stroke-linejoin:round;" /><path d="M 216.0,93.60000000000001 L 216.0,108.0 L 207.0,108.0 L 225.0,108.0 M 209.70000000000002,112.32000000000001 L 222.29999999999998,112.32000000000001 M 214.20000000000002,116.64000000000001 L 217.79999999999998,116.64000000000001" style="stroke:black;fill:none;stroke-width:2.0;stroke-dasharray:-;stroke-linecap:round;stroke-linejoin:round;" /><path d="M 216.0,93.60000000000001 L 225.0,96.60000000000001 L 207.0,102.60000000000001 L 225.0,108.6 L 207.0,114.60000000000001 L 225.0,120.60000000000001 L 207.0,126.6 L 216.0,129.6" style="stroke:black;fill:none;stroke-width:2.0;stroke-dasharray:-;stroke-linecap:round;stroke-linejoin:round;" /><path d="M 216.0,129.6 L 216.0,141.3 M 225.0,153.9 L 207.0,153.9 M 216.0,153.9 L 216.0,165.6" style="stroke:black;fill:none;stroke-width:2.0;stroke-dasharray:-;stroke-linecap:round;stroke-linejoin:round;" /><path d="M 229.5,150.29999999999998 L 238.9986493767039,155.7277996438308" style="stroke:black;fill:none;stroke-width:2.0;stroke-dasharray:-;stroke-linecap:round;stroke-linejoin:round;" /><path d="M 243.5135137157511 158.3077221232863 L 237.56976923423622 158.2283398931492 L 240.42752951917157 153.22725939451232 Z" style="stroke:black;fill:black;stroke-linecap:butt;stroke-linejoin:miter;" /><path d="M 229.5,142.20000000000002 L 238.9986493767039,147.62779964383083" style="stroke:black;fill:none;stroke-width:2.0;stroke-dasharray:-;stroke-linecap:round;stroke-linejoin:round;" /><path d="M 243.5135137157511 150.20772212328635 L 237.56976923423622 150.12833989314925 L 240.42752951917157 145.12725939451235 Z" style="stroke:black;fill:black;stroke-linecap:butt;stroke-linejoin:miter;" /><path d="M 216.0,165.6 L 216.0,180.0 L 207.0,180.0 L 225.0,180.0 M 209.70000000000002,184.31999999999996 L 222.29999999999998,184.31999999999996 M 214.20000000000002,188.64 L 217.79999999999998,188.64" style="stroke:black;fill:none;stroke-width:2.0;stroke-dasharray:-;stroke-linecap:round;stroke-linejoin:round;" /><text x="-2.6999999999999997" y="-46.099999999999994" dominant-baseline="ideographic" fill="black" font-size="11" font-family="Arial" text-anchor="end"><tspan x="-2.6999999999999997" dy="11">2</tspan></text><text x="5.3999999999999995" y="-46.4" dominant-baseline="central" fill="black" font-size="14" font-family="Arial" text-anchor="start"><tspan x="5.3999999999999995" dy="14">GND</tspan></text><text x="-2.6999999999999997" y="-82.1" dominant-baseline="ideographic" fill="black" font-size="11" font-family="Arial" text-anchor="end"><tspan x="-2.6999999999999997" dy="11">1</tspan></text><text x="5.3999999999999995" y="-82.39999999999999" dominant-baseline="central" fill="black" font-size="14" font-family="Arial" text-anchor="start"><tspan x="5.3999999999999995" dy="14">IN</tspan></text><text x="164.70000000000002" y="-64.1" dominant-baseline="ideographic" fill="black" font-size="11" font-family="Arial" text-anchor="start"><tspan x="164.70000000000002" dy="11">3</tspan></text><text x="156.6" y="-64.4" dominant-baseline="central" fill="black" font-size="14" font-family="Arial" text-anchor="end"><tspan x="156.6" dy="14">OUT</tspan></text><text x="84.60000000000001" y="-69.0" dominant-baseline="central" fill="black" font-size="10" font-family="Arial" text-anchor="middle"><tspan x="84.60000000000001" dy="10">U6</tspan><tspan x="84.60000000000001" dy="10">LM7812</tspan></text><text x="-131.4" y="-48.9" dominant-baseline="central" fill="black" font-size="11" font-family="Arial" text-anchor="start"><tspan x="-131.4" dy="11">C14</tspan><tspan x="-131.4" dy="11">470nF</tspan></text><text x="-203.4" y="-48.9" dominant-baseline="central" fill="black" font-size="11" font-family="Arial" text-anchor="start"><tspan x="-203.4" dy="11">C20</tspan><tspan x="-203.4" dy="11">470µF</tspan></text><text x="228.6" y="-30.9" dominant-baseline="central" fill="black" font-size="11" font-family="Arial" text-anchor="start"><tspan x="228.6" dy="11">C17</tspan><tspan x="228.6" dy="11">100nF</tspan></text><text x="228.6" y="41.1" dominant-baseline="central" fill="black" font-size="11" font-family="Arial" text-anchor="start"><tspan x="228.6" dy="11">C21</tspan><tspan x="228.6" dy="11">470µF</tspan></text><text x="235.79999999999998" y="95.10000000000001" dominant-baseline="central" fill="black" font-size="11" font-family="Arial" text-anchor="start"><tspan x="235.79999999999998" dy="11">R7</tspan><tspan x="235.79999999999998" dy="11">1kΩ</tspan></text><text x="254.60999999999999" y="136.60000000000002" dominant-baseline="central" fill="black" font-size="11" font-family="Arial" text-anchor="start"><tspan x="254.60999999999999" dy="11">LED2</tspan></text><circle cx="-234.0" cy="-68.39999999999999" r="2.6999999999999997" style="stroke:black;fill:white;stroke-width:2.0;stroke-dasharray:-;" /><text x="-240.29999999999998" y="-79.39999999999999" dominant-baseline="central" fill="black" font-size="11" font-family="Arial" text-anchor="end"><tspan x="-240.29999999999998" dy="11">+13.5V</tspan></text><circle cx="-216.0" cy="-68.39999999999999" r="2.6999999999999997" style="stroke:black;fill:black;stroke-width:2.0;stroke-dasharray:-;" /><circle cx="-144.0" cy="-68.39999999999999" r="2.6999999999999997" style="stroke:black;fill:black;stroke-width:2.0;stroke-dasharray:-;" /><circle cx="216.0" cy="-50.4" r="2.6999999999999997" style="stroke:black;fill:black;stroke-width:2.0;stroke-dasharray:-;" /><circle cx="252.0" cy="-50.4" r="2.6999999999999997" style="stroke:black;fill:black;stroke-width:2.0;stroke-dasharray:-;" /><circle cx="288.0" cy="-50.4" r="2.6999999999999997" style="stroke:black;fill:black;stroke-width:2.0;stroke-dasharray:-;" /><circle cx="324.0" cy="-50.4" r="2.6999999999999997" style="stroke:black;fill:white;stroke-width:2.0;stroke-dasharray:-;" /><text x="330.3" y="-61.4" dominant-baseline="central" fill="black" font-size="11" font-family="Arial" text-anchor="start"><tspan x="330.3" dy="11">+12V</tspan></text></svg>